<?xml version="1.0" encoding="UTF-8" standalone="no"?>
<!-- Created with Inkscape (http://www.inkscape.org/) -->

<svg
   xmlns:osb="http://www.openswatchbook.org/uri/2009/osb"
   xmlns:dc="http://purl.org/dc/elements/1.1/"
   xmlns:cc="http://creativecommons.org/ns#"
   xmlns:rdf="http://www.w3.org/1999/02/22-rdf-syntax-ns#"
   xmlns:svg="http://www.w3.org/2000/svg"
   xmlns="http://www.w3.org/2000/svg"
   xmlns:sodipodi="http://sodipodi.sourceforge.net/DTD/sodipodi-0.dtd"
   xmlns:inkscape="http://www.inkscape.org/namespaces/inkscape"
   id="svg3036"
   version="1.1"
   inkscape:version="0.48.3.1 r9886"
   width="600"
   height="400"
   sodipodi:docname="backward.png">
  <metadata
     id="metadata3042">
    <rdf:RDF>
      <cc:Work
         rdf:about="">
        <dc:format>image/svg+xml</dc:format>
        <dc:type
           rdf:resource="http://purl.org/dc/dcmitype/StillImage" />
        <dc:title></dc:title>
      </cc:Work>
    </rdf:RDF>
  </metadata>
  <defs
     id="defs3040">
    <linearGradient
       id="linearGradient6310">
      <stop
         style="stop-color:#000000;stop-opacity:1;"
         offset="0"
         id="stop6312" />
      <stop
         style="stop-color:#000000;stop-opacity:0;"
         offset="1"
         id="stop6314" />
    </linearGradient>
    <linearGradient
       id="linearGradient6292"
       osb:paint="solid">
      <stop
         style="stop-color:#ffffff;stop-opacity:1;"
         offset="0"
         id="stop6294" />
    </linearGradient>
    <linearGradient
       id="linearGradient4823"
       osb:paint="solid">
      <stop
         style="stop-color:#000000;stop-opacity:1;"
         offset="0"
         id="stop4825" />
    </linearGradient>
  </defs>
  <sodipodi:namedview
     pagecolor="#ffffff"
     bordercolor="#666666"
     borderopacity="1"
     objecttolerance="10"
     gridtolerance="10"
     guidetolerance="10"
     inkscape:pageopacity="0"
     inkscape:pageshadow="2"
     inkscape:window-width="1008"
     inkscape:window-height="728"
     id="namedview3038"
     showgrid="false"
     inkscape:zoom="0.83"
     inkscape:cx="336.45206"
     inkscape:cy="244.65295"
     inkscape:window-x="0"
     inkscape:window-y="31"
     inkscape:window-maximized="1"
     inkscape:current-layer="svg3036"
     showguides="true"
     inkscape:guide-bbox="true">
    <inkscape:grid
       type="xygrid"
       id="grid5981"
       empspacing="5"
       visible="true"
       enabled="true"
       snapvisiblegridlinesonly="true" />
  </sodipodi:namedview>
  <path
     style="fill:none;stroke:#000000;stroke-width:0.79302788px;stroke-linecap:butt;stroke-linejoin:miter;stroke-opacity:1"
     d="m 12.831419,205.63855 403.097841,2.40964"
     id="path6335"
     inkscape:connector-curvature="0" />
  <path
     style="fill:none;stroke:#000000;stroke-width:0.78571099px;stroke-linecap:butt;stroke-linejoin:miter;stroke-opacity:1"
     d="M 171.06024,369.60452 173.46988,30.438456"
     id="path6337"
     inkscape:connector-curvature="0" />
  <path
     style="color:#000000;fill:#000000;fill-opacity:1;fill-rule:nonzero;stroke:none;stroke-width:1.27100003;marker:none;visibility:visible;display:inline;overflow:visible;enable-background:accumulate"
     id="path6381"
     d="m 173.35543,26.968416 c -1.22411,3.99788 -2.74268,7.89504 -4.12992,11.83812 -1.6633,4.5 -3.10305,9.077 -4.67887,13.60795 0,0 -1.13796,-0.39578 -1.13796,-0.39578 l 0,0 c 1.57632,-4.53228 3.01645,-9.11067 4.68029,-13.61202 1.3929,-3.95914 2.91551,-7.87253 4.14781,-11.88573 0,0 1.11865,0.44746 1.11865,0.44746 z"
     inkscape:connector-curvature="0" />
  <path
     style="color:#000000;fill:#000000;fill-opacity:1;fill-rule:nonzero;stroke:none;stroke-width:1.27100003;marker:none;visibility:visible;display:inline;overflow:visible;enable-background:accumulate"
     id="path6383"
     d="m 172.61435,26.626546 c 0.87905,4.02698 2.15752,7.9226 3.64137,11.76302 1.59543,4.57523 3.33449,9.0962 5.09936,13.60757 0.24509,0.56025 0.49019,1.12049 0.73528,1.68073 0,0 -1.10394,0.48262 -1.10394,0.48262 l 0,0 c -0.25112,-0.57481 -0.50224,-1.14963 -0.75336,-1.72442 -1.76542,-4.51301 -3.50566,-9.03542 -5.10125,-13.61242 -1.50761,-3.90494 -2.80588,-7.86648 -3.69888,-11.96082 0,0 1.18142,-0.23629 1.18142,-0.23629 z"
     inkscape:connector-curvature="0" />
  <path
     style="color:#000000;fill:#000000;fill-opacity:1;fill-rule:nonzero;stroke:none;stroke-width:1.27100003;marker:none;visibility:visible;display:inline;overflow:visible;enable-background:accumulate"
     id="path6385"
     d="m 392.40499,198.34858 c 2.7803,0.37552 5.48249,1.13298 8.23686,1.64953 2.56636,0.70158 5.16667,1.238 7.72985,1.94768 2.31729,0.66401 4.71569,0.87943 7.11204,1.00324 1.07138,-0.059 2.09768,0.14666 3.11742,0.4394 0,0 -0.33953,1.15598 -0.33953,1.15598 l 0,0 c -0.92851,-0.28037 -1.86066,-0.44939 -2.84027,-0.39218 -2.48391,-0.12921 -4.96934,-0.35724 -7.37116,-1.0453 -2.53049,-0.70066 -5.09799,-1.22812 -7.63066,-1.92468 -2.75898,-0.51853 -5.46592,-1.27505 -8.25083,-1.65224 0,0 0.23628,-1.18143 0.23628,-1.18143 z"
     inkscape:connector-curvature="0" />
  <path
     style="color:#000000;fill:#000000;fill-opacity:1;fill-rule:nonzero;stroke:none;stroke-width:1.27100003;marker:none;visibility:visible;display:inline;overflow:visible;enable-background:accumulate"
     id="path6387"
     d="m 388.71747,213.7195 c 3.11946,-0.70662 6.16513,-1.6864 9.2688,-2.44812 2.94122,-0.5847 5.84818,-1.32993 8.71863,-2.19421 2.45821,-0.95225 4.89002,-1.96795 7.32026,-2.98924 1.18634,-0.53416 2.43402,-0.88118 3.68802,-1.20906 0,0 0.30364,1.16593 0.30364,1.16593 l 0,0 c -1.19925,0.31098 -2.39161,0.64247 -3.52526,1.15401 -2.46974,1.03595 -4.93832,2.0733 -7.4393,3.03202 -2.89048,0.87029 -5.8177,1.62154 -8.77929,2.21076 -3.13338,0.76632 -6.2063,1.76233 -9.35742,2.46633 0,0 -0.19808,-1.18842 -0.19808,-1.18842 z"
     inkscape:connector-curvature="0" />
  <path
     style="color:#000000;fill:#000000;fill-opacity:1;fill-rule:nonzero;stroke:none;stroke-width:1.27100003;marker:none;visibility:visible;display:inline;overflow:visible;enable-background:accumulate"
     id="path6389"
     d="m 200.04046,13.734827 c -0.57697,4.02924 -0.76906,8.100849 -0.91736,12.164419 -0.12686,4.36978 -0.13611,8.74184 -0.14315,13.11312 -7e-4,2.1901 -8.1e-4,1.11901 2.2e-4,3.21329 0,0 -1.20482,5.9e-4 -1.20482,5.9e-4 l 0,0 c -0.001,-2.09578 -9.1e-4,-1.02384 -2.2e-4,-3.21582 0.007,-4.38529 0.0164,-8.77137 0.14396,-13.15515 0.1504,-4.11516 0.34588,-8.238479 0.93294,-12.318519 0,0 1.18843,0.19807 1.18843,0.19807 z"
     inkscape:connector-curvature="0" />
  <path
     style="color:#000000;fill:#000000;fill-opacity:1;fill-rule:nonzero;stroke:none;stroke-width:1.27100003;marker:none;visibility:visible;display:inline;overflow:visible;enable-background:accumulate"
     id="path6391"
     d="m 203.80723,27.949506 c 0,3.08702 0,6.17404 0,9.26106 0,0.99477 0,1.98953 0,2.9843 0,0.27859 0,0.55718 0,0.83578 0,0.11741 0.10523,0.40435 0,0.35225 -1.41296,-0.69962 -1.06915,-0.76548 -0.85244,-1.98303 0.73862,-3.56416 2.30061,-6.87305 3.75358,-10.18634 1.00639,-2.61412 2.61131,-3.81534 3.03686,-0.0814 0.15422,2.7842 0.12055,5.57497 0.11164,8.36228 0.40062,2.81524 0.52332,2.11676 1.64979,0.62399 1.64893,-2.62086 3.09826,-5.37125 4.85959,-7.919 2.35194,-2.74694 3.18305,1.68948 3.70123,3.3914 0.9059,3.54027 1.87179,7.0478 3.50672,10.32611 0.29237,0.43795 0.58475,0.87591 0.87713,1.31386 0,0 -1.004,0.666 -1.004,0.666 l 0,0 c -0.31731,-0.48112 -0.63462,-0.96226 -0.95192,-1.4434 -1.65733,-3.3417 -2.66683,-6.90326 -3.58054,-10.51173 -0.26825,-0.88151 -0.49026,-1.7771 -0.77602,-2.65309 -0.0765,-0.23439 -0.25293,-0.43946 -0.2804,-0.68449 -0.0241,-0.21447 0.64126,-0.93032 -0.50179,0.2814 -1.78005,2.56434 -3.22075,5.34936 -4.90321,7.97804 -2.10284,2.58938 -3.59484,1.73967 -3.80139,-1.37294 0.009,-2.74233 0.0406,-5.48779 -0.10449,-8.22728 -0.0894,-0.85703 -0.45664,-1.27909 0.45468,-1.50945 0.0686,-0.0173 -0.14629,0.0378 -0.19087,0.0927 -0.39417,0.48561 -0.755,1.34646 -0.99962,1.85083 -1.41483,3.22613 -2.94174,6.44576 -3.6708,9.91363 -0.22408,1.25842 0.0604,1.41882 -1.53855,1.77187 -0.11466,0.0253 0,-0.23485 0,-0.35225 0,-0.27861 0,-0.5572 0,-0.83578 0,-0.99478 0,-1.98953 0,-2.9843 0,-3.08703 0,-6.17405 0,-9.26107 0,0 1.20482,0 1.20482,0 z"
     inkscape:connector-curvature="0" />
  <path
     style="color:#000000;fill:#000000;fill-opacity:1;fill-rule:nonzero;stroke:none;stroke-width:1.27100003;marker:none;visibility:visible;display:inline;overflow:visible;enable-background:accumulate"
     id="path6395"
     d="m 439.00081,192.40499 c -0.71462,3.51153 -1.41604,7.02572 -2.1421,10.53628 -0.62611,3.26124 -1.4702,6.47127 -2.12954,9.72681 -0.0552,0.21981 0.0556,0.6097 -0.16547,0.65943 -0.4331,0.0974 -0.96818,-0.026 -1.28968,-0.33212 -0.26081,-0.24833 -0.18398,-4.83517 -0.18546,-5.31408 -0.12306,-3.97454 0.47683,-7.85493 1.98545,-11.52814 1.53044,-3.3006 4.29493,-5.60957 7.42952,-7.31364 2.70516,-1.32937 5.28725,-1.45538 7.7431,0.36779 1.72741,1.95449 1.85772,3.62544 0.089,5.54197 -1.87947,1.55589 -4.2751,1.88704 -6.62155,2.11895 -2.0511,0.12082 -3.74524,0.0578 -3.61298,2.51481 0.85675,3.12157 2.87843,5.75995 4.70996,8.37406 1.78315,2.39607 3.72959,4.93094 6.61164,6.00007 0,0 -0.43031,1.12536 -0.43031,1.12536 l 0,0 c -3.09651,-1.21317 -5.25694,-3.79333 -7.16814,-6.43421 -1.96745,-2.80949 -4.15904,-5.65548 -4.92796,-9.06165 0.0991,-3.27811 1.81516,-3.56187 4.70014,-3.7175 2.05275,-0.19984 4.18095,-0.44664 5.86569,-1.74969 1.28856,-1.3046 1.24579,-2.30145 0.0509,-3.75646 -2.00727,-1.60989 -4.19453,-1.33943 -6.43652,-0.26364 -2.89602,1.556 -5.46464,3.68135 -6.88887,6.71362 -1.46193,3.5202 -2.0077,7.25286 -1.89425,11.06461 0.004,1.39985 -0.004,2.80051 0.066,4.19912 0.0119,0.23825 0.20225,0.5307 0.0495,0.71394 -0.23601,0.28314 -0.65118,0.51056 -1.01344,0.44246 -0.20418,-0.0384 0.10196,-0.40281 0.15293,-0.60422 0.6597,-3.25721 1.50369,-6.46892 2.13055,-9.73169 0.72561,-3.50795 1.42742,-7.01941 2.14052,-10.52852 0,0 1.18142,0.23628 1.18142,0.23628 z"
     inkscape:connector-curvature="0" />
  <path
     style="color:#000000;fill:#000000;fill-opacity:1;fill-rule:nonzero;stroke:none;stroke-width:1.27100003;marker:none;visibility:visible;display:inline;overflow:visible;enable-background:accumulate"
     id="path6397"
     d="m 453.73263,204.21686 c 2.82369,-0.30658 5.66406,-0.57403 8.3197,-1.63422 1.67335,-1.07282 2.06559,-1.79737 0.10017,-2.51168 -2.69115,-0.73681 -5.39535,-0.76493 -7.98306,0.29393 -1.9731,1.18659 -2.78507,3.08176 -2.39365,5.30379 1.48109,2.423 4.5561,3.21344 7.14798,3.86922 2.69784,0.4413 5.15759,-0.0365 7.61071,-1.14124 0,0 0.49063,1.10039 0.49063,1.10039 l 0,0 c -2.71049,1.19761 -5.43037,1.72138 -8.3982,1.20853 -3.06853,-0.78366 -6.56763,-1.77769 -8.04147,-4.85075 -0.39672,-2.80898 0.60351,-5.16533 3.1365,-6.60856 2.8989,-1.13718 5.90197,-1.16417 8.89725,-0.28607 2.92484,1.34046 2.44406,3.25431 -0.12507,4.74333 -2.80463,1.0929 -5.78079,1.42833 -8.76149,1.71815 0,0 0,-1.20482 0,-1.20482 z"
     inkscape:connector-curvature="0" />
  <path
     sodipodi:type="arc"
     style="color:#000000;fill:none;stroke:#000000;stroke-width:1.27100003;stroke-opacity:1;marker:none;visibility:visible;display:inline;overflow:visible;enable-background:accumulate"
     id="path6471"
     sodipodi:cx="568.07227"
     sodipodi:cy="321.68674"
     sodipodi:rx="64.457832"
     sodipodi:ry="64.457832"
     d="m 632.5301,321.68674 a 64.457832,64.457832 0 1 1 -128.91567,0 64.457832,64.457832 0 1 1 128.91567,0 z"
     transform="matrix(1.498031,0,0,1.4712914,-579.40103,-268.00139)" />
  <path
     style="fill:none;stroke:#000000;stroke-width:0.7516169px;stroke-linecap:butt;stroke-linejoin:miter;stroke-opacity:1"
     d="m 265.6816,206.07628 70.22717,-65.11103"
     id="path6475"
     inkscape:connector-curvature="0" />
  <path
     style="color:#000000;fill:#000000;fill-opacity:1;fill-rule:nonzero;stroke:none;stroke-width:1.27100003;marker:none;visibility:visible;display:inline;overflow:visible;enable-background:accumulate"
     id="path6461-9"
     d="m 335.04192,139.08669 c 0.77688,1.87111 0.75667,3.96764 0.69461,6.08286 -0.20893,2.44526 -0.35631,4.88351 -0.60508,7.33551 -0.0507,2.05091 -0.0514,4.10067 0.25396,6.06495 0.0179,0.88625 0.0941,1.75783 0.13434,2.63852 0,0 0.95594,-0.22946 0.95594,-0.22946 l 0,0 c -0.0418,-0.90202 -0.11639,-1.79569 -0.14073,-2.7021 -0.30051,-1.91298 -0.29299,-3.9118 -0.25024,-5.90857 0.24936,-2.46741 0.39949,-4.92134 0.60812,-7.38185 0.0647,-2.2127 0.0706,-4.40421 -0.75373,-6.35592 0,0 -0.89719,0.45606 -0.89719,0.45606 z"
     inkscape:connector-curvature="0" />
  <path
     style="color:#000000;fill:#000000;fill-opacity:1;fill-rule:nonzero;stroke:#000000;stroke-width:0.0793299;stroke-linecap:butt;stroke-linejoin:miter;stroke-miterlimit:4;stroke-opacity:1;stroke-dasharray:none;stroke-dashoffset:0;marker:none;visibility:visible;display:inline;overflow:visible;enable-background:accumulate"
     id="path3263"
     d="m 320.35854,140.30481 c 1.88176,0 3.76352,0 5.64527,0 1.62057,0 3.24115,0 4.86172,0 1.20601,0 2.41202,0 3.61804,0 0,0 0,1.35575 0,1.35575 l 0,0 c -1.20602,0 -2.41203,0 -3.61804,0 -1.62057,0 -3.24115,0 -4.86172,0 -1.88175,0 -3.76351,0 -5.64527,0 0,0 0,-1.35575 0,-1.35575 z"
     inkscape:connector-curvature="0" />
  <path
     style="color:#000000;fill:#00000e;fill-opacity:1;fill-rule:nonzero;stroke:none;stroke-width:3;marker:none;visibility:visible;display:inline;overflow:visible;enable-background:accumulate"
     id="path3593"
     d="m 267.02841,219.46976 c -0.49156,3.01365 -0.74801,6.05704 -0.9179,9.10354 -0.12604,2.59523 -0.1363,5.194 -0.14261,7.79169 -7.1e-4,1.61757 -7.9e-4,0.80989 2.2e-4,2.42303 0,0 -1.20482,7.5e-4 -1.20482,7.5e-4 l 0,0 c -0.001,-1.61522 -9.3e-4,-0.80632 -2.2e-4,-2.42671 0.006,-2.6191 0.017,-5.2393 0.14449,-7.85592 0.17269,-3.09033 0.43334,-6.17749 0.93241,-9.23445 0,0 1.18843,0.19807 1.18843,0.19807 z"
     inkscape:connector-curvature="0" />
  <path
     style="color:#000000;fill:#00000e;fill-opacity:1;fill-rule:nonzero;stroke:none;stroke-width:3;marker:none;visibility:visible;display:inline;overflow:visible;enable-background:accumulate"
     id="path3595"
     d="m 240.44815,23.988474 c -2.5044,3.263918 -4.19329,6.986125 -5.30358,10.92395 -0.66181,5.146738 1.14149,8.55003 4.611,12.152539 2.11766,1.713834 1.03767,0.949159 3.22454,2.315679 0,0 -0.64088,1.020226 -0.64088,1.020226 l 0,0 c -2.34632,-1.48111 -1.18992,-0.654295 -3.45349,-2.50225 -3.76739,-3.948776 -5.67652,-7.714414 -4.90044,-13.314355 1.16214,-4.089934 2.9138,-7.959652 5.52205,-11.348434 0,0 0.9408,0.752645 0.9408,0.752645 z"
     inkscape:connector-curvature="0" />
  <path
     style="color:#000000;fill:#00000e;fill-opacity:1;fill-rule:nonzero;stroke:none;stroke-width:3;marker:none;visibility:visible;display:inline;overflow:visible;enable-background:accumulate"
     id="path3597"
     d="m 249.85265,43.975903 c 2.83486,-0.136988 5.76222,0.394918 8.50827,-0.461627 1.39531,-0.643017 0.96513,-1.837398 0.44331,-2.974178 -0.89913,-1.90639 -2.21781,-3.557228 -3.13532,-5.460116 -1.04131,-2.403148 -0.72458,-4.738469 0.79253,-6.813286 1.79825,-1.794387 4.25181,-2.104636 6.66478,-2.309836 2.88283,0.15511 4.51131,0.573483 4.68362,3.78969 -0.0915,2.625056 -1.62973,4.63288 -3.16253,6.61853 -0.22745,0.43776 -2.08458,1.64474 -1.69209,2.335488 0.0744,0.130888 0.29956,0.0371 0.44556,0.07381 2.16493,0.623247 4.3892,0.149908 6.56745,-0.128812 2.0001,-0.262482 4.01114,-0.41485 6.02363,-0.539394 0,0 0.0743,1.202524 0.0743,1.202524 l 0,0 c -1.98625,0.122648 -3.97105,0.272901 -5.94505,0.531945 -2.43025,0.310963 -4.92918,0.82442 -7.31354,-0.01758 -2.14743,-1.481254 -0.39283,-2.847458 0.88599,-4.19421 1.35925,-1.76071 2.79287,-3.522687 2.91187,-5.849287 0.026,-2.52902 -1.16862,-2.39337 -3.37811,-2.622138 -2.05818,0.17167 -4.21031,0.373334 -5.80299,1.83339 -1.29863,1.665658 -1.50601,3.606733 -0.66909,5.568209 0.91376,1.917049 2.27123,3.561659 3.15056,5.493179 0.78862,1.831956 0.94366,3.703104 -1.1978,4.615804 -2.88126,0.840739 -5.88716,0.431601 -8.85539,0.512714 0,0 0,-1.204819 0,-1.204819 z"
     inkscape:connector-curvature="0" />
  <path
     style="color:#000000;fill:#00000e;fill-opacity:1;fill-rule:nonzero;stroke:none;stroke-width:3;marker:none;visibility:visible;display:inline;overflow:visible;enable-background:accumulate"
     id="path3605"
     d="m 287.4361,27.602932 c -2.42104,2.651846 -4.76602,5.37181 -7.19847,8.014744 -0.41307,0.605402 -5.3468,4.861796 -4.72267,5.403379 0.0156,-0.09734 -0.0449,-0.255701 0.0467,-0.292023 0.38213,-0.151453 5.56419,-0.159428 6.31566,-0.187156 3.11645,-0.167899 6.20396,-0.20513 9.30196,0.176745 1.14409,-0.107085 3.03486,0.72018 2.7008,-0.961708 -1.18994,-2.006503 -2.2784,-4.081776 -3.42943,-6.11645 -1.04631,-2.010557 -1.91861,-4.130757 -2.67435,-6.269786 -0.12708,-0.259992 -0.25416,-0.519983 -0.38124,-0.779974 0,0 1.08472,-0.524385 1.08472,-0.524385 l 0,0 c 0.14432,0.301422 0.28864,0.602845 0.43297,0.904267 0.72743,2.074225 1.57878,4.127134 2.58702,6.077485 1.22294,2.169644 2.4819,4.346757 3.5769,6.568234 0.19517,2.537088 -2.0823,2.475325 -4.04513,2.298044 -3.03392,-0.375791 -6.05737,-0.330968 -9.1098,-0.168472 -1.41597,0.05223 -5.72249,0.556228 -6.89819,0.06113 -0.2991,-0.125954 -0.47181,-0.445752 -0.70771,-0.668628 0.0672,-2.790234 3.60163,-4.26406 5.03526,-6.336621 2.4137,-2.622391 4.74005,-5.321975 7.14417,-7.951471 0,0 0.9408,0.752645 0.9408,0.752645 z"
     inkscape:connector-curvature="0" />
  <path
     style="color:#000000;fill:#00000e;fill-opacity:1;fill-rule:nonzero;stroke:none;stroke-width:3;marker:none;visibility:visible;display:inline;overflow:visible;enable-background:accumulate"
     id="path3607"
     d="m 298.83564,26.264943 c -0.90626,3.28386 -1.50182,6.636181 -1.90774,10.015015 -0.11539,2.810416 0.77457,4.320737 3.26368,5.52244 2.75085,0.931415 5.64152,0.863776 8.49365,0.641347 0,0 0.093,1.201227 0.093,1.201227 l 0,0 c -3.06807,0.235723 -6.17775,0.288232 -9.12174,-0.763112 -2.94851,-1.493625 -4.07847,-3.397444 -3.92476,-6.745804 0.40912,-3.396349 0.9993,-6.769257 1.9155,-10.069184 0,0 1.18843,0.198071 1.18843,0.198071 z"
     inkscape:connector-curvature="0" />
  <path
     style="color:#000000;fill:#00000e;fill-opacity:1;fill-rule:nonzero;stroke:none;stroke-width:3;marker:none;visibility:visible;display:inline;overflow:visible;enable-background:accumulate"
     id="path3609"
     d="m 293.22615,33.13253 c 3.85697,0 7.71394,0 11.57092,0 2.38877,-0.01104 4.77209,0.07885 7.15194,-0.141638 0,0 0.10921,1.19986 0.10921,1.19986 l 0,0 c -2.41699,0.216315 -4.83541,0.144072 -7.26115,0.146597 -3.85698,0 -7.71395,0 -11.57092,0 0,0 0,-1.204819 0,-1.204819 z"
     inkscape:connector-curvature="0" />
  <path
     style="color:#000000;fill:#00000e;fill-opacity:1;fill-rule:nonzero;stroke:none;stroke-width:3;marker:none;visibility:visible;display:inline;overflow:visible;enable-background:accumulate"
     id="path3611"
     d="m 307.8498,17.988078 c 3.89269,2.294119 6.2371,6.140123 7.99919,10.17138 2.13348,5.749718 1.64675,10.279904 -0.61628,15.844494 -1.34939,2.808634 -3.55035,4.943487 -5.79578,7.028394 0,0 -0.8194,-0.88327 -0.8194,-0.88327 l 0,0 c 2.11806,-1.963126 4.21065,-3.962844 5.49988,-6.60087 2.15136,-5.23833 2.62947,-9.480422 0.62667,-14.908381 -1.64536,-3.806421 -3.8474,-7.452347 -7.51415,-9.618622 0,0 0.61987,-1.033125 0.61987,-1.033125 z"
     inkscape:connector-curvature="0" />
  <path
     style="color:#000000;fill:#00000e;fill-opacity:1;fill-rule:nonzero;stroke:none;stroke-width:3;marker:none;visibility:visible;display:inline;overflow:visible;enable-background:accumulate"
     id="path3595-9"
     d="m 481.80073,191.8879 c -2.5044,3.26391 -4.19329,6.98612 -5.30358,10.92395 -0.66181,5.14673 1.14149,8.55003 4.611,12.15254 2.11766,1.71383 1.03767,0.94915 3.22454,2.31567 0,0 -0.64088,1.02023 -0.64088,1.02023 l 0,0 c -2.34632,-1.48111 -1.18992,-0.65429 -3.45349,-2.50225 -3.76739,-3.94878 -5.67652,-7.71441 -4.90044,-13.31435 1.16214,-4.08994 2.9138,-7.95966 5.52205,-11.34844 0,0 0.9408,0.75265 0.9408,0.75265 z"
     inkscape:connector-curvature="0" />
  <path
     style="color:#000000;fill:#00000e;fill-opacity:1;fill-rule:nonzero;stroke:none;stroke-width:3;marker:none;visibility:visible;display:inline;overflow:visible;enable-background:accumulate"
     id="path3597-7"
     d="m 491.20523,211.87533 c 2.83486,-0.13699 5.76222,0.39491 8.50827,-0.46163 1.39531,-0.64302 0.96513,-1.8374 0.44331,-2.97418 -0.89913,-1.90639 -2.21781,-3.55723 -3.13532,-5.46012 -1.04131,-2.40314 -0.72458,-4.73846 0.79253,-6.81328 1.79825,-1.79439 4.25181,-2.10464 6.66478,-2.30984 2.88283,0.15511 4.51131,0.57349 4.68362,3.78969 -0.0915,2.62506 -1.62973,4.63288 -3.16253,6.61853 -0.22745,0.43776 -2.08458,1.64474 -1.69209,2.33549 0.0744,0.13089 0.29956,0.0371 0.44556,0.0738 2.16493,0.62325 4.3892,0.14991 6.56745,-0.12881 2.0001,-0.26248 4.01114,-0.41485 6.02363,-0.5394 0,0 0.0743,1.20253 0.0743,1.20253 l 0,0 c -1.98625,0.12265 -3.97105,0.2729 -5.94505,0.53194 -2.43025,0.31097 -4.92918,0.82442 -7.31354,-0.0176 -2.14743,-1.48125 -0.39283,-2.84745 0.88599,-4.19421 1.35925,-1.76071 2.79287,-3.52268 2.91187,-5.84928 0.026,-2.52902 -1.16862,-2.39337 -3.37811,-2.62214 -2.05818,0.17167 -4.21031,0.37333 -5.80299,1.83339 -1.29863,1.66566 -1.50601,3.60673 -0.66909,5.56821 0.91376,1.91705 2.27123,3.56166 3.15056,5.49318 0.78862,1.83195 0.94366,3.7031 -1.1978,4.6158 -2.88126,0.84074 -5.88716,0.4316 -8.85539,0.51271 0,0 0,-1.20481 0,-1.20481 z"
     inkscape:connector-curvature="0" />
  <path
     style="color:#000000;fill:#00000e;fill-opacity:1;fill-rule:nonzero;stroke:none;stroke-width:3;marker:none;visibility:visible;display:inline;overflow:visible;enable-background:accumulate"
     id="path3605-6"
     d="m 528.78868,195.50235 c -2.42104,2.65185 -4.76602,5.37181 -7.19847,8.01475 -0.41307,0.6054 -5.3468,4.86179 -4.72267,5.40338 0.0156,-0.0973 -0.0449,-0.2557 0.0467,-0.29203 0.38213,-0.15145 5.56419,-0.15942 6.31566,-0.18715 3.11645,-0.1679 6.20396,-0.20513 9.30196,0.17674 1.14409,-0.10708 3.03486,0.72018 2.7008,-0.9617 -1.18994,-2.00651 -2.2784,-4.08178 -3.42943,-6.11645 -1.04631,-2.01056 -1.91861,-4.13076 -2.67435,-6.26979 -0.12708,-0.25999 -0.25416,-0.51998 -0.38124,-0.77997 0,0 1.08472,-0.52439 1.08472,-0.52439 l 0,0 c 0.14432,0.30142 0.28864,0.60285 0.43297,0.90427 0.72743,2.07422 1.57878,4.12713 2.58702,6.07748 1.22294,2.16965 2.4819,4.34676 3.5769,6.56824 0.19517,2.53708 -2.0823,2.47532 -4.04513,2.29804 -3.03392,-0.37579 -6.05737,-0.33097 -9.1098,-0.16847 -1.41597,0.0522 -5.72249,0.55623 -6.89819,0.0611 -0.2991,-0.12596 -0.47181,-0.44575 -0.70771,-0.66863 0.0672,-2.79023 3.60163,-4.26406 5.03526,-6.33662 2.4137,-2.62239 4.74005,-5.32198 7.14417,-7.95147 0,0 0.9408,0.75264 0.9408,0.75264 z"
     inkscape:connector-curvature="0" />
  <path
     style="color:#000000;fill:#00000e;fill-opacity:1;fill-rule:nonzero;stroke:none;stroke-width:3;marker:none;visibility:visible;display:inline;overflow:visible;enable-background:accumulate"
     id="path3607-2"
     d="m 540.18822,194.16437 c -0.90626,3.28386 -1.50182,6.63618 -1.90774,10.01501 -0.11539,2.81042 0.77457,4.32074 3.26368,5.52244 2.75085,0.93142 5.64152,0.86378 8.49365,0.64135 0,0 0.093,1.20122 0.093,1.20122 l 0,0 c -3.06807,0.23573 -6.17775,0.28824 -9.12174,-0.76311 -2.94851,-1.49362 -4.07847,-3.39744 -3.92476,-6.7458 0.40912,-3.39635 0.9993,-6.76926 1.9155,-10.06919 0,0 1.18843,0.19808 1.18843,0.19808 z"
     inkscape:connector-curvature="0" />
  <path
     style="color:#000000;fill:#00000e;fill-opacity:1;fill-rule:nonzero;stroke:none;stroke-width:3;marker:none;visibility:visible;display:inline;overflow:visible;enable-background:accumulate"
     id="path3609-8"
     d="m 534.57873,201.03195 c 3.85697,0 7.71394,0 11.57092,0 2.38877,-0.011 4.77209,0.0788 7.15194,-0.14164 0,0 0.10921,1.19986 0.10921,1.19986 l 0,0 c -2.41699,0.21632 -4.83541,0.14408 -7.26115,0.1466 -3.85698,0 -7.71395,0 -11.57092,0 0,0 0,-1.20482 0,-1.20482 z"
     inkscape:connector-curvature="0" />
  <path
     style="color:#000000;fill:#00000e;fill-opacity:1;fill-rule:nonzero;stroke:none;stroke-width:3;marker:none;visibility:visible;display:inline;overflow:visible;enable-background:accumulate"
     id="path3611-6"
     d="m 549.20238,185.8875 c 3.89269,2.29412 6.2371,6.14012 7.99919,10.17138 2.13348,5.74972 1.64675,10.2799 -0.61628,15.84449 -1.34939,2.80864 -3.55035,4.94349 -5.79578,7.0284 0,0 -0.8194,-0.88327 -0.8194,-0.88327 l 0,0 c 2.11806,-1.96313 4.21065,-3.96285 5.49988,-6.60087 2.15136,-5.23833 2.62947,-9.48042 0.62667,-14.90838 -1.64536,-3.80642 -3.8474,-7.45235 -7.51415,-9.61863 0,0 0.61987,-1.03312 0.61987,-1.03312 z"
     inkscape:connector-curvature="0" />
  <path
     style="color:#000000;fill:#00000e;fill-opacity:1;fill-rule:nonzero;stroke:none;stroke-width:3;marker:none;visibility:visible;display:inline;overflow:visible;enable-background:accumulate"
     id="path4769"
     d="m 236.51067,81.169486 c -2.06574,-0.200612 -4.77318,-1.35934 -6.6201,0.02173 1.40963,1.579792 3.43027,2.674983 5.20584,3.803245 1.77695,1.652932 5.12432,2.653151 6.0837,5.111659 0.14289,0.36617 0.10262,0.779397 0.15393,1.169095 -0.27367,0.394655 -0.44688,0.882834 -0.821,1.183964 -2.27726,1.832949 -6.88397,1.504126 -9.62494,1.428267 -2.08689,-0.0904 -3.63099,-0.784009 -5.00097,-2.309677 0,0 0.91156,-0.787822 0.91156,-0.787822 l 0,0 c 1.08175,1.31951 2.40659,1.800006 4.12309,1.893151 3.07504,0.08688 6.46612,0.30796 9.20932,-1.340681 0.22079,-2.105382 -4.32646,-4.143427 -5.68103,-5.33118 -1.32039,-0.839646 -5.67165,-3.107747 -5.6134,-4.960921 0.01,-0.318156 0.26432,-0.579162 0.39648,-0.868743 2.3245,-1.38964 4.9878,-0.614475 7.5138,-0.193513 0,0 -0.23628,1.181423 -0.23628,1.181423 z"
     inkscape:connector-curvature="0" />
  <path
     style="color:#000000;fill:#00000e;fill-opacity:1;fill-rule:nonzero;stroke:none;stroke-width:3;marker:none;visibility:visible;display:inline;overflow:visible;enable-background:accumulate"
     id="path4771"
     d="m 247.27121,72.139539 c -1.81518,4.361918 -2.93066,8.917151 -3.6868,13.56654 -0.79127,4.423508 -0.54388,7.39362 2.87452,10.468876 1.54379,0.958897 0.74756,0.671372 2.35069,0.961299 0,0 -0.25224,1.17812 -0.25224,1.17812 l 0,0 c -2.05687,-0.491247 -1.08313,-0.08289 -2.91079,-1.249648 -3.6843,-3.406995 -4.13098,-6.701735 -3.25132,-11.552362 0.76885,-4.711998 1.89405,-9.332209 3.73295,-13.753822 0,0 1.14299,0.380997 1.14299,0.380997 z"
     inkscape:connector-curvature="0" />
  <path
     style="color:#000000;fill:#00000e;fill-opacity:1;fill-rule:nonzero;stroke:none;stroke-width:3;marker:none;visibility:visible;display:inline;overflow:visible;enable-background:accumulate"
     id="path4773"
     d="m 237.95184,82.397702 c 3.35665,-1.070828 6.8608,-1.436674 10.31066,-2.057933 2.34165,-0.443955 1.18848,-0.231765 3.45928,-0.63775 0,0 0.21202,1.186018 0.21202,1.186018 l 0,0 c -2.26217,0.40435 -1.10937,0.192312 -3.45813,0.637543 -3.44276,0.61784 -6.93762,0.987498 -10.28754,2.053544 0,0 -0.23629,-1.181422 -0.23629,-1.181422 z"
     inkscape:connector-curvature="0" />
  <path
     style="color:#000000;fill:#00000e;fill-opacity:1;fill-rule:nonzero;stroke:none;stroke-width:3;marker:none;visibility:visible;display:inline;overflow:visible;enable-background:accumulate"
     id="path4775"
     d="m 258.36194,80.377803 c -2.49694,1.027003 -4.73937,2.542616 -5.93075,5.020499 -0.30845,2.359407 2.64204,0.705606 3.6273,0.181009 2.04463,-1.41726 3.5285,-3.418964 4.91413,-5.444518 0.29366,0.300531 0.6892,0.527727 0.88097,0.901594 0.0786,0.153144 -0.1197,0.323049 -0.16805,0.488235 -0.36164,1.23546 -0.49399,2.512367 -0.62341,3.788029 -0.11089,1.555337 -0.0639,0.772385 -0.14041,2.348897 0,0 -1.20339,-0.05858 -1.20339,-0.05858 l 0,0 c 0.0789,-1.615963 0.0303,-0.811831 0.14518,-2.412422 0.0512,-0.500659 0.63747,-4.657739 0.92617,-4.719553 0.39974,-0.08559 0.78467,0.229702 1.177,0.344552 -1.50004,2.187902 -3.11664,4.338408 -5.35493,5.834047 -2.24686,1.132686 -6.05042,2.287383 -5.25986,-1.786741 1.3952,-2.74337 3.79175,-4.50371 6.62905,-5.628038 0,0 0.381,1.142992 0.381,1.142992 z"
     inkscape:connector-curvature="0" />
  <path
     style="color:#000000;fill:#00000e;fill-opacity:1;fill-rule:nonzero;stroke:none;stroke-width:3;marker:none;visibility:visible;display:inline;overflow:visible;enable-background:accumulate"
     id="path4777"
     d="m 267.91647,69.513427 c -0.61047,3.72808 -0.76134,7.512223 -0.91394,11.280996 -0.0951,2.410315 -0.1099,4.822458 -0.14312,7.234067 -0.40144,-0.212467 -0.91566,-0.286734 -1.20434,-0.637402 -0.33399,-0.405717 0.29744,-3.723433 0.51799,-4.165711 0.24289,-0.487093 0.61334,-0.89936 0.92,-1.34904 2.16493,-2.262281 5.04704,-3.793048 8.17028,-2.856052 2.79974,2.309296 -0.11946,5.472096 -2.05103,7.206805 -2.32123,1.473196 -4.95291,3.938692 -7.89591,3.169626 -0.20462,-0.336353 -0.40923,-0.672707 -0.61385,-1.00906 0,0 1.13186,-0.412892 1.13186,-0.412892 l 0,0 c -0.0483,0.09211 -0.0966,0.184227 -0.14496,0.276341 1.89631,0.898965 5.17328,-2.034262 6.722,-2.924128 1.24339,-1.094724 3.81899,-3.326717 2.47683,-5.161738 -2.53256,-0.933302 -5.03931,0.666019 -6.81295,2.408763 -0.75568,1.009779 -1.12087,1.753311 -1.21299,3.027609 -0.016,0.221591 0.0134,1.771351 -0.002,1.790285 -0.28971,0.346644 -0.80345,0.413322 -1.20518,0.619984 0.0334,-2.422331 0.0483,-4.845199 0.14398,-7.266226 0.15531,-3.831644 0.31002,-7.679036 0.93636,-11.468512 0,0 1.18142,0.236285 1.18142,0.236285 z"
     inkscape:connector-curvature="0" />
  <path
     style="color:#000000;fill:#00000e;fill-opacity:1;fill-rule:nonzero;stroke:none;stroke-width:3;marker:none;visibility:visible;display:inline;overflow:visible;enable-background:accumulate"
     id="path4779"
     d="m 280.2564,65.825908 c 0.14359,4.576347 0.004,9.158437 -0.0532,13.736013 -0.0734,2.541445 -0.17246,5.046976 0.40336,7.533104 0,0 -1.17507,0.266078 -1.17507,0.266078 l 0,0 c -0.57326,-2.583912 -0.53348,-5.17476 -0.43302,-7.814279 0.0565,-4.506763 0.18245,-9.016629 0.0695,-13.522845 0,0 1.18842,-0.198071 1.18842,-0.198071 z"
     inkscape:connector-curvature="0" />
  <path
     style="color:#000000;fill:#00000e;fill-opacity:1;fill-rule:nonzero;stroke:none;stroke-width:3;marker:none;visibility:visible;display:inline;overflow:visible;enable-background:accumulate"
     id="path4781"
     d="m 285.10302,82.3942 c 3.11269,-0.330818 6.00402,-1.397903 8.39384,-3.424195 2.19311,-3.078494 -1.3192,-1.709197 -2.60081,-1.009302 -2.46141,2.133584 -4.23046,5.239993 -3.76134,8.555211 1.17573,3.283687 4.63771,3.73062 7.70712,3.637834 2.55683,-0.307909 4.9554,-1.110559 7.29111,-2.154608 0,0 0.48999,1.100682 0.48999,1.100682 l 0,0 c -2.48371,1.101407 -5.03167,1.954731 -7.75111,2.258372 -3.73434,0.0752 -7.66505,-0.688088 -8.93336,-4.698824 -0.42157,-4.089062 1.33957,-7.159822 4.40168,-9.767572 0.53057,-0.265172 1.02644,-0.615769 1.59169,-0.795514 3.07892,-0.979081 4.45861,1.56225 2.33907,3.797006 -2.57648,2.138606 -5.63045,3.341643 -8.96981,3.689336 0,0 -0.19807,-1.188426 -0.19807,-1.188426 z"
     inkscape:connector-curvature="0" />
  <path
     style="color:#000000;fill:#00000e;fill-opacity:1;fill-rule:nonzero;stroke:none;stroke-width:3;marker:none;visibility:visible;display:inline;overflow:visible;enable-background:accumulate"
     id="path4783"
     d="m 214.72892,149.13709 c -1.11476,2.91498 -1.30165,5.74576 -0.0935,8.63444 1.17686,1.89639 3.06492,3.07085 5.14819,1.8743 2.09282,-1.5405 2.90383,-3.87602 3.39896,-6.32091 0.0535,-0.40552 0.10704,-0.81104 0.16056,-1.21657 0,0 1.19427,0.15906 1.19427,0.15906 l 0,0 c -0.0582,0.43301 -0.11631,0.86602 -0.17447,1.29903 -0.58084,2.81208 -1.57839,5.44684 -4.03416,7.15382 -3.18122,1.47898 -4.99151,0.25003 -6.80853,-2.49269 -1.28235,-3.19769 -1.15776,-6.32123 0.0901,-9.53794 0,0 1.11865,0.44746 1.11865,0.44746 z"
     inkscape:connector-curvature="0" />
  <path
     style="color:#000000;fill:#00000e;fill-opacity:1;fill-rule:nonzero;stroke:none;stroke-width:3;marker:none;visibility:visible;display:inline;overflow:visible;enable-background:accumulate"
     id="path4785"
     d="m 228.16094,147.95169 c -0.22598,2.65375 -1.01215,5.37601 -0.77461,8.04942 0.38302,-0.40811 -0.50052,-0.48113 -0.43701,-0.76906 0.25653,-1.16293 2.2153,-4.44573 2.83777,-5.55443 1.20166,-1.65903 3.16767,-5.28073 5.1953,-2.43767 0.74376,2.06285 0.42904,4.28663 0.74009,6.41754 0.064,0.33049 0.12805,0.66098 0.19208,0.99147 0,0 -1.183,0.22826 -1.183,0.22826 l 0,0 c -0.0674,-0.35036 -0.1347,-0.70072 -0.20204,-1.05109 -0.27277,-1.98584 -0.0647,-4.02483 -0.58685,-5.97742 -0.0499,-0.1745 0.0282,-0.46215 -0.14183,-0.52573 -1.13504,-0.42454 -2.48223,2.48322 -2.96338,2.94482 -0.51009,0.90709 -2.89873,6.33285 -3.84071,6.41282 -0.33272,0.0282 -0.54113,-0.39141 -0.81169,-0.58711 -0.18821,-2.78227 0.5005,-5.58275 0.78745,-8.33989 0,0 1.18843,0.19807 1.18843,0.19807 z"
     inkscape:connector-curvature="0" />
  <path
     style="color:#000000;fill:#00000e;fill-opacity:1;fill-rule:nonzero;stroke:none;stroke-width:3;marker:none;visibility:visible;display:inline;overflow:visible;enable-background:accumulate"
     id="path4787"
     d="m 247.35404,145.02491 c -2.62536,-0.4242 -5.28565,-0.91123 -7.95222,-0.77006 -0.29348,0.0879 -0.61732,0.10674 -0.88046,0.26364 -0.2965,0.17679 2.33071,2.91122 2.52877,3.11958 1.802,2.00888 3.75667,3.99834 3.99237,6.79881 -0.71404,2.72568 -4.21172,2.65877 -6.50925,2.59874 -2.89619,-0.0569 -4.90979,-1.19421 -6.03659,-3.85024 -0.0524,-0.3532 -0.10471,-0.70641 -0.15707,-1.05962 0,0 1.19498,-0.15367 1.19498,-0.15367 l 0,0 c 0.0254,0.25162 0.0508,0.50323 0.0763,0.75484 0.88633,2.24138 2.55349,3.05701 4.95909,3.10443 1.554,0.0549 4.37908,0.23922 5.27011,-1.31913 -0.0783,-2.49047 -2.18202,-4.25115 -3.66365,-6.04461 -1.4316,-1.50962 -4.59858,-4.64801 -0.8333,-5.41615 2.76763,-0.12494 5.52367,0.33244 8.24724,0.79201 0,0 -0.23629,1.18143 -0.23629,1.18143 z"
     inkscape:connector-curvature="0" />
  <path
     style="color:#000000;fill:#00000e;fill-opacity:1;fill-rule:nonzero;stroke:none;stroke-width:3;marker:none;visibility:visible;display:inline;overflow:visible;enable-background:accumulate"
     id="path4789"
     d="m 250,138.06998 c -0.006,4.18493 -0.16779,8.35655 0.48006,12.5019 0.45859,1.71935 1.52307,5.97924 4.14429,5.20427 0,0 0.20061,1.188 0.20061,1.188 l 0,0 c -3.6686,0.39663 -4.77667,-3.2993 -5.5355,-6.20773 -0.64711,-4.20826 -0.5122,-8.43859 -0.49428,-12.68644 0,0 1.20482,0 1.20482,0 z"
     inkscape:connector-curvature="0" />
  <path
     style="color:#000000;fill:#00000e;fill-opacity:1;fill-rule:nonzero;stroke:none;stroke-width:3;marker:none;visibility:visible;display:inline;overflow:visible;enable-background:accumulate"
     id="path4791"
     d="m 241.46071,146.14039 c 3.03598,-0.97449 6.09459,-1.90797 9.20936,-2.60463 2.67314,-0.56601 5.40377,-0.69882 8.12665,-0.76452 1.55858,-0.037 5.43866,-0.4326 2.01488,2.10789 -1.9152,1.41794 -4.14317,3.25077 -4.00836,5.85105 1.55337,0.91314 3.67666,-0.91076 4.82141,-1.83707 1.05225,-0.54858 2.64783,-3.8041 3.85927,-3.72068 0.30207,0.0208 0.55797,0.23534 0.83696,0.35301 0.417,0.78426 0.63335,1.64257 0.87277,2.49088 0,0 -1.15976,0.32644 -1.15976,0.32644 l 0,0 c -0.17225,-0.61373 -0.45782,-1.27159 -0.49885,-1.90405 0.0987,-0.0375 0.21919,-0.0401 0.29594,-0.11253 0.19148,-0.18075 -0.47975,0.24262 -0.65914,0.43538 -0.94376,1.0141 -1.67054,2.22636 -2.79413,3.07202 -1.39237,1.10464 -4.27831,3.40126 -6.15804,1.8932 -0.30191,-0.24221 -0.4141,-0.65406 -0.62115,-0.98109 0.0405,-3.02826 2.12705,-5.16621 4.49734,-6.83573 1.17397,-0.86242 0.33582,-0.6073 1.01683,-0.0446 0.0969,0.0801 0.47443,0.0252 0.36644,0.0896 -0.65129,0.38858 -2.00829,-0.39174 -2.65344,0.0208 -2.64428,0.0634 -5.29647,0.18853 -7.89298,0.73589 -3.05238,0.68084 -6.04776,1.59941 -9.02454,2.54744 0,0 -0.44746,-1.11865 -0.44746,-1.11865 z"
     inkscape:connector-curvature="0" />
  <path
     style="color:#000000;fill:#00000e;fill-opacity:1;fill-rule:nonzero;stroke:none;stroke-width:3;marker:none;visibility:visible;display:inline;overflow:visible;enable-background:accumulate"
     id="path4793"
     d="m 270.61435,133.13256 c 0.5288,2.74767 0.77064,5.53689 0.9358,8.32643 -0.0242,2.13051 0.5714,4.5327 -0.48544,6.50343 -1.60456,0.70385 -1.64082,-1.15336 -1.11741,-2.13677 0.40221,-0.75567 0.70662,-0.90676 1.35006,-1.45473 1.94697,-1.17442 4.09983,-1.74276 6.06723,-0.40698 2.10822,2.40519 -0.44533,4.41808 -2.38054,5.83835 -2.80267,1.65746 -5.79321,3.02077 -9.09492,2.8862 -1.36958,-0.23699 -2.06316,-0.94816 -2.85076,-2.00319 0,0 0.98204,-0.69799 0.98204,-0.69799 l 0,0 c 0.51774,0.78319 0.95665,1.28717 1.92895,1.49787 3.01423,0.18493 5.75693,-1.20066 8.32534,-2.65675 1.22283,-0.8832 3.58388,-2.20391 2.37488,-3.89477 -1.36165,-1.15311 -3.18472,-0.3786 -4.58603,0.36707 -1.12001,0.8817 -0.91437,1.56096 -2.0348,2.04657 1.13488,-1.50517 0.098,-4.12118 0.31868,-5.8172 -0.16143,-2.73411 -0.39726,-5.46801 -0.91451,-8.16125 0,0 1.18143,-0.23629 1.18143,-0.23629 z"
     inkscape:connector-curvature="0" />
  <path
     style="color:#000000;fill:#00000e;fill-opacity:1;fill-rule:nonzero;stroke:none;stroke-width:3;marker:none;visibility:visible;display:inline;overflow:visible;enable-background:accumulate"
     id="path4795"
     d="m 283.58263,128.67458 c -0.82176,3.86468 -1.66848,7.72478 -2.46129,11.59602 -0.40756,2.27578 -0.92784,4.56026 -0.58862,6.87303 0,0 -1.19303,0.16814 -1.19303,0.16814 l 0,0 c -0.33405,-2.45441 0.14054,-4.86951 0.60134,-7.28293 0.79011,-3.85667 1.63293,-7.70254 2.45317,-11.55233 0,0 1.18843,0.19807 1.18843,0.19807 z"
     inkscape:connector-curvature="0" />
  <path
     style="color:#000000;fill:#00000e;fill-opacity:1;fill-rule:nonzero;stroke:none;stroke-width:3;marker:none;visibility:visible;display:inline;overflow:visible;enable-background:accumulate"
     id="path4797"
     d="m 287.24384,141.32112 c 2.74298,-1.26672 5.37412,-2.6932 7.38548,-4.98441 1.55202,-2.62667 -2.17034,-0.55918 -2.8904,-0.19925 -3.83195,2.17553 -5.35236,5.06722 -4.72445,9.41869 1.43866,3.50577 4.5293,3.78842 7.87015,3.249 1.99073,-0.41637 3.77327,-1.3352 5.55325,-2.2725 0,0 0.56,1.06677 0.56,1.06677 l 0,0 c -1.89982,0.99439 -3.8025,1.96544 -5.92777,2.39619 -4.30644,0.64926 -7.47875,0.12989 -9.24971,-4.27895 -0.638,-5.06583 0.98584,-8.09328 5.38995,-10.66188 0.54071,-0.25864 1.05763,-0.57443 1.62213,-0.77592 2.50881,-0.89548 4.36899,0.40035 2.69847,2.85703 -2.15732,2.41322 -4.90981,3.97862 -7.83964,5.30387 0,0 -0.44746,-1.11864 -0.44746,-1.11864 z"
     inkscape:connector-curvature="0" />
  <path
     style="color:#000000;fill:#000000;fill-opacity:1;fill-rule:nonzero;stroke:none;stroke-width:0.5;marker:none;visibility:visible;display:inline;overflow:visible;enable-background:accumulate"
     id="path4801"
     d="m 191.38152,244.52872 c 0.4809,-3.13488 1.07773,-6.24373 1.94867,-9.30522 1.78312,-6.03337 4.46253,-11.75677 7.49657,-17.31615 3.61432,-6.16858 7.66876,-12.08969 11.27833,-18.26036 3.12905,-5.35194 5.43478,-11.05088 7.77472,-16.7296 1.31503,-3.36234 2.62166,-6.72611 3.953,-10.08256 0,0 -1.03331,-0.36074 -1.03331,-0.36074 l 0,0 c -1.32965,3.35239 -2.63501,6.71195 -3.94806,10.07033 -2.32232,5.63594 -4.60798,11.29296 -7.7129,16.60495 -3.61429,6.17956 -7.67746,12.10747 -11.29325,18.28671 -3.06767,5.62552 -5.77847,11.41628 -7.58044,17.52102 -0.87469,3.08292 -1.48357,6.21179 -1.96445,9.36877 0,0 1.08112,0.20285 1.08112,0.20285 z"
     inkscape:connector-curvature="0" />
  <path
     style="color:#000000;fill:#000000;fill-opacity:1;fill-rule:nonzero;stroke:none;stroke-width:0.5;marker:none;visibility:visible;display:inline;overflow:visible;enable-background:accumulate"
     id="path4803"
     d="m 203.48868,260.72403 c 0.60828,-6.01352 2.96526,-11.75209 5.15615,-17.37021 3.80282,-9.49879 8.00852,-18.84311 12.42732,-28.0918 4.29336,-8.75354 8.3664,-17.59878 12.81618,-26.28163 3.86252,-7.34599 7.30344,-14.87745 10.73134,-22.41501 1.46748,-3.33397 2.60737,-6.79082 3.73912,-10.23977 0,0 -1.08024,-0.32557 -1.08024,-0.32557 l 0,0 c -1.1194,3.41235 -2.24641,6.83268 -3.69697,10.13168 -3.42103,7.52246 -6.85463,15.03901 -10.70967,22.37019 -4.45416,8.69173 -8.53195,17.54568 -12.82937,26.30825 -4.42976,9.27243 -8.64645,18.6405 -12.45847,28.16375 -2.237,5.73862 -4.64123,11.60279 -5.2278,17.75012 0,0 1.13241,0 1.13241,0 z"
     inkscape:connector-curvature="0" />
  <path
     style="color:#000000;fill:#000000;fill-opacity:1;fill-rule:nonzero;stroke:none;stroke-width:0.5;marker:none;visibility:visible;display:inline;overflow:visible;enable-background:accumulate"
     id="path4805"
     d="m 215.76848,270.10473 c 1.19212,-4.92073 3.57938,-9.50704 5.69394,-14.1317 4.3514,-9.36869 8.91518,-18.65282 13.33395,-27.99552 4.73311,-9.99889 9.63529,-19.92909 14.389,-29.91924 3.59052,-7.27328 6.97255,-14.63319 10.27013,-22.02294 2.58998,-5.42098 4.84464,-10.96958 7.33541,-16.42792 0,0 -1.00929,-0.39068 -1.00929,-0.39068 l 0,0 c -2.49111,5.46109 -4.74821,11.01159 -7.33872,16.43526 -3.29425,7.38259 -6.67316,14.7353 -10.26023,22.00149 -4.75383,9.99091 -9.65674,19.92164 -14.38998,29.92128 -4.42055,9.34648 -8.98622,18.63434 -13.33923,28.00687 -2.14306,4.68701 -4.55843,9.33614 -5.75851,14.32534 0,0 1.07353,0.19776 1.07353,0.19776 z"
     inkscape:connector-curvature="0" />
  <path
     style="color:#000000;fill:#000000;fill-opacity:1;fill-rule:nonzero;stroke:none;stroke-width:0.5;marker:none;visibility:visible;display:inline;overflow:visible;enable-background:accumulate"
     id="path4807"
     d="m 230.8566,283.78792 c 0.62327,-6.5663 3.06598,-12.7965 5.54251,-18.92226 4.73441,-11.16341 10.04126,-22.10976 15.48977,-32.98779 5.79465,-10.86936 12.20592,-21.44605 18.59351,-32.02375 5.51719,-9.07414 10.79492,-18.26929 15.41157,-27.76587 2.10276,-4.59346 3.69904,-9.37042 5.17761,-14.16172 0,0 -1.39212,-0.36729 -1.39212,-0.36729 l 0,0 c -1.45807,4.72965 -3.03373,9.44486 -5.10587,13.98003 -4.59837,9.4617 -9.85934,18.6213 -15.3551,27.66202 -6.40529,10.60716 -12.83447,21.21328 -18.64319,32.11382 -5.46382,10.90891 -10.78551,21.88636 -15.53224,33.08179 -2.53471,6.27451 -5.03132,12.6618 -5.63412,19.39102 0,0 1.44767,0 1.44767,0 z"
     inkscape:connector-curvature="0" />
  <path
     style="color:#000000;fill:#000000;fill-opacity:1;fill-rule:nonzero;stroke:none;stroke-width:0.5;marker:none;visibility:visible;display:inline;overflow:visible;enable-background:accumulate"
     id="path4809"
     d="m 254.29349,288.68444 c 3.73647,-11.94805 9.21686,-23.27568 14.27559,-34.70509 6.96166,-15.64006 14.60015,-30.98043 22.36107,-46.24039 4.80592,-9.56345 9.35459,-19.25068 13.6181,-29.06542 1.93765,-4.1713 1.01347,-2.16242 2.77582,-6.02508 0,0 -1.31582,-0.59631 -1.31582,-0.59631 l 0,0 c -1.76325,3.86472 -0.83558,1.84783 -2.7865,6.04902 -4.25192,9.78805 -8.788,19.44903 -13.58091,28.98646 -7.77239,15.2831 -15.42243,30.64652 -22.39429,46.3103 -5.07694,11.4706 -10.57446,22.83981 -14.32434,34.83094 0,0 1.37128,0.45557 1.37128,0.45557 z"
     inkscape:connector-curvature="0" />
  <path
     style="color:#000000;fill:#000000;fill-opacity:1;fill-rule:nonzero;stroke:none;stroke-width:0.5;marker:none;visibility:visible;display:inline;overflow:visible;enable-background:accumulate"
     id="path4811"
     d="m 271.68357,288.52978 c 2.29321,-8.18115 6.11272,-15.99296 9.91504,-23.75276 7.15376,-14.58366 14.78484,-28.98788 22.88454,-43.22439 7.33808,-12.88392 16.23051,-25.09568 24.96351,-37.34761 5.87651,-8.10473 11.73525,-16.22241 17.31307,-24.47185 0,0 -1.6254,-0.75685 -1.6254,-0.75685 l 0,0 c -5.56995,8.23957 -11.42347,16.34617 -17.29177,24.4412 -8.76245,12.29321 -17.68298,24.54693 -25.04474,37.47472 -8.11418,14.26213 -15.75908,28.69228 -22.92568,43.30218 -3.84569,7.85002 -7.70584,15.75393 -10.01615,24.03204 0,0 1.82758,0.30332 1.82758,0.30332 z"
     inkscape:connector-curvature="0" />
  <path
     style="color:#000000;fill:#000000;fill-opacity:1;fill-rule:nonzero;stroke:none;stroke-width:0.5;marker:none;visibility:visible;display:inline;overflow:visible;enable-background:accumulate"
     id="path4813"
     d="m 299.37002,282.60079 c 3.30709,-6.73975 6.96288,-13.32961 10.77109,-19.83077 8.58609,-14.0128 17.1471,-28.03267 25.20617,-42.31928 6.11322,-10.6964 11.98322,-21.51148 17.67534,-32.40967 2.60624,-4.79494 1.33746,-2.42798 3.80896,-7.09962 0,0 -1.34151,-0.62411 -1.34151,-0.62411 l 0,0 c -2.46772,4.66473 -1.19793,2.29557 -3.81235,7.106 -5.68524,10.88513 -11.54822,21.68721 -17.65419,32.37077 -8.05521,14.28022 -16.61353,28.29306 -25.19504,42.29987 -3.8165,6.51745 -7.48301,13.12251 -10.79791,19.87878 0,0 1.33944,0.62803 1.33944,0.62803 z"
     inkscape:connector-curvature="0" />
  <path
     style="color:#000000;fill:#000000;fill-opacity:1;fill-rule:nonzero;stroke:none;stroke-width:0.5;marker:none;visibility:visible;display:inline;overflow:visible;enable-background:accumulate"
     id="path4815"
     d="m 327.36094,269.06721 c 3.06791,-4.53744 5.72368,-9.22627 8.42629,-13.89331 4.52127,-8.08091 9.37752,-16.03172 14.73643,-23.81101 2.85705,-4.04738 5.74145,-8.08838 8.86722,-12.02013 0,0 -1.04559,-0.47956 -1.04559,-0.47956 l 0,0 c -3.13743,3.94849 -6.03624,8.00494 -8.90381,12.06952 -5.3712,7.79802 -10.24037,15.76735 -14.77224,23.86759 -2.69451,4.65311 -5.34187,9.3281 -8.40074,13.85197 0,0 1.09244,0.41493 1.09244,0.41493 z"
     inkscape:connector-curvature="0" />
  <path
     style="color:#000000;fill:#000000;fill-opacity:1;fill-rule:nonzero;stroke:none;stroke-width:0.5;marker:none;visibility:visible;display:inline;overflow:visible;enable-background:accumulate"
     id="path4815-0"
     d="m 183.20722,219.07791 c 2.73312,-4.64633 5.09908,-9.44769 7.50677,-14.22673 4.02789,-8.27484 8.35421,-16.41646 13.12833,-24.38244 2.54528,-4.14451 5.11492,-8.28249 7.89959,-12.30859 0,0 -0.93149,-0.49107 -0.93149,-0.49107 l 0,0 c -2.79506,4.04325 -5.37754,8.19705 -7.93219,12.35917 -4.78507,7.98516 -9.12289,16.14574 -13.16023,24.44038 -2.40047,4.76477 -4.75894,9.55196 -7.48401,14.18439 0,0 0.97323,0.42489 0.97323,0.42489 z"
     inkscape:connector-curvature="0" />
</svg>
