<?xml version="1.0" encoding="UTF-8" standalone="no"?>
<!-- Created with Inkscape (http://www.inkscape.org/) -->

<svg
   xmlns:dc="http://purl.org/dc/elements/1.1/"
   xmlns:cc="http://creativecommons.org/ns#"
   xmlns:rdf="http://www.w3.org/1999/02/22-rdf-syntax-ns#"
   xmlns:svg="http://www.w3.org/2000/svg"
   xmlns="http://www.w3.org/2000/svg"
   xmlns:sodipodi="http://sodipodi.sourceforge.net/DTD/sodipodi-0.dtd"
   xmlns:inkscape="http://www.inkscape.org/namespaces/inkscape"
   id="svg3036"
   version="1.1"
   inkscape:version="0.48.3.1 r9886"
   width="600"
   height="600"
   sodipodi:docname="centred_scheme_2.svg">
  <metadata
     id="metadata3042">
    <rdf:RDF>
      <cc:Work
         rdf:about="">
        <dc:format>image/svg+xml</dc:format>
        <dc:type
           rdf:resource="http://purl.org/dc/dcmitype/StillImage" />
        <dc:title></dc:title>
      </cc:Work>
    </rdf:RDF>
  </metadata>
  <defs
     id="defs3040">
    <marker
       inkscape:stockid="Arrow1Mend"
       orient="auto"
       refY="0.0"
       refX="0.0"
       id="Arrow1Mend"
       style="overflow:visible;">
      <path
         id="path5489"
         d="M 0.0,0.0 L 5.0,-5.0 L -12.5,0.0 L 5.0,5.0 L 0.0,0.0 z "
         style="fill-rule:evenodd;stroke:#000000;stroke-width:1.0pt;"
         transform="scale(0.4) rotate(180) translate(10,0)" />
    </marker>
    <marker
       inkscape:stockid="Arrow1Mstart"
       orient="auto"
       refY="0.0"
       refX="0.0"
       id="Arrow1Mstart"
       style="overflow:visible">
      <path
         id="path5486"
         d="M 0.0,0.0 L 5.0,-5.0 L -12.5,0.0 L 5.0,5.0 L 0.0,0.0 z "
         style="fill-rule:evenodd;stroke:#000000;stroke-width:1.0pt"
         transform="scale(0.4) translate(10,0)" />
    </marker>
    <marker
       inkscape:stockid="Arrow2Lstart"
       orient="auto"
       refY="0.0"
       refX="0.0"
       id="Arrow2Lstart"
       style="overflow:visible">
      <path
         id="path5498"
         style="fill-rule:evenodd;stroke-width:0.62500000;stroke-linejoin:round"
         d="M 8.7185878,4.0337352 L -2.2072895,0.016013256 L 8.7185884,-4.0017078 C 6.9730900,-1.6296469 6.9831476,1.6157441 8.7185878,4.0337352 z "
         transform="scale(1.1) translate(1,0)" />
    </marker>
    <marker
       inkscape:stockid="Arrow1Sstart"
       orient="auto"
       refY="0.0"
       refX="0.0"
       id="Arrow1Sstart"
       style="overflow:visible">
      <path
         id="path5492"
         d="M 0.0,0.0 L 5.0,-5.0 L -12.5,0.0 L 5.0,5.0 L 0.0,0.0 z "
         style="fill-rule:evenodd;stroke:#000000;stroke-width:1.0pt"
         transform="scale(0.2) translate(6,0)" />
    </marker>
    <marker
       inkscape:stockid="Arrow1Lend"
       orient="auto"
       refY="0.0"
       refX="0.0"
       id="Arrow1Lend"
       style="overflow:visible;">
      <path
         id="path5483"
         d="M 0.0,0.0 L 5.0,-5.0 L -12.5,0.0 L 5.0,5.0 L 0.0,0.0 z "
         style="fill-rule:evenodd;stroke:#000000;stroke-width:1.0pt;"
         transform="scale(0.8) rotate(180) translate(12.5,0)" />
    </marker>
    <marker
       inkscape:stockid="Arrow1Lstart"
       orient="auto"
       refY="0.0"
       refX="0.0"
       id="Arrow1Lstart"
       style="overflow:visible">
      <path
         id="path5480"
         d="M 0.0,0.0 L 5.0,-5.0 L -12.5,0.0 L 5.0,5.0 L 0.0,0.0 z "
         style="fill-rule:evenodd;stroke:#000000;stroke-width:1.0pt"
         transform="scale(0.8) translate(12.5,0)" />
    </marker>
    <marker
       inkscape:stockid="Arrow1Lend"
       orient="auto"
       refY="0"
       refX="0"
       id="Arrow1Lend-5"
       style="overflow:visible">
      <path
         inkscape:connector-curvature="0"
         id="path5483-8"
         d="M 0,0 5,-5 -12.5,0 5,5 0,0 z"
         style="fill-rule:evenodd;stroke:#000000;stroke-width:1pt"
         transform="matrix(-0.8,0,0,-0.8,-10,0)" />
    </marker>
    <marker
       inkscape:stockid="Arrow1Lend"
       orient="auto"
       refY="0"
       refX="0"
       id="Arrow1Lend-4"
       style="overflow:visible">
      <path
         inkscape:connector-curvature="0"
         id="path5483-4"
         d="M 0,0 5,-5 -12.5,0 5,5 0,0 z"
         style="fill-rule:evenodd;stroke:#000000;stroke-width:1pt"
         transform="matrix(-0.8,0,0,-0.8,-10,0)" />
    </marker>
    <marker
       inkscape:stockid="Arrow1Lend"
       orient="auto"
       refY="0"
       refX="0"
       id="Arrow1Lend-1"
       style="overflow:visible">
      <path
         inkscape:connector-curvature="0"
         id="path5483-83"
         d="M 0,0 5,-5 -12.5,0 5,5 0,0 z"
         style="fill-rule:evenodd;stroke:#000000;stroke-width:1pt"
         transform="matrix(-0.8,0,0,-0.8,-10,0)" />
    </marker>
  </defs>
  <sodipodi:namedview
     pagecolor="#ffffff"
     bordercolor="#666666"
     borderopacity="1"
     objecttolerance="10"
     gridtolerance="10"
     guidetolerance="10"
     inkscape:pageopacity="0"
     inkscape:pageshadow="2"
     inkscape:window-width="1020"
     inkscape:window-height="806"
     id="namedview3038"
     showgrid="false"
     inkscape:zoom="0.90509668"
     inkscape:cx="378.78077"
     inkscape:cy="333.51646"
     inkscape:window-x="232"
     inkscape:window-y="88"
     inkscape:window-maximized="0"
     inkscape:current-layer="svg3036"
     showguides="true"
     inkscape:guide-bbox="true">
    <inkscape:grid
       type="xygrid"
       id="grid5981"
       empspacing="5"
       visible="true"
       enabled="true"
       snapvisiblegridlinesonly="true" />
  </sodipodi:namedview>
  <path
     style="fill:none;stroke:#000000;stroke-width:1.09762061px;stroke-linecap:butt;stroke-linejoin:miter;stroke-opacity:0.38916255"
     d="M 372.52761,112.51145 217.39126,484.98963"
     id="path3772"
     inkscape:connector-curvature="0" />
  <rect
     style="color:#000000;fill:#ffffff;fill-opacity:1;stroke:none;stroke-width:0.30000001;marker:none;visibility:visible;display:inline;overflow:visible;enable-background:accumulate"
     id="rect6561-8-0-1"
     width="74.870041"
     height="40.878235"
     x="317.01077"
     y="152.74931"
     transform="matrix(0.96543996,0.26062558,-0.26062558,0.96543996,0,0)" />
  <path
     style="fill:none;stroke:#ff0000;stroke-width:1.0965817;stroke-linecap:butt;stroke-linejoin:miter;stroke-miterlimit:4;stroke-opacity:1;stroke-dasharray:13.15898003, 13.15898003;stroke-dashoffset:0"
     d="M 126.61654,461.12621 282.88505,90.088645"
     id="path3772-8-2"
     inkscape:connector-curvature="0" />
  <path
     style="color:#000000;fill-opacity:1;fill-rule:nonzero;stroke-width:1;stroke-linecap:butt;stroke-linejoin:miter;stroke-miterlimit:4;stroke-opacity:1;stroke-dasharray:none;stroke-dashoffset:0;marker:none;visibility:visible;display:inline;overflow:visible;enable-background:accumulate"
     id="path3253-5-8"
     d="m 221.37846,474.18623 c -2.52287,-0.53397 -4.83371,-0.21097 -7.14972,0.86342 -2.00662,1.20676 -2.50904,3.09225 -2.83045,5.2484 0.0324,1.96947 0.46631,3.89383 1.66776,5.47789 1.52083,1.44729 2.92767,2.98969 4.97232,3.6547 2.15753,0.60263 4.10636,-0.48277 6.03094,-1.32612 2.12017,-1.14074 3.6545,-3.01076 4.89983,-5.02627 1.0681,-2.40055 0.63956,-3.17354 -0.80293,-5.07637 -1.52307,-1.79776 -3.72327,-2.64344 -5.87169,-3.44148 -3.04288,-0.8434 -5.67159,0.46902 -8.27199,1.90757 -0.4459,0.35724 -0.8918,0.71447 -1.3377,1.07171 0,0 -0.91221,-1.15233 -0.91221,-1.15233 l 0,0 c 0.51319,-0.40201 1.02639,-0.80402 1.53959,-1.20602 2.98848,-1.64666 6.02699,-3.01517 9.49497,-1.99832 2.41282,0.89971 4.8445,1.88982 6.53028,3.93109 1.82608,2.40945 2.22111,3.86439 0.88,6.73987 -1.41364,2.26323 -3.1523,4.3425 -5.55848,5.59676 -2.2764,0.99667 -4.5627,2.13569 -7.10089,1.36892 -2.30542,-0.83277 -3.99134,-2.44179 -5.67746,-4.17493 -1.38353,-1.93776 -1.98316,-4.18149 -1.9357,-6.56512 0.40226,-2.65572 1.19894,-4.94724 3.675,-6.36762 2.64042,-1.18243 5.29451,-1.58016 8.15439,-0.94113 0,0 -0.39587,1.41538 -0.39587,1.41538 z"
     inkscape:connector-curvature="0" />
  <path
     sodipodi:type="arc"
     style="color:#000000;fill:#000000;fill-opacity:1;fill-rule:nonzero;stroke-width:1;stroke-linecap:butt;stroke-linejoin:miter;stroke-miterlimit:4;stroke-opacity:1;stroke-dasharray:12, 12;stroke-dashoffset:0;marker:none;visibility:visible;display:inline;overflow:visible;enable-background:accumulate"
     id="path4447-6"
     sodipodi:cx="97.120689"
     sodipodi:cy="64.136719"
     sodipodi:rx="8.5193586"
     sodipodi:ry="7.6674228"
     d="m 105.64005,64.136719 a 8.5193586,7.6674228 0 1 1 -17.038719,0 8.5193586,7.6674228 0 1 1 17.038719,0 z"
     transform="matrix(1.1747655,0.3285593,-0.3285593,1.1747655,126.57341,373.16656)" />
  <path
     style="color:#000000;fill:#000000;fill-opacity:1;fill-rule:nonzero;stroke-width:1;stroke-linecap:butt;stroke-linejoin:miter;stroke-miterlimit:4;stroke-opacity:1;stroke-dasharray:none;stroke-dashoffset:0;marker:none;visibility:visible;display:inline;overflow:visible;enable-background:accumulate"
     id="path3253-5-9-4"
     d="m 117.17723,216.35641 c -2.52287,-0.53398 -4.83373,-0.21097 -7.14973,0.86342 -2.00661,1.20676 -2.50903,3.09225 -2.83044,5.2484 0.0324,1.96947 0.46629,3.89383 1.66775,5.47789 1.52084,1.44729 2.92768,2.98968 4.97233,3.65469 2.15753,0.60264 4.10635,-0.48276 6.03093,-1.32611 2.12017,-1.14075 3.6545,-3.01077 4.89984,-5.02628 1.06809,-2.40055 0.63955,-3.17354 -0.80293,-5.07636 -1.52308,-1.79777 -3.72328,-2.64345 -5.8717,-3.44148 -3.04287,-0.8434 -5.6716,0.46901 -8.27199,1.90756 -0.44589,0.35725 -0.8918,0.71449 -1.33769,1.07171 0,0 -0.91221,-1.15233 -0.91221,-1.15233 l 0,0 c 0.51319,-0.402 1.02637,-0.804 1.53958,-1.20601 2.98848,-1.64667 6.02699,-3.01517 9.49496,-1.99832 2.41282,0.8997 4.84451,1.88981 6.53029,3.93108 1.82609,2.40946 2.22111,3.8644 0.88,6.73987 -1.41363,2.26323 -3.15229,4.3425 -5.55848,5.59677 -2.27639,0.99667 -4.56269,2.13568 -7.10089,1.36891 -2.30541,-0.83276 -3.99134,-2.44179 -5.67746,-4.17493 -1.38353,-1.93776 -1.98315,-4.18149 -1.9357,-6.56512 0.40227,-2.65572 1.19894,-4.94724 3.67501,-6.36761 2.64041,-1.18244 5.2945,-1.58017 8.15439,-0.94114 0,0 -0.39587,1.41539 -0.39587,1.41539 z"
     inkscape:connector-curvature="0" />
  <path
     style="color:#000000;fill-opacity:1;fill-rule:nonzero;stroke-width:1;stroke-linecap:butt;stroke-linejoin:miter;stroke-miterlimit:4;stroke-opacity:1;stroke-dasharray:none;stroke-dashoffset:0;marker:none;visibility:visible;display:inline;overflow:visible;enable-background:accumulate"
     id="path3253-5-8-8-6"
     d="m 296.24727,289.64139 c -2.52287,-0.53398 -4.83373,-0.21097 -7.14972,0.86342 -2.00663,1.20676 -2.50905,3.09225 -2.83045,5.2484 0.0324,1.96947 0.46629,3.89383 1.66776,5.47789 1.52083,1.44729 2.92767,2.98969 4.97231,3.65469 2.15754,0.60264 4.10636,-0.48277 6.03093,-1.32611 2.12017,-1.14074 3.65451,-3.01077 4.89985,-5.02627 1.06809,-2.40056 0.63955,-3.17355 -0.80293,-5.07637 -1.52309,-1.79776 -3.72328,-2.64345 -5.8717,-3.44149 -3.04287,-0.8434 -5.6716,0.46902 -8.27199,1.90757 -0.4459,0.35725 -0.8918,0.71448 -1.3377,1.07171 0,0 -0.91221,-1.15233 -0.91221,-1.15233 l 0,0 c 0.51319,-0.402 1.02638,-0.80401 1.53959,-1.20601 2.98849,-1.64666 6.02699,-3.01518 9.49496,-1.99832 2.41282,0.8997 4.8445,1.88981 6.53029,3.93108 1.82609,2.40946 2.22112,3.8644 0.88,6.73988 -1.41363,2.26322 -3.15229,4.3425 -5.55848,5.59676 -2.27639,0.99667 -4.5627,2.13568 -7.1009,1.36891 -2.3054,-0.83276 -3.99132,-2.44179 -5.67745,-4.17492 -1.38353,-1.93776 -1.98315,-4.18149 -1.93571,-6.56513 0.40228,-2.65573 1.19895,-4.94724 3.67502,-6.36761 2.64041,-1.18244 5.29451,-1.58017 8.15439,-0.94113 0,0 -0.39587,1.41538 -0.39587,1.41538 z"
     inkscape:connector-curvature="0" />
  <path
     sodipodi:type="arc"
     style="color:#000000;fill:#000000;fill-opacity:1;fill-rule:nonzero;stroke-width:1;stroke-linecap:butt;stroke-linejoin:miter;stroke-miterlimit:4;stroke-opacity:1;stroke-dasharray:12, 12;stroke-dashoffset:0;marker:none;visibility:visible;display:inline;overflow:visible;enable-background:accumulate"
     id="path4447-4-3"
     sodipodi:cx="97.120689"
     sodipodi:cy="64.136719"
     sodipodi:rx="8.5193586"
     sodipodi:ry="7.6674228"
     d="m 105.64005,64.136719 a 8.5193586,7.6674228 0 1 1 -17.038719,0 8.5193586,7.6674228 0 1 1 17.038719,0 z"
     transform="matrix(1.1747655,0.3285593,-0.3285593,1.1747655,22.392091,115.80106)" />
  <path
     sodipodi:type="arc"
     style="color:#000000;fill:#000000;fill-opacity:1;fill-rule:nonzero;stroke-width:1;stroke-linecap:butt;stroke-linejoin:miter;stroke-miterlimit:4;stroke-opacity:1;stroke-dasharray:12, 12;stroke-dashoffset:0;marker:none;visibility:visible;display:inline;overflow:visible;enable-background:accumulate"
     id="path4447-6-6-9"
     sodipodi:cx="97.120689"
     sodipodi:cy="64.136719"
     sodipodi:rx="8.5193586"
     sodipodi:ry="7.6674228"
     d="m 105.64005,64.136719 a 8.5193586,7.6674228 0 1 1 -17.038719,0 8.5193586,7.6674228 0 1 1 17.038719,0 z"
     transform="matrix(1.1747655,0.3285593,-0.3285593,1.1747655,201.44221,188.62172)" />
  <path
     style="color:#000000;fill-opacity:1;fill-rule:nonzero;stroke-width:1;stroke-linecap:butt;stroke-linejoin:miter;stroke-miterlimit:4;stroke-opacity:1;stroke-dasharray:none;stroke-dashoffset:0;marker:none;visibility:visible;display:inline;overflow:visible;enable-background:accumulate"
     id="path3253-5-8-8-6-2"
     d="m 474.0504,361.9012 c -2.52287,-0.53398 -4.83373,-0.21098 -7.14973,0.86341 -2.00663,1.20677 -2.50905,3.09226 -2.83045,5.2484 0.0324,1.96947 0.4663,3.89383 1.66776,5.4779 1.52083,1.44728 2.92768,2.98969 4.97232,3.6547 2.15752,0.60263 4.10636,-0.48277 6.03093,-1.32613 2.12017,-1.14074 3.65451,-3.01076 4.89984,-5.02626 1.0681,-2.40056 0.63956,-3.17355 -0.80293,-5.07638 -1.52308,-1.79776 -3.72328,-2.64343 -5.87169,-3.44148 -3.04288,-0.8434 -5.6716,0.46902 -8.27199,1.90757 -0.4459,0.35724 -0.8918,0.71448 -1.3377,1.07171 0,0 -0.91222,-1.15232 -0.91222,-1.15232 l 0,0 c 0.5132,-0.40201 1.02639,-0.80402 1.53959,-1.20603 2.98848,-1.64665 6.02699,-3.01516 9.49497,-1.99831 2.41282,0.8997 4.8445,1.88982 6.53028,3.93109 1.82609,2.40944 2.22112,3.86438 0.88001,6.73986 -1.41364,2.26324 -3.1523,4.3425 -5.55849,5.59677 -2.27639,0.99667 -4.56268,2.13568 -7.10089,1.36891 -2.30541,-0.83276 -3.99133,-2.44179 -5.67746,-4.17492 -1.38352,-1.93777 -1.98315,-4.18149 -1.93569,-6.56513 0.40226,-2.65572 1.19894,-4.94723 3.67501,-6.36762 2.64041,-1.18243 5.2945,-1.58016 8.15438,-0.94112 0,0 -0.39586,1.41537 -0.39586,1.41537 z"
     inkscape:connector-curvature="0" />
  <path
     sodipodi:type="arc"
     style="color:#000000;fill:#000000;fill-opacity:1;fill-rule:nonzero;stroke-width:1;stroke-linecap:butt;stroke-linejoin:miter;stroke-miterlimit:4;stroke-opacity:1;stroke-dasharray:12, 12;stroke-dashoffset:0;marker:none;visibility:visible;display:inline;overflow:visible;enable-background:accumulate"
     id="path4447-6-6-9-7"
     sodipodi:cx="97.120689"
     sodipodi:cy="64.136719"
     sodipodi:rx="8.5193586"
     sodipodi:ry="7.6674228"
     d="m 105.64005,64.136719 a 8.5193586,7.6674228 0 1 1 -17.038719,0 8.5193586,7.6674228 0 1 1 17.038719,0 z"
     transform="matrix(1.1747655,0.3285593,-0.3285593,1.1747655,379.24533,260.88152)" />
  <path
     style="color:#000000;fill-opacity:1;fill-rule:nonzero;stroke-width:1;stroke-linecap:butt;stroke-linejoin:miter;stroke-miterlimit:4;stroke-opacity:1;stroke-dasharray:none;stroke-dashoffset:0;marker:none;visibility:visible;display:inline;overflow:visible;enable-background:accumulate"
     id="path3253-5-8-8-8-9"
     d="m 372.01365,105.37411 c -2.52287,-0.53397 -4.83372,-0.21097 -7.14973,0.86343 -2.00662,1.20676 -2.50904,3.09225 -2.83045,5.24839 0.0324,1.96947 0.46631,3.89383 1.66776,5.4779 1.52083,1.44728 2.92767,2.98969 4.97232,3.65469 2.15753,0.60264 4.10636,-0.48277 6.03094,-1.32612 2.12017,-1.14074 3.6545,-3.01076 4.89983,-5.02627 1.0681,-2.40055 0.63956,-3.17355 -0.80293,-5.07637 -1.52307,-1.79776 -3.72328,-2.64344 -5.87169,-3.44148 -3.04288,-0.8434 -5.67159,0.46902 -8.27199,1.90757 -0.4459,0.35724 -0.8918,0.71448 -1.33769,1.07171 0,0 -0.91222,-1.15233 -0.91222,-1.15233 l 0,0 c 0.51319,-0.40201 1.02639,-0.80401 1.53958,-1.20601 2.98849,-1.64666 6.027,-3.01518 9.49497,-1.99832 2.41283,0.8997 4.84451,1.88981 6.53029,3.93109 1.82608,2.40944 2.22111,3.86438 0.88,6.73986 -1.41364,2.26323 -3.1523,4.34249 -5.55848,5.59677 -2.2764,0.99667 -4.56269,2.13569 -7.10089,1.36891 -2.30542,-0.83276 -3.99134,-2.4418 -5.67746,-4.17492 -1.38353,-1.93776 -1.98316,-4.18149 -1.9357,-6.56513 0.40226,-2.65573 1.19894,-4.94724 3.675,-6.36762 2.64042,-1.18244 5.29451,-1.58017 8.1544,-0.94112 0,0 -0.39587,1.41537 -0.39587,1.41537 z"
     inkscape:connector-curvature="0" />
  <path
     sodipodi:type="arc"
     style="color:#000000;fill:#000000;fill-opacity:1;fill-rule:nonzero;stroke-width:1;stroke-linecap:butt;stroke-linejoin:miter;stroke-miterlimit:4;stroke-opacity:1;stroke-dasharray:12, 12;stroke-dashoffset:0;marker:none;visibility:visible;display:inline;overflow:visible;enable-background:accumulate"
     id="path4447-6-6-4-1"
     sodipodi:cx="97.120689"
     sodipodi:cy="64.136719"
     sodipodi:rx="8.5193586"
     sodipodi:ry="7.6674228"
     d="m 105.64005,64.136719 a 8.5193586,7.6674228 0 1 1 -17.038719,0 8.5193586,7.6674228 0 1 1 17.038719,0 z"
     transform="matrix(1.1747655,0.3285593,-0.3285593,1.1747655,277.20859,4.3544411)" />
  <path
     style="fill:none;stroke:#000000;stroke-width:1.11198366px;stroke-linecap:butt;stroke-linejoin:miter;stroke-opacity:0.39408869"
     d="M 115.33634,223.47886 476.23721,369.94629"
     id="path3774"
     inkscape:connector-curvature="0" />
  <path
     style="fill:none;stroke:#ff0000;stroke-width:1.11126947;stroke-linecap:butt;stroke-linejoin:miter;stroke-miterlimit:4;stroke-opacity:1;stroke-dasharray:13.33523493, 13.33523493;stroke-dashoffset:0"
     d="M 142.87493,129.39876 502.58875,277.62125"
     id="path3774-6-3"
     inkscape:connector-curvature="0" />
  <path
     style="fill:none;stroke:#ff0000;stroke-width:1.10172355;stroke-linecap:butt;stroke-linejoin:miter;stroke-miterlimit:4;stroke-opacity:1;stroke-dasharray:13.22068254, 13.22068254;stroke-dashoffset:0"
     d="M 91.661118,320.16658 444.72404,467.16457"
     id="path3774-6-4"
     inkscape:connector-curvature="0" />
  <path
     style="fill:none;stroke:#ff0000;stroke-width:1.09411681;stroke-linecap:butt;stroke-linejoin:miter;stroke-miterlimit:4;stroke-opacity:1;stroke-dasharray:13.12940118, 13.12940118;stroke-dashoffset:0"
     d="M 463.4258,137.70281 312.14588,508.81896"
     id="path3772-8-2-4"
     inkscape:connector-curvature="0" />
  <rect
     style="color:#000000;fill:#ffffff;fill-opacity:1;stroke:none;stroke-width:0.30000001;marker:none;visibility:visible;display:inline;overflow:visible;enable-background:accumulate"
     id="rect6561"
     width="74.870041"
     height="49.397594"
     x="139.45424"
     y="124.70312"
     transform="matrix(0.96543996,0.26062558,-0.26062558,0.96543996,0,0)" />
  <path
     style="fill:none;stroke:#000000;stroke-width:0.57680535px;stroke-linecap:butt;stroke-linejoin:miter;stroke-opacity:1"
     d="m 292.58462,253.63109 c -0.82256,-0.53436 -2.91092,-0.58631 -2.4677,-1.60312 0.44323,-1.01677 1.64514,1.06876 2.4677,1.60312 z"
     id="path4671-2-5-2-25"
     inkscape:connector-curvature="0" />
  <path
     style="color:#000000;fill-opacity:1;fill-rule:nonzero;stroke:none;stroke-width:0.69999999;marker:none;visibility:visible;display:inline;overflow:visible;enable-background:accumulate"
     id="path5404-3-0"
     d="m 289.59974,259.77591 c -1.03554,1.48674 -2.10804,3.35802 -1.00576,5.07414 1.34139,1.14356 3.19966,1.1854 4.86704,1.308 0.33151,-0.0268 0.663,-0.0537 0.99449,-0.0806 0,0 0.0779,1.09224 0.0779,1.09224 l 0,0 c -0.3837,0.0269 -0.76742,0.0538 -1.15115,0.0807 -2.03115,-0.15132 -4.21976,-0.25846 -5.71565,-1.8473 -1.18439,-2.23125 -0.3227,-4.37612 1.0907,-6.30547 0,0 0.84247,0.67831 0.84247,0.67831 z"
     inkscape:connector-curvature="0" />
  <path
     style="color:#000000;fill-opacity:1;fill-rule:nonzero;stroke:none;stroke-width:0.69999999;marker:none;visibility:visible;display:inline;overflow:visible;enable-background:accumulate"
     id="path5202-2-4"
     d="m 304.74079,259.04403 c -0.0621,2.49719 -0.12427,4.9944 -0.18641,7.49161 -0.13376,2.25837 -1.28604,3.73892 -3.52572,3.84123 -1.37404,-0.2533 -2.44416,-1.09293 -3.42764,-2.05087 0,0 0.74719,-0.78736 0.74719,-0.78736 l 0,0 c 0.76458,0.767 1.60856,1.43489 2.65407,1.74338 1.66815,0.004 2.37826,-1.12213 2.47859,-2.77309 0.0621,-2.4972 0.12427,-4.99441 0.18641,-7.49162 0,0 1.0735,0.027 1.0735,0.027 z"
     inkscape:connector-curvature="0" />
  <path
     style="fill:none;stroke:#000000;stroke-width:0.57680535px;stroke-linecap:butt;stroke-linejoin:miter;stroke-opacity:1"
     d="m 305.30429,254.21026 c -0.82257,-0.53435 -2.91092,-0.5863 -2.46771,-1.60309 0.44325,-1.01679 1.64514,1.06874 2.46771,1.60309 z"
     id="path4671-2-1-6"
     inkscape:connector-curvature="0" />
  <path
     style="color:#000000;fill-opacity:1;fill-rule:nonzero;stroke:none;stroke-width:0.69999999;marker:none;visibility:visible;display:inline;overflow:visible;enable-background:accumulate"
     id="path5812-1"
     d="m 290.94588,237.70316 c -0.0465,1.87151 -0.0931,3.74302 -0.13968,5.61453 -0.35418,-0.15642 -0.83084,-0.1545 -1.06251,-0.46926 -0.15232,-0.20697 0.10075,-0.50769 0.15778,-0.76001 0.32852,-1.45239 0.90465,-2.62179 1.74911,-3.83298 1.51507,-1.56707 3.24009,-2.83842 4.91359,-0.79568 0.83058,1.88356 0.72435,4.01093 0.71132,6.03341 0,0 -1.07383,-0.006 -1.07383,-0.006 l 0,0 c 0.012,-1.7913 0.10087,-3.66163 -0.4987,-5.37205 -0.83192,-1.45499 -2.37264,-0.053 -3.18094,0.77964 -0.5988,0.83725 -1.07267,1.63695 -1.3782,2.63435 -0.018,0.0586 -0.32542,1.3453 -0.32662,1.34626 -0.30522,0.24144 -0.72301,0.27723 -1.08452,0.41585 0.0465,-1.87151 0.0931,-3.74303 0.13969,-5.61453 0,0 1.07351,0.027 1.07351,0.027 z"
     inkscape:connector-curvature="0" />
  <path
     style="color:#000000;fill-opacity:1;fill-rule:nonzero;stroke:none;stroke-width:0.69999999;marker:none;visibility:visible;display:inline;overflow:visible;enable-background:accumulate"
     id="path5688-0"
     d="m 274.1316,242.70036 c -0.93619,2.66261 -1.60118,5.39242 -2.03546,8.17808 -0.004,1.72576 -1.19814,4.69144 0.40015,6.00076 1.20072,0.006 2.18082,-0.82532 2.88049,-1.72816 1.04123,-1.53407 1.55083,-3.2826 2.24383,-4.97341 0.66093,-1.71615 1.22398,-3.49457 2.58161,-4.79339 2.31534,-1.72135 0.99943,2.13566 0.80129,2.85355 -0.49534,2.17592 -0.84336,4.41615 -0.68937,6.64841 0.40196,2.12518 2.04734,2.76563 3.95424,3.18632 0.36052,-0.0469 0.72101,-0.0937 1.08152,-0.14059 0,0 0.12122,1.1987 0.12122,1.1987 l 0,0 c -0.48926,0.039 -0.97848,0.0781 -1.46774,0.1172 -2.44108,-0.56073 -4.43762,-1.58862 -4.89162,-4.28485 -0.14065,-2.36864 0.18498,-4.73928 0.73047,-7.04613 0.0376,-0.13622 0.5506,-1.92384 0.6173,-1.93274 0.16724,-0.0223 0.29182,0.20267 0.46037,0.21032 0.13545,0.006 0.2617,-0.25655 0.36827,-0.17272 0.0965,0.0759 -0.18042,0.16636 -0.27063,0.24953 -1.27645,1.10347 -1.62971,2.88065 -2.2835,4.36658 -0.74685,1.79041 -1.28643,3.6535 -2.41878,5.2687 -1.16088,1.40237 -2.81985,2.66647 -4.68401,1.81136 -1.71206,-1.97868 -0.97435,-4.62582 -0.72553,-7.02543 0.43964,-2.80757 1.09552,-5.56553 2.04829,-8.24703 0,0 1.17755,0.25496 1.17755,0.25496 z"
     inkscape:connector-curvature="0" />
  <path
     style="fill:#000000;fill-opacity:1;stroke:none"
     d="m 68.892018,239.64192 c -0.869655,-0.6138 -3.080604,-0.6688 -2.608979,-1.84146 0.47164,-1.17264 1.739324,1.22766 2.608979,1.84146 z"
     id="path4671-2-5-2-9-4-0-2"
     inkscape:connector-curvature="0" />
  <path
     style="color:#000000;fill:#000000;fill-opacity:1;fill-rule:nonzero;stroke:none;stroke-width:0.69999999;marker:none;visibility:visible;display:inline;overflow:visible;enable-background:accumulate"
     id="path5404-3-8-7-8-6"
     d="m 65.717433,246.72931 c -1.099836,1.71553 -2.239724,3.87423 -1.076662,5.84908 1.417574,1.31457 3.384906,1.35843 5.149977,1.49584 0.351042,-0.0317 0.702092,-0.0634 1.053132,-0.0951 0,0 0.0799,1.25838 0.0799,1.25838 l 0,0 c -0.40634,0.0319 -0.81266,0.0637 -1.219,0.0956 -2.150148,-0.16966 -4.467105,-0.288 -6.047195,-2.11527 -1.248804,-2.56822 -0.331472,-5.04168 1.169448,-7.26809 0,0 0.890394,0.77961 0.890394,0.77961 z"
     inkscape:connector-curvature="0" />
  <path
     style="color:#000000;fill:#000000;fill-opacity:1;fill-rule:nonzero;stroke:none;stroke-width:0.69999999;marker:none;visibility:visible;display:inline;overflow:visible;enable-background:accumulate"
     id="path5202-2-9-9-5-3"
     d="m 110.61495,246.47838 c -0.0716,2.87757 -0.14321,5.75514 -0.21478,8.63272 -0.14685,2.60258 -1.37031,4.31123 -3.74184,4.43433 -1.45419,-0.28867 -2.58523,-1.25366 -3.62426,-2.35517 0,0 0.79292,-0.90899 0.79292,-0.90899 l 0,0 c 0.80772,0.88201 1.69974,1.64964 2.80596,2.00267 1.76616,8.4e-4 2.52064,-1.29854 2.6307,-3.20112 0.0715,-2.87756 0.14321,-5.75514 0.21477,-8.63271 0,0 1.13652,0.0283 1.13652,0.0283 z"
     inkscape:connector-curvature="0" />
  <path
     style="fill:#000000;fill-opacity:1;stroke:none"
     d="m 117.22282,232.90731 c -0.86966,-0.61381 -3.0806,-0.66882 -2.60897,-1.84147 0.47165,-1.17264 1.73931,1.22766 2.60897,1.84147 z"
     id="path4671-2-1-0-8-6-2"
     inkscape:connector-curvature="0" />
  <path
     style="color:#000000;fill:#000000;fill-opacity:1;fill-rule:nonzero;stroke:none;stroke-width:0.69999999;marker:none;visibility:visible;display:inline;overflow:visible;enable-background:accumulate"
     id="path5812-44-8-8-8"
     d="m 61.586265,219.05742 c -0.05363,2.15659 -0.107276,4.31317 -0.160923,6.46975 -0.374619,-0.17941 -0.879294,-0.17609 -1.123828,-0.53825 -0.160826,-0.23811 0.107777,-0.5852 0.168801,-0.8761 0.351201,-1.67428 0.963915,-3.02309 1.860812,-4.42065 1.607746,-1.80921 3.437087,-3.27814 5.204148,-0.92828 0.875014,2.16841 0.757607,4.61995 0.739102,6.95042 0,0 -1.136923,-0.005 -1.136923,-0.005 l 0,0 c 0.01677,-2.06407 0.114699,-4.21939 -0.51551,-6.18886 -0.877413,-1.67458 -2.511938,-0.0552 -3.369642,0.90578 -0.635955,0.96615 -1.139522,1.88869 -1.465322,3.03868 -0.01921,0.0676 -0.34767,1.5509 -0.348948,1.55201 -0.323711,0.27891 -0.766154,0.32112 -1.14921,0.48169 0.05365,-2.15658 0.107281,-4.31316 0.160926,-6.46975 0,0 1.136527,0.0283 1.136527,0.0283 z"
     inkscape:connector-curvature="0" />
  <path
     style="color:#000000;fill:#000000;fill-opacity:1;fill-rule:nonzero;stroke:none;stroke-width:0.69999999;marker:none;visibility:visible;display:inline;overflow:visible;enable-background:accumulate"
     id="path5908-0-3-5-2-8"
     d="m 71.44695,249.4751 c 2.59218,0.0644 5.18437,0.12898 7.77654,0.19342 0.84109,0.0213 1.68216,0.0418 2.52327,0.0627 0,0 -0.0314,1.26166 -0.0314,1.26166 l 0,0 c -0.84109,-0.0213 -1.68218,-0.0418 -2.52327,-0.0627 -2.59218,-0.0644 -5.18436,-0.12897 -7.77654,-0.19342 0,0 0.0314,-1.26166 0.0314,-1.26166 z"
     inkscape:connector-curvature="0" />
  <path
     style="color:#000000;fill:#000000;fill-opacity:1;fill-rule:nonzero;stroke:none;stroke-width:0.69999999;marker:none;visibility:visible;display:inline;overflow:visible;enable-background:accumulate"
     id="path5910-63-2-7-2-5"
     d="m 89.59442,241.1891 c -0.57806,3.52895 -0.89201,7.11779 -1.13578,10.70863 -0.12415,2.21925 -0.0682,1.17984 -0.16918,3.11812 0,0 -1.13428,-0.0864 -1.13428,-0.0864 l 0,0 c 0.10187,-1.95558 0.0453,-0.90454 0.1713,-3.15292 0.24915,-3.66366 0.57063,-7.32511 1.1614,-10.92533 0,0 1.10657,0.33779 1.10657,0.33779 z"
     inkscape:connector-curvature="0" />
  <rect
     style="color:#000000;fill:none;stroke:none;stroke-width:0.30000001;marker:none;visibility:visible;display:inline;overflow:visible;enable-background:accumulate"
     id="rect6051-4-8"
     width="45.783131"
     height="31.325302"
     x="62.402611"
     y="221.78017"
     transform="matrix(0.99987472,0.01582866,-0.01582866,0.99987472,0,0)" />
  <rect
     style="color:#000000;fill:#ff0000;fill-opacity:0.08866996;fill-rule:nonzero;stroke:#000000;stroke-width:0.69800001;stroke-linecap:butt;stroke-linejoin:miter;stroke-miterlimit:4;stroke-opacity:1;stroke-dasharray:none;stroke-dashoffset:0;marker:none;visibility:visible;display:inline;overflow:visible;enable-background:accumulate"
     id="rect7270"
     width="186.74699"
     height="196.38554"
     x="295.39432"
     y="63.954498"
     transform="matrix(0.92396714,0.38247186,-0.38247186,0.92396714,0,0)" />
  <rect
     style="color:#000000;fill:#ffffff;fill-opacity:1;stroke:none;stroke-width:0.30000001;marker:none;visibility:visible;display:inline;overflow:visible;enable-background:accumulate"
     id="rect6561-7"
     width="74.870041"
     height="49.397594"
     x="521.03442"
     y="169.67886"
     transform="matrix(0.96543996,0.26062558,-0.26062558,0.96543996,0,0)" />
  <path
     style="fill:#000000;fill-opacity:1;stroke:none"
     d="m 479.71252,332.65192 c -0.86966,-0.61379 -3.08061,-0.6688 -2.60897,-1.84145 0.47164,-1.17264 1.73931,1.22766 2.60897,1.84145 z"
     id="path4671-2-5-2-9-4-0-2-9"
     inkscape:connector-curvature="0" />
  <path
     style="color:#000000;fill:#000000;fill-opacity:1;fill-rule:nonzero;stroke:none;stroke-width:0.69999999;marker:none;visibility:visible;display:inline;overflow:visible;enable-background:accumulate"
     id="path5404-3-8-7-8-6-0"
     d="m 476.53793,339.73932 c -1.09983,1.71552 -2.23972,3.87423 -1.07666,5.84908 1.41757,1.31457 3.3849,1.35843 5.14998,1.49583 0.35104,-0.0317 0.7021,-0.0634 1.05312,-0.0951 0,0 0.0799,1.25838 0.0799,1.25838 l 0,0 c -0.40634,0.0319 -0.81266,0.0638 -1.21899,0.0956 -2.15016,-0.16966 -4.46712,-0.288 -6.0472,-2.11527 -1.24881,-2.56822 -0.33148,-5.04168 1.16945,-7.26809 0,0 0.89039,0.7796 0.89039,0.7796 z"
     inkscape:connector-curvature="0" />
  <path
     style="color:#000000;fill:#000000;fill-opacity:1;fill-rule:nonzero;stroke:none;stroke-width:0.69999999;marker:none;visibility:visible;display:inline;overflow:visible;enable-background:accumulate"
     id="path5202-2-9-9-5-3-0"
     d="m 515.4362,339.39342 c -0.0716,2.87756 -0.14321,5.75515 -0.21477,8.63271 -0.14687,2.60258 -1.37033,4.31124 -3.74186,4.43433 -1.45417,-0.28867 -2.58523,-1.25366 -3.62425,-2.35516 0,0 0.79292,-0.909 0.79292,-0.909 l 0,0 c 0.80772,0.88201 1.69974,1.64965 2.80596,2.00267 1.76616,8.6e-4 2.52065,-1.29853 2.63071,-3.20112 0.0716,-2.87757 0.14321,-5.75514 0.21477,-8.63271 0,0 1.1365,0.0283 1.1365,0.0283 z"
     inkscape:connector-curvature="0" />
  <path
     style="fill:#000000;fill-opacity:1;stroke:none"
     d="m 516.04406,333.82234 c -0.86964,-0.61381 -3.08059,-0.66881 -2.60896,-1.84146 0.47165,-1.17264 1.73932,1.22765 2.60896,1.84146 z"
     id="path4671-2-1-0-8-6-2-4"
     inkscape:connector-curvature="0" />
  <path
     style="color:#000000;fill:#000000;fill-opacity:1;fill-rule:nonzero;stroke:none;stroke-width:0.69999999;marker:none;visibility:visible;display:inline;overflow:visible;enable-background:accumulate"
     id="path5812-44-8-8-8-0"
     d="m 472.40677,312.06742 c -0.0536,2.1566 -0.10728,4.31318 -0.16093,6.46976 -0.37461,-0.17943 -0.87929,-0.17609 -1.12383,-0.53826 -0.16082,-0.2381 0.10778,-0.58519 0.1688,-0.8761 0.3512,-1.67427 0.96393,-3.02308 1.86081,-4.42064 1.60776,-1.80921 3.4371,-3.27815 5.20415,-0.92828 0.87502,2.16841 0.75761,4.61995 0.73911,6.95041 0,0 -1.13693,-0.005 -1.13693,-0.005 l 0,0 c 0.0168,-2.06407 0.1147,-4.21939 -0.5155,-6.18887 -0.87741,-1.67458 -2.51195,-0.0552 -3.36965,0.90579 -0.63595,0.96614 -1.13951,1.88869 -1.46532,3.03868 -0.0192,0.0676 -0.34767,1.5509 -0.34895,1.55201 -0.3237,0.27891 -0.76615,0.32112 -1.14921,0.48169 0.0536,-2.15659 0.10729,-4.31316 0.16092,-6.46975 0,0 1.13653,0.0283 1.13653,0.0283 z"
     inkscape:connector-curvature="0" />
  <path
     style="color:#000000;fill:#000000;fill-opacity:1;fill-rule:nonzero;stroke:none;stroke-width:0.69999999;marker:none;visibility:visible;display:inline;overflow:visible;enable-background:accumulate"
     id="path5908-0-3-5-2-8-5"
     d="m 482.26744,342.48511 c 2.59219,0.0644 5.18438,0.12898 7.77655,0.19342 0.84109,0.0213 1.68217,0.0418 2.52326,0.0627 0,0 -0.0314,1.26167 -0.0314,1.26167 l 0,0 c -0.84108,-0.0213 -1.68216,-0.0418 -2.52326,-0.0628 -2.59218,-0.0644 -5.18435,-0.12899 -7.77654,-0.19342 0,0 0.0314,-1.26166 0.0314,-1.26166 z"
     inkscape:connector-curvature="0" />
  <path
     style="color:#000000;fill:#000000;fill-opacity:1;fill-rule:nonzero;stroke:none;stroke-width:0.69999999;marker:none;visibility:visible;display:inline;overflow:visible;enable-background:accumulate"
     id="path5910-63-2-7-2-5-2"
     d="m 500.41493,334.1991 c -0.57806,3.52895 -0.89202,7.1178 -1.13579,10.70863 -0.12414,2.21926 -0.0682,1.17985 -0.16917,3.11813 0,0 -1.13428,-0.0864 -1.13428,-0.0864 l 0,0 c 0.10187,-1.95557 0.0453,-0.90453 0.17129,-3.15292 0.24915,-3.66365 0.57062,-7.3251 1.16141,-10.92532 0,0 1.10655,0.33778 1.10655,0.33778 z"
     inkscape:connector-curvature="0" />
  <rect
     style="color:#000000;fill:none;stroke:none;stroke-width:0.30000001;marker:none;visibility:visible;display:inline;overflow:visible;enable-background:accumulate"
     id="rect6051-4-8-3"
     width="45.783131"
     height="31.325302"
     x="474.64355"
     y="308.27585"
     transform="matrix(0.99987472,0.01582866,-0.01582866,0.99987472,0,0)" />
  <rect
     style="color:#000000;fill:#ffffff;fill-opacity:1;stroke:none;stroke-width:0.30000001;marker:none;visibility:visible;display:inline;overflow:visible;enable-background:accumulate"
     id="rect6561-5"
     width="74.870041"
     height="49.397594"
     x="352.64893"
     y="-54.321133"
     transform="matrix(0.96543996,0.26062558,-0.26062558,0.96543996,0,0)" />
  <path
     style="fill:#000000;fill-opacity:1;stroke:none"
     d="m 360.89371,72.014674 c -0.86967,-0.613802 -3.08062,-0.668805 -2.60898,-1.841458 0.47164,-1.172641 1.73931,1.227656 2.60898,1.841458 z"
     id="path4671-2-5-2-9-4-0-2-91"
     inkscape:connector-curvature="0" />
  <path
     style="color:#000000;fill:#000000;fill-opacity:1;fill-rule:nonzero;stroke:none;stroke-width:0.69999999;marker:none;visibility:visible;display:inline;overflow:visible;enable-background:accumulate"
     id="path5404-3-8-7-8-6-6"
     d="m 357.71911,79.102063 c -1.09982,1.715525 -2.23972,3.874233 -1.07666,5.849082 1.41758,1.314571 3.38491,1.358428 5.14999,1.495832 0.35104,-0.03164 0.70209,-0.06339 1.05312,-0.09509 0,0 0.0799,1.258371 0.0799,1.258371 l 0,0 c -0.40633,0.03187 -0.81266,0.06375 -1.21899,0.09561 -2.15016,-0.169654 -4.46711,-0.287993 -6.0472,-2.115261 -1.24881,-2.56823 -0.33148,-5.041691 1.16946,-7.268092 0,0 0.89039,0.779601 0.89039,0.779601 z"
     inkscape:connector-curvature="0" />
  <path
     style="color:#000000;fill:#000000;fill-opacity:1;fill-rule:nonzero;stroke:none;stroke-width:0.69999999;marker:none;visibility:visible;display:inline;overflow:visible;enable-background:accumulate"
     id="path5202-2-9-9-5-3-7"
     d="m 374.62014,78.407937 c -0.0716,2.877567 -0.14321,5.755144 -0.21477,8.632712 -0.14687,2.602581 -1.37033,4.31124 -3.74186,4.434327 -1.45417,-0.288665 -2.58522,-1.253657 -3.62425,-2.355163 0,0 0.79292,-0.908992 0.79292,-0.908992 l 0,0 c 0.80772,0.882005 1.69974,1.649642 2.80596,2.002665 1.76616,8.57e-4 2.52065,-1.298535 2.63071,-3.201111 0.0716,-2.877568 0.14321,-5.755145 0.21477,-8.632712 0,0 1.1365,0.02829 1.1365,0.02829 z"
     inkscape:connector-curvature="0" />
  <path
     style="fill:#000000;fill-opacity:1;stroke:none"
     d="m 375.22801,72.836861 c -0.86965,-0.613813 -3.0806,-0.668816 -2.60898,-1.841466 0.47166,-1.172645 1.73933,1.227653 2.60898,1.841466 z"
     id="path4671-2-1-0-8-6-2-8"
     inkscape:connector-curvature="0" />
  <path
     style="color:#000000;fill:#000000;fill-opacity:1;fill-rule:nonzero;stroke:none;stroke-width:0.69999999;marker:none;visibility:visible;display:inline;overflow:visible;enable-background:accumulate"
     id="path5812-44-8-8-8-7"
     d="m 353.58796,51.430176 c -0.0536,2.156591 -0.10729,4.313172 -0.16094,6.469753 -0.37461,-0.179423 -0.87928,-0.176092 -1.12383,-0.538255 -0.16082,-0.23811 0.10778,-0.585198 0.16881,-0.876099 0.3512,-1.67428 0.96392,-3.023091 1.86081,-4.420648 1.60776,-1.809211 3.4371,-3.278148 5.20415,-0.928283 0.87501,2.168423 0.7576,4.61996 0.73911,6.950419 0,0 -1.13693,-0.0047 -1.13693,-0.0047 l 0,0 c 0.0168,-2.064072 0.1147,-4.219391 -0.5155,-6.188864 -0.87742,-1.674578 -2.51195,-0.05517 -3.36966,0.90578 -0.63594,0.966143 -1.13951,1.888688 -1.46532,3.038676 -0.0192,0.06762 -0.34767,1.5509 -0.34895,1.55201 -0.3237,0.27891 -0.76614,0.321123 -1.14921,0.481691 0.0537,-2.156581 0.10729,-4.313163 0.16093,-6.469742 0,0 1.13653,0.02829 1.13653,0.02829 z"
     inkscape:connector-curvature="0" />
  <path
     style="color:#000000;fill:#000000;fill-opacity:1;fill-rule:nonzero;stroke:none;stroke-width:0.69999999;marker:none;visibility:visible;display:inline;overflow:visible;enable-background:accumulate"
     id="path5908-0-3-5-2-8-7"
     d="m 379.44662,82.101116 c 2.59219,0.06444 5.18438,0.128977 7.77655,0.193417 0.84109,0.02132 1.68217,0.04183 2.52326,0.06275 0,0 -0.0314,1.261663 -0.0314,1.261663 l 0,0 c -0.84109,-0.02132 -1.68216,-0.04183 -2.52326,-0.06275 -2.59218,-0.06444 -5.18435,-0.128979 -7.77653,-0.193419 0,0 0.0314,-1.26166 0.0314,-1.26166 z"
     inkscape:connector-curvature="0" />
  <path
     style="color:#000000;fill:#000000;fill-opacity:1;fill-rule:nonzero;stroke:none;stroke-width:0.69999999;marker:none;visibility:visible;display:inline;overflow:visible;enable-background:accumulate"
     id="path5910-63-2-7-2-5-1"
     d="m 397.5941,73.815109 c -0.57806,3.528953 -0.89201,7.117792 -1.13578,10.708634 -0.12414,2.219251 -0.0682,1.179848 -0.16917,3.118121 0,0 -1.13428,-0.08637 -1.13428,-0.08637 l 0,0 c 0.10186,-1.955569 0.0453,-0.904535 0.17129,-3.152923 0.24915,-3.663644 0.57063,-7.325095 1.1614,-10.925323 0,0 1.10656,0.337787 1.10656,0.337787 z"
     inkscape:connector-curvature="0" />
  <rect
     style="color:#000000;fill:none;stroke:none;stroke-width:0.30000001;marker:none;visibility:visible;display:inline;overflow:visible;enable-background:accumulate"
     id="rect6051-4-8-7"
     width="45.783131"
     height="31.325302"
     x="351.71442"
     y="49.551792"
     transform="matrix(0.99987472,0.01582866,-0.01582866,0.99987472,0,0)" />
  <rect
     style="color:#000000;fill:#ffffff;fill-opacity:1;stroke:none;stroke-width:0.30000001;marker:none;visibility:visible;display:inline;overflow:visible;enable-background:accumulate"
     id="rect6561-3"
     width="74.870041"
     height="49.397594"
     x="300.64893"
     y="421.58246"
     transform="matrix(0.96543996,0.26062558,-0.26062558,0.96543996,0,0)" />
  <path
     style="fill:#000000;fill-opacity:1;stroke:none"
     d="m 209.3673,519.03558 c -0.86965,-0.6138 -3.0806,-0.6688 -2.60898,-1.84146 0.47165,-1.17264 1.73933,1.22766 2.60898,1.84146 z"
     id="path4671-2-5-2-9-4-0-2-3"
     inkscape:connector-curvature="0" />
  <path
     style="color:#000000;fill:#000000;fill-opacity:1;fill-rule:nonzero;stroke:none;stroke-width:0.69999999;marker:none;visibility:visible;display:inline;overflow:visible;enable-background:accumulate"
     id="path5404-3-8-7-8-6-8"
     d="m 206.19272,526.12297 c -1.09984,1.71553 -2.23973,3.87424 -1.07667,5.84908 1.41758,1.31458 3.38491,1.35843 5.14998,1.49583 0.35104,-0.0317 0.70209,-0.0634 1.05313,-0.0951 0,0 0.0799,1.25838 0.0799,1.25838 l 0,0 c -0.40635,0.0318 -0.81267,0.0637 -1.21901,0.0956 -2.15015,-0.16966 -4.4671,-0.288 -6.04719,-2.11527 -1.24881,-2.56822 -0.33147,-5.04168 1.16945,-7.26809 0,0 0.89039,0.77961 0.89039,0.77961 z"
     inkscape:connector-curvature="0" />
  <path
     style="color:#000000;fill:#000000;fill-opacity:1;fill-rule:nonzero;stroke:none;stroke-width:0.69999999;marker:none;visibility:visible;display:inline;overflow:visible;enable-background:accumulate"
     id="path5202-2-9-9-5-3-9"
     d="m 223.09374,525.42884 c -0.0716,2.87757 -0.14321,5.75515 -0.21477,8.63272 -0.14686,2.60258 -1.37032,4.31124 -3.74185,4.43432 -1.45418,-0.28866 -2.58523,-1.25366 -3.62426,-2.35516 0,0 0.79292,-0.90899 0.79292,-0.90899 l 0,0 c 0.80772,0.882 1.69974,1.64964 2.80596,2.00266 1.76616,8.6e-4 2.52065,-1.29853 2.6307,-3.20111 0.0716,-2.87756 0.14321,-5.75515 0.21478,-8.63271 0,0 1.1365,0.0283 1.1365,0.0283 z"
     inkscape:connector-curvature="0" />
  <path
     style="fill:#000000;fill-opacity:1;stroke:none"
     d="m 223.70161,519.85777 c -0.86966,-0.61382 -3.0806,-0.66882 -2.60897,-1.84147 0.47165,-1.17264 1.73931,1.22765 2.60897,1.84147 z"
     id="path4671-2-1-0-8-6-2-0"
     inkscape:connector-curvature="0" />
  <path
     style="color:#000000;fill:#000000;fill-opacity:1;fill-rule:nonzero;stroke:none;stroke-width:0.69999999;marker:none;visibility:visible;display:inline;overflow:visible;enable-background:accumulate"
     id="path5812-44-8-8-8-1"
     d="m 202.06156,498.45108 c -0.0536,2.15659 -0.10729,4.31317 -0.16093,6.46976 -0.37461,-0.17943 -0.8793,-0.17609 -1.12383,-0.53826 -0.16083,-0.23811 0.10777,-0.5852 0.1688,-0.8761 0.3512,-1.67428 0.96392,-3.02309 1.86081,-4.42065 1.60775,-1.8092 3.43709,-3.27814 5.20415,-0.92828 0.87501,2.16842 0.75761,4.61996 0.7391,6.95042 0,0 -1.13692,-0.005 -1.13692,-0.005 l 0,0 c 0.0168,-2.06407 0.1147,-4.21939 -0.5155,-6.18887 -0.87743,-1.67457 -2.51195,-0.0552 -3.36966,0.90579 -0.63595,0.96615 -1.13952,1.88869 -1.46532,3.03868 -0.0192,0.0676 -0.34767,1.5509 -0.34894,1.55201 -0.32371,0.27892 -0.76616,0.32112 -1.14922,0.48169 0.0536,-2.15658 0.10729,-4.31316 0.16093,-6.46974 0,0 1.13653,0.0283 1.13653,0.0283 z"
     inkscape:connector-curvature="0" />
  <path
     style="color:#000000;fill:#000000;fill-opacity:1;fill-rule:nonzero;stroke:none;stroke-width:0.69999999;marker:none;visibility:visible;display:inline;overflow:visible;enable-background:accumulate"
     id="path5908-0-3-5-2-8-1"
     d="m 227.92023,529.12202 c 2.59218,0.0644 5.18437,0.12898 7.77654,0.19342 0.84109,0.0213 1.68216,0.0418 2.52326,0.0628 0,0 -0.0314,1.26166 -0.0314,1.26166 l 0,0 c -0.84108,-0.0213 -1.68217,-0.0418 -2.52326,-0.0628 -2.59218,-0.0644 -5.18436,-0.12897 -7.77654,-0.19341 0,0 0.0314,-1.26167 0.0314,-1.26167 z"
     inkscape:connector-curvature="0" />
  <path
     style="color:#000000;fill:#000000;fill-opacity:1;fill-rule:nonzero;stroke:none;stroke-width:0.69999999;marker:none;visibility:visible;display:inline;overflow:visible;enable-background:accumulate"
     id="path5910-63-2-7-2-5-0"
     d="m 246.0677,520.83601 c -0.57806,3.52896 -0.89201,7.11779 -1.13578,10.70864 -0.12415,2.21925 -0.0682,1.17984 -0.16918,3.11812 0,0 -1.13428,-0.0864 -1.13428,-0.0864 l 0,0 c 0.10187,-1.95557 0.0453,-0.90453 0.1713,-3.15292 0.24915,-3.66364 0.57063,-7.32509 1.1614,-10.92532 0,0 1.10657,0.33779 1.10657,0.33779 z"
     inkscape:connector-curvature="0" />
  <rect
     style="color:#000000;fill:none;stroke:none;stroke-width:0.30000001;marker:none;visibility:visible;display:inline;overflow:visible;enable-background:accumulate"
     id="rect6051-4-8-9"
     width="45.783131"
     height="31.325302"
     x="207.28253"
     y="498.91489"
     transform="matrix(0.99987472,0.01582866,-0.01582866,0.99987472,0,0)" />
  <path
     style="color:#000000;fill-opacity:1;fill-rule:nonzero;stroke:none;stroke-width:0.69999999;marker:none;visibility:visible;display:inline;overflow:visible;enable-background:accumulate"
     id="path5688-0-8"
     d="m 46.076661,234.39067 c -0.936183,2.6626 -1.601186,5.39241 -2.035453,8.17807 -0.0039,1.72576 -1.19815,4.69144 0.400146,6.00076 1.200719,0.006 2.180817,-0.82532 2.880486,-1.72815 1.041233,-1.53407 1.550835,-3.28261 2.243836,-4.97342 0.660924,-1.71615 1.223971,-3.49457 2.5816,-4.79339 2.315338,-1.72135 0.999438,2.13565 0.801388,2.85352 -0.495348,2.17592 -0.843357,4.41616 -0.689372,6.64842 0.40196,2.12517 2.047338,2.76563 3.954234,3.18632 0.360518,-0.0469 0.721017,-0.0937 1.081527,-0.14059 0,0 0.121221,1.19871 0.121221,1.19871 l 0,0 c -0.489259,0.039 -0.978494,0.0781 -1.467738,0.11719 -2.441094,-0.56074 -4.437619,-1.58861 -4.891621,-4.28486 -0.140659,-2.36863 0.184964,-4.73927 0.730457,-7.04611 0.03763,-0.13622 0.550604,-1.92385 0.617308,-1.93275 0.167228,-0.0223 0.291825,0.20267 0.460361,0.21032 0.13546,0.006 0.261703,-0.25655 0.368273,-0.17272 0.09646,0.0759 -0.180415,0.16635 -0.270628,0.24953 -1.276448,1.10347 -1.62971,2.88065 -2.283502,4.36658 -0.746853,1.79041 -1.286423,3.6535 -2.418777,5.2687 -1.160882,1.40237 -2.819849,2.66647 -4.684009,1.81136 -1.712062,-1.97868 -0.974349,-4.62581 -0.725528,-7.02543 0.439637,-2.80757 1.095514,-5.56553 2.048286,-8.24703 0,0 1.177544,0.25496 1.177544,0.25496 z"
     inkscape:connector-curvature="0" />
  <path
     style="color:#000000;fill-opacity:1;fill-rule:nonzero;stroke:none;stroke-width:0.69999999;marker:none;visibility:visible;display:inline;overflow:visible;enable-background:accumulate"
     id="path5688-0-8-8"
     d="m 337.04871,65.7976 c -0.93618,2.662604 -1.60118,5.39242 -2.03545,8.178075 -0.004,1.725765 -1.19814,4.691442 0.40015,6.000755 1.20072,0.0064 2.18082,-0.825314 2.88048,-1.728151 1.04124,-1.534073 1.55084,-3.282604 2.24384,-4.973408 0.66092,-1.716152 1.22397,-3.494572 2.58161,-4.793397 2.31533,-1.721355 0.99943,2.135657 0.80129,2.853544 -0.49535,2.175923 -0.84336,4.416155 -0.68937,6.648422 0.40196,2.125169 2.04734,2.765633 3.95423,3.18632 0.36051,-0.0469 0.72102,-0.09373 1.08153,-0.1406 0,0 0.12122,1.19871 0.12122,1.19871 l 0,0 c -0.48925,0.03906 -0.97848,0.07812 -1.46774,0.117202 -2.44109,-0.560739 -4.43762,-1.588621 -4.89162,-4.284865 -0.14066,-2.368622 0.18497,-4.739277 0.73047,-7.046121 0.0376,-0.136215 0.55059,-1.923835 0.6173,-1.932741 0.16722,-0.02235 0.29182,0.202676 0.46036,0.210325 0.13546,0.0061 0.26171,-0.256551 0.36827,-0.172719 0.0965,0.07583 -0.18041,0.166354 -0.27062,0.249527 -1.27645,1.103474 -1.62972,2.880656 -2.28351,4.366584 -0.74684,1.7904 -1.28642,3.653493 -2.41877,5.268702 -1.16089,1.402362 -2.81985,2.66646 -4.68401,1.811356 -1.71207,-1.978688 -0.97436,-4.625812 -0.72553,-7.025426 0.43964,-2.807581 1.09551,-5.565534 2.04829,-8.247031 0,0 1.17753,0.254953 1.17753,0.254953 z"
     inkscape:connector-curvature="0" />
  <path
     style="color:#000000;fill:#000000;fill-opacity:1;fill-rule:nonzero;stroke:none;stroke-width:0.69800001;marker:none;visibility:visible;display:inline;overflow:visible;enable-background:accumulate"
     id="path5339"
     d="m 385.09572,78.151856 c -0.0435,2.747604 -0.087,5.495207 -0.13049,8.242811 -0.0141,0.891514 -0.0282,1.783027 -0.0423,2.674538 0,0 -1.20466,-0.01907 -1.20466,-0.01907 l 0,0 c 0.0141,-0.891512 0.0282,-1.783026 0.0423,-2.674539 0.0435,-2.747601 0.087,-5.495206 0.13048,-8.242809 0,0 1.20467,0.01907 1.20467,0.01907 z"
     inkscape:connector-curvature="0" />
  <path
     style="color:#000000;fill-opacity:1;fill-rule:nonzero;stroke:none;stroke-width:0.69999999;marker:none;visibility:visible;display:inline;overflow:visible;enable-background:accumulate"
     id="path5688-0-8-8-1"
     d="m 187.05653,510.28826 c -0.93617,2.6626 -1.60118,5.39242 -2.03545,8.17807 -0.004,1.72577 -1.19814,4.69144 0.40015,6.00076 1.20072,0.006 2.18082,-0.82532 2.88049,-1.72815 1.04124,-1.53407 1.55083,-3.28261 2.24383,-4.97341 0.66093,-1.71615 1.22397,-3.49458 2.58161,-4.7934 2.31533,-1.72135 0.99943,2.13566 0.80139,2.85352 -0.49535,2.17592 -0.84336,4.41616 -0.68937,6.64842 0.40196,2.12517 2.04734,2.76563 3.95423,3.18632 0.36052,-0.0469 0.72102,-0.0937 1.08153,-0.14059 0,0 0.12122,1.19871 0.12122,1.19871 l 0,0 c -0.48926,0.039 -0.97848,0.0781 -1.46774,0.11719 -2.44109,-0.56074 -4.43762,-1.58861 -4.89162,-4.28486 -0.14066,-2.36863 0.18497,-4.73927 0.73047,-7.04613 0.0376,-0.13621 0.55059,-1.92383 0.6173,-1.93273 0.16723,-0.0223 0.29182,0.20267 0.46036,0.21032 0.13546,0.006 0.26171,-0.25655 0.36827,-0.17272 0.0965,0.0759 -0.18042,0.16635 -0.27062,0.24952 -1.27646,1.10348 -1.62972,2.88066 -2.28351,4.36659 -0.74684,1.7904 -1.28642,3.6535 -2.41878,5.2687 -1.16088,1.40237 -2.81984,2.66647 -4.684,1.81136 -1.71207,-1.97868 -0.97436,-4.62582 -0.72553,-7.02543 0.43964,-2.80758 1.09551,-5.56553 2.04829,-8.24703 0,0 1.17753,0.25496 1.17753,0.25496 z"
     inkscape:connector-curvature="0" />
  <path
     style="color:#000000;fill:#000000;fill-opacity:1;fill-rule:nonzero;stroke:none;stroke-width:0.69800001;marker:none;visibility:visible;display:inline;overflow:visible;enable-background:accumulate"
     id="path5339-7"
     d="m 488.22995,338.52954 c -0.0435,2.7476 -0.087,5.49522 -0.1305,8.24281 -0.0141,0.89152 -0.0282,1.78303 -0.0423,2.67454 0,0 -1.20465,-0.0191 -1.20465,-0.0191 l 0,0 c 0.0141,-0.89152 0.0282,-1.78302 0.0423,-2.67454 0.0435,-2.7476 0.087,-5.4952 0.1305,-8.24281 0,0 1.20466,0.0191 1.20466,0.0191 z"
     inkscape:connector-curvature="0" />
  <path
     style="color:#000000;fill-opacity:1;fill-rule:nonzero;stroke:none;stroke-width:0.69999999;marker:none;visibility:visible;display:inline;overflow:visible;enable-background:accumulate"
     id="path5688-0-8-8-1-5"
     d="m 459.63114,327.69941 c -0.93618,2.6626 -1.60119,5.39241 -2.03545,8.17807 -0.004,1.72577 -1.19816,4.69144 0.40014,6.00076 1.20072,0.006 2.18081,-0.82532 2.88049,-1.72815 1.04123,-1.53408 1.55083,-3.28261 2.24382,-4.97341 0.66094,-1.71616 1.22399,-3.49458 2.58161,-4.7934 2.31533,-1.72136 0.99942,2.13566 0.80129,2.85354 -0.49533,2.17593 -0.84334,4.41616 -0.68936,6.64842 0.40195,2.12518 2.04733,2.76564 3.95423,3.18633 0.36052,-0.0469 0.72101,-0.0937 1.08152,-0.14061 0,0 0.12122,1.19871 0.12122,1.19871 l 0,0 c -0.48924,0.0391 -0.97849,0.0781 -1.46774,0.11721 -2.44109,-0.56074 -4.43761,-1.58863 -4.8916,-4.28486 -0.14066,-2.36863 0.18496,-4.73928 0.73045,-7.04613 0.0376,-0.13621 0.55061,-1.92383 0.6173,-1.93274 0.16724,-0.0223 0.29183,0.20268 0.46036,0.21033 0.13546,0.006 0.2617,-0.25655 0.36827,-0.17272 0.0965,0.0759 -0.18041,0.16636 -0.27062,0.24953 -1.27645,1.10348 -1.6297,2.88065 -2.28349,4.36658 -0.74686,1.79041 -1.28644,3.6535 -2.41878,5.2687 -1.16088,1.40237 -2.81985,2.66647 -4.684,1.81136 -1.71208,-1.97869 -0.97437,-4.62581 -0.72555,-7.02542 0.43964,-2.80759 1.09553,-5.56554 2.0483,-8.24704 0,0 1.17754,0.25496 1.17754,0.25496 z"
     inkscape:connector-curvature="0" />
  <path
     style="color:#000000;fill:#000000;fill-opacity:1;fill-rule:nonzero;stroke:none;stroke-width:0.69800001;marker:none;visibility:visible;display:inline;overflow:visible;enable-background:accumulate"
     id="path5399"
     d="m 355.75476,438.4895 c -0.91599,3.37055 -2.21637,6.61013 -3.51129,9.84895 -1.36881,3.40551 -2.53347,6.88267 -3.74618,10.34484 0.3337,0.11897 -2.53129,7.47248 -2.37963,2.0686 0.40271,-3.00101 1.27084,-5.89889 2.07988,-8.80753 1.05807,-3.50496 2.68297,-6.79403 3.99102,-10.20371 0.72322,-1.54492 1.64486,-5.23813 3.70798,-2.58947 0.94888,2.49647 1.00603,5.26422 1.36582,7.89935 0.4948,3.78552 1.15032,7.55065 1.88284,11.29755 0.46449,3.2836 1.08835,6.53714 1.75759,9.78483 0.0569,0.20854 0.11476,0.41682 0.17185,0.62531 0.0188,0.0103 0.0376,0.0203 0.0564,0.0304 0,0 -1.00476,0.66489 -1.00476,0.66489 l 0,0 c -0.3329,-0.58834 -0.17607,-0.23834 -0.40353,-1.07748 -0.66963,-3.25165 -1.2957,-6.50911 -1.75998,-9.79677 -0.73691,-3.76949 -1.39569,-7.55746 -1.89414,-11.36573 -0.33609,-2.46155 -0.43706,-5.01146 -1.16945,-7.38643 -0.35122,-0.74687 -0.14602,-0.0317 0.0177,-0.55232 0.42902,-1.36325 -2.44985,3.7048 -1.60371,2.89775 -1.29629,3.37339 -2.89927,6.62959 -3.95505,10.09475 -0.79356,2.85229 -1.64893,5.69294 -2.0453,8.63561 -0.2624,0.61567 7.2e-4,0.27229 -0.99561,0.38426 -0.19371,0.0217 0.19741,-0.33882 0.26221,-0.52265 0.14154,-0.40156 0.70185,-2.2254 0.78065,-2.47951 1.21859,-3.47855 2.38913,-6.97218 3.76453,-10.39383 1.27026,-3.17647 2.54745,-6.35299 3.45247,-9.6566 0,0 1.17754,0.25497 1.17754,0.25497 z"
     inkscape:connector-curvature="0" />
  <path
     style="color:#000000;fill:#000000;fill-opacity:1;fill-rule:nonzero;stroke:none;stroke-width:0.69800001;marker:none;visibility:visible;display:inline;overflow:visible;enable-background:accumulate"
     id="path5401"
     d="m 347.55317,450.17301 c 3.46128,0.0548 6.92257,0.1096 10.38386,0.16439 1.65545,0.11492 3.29374,0.3832 4.93301,0.6291 0,0 -0.17875,1.19148 -0.17875,1.19148 l 0,0 c -1.58647,-0.23805 -3.17189,-0.49769 -4.77333,-0.61592 -3.46129,-0.0548 -6.92258,-0.10958 -10.38386,-0.16437 0,0 0.0191,-1.20468 0.0191,-1.20468 z"
     inkscape:connector-curvature="0" />
  <path
     style="color:#000000;fill:#000000;fill-opacity:1;fill-rule:nonzero;stroke:none;stroke-width:0.69800001;marker:none;visibility:visible;display:inline;overflow:visible;enable-background:accumulate"
     id="path5407"
     d="m 444.75805,219.0665 c 0.0709,3.47153 -0.50993,6.90325 -0.89227,10.34334 -0.27981,2.49425 -0.42804,4.99954 -0.55582,7.50518 0,0 -1.20325,-0.0614 -1.20325,-0.0614 l 0,0 c 0.12906,-2.52962 0.27915,-5.05883 0.56162,-7.57692 0.37824,-3.40232 0.95557,-6.79595 0.88505,-10.2293 0,0 1.20466,0.0191 1.20466,0.0191 z"
     inkscape:connector-curvature="0" />
  <path
     style="color:#000000;fill:#000000;fill-opacity:1;fill-rule:nonzero;stroke:none;stroke-width:0.69800001;marker:none;visibility:visible;display:inline;overflow:visible;enable-background:accumulate"
     id="path5409"
     d="m 439.9204,218.59047 c 4.86376,-0.42477 9.91393,-1.93984 14.7313,-0.56961 3.1164,1.70448 -0.19837,3.9985 -1.89752,5.16929 -2.44733,1.56944 -5.11247,2.71091 -7.73775,3.93527 -0.56704,-0.10479 -0.67379,0.46958 -1.03561,0.66162 -0.0906,0.0481 0.16913,-0.1282 0.21489,-0.21994 0.059,-0.11817 -0.036,-0.34032 0.0877,-0.38637 0.21922,-0.0816 0.46265,0.0705 0.69528,0.095 0.32612,0.0343 0.65361,0.0541 0.9804,0.0811 2.69177,0.0823 5.34118,0.64482 7.77084,1.80637 3.11397,2.1027 1.12991,3.75599 -1.18029,5.28505 -3.27897,1.83352 -6.94502,2.51246 -10.5499,3.36417 -0.55202,0.12762 -1.104,0.25533 -1.65601,0.38294 0,0 -0.27145,-1.17384 -0.27145,-1.17384 l 0,0 c 0.5502,-0.12726 1.10039,-0.25451 1.6506,-0.38177 3.46845,-0.81846 6.99652,-1.46047 10.16402,-3.19775 0.32003,-0.20968 2.5598,-1.37712 2.39212,-2.0972 -0.0985,-0.42205 -0.82662,-0.89765 -1.07394,-1.09719 -2.28484,-1.12131 -4.81101,-1.60175 -7.3471,-1.6903 -2.09336,-0.17909 -4.57617,-0.89271 -1.3507,-2.524 2.56512,-1.19573 5.16922,-2.30884 7.56386,-3.83582 0.29729,-0.20431 3.18988,-2.14597 2.82636,-2.61425 -0.1457,-0.1877 -0.39033,-0.27106 -0.58549,-0.40659 -4.60989,-1.40683 -9.56332,0.29571 -14.22729,0.60722 0,0 -0.16434,-1.19355 -0.16434,-1.19355 z"
     inkscape:connector-curvature="0" />
  <path
     style="color:#000000;fill:#000000;fill-opacity:1;fill-rule:nonzero;stroke:none;stroke-width:0.69800001;marker:none;visibility:visible;display:inline;overflow:visible;enable-background:accumulate"
     id="path5411"
     d="m 242.01739,142.94429 c -1.04751,-2.57548 -2.78854,-4.65832 -5.12792,-6.13029 -2.35819,-1.31302 -4.42221,-1.08836 -6.60324,0.37927 -2.34467,2.06512 -3.33146,4.91841 -2.68477,7.9472 1.12602,3.00801 4.0274,4.32493 6.90441,5.2057 2.42136,0.49121 4.82473,0.17689 7.23517,-0.16247 0,0 0.16746,1.19313 0.16746,1.19313 l 0,0 c -2.58682,0.36199 -5.16572,0.67857 -7.75864,0.12036 -3.31507,-1.03499 -6.51625,-2.62185 -7.72976,-6.12008 -0.69792,-3.68398 0.37431,-6.70025 3.20611,-9.19178 2.61337,-1.6729 5.12991,-1.96149 7.90992,-0.3879 2.54507,1.63454 4.46906,3.88831 5.60684,6.71716 0,0 -1.12558,0.4297 -1.12558,0.4297 z"
     inkscape:connector-curvature="0" />
  <path
     style="color:#000000;fill:#000000;fill-opacity:1;fill-rule:nonzero;stroke:none;stroke-width:0.69800001;marker:none;visibility:visible;display:inline;overflow:visible;enable-background:accumulate"
     id="path5413"
     d="m 141.57554,357.93766 c 0.57168,3.62253 0.67639,7.29317 0.76311,10.95251 0.0633,2.45605 -0.0485,4.90799 0.15861,7.35689 0,0 -1.20068,0.0998 -1.20068,0.0998 l 0,0 c -0.20224,-2.47338 -0.10734,-4.94786 -0.16242,-7.4282 -0.085,-3.59599 -0.18588,-7.20306 -0.74364,-10.76346 0,0 1.18502,-0.21754 1.18502,-0.21754 z"
     inkscape:connector-curvature="0" />
  <path
     style="color:#000000;fill:#000000;fill-opacity:1;fill-rule:nonzero;stroke:none;stroke-width:0.69800001;marker:none;visibility:visible;display:inline;overflow:visible;enable-background:accumulate"
     id="path5415"
     d="m 128.25112,353.97934 c 4.04767,-0.81798 8.04096,-0.60236 12.0076,0.44824 4.63107,1.50517 8.15862,4.45329 10.34808,8.76101 1.47117,4.30832 -0.65758,7.77431 -3.4799,10.87424 -2.73282,2.66552 -5.84141,4.73276 -9.46289,5.93105 0,0 -0.37627,-1.14456 -0.37627,-1.14456 l 0,0 c 3.42896,-1.11929 6.35605,-3.09316 8.94962,-5.59909 2.47749,-2.70245 4.52085,-5.71116 3.29305,-9.52036 -1.99468,-4.01433 -5.30497,-6.72653 -9.58313,-8.13841 -3.78885,-1.02497 -7.60912,-1.2031 -11.4786,-0.4271 0,0 -0.21755,-1.18502 -0.21755,-1.18502 z"
     inkscape:connector-curvature="0" />
  <path
     style="fill:none;stroke:#000000;stroke-width:1px;stroke-linecap:butt;stroke-linejoin:miter;stroke-opacity:1;marker-start:url(#Arrow1Lstart);marker-mid:none;marker-end:url(#Arrow1Lend)"
     d="m 45.859603,436.50523 -1.189209,75.12069 61.881586,-0.12538"
     id="path5474"
     inkscape:connector-curvature="0" />
  <path
     style="fill:#000000;fill-opacity:1;stroke:none"
     d="m 97.42848,524.86513 c -0.86967,-0.6138 -3.08061,-0.6688 -2.60898,-1.84145 0.47164,-1.17265 1.73931,1.22765 2.60898,1.84145 z"
     id="path4671-2-5-2-9-4-0-2-3-2"
     inkscape:connector-curvature="0" />
  <path
     style="color:#000000;fill:#000000;fill-opacity:1;fill-rule:nonzero;stroke:none;stroke-width:0.69999999;marker:none;visibility:visible;display:inline;overflow:visible;enable-background:accumulate"
     id="path5404-3-8-7-8-6-8-5"
     d="m 94.25389,531.95252 c -1.09983,1.71553 -2.23973,3.87424 -1.07666,5.84909 1.41757,1.31457 3.3849,1.35842 5.14998,1.49582 0.35103,-0.0317 0.70209,-0.0634 1.05312,-0.0951 0,0 0.0799,1.25837 0.0799,1.25837 l 0,0 c -0.40634,0.0318 -0.81266,0.0637 -1.219,0.0956 -2.15015,-0.16965 -4.46711,-0.28799 -6.0472,-2.11527 -1.2488,-2.56822 -0.33147,-5.04168 1.16946,-7.26808 0,0 0.89039,0.7796 0.89039,0.7796 z"
     inkscape:connector-curvature="0" />
  <path
     style="color:#000000;fill:#000000;fill-opacity:1;fill-rule:nonzero;stroke:none;stroke-width:0.69999999;marker:none;visibility:visible;display:inline;overflow:visible;enable-background:accumulate"
     id="path5202-2-9-9-5-3-9-3"
     d="m 30.874598,463.68794 c -0.07156,2.87757 -0.143214,5.75514 -0.21477,8.63271 -0.146864,2.60258 -1.370323,4.31124 -3.741847,4.43433 -1.454183,-0.28866 -2.585231,-1.25366 -3.624265,-2.35516 0,0 0.792926,-0.909 0.792926,-0.909 l 0,0 c 0.807721,0.88201 1.699741,1.64964 2.805963,2.00267 1.766158,8.6e-4 2.520638,-1.29854 2.630699,-3.20111 0.07156,-2.87757 0.143214,-5.75515 0.21477,-8.63272 0,0 1.136515,0.0283 1.136515,0.0283 z"
     inkscape:connector-curvature="0" />
  <path
     style="fill:#000000;fill-opacity:1;stroke:none"
     d="m 31.482468,458.11686 c -0.869653,-0.61381 -3.080599,-0.66881 -2.608969,-1.84147 0.47165,-1.17264 1.739316,1.22766 2.608969,1.84147 z"
     id="path4671-2-1-0-8-6-2-0-4"
     inkscape:connector-curvature="0" />
  <path
     style="color:#000000;fill:#000000;fill-opacity:1;fill-rule:nonzero;stroke:none;stroke-width:0.69800001;marker:none;visibility:visible;display:inline;overflow:visible;enable-background:accumulate"
     id="path6881"
     d="m 162.74276,265.45892 c -2.0597,-0.95888 -4.29668,-1.36272 -6.53329,-1.64278 -2.21016,-0.2665 -4.40842,-0.34419 -6.54381,0.34783 -1.30619,0.62996 -1.27439,1.79678 -0.32514,2.73257 1.73145,0.80111 3.49745,1.5993 5.29049,2.27692 2.09817,0.78557 4.09954,1.70738 5.83206,3.13949 1.57355,1.58445 2.35145,3.59105 1.92728,5.78783 -1.52479,2.61727 -4.71215,2.74359 -7.43119,2.99945 -3.14211,0.14346 -6.08057,-0.63907 -8.8434,-2.08394 -1.38956,-0.9975 -2.2116,-1.72387 -2.05897,-3.48417 0,0 1.08474,0.20984 1.08474,0.20984 l 0,0 c -0.48896,0.91956 0.89418,1.80593 1.48921,2.29684 2.56443,1.36204 5.30279,2.07737 8.22561,1.96137 2.22172,-0.20615 4.9492,-0.23496 6.45375,-2.13126 0.43102,-1.75611 -0.34142,-3.42551 -1.55319,-4.70623 -1.63053,-1.36313 -3.53939,-2.20527 -5.51728,-2.95601 -1.94338,-0.73777 -3.91359,-1.55121 -5.71484,-2.56496 -1.38688,-1.61917 -1.27961,-3.55721 0.80782,-4.5312 2.29736,-0.71096 4.64003,-0.69788 7.01463,-0.3906 2.3603,0.29768 4.71896,0.73209 6.88962,1.75079 0,0 -0.4941,0.98822 -0.4941,0.98822 z"
     inkscape:connector-curvature="0" />
  <path
     style="fill:none;stroke:#000000;stroke-width:1px;stroke-linecap:butt;stroke-linejoin:miter;stroke-opacity:1;marker-end:url(#Arrow1Lend)"
     d="M 209.92233,261.91457 156.88932,240.92234"
     id="path6885"
     inkscape:connector-curvature="0" />
  <path
     style="fill:none;stroke:#000000;stroke-width:1px;stroke-linecap:butt;stroke-linejoin:miter;stroke-opacity:1;marker-end:url(#Arrow1Lend)"
     d="m 333.79903,208.88156 20.99223,-53.03301"
     id="path6885-1"
     inkscape:connector-curvature="0" />
  <path
     style="color:#000000;fill:#000000;fill-opacity:1;fill-rule:nonzero;stroke:none;stroke-width:0.69800001;marker:none;visibility:visible;display:inline;overflow:visible;enable-background:accumulate"
     id="path7095"
     d="m 170.48329,276.68722 c -2.01543,-0.37075 -4.20475,-0.78729 -6.09141,0.21589 -1.1661,1.06946 -1.39778,2.45595 -0.55794,3.77166 1.32573,1.31246 3.23787,1.45969 5.00217,1.61703 0,0 -0.0991,1.1004 -0.0991,1.1004 l 0,0 c -2.13451,-0.19408 -4.35802,-0.44783 -5.85518,-2.15694 -1.07489,-1.93253 -0.75962,-3.89673 1.01441,-5.31958 2.16443,-1.04034 4.50385,-0.79144 6.80375,-0.31186 0,0 -0.21668,1.0834 -0.21668,1.0834 z"
     inkscape:connector-curvature="0" />
  <path
     style="color:#000000;fill:#000000;fill-opacity:1;fill-rule:nonzero;stroke:none;stroke-width:0.69800001;marker:none;visibility:visible;display:inline;overflow:visible;enable-background:accumulate"
     id="path7097"
     d="m 176.22427,275.83362 c 0,2.09186 0,4.18371 0,6.27557 0,0 -1.10486,0 -1.10486,0 l 0,0 c 0,-2.09186 0,-4.18371 0,-6.27557 0,0 1.10486,0 1.10486,0 z"
     inkscape:connector-curvature="0" />
  <path
     style="color:#000000;fill:#000000;fill-opacity:1;fill-rule:nonzero;stroke:none;stroke-width:0.69800001;marker:none;visibility:visible;display:inline;overflow:visible;enable-background:accumulate"
     id="path7099"
     d="m 174.23127,274.76328 c 2.48329,0.25463 4.30583,1.38343 5.52194,3.5365 1.14589,2.54257 -0.51005,4.52403 -2.52285,5.92227 -1.00512,0.71053 -2.13051,1.17051 -3.26906,1.61122 0,0 -0.39685,-1.03112 -0.39685,-1.03112 l 0,0 c 1.06057,-0.40564 2.10737,-0.83116 3.04241,-1.49221 1.54245,-1.03409 3.03974,-2.50387 2.17895,-4.47645 -1.01703,-1.89914 -2.62776,-2.76952 -4.77122,-2.98681 0,0 0.21668,-1.0834 0.21668,-1.0834 z"
     inkscape:connector-curvature="0" />
  <path
     style="color:#000000;fill:#000000;fill-opacity:1;fill-rule:nonzero;stroke:none;stroke-width:0.69800001;marker:none;visibility:visible;display:inline;overflow:visible;enable-background:accumulate"
     id="path6881-3"
     d="m 375.20454,179.17167 c -2.0597,-0.95888 -4.29668,-1.36272 -6.53329,-1.64278 -2.21016,-0.2665 -4.40842,-0.34419 -6.54381,0.34783 -1.30619,0.62996 -1.27439,1.79678 -0.32514,2.73257 1.73145,0.80111 3.49745,1.5993 5.29049,2.27692 2.09817,0.78557 4.09954,1.70738 5.83206,3.13949 1.57355,1.58445 2.35145,3.59105 1.92728,5.78783 -1.52479,2.61727 -4.71215,2.74359 -7.43119,2.99945 -3.14211,0.14346 -6.08057,-0.63907 -8.8434,-2.08394 -1.38956,-0.9975 -2.2116,-1.72387 -2.05897,-3.48417 0,0 1.08474,0.20984 1.08474,0.20984 l 0,0 c -0.48896,0.91956 0.89418,1.80593 1.48921,2.29684 2.56443,1.36204 5.30279,2.07737 8.22561,1.96137 2.22172,-0.20615 4.9492,-0.23496 6.45375,-2.13126 0.43102,-1.75611 -0.34142,-3.42551 -1.55319,-4.70623 -1.63053,-1.36313 -3.53939,-2.20527 -5.51728,-2.95601 -1.94338,-0.73777 -3.91359,-1.55121 -5.71484,-2.56496 -1.38688,-1.61917 -1.27961,-3.55721 0.80782,-4.5312 2.29736,-0.71096 4.64003,-0.69788 7.01463,-0.3906 2.3603,0.29768 4.71896,0.73209 6.88962,1.75079 0,0 -0.4941,0.98822 -0.4941,0.98822 z"
     inkscape:connector-curvature="0" />
  <path
     style="color:#000000;fill:#000000;fill-opacity:1;fill-rule:nonzero;stroke:none;stroke-width:0.69800001;marker:none;visibility:visible;display:inline;overflow:visible;enable-background:accumulate"
     id="path7095-1"
     d="m 394.94507,190.39997 c -2.01543,-0.37075 -4.20475,-0.78729 -6.09141,0.21589 -1.1661,1.06946 -1.39778,2.45595 -0.55794,3.77166 1.32573,1.31246 3.23787,1.45969 5.00217,1.61703 0,0 -0.0991,1.1004 -0.0991,1.1004 l 0,0 c -2.13451,-0.19408 -4.35802,-0.44783 -5.85518,-2.15694 -1.07489,-1.93253 -0.75962,-3.89673 1.01441,-5.31958 2.16443,-1.04034 4.50385,-0.79144 6.80375,-0.31186 0,0 -0.21668,1.0834 -0.21668,1.0834 z"
     inkscape:connector-curvature="0" />
  <path
     style="color:#000000;fill:#000000;fill-opacity:1;fill-rule:nonzero;stroke:none;stroke-width:0.69800001;marker:none;visibility:visible;display:inline;overflow:visible;enable-background:accumulate"
     id="path6881-6"
     d="m 402.8259,354.84352 c -2.0597,-0.95888 -4.29668,-1.36272 -6.53329,-1.64278 -2.21016,-0.2665 -4.40842,-0.34419 -6.54381,0.34783 -1.30619,0.62996 -1.27439,1.79678 -0.32514,2.73257 1.73145,0.80111 3.49745,1.5993 5.29049,2.27692 2.09817,0.78557 4.09954,1.70738 5.83206,3.13949 1.57355,1.58445 2.35145,3.59105 1.92728,5.78783 -1.52479,2.61727 -4.71215,2.74359 -7.43119,2.99945 -3.14211,0.14346 -6.08057,-0.63907 -8.8434,-2.08394 -1.38956,-0.9975 -2.2116,-1.72387 -2.05897,-3.48417 0,0 1.08474,0.20984 1.08474,0.20984 l 0,0 c -0.48896,0.91956 0.89418,1.80593 1.48921,2.29684 2.56443,1.36204 5.30279,2.07737 8.22561,1.96137 2.22172,-0.20615 4.9492,-0.23496 6.45375,-2.13126 0.43102,-1.75611 -0.34142,-3.42551 -1.55319,-4.70623 -1.63053,-1.36313 -3.53939,-2.20527 -5.51728,-2.95601 -1.94338,-0.73777 -3.91359,-1.55121 -5.71484,-2.56496 -1.38688,-1.61917 -1.27961,-3.55721 0.80782,-4.5312 2.29736,-0.71096 4.64003,-0.69788 7.01463,-0.3906 2.3603,0.29768 4.71896,0.73209 6.88962,1.75079 0,0 -0.4941,0.98822 -0.4941,0.98822 z"
     inkscape:connector-curvature="0" />
  <path
     style="color:#000000;fill:#000000;fill-opacity:1;fill-rule:nonzero;stroke:none;stroke-width:0.69800001;marker:none;visibility:visible;display:inline;overflow:visible;enable-background:accumulate"
     id="path6881-1"
     d="m 273.55794,424.44933 c -2.0597,-0.95888 -4.29668,-1.36272 -6.53329,-1.64278 -2.21016,-0.2665 -4.40842,-0.34419 -6.54381,0.34783 -1.30619,0.62996 -1.27439,1.79678 -0.32514,2.73257 1.73145,0.80111 3.49745,1.5993 5.29049,2.27692 2.09817,0.78557 4.09954,1.70738 5.83206,3.13949 1.57355,1.58445 2.35145,3.59105 1.92728,5.78783 -1.52479,2.61727 -4.71215,2.74359 -7.43119,2.99945 -3.14211,0.14346 -6.08057,-0.63907 -8.8434,-2.08394 -1.38956,-0.9975 -2.2116,-1.72387 -2.05897,-3.48417 0,0 1.08474,0.20984 1.08474,0.20984 l 0,0 c -0.48896,0.91956 0.89418,1.80593 1.48921,2.29684 2.56443,1.36204 5.30279,2.07737 8.22561,1.96137 2.22172,-0.20615 4.9492,-0.23496 6.45375,-2.13126 0.43102,-1.75611 -0.34142,-3.42551 -1.55319,-4.70623 -1.63053,-1.36313 -3.53939,-2.20527 -5.51728,-2.95601 -1.94338,-0.73777 -3.91359,-1.55121 -5.71484,-2.56496 -1.38688,-1.61917 -1.27961,-3.55721 0.80782,-4.5312 2.29736,-0.71096 4.64003,-0.69788 7.01463,-0.3906 2.3603,0.29768 4.71896,0.73209 6.88962,1.75079 0,0 -0.4941,0.98822 -0.4941,0.98822 z"
     inkscape:connector-curvature="0" />
  <path
     style="fill:none;stroke:#000000;stroke-width:1px;stroke-linecap:butt;stroke-linejoin:miter;stroke-opacity:1;marker-end:url(#Arrow1Lend)"
     d="m 257.98349,386.76311 -20.99223,53.03301"
     id="path6885-1-5"
     inkscape:connector-curvature="0" />
  <path
     style="fill:none;stroke:#000000;stroke-width:1px;stroke-linecap:butt;stroke-linejoin:miter;stroke-opacity:1;marker-end:url(#Arrow1Lend)"
     d="m 383.38445,333.17767 53.03301,20.99223"
     id="path6885-7"
     inkscape:connector-curvature="0" />
  <path
     style="color:#000000;fill:#000000;fill-opacity:1;fill-rule:nonzero;stroke:none;stroke-width:0.69800001;marker:none;visibility:visible;display:inline;overflow:visible;enable-background:accumulate"
     id="path7206"
     d="m 410.3105,365.11283 c -0.8485,2.83661 -2.16465,5.50642 -3.40933,8.18467 -1.11841,1.77687 -1.23095,4.582 -2.92843,5.94874 -0.29302,-0.18407 -0.68671,-0.26457 -0.87908,-0.55222 -0.2778,-0.41543 1.31671,-3.84946 1.5316,-4.35163 0.95201,-2.03361 1.94387,-4.06804 3.3202,-5.85305 1.49821,-1.42349 2.50107,0.22964 3.17675,1.50282 0.96197,1.93799 1.23544,4.08179 1.41955,6.20915 0.0459,1.0645 0.0788,2.10924 0.24796,3.16106 0,0 -1.09159,0.17071 -1.09159,0.17071 l 0,0 c -0.16441,-1.07836 -0.22227,-2.14619 -0.25714,-3.23696 -0.1696,-1.97925 -0.40913,-3.97866 -1.29484,-5.78626 -0.0453,-0.0855 -0.86655,-1.64219 -0.97343,-1.60032 -0.13595,0.0532 -0.23634,0.17152 -0.3545,0.25729 -1.33054,1.70089 -2.25354,3.67037 -3.17723,5.61029 -0.48386,1.1303 -0.99926,2.24192 -1.38921,3.40964 -0.0319,0.0956 0.0255,0.27841 -0.0742,0.29321 -0.26993,0.0401 -0.53482,-0.10876 -0.80224,-0.16314 1.16033,-1.4824 1.61102,-3.75322 2.5239,-5.48499 1.20823,-2.59953 2.4829,-5.18973 3.32786,-7.93569 0,0 1.0834,0.21668 1.0834,0.21668 z"
     inkscape:connector-curvature="0" />
  <path
     style="color:#000000;fill:#000000;fill-opacity:1;fill-rule:nonzero;stroke:none;stroke-width:0.69800001;marker:none;visibility:visible;display:inline;overflow:visible;enable-background:accumulate"
     id="path7208"
     d="m 405.03749,372.6301 c 2.78684,0 5.57367,0 8.36051,0 0,0 0,1.10486 0,1.10486 l 0,0 c -2.78684,0 -5.57367,0 -8.36051,0 0,0 0,-1.10486 0,-1.10486 z"
     inkscape:connector-curvature="0" />
  <path
     style="color:#000000;fill:#000000;fill-opacity:1;fill-rule:nonzero;stroke:none;stroke-width:0.69800001;marker:none;visibility:visible;display:inline;overflow:visible;enable-background:accumulate"
     id="path7210"
     d="m 415.97766,369.42391 c -0.0233,2.40178 -0.0876,4.78099 0.30717,7.15502 0.0616,0.35125 0.12324,0.70251 0.18486,1.05377 0,0 -1.08824,0.19088 -1.08824,0.19088 l 0,0 c -0.0622,-0.35473 -0.12442,-0.70945 -0.18663,-1.06418 -0.40138,-2.43456 -0.35204,-4.87293 -0.32201,-7.33549 0,0 1.10485,0 1.10485,0 z"
     inkscape:connector-curvature="0" />
  <path
     style="color:#000000;fill:#000000;fill-opacity:1;fill-rule:nonzero;stroke:none;stroke-width:0.69800001;marker:none;visibility:visible;display:inline;overflow:visible;enable-background:accumulate"
     id="path7212"
     d="m 412.77147,367.10583 c 2.44925,0.0523 4.91824,-0.26754 7.28357,0.47371 2.37297,1.34827 1.77166,2.65123 0.0795,4.20233 -0.62503,0.58859 -1.44811,0.8473 -2.17184,1.27461 -0.0852,0.0503 -0.22985,0.28106 -0.23412,0.18225 -0.005,-0.12632 0.15262,-0.20164 0.22893,-0.30246 -0.0227,-0.13061 -0.0453,-0.26123 -0.068,-0.39185 1.63811,0.0142 2.90918,0.407 3.74657,1.88629 0.22732,2.08585 -2.06774,2.86562 -3.63654,3.56683 -1.73408,1.05841 -3.89619,1.28485 -5.52892,2.50876 0,0 -0.64863,-0.89442 -0.64863,-0.89442 l 0,0 c 1.73448,-1.22755 3.88577,-1.58688 5.72807,-2.62364 1.04903,-0.46533 2.57292,-0.94076 3.10381,-2.05158 -0.55953,-1.3165 -1.92018,-1.20346 -3.14334,-1.35441 -0.21907,-0.20234 -0.55693,-0.32617 -0.65721,-0.60702 -0.34137,-0.95609 2.16587,-1.49731 2.53497,-2.00812 0.92962,-0.8507 1.8304,-1.45414 0.3258,-2.33664 -2.23117,-0.75476 -4.62564,-0.31267 -6.94262,-0.41979 0,0 0,-1.10485 0,-1.10485 z"
     inkscape:connector-curvature="0" />
  <path
     style="color:#000000;fill:#000000;fill-opacity:1;fill-rule:nonzero;stroke:none;stroke-width:0.69800001;marker:none;visibility:visible;display:inline;overflow:visible;enable-background:accumulate"
     id="path7214"
     d="m 279.93769,435.04099 c -0.39295,2.62317 -1.38493,5.09384 -2.16328,7.61458 -0.13922,0.40261 -1.40998,3.47912 -1.63299,3.40813 -1.24186,-0.39529 -0.86354,-0.79275 -0.59939,-1.4323 1.1494,-2.05825 1.78426,-4.34458 2.66368,-6.52307 0.70769,-1.89029 2.2705,-3.28544 2.82609,-0.38197 0.21358,2.46582 0.17518,4.94627 0.17437,7.41915 -0.0946,1.32387 0.11815,2.63118 0.29964,3.93624 0,0 -1.09438,0.15177 -1.09438,0.15177 l 0,0 c -0.18741,-1.35511 -0.40285,-2.7143 -0.31011,-4.08837 7.9e-4,-2.40843 0.0345,-4.82314 -0.15738,-7.22574 -0.11375,-0.71775 -0.22095,-0.58932 0.28448,-0.90606 0.0456,-0.0286 -0.12042,-0.003 -0.15742,0.0362 -0.36738,0.38835 -0.62163,1.02898 -0.84094,1.47282 -0.88235,2.18033 -1.51519,4.47245 -2.6675,6.53241 -0.27834,0.66776 -0.18769,0.93998 -1.28228,0.31674 -0.0998,-0.0568 0.16617,-0.16213 0.22539,-0.26051 0.52292,-0.86877 0.7836,-1.86969 1.21312,-2.78157 0.76816,-2.48449 1.74786,-4.91961 2.1355,-7.5051 0,0 1.0834,0.21668 1.0834,0.21668 z"
     inkscape:connector-curvature="0" />
  <path
     style="color:#000000;fill:#000000;fill-opacity:1;fill-rule:nonzero;stroke:none;stroke-width:0.69800001;marker:none;visibility:visible;display:inline;overflow:visible;enable-background:accumulate"
     id="path7216"
     d="m 273.55982,440.34855 c 2.3137,0 4.62739,0 6.94109,0 0,0 0,1.10485 0,1.10485 l 0,0 c -2.3137,0 -4.62739,0 -6.94109,0 0,0 0,-1.10485 0,-1.10485 z"
     inkscape:connector-curvature="0" />
  <path
     style="color:#000000;fill:#000000;fill-opacity:1;fill-rule:nonzero;stroke:none;stroke-width:0.69800001;marker:none;visibility:visible;display:inline;overflow:visible;enable-background:accumulate"
     id="path7218"
     d="m 287.81456,437.14235 c 0,2.51995 0,5.0399 0,7.55985 -0.0288,1.1539 -0.0219,2.28565 0.12779,3.42909 0,0 -1.09613,0.13857 -1.09613,0.13857 l 0,0 c -0.1458,-1.19054 -0.17596,-2.36705 -0.13652,-3.56766 0,-2.51995 0,-5.0399 0,-7.55985 0,0 1.10486,0 1.10486,0 z"
     inkscape:connector-curvature="0" />
  <path
     style="color:#000000;fill:#000000;fill-opacity:1;fill-rule:nonzero;stroke:none;stroke-width:0.69800001;marker:none;visibility:visible;display:inline;overflow:visible;enable-background:accumulate"
     id="path7220"
     d="m 280.53081,437.92913 c 3.08616,0.0538 6.1804,-0.13336 9.25754,0.1343 2.88609,0.59854 4.45414,1.78896 3.69637,4.8614 -1.37486,2.37841 -3.53922,4.25701 -5.83656,5.7256 0,0 -0.59261,-0.93249 -0.59261,-0.93249 l 0,0 c 2.08049,-1.31357 4.00807,-3.01876 5.36296,-5.08278 0.71145,-2.31296 -0.58227,-2.99085 -2.72743,-3.47116 -3.04361,-0.27353 -6.10734,-0.0676 -9.16027,-0.13002 0,0 0,-1.10485 0,-1.10485 z"
     inkscape:connector-curvature="0" />
  <path
     style="color:#000000;fill:#000000;fill-opacity:1;fill-rule:nonzero;stroke:none;stroke-width:0.69800001;marker:none;visibility:visible;display:inline;overflow:visible;enable-background:accumulate"
     id="path7222"
     d="m 378.71941,188.60644 c 0,2.51994 0,5.03989 0,7.55984 0,0.81765 0,1.63529 0,2.45294 0,0 -1.10485,0 -1.10485,0 l 0,0 c 0,-0.81765 0,-1.63529 0,-2.45294 0,-2.51995 0,-5.0399 0,-7.55984 0,0 1.10485,0 1.10485,0 z"
     inkscape:connector-curvature="0" />
  <path
     style="color:#000000;fill:#000000;fill-opacity:1;fill-rule:nonzero;stroke:none;stroke-width:0.69800001;marker:none;visibility:visible;display:inline;overflow:visible;enable-background:accumulate"
     id="path7224"
     d="m 376.40836,189.60292 c 2.51995,0 5.0399,0 7.55985,0 2.30439,0.0975 3.97968,1.36615 1.63752,3.20428 -1.18966,0.88021 -2.9871,1.26782 -3.83178,2.37463 0.39225,-0.96759 2.50794,0.4742 2.98643,0.92845 0.77052,2.08859 -1.58265,3.15223 -3.18137,3.76846 -0.35425,0.0942 -0.7085,0.18848 -1.06274,0.28272 0,0 -0.28104,-1.06851 -0.28104,-1.06851 l 0,0 c 0.31711,-0.0823 0.63421,-0.16467 0.95132,-0.24701 0.99831,-0.37303 2.36348,-0.87537 2.79012,-1.95688 -0.98384,-1.0956 -2.82803,-0.47171 -3.25022,-2.05856 0.77579,-1.63803 2.85203,-1.9165 4.22797,-2.91577 0.192,-0.12348 0.85798,-0.51909 0.85693,-0.55678 -0.0173,-0.61998 -1.64662,-0.60025 -1.84314,-0.65018 -2.51995,0 -5.0399,0 -7.55985,0 0,0 0,-1.10485 0,-1.10485 z"
     inkscape:connector-curvature="0" />
  <path
     style="fill:none;stroke:#000000;stroke-width:1.01962960000000002px;stroke-linecap:butt;stroke-linejoin:miter;stroke-opacity:1;marker-end:none;marker-mid:none;marker-start:url(#Arrow1Mstart)"
     d="m 152.4699,238.71263 57.43278,0"
     id="path7226"
     inkscape:connector-curvature="0" />
  <path
     style="fill:none;stroke:#000000;stroke-width:0.66965079000000005px;stroke-linecap:butt;stroke-linejoin:miter;stroke-opacity:1;marker-start:none;marker-end:url(#Arrow1Lend-1)"
     d="m 333.36717,156.95341 24.77261,0"
     id="path7226-2"
     inkscape:connector-curvature="0" />
  <path
     style="fill:none;stroke:#000000;stroke-width:0.69856870000000004px;stroke-linecap:butt;stroke-linejoin:miter;stroke-opacity:1;marker-start:url(#Arrow1Lstart)"
     d="m 234.50669,387.86796 26.95835,0"
     id="path7226-2-5"
     inkscape:connector-curvature="0" />
  <path
     style="fill:none;stroke:#000000;stroke-width:0.55838167999999999px;stroke-linecap:butt;stroke-linejoin:miter;stroke-opacity:1;marker-end:url(#Arrow1Lend-1)"
     d="m 385.00662,330.96797 48.68383,0"
     id="path7226-2-6"
     inkscape:connector-curvature="0" />
  <path
     style="fill:none;stroke:#000000;stroke-width:0.71557515999999999px;stroke-linecap:butt;stroke-linejoin:miter;stroke-opacity:1;marker-end:none;marker-start:url(#Arrow2Lstart)"
     d="m 332.35145,156.47768 0.56574,47.50873"
     id="path7275"
     inkscape:connector-curvature="0" />
  <path
     style="fill:none;stroke:#000000;stroke-width:0.71557515999999999px;stroke-linecap:butt;stroke-linejoin:miter;stroke-opacity:1;marker-end:url(#Arrow1Lend-1)"
     d="m 235.05111,387.31554 0.56574,47.50873"
     id="path7275-6"
     inkscape:connector-curvature="0" />
  <path
     style="fill:none;stroke:#000000;stroke-width:0.68464714000000004px;stroke-linecap:butt;stroke-linejoin:miter;stroke-opacity:1;marker-end:none;marker-start:url(#Arrow2Lstart)"
     d="m 208.81747,238.399 0,24.09522"
     id="path7295"
     inkscape:connector-curvature="0" />
  <path
     style="fill:none;stroke:#000000;stroke-width:1px;stroke-linecap:butt;stroke-linejoin:miter;stroke-opacity:1;marker-end:url(#Arrow1Mend)"
     d="m 433.1029,331.52039 0,19.88738"
     id="path7297"
     inkscape:connector-curvature="0" />
</svg>
