<?xml version="1.0" encoding="UTF-8" standalone="no"?>
<!-- Created with Inkscape (http://www.inkscape.org/) -->

<svg
   xmlns:dc="http://purl.org/dc/elements/1.1/"
   xmlns:cc="http://creativecommons.org/ns#"
   xmlns:rdf="http://www.w3.org/1999/02/22-rdf-syntax-ns#"
   xmlns:svg="http://www.w3.org/2000/svg"
   xmlns="http://www.w3.org/2000/svg"
   xmlns:sodipodi="http://sodipodi.sourceforge.net/DTD/sodipodi-0.dtd"
   xmlns:inkscape="http://www.inkscape.org/namespaces/inkscape"
   width="650"
   height="450"
   id="svg4063"
   version="1.1"
   inkscape:version="0.48.3.1 r9886"
   sodipodi:docname="consistency_stability_convergence.png"
   inkscape:export-filename="/home/uwhpsc/Programs/sphinx/thevisualroom/_images/v_con_4.png"
   inkscape:export-xdpi="90"
   inkscape:export-ydpi="90">
  <defs
     id="defs4065" />
  <sodipodi:namedview
     id="base"
     pagecolor="#ffffff"
     bordercolor="#666666"
     borderopacity="1.0"
     inkscape:pageopacity="0.0"
     inkscape:pageshadow="2"
     inkscape:zoom="1.4"
     inkscape:cx="338.14094"
     inkscape:cy="231.05563"
     inkscape:document-units="px"
     inkscape:current-layer="layer1"
     showgrid="false"
     inkscape:window-width="1529"
     inkscape:window-height="852"
     inkscape:window-x="0"
     inkscape:window-y="31"
     inkscape:window-maximized="1" />
  <metadata
     id="metadata4068">
    <rdf:RDF>
      <cc:Work
         rdf:about="">
        <dc:format>image/svg+xml</dc:format>
        <dc:type
           rdf:resource="http://purl.org/dc/dcmitype/StillImage" />
        <dc:title></dc:title>
      </cc:Work>
    </rdf:RDF>
  </metadata>
  <g
     inkscape:label="Layer 1"
     inkscape:groupmode="layer"
     id="layer1"
     transform="translate(0,-602.36218)">
    <text
       xml:space="preserve"
       style="font-size:40px;font-style:normal;font-weight:normal;line-height:125%;letter-spacing:0px;word-spacing:0px;fill:#000000;fill-opacity:1;stroke:none;font-family:Sans"
       x="108.99641"
       y="665.44122"
       id="text6541"
       sodipodi:linespacing="125%"><tspan
         sodipodi:role="line"
         id="tspan6543"
         x="111.22492"
         y="665.44122"
         style="font-size:14px;text-align:center;text-anchor:middle">discretised </tspan><tspan
         sodipodi:role="line"
         x="108.99641"
         y="682.94122"
         style="font-size:14px;text-align:center;text-anchor:middle"
         id="tspan6545">equation</tspan></text>
    <path
       style="color:#000000;fill-opacity:1;fill-rule:nonzero;stroke:none;stroke-width:0.69999999;marker:none;visibility:visible;display:inline;overflow:visible;enable-background:accumulate"
       id="path6547"
       d="m 82.48307,699.79568 c -0.32485,1.7666 -0.44633,3.5629 -0.54206,5.35408 0.0485,0.53996 -0.36406,2.62217 0.74615,1.81221 0.85166,-0.90495 1.31058,-2.10366 1.64458,-3.2812 0.56216,-1.48045 0.99861,-3.00135 1.42133,-4.5259 1.26878,-2.02086 1.10502,2.85493 1.10822,3.05202 -0.0424,1.77365 0.15407,3.50238 1.0851,5.03205 0.69306,0.94519 1.55536,1.23434 2.68232,1.12595 0,0 0.0558,0.71211 0.0558,0.71211 l 0,0 c -1.4015,0.0905 -2.50443,-0.28251 -3.35031,-1.47004 -0.98073,-1.64919 -1.24189,-3.48068 -1.18711,-5.3885 -0.0138,-0.8518 -0.0294,-1.70021 -0.0863,-2.55031 -0.007,-0.10369 -0.0962,-0.23755 -0.0226,-0.31094 0.12759,-0.12726 0.33094,-0.17115 0.51108,-0.17628 0.0656,-0.002 -0.072,0.10987 -0.10794,0.1648 -0.42322,1.52624 -0.85868,3.04959 -1.42282,4.53118 -0.38936,1.35488 -0.92549,2.74833 -1.9936,3.71442 -1.91949,0.87556 -1.87341,-1.15232 -1.79721,-2.47972 0.0977,-1.82539 0.2225,-3.65589 0.5549,-5.45601 0,0 0.70042,0.14008 0.70042,0.14008 z"
       inkscape:connector-curvature="0" />
    <path
       style="color:#000000;fill-opacity:1;fill-rule:nonzero;stroke:none;stroke-width:0.69999999;marker:none;visibility:visible;display:inline;overflow:visible;enable-background:accumulate"
       id="path6549"
       d="m 91.0545,694.79568 c -0.30054,1.20634 -0.24455,2.48351 -0.5537,3.68517 -0.24729,-0.10919 -0.57348,-0.11609 -0.74187,-0.32756 -0.30645,-0.38484 0.82383,-2.62627 1.04659,-2.98279 1.30775,-1.22169 1.95457,-0.082 2.27145,1.17754 0.13097,0.67157 0.1597,1.35523 0.1951,2.03642 0,0 -0.71333,0.0368 -0.71333,0.0368 l 0,0 c -0.0326,-0.63657 -0.0584,-1.27549 -0.17567,-1.90383 -0.12732,-0.54147 -0.25986,-1.56938 -0.97337,-0.96596 -0.33552,0.52647 -0.62141,1.04757 -0.78434,1.65618 -0.0451,0.16825 -0.0677,0.34172 -0.10036,0.5128 -0.0207,0.10844 0.0261,0.25647 -0.0599,0.32575 -0.18178,0.14652 -0.43622,0.16659 -0.65433,0.24989 0.33374,-1.17556 0.21658,-2.45874 0.54326,-3.64052 0,0 0.70042,0.14008 0.70042,0.14008 z"
       inkscape:connector-curvature="0" />
    <path
       style="color:#000000;fill-opacity:1;fill-rule:nonzero;stroke:none;stroke-width:0.69999999;marker:none;visibility:visible;display:inline;overflow:visible;enable-background:accumulate"
       id="path6551"
       d="m 98.28973,693.55339 c 0,1.50001 0,3.00002 0,4.50003 0,0 -0.71429,0 -0.71429,0 l 0,0 c 0,-1.50001 0,-3.00002 0,-4.50003 0,0 0.71429,0 0.71429,0 z"
       inkscape:connector-curvature="0" />
    <path
       style="color:#000000;fill-opacity:1;fill-rule:nonzero;stroke:none;stroke-width:0.69999999;marker:none;visibility:visible;display:inline;overflow:visible;enable-background:accumulate"
       id="path6553"
       d="m 94.71832,696.00564 c 1.62897,-0.3135 3.28258,-0.45688 4.93639,-0.55479 0.27021,-0.0115 0.54042,-0.023 0.81064,-0.0345 0,0 0.0303,0.71364 0.0303,0.71364 l 0,0 c -0.26626,0.0113 -0.53252,0.0226 -0.79878,0.0339 -1.62094,0.0957 -3.24175,0.23551 -4.83846,0.54217 0,0 -0.14008,-0.70041 -0.14008,-0.70041 z"
       inkscape:connector-curvature="0" />
    <path
       style="color:#000000;fill-opacity:1;fill-rule:nonzero;stroke:none;stroke-width:0.69999999;marker:none;visibility:visible;display:inline;overflow:visible;enable-background:accumulate"
       id="path6555"
       d="m 104.00401,693.29707 c 0,1.62914 0,3.25828 0,4.88742 0,0.5286 0,1.05721 0,1.58582 0,0 -0.71428,0 -0.71428,0 l 0,0 c 0,-0.52861 0,-1.05722 0,-1.58582 0,-1.62914 0,-3.25828 0,-4.88742 0,0 0.71428,0 0.71428,0 z"
       inkscape:connector-curvature="0" />
    <path
       style="color:#000000;fill-opacity:1;fill-rule:nonzero;stroke:none;stroke-width:0.69999999;marker:none;visibility:visible;display:inline;overflow:visible;enable-background:accumulate"
       id="path6559"
       d="m 95.224,706.94277 c -0.53893,1.20836 -1.00725,2.48306 -0.47137,3.76066 0.80414,1.09359 1.85622,0.63418 2.85172,0.0835 0,0 0.34147,0.62738 0.34147,0.62738 l 0,0 c -1.39993,0.75134 -2.8629,1.09492 -3.85868,-0.45141 -0.55295,-1.49978 -0.16816,-2.92788 0.49798,-4.33957 0,0 0.63888,0.31944 0.63888,0.31944 z"
       inkscape:connector-curvature="0" />
    <path
       style="color:#000000;fill-opacity:1;fill-rule:nonzero;stroke:none;stroke-width:0.69999999;marker:none;visibility:visible;display:inline;overflow:visible;enable-background:accumulate"
       id="path6561"
       d="m 106.95795,703.14642 c 2.40286,-0.38441 4.84106,-0.46706 7.26902,-0.55312 2.27534,-0.0702 4.55193,-0.081 6.82818,-0.0853 0,0 0.001,0.71429 0.001,0.71429 l 0,0 c -2.26827,0.004 -4.53689,0.015 -6.80427,0.0849 -2.39709,0.0849 -4.80442,0.16533 -7.17687,0.54385 0,0 -0.11743,-0.70457 -0.11743,-0.70457 z"
       inkscape:connector-curvature="0" />
    <path
       style="color:#000000;fill-opacity:1;fill-rule:nonzero;stroke:none;stroke-width:0.69999999;marker:none;visibility:visible;display:inline;overflow:visible;enable-background:accumulate"
       id="path6547-2"
       d="m 125.90157,700.2165 c -0.32485,1.7666 -0.44634,3.56291 -0.54206,5.35409 0.0485,0.53995 -0.36406,2.62217 0.74615,1.8122 0.85166,-0.90494 1.31058,-2.10365 1.64457,-3.2812 0.56217,-1.48044 0.99862,-3.00134 1.42134,-4.5259 1.26878,-2.02085 1.10502,2.85493 1.10822,3.05203 -0.0424,1.77364 0.15407,3.50238 1.0851,5.03204 0.69306,0.9452 1.55536,1.23434 2.68232,1.12596 0,0 0.0558,0.7121 0.0558,0.7121 l 0,0 c -1.4015,0.0905 -2.50444,-0.28251 -3.35031,-1.47004 -0.98073,-1.64918 -1.24189,-3.48067 -1.18711,-5.3885 -0.0138,-0.85179 -0.0294,-1.7002 -0.0863,-2.5503 -0.007,-0.10369 -0.0962,-0.23755 -0.0226,-0.31094 0.12759,-0.12727 0.33094,-0.17115 0.51108,-0.17629 0.0656,-0.002 -0.072,0.10987 -0.10794,0.1648 -0.42322,1.52625 -0.85869,3.0496 -1.42282,4.53119 -0.38936,1.35488 -0.92549,2.74832 -1.9936,3.71441 -1.9195,0.87557 -1.87342,-1.15232 -1.79722,-2.47972 0.0977,-1.82538 0.2225,-3.65589 0.55491,-5.45601 0,0 0.70042,0.14008 0.70042,0.14008 z"
       inkscape:connector-curvature="0" />
    <path
       style="color:#000000;fill-opacity:1;fill-rule:nonzero;stroke:none;stroke-width:0.69999999;marker:none;visibility:visible;display:inline;overflow:visible;enable-background:accumulate"
       id="path6549-6"
       d="m 135.49774,693.8154 c -0.30054,1.20634 -0.24455,2.48351 -0.55369,3.68517 -0.2473,-0.10919 -0.57348,-0.11609 -0.74188,-0.32756 -0.30645,-0.38484 0.82383,-2.62627 1.0466,-2.98279 1.30774,-1.22169 1.95457,-0.082 2.27145,1.17754 0.13097,0.67157 0.1597,1.35523 0.1951,2.03642 0,0 -0.71334,0.0368 -0.71334,0.0368 l 0,0 c -0.0326,-0.63657 -0.0584,-1.27549 -0.17566,-1.90383 -0.12732,-0.54147 -0.25986,-1.56938 -0.97337,-0.96596 -0.33553,0.52647 -0.62141,1.04757 -0.78435,1.65618 -0.0451,0.16825 -0.0677,0.34172 -0.10036,0.5128 -0.0207,0.10844 0.0261,0.25647 -0.0598,0.32575 -0.18178,0.14652 -0.43622,0.16659 -0.65433,0.24989 0.33375,-1.17556 0.21658,-2.45874 0.54327,-3.64052 0,0 0.70041,0.14008 0.70041,0.14008 z"
       inkscape:connector-curvature="0" />
    <path
       style="color:#000000;fill-opacity:1;fill-rule:nonzero;stroke:none;stroke-width:0.69999999;marker:none;visibility:visible;display:inline;overflow:visible;enable-background:accumulate"
       id="path6559-0"
       d="m 137.70102,706.04705 c -0.53893,1.20836 -1.00725,2.48306 -0.47137,3.76066 0.80414,1.09359 1.85622,0.63418 2.85172,0.0835 0,0 0.34147,0.62738 0.34147,0.62738 l 0,0 c -1.39993,0.75134 -2.8629,1.09492 -3.85868,-0.45141 -0.55295,-1.49978 -0.16816,-2.92788 0.49798,-4.33957 0,0 0.63888,0.31944 0.63888,0.31944 z"
       inkscape:connector-curvature="0" />
    <path
       style="fill:none;stroke:#000000;stroke-width:1.57850361px;stroke-linecap:butt;stroke-linejoin:miter;stroke-opacity:1"
       d="m 94.57716,703.44129 c -2.6506,0 0,0 0,0 z"
       id="path6619"
       inkscape:connector-curvature="0" />
    <path
       style="fill:none;stroke:#000000;stroke-width:1.57850361px;stroke-linecap:butt;stroke-linejoin:miter;stroke-opacity:1"
       d="m 137.37875,703.15558 c -2.6506,0 0,0 0,0 z"
       id="path6619-5"
       inkscape:connector-curvature="0" />
    <path
       style="color:#000000;fill-opacity:1;fill-rule:nonzero;stroke:none;stroke-width:0.69999999;marker:none;visibility:visible;display:inline;overflow:visible;enable-background:accumulate"
       id="path6639"
       d="m 77.645515,716.79843 c 1.73696,0 3.473915,0 5.210875,0 2.00598,0 4.01196,0 6.01793,0 2.52094,0 5.04189,0 7.56283,0 2.79128,0 5.58257,0 8.37385,0 2.32212,0.13081 4.61737,-0.19061 6.91935,-0.42836 2.03786,-0.20565 4.08682,-0.24694 6.13325,-0.27641 2.63242,-0.0138 5.25129,-0.3464 7.87586,-0.53011 2.1263,-0.1366 4.2568,-0.17523 6.38683,-0.19279 1.78976,-0.01 3.57957,-0.006 5.36935,-0.004 2.02893,0.002 4.05787,0.002 6.0868,0.003 1.39301,2.1e-4 2.78602,2.3e-4 4.17903,2.4e-4 0,0 -1e-5,0.71428 -1e-5,0.71428 l 0,0 c -1.39305,-1e-5 -2.7861,-2e-5 -4.17915,-2.3e-4 -2.02913,-3.7e-4 -4.05825,-9.3e-4 -6.08738,-0.003 -1.78758,-0.002 -3.57519,-0.006 -5.36276,0.004 -2.11535,0.0174 -4.23118,0.0556 -6.34284,0.19107 -2.63775,0.18454 -5.26974,0.51876 -7.91545,0.53177 -2.02537,0.0291 -4.05327,0.0694 -6.07017,0.2727 -2.32627,0.24012 -4.64621,0.56267 -6.99271,0.43215 -2.79128,0 -5.58257,0 -8.37385,0 -2.52094,0 -5.04189,0 -7.56283,0 -2.00597,0 -4.01195,0 -6.01793,0 -1.73696,0 -3.473915,0 -5.210875,0 0,0 0,-0.71429 0,-0.71429 z"
       inkscape:connector-curvature="0" />
    <path
       style="color:#000000;fill-opacity:1;fill-rule:nonzero;stroke:none;stroke-width:0.69999999;marker:none;visibility:visible;display:inline;overflow:visible;enable-background:accumulate"
       id="path6641"
       d="m 103.62703,721.90669 c -0.7324,1.34858 -1.4939,2.67597 -2.20554,4.03624 -0.80712,1.44611 -1.62429,2.88827 -2.36571,4.37064 -0.26646,0.58486 -0.68167,1.13273 -0.83692,1.76844 -0.0235,0.0964 0.0293,0.3944 0.0383,0.29548 0.004,-0.048 -0.0214,-0.0938 -0.0321,-0.14073 0.70243,-0.25951 1.40438,-0.53062 2.14603,-0.69604 1.12781,-0.19166 2.26124,-0.18124 3.37926,-0.42989 0.9765,-0.29368 2.02686,-0.20341 2.97616,-0.5839 0.26793,-0.35865 -0.31612,-1.10361 -0.50555,-1.44782 -0.73479,-1.33392 -1.43488,-2.6898 -2.09459,-4.06391 -0.39543,-0.83895 -0.84395,-1.64296 -1.29816,-2.44961 0,0 0.54162,-0.3145 0.54162,-0.3145 l 0,0 c 0.46094,0.81874 0.9156,1.63541 1.31741,2.48656 0.65412,1.36408 1.34981,2.70935 2.07888,4.03331 0.40513,0.74197 1.08598,1.71374 0.18387,2.34753 -0.98766,0.37619 -2.05071,0.33671 -3.06655,0.61136 -1.11892,0.24736 -2.24983,0.25176 -3.37943,0.42994 -0.84104,0.18479 -1.61452,0.6232 -2.46097,0.68302 -0.12373,-0.082 -0.27601,-0.13105 -0.37118,-0.24577 -0.53817,-0.64875 0.65236,-2.02291 0.82771,-2.57058 0.74399,-1.48533 1.56092,-2.93193 2.37092,-4.38081 0.70923,-1.35567 1.46766,-2.67889 2.19846,-4.02232 0,0 0.55805,0.28336 0.55805,0.28336 z"
       inkscape:connector-curvature="0" />
    <path
       style="color:#000000;fill-opacity:1;fill-rule:nonzero;stroke:none;stroke-width:0.69999999;marker:none;visibility:visible;display:inline;overflow:visible;enable-background:accumulate"
       id="path6643"
       d="m 111.05784,722.08332 c -0.29545,2.05676 -0.49641,4.11211 -0.34236,6.18449 0.24297,1.62765 0.90929,2.48763 2.51103,3.1083 0.96211,0.3361 1.93986,0.25496 2.92151,0.0683 0,0 0.13807,0.65528 0.13807,0.65528 l 0,0 c -1.12532,0.20151 -2.24025,0.28519 -3.33826,-0.10859 -1.85362,-0.74822 -2.67057,-1.78585 -2.94494,-3.67727 -0.15531,-2.11942 0.0434,-4.2217 0.34784,-6.32492 0,0 0.70711,0.0944 0.70711,0.0944 z"
       inkscape:connector-curvature="0" />
    <path
       style="color:#000000;fill-opacity:1;fill-rule:nonzero;stroke:none;stroke-width:0.69999999;marker:none;visibility:visible;display:inline;overflow:visible;enable-background:accumulate"
       id="path6645"
       d="m 107.64551,726.08415 c 1.91805,-0.22273 3.83173,-0.43662 5.73178,-0.78245 1.42378,-0.23036 0.70026,-0.12535 2.17084,-0.31302 0,0 0.0903,0.70855 0.0903,0.70855 l 0,0 c -1.44221,0.18352 -0.73121,0.0806 -2.13327,0.30722 -1.94195,0.35323 -3.89834,0.57495 -5.85965,0.79398 0,0 0,-0.71428 0,-0.71428 z"
       inkscape:connector-curvature="0" />
    <text
       xml:space="preserve"
       style="font-size:40px;font-style:normal;font-weight:normal;line-height:125%;letter-spacing:0px;word-spacing:0px;fill:#000000;fill-opacity:1;stroke:none;font-family:Sans"
       x="557.92712"
       y="665.13513"
       id="text6541-7"
       sodipodi:linespacing="125%"><tspan
         sodipodi:role="line"
         x="557.92712"
         y="665.13513"
         style="font-size:14px;text-align:center;text-anchor:middle"
         id="tspan6545-3">differential</tspan><tspan
         sodipodi:role="line"
         x="557.92712"
         y="682.63513"
         style="font-size:14px;text-align:center;text-anchor:middle"
         id="tspan6673">equation</tspan></text>
    <path
       style="color:#000000;fill-opacity:1;fill-rule:nonzero;stroke:none;stroke-width:0.69999999;marker:none;visibility:visible;display:inline;overflow:visible;enable-background:accumulate"
       id="path6547-5"
       d="m 560.66434,699.46289 c -0.32485,1.7666 -0.44634,3.56291 -0.54206,5.35409 0.0485,0.53995 -0.36406,2.62217 0.74615,1.8122 0.85166,-0.90494 1.31058,-2.10365 1.64457,-3.2812 0.56217,-1.48045 0.99861,-3.00134 1.42134,-4.5259 1.26878,-2.02085 1.10502,2.85493 1.10822,3.05203 -0.0424,1.77364 0.15407,3.50238 1.0851,5.03204 0.69306,0.9452 1.55535,1.23434 2.68232,1.12596 0,0 0.0558,0.7121 0.0558,0.7121 l 0,0 c -1.4015,0.0905 -2.50444,-0.28251 -3.35031,-1.47004 -0.98073,-1.64918 -1.24189,-3.48068 -1.18711,-5.3885 -0.0138,-0.85179 -0.0294,-1.7002 -0.0863,-2.5503 -0.007,-0.10369 -0.0962,-0.23755 -0.0226,-0.31094 0.12759,-0.12727 0.33094,-0.17116 0.51108,-0.17629 0.0656,-0.002 -0.072,0.10987 -0.10794,0.1648 -0.42322,1.52625 -0.85869,3.0496 -1.42282,4.53119 -0.38936,1.35488 -0.92549,2.74832 -1.9936,3.71441 -1.9195,0.87556 -1.87342,-1.15232 -1.79722,-2.47972 0.0977,-1.82539 0.2225,-3.65589 0.55491,-5.45601 0,0 0.70042,0.14008 0.70042,0.14008 z"
       inkscape:connector-curvature="0" />
    <path
       style="color:#000000;fill-opacity:1;fill-rule:nonzero;stroke:none;stroke-width:0.69999999;marker:none;visibility:visible;display:inline;overflow:visible;enable-background:accumulate"
       id="path6639-4"
       d="m 550.3982,714.46564 c 0.48063,0 0.96126,0 1.44189,0 0.55507,0 1.11014,0 1.66522,0 0.69756,0 1.39513,0 2.09269,0 0.77238,0 1.54475,0 2.31712,0 0.64255,0.13081 1.27767,-0.19061 1.91464,-0.42836 0.56389,-0.20565 1.13086,-0.24694 1.69713,-0.27641 0.72841,-0.0138 1.45307,-0.34639 2.17931,-0.5301 0.58837,-0.13661 1.1779,-0.17524 1.76729,-0.1928 0.49524,-0.01 0.9905,-0.006 1.48575,-0.004 0.56142,0.002 1.12284,0.002 1.68427,0.003 0.38545,2.2e-4 0.77091,2.3e-4 1.15637,2.4e-4 0,0 0,0.71429 0,0.71429 l 0,0 c -0.38547,-10e-6 -0.77094,-3e-5 -1.15641,-2.4e-4 -0.56148,-3.7e-4 -1.12295,-9.2e-4 -1.68443,-0.003 -0.49464,-0.002 -0.98928,-0.006 -1.48392,0.004 -0.58534,0.0174 -1.17081,0.0556 -1.75512,0.19107 -0.72989,0.18454 -1.45818,0.51876 -2.19027,0.53177 -0.56044,0.0291 -1.12157,0.0694 -1.67967,0.2727 -0.6437,0.24012 -1.28564,0.56267 -1.93494,0.43215 -0.77237,0 -1.54474,0 -2.31712,0 -0.69756,0 -1.39513,0 -2.09269,0 -0.55508,0 -1.11015,0 -1.66522,0 -0.48063,0 -0.96126,0 -1.44189,0 0,0 0,-0.71429 0,-0.71429 z"
       inkscape:connector-curvature="0" />
    <path
       style="color:#000000;fill-opacity:1;fill-rule:nonzero;stroke:none;stroke-width:0.69999999;marker:none;visibility:visible;display:inline;overflow:visible;enable-background:accumulate"
       id="path6643-7"
       d="m 565.23911,719.75053 c -0.29545,2.05676 -0.49641,4.11211 -0.34236,6.18449 0.24297,1.62765 0.90929,2.48763 2.51103,3.1083 0.96211,0.3361 1.93986,0.25496 2.92151,0.0683 0,0 0.13807,0.65528 0.13807,0.65528 l 0,0 c -1.12532,0.20151 -2.24025,0.28519 -3.33826,-0.10859 -1.85362,-0.74822 -2.67057,-1.78585 -2.94494,-3.67727 -0.15531,-2.11942 0.0434,-4.2217 0.34784,-6.32492 0,0 0.70711,0.0944 0.70711,0.0944 z"
       inkscape:connector-curvature="0" />
    <path
       style="color:#000000;fill-opacity:1;fill-rule:nonzero;stroke:none;stroke-width:0.69999999;marker:none;visibility:visible;display:inline;overflow:visible;enable-background:accumulate"
       id="path6645-6"
       d="m 561.82677,723.75136 c 1.91806,-0.22273 3.83174,-0.43662 5.73179,-0.78245 1.42378,-0.23036 0.70026,-0.12535 2.17084,-0.31302 0,0 0.0903,0.70855 0.0903,0.70855 l 0,0 c -1.44221,0.18352 -0.73121,0.0806 -2.13327,0.30722 -1.94196,0.35323 -3.89834,0.57495 -5.85965,0.79398 0,0 0,-0.71428 0,-0.71428 z"
       inkscape:connector-curvature="0" />
    <path
       style="color:#000000;fill-opacity:1;fill-rule:nonzero;stroke:none;stroke-width:0.69999999;marker:none;visibility:visible;display:inline;overflow:visible;enable-background:accumulate"
       id="path6742"
       d="m 555.60041,702.66573 c -1.32116,0.10654 -2.43247,0.51298 -3.31942,1.51066 -0.63252,0.89974 -0.5935,1.74184 0.14423,2.52771 0.88746,0.68752 2.0055,0.79166 2.98536,0.24995 1.04128,-0.52442 1.34921,-1.47751 1.55039,-2.55033 0.22661,-1.27896 -0.16965,-2.47826 -0.73143,-3.61013 -0.73927,-1.09574 -1.62249,-2.0885 -2.40228,-3.16063 -0.61785,-0.85281 -1.38754,-1.50211 -2.25085,-2.09177 0,0 0.40426,-0.58887 0.40426,-0.58887 l 0,0 c 0.92569,0.63837 1.76049,1.34353 2.42459,2.26097 0.80162,1.1061 1.72237,2.12141 2.46504,3.26464 0.62393,1.27511 1.05093,2.6244 0.79227,4.05982 -0.24979,1.28664 -0.6844,2.42421 -1.92493,3.05131 -1.30631,0.63893 -2.70533,0.54446 -3.84549,-0.40952 -0.94593,-1.10048 -1.01499,-2.28303 -0.13934,-3.48401 1.04605,-1.12713 2.31398,-1.64192 3.8476,-1.74409 0,0 0,0.71429 0,0.71429 z"
       inkscape:connector-curvature="0" />
    <path
       style="color:#000000;fill-opacity:1;fill-rule:nonzero;stroke:none;stroke-width:0.69999999;marker:none;visibility:visible;display:inline;overflow:visible;enable-background:accumulate"
       id="path6742-2"
       d="m 558.04688,724.21411 c -1.32116,0.10654 -2.43247,0.51298 -3.31942,1.51066 -0.63252,0.89974 -0.5935,1.74184 0.14423,2.52771 0.88746,0.68752 2.0055,0.79166 2.98536,0.24995 1.04128,-0.52442 1.34921,-1.47751 1.55039,-2.55033 0.22661,-1.27896 -0.16965,-2.47826 -0.73143,-3.61013 -0.73927,-1.09574 -1.62249,-2.0885 -2.40228,-3.16063 -0.61785,-0.85281 -1.38754,-1.50211 -2.25085,-2.09177 0,0 0.40426,-0.58887 0.40426,-0.58887 l 0,0 c 0.92569,0.63837 1.76049,1.34353 2.42459,2.26097 0.80162,1.1061 1.72237,2.12141 2.46504,3.26464 0.62393,1.27511 1.05093,2.6244 0.79227,4.05982 -0.24979,1.28664 -0.6844,2.42421 -1.92493,3.05131 -1.30631,0.63893 -2.70533,0.54446 -3.84549,-0.40952 -0.94593,-1.10048 -1.01499,-2.28303 -0.13934,-3.48401 1.04605,-1.12713 2.31398,-1.64192 3.8476,-1.74409 0,0 0,0.71429 0,0.71429 z"
       inkscape:connector-curvature="0" />
    <text
       xml:space="preserve"
       style="font-size:40px;font-style:normal;font-weight:normal;line-height:125%;letter-spacing:0px;word-spacing:0px;fill:#000000;fill-opacity:1;stroke:none;font-family:Sans"
       x="366.46225"
       y="659.125"
       id="text6541-5"
       sodipodi:linespacing="125%"><tspan
         sodipodi:role="line"
         x="366.46225"
         y="659.125"
         style="font-size:14px;font-weight:bold;text-align:center;text-anchor:middle;-inkscape-font-specification:Sans Bold"
         id="tspan6545-6">consistency</tspan></text>
    <text
       xml:space="preserve"
       style="font-size:40px;font-style:normal;font-weight:normal;line-height:125%;letter-spacing:0px;word-spacing:0px;fill:#000000;fill-opacity:1;stroke:none;font-family:Sans"
       x="107.7298"
       y="851.38458"
       id="text6541-2"
       sodipodi:linespacing="125%"><tspan
         sodipodi:role="line"
         x="109.95831"
         y="851.38458"
         style="font-size:14px;text-align:center;text-anchor:middle"
         id="tspan6824">numerical solution of </tspan><tspan
         sodipodi:role="line"
         x="107.7298"
         y="868.88458"
         style="font-size:14px;text-align:center;text-anchor:middle"
         id="tspan7124">discretised</tspan><tspan
         sodipodi:role="line"
         x="109.95831"
         y="886.38458"
         style="font-size:14px;text-align:center;text-anchor:middle"
         id="tspan7126">equation </tspan></text>
    <path
       style="color:#000000;fill-opacity:1;fill-rule:nonzero;stroke:none;stroke-width:0.69999999;marker:none;visibility:visible;display:inline;overflow:visible;enable-background:accumulate"
       id="path6547-3"
       d="m 104.37075,899.33319 c -0.32485,1.7666 -0.44633,3.5629 -0.54206,5.3541 0.0485,0.54 -0.36406,2.6222 0.74615,1.8122 0.85166,-0.9049 1.31058,-2.1036 1.64458,-3.2812 0.56216,-1.4804 0.99861,-3.0013 1.42133,-4.5259 1.26878,-2.0208 1.10502,2.8549 1.10822,3.052 -0.0424,1.7737 0.15407,3.5024 1.0851,5.0321 0.69306,0.9452 1.55536,1.2343 2.68232,1.1259 0,0 0.0558,0.7121 0.0558,0.7121 l 0,0 c -1.4015,0.091 -2.50443,-0.2825 -3.35031,-1.47 -0.98073,-1.6492 -1.24189,-3.4807 -1.18711,-5.3885 -0.0138,-0.8518 -0.0294,-1.7002 -0.0862,-2.5503 -0.007,-0.1037 -0.0962,-0.2375 -0.0226,-0.3109 0.12759,-0.1273 0.33094,-0.1712 0.51108,-0.1763 0.0656,0 -0.072,0.1098 -0.10794,0.1648 -0.42322,1.5262 -0.85868,3.0496 -1.42282,4.5312 -0.38936,1.3548 -0.92549,2.7483 -1.9936,3.7144 -1.91949,0.8755 -1.87341,-1.1523 -1.79721,-2.4797 0.0977,-1.8254 0.2225,-3.6559 0.5549,-5.4561 0,0 0.70042,0.1401 0.70042,0.1401 z"
       inkscape:connector-curvature="0" />
    <path
       style="color:#000000;fill-opacity:1;fill-rule:nonzero;stroke:none;stroke-width:0.69999999;marker:none;visibility:visible;display:inline;overflow:visible;enable-background:accumulate"
       id="path6549-6-3"
       d="m 114.61316,895.53349 c -0.30054,1.2063 -0.24455,2.4835 -0.5537,3.6852 -0.24729,-0.1092 -0.57347,-0.1161 -0.74187,-0.3276 -0.30645,-0.3848 0.82383,-2.6263 1.0466,-2.9828 1.30774,-1.2217 1.95457,-0.082 2.27145,1.1776 0.13097,0.6715 0.1597,1.3552 0.1951,2.0364 0,0 -0.71334,0.037 -0.71334,0.037 l 0,0 c -0.0326,-0.6366 -0.0584,-1.2755 -0.17566,-1.9039 -0.12732,-0.5414 -0.25986,-1.5693 -0.97337,-0.9659 -0.33553,0.5265 -0.62141,1.0476 -0.78435,1.6562 -0.0451,0.1682 -0.0677,0.3417 -0.10036,0.5128 -0.0207,0.1084 0.0261,0.2564 -0.0598,0.3257 -0.18178,0.1465 -0.43622,0.1666 -0.65433,0.2499 0.33375,-1.1756 0.21658,-2.4587 0.54327,-3.6405 0,0 0.70041,0.1401 0.70041,0.1401 z"
       inkscape:connector-curvature="0" />
    <path
       style="color:#000000;fill-opacity:1;fill-rule:nonzero;stroke:none;stroke-width:0.69999999;marker:none;visibility:visible;display:inline;overflow:visible;enable-background:accumulate"
       id="path6559-0-1"
       d="m 116.81644,907.76509 c -0.53893,1.2084 -1.00725,2.4831 -0.47137,3.7607 0.80414,1.0936 1.85622,0.6342 2.85172,0.083 0,0 0.34147,0.6274 0.34147,0.6274 l 0,0 c -1.39993,0.7513 -2.8629,1.0949 -3.85868,-0.4514 -0.55295,-1.4998 -0.16816,-2.9279 0.49798,-4.3396 0,0 0.63888,0.3194 0.63888,0.3194 z"
       inkscape:connector-curvature="0" />
    <path
       style="fill:none;stroke:#000000;stroke-width:1.57850361px;stroke-linecap:butt;stroke-linejoin:miter;stroke-opacity:1"
       d="m 116.49417,904.87369 c -2.6506,0 0,0 0,0 z"
       id="path6619-5-0"
       inkscape:connector-curvature="0" />
    <text
       xml:space="preserve"
       style="font-size:40px;font-style:normal;font-weight:normal;line-height:125%;letter-spacing:0px;word-spacing:0px;fill:#000000;fill-opacity:1;stroke:none;font-family:Sans"
       x="335.74066"
       y="963.01312"
       id="text6541-5-2"
       sodipodi:linespacing="125%"><tspan
         sodipodi:role="line"
         x="335.74066"
         y="963.01312"
         style="font-size:14px;font-weight:bold;text-align:center;text-anchor:middle;-inkscape-font-specification:Sans Bold"
         id="tspan6545-6-5">convergence</tspan></text>
    <path
       style="color:#000000;fill-opacity:1;fill-rule:nonzero;stroke:none;stroke-width:0.69999999;marker:none;visibility:visible;display:inline;overflow:visible;enable-background:accumulate"
       id="path6764-9"
       d="m 116.45511,973.10183 c 7.62027,0 15.24053,0 22.86079,0 8.53257,0 17.06514,0 25.59772,0 11.89816,0.0145 23.79713,-0.0575 35.68619,0.0858 11.50467,0.26634 23.07098,0.32891 34.56071,0.63522 10.76733,0.41995 21.6316,0.53959 32.48546,0.63213 10.13015,0.0414 20.19534,0.40551 30.29639,0.60022 9.21701,0.16919 18.45741,0.17675 27.69001,0.18982 10.28926,-0.10597 20.51638,0.2058 30.7541,0.43408 8.93295,0.20841 17.89673,0.24669 26.85506,0.27063 10.0714,0.0183 20.14307,0.0147 30.21461,0.0131 8.945,-0.002 17.89,-0.003 26.83505,-0.003 8.34402,-4.1e-4 16.68802,-4.1e-4 25.03206,-4.2e-4 7.37896,0 14.75793,2e-5 22.13689,3e-5 8.67152,0 17.34304,0 26.01458,0 6.97795,0 13.95591,0 20.93386,0 5.83323,0 11.66645,0 17.49969,0 1.05473,0 2.10951,0 3.16425,0 0,0 0,0.71429 0,0.71429 l 0,0 c -1.05474,0 -2.10952,0 -3.16425,0 -5.83324,0 -11.66646,0 -17.49969,0 -6.97795,0 -13.95591,0 -20.93386,0 -8.67154,0 -17.34306,0 -26.01458,-10e-6 -7.37896,-10e-6 -14.75793,-2e-5 -22.13689,-3e-5 -8.34386,1e-5 -16.68767,2e-5 -25.03153,4.3e-4 -8.94467,5.2e-4 -17.8894,10e-4 -26.83408,0.003 -10.0802,0.002 -20.16055,0.005 -30.2406,-0.0131 -9.01816,-0.0241 -18.04173,-0.0631 -27.03433,-0.27287 -10.17436,-0.22691 -20.3376,-0.53801 -30.56335,-0.43182 -9.28709,-0.0132 -18.582,-0.0211 -27.85335,-0.19151 -10.06835,-0.19425 -20.10106,-0.55685 -30.19817,-0.59886 -10.90918,-0.0931 -21.82901,-0.21347 -32.65136,-0.63505 -11.44453,-0.30705 -22.96794,-0.36522 -34.42747,-0.63263 -11.85191,-0.14397 -23.71432,-0.0696 -35.5754,-0.0851 -8.53258,0 -17.06515,0 -25.59772,0 -7.62026,0 -15.24052,0 -22.86079,0 0,0 0,-0.71428 0,-0.71428 z"
       inkscape:connector-curvature="0" />
    <text
       xml:space="preserve"
       style="font-size:40px;font-style:normal;font-weight:normal;line-height:125%;letter-spacing:0px;word-spacing:0px;fill:#000000;fill-opacity:1;stroke:none;font-family:Sans"
       x="561.80109"
       y="849.61896"
       id="text6541-2-6"
       sodipodi:linespacing="125%"><tspan
         sodipodi:role="line"
         x="561.80109"
         y="849.61896"
         style="font-size:14px;text-align:center;text-anchor:middle"
         id="tspan6949">exact solution of</tspan><tspan
         sodipodi:role="line"
         x="561.80109"
         y="867.11896"
         style="font-size:14px;text-align:center;text-anchor:middle"
         id="tspan6957">differential</tspan><tspan
         sodipodi:role="line"
         x="561.80109"
         y="884.61896"
         style="font-size:14px;text-align:center;text-anchor:middle"
         id="tspan6951">equation</tspan></text>
    <text
       xml:space="preserve"
       style="font-size:40px;font-style:normal;font-weight:normal;line-height:125%;letter-spacing:0px;word-spacing:0px;fill:#000000;fill-opacity:1;stroke:none;font-family:Sans"
       x="381.83896"
       y="851.5105"
       id="text6541-2-6-1"
       sodipodi:linespacing="125%"><tspan
         sodipodi:role="line"
         x="381.83896"
         y="851.5105"
         style="font-size:14px;text-align:center;text-anchor:middle"
         id="tspan6949-4">exact solution of</tspan><tspan
         sodipodi:role="line"
         x="381.83896"
         y="869.0105"
         style="font-size:14px;text-align:center;text-anchor:middle"
         id="tspan6951-8">numerical</tspan><tspan
         sodipodi:role="line"
         x="381.83896"
         y="886.5105"
         style="font-size:14px;text-align:center;text-anchor:middle"
         id="tspan6988">scheme</tspan></text>
    <path
       style="color:#000000;fill-opacity:1;fill-rule:nonzero;stroke:none;stroke-width:0.69999999;marker:none;visibility:visible;display:inline;overflow:visible;enable-background:accumulate"
       id="path6996"
       d="m 549.05079,908.43539 c -0.22996,1.932 -0.6179,3.8799 -0.2604,5.8136 0.55849,1.2125 1.03353,1.0061 1.84838,0.248 0.78468,-1.0188 1.32991,-2.1913 1.80688,-3.3793 0.52415,-1.265 0.67695,-2.6235 0.91397,-3.9583 0.13171,-0.3683 0.21769,-0.7638 0.68874,0.558 0.0573,0.1609 -0.37697,3.0498 -0.41123,3.4207 -0.15023,1.6682 -0.35718,3.3119 0.37307,4.8652 0.6373,1.1826 1.61064,1.547 2.87137,1.7001 0,0 -0.0906,0.7085 -0.0906,0.7085 l 0,0 c -1.50474,-0.2008 -2.68423,-0.7039 -3.43026,-2.1114 -0.75438,-1.686 -0.62556,-3.4226 -0.43482,-5.2282 0.0354,-0.3827 0.25558,-3.2257 0.41202,-3.4287 0.1646,-0.2136 0.93401,-0.612 0.72497,-0.3591 -0.24636,1.383 -0.40894,2.7895 -0.9544,4.0994 -0.51685,1.2864 -1.11212,2.5603 -1.99065,3.6429 -1.29584,1.1458 -2.33435,1.0574 -3.03051,-0.6518 -0.35177,-2.0197 -0.002,-4.0411 0.25892,-6.057 0,0 0.70456,0.1174 0.70456,0.1174 z"
       inkscape:connector-curvature="0" />
    <path
       style="color:#000000;fill-opacity:1;fill-rule:nonzero;stroke:none;stroke-width:0.69999999;marker:none;visibility:visible;display:inline;overflow:visible;enable-background:accumulate"
       id="path6998"
       d="m 544.23347,904.50959 c 0.43229,-1.4986 1.26436,-2.7583 2.2547,-3.9356 0.87547,-0.9484 1.96199,-1.4938 3.14186,-0.7923 0.64255,0.7766 1.0077,1.6807 1.8949,2.2098 0.83779,0.2855 1.33726,-0.1777 1.85827,-0.7828 0.55754,-0.925 0.73254,-2.0514 0.64415,-3.1158 -0.11985,-0.73 -0.0306,-0.3711 -0.2689,-1.0765 0,0 0.6785,-0.2233 0.6785,-0.2233 l 0,0 c 0.26879,0.8354 0.17068,0.4188 0.30281,1.248 0.0809,1.2608 -0.11194,2.568 -0.82081,3.64 -0.76744,0.8543 -1.6048,1.4073 -2.76995,0.9177 -0.87514,-0.5569 -1.38663,-1.3459 -1.91457,-2.2223 -0.75783,-0.623 -1.64614,0.083 -2.19966,0.6574 -0.9135,1.0858 -1.68941,2.2356 -2.10088,3.6158 0,0 -0.70042,-0.1401 -0.70042,-0.1401 z"
       inkscape:connector-curvature="0" />
    <path
       style="color:#000000;fill-opacity:1;fill-rule:nonzero;stroke:none;stroke-width:0.69999999;marker:none;visibility:visible;display:inline;overflow:visible;enable-background:accumulate"
       id="path7000"
       d="m 372.71908,902.71839 c 0,1.6291 0,3.2583 0,4.8874 0.064,1.1182 0.49944,2.1396 1.66687,2.375 1.1335,-0.1308 1.79415,-1.207 2.35261,-2.0927 0.70199,-1.3183 1.18844,-2.7275 1.68792,-4.1304 0.15048,-0.5419 0.31917,-1.075 0.52232,-1.5985 0.0929,-0.2394 0.49843,0.2216 0.63117,0.4414 0.0946,0.1566 -0.0524,0.3621 -0.0787,0.5431 -0.2037,1.5223 -0.27338,3.0575 -0.32075,4.5911 0.0677,1.3168 0.55616,2.4969 1.6888,3.2013 1.24377,0.6416 2.55146,0.5932 3.85886,0.2198 0,0 0.1914,0.6881 0.1914,0.6881 l 0,0 c -1.51678,0.4121 -3.01548,0.4522 -4.44367,-0.3117 -1.41414,-0.9747 -1.89784,-2.1155 -2.00933,-3.8195 0.0483,-1.5607 0.11983,-3.1228 0.32782,-4.6717 0.0975,-0.6699 -0.0684,-0.7345 0.84647,-0.7903 0.16163,-0.01 -0.0955,0.3095 -0.14857,0.4625 -0.0614,0.177 -0.36501,1.1914 -0.39297,1.2841 -0.51759,1.4526 -1.02223,2.9124 -1.75772,4.2735 -0.73972,1.1587 -1.60627,2.4041 -3.12048,2.405 -1.48039,-0.3866 -2.14525,-1.5777 -2.21637,-3.0701 0,-1.6291 0,-3.2583 0,-4.8874 0,0 0.71428,0 0.71428,0 z"
       inkscape:connector-curvature="0" />
    <path
       style="color:#000000;fill-opacity:1;fill-rule:nonzero;stroke:none;stroke-width:0.69999999;marker:none;visibility:visible;display:inline;overflow:visible;enable-background:accumulate"
       id="path7002"
       d="m 369.87458,897.64829 c 1.7881,0 3.5762,0 5.36431,0 1.6176,0 3.23521,0 4.85282,0 0.40077,0 0.80154,0 1.20231,0 0,0 0,0.7143 0,0.7143 l 0,0 c -0.40077,0 -0.80154,0 -1.20231,0 -1.61761,0 -3.23522,0 -4.85282,0 -1.78811,0 -3.57621,0 -5.36431,0 0,0 0,-0.7143 0,-0.7143 z"
       inkscape:connector-curvature="0" />
    <path
       style="color:#000000;fill-opacity:1;fill-rule:nonzero;stroke:none;stroke-width:0.69999999;marker:none;visibility:visible;display:inline;overflow:visible;enable-background:accumulate"
       id="path6549-6-3-7"
       d="m 559.1382,904.26809 c -0.30054,1.2063 -0.24455,2.4835 -0.5537,3.6851 -0.24729,-0.1091 -0.57347,-0.116 -0.74187,-0.3275 -0.30645,-0.3849 0.82383,-2.6263 1.0466,-2.9828 1.30774,-1.2217 1.95457,-0.082 2.27145,1.1775 0.13097,0.6716 0.1597,1.3553 0.1951,2.0365 0,0 -0.71334,0.037 -0.71334,0.037 l 0,0 c -0.0326,-0.6366 -0.0584,-1.2755 -0.17566,-1.9039 -0.12732,-0.5414 -0.25986,-1.5694 -0.97337,-0.9659 -0.33553,0.5264 -0.62141,1.0475 -0.78435,1.6561 -0.0451,0.1683 -0.0677,0.3418 -0.10036,0.5128 -0.0207,0.1085 0.0261,0.2565 -0.0598,0.3258 -0.18178,0.1465 -0.43622,0.1666 -0.65433,0.2499 0.33375,-1.1756 0.21658,-2.4588 0.54327,-3.6405 0,0 0.70041,0.14 0.70041,0.14 z"
       inkscape:connector-curvature="0" />
    <path
       style="color:#000000;fill-opacity:1;fill-rule:nonzero;stroke:none;stroke-width:0.69999999;marker:none;visibility:visible;display:inline;overflow:visible;enable-background:accumulate"
       id="path6559-0-1-4"
       d="m 561.34148,916.49969 c -0.53893,1.2084 -1.00725,2.4831 -0.47137,3.7607 0.80414,1.0936 1.85622,0.6342 2.85172,0.083 0,0 0.34147,0.6274 0.34147,0.6274 l 0,0 c -1.39993,0.7513 -2.8629,1.0949 -3.85868,-0.4514 -0.55295,-1.4998 -0.16816,-2.9279 0.49798,-4.3396 0,0 0.63888,0.3194 0.63888,0.3194 z"
       inkscape:connector-curvature="0" />
    <path
       style="fill:none;stroke:#000000;stroke-width:1.57850361px;stroke-linecap:butt;stroke-linejoin:miter;stroke-opacity:1"
       d="m 561.01921,913.60829 c -2.6506,0 0,0 0,0 z"
       id="path6619-5-0-8"
       inkscape:connector-curvature="0" />
    <path
       style="color:#000000;fill-opacity:1;fill-rule:nonzero;stroke:none;stroke-width:0.69999999;marker:none;visibility:visible;display:inline;overflow:visible;enable-background:accumulate"
       id="path6549-6-3-71"
       d="m 387.0019,897.98089 c -0.30054,1.2064 -0.24455,2.4835 -0.5537,3.6852 -0.24729,-0.1092 -0.57347,-0.1161 -0.74187,-0.3276 -0.30645,-0.3848 0.82383,-2.6262 1.0466,-2.9827 1.30774,-1.2217 1.95457,-0.082 2.27145,1.1775 0.13097,0.6716 0.1597,1.3552 0.1951,2.0364 0,0 -0.71334,0.037 -0.71334,0.037 l 0,0 c -0.0326,-0.6366 -0.0584,-1.2755 -0.17566,-1.9038 -0.12732,-0.5415 -0.25986,-1.5694 -0.97337,-0.966 -0.33553,0.5265 -0.62141,1.0476 -0.78435,1.6562 -0.0451,0.1683 -0.0677,0.3417 -0.10036,0.5128 -0.0207,0.1084 0.0261,0.2565 -0.0598,0.3258 -0.18178,0.1465 -0.43622,0.1665 -0.65433,0.2498 0.33375,-1.1755 0.21658,-2.4587 0.54327,-3.6405 0,0 0.70041,0.1401 0.70041,0.1401 z"
       inkscape:connector-curvature="0" />
    <path
       style="color:#000000;fill-opacity:1;fill-rule:nonzero;stroke:none;stroke-width:0.69999999;marker:none;visibility:visible;display:inline;overflow:visible;enable-background:accumulate"
       id="path6559-0-1-0"
       d="m 389.20518,910.21259 c -0.53893,1.2083 -1.00725,2.483 -0.47137,3.7606 0.80414,1.0936 1.85622,0.6342 2.85172,0.083 0,0 0.34147,0.6274 0.34147,0.6274 l 0,0 c -1.39993,0.7514 -2.8629,1.0949 -3.85868,-0.4514 -0.55295,-1.4998 -0.16816,-2.9279 0.49798,-4.3396 0,0 0.63888,0.3195 0.63888,0.3195 z"
       inkscape:connector-curvature="0" />
    <path
       style="fill:none;stroke:#000000;stroke-width:1.57850361px;stroke-linecap:butt;stroke-linejoin:miter;stroke-opacity:1"
       d="m 388.88291,907.32109 c -2.6506,0 0,0 0,0 z"
       id="path6619-5-0-84"
       inkscape:connector-curvature="0" />
    <text
       xml:space="preserve"
       style="font-size:40px;font-style:normal;font-weight:normal;line-height:125%;letter-spacing:0px;word-spacing:0px;fill:#000000;fill-opacity:1;stroke:none;font-family:Sans"
       x="251.99506"
       y="851.82983"
       id="text6541-5-2-1"
       sodipodi:linespacing="125%"><tspan
         sodipodi:role="line"
         x="251.99506"
         y="851.82983"
         style="font-size:14px;font-weight:bold;text-align:center;text-anchor:middle;-inkscape-font-specification:Sans Bold"
         id="tspan6545-6-5-1">stability</tspan></text>
    <path
       style="color:#000000;fill-opacity:1;fill-rule:nonzero;stroke:none;stroke-width:0.69999999;marker:none;visibility:visible;display:inline;overflow:visible;enable-background:accumulate"
       id="path6990-9"
       d="m 108.9696,745.55235 c 0,1.9526 0,3.90521 0,5.85782 0,1.95278 0,3.90556 0,5.85834 0,1.74978 0,3.49956 0,5.24934 0,2.0371 0,4.07421 0,6.11132 0,1.7006 0,3.4012 0,5.1018 0,1.8001 0,3.6002 0,5.4003 -0.11126,1.51562 0.0963,2.98804 0.31953,4.47955 0.2382,1.61286 0.32264,3.24145 0.371,4.86924 0.0364,1.76737 0.0291,3.53532 0.0284,5.30297 -0.002,1.80242 -0.003,3.60484 -0.004,5.40725 -6.5e-4,1.63617 -6.6e-4,3.27233 -6.9e-4,4.90849 -1e-5,1.77691 1e-5,3.55382 2e-5,5.33073 1e-5,1.72008 1e-5,3.44016 1e-5,5.16024 0,2.2491 0,4.4982 0,6.7473 0,0.92216 0,1.84433 0,2.76649 0,0 -0.71429,0 -0.71429,0 l 0,0 c 0,-0.92216 0,-1.84433 0,-2.76649 0,-2.2491 0,-4.4982 0,-6.7473 0,-1.72008 0,-3.44016 -10e-6,-5.16023 -1e-5,-1.77692 -3e-5,-3.55384 -2e-5,-5.33076 4e-5,-1.63627 5e-5,-3.27254 6.9e-4,-4.90881 8.7e-4,-1.80241 0.002,-3.60481 0.004,-5.40721 7.6e-4,-1.76049 0.008,-3.52128 -0.0281,-5.28149 -0.0474,-1.5995 -0.12964,-3.19986 -0.36344,-4.78473 -0.22824,-1.526 -0.43747,-3.03513 -0.3274,-4.58524 0,-1.8001 0,-3.6002 0,-5.4003 0,-1.7006 0,-3.4012 0,-5.1018 0,-2.03711 0,-4.07422 0,-6.11132 0,-1.74978 0,-3.49956 0,-5.24934 0,-1.95278 0,-3.90556 0,-5.85834 0,-1.95261 0,-3.90522 0,-5.85782 0,0 0.71429,0 0.71429,0 z"
       inkscape:connector-curvature="0" />
    <path
       style="color:#000000;fill-opacity:1;fill-rule:nonzero;stroke:none;stroke-width:0.69999999;marker:none;visibility:visible;display:inline;overflow:visible;enable-background:accumulate"
       id="path6992-2"
       d="m 104.15449,809.53834 c 0.92923,1.41829 1.82272,2.86084 2.52602,4.40556 0.71733,1.20263 1.13383,2.55038 1.80069,3.77582 0.62189,1.1606 1.05384,2.42329 1.42313,3.68522 0.11383,0.49953 0.21977,0.99973 0.35343,1.49409 0.008,0.0301 0.003,-0.0853 -0.0282,-0.0893 -0.18806,-0.0246 -0.42623,0.13623 -0.56887,0.0112 -0.10732,-0.094 0.0729,-0.27591 0.10942,-0.41387 0.36983,-2.25794 0.5758,-4.53666 0.9687,-6.79371 0.33301,-2.15435 0.78021,-4.27101 1.3241,-6.37935 0,0 0.69164,0.17844 0.69164,0.17844 l 0,0 c -0.53926,2.08992 -0.98243,4.18779 -1.31207,6.32356 -0.39738,2.27709 -0.59674,4.57746 -0.98184,6.85373 -0.56708,2.14248 -1.26807,-0.47528 -1.24199,-0.98469 -0.35334,-1.21426 -0.76901,-2.42915 -1.3659,-3.54582 -0.66776,-1.24417 -1.10496,-2.59873 -1.82262,-3.82001 -0.6788,-1.49914 -1.55137,-2.89419 -2.44707,-4.27231 0,0 0.57143,-0.42857 0.57143,-0.42857 z"
       inkscape:connector-curvature="0" />
    <path
       style="color:#000000;fill-opacity:1;fill-rule:nonzero;stroke:none;stroke-width:0.69999999;marker:none;visibility:visible;display:inline;overflow:visible;enable-background:accumulate"
       id="path6990-9-7"
       d="m 562.1004,745.71095 c 0,1.9526 0,3.90521 0,5.85782 0,1.95278 0,3.90556 0,5.85834 0,1.74978 0,3.49956 0,5.24934 0,2.0371 0,4.07421 0,6.11132 0,1.7006 0,3.4012 0,5.1018 0,1.8001 0,3.6002 0,5.4003 -0.11125,1.51562 0.0963,2.98804 0.31954,4.47955 0.23819,1.61286 0.32263,3.24145 0.37099,4.86924 0.0364,1.76737 0.0291,3.53532 0.0284,5.30297 -0.002,1.80242 -0.003,3.60484 -0.004,5.40725 -6.4e-4,1.63617 -6.5e-4,3.27233 -6.9e-4,4.90849 -1e-5,1.77691 10e-6,3.55382 2e-5,5.33073 10e-6,1.72008 10e-6,3.44016 10e-6,5.16024 0,2.2491 0,4.4982 0,6.7473 0,0.92216 0,1.84433 0,2.76649 0,0 -0.71428,0 -0.71428,0 l 0,0 c 0,-0.92216 0,-1.84433 0,-2.76649 0,-2.2491 0,-4.4982 0,-6.7473 0,-1.72008 -10e-6,-3.44016 -10e-6,-5.16023 -10e-6,-1.77692 -3e-5,-3.55384 -2e-5,-5.33076 3e-5,-1.63627 4e-5,-3.27254 6.9e-4,-4.90881 8.7e-4,-1.80241 0.003,-3.60481 0.004,-5.40721 7.6e-4,-1.76049 0.008,-3.52128 -0.0281,-5.28149 -0.0474,-1.5995 -0.12964,-3.19986 -0.36345,-4.78473 -0.22824,-1.526 -0.43746,-3.03513 -0.3274,-4.58524 0,-1.8001 0,-3.6002 0,-5.4003 0,-1.7006 0,-3.4012 0,-5.1018 0,-2.03711 0,-4.07422 0,-6.11132 0,-1.74978 0,-3.49956 0,-5.24934 0,-1.95278 0,-3.90556 0,-5.85834 0,-1.95261 0,-3.90522 0,-5.85782 0,0 0.71429,0 0.71429,0 z"
       inkscape:connector-curvature="0" />
    <path
       style="color:#000000;fill-opacity:1;fill-rule:nonzero;stroke:none;stroke-width:0.69999999;marker:none;visibility:visible;display:inline;overflow:visible;enable-background:accumulate"
       id="path6992-2-3"
       d="m 557.2853,809.69694 c 0.92922,1.41829 1.82272,2.86084 2.52601,4.40556 0.71734,1.20263 1.13383,2.55038 1.80069,3.77582 0.62189,1.1606 1.05384,2.42329 1.42314,3.68522 0.11382,0.49953 0.21976,0.99973 0.35343,1.49409 0.008,0.0301 0.003,-0.0853 -0.0282,-0.0893 -0.18806,-0.0246 -0.42624,0.13623 -0.56888,0.0112 -0.10732,-0.094 0.0729,-0.27591 0.10942,-0.41387 0.36984,-2.25794 0.5758,-4.53666 0.9687,-6.79371 0.33301,-2.15435 0.78021,-4.27101 1.3241,-6.37935 0,0 0.69164,0.17844 0.69164,0.17844 l 0,0 c -0.53926,2.08992 -0.98243,4.18779 -1.31207,6.32356 -0.39738,2.27709 -0.59674,4.57746 -0.98184,6.85373 -0.56708,2.14248 -1.26807,-0.47528 -1.24199,-0.98469 -0.35333,-1.21426 -0.76901,-2.42915 -1.36589,-3.54582 -0.66777,-1.24417 -1.10496,-2.59873 -1.82263,-3.82001 -0.6788,-1.49914 -1.55137,-2.89419 -2.44707,-4.27231 0,0 0.57143,-0.42857 0.57143,-0.42857 z"
       inkscape:connector-curvature="0" />
    <flowRoot
       xml:space="preserve"
       id="flowRoot7130"
       style="font-size:40px;font-style:normal;font-weight:normal;line-height:125%;letter-spacing:0px;word-spacing:0px;fill:#000000;fill-opacity:1;stroke:none;font-family:Sans"
       transform="translate(0,502.36218)"><flowRegion
         id="flowRegion7132"><rect
           id="rect7134"
           width="60.609154"
           height="43.436558"
           x="22.223356"
           y="138.86792" /></flowRegion><flowPara
         id="flowPara7136">n</flowPara></flowRoot>    <text
       xml:space="preserve"
       style="font-size:40px;font-style:normal;font-weight:normal;line-height:125%;letter-spacing:0px;word-spacing:0px;fill:#000000;fill-opacity:1;stroke:none;font-family:Sans"
       x="367.59903"
       y="702.21344"
       id="text6541-2-6-1-3"
       sodipodi:linespacing="125%"><tspan
         sodipodi:role="line"
         x="367.59903"
         y="702.21344"
         style="font-size:14px;text-align:center;text-anchor:middle"
         id="tspan6951-8-9">numerical</tspan><tspan
         sodipodi:role="line"
         x="367.59903"
         y="719.71344"
         style="font-size:14px;text-align:center;text-anchor:middle"
         id="tspan6988-2">scheme</tspan></text>
    <path
       style="color:#000000;fill-opacity:1;fill-rule:nonzero;stroke:none;stroke-width:0.69999999;marker:none;visibility:visible;display:inline;overflow:visible;enable-background:accumulate"
       id="path6764-9-2"
       d="m 192.78517,865.43463 c 2.12719,0 4.25438,0 6.38157,0 2.38186,0 4.76372,0 7.14558,0 3.32136,0.014 6.64295,-0.057 9.96177,0.086 3.21152,0.2663 6.44024,0.3289 9.64759,0.6352 3.00569,0.4199 6.03844,0.5396 9.06829,0.6321 2.82782,0.041 5.63751,0.4055 8.45721,0.6002 2.57292,0.1692 5.15237,0.1768 7.72964,0.1899 2.87224,-0.106 5.72713,0.2058 8.58498,0.4341 2.49363,0.2084 4.99586,0.2467 7.49657,0.2706 2.81142,0.018 5.62292,0.015 8.43438,0.013 2.49699,0 4.99398,0 7.49098,0 2.32923,-4e-4 4.65845,-4e-4 6.98768,-4e-4 2.05983,0 4.11966,0 6.17949,0 2.42065,0 4.8413,0 7.26195,0 1.94789,0 3.89578,0 5.84367,0 1.62834,0 3.25668,0 4.88502,0 0.29443,0 0.58887,0 0.8833,0 0,0 0,0.7143 0,0.7143 l 0,0 c -0.29443,0 -0.58887,0 -0.8833,0 -1.62834,0 -3.25668,0 -4.88502,0 -1.94789,0 -3.89578,0 -5.84367,0 -2.42065,0 -4.8413,0 -7.26195,0 -2.05983,0 -4.11966,0 -6.17949,0 -2.32918,0 -4.65835,0 -6.98753,4e-4 -2.4969,5e-4 -4.99381,10e-4 -7.49071,0 -2.81388,0 -5.6278,0 -8.44164,-0.013 -2.51741,-0.024 -5.03633,-0.063 -7.54661,-0.2729 -2.84016,-0.2269 -5.67722,-0.538 -8.53173,-0.4318 -2.59248,-0.013 -5.18715,-0.021 -7.77524,-0.1915 -2.81057,-0.1943 -5.61119,-0.5569 -8.42979,-0.5989 -3.04529,-0.093 -6.09355,-0.2135 -9.1146,-0.635 -3.19473,-0.3071 -6.41148,-0.3653 -9.6104,-0.6327 -3.30845,-0.1439 -6.61983,-0.07 -9.93084,-0.085 -2.38186,0 -4.76372,0 -7.14558,0 -2.12719,0 -4.25438,0 -6.38157,0 0,0 0,-0.7143 0,-0.7143 z"
       inkscape:connector-curvature="0" />
    <path
       style="color:#000000;fill-opacity:1;fill-rule:nonzero;stroke:none;stroke-width:0.69999999;marker:none;visibility:visible;display:inline;overflow:visible;enable-background:accumulate"
       id="path6766-4-8"
       d="m 297.14093,861.95553 c 4.25554,1.1623 8.46608,2.4711 12.66521,3.8217 2.95794,1.0366 6.01838,1.8216 8.94538,2.9466 0.39577,0.2496 0.68287,0.2956 -0.12412,0.9302 -0.0443,0.035 -2.92486,0.4752 -3.13676,0.5188 -2.37201,0.5354 -4.73725,1.1223 -7.07507,1.7934 -1.67783,0.4647 -3.29153,1.1136 -4.97312,1.5665 0,0 -0.18545,-0.6898 -0.18545,-0.6898 l 0,0 c 1.67807,-0.4504 3.28662,-1.103 4.96161,-1.5633 2.35572,-0.6753 4.73835,-1.2679 7.12849,-1.8065 0.25704,-0.053 2.8873,-0.6037 3.05189,-0.4958 0.1615,0.1058 0.20317,0.3359 0.24676,0.524 0.0141,0.061 -0.10068,-0.074 -0.15102,-0.111 -2.91227,-1.1248 -5.96406,-1.8964 -8.90729,-2.9331 -4.17338,-1.3423 -8.35835,-2.6422 -12.5866,-3.8013 0,0 0.14009,-0.7004 0.14009,-0.7004 z"
       inkscape:connector-curvature="0" />
    <path
       style="color:#000000;fill-opacity:1;fill-rule:nonzero;stroke:none;stroke-width:0.69999999;marker:none;visibility:visible;display:inline;overflow:visible;enable-background:accumulate"
       id="path6768-8-6"
       d="m 191.11144,867.44433 c 2.18048,-0.8549 4.39321,-1.6101 6.61366,-2.353 3.04979,-0.9464 6.10682,-1.8703 9.18962,-2.7038 1.434,-0.3632 2.8929,-0.6093 4.34814,-0.8676 0,0 0.12481,0.7033 0.12481,0.7033 l 0,0 c -1.43454,0.2546 -2.87278,0.4966 -4.28658,0.8538 -3.06945,0.8293 -6.11278,1.7501 -9.14939,2.6917 -2.18878,0.7322 -4.36921,1.4779 -6.52082,2.3145 0,0 -0.31944,-0.6389 -0.31944,-0.6389 z"
       inkscape:connector-curvature="0" />
    <path
       style="color:#000000;fill-opacity:1;fill-rule:nonzero;stroke:none;stroke-width:0.69999999;marker:none;visibility:visible;display:inline;overflow:visible;enable-background:accumulate"
       id="path6770-5-2"
       d="m 192.78517,864.72033 c 2.27781,0.1781 4.45023,0.8713 6.58331,1.649 2.93301,1.1501 5.75699,2.5541 8.57952,3.9477 2.76478,1.3127 5.65914,2.2822 8.63571,2.9734 0,0 -0.16172,0.6957 -0.16172,0.6957 l 0,0 c -3.02962,-0.705 -5.97644,-1.691 -8.79023,-3.0286 -2.79931,-1.3822 -5.59986,-2.775 -8.50813,-3.9172 -2.0548,-0.7504 -4.14544,-1.4209 -6.33846,-1.6057 0,0 0,-0.7143 0,-0.7143 z"
       inkscape:connector-curvature="0" />
    <path
       style="color:#000000;fill-opacity:1;fill-rule:nonzero;stroke:none;stroke-width:0.69999999;marker:none;visibility:visible;display:inline;overflow:visible;enable-background:accumulate"
       id="path6764-9-2-6"
       d="m 173.94471,673.60204 c 5.77559,0 11.5512,0 17.32679,0 6.46706,0 12.93413,0 19.40119,0 9.01793,0.0145 18.03647,-0.0575 27.0475,0.0858 8.71969,0.26634 17.4861,0.32891 26.19447,0.63522 8.16084,0.41995 16.39514,0.53959 24.62159,0.63213 7.6779,0.0414 15.30658,0.40551 22.96242,0.60022 6.98582,0.16919 13.98936,0.17675 20.98699,0.18982 7.79851,-0.10597 15.54991,0.2058 23.30933,0.43409 6.77054,0.2084 13.56442,0.2467 20.35417,0.2706 7.63336,0.018 15.26696,0.015 22.90044,0.013 6.77965,0 13.55931,0 20.33899,0 6.32416,-4e-4 12.6483,-4e-4 18.97247,-4e-4 5.59269,0 11.1854,0 16.77811,0 6.57239,0 13.14476,0 19.71715,0 5.28877,0 10.57755,0 15.86632,0 4.42115,0 8.84231,0 13.26347,0 0.79941,0 1.59886,0 2.39827,0 0,0 0,0.7143 0,0.7143 l 0,0 c -0.79941,0 -1.59886,0 -2.39827,0 -4.42116,0 -8.84232,0 -13.26347,0 -5.28877,0 -10.57755,0 -15.86632,0 -6.57239,0 -13.14476,0 -19.71715,0 -5.59271,0 -11.18542,0 -16.77811,0 -6.32404,0 -12.64803,0 -18.97207,4e-4 -6.77941,5e-4 -13.55884,10e-4 -20.33825,0 -7.64006,0 -15.28021,0 -22.92016,-0.013 -6.83509,-0.024 -13.67429,-0.063 -20.49002,-0.2729 -7.71141,-0.2269 -15.4144,-0.538 -23.16477,-0.4318 -7.03892,-0.013 -14.08378,-0.021 -21.11078,-0.1915 -7.63106,-0.19424 -15.23511,-0.55684 -22.88798,-0.59885 -8.26835,-0.0931 -16.54479,-0.21347 -24.74732,-0.63505 -8.67411,-0.30705 -17.40801,-0.36522 -26.0935,-0.63263 -8.98288,-0.14397 -17.9737,-0.0696 -26.96352,-0.0851 -6.46706,0 -12.93413,0 -19.40119,0 -5.77559,0 -11.5512,0 -17.32679,0 0,0 0,-0.71428 0,-0.71428 z"
       inkscape:connector-curvature="0" />
    <path
       style="color:#000000;fill-opacity:1;fill-rule:nonzero;stroke:none;stroke-width:0.69999999;marker:none;visibility:visible;display:inline;overflow:visible;enable-background:accumulate"
       id="path6768-8-6-7"
       d="m 169.12812,674.04029 c 2.18048,-0.85483 4.39321,-1.6101 6.61366,-2.35292 3.04979,-0.94648 6.10682,-1.87032 9.18962,-2.70388 1.434,-0.36317 2.8929,-0.60922 4.34814,-0.86751 0,0 0.12481,0.7033 0.12481,0.7033 l 0,0 c -1.43454,0.25456 -2.87278,0.49656 -4.28658,0.85375 -3.06945,0.82926 -6.11278,1.75011 -9.14939,2.69172 -2.18878,0.73222 -4.36921,1.47791 -6.52082,2.31444 0,0 -0.31944,-0.6389 -0.31944,-0.6389 z"
       inkscape:connector-curvature="0" />
    <path
       style="color:#000000;fill-opacity:1;fill-rule:nonzero;stroke:none;stroke-width:0.69999999;marker:none;visibility:visible;display:inline;overflow:visible;enable-background:accumulate"
       id="path6770-5-2-4"
       d="m 172.23043,674.17347 c 2.27781,0.17814 4.45023,0.87133 6.58331,1.64902 2.93301,1.1501 5.75699,2.55404 8.57952,3.94764 2.76478,1.3127 5.65914,2.2822 8.63571,2.9734 0,0 -0.16172,0.6957 -0.16172,0.6957 l 0,0 c -3.02962,-0.705 -5.97644,-1.691 -8.79023,-3.0286 -2.79931,-1.3822 -5.59986,-2.775 -8.50813,-3.91713 -2.0548,-0.75041 -4.14544,-1.42097 -6.33846,-1.60575 0,0 0,-0.71428 0,-0.71428 z"
       inkscape:connector-curvature="0" />
    <path
       style="color:#000000;fill-opacity:1;fill-rule:nonzero;stroke:none;stroke-width:0.69999999;marker:none;visibility:visible;display:inline;overflow:visible;enable-background:accumulate"
       id="path6990-9-1"
       d="m 371.72983,732.09957 c 0,2.30771 0,4.61543 0,6.92315 0,2.30793 0,4.61585 0,6.92376 0,2.06801 0,4.13601 0,6.20402 0,2.40758 0,4.81517 0,7.22275 0,2.00989 0,4.01977 0,6.02964 0,2.12748 0,4.25495 0,6.38243 -0.11126,1.79126 0.0963,3.53146 0.31953,5.29422 0.2382,1.90619 0.32264,3.83096 0.371,5.75479 0.0364,2.08879 0.0291,4.17827 0.0284,6.2674 -0.002,2.13021 -0.003,4.26043 -0.004,6.39063 -6.5e-4,1.93374 -6.6e-4,3.86746 -6.9e-4,5.80117 -1e-5,2.10007 10e-6,4.20015 2e-5,6.30021 10e-6,2.0329 10e-6,4.0658 10e-6,6.09871 0,2.65813 0,5.31626 0,7.97439 0,1.08987 0,2.17976 0,3.26962 0,0 -0.71429,0 -0.71429,0 l 0,0 c 0,-1.08986 0,-2.17975 0,-3.26962 0,-2.65813 0,-5.31626 0,-7.97439 0,-2.03291 0,-4.06581 -10e-6,-6.0987 -1e-5,-2.10007 -3e-5,-4.20016 -2e-5,-6.30024 4e-5,-1.93385 5e-5,-3.8677 6.9e-4,-5.80155 8.7e-4,-2.13021 0.002,-4.2604 0.004,-6.39059 7.6e-4,-2.08066 0.008,-4.16168 -0.0281,-6.24201 -0.0474,-1.8904 -0.12964,-3.7818 -0.36344,-5.65491 -0.22824,-1.80352 -0.43747,-3.58711 -0.3274,-5.41913 0,-2.12748 0,-4.25495 0,-6.38243 0,-2.00987 0,-4.01975 0,-6.02964 0,-2.40758 0,-4.81517 0,-7.22275 0,-2.06801 0,-4.13601 0,-6.20402 0,-2.30791 0,-4.61583 0,-6.92376 0,-2.30772 0,-4.61544 0,-6.92315 0,0 0.71429,0 0.71429,0 z"
       inkscape:connector-curvature="0" />
    <path
       style="color:#000000;fill-opacity:1;fill-rule:nonzero;stroke:none;stroke-width:0.69999999;marker:none;visibility:visible;display:inline;overflow:visible;enable-background:accumulate"
       id="path6992-2-1"
       d="m 366.91472,812.51413 c 0.92923,1.41829 1.82272,2.86084 2.52602,4.40556 0.71733,1.20263 1.13383,2.55038 1.80069,3.77582 0.62189,1.1606 1.05384,2.42329 1.42313,3.68522 0.11383,0.49953 0.21977,0.99973 0.35343,1.49409 0.008,0.0301 0.003,-0.0853 -0.0282,-0.0893 -0.18806,-0.0246 -0.42623,0.13623 -0.56887,0.0112 -0.10732,-0.094 0.0729,-0.27591 0.10942,-0.41387 0.36983,-2.25794 0.5758,-4.53666 0.9687,-6.79371 0.33301,-2.15435 0.78021,-4.27101 1.3241,-6.37935 0,0 0.69164,0.17844 0.69164,0.17844 l 0,0 c -0.53926,2.08992 -0.98243,4.18779 -1.31207,6.32356 -0.39738,2.27709 -0.59674,4.57746 -0.98184,6.85373 -0.56708,2.14248 -1.26807,-0.47528 -1.24199,-0.98469 -0.35334,-1.21426 -0.76901,-2.42915 -1.3659,-3.54582 -0.66776,-1.24417 -1.10496,-2.59873 -1.82262,-3.82001 -0.6788,-1.49914 -1.55137,-2.89419 -2.44707,-4.27231 0,0 0.57143,-0.42857 0.57143,-0.42857 z"
       inkscape:connector-curvature="0" />
    <path
       style="color:#000000;fill-opacity:1;fill-rule:nonzero;stroke:none;stroke-width:0.69999999;marker:none;visibility:visible;display:inline;overflow:visible;enable-background:accumulate"
       id="path6990-9-13"
       d="m 116.16124,974.46008 c 0,-1.22441 0,-2.44883 0,-3.67324 0,-1.22452 0,-2.44905 0,-3.67357 0,-1.09722 0,-2.19445 0,-3.29168 0,-1.27739 0,-2.5548 0,-3.8322 0,-1.06639 0,-2.13277 0,-3.19916 0,-1.12878 0,-2.25756 0,-3.38635 -0.11126,-0.95039 0.0963,-1.87369 0.31953,-2.80897 0.2382,-1.01137 0.32264,-2.0326 0.371,-3.05333 0.0364,-1.10826 0.0291,-2.21688 0.0284,-3.32531 -0.002,-1.13024 -0.003,-2.26047 -0.004,-3.3907 -6.5e-4,-1.02599 -6.6e-4,-2.05197 -6.9e-4,-3.07795 -10e-6,-1.11424 1e-5,-2.22848 2e-5,-3.34272 1e-5,-1.0786 1e-5,-2.1572 1e-5,-3.23581 0,-1.41033 0,-2.82067 0,-4.23099 0,-0.57828 0,-1.1565 0,-1.73478 0,0 -0.71429,0 -0.71429,0 l 0,0 c 0,0.57828 0,1.1565 0,1.73478 0,1.41032 0,2.82066 0,4.23099 0,1.07861 0,2.15721 -1e-5,3.23581 -1e-5,1.11424 -3e-5,2.22849 -2e-5,3.34273 4e-5,1.02605 5e-5,2.0521 6.9e-4,3.07815 8.7e-4,1.13023 0.002,2.26045 0.004,3.39068 7.6e-4,1.10394 0.008,2.20807 -0.0281,3.31184 -0.0474,1.00299 -0.12964,2.00652 -0.36344,3.00034 -0.22824,0.9569 -0.43747,1.90322 -0.3274,2.87524 0,1.12879 0,2.25757 0,3.38635 0,1.06639 0,2.13277 0,3.19916 0,1.2774 0,2.55481 0,3.8322 0,1.09723 0,2.19446 0,3.29168 0,1.22452 0,2.44905 0,3.67357 0,1.22441 0,2.44883 0,3.67324 0,0 0.71429,0 0.71429,0 z"
       inkscape:connector-curvature="0" />
    <path
       style="color:#000000;fill-opacity:1;fill-rule:nonzero;stroke:none;stroke-width:0.69999999;marker:none;visibility:visible;display:inline;overflow:visible;enable-background:accumulate"
       id="path6990-9-13-1"
       d="m 555.57759,977.9956 c 0,-1.2244 0,-2.4488 0,-3.6732 0,-1.2245 0,-2.4491 0,-3.6736 0,-1.0972 0,-2.1944 0,-3.2917 0,-1.2774 0,-2.5548 0,-3.8322 0,-1.0664 0,-2.1327 0,-3.1991 0,-1.12882 0,-2.2576 0,-3.38639 -0.11126,-0.95039 0.0963,-1.87369 0.31953,-2.80897 0.2382,-1.01137 0.32264,-2.0326 0.371,-3.05333 0.0364,-1.10826 0.0291,-2.21688 0.0284,-3.32531 -0.002,-1.13024 -0.003,-2.26047 -0.004,-3.3907 -6.5e-4,-1.02599 -6.6e-4,-2.05197 -6.9e-4,-3.07795 -10e-6,-1.11424 10e-6,-2.22848 2e-5,-3.34272 1e-5,-1.0786 1e-5,-2.1572 1e-5,-3.23581 0,-1.41033 0,-2.82067 0,-4.23099 0,-0.57828 0,-1.1565 0,-1.73478 0,0 -0.71429,0 -0.71429,0 l 0,0 c 0,0.57828 0,1.1565 0,1.73478 0,1.41032 0,2.82066 0,4.23099 0,1.07861 0,2.15721 -1e-5,3.23581 -10e-6,1.11424 -3e-5,2.22849 -2e-5,3.34273 4e-5,1.02605 5e-5,2.0521 6.9e-4,3.07815 8.7e-4,1.13023 0.002,2.26045 0.004,3.39068 7.6e-4,1.10394 0.008,2.20807 -0.0281,3.31184 -0.0474,1.00299 -0.12964,2.00652 -0.36344,3.00034 -0.22824,0.9569 -0.43747,1.90322 -0.3274,2.87524 0,1.12879 0,2.25757 0,3.38639 0,1.0664 0,2.1327 0,3.1991 0,1.2774 0,2.5548 0,3.8322 0,1.0973 0,2.1945 0,3.2917 0,1.2245 0,2.4491 0,3.6736 0,1.2244 0,2.4488 0,3.6732 0,0 0.71429,0 0.71429,0 z"
       inkscape:connector-curvature="0" />
    <path
       style="color:#000000;fill-opacity:1;fill-rule:nonzero;stroke:none;stroke-width:0.69999999;marker:none;visibility:visible;display:inline;overflow:visible;enable-background:accumulate"
       id="path6992-2-5-0"
       d="m 550.76248,943.30404 c 0.92923,-1.41829 1.82272,-2.86084 2.52602,-4.40556 0.71733,-1.20263 1.13383,-2.55038 1.80069,-3.77582 0.62189,-1.1606 1.05384,-2.42329 1.42313,-3.68521 0.11383,-0.4995 0.21977,-0.9997 0.35343,-1.4941 0.008,-0.03 0.003,0.085 -0.0282,0.089 -0.18806,0.025 -0.42623,-0.1362 -0.56887,-0.011 -0.10732,0.094 0.0729,0.2759 0.10942,0.4139 0.36983,2.25791 0.5758,4.53663 0.9687,6.79368 0.33301,2.15435 0.78021,4.27101 1.3241,6.37935 0,0 0.69164,-0.17844 0.69164,-0.17844 l 0,0 c -0.53926,-2.08992 -0.98243,-4.18779 -1.31207,-6.32356 -0.39738,-2.27709 -0.59674,-4.57746 -0.98184,-6.85373 -0.56708,-2.1425 -1.26807,0.4753 -1.24199,0.9847 -0.35334,1.2143 -0.76901,2.42914 -1.3659,3.54581 -0.66776,1.24417 -1.10496,2.59873 -1.82262,3.82001 -0.6788,1.49914 -1.55137,2.89419 -2.44707,4.27231 0,0 0.57143,0.42857 0.57143,0.42857 z"
       inkscape:connector-curvature="0" />
    <path
       style="color:#000000;fill:#000000;fill-opacity:1;fill-rule:nonzero;stroke:#000000;stroke-width:0.07835039;stroke-linecap:butt;stroke-linejoin:miter;stroke-miterlimit:4;stroke-opacity:1;stroke-dasharray:none;stroke-dashoffset:0;marker:none;visibility:visible;display:inline;overflow:visible;enable-background:accumulate"
       id="path4072"
       d="m 289.79253,986.63251 c -0.67809,1.162 -1.26105,2.4568 -1.89163,3.6838 -0.54497,1.0157 -1.02524,2.1111 -1.53258,3.1743 -0.36543,0.9563 -0.73859,1.8971 -1.13592,2.8203 -0.21604,0.7911 -0.66289,1.0473 -0.0328,1.3596 0.74763,0.2359 1.5163,0.2067 2.2747,0.2112 0.88443,0 1.76885,-0.011 2.65329,-0.015 0.87913,0 1.75827,0 2.63741,-0.01 0.62543,-0.057 1.59733,0.29259 2.01362,-0.7071 0.16146,-0.8528 -0.23206,-1.6683 -0.55697,-2.2745 -0.55951,-0.9573 -1.08502,-1.9826 -1.68419,-2.8773 -0.58731,-0.9411 -1.22556,-1.7867 -1.79325,-2.7618 -0.3617,-0.6437 -0.74289,-1.2291 -1.06051,-1.9349 0,0 0.35473,-0.4199 0.35473,-0.4199 l 0,0 c 0.30266,0.6854 0.67972,1.2369 1.02442,1.8641 0.55879,0.9662 1.19325,1.7944 1.77156,2.7269 0.60979,0.9177 1.15001,1.9574 1.71996,2.9377 0.46778,0.9004 0.91277,2.002 0.56475,3.1897 -0.60383,1.10769 -1.51035,0.99899 -2.35402,0.97139 -0.87873,3e-4 -1.75747,8e-4 -2.63621,0 -0.88541,0 -1.7708,0.013 -2.65621,0.015 -0.80866,-0.01 -1.63054,0.03 -2.42442,-0.2551 -0.94055,-0.62229 -0.56605,-1.36259 -0.17476,-2.44039 0.40208,-0.9322 0.77633,-1.8857 1.14897,-2.8489 0.51218,-1.0675 0.9937,-2.1727 1.54237,-3.1941 0.62634,-1.2159 1.20223,-2.504 1.8769,-3.6536 0,0 0.35079,0.4286 0.35079,0.4286 z"
       inkscape:connector-curvature="0" />
    <path
       style="color:#000000;fill:#000000;fill-opacity:1;fill-rule:nonzero;stroke:#000000;stroke-width:0.11102636;stroke-linecap:butt;stroke-linejoin:miter;stroke-miterlimit:4;stroke-opacity:1;stroke-dasharray:none;stroke-dashoffset:0;marker:none;visibility:visible;display:inline;overflow:visible;enable-background:accumulate"
       id="path4074"
       d="m 299.53869,986.28771 c 0,1.2607 0,2.5214 0,3.782 -0.0915,1.1815 0.13877,2.3144 0.30054,3.4666 0.23707,1.1688 0.47955,1.4892 1.40177,1.8437 1.1176,0.3475 2.22934,0.1988 3.35043,8e-4 0.86909,-0.1478 1.58651,-0.6377 2.32276,-1.1812 0,0 0.25949,0.5341 0.25949,0.5341 l 0,0 c -0.79334,0.5856 -1.57673,1.1024 -2.51067,1.2635 -1.19655,0.211 -2.38576,0.356 -3.57605,-0.024 -1.09081,-0.4401 -1.48153,-0.9529 -1.74542,-2.3306 -0.16629,-1.1865 -0.39937,-2.3564 -0.30793,-3.5727 0,-1.2606 0,-2.5213 0,-3.7819 0,0 0.50508,0 0.50508,0 z"
       inkscape:connector-curvature="0" />
    <path
       style="color:#000000;fill:#000000;fill-opacity:1;fill-rule:nonzero;stroke:#000000;stroke-width:0.1;stroke-linecap:butt;stroke-linejoin:miter;stroke-miterlimit:4;stroke-opacity:1;stroke-dasharray:none;stroke-dashoffset:0;marker:none;visibility:visible;display:inline;overflow:visible;enable-background:accumulate"
       id="path4076"
       d="m 297.39457,991.06767 c 0.9923,-0.46569 2.07055,-0.66428 3.14954,-0.80036 0.88869,-0.0956 1.783,-0.10938 2.67585,-0.11981 0,0 0.006,0.50505 0.006,0.50505 l 0,0 c -0.87378,0.0102 -1.74898,0.0231 -2.61876,0.11589 -1.02245,0.12803 -2.04507,0.31264 -2.98664,0.75099 0,0 -0.22588,-0.45176 -0.22588,-0.45176 z"
       inkscape:connector-curvature="0" />
    <path
       style="color:#000000;fill:#000000;fill-opacity:1;fill-rule:nonzero;stroke:#000000;stroke-width:0.07835039;stroke-linecap:butt;stroke-linejoin:miter;stroke-miterlimit:4;stroke-opacity:1;stroke-dasharray:none;stroke-dashoffset:0;marker:none;visibility:visible;display:inline;overflow:visible;enable-background:accumulate"
       id="path4072-7"
       d="m 322.54777,986.60421 c -0.67809,1.162 -1.26105,2.4568 -1.89163,3.6838 -0.54497,1.0157 -1.02524,2.1111 -1.53258,3.1743 -0.36543,0.9563 -0.73859,1.8971 -1.13592,2.8203 -0.21604,0.7911 -0.66289,1.0473 -0.0328,1.3596 0.74763,0.2359 1.5163,0.2067 2.2747,0.2112 0.88443,0 1.76885,-0.011 2.65329,-0.015 0.87913,0 1.75827,0 2.63741,-0.01 0.62543,-0.057 1.59733,0.2926 2.01362,-0.7071 0.16146,-0.8528 -0.23206,-1.6683 -0.55697,-2.2745 -0.55951,-0.9573 -1.08502,-1.9826 -1.68419,-2.8773 -0.58731,-0.9411 -1.22556,-1.7867 -1.79325,-2.7618 -0.3617,-0.6437 -0.74289,-1.2291 -1.06051,-1.9349 0,0 0.35473,-0.4199 0.35473,-0.4199 l 0,0 c 0.30266,0.6854 0.67972,1.2369 1.02442,1.8641 0.55879,0.9662 1.19325,1.7944 1.77156,2.7269 0.60979,0.9177 1.15001,1.9574 1.71996,2.9377 0.46778,0.9004 0.91277,2.002 0.56475,3.1897 -0.60383,1.1077 -1.51035,0.999 -2.35402,0.9714 -0.87873,3e-4 -1.75747,8e-4 -2.63621,0 -0.88541,0 -1.7708,0.013 -2.65621,0.015 -0.80866,-0.01 -1.63054,0.03 -2.42442,-0.2551 -0.94055,-0.6223 -0.56605,-1.3626 -0.17476,-2.4404 0.40208,-0.9322 0.77633,-1.8857 1.14897,-2.8489 0.51218,-1.0675 0.9937,-2.1727 1.54237,-3.1941 0.62634,-1.2159 1.20223,-2.504 1.8769,-3.6536 0,0 0.35079,0.4286 0.35079,0.4286 z"
       inkscape:connector-curvature="0" />
    <path
       style="color:#000000;fill:#000000;fill-opacity:1;fill-rule:nonzero;stroke:#000000;stroke-width:0.07160219;stroke-linecap:butt;stroke-linejoin:miter;stroke-miterlimit:4;stroke-opacity:1;stroke-dasharray:none;stroke-dashoffset:0;marker:none;visibility:visible;display:inline;overflow:visible;enable-background:accumulate"
       id="path4102"
       d="m 330.46613,989.27381 c 0.94929,0 1.89859,0 2.84789,0 0.97477,0.01 1.61948,0.5158 2.29469,1.2814 0.58833,0.6923 1.01168,1.416 1.24337,2.3641 0.22057,1.0356 0.22303,1.9722 -0.17238,2.9323 -0.48334,0.897 -1.31829,1.0652 -2.14369,1.1803 -0.90861,0.096 -1.80894,0.1154 -2.70449,-0.098 -0.16496,-0.1213 -1.20737,-0.5042 -1.25925,-0.6795 -0.0489,-0.1652 0.0129,-0.3499 0.0194,-0.5248 0,0 0.35926,0.3585 0.35926,0.3585 l 0,0 c -0.0442,-0.1029 -0.14576,-0.1942 -0.13279,-0.3088 0.008,-0.072 0.0994,0.086 0.15444,0.1175 0.31009,0.1783 0.6401,0.3138 0.95138,0.4901 0.84683,0.2039 1.69843,0.1785 2.55816,0.091 0.65764,-0.089 1.36702,-0.1774 1.77719,-0.8732 0.36499,-0.8724 0.32609,-1.5827 0.14202,-2.5317 -0.20196,-0.8558 -0.58898,-1.4878 -1.11605,-2.1136 -0.58932,-0.6684 -1.11038,-1.1237 -1.97127,-1.1275 -0.9493,0 -1.8986,0 -2.8479,0 0,0 0,-0.5579 0,-0.5579 z"
       inkscape:connector-curvature="0" />
    <path
       style="color:#000000;fill:#000000;fill-opacity:1;fill-rule:nonzero;stroke:#000000;stroke-width:0.07160219;stroke-linecap:butt;stroke-linejoin:miter;stroke-miterlimit:4;stroke-opacity:1;stroke-dasharray:none;stroke-dashoffset:0;marker:none;visibility:visible;display:inline;overflow:visible;enable-background:accumulate"
       id="path4104"
       d="m 343.14465,988.94761 c -1.01657,0.026 -2.03751,-0.066 -3.0494,0.065 -0.78935,0.2238 -1.40491,0.7756 -1.95742,1.4577 -0.48932,0.748 -0.55467,1.6899 -0.61136,2.6015 -0.0381,1.0135 -0.15636,2.0436 0.33763,2.9238 0.97396,0.7753 2.27909,0.7048 3.40891,0.759 1.21517,0.024 2.43016,0.1156 3.63113,-0.1371 0.11254,-0.051 0.22508,-0.1009 0.33762,-0.1514 0,0 0.1609,0.524 0.1609,0.524 l 0,0 c -0.1391,0.059 -0.27821,0.1179 -0.41731,0.1769 -1.23466,0.2572 -2.48224,0.1746 -3.73132,0.1451 -1.27739,-0.062 -2.7563,0.015 -3.78535,-1.0168 -0.52276,-1.0123 -0.48015,-2.1106 -0.40973,-3.2651 0.0662,-1.0455 0.16359,-2.1064 0.7427,-2.9488 0.63368,-0.7701 1.33953,-1.3924 2.24396,-1.6237 1.0292,-0.1274 2.06541,-0.048 3.09904,-0.068 0,0 0,0.5579 0,0.5579 z"
       inkscape:connector-curvature="0" />
    <path
       style="color:#000000;fill:#000000;fill-opacity:1;fill-rule:nonzero;stroke:#000000;stroke-width:0.07920266;stroke-linecap:butt;stroke-linejoin:miter;stroke-miterlimit:4;stroke-opacity:1;stroke-dasharray:none;stroke-dashoffset:0;marker:none;visibility:visible;display:inline;overflow:visible;enable-background:accumulate"
       id="path4106"
       d="m 311.79865,997.11841 c 0.0494,0.94349 -0.1118,1.88579 -0.47279,2.78389 -0.3316,0.8372 -0.9176,1.5054 -1.88439,1.925 -0.17532,0.048 -0.3473,0.1046 -0.52597,0.1439 -0.58318,0.1283 -1.16397,0.1231 -1.75533,0.1925 -0.3563,0.08 -0.43499,0.082 -0.22226,0.064 0,0 -0.52358,-0.2842 -0.52358,-0.2842 l 0,0 c 0.7181,-0.5393 1.87327,-0.2016 2.73151,-0.563 0.83077,-0.3367 1.29414,-0.9352 1.57808,-1.6348 0.35218,-0.8445 0.48296,-1.7389 0.44153,-2.62709 0,0 0.6332,0 0.6332,0 z"
       inkscape:connector-curvature="0" />
    <path
       style="color:#000000;fill:#000000;fill-opacity:1;fill-rule:nonzero;stroke:#000000;stroke-width:0.1;stroke-linecap:butt;stroke-linejoin:miter;stroke-miterlimit:4;stroke-opacity:1;stroke-dasharray:none;stroke-dashoffset:0;marker:none;visibility:visible;display:inline;overflow:visible;enable-background:accumulate"
       id="path4108"
       d="m 355.25514,991.93026 c 1.61382,-0.37559 3.27365,-0.47534 4.92327,-0.5587 2.8894,-0.0999 5.7814,-0.0831 8.67207,-0.0856 3.25495,-0.001 6.5099,10e-4 9.76484,0.003 1.77254,10e-4 3.54508,10e-4 5.31761,0.002 0,0 -6e-5,0.71429 -6e-5,0.71429 l 0,0 c -1.77265,-1.5e-4 -3.54531,-4.1e-4 -5.31797,-0.002 -3.2546,-0.002 -6.50921,-0.004 -9.76382,-0.003 -2.87888,0.002 -5.75907,-0.0142 -8.6367,0.0847 -1.60336,0.0807 -3.21694,0.17561 -4.786,0.53827 0,0 -0.17324,-0.69295 -0.17324,-0.69295 z"
       inkscape:connector-curvature="0" />
    <path
       style="color:#000000;fill:#000000;fill-opacity:1;fill-rule:nonzero;stroke:#000000;stroke-width:0.1;stroke-linecap:butt;stroke-linejoin:miter;stroke-miterlimit:4;stroke-opacity:1;stroke-dasharray:none;stroke-dashoffset:0;marker:none;visibility:visible;display:inline;overflow:visible;enable-background:accumulate"
       id="path4110"
       d="m 370.4272,985.57646 c 1.94185,0.27256 3.89708,0.6932 5.72438,1.41659 1.99194,0.79348 3.93796,1.69172 5.92814,2.49279 1.21786,0.76101 2.99489,0.43718 4.1426,1.31638 0.1693,0.12969 0.26616,0.3333 0.39925,0.49996 -0.0206,0.25024 0.0268,0.51578 -0.0618,0.75071 -0.40668,1.07843 -2.68641,1.7939 -3.67633,2.13435 -1.57387,0.55673 -3.15657,1.10172 -4.7612,1.56466 -1.34499,0.51685 -2.74905,0.82007 -4.10599,1.29625 0,0 -0.23649,-0.674 -0.23649,-0.674 l 0,0 c 1.36988,-0.4806 2.78647,-0.78872 4.14473,-1.30862 1.59359,-0.45846 3.16452,-1.00169 4.72736,-1.55399 1.19928,-0.40956 2.51249,-0.8413 3.38034,-1.80583 -0.4654,-0.99786 -3.268,-0.94259 -4.21923,-1.55727 -1.98914,-0.80101 -3.93461,-1.69826 -5.92546,-2.49171 -1.74224,-0.69702 -3.61054,-1.08317 -5.4603,-1.36598 0,0 0,-0.71429 0,-0.71429 z"
       inkscape:connector-curvature="0" />
    <path
       style="color:#000000;fill:#000000;fill-opacity:1;fill-rule:nonzero;stroke:#000000;stroke-width:0.08946661;stroke-linecap:butt;stroke-linejoin:miter;stroke-miterlimit:4;stroke-opacity:1;stroke-dasharray:none;stroke-dashoffset:0;marker:none;visibility:visible;display:inline;overflow:visible;enable-background:accumulate"
       id="path4118"
       d="m 401.88749,987.10701 c -0.28338,-1.2117 -0.97736,-2.0196 -1.99071,-2.1009 -0.88011,0.194 -1.54516,0.7374 -2.19002,1.4642 -0.56333,0.7914 -0.92802,1.7497 -1.29259,2.6957 -0.46352,1.1945 -0.60645,2.5026 -0.69731,3.8091 -0.068,1.2557 -0.15742,2.5263 0.23952,3.7104 0.70845,0.8533 1.75248,0.9156 2.68268,1.0079 1.1199,0.018 2.25888,0.1653 3.37111,-0.038 0.82274,-0.1843 1.67284,-0.395 2.26454,-1.181 0.78914,-1.1857 1.08445,-2.7369 1.35161,-4.2086 0.20575,-1.3991 0.42076,-2.8473 0.0166,-4.2163 -0.33367,-1.1375 -1.20588,-1.6416 -2.00803,-2.1658 -0.63248,-0.5299 -1.31101,-0.9291 -2.02533,-1.2481 0,0 0.19356,-0.6721 0.19356,-0.6721 l 0,0 c 0.73741,0.3334 1.44351,0.7378 2.09682,1.2873 0.93472,0.6111 1.89889,1.2379 2.28213,2.561 0.41262,1.5137 0.25299,3.0686 0.002,4.6124 -0.29258,1.602 -0.62631,3.2761 -1.50199,4.5517 -0.71107,0.8709 -1.62214,1.19989 -2.59195,1.38679 -1.1562,0.1964 -2.33321,0.076 -3.49648,0.043 -1.15177,-0.1163 -2.39876,-0.2371 -3.16733,-1.45289 -0.40746,-1.3031 -0.37444,-2.6615 -0.27877,-4.0395 0.0979,-1.3925 0.25699,-2.7847 0.75177,-4.0569 0.39662,-1.0285 0.79959,-2.0682 1.42475,-2.9162 0.76278,-0.8595 1.57889,-1.4863 2.6262,-1.6449 1.25122,0.1791 2.14079,1.0983 2.49214,2.6388 0,0 -0.55467,0.1732 -0.55467,0.1732 z"
       inkscape:connector-curvature="0" />
    <path
       style="color:#000000;fill:#000000;fill-opacity:1;fill-rule:nonzero;stroke:#000000;stroke-width:0.08210286;stroke-linecap:butt;stroke-linejoin:miter;stroke-miterlimit:4;stroke-opacity:1;stroke-dasharray:none;stroke-dashoffset:0;marker:none;visibility:visible;display:inline;overflow:visible;enable-background:accumulate"
       id="path4120"
       d="m 406.43556,982.75292 c -0.77929,0.93035 -1.56582,1.86136 -2.25756,2.85012 -0.74299,1.01849 -1.59132,1.97544 -2.22755,3.05599 -0.645,1.13584 -1.26367,2.28345 -1.94295,3.40238 -0.63495,1.1925 -1.50827,2.25155 -2.3262,3.33855 -0.65797,1.0869 -1.3458,2.17211 -1.89733,3.31077 -0.43833,0.74437 -0.82027,1.51047 -1.24169,2.26267 0,0 -0.54189,-0.2591 -0.54189,-0.2591 l 0,0 c 0.41635,-0.74271 0.79279,-1.49972 1.22686,-2.23429 0.56946,-1.16934 1.27115,-2.2873 1.953,-3.40173 0.80688,-1.07224 1.6695,-2.11618 2.29521,-3.29285 0.6797,-1.11623 1.29436,-2.26333 1.93951,-3.39663 0.64792,-1.09093 1.49361,-2.06506 2.25083,-3.0921 0.7168,-1.02057 1.52447,-1.98695 2.33829,-2.94233 0,0 0.43147,0.39855 0.43147,0.39855 z"
       inkscape:connector-curvature="0" />
  </g>
</svg>
