<?xml version="1.0" encoding="UTF-8" standalone="no"?>
<!-- Created with Inkscape (http://www.inkscape.org/) -->

<svg
   xmlns:osb="http://www.openswatchbook.org/uri/2009/osb"
   xmlns:dc="http://purl.org/dc/elements/1.1/"
   xmlns:cc="http://creativecommons.org/ns#"
   xmlns:rdf="http://www.w3.org/1999/02/22-rdf-syntax-ns#"
   xmlns:svg="http://www.w3.org/2000/svg"
   xmlns="http://www.w3.org/2000/svg"
   xmlns:sodipodi="http://sodipodi.sourceforge.net/DTD/sodipodi-0.dtd"
   xmlns:inkscape="http://www.inkscape.org/namespaces/inkscape"
   id="svg3036"
   version="1.1"
   inkscape:version="0.48.3.1 r9886"
   width="600"
   height="400"
   sodipodi:docname="convection_spectrum_3.png">
  <metadata
     id="metadata3042">
    <rdf:RDF>
      <cc:Work
         rdf:about="">
        <dc:format>image/svg+xml</dc:format>
        <dc:type
           rdf:resource="http://purl.org/dc/dcmitype/StillImage" />
        <dc:title></dc:title>
      </cc:Work>
    </rdf:RDF>
  </metadata>
  <defs
     id="defs3040">
    <linearGradient
       id="linearGradient6310">
      <stop
         style="stop-color:#000000;stop-opacity:1;"
         offset="0"
         id="stop6312" />
      <stop
         style="stop-color:#000000;stop-opacity:0;"
         offset="1"
         id="stop6314" />
    </linearGradient>
    <linearGradient
       id="linearGradient6292"
       osb:paint="solid">
      <stop
         style="stop-color:#ffffff;stop-opacity:1;"
         offset="0"
         id="stop6294" />
    </linearGradient>
    <linearGradient
       id="linearGradient4823"
       osb:paint="solid">
      <stop
         style="stop-color:#000000;stop-opacity:1;"
         offset="0"
         id="stop4825" />
    </linearGradient>
  </defs>
  <sodipodi:namedview
     pagecolor="#ffffff"
     bordercolor="#666666"
     borderopacity="1"
     objecttolerance="10"
     gridtolerance="10"
     guidetolerance="10"
     inkscape:pageopacity="0"
     inkscape:pageshadow="2"
     inkscape:window-width="1008"
     inkscape:window-height="728"
     id="namedview3038"
     showgrid="false"
     inkscape:zoom="0.83"
     inkscape:cx="357.5364"
     inkscape:cy="244.65295"
     inkscape:window-x="0"
     inkscape:window-y="31"
     inkscape:window-maximized="1"
     inkscape:current-layer="svg3036"
     showguides="true"
     inkscape:guide-bbox="true">
    <inkscape:grid
       type="xygrid"
       id="grid5981"
       empspacing="5"
       visible="true"
       enabled="true"
       snapvisiblegridlinesonly="true" />
  </sodipodi:namedview>
  <path
     style="fill:none;stroke:#000000;stroke-width:0.79302788px;stroke-linecap:butt;stroke-linejoin:miter;stroke-opacity:1"
     d="m 12.831419,205.63855 403.097841,2.40964"
     id="path6335"
     inkscape:connector-curvature="0" />
  <path
     style="fill:none;stroke:#000000;stroke-width:0.78571099px;stroke-linecap:butt;stroke-linejoin:miter;stroke-opacity:1"
     d="M 267.06024,369.60452 269.46988,30.438456"
     id="path6337"
     inkscape:connector-curvature="0" />
  <path
     style="color:#000000;fill:#000000;fill-opacity:1;fill-rule:nonzero;stroke:none;stroke-width:1.27100003;marker:none;visibility:visible;display:inline;overflow:visible;enable-background:accumulate"
     id="path6381"
     d="m 271.35543,26.968416 c -1.22411,3.99788 -2.74268,7.89504 -4.12992,11.83812 -1.6633,4.5 -3.10305,9.077 -4.67887,13.60795 0,0 -1.13796,-0.39578 -1.13796,-0.39578 l 0,0 c 1.57632,-4.53228 3.01645,-9.11067 4.68029,-13.61202 1.3929,-3.95914 2.91551,-7.87253 4.14781,-11.88573 0,0 1.11865,0.44746 1.11865,0.44746 z"
     inkscape:connector-curvature="0" />
  <path
     style="color:#000000;fill:#000000;fill-opacity:1;fill-rule:nonzero;stroke:none;stroke-width:1.27100003;marker:none;visibility:visible;display:inline;overflow:visible;enable-background:accumulate"
     id="path6383"
     d="m 270.61435,26.626546 c 0.87905,4.02698 2.15752,7.9226 3.64137,11.76302 1.59543,4.57523 3.33449,9.0962 5.09936,13.60757 0.24509,0.56025 0.49019,1.12049 0.73528,1.68073 0,0 -1.10394,0.48262 -1.10394,0.48262 l 0,0 c -0.25112,-0.57481 -0.50224,-1.14963 -0.75336,-1.72442 -1.76542,-4.51301 -3.50566,-9.03542 -5.10125,-13.61242 -1.50761,-3.90494 -2.80588,-7.86648 -3.69888,-11.96082 0,0 1.18142,-0.23629 1.18142,-0.23629 z"
     inkscape:connector-curvature="0" />
  <path
     style="color:#000000;fill:#000000;fill-opacity:1;fill-rule:nonzero;stroke:none;stroke-width:1.27100003;marker:none;visibility:visible;display:inline;overflow:visible;enable-background:accumulate"
     id="path6385"
     d="m 392.40499,198.34858 c 2.7803,0.37552 5.48249,1.13298 8.23686,1.64953 2.56636,0.70158 5.16667,1.238 7.72985,1.94768 2.31729,0.66401 4.71569,0.87943 7.11204,1.00324 1.07138,-0.059 2.09768,0.14666 3.11742,0.4394 0,0 -0.33953,1.15598 -0.33953,1.15598 l 0,0 c -0.92851,-0.28037 -1.86066,-0.44939 -2.84027,-0.39218 -2.48391,-0.12921 -4.96934,-0.35724 -7.37116,-1.0453 -2.53049,-0.70066 -5.09799,-1.22812 -7.63066,-1.92468 -2.75898,-0.51853 -5.46592,-1.27505 -8.25083,-1.65224 0,0 0.23628,-1.18143 0.23628,-1.18143 z"
     inkscape:connector-curvature="0" />
  <path
     style="color:#000000;fill:#000000;fill-opacity:1;fill-rule:nonzero;stroke:none;stroke-width:1.27100003;marker:none;visibility:visible;display:inline;overflow:visible;enable-background:accumulate"
     id="path6387"
     d="m 388.71747,213.7195 c 3.11946,-0.70662 6.16513,-1.6864 9.2688,-2.44812 2.94122,-0.5847 5.84818,-1.32993 8.71863,-2.19421 2.45821,-0.95225 4.89002,-1.96795 7.32026,-2.98924 1.18634,-0.53416 2.43402,-0.88118 3.68802,-1.20906 0,0 0.30364,1.16593 0.30364,1.16593 l 0,0 c -1.19925,0.31098 -2.39161,0.64247 -3.52526,1.15401 -2.46974,1.03595 -4.93832,2.0733 -7.4393,3.03202 -2.89048,0.87029 -5.8177,1.62154 -8.77929,2.21076 -3.13338,0.76632 -6.2063,1.76233 -9.35742,2.46633 0,0 -0.19808,-1.18842 -0.19808,-1.18842 z"
     inkscape:connector-curvature="0" />
  <path
     style="color:#000000;fill:#000000;fill-opacity:1;fill-rule:nonzero;stroke:none;stroke-width:1.27100003;marker:none;visibility:visible;display:inline;overflow:visible;enable-background:accumulate"
     id="path6389"
     d="m 298.04046,13.734827 c -0.57697,4.02924 -0.76906,8.100849 -0.91736,12.164419 -0.12686,4.36978 -0.13611,8.74184 -0.14315,13.11312 -7e-4,2.1901 -8.1e-4,1.11901 2.2e-4,3.21329 0,0 -1.20482,5.9e-4 -1.20482,5.9e-4 l 0,0 c -10e-4,-2.09578 -9.1e-4,-1.02384 -2.2e-4,-3.21582 0.007,-4.38529 0.0164,-8.77137 0.14396,-13.15515 0.1504,-4.11516 0.34588,-8.238479 0.93294,-12.318519 0,0 1.18843,0.19807 1.18843,0.19807 z"
     inkscape:connector-curvature="0" />
  <path
     style="color:#000000;fill:#000000;fill-opacity:1;fill-rule:nonzero;stroke:none;stroke-width:1.27100003;marker:none;visibility:visible;display:inline;overflow:visible;enable-background:accumulate"
     id="path6391"
     d="m 301.80723,27.949506 c 0,3.08702 0,6.17404 0,9.26106 0,0.99477 0,1.98953 0,2.9843 0,0.27859 0,0.55718 0,0.83578 0,0.11741 0.10523,0.40435 0,0.35225 -1.41296,-0.69962 -1.06915,-0.76548 -0.85244,-1.98303 0.73862,-3.56416 2.30061,-6.87305 3.75358,-10.18634 1.00639,-2.61412 2.61131,-3.81534 3.03686,-0.0814 0.15422,2.7842 0.12055,5.57497 0.11164,8.36228 0.40062,2.81524 0.52332,2.11676 1.64979,0.62399 1.64893,-2.62086 3.09826,-5.37125 4.85959,-7.919 2.35194,-2.74694 3.18305,1.68948 3.70123,3.3914 0.9059,3.54027 1.87179,7.0478 3.50672,10.32611 0.29237,0.43795 0.58475,0.87591 0.87713,1.31386 0,0 -1.004,0.666 -1.004,0.666 l 0,0 c -0.31731,-0.48112 -0.63462,-0.96226 -0.95192,-1.4434 -1.65733,-3.3417 -2.66683,-6.90326 -3.58054,-10.51173 -0.26825,-0.88151 -0.49026,-1.7771 -0.77602,-2.65309 -0.0765,-0.23439 -0.25293,-0.43946 -0.2804,-0.68449 -0.0241,-0.21447 0.64126,-0.93032 -0.50179,0.2814 -1.78005,2.56434 -3.22075,5.34936 -4.90321,7.97804 -2.10284,2.58938 -3.59484,1.73967 -3.80139,-1.37294 0.009,-2.74233 0.0406,-5.48779 -0.10449,-8.22728 -0.0894,-0.85703 -0.45664,-1.27909 0.45468,-1.50945 0.0686,-0.0173 -0.14629,0.0378 -0.19087,0.0927 -0.39417,0.48561 -0.755,1.34646 -0.99962,1.85083 -1.41483,3.22613 -2.94174,6.44576 -3.6708,9.91363 -0.22408,1.25842 0.0604,1.41882 -1.53855,1.77187 -0.11466,0.0253 0,-0.23485 0,-0.35225 0,-0.27861 0,-0.5572 0,-0.83578 0,-0.99478 0,-1.98953 0,-2.9843 0,-3.08703 0,-6.17405 0,-9.26107 0,0 1.20482,0 1.20482,0 z"
     inkscape:connector-curvature="0" />
  <path
     style="color:#000000;fill:#000000;fill-opacity:1;fill-rule:nonzero;stroke:none;stroke-width:1.27100003;marker:none;visibility:visible;display:inline;overflow:visible;enable-background:accumulate"
     id="path6395"
     d="m 439.00081,192.40499 c -0.71462,3.51153 -1.41604,7.02572 -2.1421,10.53628 -0.62611,3.26124 -1.4702,6.47127 -2.12954,9.72681 -0.0552,0.21981 0.0556,0.6097 -0.16547,0.65943 -0.4331,0.0974 -0.96818,-0.026 -1.28968,-0.33212 -0.26081,-0.24833 -0.18398,-4.83517 -0.18546,-5.31408 -0.12306,-3.97454 0.47683,-7.85493 1.98545,-11.52814 1.53044,-3.3006 4.29493,-5.60957 7.42952,-7.31364 2.70516,-1.32937 5.28725,-1.45538 7.7431,0.36779 1.72741,1.95449 1.85772,3.62544 0.089,5.54197 -1.87947,1.55589 -4.2751,1.88704 -6.62155,2.11895 -2.0511,0.12082 -3.74524,0.0578 -3.61298,2.51481 0.85675,3.12157 2.87843,5.75995 4.70996,8.37406 1.78315,2.39607 3.72959,4.93094 6.61164,6.00007 0,0 -0.43031,1.12536 -0.43031,1.12536 l 0,0 c -3.09651,-1.21317 -5.25694,-3.79333 -7.16814,-6.43421 -1.96745,-2.80949 -4.15904,-5.65548 -4.92796,-9.06165 0.0991,-3.27811 1.81516,-3.56187 4.70014,-3.7175 2.05275,-0.19984 4.18095,-0.44664 5.86569,-1.74969 1.28856,-1.3046 1.24579,-2.30145 0.0509,-3.75646 -2.00727,-1.60989 -4.19453,-1.33943 -6.43652,-0.26364 -2.89602,1.556 -5.46464,3.68135 -6.88887,6.71362 -1.46193,3.5202 -2.0077,7.25286 -1.89425,11.06461 0.004,1.39985 -0.004,2.80051 0.066,4.19912 0.0119,0.23825 0.20225,0.5307 0.0495,0.71394 -0.23601,0.28314 -0.65118,0.51056 -1.01344,0.44246 -0.20418,-0.0384 0.10196,-0.40281 0.15293,-0.60422 0.6597,-3.25721 1.50369,-6.46892 2.13055,-9.73169 0.72561,-3.50795 1.42742,-7.01941 2.14052,-10.52852 0,0 1.18142,0.23628 1.18142,0.23628 z"
     inkscape:connector-curvature="0" />
  <path
     style="color:#000000;fill:#000000;fill-opacity:1;fill-rule:nonzero;stroke:none;stroke-width:1.27100003;marker:none;visibility:visible;display:inline;overflow:visible;enable-background:accumulate"
     id="path6397"
     d="m 453.73263,204.21686 c 2.82369,-0.30658 5.66406,-0.57403 8.3197,-1.63422 1.67335,-1.07282 2.06559,-1.79737 0.10017,-2.51168 -2.69115,-0.73681 -5.39535,-0.76493 -7.98306,0.29393 -1.9731,1.18659 -2.78507,3.08176 -2.39365,5.30379 1.48109,2.423 4.5561,3.21344 7.14798,3.86922 2.69784,0.4413 5.15759,-0.0365 7.61071,-1.14124 0,0 0.49063,1.10039 0.49063,1.10039 l 0,0 c -2.71049,1.19761 -5.43037,1.72138 -8.3982,1.20853 -3.06853,-0.78366 -6.56763,-1.77769 -8.04147,-4.85075 -0.39672,-2.80898 0.60351,-5.16533 3.1365,-6.60856 2.8989,-1.13718 5.90197,-1.16417 8.89725,-0.28607 2.92484,1.34046 2.44406,3.25431 -0.12507,4.74333 -2.80463,1.0929 -5.78079,1.42833 -8.76149,1.71815 0,0 0,-1.20482 0,-1.20482 z"
     inkscape:connector-curvature="0" />
  <path
     sodipodi:type="arc"
     style="color:#000000;fill:none;stroke:#000000;stroke-width:1.27100003;stroke-opacity:1;marker:none;visibility:visible;display:inline;overflow:visible;enable-background:accumulate"
     id="path6471"
     sodipodi:cx="568.07227"
     sodipodi:cy="321.68674"
     sodipodi:rx="64.457832"
     sodipodi:ry="64.457832"
     d="m 632.5301,321.68674 a 64.457832,64.457832 0 1 1 -128.91567,0 64.457832,64.457832 0 1 1 128.91567,0 z"
     transform="matrix(1.498031,0,0,1.4712914,-681.40103,-268.00139)" />
  <path
     style="fill:none;stroke:#000000;stroke-width:0.7516169px;stroke-linecap:butt;stroke-linejoin:miter;stroke-opacity:1"
     d="m 163.6816,206.07628 70.22717,-65.11103"
     id="path6475"
     inkscape:connector-curvature="0" />
  <path
     style="color:#000000;fill:#000000;fill-opacity:1;fill-rule:nonzero;stroke:none;stroke-width:1.27100003;marker:none;visibility:visible;display:inline;overflow:visible;enable-background:accumulate"
     id="path6461-9"
     d="m 233.04192,139.08669 c 0.77688,1.87111 0.75667,3.96764 0.69461,6.08286 -0.20893,2.44526 -0.35631,4.88351 -0.60508,7.33551 -0.0507,2.05091 -0.0514,4.10067 0.25396,6.06495 0.0179,0.88625 0.0941,1.75783 0.13434,2.63852 0,0 0.95594,-0.22946 0.95594,-0.22946 l 0,0 c -0.0418,-0.90202 -0.11639,-1.79569 -0.14073,-2.7021 -0.30051,-1.91298 -0.29299,-3.9118 -0.25024,-5.90857 0.24936,-2.46741 0.39949,-4.92134 0.60812,-7.38185 0.0647,-2.2127 0.0706,-4.40421 -0.75373,-6.35592 0,0 -0.89719,0.45606 -0.89719,0.45606 z"
     inkscape:connector-curvature="0" />
  <path
     style="color:#000000;fill:#000000;fill-opacity:1;fill-rule:nonzero;stroke:#000000;stroke-width:0.0793299;stroke-linecap:butt;stroke-linejoin:miter;stroke-miterlimit:4;stroke-opacity:1;stroke-dasharray:none;stroke-dashoffset:0;marker:none;visibility:visible;display:inline;overflow:visible;enable-background:accumulate"
     id="path3263"
     d="m 218.35854,140.30481 c 1.88176,0 3.76352,0 5.64527,0 1.62057,0 3.24115,0 4.86172,0 1.20601,0 2.41202,0 3.61804,0 0,0 0,1.35575 0,1.35575 l 0,0 c -1.20602,0 -2.41203,0 -3.61804,0 -1.62057,0 -3.24115,0 -4.86172,0 -1.88175,0 -3.76351,0 -5.64527,0 0,0 0,-1.35575 0,-1.35575 z"
     inkscape:connector-curvature="0" />
  <path
     style="color:#000000;fill:#00000e;fill-opacity:1;fill-rule:nonzero;stroke:none;stroke-width:1.00699997;marker:none;visibility:visible;display:inline;overflow:visible;enable-background:accumulate"
     id="path4063"
     d="m 145.38146,229.81374 c 4.60084,-0.98825 9.19819,-2.00287 13.80115,-2.97772 2.34561,-0.51416 4.71164,-0.8524 7.07818,-1.17674 0,0 0.10849,1.19741 0.10849,1.19741 l 0,0 c -2.34722,0.32139 -4.69394,0.65661 -7.02037,1.16667 -4.61222,0.97662 -9.21867,1.99379 -13.82888,2.98309 0,0 -0.13857,-1.19271 -0.13857,-1.19271 z"
     inkscape:connector-curvature="0" />
  <path
     style="color:#000000;fill:#00000e;fill-opacity:1;fill-rule:nonzero;stroke:none;stroke-width:3;marker:none;visibility:visible;display:inline;overflow:visible;enable-background:accumulate"
     id="path3593"
     d="m 175.02841,219.46976 c -0.49156,3.01365 -0.74801,6.05704 -0.9179,9.10354 -0.12604,2.59523 -0.1363,5.194 -0.14261,7.79169 -7.1e-4,1.61757 -7.9e-4,0.80989 2.2e-4,2.42303 0,0 -1.20482,7.5e-4 -1.20482,7.5e-4 l 0,0 c -10e-4,-1.61522 -9.3e-4,-0.80632 -2.2e-4,-2.42671 0.006,-2.6191 0.017,-5.2393 0.14449,-7.85592 0.17269,-3.09033 0.43334,-6.17749 0.93241,-9.23445 0,0 1.18843,0.19807 1.18843,0.19807 z"
     inkscape:connector-curvature="0" />
  <path
     style="color:#000000;fill:#00000e;fill-opacity:1;fill-rule:nonzero;stroke:none;stroke-width:3;marker:none;visibility:visible;display:inline;overflow:visible;enable-background:accumulate"
     id="path3595"
     d="m 338.44815,23.988474 c -2.5044,3.263918 -4.19329,6.986125 -5.30358,10.92395 -0.66181,5.146738 1.14149,8.55003 4.611,12.152539 2.11766,1.713834 1.03767,0.949159 3.22454,2.315679 0,0 -0.64088,1.020226 -0.64088,1.020226 l 0,0 c -2.34632,-1.48111 -1.18992,-0.654295 -3.45349,-2.50225 -3.76739,-3.948776 -5.67652,-7.714414 -4.90044,-13.314355 1.16214,-4.089934 2.9138,-7.959652 5.52205,-11.348434 0,0 0.9408,0.752645 0.9408,0.752645 z"
     inkscape:connector-curvature="0" />
  <path
     style="color:#000000;fill:#00000e;fill-opacity:1;fill-rule:nonzero;stroke:none;stroke-width:3;marker:none;visibility:visible;display:inline;overflow:visible;enable-background:accumulate"
     id="path3597"
     d="m 347.85265,43.975903 c 2.83486,-0.136988 5.76222,0.394918 8.50827,-0.461627 1.39531,-0.643017 0.96513,-1.837398 0.44331,-2.974178 -0.89913,-1.90639 -2.21781,-3.557228 -3.13532,-5.460116 -1.04131,-2.403148 -0.72458,-4.738469 0.79253,-6.813286 1.79825,-1.794387 4.25181,-2.104636 6.66478,-2.309836 2.88283,0.15511 4.51131,0.573483 4.68362,3.78969 -0.0915,2.625056 -1.62973,4.63288 -3.16253,6.61853 -0.22745,0.43776 -2.08458,1.64474 -1.69209,2.335488 0.0744,0.130888 0.29956,0.0371 0.44556,0.07381 2.16493,0.623247 4.3892,0.149908 6.56745,-0.128812 2.0001,-0.262482 4.01114,-0.41485 6.02363,-0.539394 0,0 0.0743,1.202524 0.0743,1.202524 l 0,0 c -1.98625,0.122648 -3.97105,0.272901 -5.94505,0.531945 -2.43025,0.310963 -4.92918,0.82442 -7.31354,-0.01758 -2.14743,-1.481254 -0.39283,-2.847458 0.88599,-4.19421 1.35925,-1.76071 2.79287,-3.522687 2.91187,-5.849287 0.026,-2.52902 -1.16862,-2.39337 -3.37811,-2.622138 -2.05818,0.17167 -4.21031,0.373334 -5.80299,1.83339 -1.29863,1.665658 -1.50601,3.606733 -0.66909,5.568209 0.91376,1.917049 2.27123,3.561659 3.15056,5.493179 0.78862,1.831956 0.94366,3.703104 -1.1978,4.615804 -2.88126,0.840739 -5.88716,0.431601 -8.85539,0.512714 0,0 0,-1.204819 0,-1.204819 z"
     inkscape:connector-curvature="0" />
  <path
     style="color:#000000;fill:#00000e;fill-opacity:1;fill-rule:nonzero;stroke:none;stroke-width:3;marker:none;visibility:visible;display:inline;overflow:visible;enable-background:accumulate"
     id="path3605"
     d="m 385.4361,27.602932 c -2.42104,2.651846 -4.76602,5.37181 -7.19847,8.014744 -0.41307,0.605402 -5.3468,4.861796 -4.72267,5.403379 0.0156,-0.09734 -0.0449,-0.255701 0.0467,-0.292023 0.38213,-0.151453 5.56419,-0.159428 6.31566,-0.187156 3.11645,-0.167899 6.20396,-0.20513 9.30196,0.176745 1.14409,-0.107085 3.03486,0.72018 2.7008,-0.961708 -1.18994,-2.006503 -2.2784,-4.081776 -3.42943,-6.11645 -1.04631,-2.010557 -1.91861,-4.130757 -2.67435,-6.269786 -0.12708,-0.259992 -0.25416,-0.519983 -0.38124,-0.779974 0,0 1.08472,-0.524385 1.08472,-0.524385 l 0,0 c 0.14432,0.301422 0.28864,0.602845 0.43297,0.904267 0.72743,2.074225 1.57878,4.127134 2.58702,6.077485 1.22294,2.169644 2.4819,4.346757 3.5769,6.568234 0.19517,2.537088 -2.0823,2.475325 -4.04513,2.298044 -3.03392,-0.375791 -6.05737,-0.330968 -9.1098,-0.168472 -1.41597,0.05223 -5.72249,0.556228 -6.89819,0.06113 -0.2991,-0.125954 -0.47181,-0.445752 -0.70771,-0.668628 0.0672,-2.790234 3.60163,-4.26406 5.03526,-6.336621 2.4137,-2.622391 4.74005,-5.321975 7.14417,-7.951471 0,0 0.9408,0.752645 0.9408,0.752645 z"
     inkscape:connector-curvature="0" />
  <path
     style="color:#000000;fill:#00000e;fill-opacity:1;fill-rule:nonzero;stroke:none;stroke-width:3;marker:none;visibility:visible;display:inline;overflow:visible;enable-background:accumulate"
     id="path3607"
     d="m 396.83564,26.264943 c -0.90626,3.28386 -1.50182,6.636181 -1.90774,10.015015 -0.11539,2.810416 0.77457,4.320737 3.26368,5.52244 2.75085,0.931415 5.64152,0.863776 8.49365,0.641347 0,0 0.093,1.201227 0.093,1.201227 l 0,0 c -3.06807,0.235723 -6.17775,0.288232 -9.12174,-0.763112 -2.94851,-1.493625 -4.07847,-3.397444 -3.92476,-6.745804 0.40912,-3.396349 0.9993,-6.769257 1.9155,-10.069184 0,0 1.18843,0.198071 1.18843,0.198071 z"
     inkscape:connector-curvature="0" />
  <path
     style="color:#000000;fill:#00000e;fill-opacity:1;fill-rule:nonzero;stroke:none;stroke-width:3;marker:none;visibility:visible;display:inline;overflow:visible;enable-background:accumulate"
     id="path3609"
     d="m 391.22615,33.13253 c 3.85697,0 7.71394,0 11.57092,0 2.38877,-0.01104 4.77209,0.07885 7.15194,-0.141638 0,0 0.10921,1.19986 0.10921,1.19986 l 0,0 c -2.41699,0.216315 -4.83541,0.144072 -7.26115,0.146597 -3.85698,0 -7.71395,0 -11.57092,0 0,0 0,-1.204819 0,-1.204819 z"
     inkscape:connector-curvature="0" />
  <path
     style="color:#000000;fill:#00000e;fill-opacity:1;fill-rule:nonzero;stroke:none;stroke-width:3;marker:none;visibility:visible;display:inline;overflow:visible;enable-background:accumulate"
     id="path3611"
     d="m 405.8498,17.988078 c 3.89269,2.294119 6.2371,6.140123 7.99919,10.17138 2.13348,5.749718 1.64675,10.279904 -0.61628,15.844494 -1.34939,2.808634 -3.55035,4.943487 -5.79578,7.028394 0,0 -0.8194,-0.88327 -0.8194,-0.88327 l 0,0 c 2.11806,-1.963126 4.21065,-3.962844 5.49988,-6.60087 2.15136,-5.23833 2.62947,-9.480422 0.62667,-14.908381 -1.64536,-3.806421 -3.8474,-7.452347 -7.51415,-9.618622 0,0 0.61987,-1.033125 0.61987,-1.033125 z"
     inkscape:connector-curvature="0" />
  <path
     style="color:#000000;fill:#00000e;fill-opacity:1;fill-rule:nonzero;stroke:none;stroke-width:3;marker:none;visibility:visible;display:inline;overflow:visible;enable-background:accumulate"
     id="path3595-9"
     d="m 481.80073,191.8879 c -2.5044,3.26391 -4.19329,6.98612 -5.30358,10.92395 -0.66181,5.14673 1.14149,8.55003 4.611,12.15254 2.11766,1.71383 1.03767,0.94915 3.22454,2.31567 0,0 -0.64088,1.02023 -0.64088,1.02023 l 0,0 c -2.34632,-1.48111 -1.18992,-0.65429 -3.45349,-2.50225 -3.76739,-3.94878 -5.67652,-7.71441 -4.90044,-13.31435 1.16214,-4.08994 2.9138,-7.95966 5.52205,-11.34844 0,0 0.9408,0.75265 0.9408,0.75265 z"
     inkscape:connector-curvature="0" />
  <path
     style="color:#000000;fill:#00000e;fill-opacity:1;fill-rule:nonzero;stroke:none;stroke-width:3;marker:none;visibility:visible;display:inline;overflow:visible;enable-background:accumulate"
     id="path3597-7"
     d="m 491.20523,211.87533 c 2.83486,-0.13699 5.76222,0.39491 8.50827,-0.46163 1.39531,-0.64302 0.96513,-1.8374 0.44331,-2.97418 -0.89913,-1.90639 -2.21781,-3.55723 -3.13532,-5.46012 -1.04131,-2.40314 -0.72458,-4.73846 0.79253,-6.81328 1.79825,-1.79439 4.25181,-2.10464 6.66478,-2.30984 2.88283,0.15511 4.51131,0.57349 4.68362,3.78969 -0.0915,2.62506 -1.62973,4.63288 -3.16253,6.61853 -0.22745,0.43776 -2.08458,1.64474 -1.69209,2.33549 0.0744,0.13089 0.29956,0.0371 0.44556,0.0738 2.16493,0.62325 4.3892,0.14991 6.56745,-0.12881 2.0001,-0.26248 4.01114,-0.41485 6.02363,-0.5394 0,0 0.0743,1.20253 0.0743,1.20253 l 0,0 c -1.98625,0.12265 -3.97105,0.2729 -5.94505,0.53194 -2.43025,0.31097 -4.92918,0.82442 -7.31354,-0.0176 -2.14743,-1.48125 -0.39283,-2.84745 0.88599,-4.19421 1.35925,-1.76071 2.79287,-3.52268 2.91187,-5.84928 0.026,-2.52902 -1.16862,-2.39337 -3.37811,-2.62214 -2.05818,0.17167 -4.21031,0.37333 -5.80299,1.83339 -1.29863,1.66566 -1.50601,3.60673 -0.66909,5.56821 0.91376,1.91705 2.27123,3.56166 3.15056,5.49318 0.78862,1.83195 0.94366,3.7031 -1.1978,4.6158 -2.88126,0.84074 -5.88716,0.4316 -8.85539,0.51271 0,0 0,-1.20481 0,-1.20481 z"
     inkscape:connector-curvature="0" />
  <path
     style="color:#000000;fill:#00000e;fill-opacity:1;fill-rule:nonzero;stroke:none;stroke-width:3;marker:none;visibility:visible;display:inline;overflow:visible;enable-background:accumulate"
     id="path3605-6"
     d="m 528.78868,195.50235 c -2.42104,2.65185 -4.76602,5.37181 -7.19847,8.01475 -0.41307,0.6054 -5.3468,4.86179 -4.72267,5.40338 0.0156,-0.0973 -0.0449,-0.2557 0.0467,-0.29203 0.38213,-0.15145 5.56419,-0.15942 6.31566,-0.18715 3.11645,-0.1679 6.20396,-0.20513 9.30196,0.17674 1.14409,-0.10708 3.03486,0.72018 2.7008,-0.9617 -1.18994,-2.00651 -2.2784,-4.08178 -3.42943,-6.11645 -1.04631,-2.01056 -1.91861,-4.13076 -2.67435,-6.26979 -0.12708,-0.25999 -0.25416,-0.51998 -0.38124,-0.77997 0,0 1.08472,-0.52439 1.08472,-0.52439 l 0,0 c 0.14432,0.30142 0.28864,0.60285 0.43297,0.90427 0.72743,2.07422 1.57878,4.12713 2.58702,6.07748 1.22294,2.16965 2.4819,4.34676 3.5769,6.56824 0.19517,2.53708 -2.0823,2.47532 -4.04513,2.29804 -3.03392,-0.37579 -6.05737,-0.33097 -9.1098,-0.16847 -1.41597,0.0522 -5.72249,0.55623 -6.89819,0.0611 -0.2991,-0.12596 -0.47181,-0.44575 -0.70771,-0.66863 0.0672,-2.79023 3.60163,-4.26406 5.03526,-6.33662 2.4137,-2.62239 4.74005,-5.32198 7.14417,-7.95147 0,0 0.9408,0.75264 0.9408,0.75264 z"
     inkscape:connector-curvature="0" />
  <path
     style="color:#000000;fill:#00000e;fill-opacity:1;fill-rule:nonzero;stroke:none;stroke-width:3;marker:none;visibility:visible;display:inline;overflow:visible;enable-background:accumulate"
     id="path3607-2"
     d="m 540.18822,194.16437 c -0.90626,3.28386 -1.50182,6.63618 -1.90774,10.01501 -0.11539,2.81042 0.77457,4.32074 3.26368,5.52244 2.75085,0.93142 5.64152,0.86378 8.49365,0.64135 0,0 0.093,1.20122 0.093,1.20122 l 0,0 c -3.06807,0.23573 -6.17775,0.28824 -9.12174,-0.76311 -2.94851,-1.49362 -4.07847,-3.39744 -3.92476,-6.7458 0.40912,-3.39635 0.9993,-6.76926 1.9155,-10.06919 0,0 1.18843,0.19808 1.18843,0.19808 z"
     inkscape:connector-curvature="0" />
  <path
     style="color:#000000;fill:#00000e;fill-opacity:1;fill-rule:nonzero;stroke:none;stroke-width:3;marker:none;visibility:visible;display:inline;overflow:visible;enable-background:accumulate"
     id="path3609-8"
     d="m 534.57873,201.03195 c 3.85697,0 7.71394,0 11.57092,0 2.38877,-0.011 4.77209,0.0788 7.15194,-0.14164 0,0 0.10921,1.19986 0.10921,1.19986 l 0,0 c -2.41699,0.21632 -4.83541,0.14408 -7.26115,0.1466 -3.85698,0 -7.71395,0 -11.57092,0 0,0 0,-1.20482 0,-1.20482 z"
     inkscape:connector-curvature="0" />
  <path
     style="color:#000000;fill:#00000e;fill-opacity:1;fill-rule:nonzero;stroke:none;stroke-width:3;marker:none;visibility:visible;display:inline;overflow:visible;enable-background:accumulate"
     id="path3611-6"
     d="m 549.20238,185.8875 c 3.89269,2.29412 6.2371,6.14012 7.99919,10.17138 2.13348,5.74972 1.64675,10.2799 -0.61628,15.84449 -1.34939,2.80864 -3.55035,4.94349 -5.79578,7.0284 0,0 -0.8194,-0.88327 -0.8194,-0.88327 l 0,0 c 2.11806,-1.96313 4.21065,-3.96285 5.49988,-6.60087 2.15136,-5.23833 2.62947,-9.48042 0.62667,-14.90838 -1.64536,-3.80642 -3.8474,-7.45235 -7.51415,-9.61863 0,0 0.61987,-1.03312 0.61987,-1.03312 z"
     inkscape:connector-curvature="0" />
  <path
     style="color:#000000;fill:#00000e;fill-opacity:1;fill-rule:nonzero;stroke:none;stroke-width:3;marker:none;visibility:visible;display:inline;overflow:visible;enable-background:accumulate"
     id="path3646"
     d="m 123.13265,152.25732 c -2.09843,-0.18583 -5.56243,-1.3664 -7.10775,0.64817 0.30102,2.34458 2.6405,4.23625 4.06123,6.02848 2.25931,2.57979 3.72948,5.52555 2.42924,8.87653 -1.69637,2.32317 -4.76247,2.61578 -7.43775,2.52523 -2.45451,-0.19312 -4.87325,-0.62726 -6.78897,-2.24876 -0.1662,-0.25057 -0.3324,-0.50115 -0.4986,-0.75172 0,0 1.02304,-0.63638 1.02304,-0.63638 l 0,0 c 0.0893,0.16015 0.17859,0.3203 0.26788,0.48046 1.64054,1.49272 3.91571,1.73379 6.04385,1.95251 2.14244,0.0973 4.76926,-0.0694 6.27627,-1.77956 1.27059,-2.86479 -0.39082,-5.48405 -2.25926,-7.67005 -1.22031,-1.54067 -4.33303,-4.41838 -4.29609,-6.47476 0.007,-0.38598 0.19642,-0.74668 0.29463,-1.12003 2.29531,-2.24332 5.31188,-1.41724 8.19035,-1.01854 0,0 -0.19807,1.18842 -0.19807,1.18842 z"
     inkscape:connector-curvature="0" />
  <path
     style="color:#000000;fill:#00000e;fill-opacity:1;fill-rule:nonzero;stroke:none;stroke-width:3;marker:none;visibility:visible;display:inline;overflow:visible;enable-background:accumulate"
     id="path3648"
     d="m 130.40374,146.83833 c -1.24998,4.32955 -2.07621,8.75527 -2.69828,13.2132 -0.35793,3.38737 0.71174,6.46509 3.72625,8.1666 1.68154,0.60462 0.82774,0.40565 2.55792,0.61159 0,0 -0.15613,1.19467 -0.15613,1.19467 l 0,0 c -2.0585,-0.28898 -1.05483,-0.0345 -3.01024,-0.76637 -3.5544,-2.14003 -4.66569,-5.28405 -4.31104,-9.37311 0.63306,-4.53048 1.47331,-9.02879 2.74853,-13.42757 0,0 1.14299,0.38099 1.14299,0.38099 z"
     inkscape:connector-curvature="0" />
  <path
     style="color:#000000;fill:#00000e;fill-opacity:1;fill-rule:nonzero;stroke:none;stroke-width:3;marker:none;visibility:visible;display:inline;overflow:visible;enable-background:accumulate"
     id="path3650"
     d="m 118.83796,157.09299 c 4.54309,-1.04187 9.12877,-1.9309 13.73785,-2.63857 1.99355,-0.30272 4.00113,-0.48205 6.00953,-0.64662 0,0 0.0983,1.2008 0.0983,1.2008 l 0,0 c -1.98017,0.16189 -3.95952,0.33847 -5.92505,0.63669 -4.60414,0.70633 -9.18405,1.59668 -13.72255,2.63613 0,0 -0.19807,-1.18843 -0.19807,-1.18843 z"
     inkscape:connector-curvature="0" />
  <path
     style="color:#000000;fill:#00000e;fill-opacity:1;fill-rule:nonzero;stroke:none;stroke-width:3;marker:none;visibility:visible;display:inline;overflow:visible;enable-background:accumulate"
     id="path3652"
     d="m 145.37248,153.96096 c -2.50198,1.5177 -4.83171,3.30823 -6.10944,5.99639 -0.42901,2.3492 1.95908,0.41874 2.74672,-0.19558 1.70644,-1.41008 2.83192,-3.39714 3.63844,-5.43441 0.37246,0.34658 0.88345,0.58795 1.1174,1.03974 0.30613,0.5912 -0.87468,4.90466 -1.03287,5.78827 -0.22213,1.55354 -0.18092,0.81027 -0.15935,2.22753 0,0 -1.20478,0.0101 -1.20478,0.0101 l 0,0 c -0.004,-1.61242 -0.0594,-0.79536 0.17821,-2.45026 0.27942,-1.55691 0.73531,-3.10653 0.94875,-4.672 0.0438,-0.32156 -0.14289,-0.72387 0.0671,-0.9713 0.28389,-0.33446 0.80368,-0.35205 1.20552,-0.52808 -0.88879,2.2387 -2.14446,4.40273 -4.02483,5.94608 -2.04507,1.54859 -5.35091,2.87924 -4.56375,-1.2872 1.42811,-2.88006 3.8371,-4.8771 6.57299,-6.50245 0,0 0.61987,1.03312 0.61987,1.03312 z"
     inkscape:connector-curvature="0" />
  <path
     style="color:#000000;fill:#00000e;fill-opacity:1;fill-rule:nonzero;stroke:none;stroke-width:3;marker:none;visibility:visible;display:inline;overflow:visible;enable-background:accumulate"
     id="path3654"
     d="m 155.70495,137.19978 c -1.54463,3.79179 -2.73343,7.71641 -3.89965,11.63774 -1.45079,3.77413 -2.04205,7.75806 -2.87618,11.68554 -0.0607,0.5175 -0.88374,4.12479 -2.0788,1.87545 -0.0568,-0.107 0.54231,-1.82967 0.56146,-1.88702 1.04704,-3.13785 3.21623,-5.02625 6.09296,-6.46315 1.88703,-0.7626 4.92178,-0.92884 5.26631,1.80047 0.0592,0.46914 -0.0938,0.94108 -0.14069,1.41161 -1.04977,2.9414 -3.5507,4.81418 -6.09852,6.41971 -2.33678,1.19377 -4.46899,2.25811 -6.42285,-0.0517 0,0 0.95118,-0.7395 0.95118,-0.7395 l 0,0 c 1.18775,1.7804 3.32757,0.52166 4.83092,-0.2291 2.24838,-1.40677 4.50749,-3.04173 5.54745,-5.57586 0.5592,-2.44112 -1.48229,-2.72038 -3.39887,-1.95607 -2.59989,1.2769 -4.54023,2.93274 -5.48513,5.76529 -0.0536,0.16052 -0.43214,1.35881 -0.50557,1.38358 -1.6209,0.5467 -0.80929,-0.22578 -0.62808,-0.79636 0.12635,-0.39785 0.21986,-0.80539 0.32979,-1.20808 0.84372,-3.95782 1.43815,-7.97418 2.8998,-11.7783 1.17024,-3.93369 2.36173,-7.87151 3.91148,-11.67524 0,0 1.14299,0.381 1.14299,0.381 z"
     inkscape:connector-curvature="0" />
  <path
     style="color:#000000;fill:#00000e;fill-opacity:1;fill-rule:nonzero;stroke:none;stroke-width:3;marker:none;visibility:visible;display:inline;overflow:visible;enable-background:accumulate"
     id="path3656"
     d="m 167.74097,138.29371 c -1.79262,4.20567 -2.91681,8.66429 -3.87599,13.1221 -0.57805,2.91498 -0.93652,5.86404 -1.28185,8.81306 0,0 -1.19663,-0.14021 -1.19663,-0.14021 l 0,0 c 0.3502,-2.98708 0.71381,-5.9742 1.30069,-8.92661 0.9758,-4.52342 2.11609,-9.04754 3.93513,-13.3158 0,0 1.11865,0.44746 1.11865,0.44746 z"
     inkscape:connector-curvature="0" />
  <path
     style="color:#000000;fill:#00000e;fill-opacity:1;fill-rule:nonzero;stroke:none;stroke-width:3;marker:none;visibility:visible;display:inline;overflow:visible;enable-background:accumulate"
     id="path3658"
     d="m 165.5571,159.39341 c 2.67361,-0.95904 5.37396,-2.06636 7.60675,-3.84952 1.22478,-1.45181 3.01726,-2.70891 0.0581,-1.55391 -3.35116,1.55901 -5.59178,4.51098 -7.26203,7.70642 -0.71071,3.66661 0.33443,4.94308 3.89272,5.54399 2.92272,0.20783 5.63936,-0.6734 8.3135,-1.72481 0,0 0.43906,1.12197 0.43906,1.12197 l 0,0 c -2.8899,1.12588 -5.82123,2.05317 -8.97495,1.78696 -0.68886,-0.1401 -1.4049,-0.18294 -2.06658,-0.4203 -2.9668,-1.06427 -3.41873,-4.19596 -2.67037,-6.86808 1.82994,-3.46788 4.28165,-6.64146 7.94999,-8.28992 0.47842,-0.13992 0.93708,-0.40302 1.43526,-0.41976 2.95917,-0.0994 0.94759,3.38343 -0.36742,4.06249 -2.34136,1.83531 -5.11091,3.03987 -7.90659,4.02311 0,0 -0.44746,-1.11864 -0.44746,-1.11864 z"
     inkscape:connector-curvature="0" />
  <path
     style="color:#000000;fill:#00000e;fill-opacity:1;fill-rule:nonzero;stroke:none;stroke-width:3;marker:none;visibility:visible;display:inline;overflow:visible;enable-background:accumulate"
     id="path3660"
     d="m 63.961882,80.652181 c -1.322078,3.312989 -2.623711,6.019359 -1.368368,9.547221 2.602608,2.567148 6.148134,2.596389 9.33168,1.239429 2.631235,-1.497436 3.784966,-3.926525 4.364759,-6.771159 0.05075,-0.408577 0.101491,-0.817153 0.152236,-1.22573 0,0 1.195408,0.150304 1.195408,0.150304 l 0,0 c -0.05592,0.439752 -0.111838,0.879505 -0.167756,1.319258 -0.678213,3.241424 -2.06637,5.977415 -5.083823,7.640534 -4.093662,1.652025 -7.829633,1.498612 -10.932647,-1.963196 -1.299311,-3.938983 -0.0909,-6.795151 1.430888,-10.475473 0,0 1.077623,0.538812 1.077623,0.538812 z"
     inkscape:connector-curvature="0" />
  <path
     style="color:#000000;fill:#00000e;fill-opacity:1;fill-rule:nonzero;stroke:none;stroke-width:3;marker:none;visibility:visible;display:inline;overflow:visible;enable-background:accumulate"
     id="path3662"
     d="m 82.1988,79.257568 c -1.418239,3.297937 -2.474432,6.747468 -3.357885,10.223881 -0.24589,0.843379 -0.683812,2.243668 -0.856843,3.164455 -0.03878,0.206382 0.166468,0.62978 -0.04352,0.628479 -0.858487,-0.0053 -0.216818,-1.245885 0.317883,-2.126894 2.016106,-3.653014 3.835707,-7.416019 6.371207,-10.745683 2.933464,-3.027671 3.598228,-0.644655 3.480881,2.344554 -0.13359,3.116267 -0.878552,6.149991 -1.378684,9.217486 0,0 -1.1891,-0.193982 -1.1891,-0.193982 l 0,0 c 0.492971,-3.020235 1.227303,-6.006859 1.364046,-9.074519 0.07397,-1.612739 0.704326,-3.706856 -1.319471,-1.562475 -2.518361,3.290339 -4.290758,7.035761 -6.301008,10.643165 -0.249875,0.405876 -0.440454,0.854879 -0.749624,1.217628 -2.987802,3.505588 -1.291853,-3.69333 -0.863397,-3.809237 0.898069,-3.52701 1.968579,-7.027552 3.406871,-10.374317 0,0 1.118647,0.447459 1.118647,0.447459 z"
     inkscape:connector-curvature="0" />
  <path
     style="color:#000000;fill:#00000e;fill-opacity:1;fill-rule:nonzero;stroke:none;stroke-width:3;marker:none;visibility:visible;display:inline;overflow:visible;enable-background:accumulate"
     id="path3664"
     d="m 99.135297,76.506024 c -2.453526,-0.04467 -5.32226,0.131952 -6.773454,2.375514 0.182609,3.084492 1.469046,5.975457 2.296772,8.929043 0.928272,2.921242 0.54597,5.332231 -1.734822,7.379567 -2.508566,1.797074 -5.024332,1.340218 -7.569993,-0.05118 -1.723125,-1.118908 -2.538067,-2.476469 -2.7995,-4.465928 0,0 1.198006,-0.127947 1.198006,-0.127947 l 0,0 c 0.115407,1.597625 0.845219,2.631064 2.185178,3.539881 2.080365,1.16952 4.087027,1.65451 6.192007,0.199266 1.982514,-1.686974 2.148143,-3.691754 1.368942,-6.148744 -0.909397,-3.249481 -2.56836,-6.518675 -2.122422,-9.946578 1.849428,-2.490204 4.779624,-3.00336 7.759286,-2.887711 0,0 0,1.204819 0,1.204819 z"
     inkscape:connector-curvature="0" />
  <path
     style="color:#000000;fill:#00000e;fill-opacity:1;fill-rule:nonzero;stroke:none;stroke-width:3;marker:none;visibility:visible;display:inline;overflow:visible;enable-background:accumulate"
     id="path3666"
     d="m 104.0667,70.973532 c -0.46035,3.873517 -0.9913,7.754759 -0.43775,11.63766 0.633,2.937842 2.12633,5.164961 4.84624,6.435075 0.29529,0.05686 0.59059,0.113711 0.88589,0.170567 0,0 -0.24969,1.178662 -0.24969,1.178662 l 0,0 c -0.38494,-0.08725 -0.76989,-0.174498 -1.15483,-0.261747 -3.07135,-1.490692 -4.82188,-3.996199 -5.5208,-7.355566 -0.54997,-3.998499 -0.0551,-7.987671 0.43823,-11.975039 0,0 1.19271,0.170388 1.19271,0.170388 z"
     inkscape:connector-curvature="0" />
  <path
     style="color:#000000;fill:#00000e;fill-opacity:1;fill-rule:nonzero;stroke:none;stroke-width:3;marker:none;visibility:visible;display:inline;overflow:visible;enable-background:accumulate"
     id="path3668"
     d="m 93.536752,78.779742 c 3.880065,-0.557709 7.790538,-0.776208 11.679418,-1.271576 3.86158,-0.515569 7.75055,-0.754837 11.63981,-0.931586 3.78031,-0.07957 -1.51071,3.234437 -2.08709,3.643549 -0.79366,0.616392 -5.29857,3.657847 -4.00062,4.994607 1.67181,0.684425 3.86086,-1.168363 5.16614,-2.09822 2.09311,-1.517443 3.29755,-1.283395 3.82319,1.330058 0.51434,1.440178 0.68916,2.966963 1.15805,4.415199 0,0 -1.14817,0.365121 -1.14817,0.365121 l 0,0 c -0.46957,-1.499787 -0.68349,-3.064283 -1.19375,-4.556652 -0.2911,-1.684068 -0.16739,-1.760462 -1.94294,-0.570544 -1.50096,1.057559 -4.14158,3.190039 -6.13796,2.310939 -0.34033,-0.14986 -0.55881,-0.490765 -0.83821,-0.736148 -0.0976,-0.352669 -0.29757,-0.692119 -0.29273,-1.058006 0.0278,-2.105236 3.28638,-4.240461 4.70964,-5.378838 0.34319,-0.243597 2.81544,-2.071232 2.82767,-2.071335 0.19321,-0.0016 0.15654,0.368934 0.30445,0.493231 0.0991,0.08325 0.49924,0.03229 0.37957,0.08156 -0.20765,0.08549 -0.44836,0.02604 -0.67255,0.03906 -3.85666,0.175219 -7.7131,0.411704 -11.54229,0.923174 -3.87364,0.493212 -7.768279,0.713919 -11.633557,1.264836 0,0 -0.198071,-1.188426 -0.198071,-1.188426 z"
     inkscape:connector-curvature="0" />
  <path
     style="color:#000000;fill:#00000e;fill-opacity:1;fill-rule:nonzero;stroke:none;stroke-width:3;marker:none;visibility:visible;display:inline;overflow:visible;enable-background:accumulate"
     id="path3670"
     d="m 128.31325,64.720125 c -0.40958,3.855375 -0.78027,7.706348 -1.33573,11.543856 -0.84903,3.336531 -0.92291,6.902692 -2.01976,10.176742 -0.39553,-0.169509 -0.95355,-0.146768 -1.18659,-0.508529 -0.64868,-1.006978 3.45499,-4.196009 4.10057,-4.646413 1.53923,-0.906488 4.56207,-2.544811 5.95609,-0.419132 0.20819,0.317453 0.23198,0.72295 0.34796,1.084425 -0.74968,3.203457 -3.74833,5.259359 -6.39288,6.917688 -1.59095,0.807303 -4.2082,3.011478 -6.14537,1.797952 -0.28298,-0.177266 -0.44794,-0.49532 -0.67191,-0.74298 0,0 0.976,-0.70641 0.976,-0.70641 l 0,0 c 0.53063,1.812494 4.48733,-0.968719 5.20299,-1.370412 2.29029,-1.424618 4.65774,-3.130883 5.85745,-5.623896 -0.0859,-2.322284 -3.47609,-0.609947 -4.44304,0.05232 -1.01418,0.700939 -2.14585,1.433858 -2.92132,2.417784 -0.28056,0.355971 -0.24514,1.011289 -0.66284,1.187217 -0.35939,0.151367 -0.77155,0.11409 -1.15732,0.171136 1.11307,-3.184825 1.094,-6.712408 1.96758,-9.960101 0.5473,-3.780659 0.90817,-7.574264 1.3233,-11.371251 0,0 1.20482,0 1.20482,0 z"
     inkscape:connector-curvature="0" />
  <path
     style="color:#000000;fill:#00000e;fill-opacity:1;fill-rule:nonzero;stroke:none;stroke-width:3;marker:none;visibility:visible;display:inline;overflow:visible;enable-background:accumulate"
     id="path3672"
     d="m 137.95181,63.515305 c 0,5.067613 0,10.135226 0,15.202838 0,0.842702 0,1.685405 0,2.528107 0,0 -1.20482,0 -1.20482,0 l 0,0 c 0,-0.842702 0,-1.685405 0,-2.528107 0,-5.067612 0,-10.135225 0,-15.202838 0,0 1.20482,0 1.20482,0 z"
     inkscape:connector-curvature="0" />
  <path
     style="color:#000000;fill:#00000e;fill-opacity:1;fill-rule:nonzero;stroke:none;stroke-width:3;marker:none;visibility:visible;display:inline;overflow:visible;enable-background:accumulate"
     id="path3674"
     d="m 141.63806,81.067981 c 3.27529,-1.190225 6.52563,-2.486734 9.28646,-4.646718 2.57489,-2.568319 -2.74136,-0.996936 -3.54567,-0.741734 -3.5395,1.579298 -5.80309,4.332116 -7.27212,7.829293 -0.92575,3.790851 2.27543,4.085032 5.28014,4.436799 2.91279,0.05037 5.63151,-0.953724 8.32173,-1.938911 0,0 0.41366,1.13158 0.41366,1.13158 l 0,0 c -2.87166,1.047973 -5.7725,2.097027 -8.88205,2.003191 -3.75823,-0.479597 -7.5278,-1.442957 -6.24297,-6.102368 1.62805,-3.81832 4.13244,-6.822523 8.02421,-8.510172 1.20828,-0.36822 2.32462,-0.843556 3.62631,-0.728891 2.30954,0.203444 2.73067,2.245522 1.01632,3.572334 -2.88167,2.228167 -6.23077,3.617345 -9.64502,4.838589 0,0 -0.381,-1.142992 -0.381,-1.142992 z"
     inkscape:connector-curvature="0" />
  <path
     style="color:#000000;fill:#00000e;fill-opacity:1;fill-rule:nonzero;stroke:none;stroke-width:3;marker:none;visibility:visible;display:inline;overflow:visible;enable-background:accumulate"
     id="path3676"
     d="m 67.006935,129.99388 c 1.055608,5.64054 2.662772,11.16714 4.183276,16.69684 1.198578,4.10096 2.477632,8.17831 4.076145,12.14223 0,0 -1.117531,0.45024 -1.117531,0.45024 l 0,0 c -1.613151,-4.00766 -2.911522,-8.12692 -4.120321,-12.27306 -1.535599,-5.58533 -3.161052,-11.16744 -4.217084,-16.86681 0,0 1.195515,-0.14944 1.195515,-0.14944 z"
     inkscape:connector-curvature="0" />
  <path
     style="color:#000000;fill:#00000e;fill-opacity:1;fill-rule:nonzero;stroke:none;stroke-width:3;marker:none;visibility:visible;display:inline;overflow:visible;enable-background:accumulate"
     id="path3678"
     d="m 82.668183,126.22483 c 1.019308,4.52478 2.178535,9.02769 3.457191,13.48735 0.831134,3.07665 0.443441,1.56274 1.167576,4.54058 0,0 -1.170727,0.28458 -1.170727,0.28458 l 0,0 c -0.714957,-2.94231 -0.331547,-1.44415 -1.155047,-4.49325 -1.292659,-4.51277 -2.470155,-9.06827 -3.491703,-13.64887 0,0 1.19271,-0.17039 1.19271,-0.17039 z"
     inkscape:connector-curvature="0" />
  <path
     style="color:#000000;fill:#00000e;fill-opacity:1;fill-rule:nonzero;stroke:none;stroke-width:3;marker:none;visibility:visible;display:inline;overflow:visible;enable-background:accumulate"
     id="path3680"
     d="m 98.192771,116.67147 c 0.136411,4.3357 1.307113,8.50584 2.243409,12.71148 0.7158,2.6455 0.36073,1.35135 1.06411,3.88275 0,0 -1.16084,0.32254 -1.16084,0.32254 l 0,0 c -0.710451,-2.55698 -0.350175,-1.24262 -1.079298,-3.94349 -0.955227,-4.29137 -2.1435,-8.54836 -2.2722,-12.97328 0,0 1.204819,0 1.204819,0 z"
     inkscape:connector-curvature="0" />
  <path
     style="color:#000000;fill:#00000e;fill-opacity:1;fill-rule:nonzero;stroke:none;stroke-width:3;marker:none;visibility:visible;display:inline;overflow:visible;enable-background:accumulate"
     id="path3682"
     d="m 110.37688,114.01868 c 0.40151,2.97606 1.21984,5.88781 2.23089,8.70931 0,0 -1.13459,0.40534 -1.13459,0.40534 l 0,0 c -1.02978,-2.89074 -1.87454,-5.86887 -2.28472,-8.91658 0,0 1.18842,-0.19807 1.18842,-0.19807 z"
     inkscape:connector-curvature="0" />
  <path
     style="color:#000000;fill:#00000e;fill-opacity:1;fill-rule:nonzero;stroke:none;stroke-width:3;marker:none;visibility:visible;display:inline;overflow:visible;enable-background:accumulate"
     id="path3684"
     d="m 123.7513,107.90312 c 0.75678,2.61197 1.68425,5.16676 2.8686,7.61431 0,0 -1.08499,0.52382 -1.08499,0.52382 l 0,0 c -1.20236,-2.49588 -2.15791,-5.09457 -2.92661,-7.75713 0,0 1.143,-0.381 1.143,-0.381 z"
     inkscape:connector-curvature="0" />
  <path
     style="color:#000000;fill:#00000e;fill-opacity:1;fill-rule:nonzero;stroke:none;stroke-width:3;marker:none;visibility:visible;display:inline;overflow:visible;enable-background:accumulate"
     id="path3686"
     d="m 142.77108,102.06952 c 0.20063,2.72964 0.58571,5.41582 1.20076,8.08041 0,0 -1.17401,0.27073 -1.17401,0.27073 l 0,0 c -0.63432,-2.75316 -1.03342,-5.53032 -1.23156,-8.35114 0,0 1.20481,0 1.20481,0 z"
     inkscape:connector-curvature="0" />
  <path
     style="color:#000000;fill:#00000e;fill-opacity:1;fill-rule:nonzero;stroke:none;stroke-width:3;marker:none;visibility:visible;display:inline;overflow:visible;enable-background:accumulate"
     id="path3688"
     d="m 165.66265,93.635787 c -0.089,3.327797 0.20545,6.661853 0.85828,9.924613 0.43898,1.93605 0.16825,1.02608 0.78313,2.73841 0,0 -1.13525,0.40349 -1.13525,0.40349 l 0,0 c -0.65519,-1.8607 -0.37355,-0.8932 -0.82956,-2.90693 -0.66054,-3.34155 -0.97538,-6.751993 -0.88142,-10.159583 0,0 1.20482,0 1.20482,0 z"
     inkscape:connector-curvature="0" />
  <path
     style="color:#000000;fill:#00000e;fill-opacity:1;fill-rule:nonzero;stroke:none;stroke-width:3;marker:none;visibility:visible;display:inline;overflow:visible;enable-background:accumulate"
     id="path3690"
     d="m 183.73494,90.021329 c -0.001,3.455555 0.5645,6.886647 1.20565,10.273121 0.58428,2.00252 0.28213,1.02553 0.90285,2.93207 0,0 -1.14571,0.37274 -1.14571,0.37274 l 0,0 c -0.64375,-1.98013 -0.32799,-0.95387 -0.94094,-3.08074 -0.65483,-3.460322 -1.22842,-6.966315 -1.22667,-10.497191 0,0 1.20482,0 1.20482,0 z"
     inkscape:connector-curvature="0" />
  <path
     style="color:#000000;fill:#00000e;fill-opacity:1;fill-rule:nonzero;stroke:none;stroke-width:3;marker:none;visibility:visible;display:inline;overflow:visible;enable-background:accumulate"
     id="path3692"
     d="m 199.39759,92.575085 c 0.0903,3.625711 0.39657,7.287584 1.00869,10.866225 0.10316,0.52352 0.20632,1.04705 0.30948,1.57057 0,0 -1.18212,0.23278 -1.18212,0.23278 l 0,0 c -0.10504,-0.53376 -0.21008,-1.06753 -0.31512,-1.60129 -0.61715,-3.646753 -0.93906,-7.373994 -1.02575,-11.068285 0,0 1.20482,0 1.20482,0 z"
     inkscape:connector-curvature="0" />
  <path
     style="color:#000000;fill:#00000e;fill-opacity:1;fill-rule:nonzero;stroke:none;stroke-width:3;marker:none;visibility:visible;display:inline;overflow:visible;enable-background:accumulate"
     id="path3694"
     d="m 215.06024,96.189543 c 0.23095,4.302167 1.11403,8.517687 2.04106,12.712387 0.74328,2.63864 0.37048,1.34803 1.11639,3.87242 0,0 -1.15544,0.34138 -1.15544,0.34138 l 0,0 c -0.75671,-2.56144 -0.37664,-1.24377 -1.13738,-3.95382 -0.94574,-4.27979 -1.84342,-8.58219 -2.06945,-12.972367 0,0 1.20482,0 1.20482,0 z"
     inkscape:connector-curvature="0" />
  <path
     style="color:#000000;fill:#00000e;fill-opacity:1;fill-rule:nonzero;stroke:none;stroke-width:3;marker:none;visibility:visible;display:inline;overflow:visible;enable-background:accumulate"
     id="path3696"
     d="m 230.72289,102.06952 c -0.0139,3.82172 0.69625,7.61091 1.54763,11.32309 0.44186,1.89959 0.87841,3.79255 1.41261,5.66811 0,0 -1.15889,0.32948 -1.15889,0.32948 l 0,0 c -0.53812,-1.89611 -0.98365,-3.80825 -1.42814,-5.72866 -0.8691,-3.80101 -1.59367,-7.67921 -1.57803,-11.59202 0,0 1.20482,0 1.20482,0 z"
     inkscape:connector-curvature="0" />
  <path
     style="color:#000000;fill:#00000e;fill-opacity:1;fill-rule:nonzero;stroke:none;stroke-width:3;marker:none;visibility:visible;display:inline;overflow:visible;enable-background:accumulate"
     id="path3698"
     d="m 243.9759,110.50326 c -0.13248,4.01576 0.0798,8.00065 0.68294,11.97116 0.64255,3.64783 1.8376,7.12501 3.15262,10.57202 0,0 -1.1257,0.42942 -1.1257,0.42942 l 0,0 c -1.34548,-3.52743 -2.56334,-7.08803 -3.21817,-10.82108 -0.60828,-4.03046 -0.83222,-8.07538 -0.69651,-12.15152 0,0 1.20482,0 1.20482,0 z"
     inkscape:connector-curvature="0" />
  <path
     style="color:#000000;fill:#00000e;fill-opacity:1;fill-rule:nonzero;stroke:none;stroke-width:3;marker:none;visibility:visible;display:inline;overflow:visible;enable-background:accumulate"
     id="path3700"
     d="m 261.71687,123.83588 c -1.26449,4.2846 -1.53695,8.77291 -1.80834,13.20711 -0.0382,0.89283 -0.0764,1.78566 -0.11466,2.67849 0,0 -1.20371,-0.0516 -1.20371,-0.0516 l 0,0 c 0.0386,-0.90019 0.0772,-1.80039 0.1158,-2.70059 0.27976,-4.56129 0.56333,-9.1806 1.89227,-13.58089 0,0 1.11864,0.44746 1.11864,0.44746 z"
     inkscape:connector-curvature="0" />
  <path
     style="color:#000000;fill:#00000e;fill-opacity:1;fill-rule:nonzero;stroke:none;stroke-width:3;marker:none;visibility:visible;display:inline;overflow:visible;enable-background:accumulate"
     id="path3702"
     d="m 62.048193,156.43051 c 0.48047,6.3113 2.047764,12.48412 3.599588,18.6009 1.02814,3.83191 2.155438,7.63489 3.213717,11.45845 0,0 -1.161168,0.32137 -1.161168,0.32137 l 0,0 c -1.060491,-3.83194 -2.190729,-7.64311 -3.220382,-11.48359 -1.575754,-6.21301 -3.167658,-12.48458 -3.636575,-18.89713 0,0 1.20482,0 1.20482,0 z"
     inkscape:connector-curvature="0" />
  <path
     style="color:#000000;fill:#00000e;fill-opacity:1;fill-rule:nonzero;stroke:none;stroke-width:3;marker:none;visibility:visible;display:inline;overflow:visible;enable-background:accumulate"
     id="path3704"
     d="m 56.281417,186.21637 c 1.168049,5.32292 2.840074,10.50812 4.345232,15.73939 1.175219,4.05533 2.348395,8.11104 3.541325,12.16132 0,0 -1.155737,0.34038 -1.155737,0.34038 l 0,0 c -1.193556,-4.05273 -2.367528,-8.11083 -3.543444,-12.1686 -1.500192,-5.21518 -3.172266,-10.38344 -4.330368,-15.69149 0,0 1.142992,-0.381 1.142992,-0.381 z"
     inkscape:connector-curvature="0" />
  <path
     style="color:#000000;fill:#00000e;fill-opacity:1;fill-rule:nonzero;stroke:none;stroke-width:3;marker:none;visibility:visible;display:inline;overflow:visible;enable-background:accumulate"
     id="path3706"
     d="m 51.46214,215.13204 c 2.509144,6.61874 5.651437,12.96547 8.823671,19.28481 2.260166,4.77607 4.855919,9.38146 7.409834,14.00364 0,0 -1.054553,0.58267 -1.054553,0.58267 l 0,0 c -2.561585,-4.6361 -5.164619,-9.25561 -7.432059,-14.04581 -3.197763,-6.3709 -6.365207,-12.76973 -8.889885,-19.44432 0,0 1.142992,-0.38099 1.142992,-0.38099 z"
     inkscape:connector-curvature="0" />
  <path
     style="color:#000000;fill:#00000e;fill-opacity:1;fill-rule:nonzero;stroke:none;stroke-width:3;marker:none;visibility:visible;display:inline;overflow:visible;enable-background:accumulate"
     id="path3708"
     d="m 76.641945,244.13916 c 0.657872,5.65946 1.655242,11.25539 2.967165,16.79787 1.648082,6.98916 4.418841,13.61736 6.838296,20.3541 0,0 -1.133922,0.4072 -1.133922,0.4072 l 0,0 c -2.434255,-6.77939 -5.221231,-13.44987 -6.876833,-20.48394 -1.316651,-5.56897 -2.323518,-11.19071 -2.983133,-16.87716 0,0 1.188427,-0.19807 1.188427,-0.19807 z"
     inkscape:connector-curvature="0" />
  <path
     style="color:#000000;fill:#00000e;fill-opacity:1;fill-rule:nonzero;stroke:none;stroke-width:3;marker:none;visibility:visible;display:inline;overflow:visible;enable-background:accumulate"
     id="path3710"
     d="m 95.921195,280.4417 c 0.388455,4.70843 1.878278,9.1924 3.524558,13.58615 0.790227,2.28083 1.705137,4.49972 2.737077,6.67933 0,0 -1.08927,0.51486 -1.08927,0.51486 l 0,0 c -1.0434,-2.21111 -1.976744,-4.4585 -2.776103,-6.77165 -1.675165,-4.47547 -3.18916,-9.0437 -3.588972,-13.8383 0,0 1.19271,-0.17039 1.19271,-0.17039 z"
     inkscape:connector-curvature="0" />
  <path
     style="color:#000000;fill:#00000e;fill-opacity:1;fill-rule:nonzero;stroke:none;stroke-width:3;marker:none;visibility:visible;display:inline;overflow:visible;enable-background:accumulate"
     id="path3712"
     d="m 110.49828,287.42119 c 1.43025,4.21711 3.42137,8.19862 5.43394,12.15907 0.34869,0.72382 0.69738,1.44765 1.04607,2.17147 0,0 -1.08547,0.52283 -1.08547,0.52283 l 0,0 c -0.3449,-0.71617 -0.6898,-1.43233 -1.0347,-2.1485 -2.03944,-4.01363 -4.05456,-8.04987 -5.50283,-12.32387 0,0 1.14299,-0.381 1.14299,-0.381 z"
     inkscape:connector-curvature="0" />
  <path
     style="color:#000000;fill:#00000e;fill-opacity:1;fill-rule:nonzero;stroke:none;stroke-width:3;marker:none;visibility:visible;display:inline;overflow:visible;enable-background:accumulate"
     id="path3714"
     d="m 126.25012,295.59137 c 2.21021,3.95754 5.08715,7.48479 7.67813,11.19228 0,0 -0.98761,0.69008 -0.98761,0.69008 l 0,0 c -2.60632,-3.73073 -5.50082,-7.27982 -7.72365,-11.26248 0,0 1.03313,-0.61988 1.03313,-0.61988 z"
     inkscape:connector-curvature="0" />
  <path
     style="color:#000000;fill:#00000e;fill-opacity:1;fill-rule:nonzero;stroke:none;stroke-width:3;marker:none;visibility:visible;display:inline;overflow:visible;enable-background:accumulate"
     id="path3716"
     d="m 144.3699,300.94142 c 1.77057,4.55267 3.91446,8.95706 6.35155,13.18806 0.40914,0.63876 0.81828,1.27752 1.22742,1.91628 0,0 -1.01474,0.64954 -1.01474,0.64954 l 0,0 c -0.41894,-0.6549 -0.83788,-1.30979 -1.25682,-1.96469 -2.46803,-4.289 -4.64306,-8.75127 -6.43552,-13.36615 0,0 1.12811,-0.42304 1.12811,-0.42304 z"
     inkscape:connector-curvature="0" />
  <path
     style="color:#000000;fill:#00000e;fill-opacity:1;fill-rule:nonzero;stroke:none;stroke-width:3;marker:none;visibility:visible;display:inline;overflow:visible;enable-background:accumulate"
     id="path3718"
     d="m 162.29334,304.11131 c 1.10453,3.31502 2.61291,6.47987 4.12268,9.62571 0.29501,0.54109 0.59002,1.08218 0.88504,1.62327 0,0 -1.05806,0.57628 -1.05806,0.57628 l 0,0 c -0.30442,-0.55946 -0.60884,-1.11893 -0.91326,-1.6784 -1.52048,-3.17032 -3.04149,-6.35922 -4.15505,-9.6994 0,0 1.11865,-0.44746 1.11865,-0.44746 z"
     inkscape:connector-curvature="0" />
  <path
     style="color:#000000;fill:#00000e;fill-opacity:1;fill-rule:nonzero;stroke:none;stroke-width:3;marker:none;visibility:visible;display:inline;overflow:visible;enable-background:accumulate"
     id="path3720"
     d="m 181.6718,307.63956 c 1.87512,3.52092 4.33294,6.65308 6.88443,9.69908 0.47104,0.53655 0.94209,1.0731 1.41313,1.60965 0,0 -0.90547,0.7948 -0.90547,0.7948 l 0,0 c -0.47711,-0.54363 -0.95423,-1.08726 -1.43135,-1.63089 -2.59115,-3.0947 -5.0868,-6.2777 -6.99386,-9.85276 0,0 1.03312,-0.61988 1.03312,-0.61988 z"
     inkscape:connector-curvature="0" />
  <path
     style="color:#000000;fill:#00000e;fill-opacity:1;fill-rule:nonzero;stroke:none;stroke-width:3;marker:none;visibility:visible;display:inline;overflow:visible;enable-background:accumulate"
     id="path3722"
     d="m 219.0212,296.79619 c 2.02468,3.43181 4.06845,6.86231 6.36907,10.11744 0.36724,0.53215 0.73448,1.06431 1.10172,1.59646 0,0 -0.99163,0.6843 -0.99163,0.6843 l 0,0 c -0.36476,-0.5286 -0.72951,-1.0572 -1.09427,-1.5858 -2.31516,-3.28153 -4.38025,-6.73349 -6.41801,-10.19252 0,0 1.03312,-0.61988 1.03312,-0.61988 z"
     inkscape:connector-curvature="0" />
  <path
     style="color:#000000;fill:#00000e;fill-opacity:1;fill-rule:nonzero;stroke:none;stroke-width:3;marker:none;visibility:visible;display:inline;overflow:visible;enable-background:accumulate"
     id="path3724"
     d="m 233.50128,288.5471 c 1.88557,4.02574 3.90414,7.98271 6.04003,11.8817 0,0 -1.0567,0.57877 -1.0567,0.57877 l 0,0 c -2.14254,-3.91245 -4.16914,-7.88227 -6.06095,-11.92165 0,0 1.07762,-0.53882 1.07762,-0.53882 z"
     inkscape:connector-curvature="0" />
  <path
     style="color:#000000;fill:#00000e;fill-opacity:1;fill-rule:nonzero;stroke:none;stroke-width:3;marker:none;visibility:visible;display:inline;overflow:visible;enable-background:accumulate"
     id="path3726"
     d="m 247.95911,278.90855 c 1.96034,3.54389 3.9461,7.08666 6.34104,10.35746 0.8585,1.36749 1.91578,2.53356 3.09688,3.61762 0,0 -0.81783,0.88472 -0.81783,0.88472 l 0,0 c -1.23015,-1.14443 -2.35273,-2.35717 -3.25166,-3.79127 -2.42996,-3.32866 -4.45916,-6.92306 -6.44605,-10.52972 0,0 1.07762,-0.53881 1.07762,-0.53881 z"
     inkscape:connector-curvature="0" />
  <path
     style="color:#000000;fill:#00000e;fill-opacity:1;fill-rule:nonzero;stroke:none;stroke-width:3;marker:none;visibility:visible;display:inline;overflow:visible;enable-background:accumulate"
     id="path3728"
     d="m 263.62177,265.65554 c 2.0569,4.12691 4.05863,8.27801 6.37568,12.26681 0.84306,1.71587 1.90643,3.26213 3.11853,4.72793 0,0 -0.93043,0.76543 -0.93043,0.76543 l 0,0 c -1.24597,-1.52177 -2.36008,-3.11263 -3.23001,-4.88837 -2.32827,-4.01129 -4.34492,-8.18276 -6.4114,-12.33299 0,0 1.07763,-0.53881 1.07763,-0.53881 z"
     inkscape:connector-curvature="0" />
  <path
     style="color:#000000;fill:#00000e;fill-opacity:1;fill-rule:nonzero;stroke:none;stroke-width:3;marker:none;visibility:visible;display:inline;overflow:visible;enable-background:accumulate"
     id="path3730"
     d="m 270.86557,250.16911 c 2.18991,4.85039 4.94649,9.45944 7.93995,13.85567 0,0 -0.99604,0.67786 -0.99604,0.67786 l 0,0 c -3.0348,-4.46175 -5.8327,-9.13616 -8.05131,-14.05893 0,0 1.1074,-0.4746 1.1074,-0.4746 z"
     inkscape:connector-curvature="0" />
  <path
     style="color:#000000;fill:#00000e;fill-opacity:1;fill-rule:nonzero;stroke:none;stroke-width:3;marker:none;visibility:visible;display:inline;overflow:visible;enable-background:accumulate"
     id="path3732"
     d="m 273.38866,228.42078 c 2.49877,4.11505 5.15442,8.12757 7.6904,12.22017 0.41249,0.63409 0.82498,1.26819 1.23747,1.90228 0,0 -1.00997,0.65692 -1.00997,0.65692 l 0,0 c -0.41721,-0.64153 -0.83442,-1.28306 -1.25163,-1.92459 -2.5435,-4.10474 -5.20787,-8.12869 -7.71234,-12.25702 0,0 1.04607,-0.59776 1.04607,-0.59776 z"
     inkscape:connector-curvature="0" />
  <path
     style="color:#000000;fill:#00000e;fill-opacity:1;fill-rule:nonzero;stroke:none;stroke-width:3;marker:none;visibility:visible;display:inline;overflow:visible;enable-background:accumulate"
     id="path3734"
     d="m 279.45981,213.54763 c 2.87457,3.32444 5.94529,6.47565 8.54286,10.02665 0,0 -0.97285,0.71073 -0.97285,0.71073 l 0,0 c -2.55658,-3.50416 -5.59517,-6.60181 -8.42195,-9.88544 0,0 0.85194,-0.85194 0.85194,-0.85194 z"
     inkscape:connector-curvature="0" />
  <path
     style="color:#000000;fill:#00000e;fill-opacity:1;fill-rule:nonzero;stroke:none;stroke-width:3;marker:none;visibility:visible;display:inline;overflow:visible;enable-background:accumulate"
     id="path3736"
     d="m 276.87478,188.5471 c 2.23691,4.23259 4.93208,8.20714 7.5924,12.18124 0,0 -1.00121,0.67019 -1.00121,0.67019 l 0,0 c -2.68831,-4.01633 -5.41125,-8.03347 -7.66882,-12.31261 0,0 1.07763,-0.53882 1.07763,-0.53882 z"
     inkscape:connector-curvature="0" />
  <path
     style="color:#000000;fill:#00000e;fill-opacity:1;fill-rule:nonzero;stroke:none;stroke-width:3;marker:none;visibility:visible;display:inline;overflow:visible;enable-background:accumulate"
     id="path3738"
     d="m 257.70421,142.69922 c 3.67401,5.65442 7.29432,11.31411 11.26557,16.76738 0.80949,1.11855 1.61898,2.23709 2.42847,3.35564 0,0 -0.97604,0.70635 -0.97604,0.70635 l 0,0 c -0.80879,-1.11759 -1.61759,-2.23517 -2.42639,-3.35276 -3.98072,-5.46694 -7.61175,-11.13952 -11.29408,-16.8083 0,0 1.00247,-0.66831 1.00247,-0.66831 z"
     inkscape:connector-curvature="0" />
  <path
     style="color:#000000;fill:#00000e;fill-opacity:1;fill-rule:nonzero;stroke:none;stroke-width:3;marker:none;visibility:visible;display:inline;overflow:visible;enable-background:accumulate"
     id="path3740"
     d="m 203.3808,299.39048 c 1.55893,3.27803 3.44121,6.37257 5.46297,9.38097 0,0 -1.00012,0.67184 -1.00012,0.67184 l 0,0 c -2.0492,-3.05177 -3.95908,-6.18975 -5.54047,-9.514 0,0 1.07762,-0.53881 1.07762,-0.53881 z"
     inkscape:connector-curvature="0" />
</svg>
