<?xml version="1.0" encoding="UTF-8" standalone="no"?>
<!-- Created with Inkscape (http://www.inkscape.org/) -->

<svg
   xmlns:osb="http://www.openswatchbook.org/uri/2009/osb"
   xmlns:dc="http://purl.org/dc/elements/1.1/"
   xmlns:cc="http://creativecommons.org/ns#"
   xmlns:rdf="http://www.w3.org/1999/02/22-rdf-syntax-ns#"
   xmlns:svg="http://www.w3.org/2000/svg"
   xmlns="http://www.w3.org/2000/svg"
   xmlns:sodipodi="http://sodipodi.sourceforge.net/DTD/sodipodi-0.dtd"
   xmlns:inkscape="http://www.inkscape.org/namespaces/inkscape"
   id="svg3036"
   version="1.1"
   inkscape:version="0.48.3.1 r9886"
   width="600"
   height="400"
   sodipodi:docname="convection_spectrum_2.png">
  <metadata
     id="metadata3042">
    <rdf:RDF>
      <cc:Work
         rdf:about="">
        <dc:format>image/svg+xml</dc:format>
        <dc:type
           rdf:resource="http://purl.org/dc/dcmitype/StillImage" />
        <dc:title></dc:title>
      </cc:Work>
    </rdf:RDF>
  </metadata>
  <defs
     id="defs3040">
    <linearGradient
       id="linearGradient6310">
      <stop
         style="stop-color:#000000;stop-opacity:1;"
         offset="0"
         id="stop6312" />
      <stop
         style="stop-color:#000000;stop-opacity:0;"
         offset="1"
         id="stop6314" />
    </linearGradient>
    <linearGradient
       id="linearGradient6292"
       osb:paint="solid">
      <stop
         style="stop-color:#ffffff;stop-opacity:1;"
         offset="0"
         id="stop6294" />
    </linearGradient>
    <linearGradient
       id="linearGradient4823"
       osb:paint="solid">
      <stop
         style="stop-color:#000000;stop-opacity:1;"
         offset="0"
         id="stop4825" />
    </linearGradient>
  </defs>
  <sodipodi:namedview
     pagecolor="#ffffff"
     bordercolor="#666666"
     borderopacity="1"
     objecttolerance="10"
     gridtolerance="10"
     guidetolerance="10"
     inkscape:pageopacity="0"
     inkscape:pageshadow="2"
     inkscape:window-width="1218"
     inkscape:window-height="737"
     id="namedview3038"
     showgrid="false"
     inkscape:zoom="0.83"
     inkscape:cx="355.12676"
     inkscape:cy="244.65295"
     inkscape:window-x="0"
     inkscape:window-y="31"
     inkscape:window-maximized="1"
     inkscape:current-layer="svg3036"
     showguides="true"
     inkscape:guide-bbox="true">
    <inkscape:grid
       type="xygrid"
       id="grid5981"
       empspacing="5"
       visible="true"
       enabled="true"
       snapvisiblegridlinesonly="true" />
  </sodipodi:namedview>
  <path
     style="fill:none;stroke:#000000;stroke-width:0.79302788px;stroke-linecap:butt;stroke-linejoin:miter;stroke-opacity:1"
     d="m 67.048286,194.79518 403.097844,2.40964"
     id="path6335"
     inkscape:connector-curvature="0" />
  <path
     style="fill:none;stroke:#000000;stroke-width:0.78571099px;stroke-linecap:butt;stroke-linejoin:miter;stroke-opacity:1"
     d="M 321.27711,358.76115 323.68675,19.595083"
     id="path6337"
     inkscape:connector-curvature="0" />
  <path
     style="color:#000000;fill:#000000;fill-opacity:1;fill-rule:nonzero;stroke:none;stroke-width:1.27100003;marker:none;visibility:visible;display:inline;overflow:visible;enable-background:accumulate"
     id="path6381"
     d="m 325.5723,16.125043 c -1.22411,3.99788 -2.74268,7.89504 -4.12992,11.83812 -1.6633,4.5 -3.10305,9.077 -4.67887,13.60795 0,0 -1.13796,-0.39578 -1.13796,-0.39578 l 0,0 c 1.57632,-4.53228 3.01645,-9.11067 4.68029,-13.61202 1.3929,-3.95914 2.91551,-7.87253 4.14781,-11.88573 0,0 1.11865,0.44746 1.11865,0.44746 z"
     inkscape:connector-curvature="0" />
  <path
     style="color:#000000;fill:#000000;fill-opacity:1;fill-rule:nonzero;stroke:none;stroke-width:1.27100003;marker:none;visibility:visible;display:inline;overflow:visible;enable-background:accumulate"
     id="path6383"
     d="m 324.83122,15.783173 c 0.87905,4.02698 2.15752,7.9226 3.64137,11.76302 1.59543,4.57523 3.33449,9.0962 5.09936,13.60757 0.24509,0.56025 0.49019,1.12049 0.73528,1.68073 0,0 -1.10394,0.48262 -1.10394,0.48262 l 0,0 c -0.25112,-0.57481 -0.50224,-1.14963 -0.75336,-1.72442 -1.76542,-4.51301 -3.50566,-9.03542 -5.10125,-13.61242 -1.50761,-3.90494 -2.80588,-7.86648 -3.69888,-11.96082 0,0 1.18142,-0.23629 1.18142,-0.23629 z"
     inkscape:connector-curvature="0" />
  <path
     style="color:#000000;fill:#000000;fill-opacity:1;fill-rule:nonzero;stroke:none;stroke-width:1.27100003;marker:none;visibility:visible;display:inline;overflow:visible;enable-background:accumulate"
     id="path6385"
     d="m 446.62186,187.50521 c 2.7803,0.37552 5.48249,1.13298 8.23686,1.64953 2.56636,0.70158 5.16667,1.238 7.72985,1.94768 2.31729,0.66401 4.71569,0.87943 7.11204,1.00324 1.07138,-0.059 2.09768,0.14666 3.11742,0.4394 0,0 -0.33953,1.15598 -0.33953,1.15598 l 0,0 c -0.92851,-0.28037 -1.86066,-0.44939 -2.84027,-0.39218 -2.48391,-0.12921 -4.96934,-0.35724 -7.37116,-1.0453 -2.53049,-0.70066 -5.09799,-1.22812 -7.63066,-1.92468 -2.75898,-0.51853 -5.46592,-1.27505 -8.25083,-1.65224 0,0 0.23628,-1.18143 0.23628,-1.18143 z"
     inkscape:connector-curvature="0" />
  <path
     style="color:#000000;fill:#000000;fill-opacity:1;fill-rule:nonzero;stroke:none;stroke-width:1.27100003;marker:none;visibility:visible;display:inline;overflow:visible;enable-background:accumulate"
     id="path6387"
     d="m 442.93434,202.87613 c 3.11946,-0.70662 6.16513,-1.6864 9.2688,-2.44812 2.94122,-0.5847 5.84818,-1.32993 8.71863,-2.19421 2.45821,-0.95225 4.89002,-1.96795 7.32026,-2.98924 1.18634,-0.53416 2.43402,-0.88118 3.68802,-1.20906 0,0 0.30364,1.16593 0.30364,1.16593 l 0,0 c -1.19925,0.31098 -2.39161,0.64247 -3.52526,1.15401 -2.46974,1.03595 -4.93832,2.0733 -7.4393,3.03202 -2.89048,0.87029 -5.8177,1.62154 -8.77929,2.21076 -3.13338,0.76632 -6.2063,1.76233 -9.35742,2.46633 0,0 -0.19808,-1.18842 -0.19808,-1.18842 z"
     inkscape:connector-curvature="0" />
  <path
     style="color:#000000;fill:#000000;fill-opacity:1;fill-rule:nonzero;stroke:none;stroke-width:1.27100003;marker:none;visibility:visible;display:inline;overflow:visible;enable-background:accumulate"
     id="path6389"
     d="m 352.25733,2.8914534 c -0.57697,4.02924 -0.76906,8.1008496 -0.91736,12.1644196 -0.12686,4.36978 -0.13611,8.74184 -0.14315,13.11312 -7e-4,2.1901 -8.1e-4,1.11901 2.2e-4,3.21329 0,0 -1.20482,5.9e-4 -1.20482,5.9e-4 l 0,0 c -10e-4,-2.09578 -9.1e-4,-1.02384 -2.2e-4,-3.21582 0.007,-4.38529 0.0164,-8.77137 0.14396,-13.15515 0.1504,-4.11516 0.34588,-8.2384796 0.93294,-12.3185196 0,0 1.18843,0.19807 1.18843,0.19807 z"
     inkscape:connector-curvature="0" />
  <path
     style="color:#000000;fill:#000000;fill-opacity:1;fill-rule:nonzero;stroke:none;stroke-width:1.27100003;marker:none;visibility:visible;display:inline;overflow:visible;enable-background:accumulate"
     id="path6391"
     d="m 356.0241,17.106133 c 0,3.08702 0,6.17404 0,9.26106 0,0.99477 0,1.98953 0,2.9843 0,0.27859 0,0.55718 0,0.83578 0,0.11741 0.10523,0.40435 0,0.35225 -1.41296,-0.69962 -1.06915,-0.76548 -0.85244,-1.98303 0.73862,-3.56416 2.30061,-6.87305 3.75358,-10.18634 1.00639,-2.61412 2.61131,-3.81534 3.03686,-0.0814 0.15422,2.7842 0.12055,5.57497 0.11164,8.36228 0.40062,2.81524 0.52332,2.11676 1.64979,0.62399 1.64893,-2.62086 3.09826,-5.37125 4.85959,-7.919 2.35194,-2.74694 3.18305,1.68948 3.70123,3.3914 0.9059,3.54027 1.87179,7.0478 3.50672,10.32611 0.29237,0.43795 0.58475,0.87591 0.87713,1.31386 0,0 -1.004,0.666 -1.004,0.666 l 0,0 c -0.31731,-0.48112 -0.63462,-0.96226 -0.95192,-1.4434 -1.65733,-3.3417 -2.66683,-6.90326 -3.58054,-10.51173 -0.26825,-0.88151 -0.49026,-1.7771 -0.77602,-2.65309 -0.0765,-0.23439 -0.25293,-0.43946 -0.2804,-0.68449 -0.0241,-0.21447 0.64126,-0.93032 -0.50179,0.2814 -1.78005,2.56434 -3.22075,5.34936 -4.90321,7.97804 -2.10284,2.58938 -3.59484,1.73967 -3.80139,-1.37294 0.009,-2.74233 0.0406,-5.48779 -0.10449,-8.22728 -0.0894,-0.85703 -0.45664,-1.27909 0.45468,-1.50945 0.0686,-0.0173 -0.14629,0.0378 -0.19087,0.0927 -0.39417,0.48561 -0.755,1.34646 -0.99962,1.85083 -1.41483,3.22613 -2.94174,6.44576 -3.6708,9.91363 -0.22408,1.25842 0.0604,1.41882 -1.53855,1.77187 -0.11466,0.0253 0,-0.23485 0,-0.35225 0,-0.27861 0,-0.5572 0,-0.83578 0,-0.99478 0,-1.98953 0,-2.9843 0,-3.08703 0,-6.17405 0,-9.26107 0,0 1.20482,0 1.20482,0 z"
     inkscape:connector-curvature="0" />
  <path
     style="color:#000000;fill:#000000;fill-opacity:1;fill-rule:nonzero;stroke:none;stroke-width:1.27100003;marker:none;visibility:visible;display:inline;overflow:visible;enable-background:accumulate"
     id="path6393"
     d="m 401.80723,9.6408634 c -0.17172,-2.35774 -1.61558,-3.49125 -3.82492,-3.89121 -3.75293,0.0421 -6.50715,2.69464 -8.63771,5.5064896 -2.34735,3.79134 -2.93578,7.92768 -2.1002,12.24106 0.92354,3.62555 3.55677,5.67571 6.8751,7.0092 2.46367,0.53592 5.75088,0.11389 7.04131,-2.3215 0.0231,-2.84127 -3.32506,-4.19351 -5.47219,-5.27084 -0.95851,-0.51164 -5.77238,-1.57089 -3.0958,-3.24661 0.35036,-0.21935 0.80403,-0.19233 1.20605,-0.28849 4.78373,-0.74343 9.62875,-0.89234 14.43946,-1.4203 2.96611,-0.32973 1.52331,-0.17465 4.3282,-0.46693 0,0 0.12486,1.19833 0.12486,1.19833 l 0,0 c -2.7972,0.29144 -1.35659,0.13662 -4.32165,0.46623 -4.76191,0.52238 -9.55606,0.67834 -14.29356,1.39514 -1.54592,0.36107 -0.81861,0.5712 -1.3162,-0.38681 -0.10234,-0.19703 0.32008,0.31947 0.51976,0.41654 0.96115,0.46723 1.99616,0.77219 2.94972,1.25628 2.80044,1.40841 6.65127,3.22124 5.96398,6.96816 -0.24805,0.38149 -0.42576,0.81936 -0.74414,1.14446 -1.96645,2.00794 -5.22111,2.27464 -7.78258,1.67284 -3.69555,-1.51107 -6.5936,-3.85868 -7.6059,-7.90044 -0.90042,-4.80954 -0.26212,-8.97292 2.32615,-13.19744 2.4419,-3.1763696 5.57023,-6.0481696 9.8344,-5.9562296 2.75157,0.60318 4.60477,2.10383 4.79068,5.07207 0,0 -1.20482,0 -1.20482,0 z"
     inkscape:connector-curvature="0" />
  <path
     style="color:#000000;fill:#000000;fill-opacity:1;fill-rule:nonzero;stroke:none;stroke-width:1.27100003;marker:none;visibility:visible;display:inline;overflow:visible;enable-background:accumulate"
     id="path6395"
     d="m 493.21768,181.56162 c -0.71462,3.51153 -1.41604,7.02572 -2.1421,10.53628 -0.62611,3.26124 -1.4702,6.47127 -2.12954,9.72681 -0.0552,0.21981 0.0556,0.6097 -0.16547,0.65943 -0.4331,0.0974 -0.96818,-0.026 -1.28968,-0.33212 -0.26081,-0.24833 -0.18398,-4.83517 -0.18546,-5.31408 -0.12306,-3.97454 0.47683,-7.85493 1.98545,-11.52814 1.53044,-3.3006 4.29493,-5.60957 7.42952,-7.31364 2.70516,-1.32937 5.28725,-1.45538 7.7431,0.36779 1.72741,1.95449 1.85772,3.62544 0.089,5.54197 -1.87947,1.55589 -4.2751,1.88704 -6.62155,2.11895 -2.0511,0.12082 -3.74524,0.0578 -3.61298,2.51481 0.85675,3.12157 2.87843,5.75995 4.70996,8.37406 1.78315,2.39607 3.72959,4.93094 6.61164,6.00007 0,0 -0.43031,1.12536 -0.43031,1.12536 l 0,0 c -3.09651,-1.21317 -5.25694,-3.79333 -7.16814,-6.43421 -1.96745,-2.80949 -4.15904,-5.65548 -4.92796,-9.06165 0.0991,-3.27811 1.81516,-3.56187 4.70014,-3.7175 2.05275,-0.19984 4.18095,-0.44664 5.86569,-1.74969 1.28856,-1.3046 1.24579,-2.30145 0.0509,-3.75646 -2.00727,-1.60989 -4.19453,-1.33943 -6.43652,-0.26364 -2.89602,1.556 -5.46464,3.68135 -6.88887,6.71362 -1.46193,3.5202 -2.0077,7.25286 -1.89425,11.06461 0.004,1.39985 -0.004,2.80051 0.066,4.19912 0.0119,0.23825 0.20225,0.5307 0.0495,0.71394 -0.23601,0.28314 -0.65118,0.51056 -1.01344,0.44246 -0.20418,-0.0384 0.10196,-0.40281 0.15293,-0.60422 0.6597,-3.25721 1.50369,-6.46892 2.13055,-9.73169 0.72561,-3.50795 1.42742,-7.01941 2.14052,-10.52852 0,0 1.18142,0.23628 1.18142,0.23628 z"
     inkscape:connector-curvature="0" />
  <path
     style="color:#000000;fill:#000000;fill-opacity:1;fill-rule:nonzero;stroke:none;stroke-width:1.27100003;marker:none;visibility:visible;display:inline;overflow:visible;enable-background:accumulate"
     id="path6397"
     d="m 507.9495,193.37349 c 2.82369,-0.30658 5.66406,-0.57403 8.3197,-1.63422 1.67335,-1.07282 2.06559,-1.79737 0.10017,-2.51168 -2.69115,-0.73681 -5.39535,-0.76493 -7.98306,0.29393 -1.9731,1.18659 -2.78507,3.08176 -2.39365,5.30379 1.48109,2.423 4.5561,3.21344 7.14798,3.86922 2.69784,0.4413 5.15759,-0.0365 7.61071,-1.14124 0,0 0.49063,1.10039 0.49063,1.10039 l 0,0 c -2.71049,1.19761 -5.43037,1.72138 -8.3982,1.20853 -3.06853,-0.78366 -6.56763,-1.77769 -8.04147,-4.85075 -0.39672,-2.80898 0.60351,-5.16533 3.1365,-6.60856 2.8989,-1.13718 5.90197,-1.16417 8.89725,-0.28607 2.92484,1.34046 2.44406,3.25431 -0.12507,4.74333 -2.80463,1.0929 -5.78079,1.42833 -8.76149,1.71815 0,0 0,-1.20482 0,-1.20482 z"
     inkscape:connector-curvature="0" />
  <path
     style="color:#000000;fill:#000000;fill-opacity:1;fill-rule:nonzero;stroke:none;stroke-width:1.27100003;marker:none;visibility:visible;display:inline;overflow:visible;enable-background:accumulate"
     id="path6399"
     d="m 546.16091,181.62065 c -1.38451,-2.17207 -2.67233,-2.77817 -5.17821,-2.34228 -3.57063,1.0881 -5.88733,3.81552 -7.8018,6.86059 -1.63566,3.31414 -2.46976,6.97688 -1.93679,10.64794 0.38495,2.52969 1.65651,4.34733 3.93453,5.4508 2.25617,0.53579 4.00795,-0.74032 5.20606,-2.53389 1.349,-2.45359 -0.027,-4.25644 -1.90388,-5.85509 -0.53108,-0.43847 -5.14795,-2.47102 -3.49361,-3.79391 0.31746,-0.25386 0.80681,-0.0999 1.21021,-0.14979 3.14991,0.27036 6.24621,0.87406 9.35423,1.42643 1.6026,0.3004 3.22658,0.44297 4.84839,0.58783 0,0 -0.10738,1.20003 -0.10738,1.20003 l 0,0 c -1.65642,-0.14847 -3.31499,-0.29508 -4.95185,-0.60163 -3.04459,-0.54119 -6.07684,-1.13239 -9.1612,-1.40797 -0.39151,-0.18256 -0.58638,-0.16398 -0.56921,-0.76715 0.003,-0.11506 0.11951,0.20155 0.2069,0.27648 0.24119,0.2068 0.50823,0.38172 0.77027,0.56137 0.39106,0.2681 2.34007,1.53459 2.68129,1.75694 2.32655,2.03807 3.80907,4.44655 2.10974,7.44745 -1.59194,2.27644 -3.87623,3.74873 -6.73541,2.9322 -2.61677,-1.32376 -4.14779,-3.42193 -4.59228,-6.36316 -0.53597,-3.9632 0.30481,-7.89172 2.11111,-11.45791 2.1125,-3.33525 4.69451,-6.27945 8.63184,-7.40749 3.06472,-0.44884 4.7972,0.33752 6.44467,2.9934 0,0 -1.07762,0.53881 -1.07762,0.53881 z"
     inkscape:connector-curvature="0" />
  <path
     sodipodi:type="arc"
     style="color:#000000;fill:none;stroke:#000000;stroke-width:1.27100003;stroke-opacity:1;marker:none;visibility:visible;display:inline;overflow:visible;enable-background:accumulate"
     id="path6471"
     sodipodi:cx="568.07227"
     sodipodi:cy="321.68674"
     sodipodi:rx="64.457832"
     sodipodi:ry="64.457832"
     d="m 632.5301,321.68674 a 64.457832,64.457832 0 1 1 -128.91567,0 64.457832,64.457832 0 1 1 128.91567,0 z"
     transform="matrix(1.498031,0,0,1.4712914,-627.18416,-278.84476)" />
  <path
     style="fill:none;stroke:#000000;stroke-width:0.7516169px;stroke-linecap:butt;stroke-linejoin:miter;stroke-opacity:1"
     d="m 217.89847,195.23291 70.22717,-65.11103"
     id="path6475"
     inkscape:connector-curvature="0" />
  <path
     style="color:#000000;fill:#000000;fill-opacity:1;fill-rule:nonzero;stroke:none;stroke-width:1.27100003;marker:none;visibility:visible;display:inline;overflow:visible;enable-background:accumulate"
     id="path6461-9"
     d="m 287.25879,128.24332 c 0.77688,1.87111 0.75667,3.96764 0.69461,6.08286 -0.20893,2.44526 -0.35631,4.88351 -0.60508,7.33551 -0.0507,2.05091 -0.0514,4.10067 0.25396,6.06495 0.0179,0.88625 0.0941,1.75783 0.13434,2.63852 0,0 0.95594,-0.22946 0.95594,-0.22946 l 0,0 c -0.0418,-0.90202 -0.11639,-1.79569 -0.14073,-2.7021 -0.30051,-1.91298 -0.29299,-3.9118 -0.25024,-5.90857 0.24936,-2.46741 0.39949,-4.92134 0.60812,-7.38185 0.0647,-2.2127 0.0706,-4.40421 -0.75373,-6.35592 0,0 -0.89719,0.45606 -0.89719,0.45606 z"
     inkscape:connector-curvature="0" />
  <path
     style="color:#000000;fill:#000000;fill-opacity:1;fill-rule:nonzero;stroke:#000000;stroke-width:0.0793299;stroke-linecap:butt;stroke-linejoin:miter;stroke-miterlimit:4;stroke-opacity:1;stroke-dasharray:none;stroke-dashoffset:0;marker:none;visibility:visible;display:inline;overflow:visible;enable-background:accumulate"
     id="path3263"
     d="m 272.57541,129.46144 c 1.88176,0 3.76352,0 5.64527,0 1.62057,0 3.24115,0 4.86172,0 1.20601,0 2.41202,0 3.61804,0 0,0 0,1.35575 0,1.35575 l 0,0 c -1.20602,0 -2.41203,0 -3.61804,0 -1.62057,0 -3.24115,0 -4.86172,0 -1.88175,0 -3.76351,0 -5.64527,0 0,0 0,-1.35575 0,-1.35575 z"
     inkscape:connector-curvature="0" />
  <path
     style="color:#000000;fill:#00000e;fill-opacity:1;fill-rule:nonzero;stroke:none;stroke-width:1.00699997;marker:none;visibility:visible;display:inline;overflow:visible;enable-background:accumulate"
     id="path4063"
     d="m 164.77905,226.97037 c 5.6573,-0.98825 11.3103,-2.00287 16.97021,-2.97772 2.88421,-0.51416 5.79354,-0.8524 8.70349,-1.17674 0,0 0.1334,1.19741 0.1334,1.19741 l 0,0 c -2.8862,0.32139 -5.77178,0.65661 -8.63241,1.16667 -5.67128,0.97662 -11.33548,1.99379 -17.0043,2.98309 0,0 -0.17039,-1.19271 -0.17039,-1.19271 z"
     inkscape:connector-curvature="0" />
  <path
     style="color:#000000;fill:#00000e;fill-opacity:1;fill-rule:nonzero;stroke:none;stroke-width:1.00699997;marker:none;visibility:visible;display:inline;overflow:visible;enable-background:accumulate"
     id="path4065"
     d="m 211.04576,211.89769 c -2.11311,-1.92517 -4.68281,-3.00059 -7.5252,-2.49917 -2.36385,0.48863 -3.84517,1.83276 -4.72188,4.02006 -0.65668,1.86202 -0.19691,2.9595 1.59248,3.61663 2.17501,0.21449 3.94957,-1.25407 5.462,-2.6378 1.65564,-1.29677 1.70043,-3.7444 3.12738,-5.15322 0.33647,0.0985 0.74477,0.0656 1.0094,0.29556 0.45304,0.3937 0.28642,4.67878 0.28654,5.37105 -0.0681,1.89392 -0.0661,3.77233 0.62579,5.55659 0,0 -1.1282,0.4228 -1.1282,0.4228 l 0,0 c -0.70487,-1.9341 -0.80682,-3.93054 -0.70241,-5.97919 -2.1e-4,-1.33263 -0.0848,-4.63898 -0.0499,-4.65416 0.22395,-0.0973 0.48504,-0.0566 0.72756,-0.085 -1.06329,1.59371 -1.54927,3.7523 -3.08636,5.11763 -1.87881,1.69374 -4.03441,3.33496 -6.71011,2.86798 -2.57486,-1.05069 -3.1105,-2.55155 -2.26864,-5.19666 1.07357,-2.56169 2.85618,-4.18677 5.64332,-4.75155 3.24517,-0.48977 6.16188,0.60429 8.57017,2.8365 0,0 -0.85194,0.85193 -0.85194,0.85193 z"
     inkscape:connector-curvature="0" />
  <path
     style="color:#000000;fill:#00000e;fill-opacity:1;fill-rule:nonzero;stroke:none;stroke-width:1.00699997;marker:none;visibility:visible;display:inline;overflow:visible;enable-background:accumulate"
     id="path4067"
     d="m 186.13747,233.9686 c 4.74379,-2.03004 9.71719,-3.3994 14.6428,-4.89895 5.40012,-1.54869 10.87408,-2.79716 16.32227,-4.15665 2.46138,-0.56634 1.26158,-0.31066 3.59803,-0.7735 0,0 0.23393,1.18189 0.23393,1.18189 l 0,0 c -2.29306,0.45346 -1.11248,0.20225 -3.54026,0.76058 -5.42835,1.35454 -10.88236,2.59827 -16.26308,4.14027 -4.86134,1.4799 -9.7689,2.83092 -14.45488,4.82398 0,0 -0.53881,-1.07762 -0.53881,-1.07762 z"
     inkscape:connector-curvature="0" />
  <path
     style="color:#000000;fill:#00000e;fill-opacity:1;fill-rule:nonzero;stroke:none;stroke-width:1.00699997;marker:none;visibility:visible;display:inline;overflow:visible;enable-background:accumulate"
     id="path4069"
     d="m 198.87939,239.58474 c -2.07696,2.95709 -3.99204,6.01281 -5.8476,9.11314 -1.53536,2.76171 -3.67446,5.19683 -5.04902,8.04867 0.33932,0.0448 -0.15249,-0.34729 -0.12214,-0.52407 0.0417,-0.24287 3.26016,-1.52248 3.60263,-1.66652 2.77193,-1.30722 5.8488,-1.46134 8.79129,-2.10634 1.30542,-0.2867 0.96227,-0.72352 0.55291,-1.69345 -0.7891,-1.86967 -0.13434,-0.45936 -1.09146,-2.41932 -1.33433,-2.37463 -2.66489,-4.77442 -3.55994,-7.3525 0,0 1.1392,-0.39219 1.1392,-0.39219 l 0,0 c 0.86503,2.53609 2.20781,4.87961 3.50383,7.21696 0.92673,1.90603 2.8705,5.02947 -0.28849,5.8178 -2.87295,0.6203 -5.87233,0.77879 -8.58036,2.03968 -0.77664,0.32643 -1.57233,0.60764 -2.34133,0.95168 -0.91923,0.41125 -2.82601,1.59297 -2.68922,-0.39949 1.41314,-2.87358 3.51871,-5.3608 5.09832,-8.13968 1.85588,-3.10045 3.7687,-6.15854 5.84826,-9.11424 0,0 1.03312,0.61987 1.03312,0.61987 z"
     inkscape:connector-curvature="0" />
  <path
     style="color:#000000;fill:#00000e;fill-opacity:1;fill-rule:nonzero;stroke:none;stroke-width:1.00699997;marker:none;visibility:visible;display:inline;overflow:visible;enable-background:accumulate"
     id="path4071"
     d="m 204.47916,241.56627 c 2.96452,0.15627 5.29957,1.44624 6.92841,3.89111 1.28391,3.1687 -0.83566,5.43476 -3.08091,7.40252 -1.79447,1.36805 -3.6846,2.55503 -5.93959,1.77441 0,0 0.45023,-1.11753 0.45023,-1.11753 l 0,0 c 1.64323,0.84988 3.39226,-0.69172 4.69675,-1.56427 1.76289,-1.53441 3.73987,-3.27166 2.86474,-5.83638 -1.35681,-2.12991 -3.38635,-3.19079 -5.91963,-3.34504 0,0 0,-1.20482 0,-1.20482 z"
     inkscape:connector-curvature="0" />
  <path
     style="color:#000000;fill:#00000e;fill-opacity:1;fill-rule:nonzero;stroke:none;stroke-width:1.00699997;marker:none;visibility:visible;display:inline;overflow:visible;enable-background:accumulate"
     id="path4073"
     d="m 224.24601,242.45194 c -3.15393,-0.79022 -5.96462,0.0865 -8.46941,2.0186 -2.07393,2.09589 -2.95644,3.9464 -2.03687,6.80323 1.40998,2.13665 3.79346,3.04931 6.26451,3.17902 1.61711,-0.0801 0.82011,0.0258 2.39135,-0.31508 0,0 0.24785,1.17906 0.24785,1.17906 l 0,0 c -1.80684,0.36932 -0.90173,0.25882 -2.71448,0.33848 -2.98692,-0.21212 -5.77269,-1.33269 -7.34103,-4.02801 -1.00388,-3.40502 -0.0411,-5.65588 2.45873,-8.11523 2.85038,-2.14625 6.02927,-3.12321 9.58034,-2.20306 0,0 -0.38099,1.14299 -0.38099,1.14299 z"
     inkscape:connector-curvature="0" />
  <path
     style="color:#000000;fill:#00000e;fill-opacity:1;fill-rule:nonzero;stroke:none;stroke-width:1.00699997;marker:none;visibility:visible;display:inline;overflow:visible;enable-background:accumulate"
     id="path4075"
     d="m 235.23076,244.54781 c -0.98878,3.0306 -2.51193,5.85324 -4.02255,8.64904 0,0 -1.05989,-0.57292 -1.05989,-0.57292 l 0,0 c 1.47012,-2.71858 2.95361,-5.46296 3.92398,-8.40711 0,0 1.15846,0.33099 1.15846,0.33099 z"
     inkscape:connector-curvature="0" />
  <path
     style="color:#000000;fill:#00000e;fill-opacity:1;fill-rule:nonzero;stroke:none;stroke-width:1.00699997;marker:none;visibility:visible;display:inline;overflow:visible;enable-background:accumulate"
     id="path4077"
     d="m 253.62157,226.27237 c -3.22039,1.50336 -5.60937,3.80047 -7.13805,6.98784 -0.8897,3.05321 -0.23966,5.04392 2.35044,6.81167 2.70777,1.49163 5.41153,1.21192 8.00158,-0.30392 2.76423,-1.87485 4.75665,-4.41403 5.51905,-7.67772 -0.16634,-3.33717 -3.1181,-4.06558 -5.94547,-4.37855 -2.61982,-0.25287 -5.08445,0.26353 -7.50087,1.21668 0,0 -0.43759,-1.12254 -0.43759,-1.12254 l 0,0 c 2.6079,-1.00574 5.25862,-1.57297 8.07888,-1.29075 3.58759,0.44212 6.98958,1.67246 6.97593,5.85912 -0.89505,3.57781 -3.01228,6.39494 -6.09227,8.43989 -3.03324,1.69749 -6.16745,2.01861 -9.28998,0.24494 -3.07209,-2.19402 -3.8674,-4.67259 -2.74338,-8.32535 1.67569,-3.40938 4.21062,-5.92323 7.68292,-7.53893 0,0 0.53881,1.07762 0.53881,1.07762 z"
     inkscape:connector-curvature="0" />
  <path
     style="color:#000000;fill:#00000e;fill-opacity:1;fill-rule:nonzero;stroke:none;stroke-width:1.00699997;marker:none;visibility:visible;display:inline;overflow:visible;enable-background:accumulate"
     id="path4079"
     d="m 256.72939,207.28235 c 5.77479,3.79032 9.07174,9.16545 11.72213,15.38798 2.93319,8.22255 2.3604,15.50903 -0.10583,23.71564 -1.31009,3.64709 -3.1505,7.06869 -5.25449,10.31058 0,0 -1.0101,-0.65672 -1.0101,-0.65672 l 0,0 c 2.04711,-3.14293 3.82912,-6.46709 5.1111,-10.00179 2.35182,-7.76718 2.96941,-15.1152 0.1504,-22.89668 -2.48363,-5.8639 -5.7555,-11.25162 -11.21097,-14.81294 0,0 0.59776,-1.04607 0.59776,-1.04607 z"
     inkscape:connector-curvature="0" />
  <path
     style="color:#000000;fill:#00000e;fill-opacity:1;fill-rule:nonzero;stroke:none;stroke-width:1.00699997;marker:none;visibility:visible;display:inline;overflow:visible;enable-background:accumulate"
     id="path4081"
     d="m 169.46887,205.76819 c -3.79913,2.31527 -6.24167,5.42961 -8.59083,9.13493 -3.58953,5.85083 -5.00128,12.39814 -5.08708,19.17998 0.27963,6.58759 2.3117,11.58132 6.54019,16.5543 2.39119,2.60912 5.18664,4.7883 8.3139,6.43193 0,0 -0.56228,1.06557 -0.56228,1.06557 l 0,0 c -3.2584,-1.72578 -6.18215,-3.98615 -8.67092,-6.71874 -4.40998,-5.22433 -6.54552,-10.44647 -6.8256,-17.34955 0.10295,-7.00555 1.5601,-13.76792 5.27468,-19.80931 2.45611,-3.86259 5.02624,-7.11006 8.98807,-9.52223 0,0 0.61987,1.03312 0.61987,1.03312 z"
     inkscape:connector-curvature="0" />
  <path
     style="color:#000000;fill:#00000e;fill-opacity:1;fill-rule:nonzero;stroke:none;stroke-width:1.00699997;marker:none;visibility:visible;display:inline;overflow:visible;enable-background:accumulate"
     id="path4083"
     d="m 150.85832,327.3002 c -1.31017,-1.76734 -3.09071,-3.74786 -5.43758,-3.84802 -0.38887,1.51664 2.8777,4.62633 3.80937,5.66115 1.70342,2.35836 4.80676,5.39422 4.00045,8.67479 -0.13752,0.55952 -0.51232,1.0322 -0.76848,1.5483 -3.10987,3.0072 -7.37037,3.17425 -11.38082,2.32497 -3.27069,-1.12163 -5.68712,-2.75562 -5.8542,-6.41355 0.43966,-1.80839 0.11135,-0.95208 0.97632,-2.57223 0,0 1.05502,0.58182 1.05502,0.58182 l 0,0 c -0.71197,1.2397 -0.4361,0.58545 -0.82683,1.96308 -0.0266,2.88675 2.38074,4.42191 4.90388,5.26318 3.48139,0.76717 7.21162,0.69325 10.06856,-1.72351 0.20739,-0.33506 0.51182,-0.62689 0.62219,-1.00517 0.85163,-2.91908 -2.24823,-5.74002 -3.69178,-7.83586 -1.16802,-1.29919 -5.34242,-4.96773 -3.77257,-7.15306 0.21091,-0.29359 0.63629,-0.34329 0.95444,-0.51493 2.75703,0.28786 4.83545,2.22544 6.37515,4.42916 0,0 -1.03312,0.61988 -1.03312,0.61988 z"
     inkscape:connector-curvature="0" />
  <path
     style="color:#000000;fill:#00000e;fill-opacity:1;fill-rule:nonzero;stroke:none;stroke-width:1.00699997;marker:none;visibility:visible;display:inline;overflow:visible;enable-background:accumulate"
     id="path4085"
     d="m 157.36484,322.45242 c 0.84096,5.04747 1.33483,10.13777 1.94625,15.21605 0.56523,5.38651 1.13674,10.75802 1.9415,16.11442 0.46524,1.92676 0.19798,1.06457 0.74832,2.60252 0,0 -1.13561,0.40248 -1.13561,0.40248 l 0,0 c -0.59484,-1.693 -0.3102,-0.75589 -0.80416,-2.82599 -0.80651,-5.36804 -1.3801,-10.75125 -1.94623,-16.14947 -0.6088,-5.06023 -1.09982,-10.13256 -1.9385,-15.16194 0,0 1.18843,-0.19807 1.18843,-0.19807 z"
     inkscape:connector-curvature="0" />
  <path
     style="color:#000000;fill:#00000e;fill-opacity:1;fill-rule:nonzero;stroke:none;stroke-width:1.00699997;marker:none;visibility:visible;display:inline;overflow:visible;enable-background:accumulate"
     id="path4087"
     d="m 153.16255,326.70841 c 1.75537,-1.45811 3.9137,-3.26485 6.37703,-3.0566 0.48191,0.0407 0.93301,0.25515 1.39952,0.38272 3.70099,2.30864 1.65627,5.50473 -0.41138,8.12154 -2.01563,2.4058 -4.45519,4.33633 -7.56681,4.9758 -1.0195,-0.18698 -0.58064,0.0862 -1.08385,-1.10921 0,0 1.20331,0.0603 1.20331,0.0603 l 0,0 c -0.49414,-0.25193 -0.57164,-0.3523 -0.35668,-0.1323 2.83342,-0.55333 5.02566,-2.37795 6.86092,-4.54433 1.41024,-1.76208 3.56149,-4.46134 1.00248,-6.21953 -2.52242,-0.88991 -4.72177,0.75986 -6.5726,2.37356 0,0 -0.85194,-0.85193 -0.85194,-0.85193 z"
     inkscape:connector-curvature="0" />
  <path
     style="color:#000000;fill:#00000e;fill-opacity:1;fill-rule:nonzero;stroke:none;stroke-width:1.00699997;marker:none;visibility:visible;display:inline;overflow:visible;enable-background:accumulate"
     id="path4089"
     d="m 166.93927,331.67039 c 2.48193,-1.06608 5.15661,-2.19507 6.83463,-4.39771 0.0455,-0.17166 0.17052,-0.34067 0.13653,-0.51497 -0.0166,-0.085 -0.16694,-0.0463 -0.25047,-0.0693 -1.48112,-0.40734 -2.73596,-0.08 -4.18968,0.32556 -2.7365,1.03477 -5.35603,2.59481 -6.38721,5.45133 0.27859,2.67515 3.17826,3.30347 5.40507,3.56508 3.62124,0.0883 6.9294,-1.09879 10.13442,-2.65137 0,0 0.52429,1.08476 0.52429,1.08476 l 0,0 c -3.41776,1.64832 -6.95129,2.8921 -10.80983,2.76191 -3.03284,-0.40692 -6.50553,-1.52042 -6.37929,-5.19072 1.2761,-3.19596 4.01737,-5.04369 7.19481,-6.18316 1.82887,-0.49101 6.99653,-1.54875 5.57109,2.16224 -1.87737,2.35884 -4.65932,3.67786 -7.40336,4.79936 0,0 -0.381,-1.14299 -0.381,-1.14299 z"
     inkscape:connector-curvature="0" />
  <path
     style="color:#000000;fill:#00000e;fill-opacity:1;fill-rule:nonzero;stroke:none;stroke-width:1.00699997;marker:none;visibility:visible;display:inline;overflow:visible;enable-background:accumulate"
     id="path4091"
     d="m 188.12611,325.38542 c -3.19953,-1.66937 -5.69246,-1.3059 -8.38933,1.01421 -2.16386,2.52519 -3.07614,4.81883 -1.13827,7.73029 2.27267,2.31537 5.39285,3.28296 8.57277,3.06148 2.42636,-0.45908 4.1979,-1.97413 5.85506,-3.69347 0,0 0.86613,0.8375 0.86613,0.8375 l 0,0 c -1.8763,1.93468 -3.90085,3.58969 -6.64638,4.05846 -3.62921,0.20244 -7.13811,-0.88962 -9.66255,-3.6148 -2.26434,-3.65566 -1.2923,-6.18556 1.37937,-9.30289 3.27902,-2.68804 5.95744,-3.06485 9.78307,-1.12391 0,0 -0.61987,1.03313 -0.61987,1.03313 z"
     inkscape:connector-curvature="0" />
  <path
     style="color:#000000;fill:#00000e;fill-opacity:1;fill-rule:nonzero;stroke:none;stroke-width:1.00699997;marker:none;visibility:visible;display:inline;overflow:visible;enable-background:accumulate"
     id="path4093"
     d="m 197.67458,321.51245 c -1.55258,3.23813 -2.35452,6.80022 -2.54644,10.37274 0.38887,3.21578 2.4502,4.66398 5.35646,5.49578 2.12173,0.21487 4.99617,0.12087 6.16166,-1.97373 0.0106,-0.18405 0.0212,-0.3681 0.0319,-0.55215 0,0 1.19135,0.17965 1.19135,0.17965 l 0,0 c -0.0682,0.33865 -0.1364,0.6773 -0.2046,1.01595 -1.68616,2.47368 -4.7017,2.87731 -7.51857,2.48663 -3.66897,-1.09391 -5.70965,-2.72605 -6.2211,-6.71944 0.21857,-3.76645 1.04792,-7.52148 2.71625,-10.9253 0,0 1.03313,0.61987 1.03313,0.61987 z"
     inkscape:connector-curvature="0" />
  <path
     style="color:#000000;fill:#00000e;fill-opacity:1;fill-rule:nonzero;stroke:none;stroke-width:1.00699997;marker:none;visibility:visible;display:inline;overflow:visible;enable-background:accumulate"
     id="path4095"
     d="m 187.4212,330.46557 c 3.55822,-1.4882 7.11575,-2.98629 10.76069,-4.25305 2.22412,-0.65337 1.12757,-0.365 3.28757,-0.87299 0,0 0.27517,1.17298 0.27517,1.17298 l 0,0 c -2.07708,0.48599 -1.02053,0.20937 -3.16746,0.83814 -3.65037,1.26691 -7.20922,2.77477 -10.77498,4.25791 0,0 -0.38099,-1.14299 -0.38099,-1.14299 z"
     inkscape:connector-curvature="0" />
  <path
     style="color:#000000;fill:#00000e;fill-opacity:1;fill-rule:nonzero;stroke:none;stroke-width:1.00699997;marker:none;visibility:visible;display:inline;overflow:visible;enable-background:accumulate"
     id="path4097"
     d="m 209.03615,329.78037 c 0,0.82124 0,1.64249 0,2.46374 0,0.24711 0,0.49422 0,0.74133 0,0.0574 0.0562,0.18371 0,0.17209 -1.53196,-0.31696 -1.24982,-0.15233 -1.05143,-1.33845 0.13808,-3.02828 1.68965,-5.2811 3.73081,-7.40392 0,0 0.8654,0.83825 0.8654,0.83825 l 0,0 c -1.91289,1.95879 -3.29685,3.96421 -3.40994,6.77626 -0.19172,1.00449 0.0509,0.84016 -1.33966,1.12786 -0.0562,0.0116 0,-0.11473 0,-0.17209 0,-0.24711 0,-0.49422 0,-0.74133 0,-0.82125 0,-1.6425 0,-2.46374 0,0 1.20482,0 1.20482,0 z"
     inkscape:connector-curvature="0" />
  <path
     style="color:#000000;fill:#00000e;fill-opacity:1;fill-rule:nonzero;stroke:none;stroke-width:1.00699997;marker:none;visibility:visible;display:inline;overflow:visible;enable-background:accumulate"
     id="path4099"
     d="m 216.11275,323.85531 c -0.42787,3.54894 -1.03092,7.13368 -0.4376,10.68869 0.95593,2.77477 2.84573,2.97912 4.94477,1.21161 1.93407,-2.36478 3.14008,-5.2836 3.48827,-8.31063 0.001,-0.38609 0.003,-0.77219 0.004,-1.15829 0,0 1.20479,0.008 1.20479,0.008 l 0,0 c -0.004,0.43148 -0.008,0.86296 -0.0125,1.29444 -0.41862,3.33907 -1.71397,6.55734 -3.93815,9.1123 -0.43955,0.33025 -0.82742,0.74385 -1.31865,0.99076 -2.54528,1.27937 -4.8861,-0.4957 -5.56159,-2.95479 -0.58645,-3.69124 -0.0345,-7.39778 0.43836,-11.0802 0,0 1.18843,0.19807 1.18843,0.19807 z"
     inkscape:connector-curvature="0" />
  <path
     style="color:#000000;fill:#00000e;fill-opacity:1;fill-rule:nonzero;stroke:none;stroke-width:1.00699997;marker:none;visibility:visible;display:inline;overflow:visible;enable-background:accumulate"
     id="path4101"
     d="m 226.95827,322.78076 c -0.30559,3.49476 -0.95978,7.01691 -0.77571,10.53349 0.043,0.19188 0.276,0.44492 0.12909,0.57564 -0.22048,0.19618 -0.36506,-0.58042 -0.24607,-0.8505 0.16515,-0.37481 0.44271,-0.69094 0.62736,-1.05654 0.67016,-1.32684 0.76547,-1.82192 1.24166,-3.27953 0.60431,-1.25852 1.74779,-6.45712 3.22792,-6.97584 0.31724,-0.11118 0.67208,0.0178 1.00812,0.0267 0.1901,0.36037 0.44729,0.69268 0.57031,1.0811 0.66071,2.08623 0.39478,5.77069 0.4163,7.99957 -0.0496,0.42732 -0.0281,4.09406 0.7525,4.13453 0.10336,0.005 -0.0852,-0.20936 -0.0495,-0.3065 0.0691,-0.18798 0.22891,-0.3287 0.34336,-0.49306 1.59671,-2.20645 2.09026,-5.00298 3.88325,-7.07119 0.22729,-0.10057 0.43804,-0.34991 0.68187,-0.3017 1.37168,0.2712 2.18955,3.72413 2.73419,4.87723 1.22724,2.5843 3.20417,4.4012 5.59527,5.87896 0.3717,0.17542 0.7434,0.35085 1.1151,0.52627 0,0 -0.51755,1.08799 -0.51755,1.08799 l 0,0 c -0.41111,-0.19694 -0.82222,-0.39389 -1.23332,-0.59084 -2.58018,-1.61044 -4.7252,-3.59211 -6.0496,-6.38928 -0.21027,-0.4482 -1.68172,-3.62272 -1.64871,-4.04769 0.0269,-0.34594 0.62393,-0.0997 0.22259,-0.23977 -1.86332,2.01872 -2.1411,5.03336 -3.93612,7.1269 -0.32973,0.2747 -0.58207,0.68835 -0.9892,0.82409 -2.36072,0.78709 -2.14257,-3.94087 -2.10891,-5.00433 -0.0256,-2.65991 -0.12952,-5.36444 -0.26814,-7.98996 0.10897,-0.0913 0.40014,-0.39569 0.32691,-0.27385 -0.0843,0.14023 -0.24117,0.2212 -0.36175,0.3318 -0.18218,0.30504 -0.36437,0.61007 -0.54656,0.9151 -0.85499,1.67306 -1.44561,3.46835 -2.02371,5.24982 -0.23428,0.70953 -2.97288,8.73121 -4.10005,4.29409 -0.16654,-3.59577 0.45253,-7.19083 0.78637,-10.76305 0,0 1.19271,0.17039 1.19271,0.17039 z"
     inkscape:connector-curvature="0" />
  <path
     style="color:#000000;fill:#00000e;fill-opacity:1;fill-rule:nonzero;stroke:none;stroke-width:1.00699997;marker:none;visibility:visible;display:inline;overflow:visible;enable-background:accumulate"
     id="path4103"
     d="m 278.65337,325.90362 c -2.9297,0.16599 -5.50569,1.33229 -7.52439,3.43582 -1.16867,2.03302 -0.5253,2.9223 1.69493,2.82117 3.51007,-0.74058 5.89834,-3.55318 7.92104,-6.31385 2.52377,-3.49527 3.40326,-7.46851 3.20695,-11.70747 -0.0704,-0.66019 -0.41459,-4.32863 -1.41575,-4.48405 -0.29384,-0.0456 -0.36001,0.47409 -0.52168,0.72367 -1.62943,4.19921 -1.60665,8.88148 -1.78261,13.32779 0.0104,5.64944 0.89805,11.2432 2.72337,16.58309 1.00956,2.72067 0.47768,1.41233 1.58329,3.93005 0,0 -1.10339,0.48387 -1.10339,0.48387 l 0,0 c -1.13543,-2.59264 -0.59195,-1.25232 -1.62025,-4.02508 -1.86512,-5.48292 -2.78685,-11.2202 -2.78689,-17.01965 0.18728,-4.71744 0.0917,-9.8007 2.14675,-14.14403 0.34328,-0.2736 0.61307,-0.68295 1.02983,-0.82079 2.53645,-0.83893 2.79649,4.11058 2.95101,5.39276 0.18472,4.51412 -0.74581,8.7534 -3.43983,12.47338 -2.26306,3.06988 -4.94206,6.10586 -8.88499,6.80511 -3.36141,-0.073 -4.36441,-2.01384 -2.56518,-4.86628 2.27701,-2.31145 5.11435,-3.63916 8.38779,-3.80033 0,0 0,1.20482 0,1.20482 z"
     inkscape:connector-curvature="0" />
  <path
     style="color:#000000;fill:#00000e;fill-opacity:1;fill-rule:nonzero;stroke:none;stroke-width:1.00699997;marker:none;visibility:visible;display:inline;overflow:visible;enable-background:accumulate"
     id="path4105"
     d="m 279.92872,333.99085 c 3.29638,-1.95702 6.82617,-3.47984 10.38949,-4.87513 2.12425,-0.83213 4.34387,-1.3146 6.58676,-1.68074 0,0 0.19341,1.18919 0.19341,1.18919 l 0,0 c -2.15937,0.34984 -4.29596,0.81334 -6.34107,1.6135 -3.50119,1.36957 -6.96951,2.86506 -10.20871,4.7863 0,0 -0.61988,-1.03312 -0.61988,-1.03312 z"
     inkscape:connector-curvature="0" />
  <path
     style="color:#000000;fill:#00000e;fill-opacity:1;fill-rule:nonzero;stroke:none;stroke-width:1.00699997;marker:none;visibility:visible;display:inline;overflow:visible;enable-background:accumulate"
     id="path4107"
     d="m 142.61877,359.99988 c -0.6089,4.2084 -0.77507,8.46359 -0.91729,12.70823 -0.33852,4.03806 0.41142,7.97545 1.26179,11.89338 0.14021,0.42279 0.28041,0.84558 0.42062,1.26838 0,0 -1.1445,0.37644 -1.1445,0.37644 l 0,0 c -0.15117,-0.46309 -0.30235,-0.92618 -0.45353,-1.38928 -0.87136,-4.01481 -1.62925,-8.05236 -1.28852,-12.18929 0.14416,-4.29744 0.31366,-8.60555 0.93301,-12.86593 0,0 1.18842,0.19807 1.18842,0.19807 z"
     inkscape:connector-curvature="0" />
  <path
     style="color:#000000;fill:#00000e;fill-opacity:1;fill-rule:nonzero;stroke:none;stroke-width:1.00699997;marker:none;visibility:visible;display:inline;overflow:visible;enable-background:accumulate"
     id="path4109"
     d="m 153.75038,361.00663 c 0.52108,2.99551 0.99669,5.9173 -0.1439,8.80549 -1.40778,2.27847 -3.84283,2.92052 -6.37318,2.89215 -1.5416,-0.38692 -0.84736,-0.0716 -2.10006,-0.90671 0,0 0.7039,-0.97782 0.7039,-0.97782 l 0,0 c 0.76161,0.61961 0.30464,0.36106 1.4208,0.67996 2.00476,0.0638 4.04002,-0.39361 5.23267,-2.14194 1.11666,-2.64287 0.49489,-5.40323 0.0713,-8.15306 0,0 1.18842,-0.19807 1.18842,-0.19807 z"
     inkscape:connector-curvature="0" />
  <path
     style="color:#000000;fill:#00000e;fill-opacity:1;fill-rule:nonzero;stroke:none;stroke-width:1.00699997;marker:none;visibility:visible;display:inline;overflow:visible;enable-background:accumulate"
     id="path4111"
     d="m 159.48624,352.77097 c -0.53014,3.789 -0.95247,7.58988 -0.43509,11.3953 0.65757,3.48262 3.11357,5.3682 6.23028,6.61135 1.17107,0.46534 2.22971,0.5622 3.43939,0.32651 0,0 0.20193,1.18777 0.20193,1.18777 l 0,0 c -1.4392,0.21854 -2.70949,0.17291 -4.09163,-0.39678 -3.51672,-1.43017 -6.24581,-3.64144 -6.97417,-7.56918 -0.51679,-3.92699 -0.12147,-7.84435 0.44087,-11.75304 0,0 1.18842,0.19807 1.18842,0.19807 z"
     inkscape:connector-curvature="0" />
  <path
     style="color:#000000;fill:#00000e;fill-opacity:1;fill-rule:nonzero;stroke:none;stroke-width:1.00699997;marker:none;visibility:visible;display:inline;overflow:visible;enable-background:accumulate"
     id="path4113"
     d="m 152.40253,364.08908 c 3.26457,-1.58099 6.64691,-2.83834 10.16942,-3.69516 1.45368,-0.33643 2.93604,-0.48618 4.41776,-0.62682 0,0 0.11339,1.19947 0.11339,1.19947 l 0,0 c -1.42432,0.13408 -2.84934,0.27646 -4.24698,0.59817 -3.43541,0.83191 -6.73078,2.06321 -9.91478,3.60196 0,0 -0.53881,-1.07762 -0.53881,-1.07762 z"
     inkscape:connector-curvature="0" />
  <path
     style="color:#000000;fill:#00000e;fill-opacity:1;fill-rule:nonzero;stroke:none;stroke-width:1.00699997;marker:none;visibility:visible;display:inline;overflow:visible;enable-background:accumulate"
     id="path4115"
     d="m 184.86797,367.12479 c -3.10851,1.08272 -5.45893,3.26537 -7.08056,6.07339 -1.01663,1.97719 -0.91958,3.68286 1.02288,4.86326 2.42434,0.53155 4.56654,-0.64689 5.90114,-2.61411 1.04594,-2.16771 1.701,-4.58869 0.49418,-6.79888 -1.87762,-1.66867 -4.15157,-0.48339 -5.9126,0.75012 -1.4441,1.04847 -2.33966,2.4624 -3.07182,4.04957 0,0 -1.09162,-0.50986 -1.09162,-0.50986 l 0,0 c 0.83796,-1.77468 1.85393,-3.3617 3.47984,-4.53182 2.41798,-1.6427 5.36405,-2.78828 7.66737,-0.30953 1.32028,2.68144 0.76475,5.45193 -0.58112,8.04529 -1.78319,2.44871 -4.48225,3.87355 -7.53721,2.93248 -2.60648,-1.74594 -2.72253,-3.73719 -1.4119,-6.48331 1.79259,-3.04915 4.34304,-5.43387 7.74042,-6.60959 0,0 0.381,1.14299 0.381,1.14299 z"
     inkscape:connector-curvature="0" />
  <path
     style="color:#000000;fill:#00000e;fill-opacity:1;fill-rule:nonzero;stroke:none;stroke-width:1.00699997;marker:none;visibility:visible;display:inline;overflow:visible;enable-background:accumulate"
     id="path4117"
     d="m 191.84953,368.52508 c -0.55065,1.86322 -1.05396,3.75211 -1.44509,5.65585 -0.0402,0.19587 0.12957,0.61828 -0.0691,0.59589 -0.43101,-0.0486 -0.72016,-0.48359 -1.08024,-0.72539 0.7342,-2.91013 1.46521,-5.80566 2.70633,-8.54627 1.28213,-2.4315 2.42069,-4.08935 5.33933,-4.07131 0,0 -0.0482,1.20385 -0.0482,1.20385 l 0,0 c -2.19512,-0.20509 -3.27553,1.60623 -4.19436,3.36619 -1.21216,2.65387 -1.90057,5.46885 -2.62236,8.28738 -0.43206,0.11257 -0.87291,0.47982 -1.29619,0.33773 -0.23599,-0.0792 0.0464,-0.49666 0.0961,-0.7406 0.3936,-1.9344 0.9118,-3.85192 1.47086,-5.74431 0,0 1.14299,0.38099 1.14299,0.38099 z"
     inkscape:connector-curvature="0" />
  <path
     style="color:#000000;fill:#00000e;fill-opacity:1;fill-rule:nonzero;stroke:none;stroke-width:1.00699997;marker:none;visibility:visible;display:inline;overflow:visible;enable-background:accumulate"
     id="path4119"
     d="m 206.46325,365.79857 c -3.30043,1.0149 -5.83282,2.98338 -7.73639,5.81879 -0.8632,1.82278 -2.27652,4.37816 -0.84474,6.2404 1.70785,0.57629 3.13863,-2.98617 3.69801,-4.09505 1.84848,-4.33884 2.17214,-9.10147 2.4746,-13.75205 0.11244,-2.51882 0.0797,-1.61037 0.15351,-3.84089 0.003,-0.0786 0.0282,-1.11699 0.0432,-1.11212 1.53943,0.49957 1.20588,0.33498 1.20214,1.69105 0.0267,4.1082 -0.14417,8.21977 0.11562,12.32149 0.48957,2.70824 0.76882,5.5354 2.12545,7.97045 0,0 -1.05741,0.57746 -1.05741,0.57746 l 0,0 c -1.40364,-2.61431 -1.79919,-5.56984 -2.27049,-8.47243 -0.25692,-4.12838 -0.0958,-8.26557 -0.11799,-12.40031 0.004,-1.39756 -0.33654,-1.12469 1.20384,-1.5938 0.0413,-0.0126 -0.009,0.0859 -0.0107,0.12906 -0.0118,0.30992 -0.0192,0.61999 -0.0295,0.92996 -0.0745,2.24908 -0.0415,1.33488 -0.15537,3.87839 -0.31393,4.81287 -0.66455,9.73631 -2.60184,14.21771 -0.81345,1.60292 -2.36477,5.39478 -4.85534,4.7916 -0.34834,-0.0844 -0.61004,-0.3764 -0.91506,-0.5646 -1.54989,-2.47513 -0.42265,-5.20021 0.84438,-7.59171 2.10932,-3.09293 4.8984,-5.26962 8.53604,-6.33182 0,0 0.19807,1.18842 0.19807,1.18842 z"
     inkscape:connector-curvature="0" />
  <path
     style="color:#000000;fill:#00000e;fill-opacity:1;fill-rule:nonzero;stroke:none;stroke-width:1.00699997;marker:none;visibility:visible;display:inline;overflow:visible;enable-background:accumulate"
     id="path4121"
     d="m 211.25403,372.54506 c 2.50198,-1.5177 4.83171,-3.30822 6.10944,-5.99638 -0.16234,-2.31761 -2.9137,-0.57429 -3.96283,0.0375 -2.429,1.75851 -3.64871,4.53248 -3.90809,7.45597 0.14507,2.51839 2.03815,3.97327 4.45473,3.93461 3.10472,-0.63632 4.94765,-3.1613 6.63438,-5.62451 0.70049,-1.0493 2.74151,-6.32757 3.95821,-2.48328 0.0374,0.32144 0.0855,0.64182 0.11228,0.96433 0.01,0.11788 0.16388,4.43291 0.0642,3.4237 -0.2589,-0.0757 -0.65714,0.0146 -0.77669,-0.22723 -0.11189,-0.22631 0.23391,-0.44852 0.32645,-0.6834 0.70776,-1.79639 1.34859,-3.49739 2.28202,-5.20178 1.18136,-2.47191 2.71764,-4.62901 5.49163,-5.24649 1.17663,-0.0531 1.89042,0.49161 2.73532,1.21408 0,0 -0.80295,0.89826 -0.80295,0.89826 l 0,0 c -0.51126,-0.48719 -0.9441,-0.89429 -1.6892,-0.93232 -2.42472,0.44517 -3.64854,2.5792 -4.67864,4.64623 -0.71903,1.30666 -1.34281,2.58574 -1.85233,3.98893 -0.002,0.006 -0.54703,1.72253 -0.75117,1.88709 -0.32616,0.26292 -0.77303,0.32317 -1.15954,0.48475 -0.78243,-1.4494 -0.0438,-3.33903 -0.47015,-4.92384 -0.0762,-0.70107 -0.16211,-0.22681 0.40166,-0.54785 0.0353,-0.0201 -0.0783,-0.0906 -0.1058,-0.0607 -0.19606,0.21395 -0.34206,0.46953 -0.4949,0.7162 -0.56054,0.90462 -1.02668,1.86571 -1.59671,2.76468 -1.92562,2.80428 -4.07357,5.55979 -7.64018,6.14789 -3.30444,-0.0975 -5.41741,-1.8412 -5.64177,-5.25558 0.34477,-3.31857 1.70714,-6.41511 4.50711,-8.38445 2.26492,-1.28422 5.96629,-2.63845 5.64643,1.53423 -1.42811,2.88007 -3.8371,4.8771 -6.57299,6.50246 0,0 -0.61987,-1.03313 -0.61987,-1.03313 z"
     inkscape:connector-curvature="0" />
  <path
     style="color:#000000;fill:#00000e;fill-opacity:1;fill-rule:nonzero;stroke:none;stroke-width:1.00699997;marker:none;visibility:visible;display:inline;overflow:visible;enable-background:accumulate"
     id="path4123"
     d="m 253.11851,364.98953 c -1.24097,2.89929 -2.49345,6.03842 -2.22631,9.24136 0.74623,2.30198 2.48788,0.56672 3.51799,-0.52137 2.03272,-2.76226 2.15556,-6.22342 2.79446,-9.4655 0.7117,-2.55013 2.49738,-3.5216 3.30287,-0.41179 0.4138,3.20394 0.34257,6.45072 0.35391,9.67517 0.0849,4.11491 -0.17688,8.24144 0.13054,12.34789 0.48472,3.06104 0.31347,6.25636 1.23748,9.23399 0.0685,0.10821 0.30443,0.24328 0.20551,0.32462 -0.0983,0.0808 -0.14043,-0.2312 -0.25697,-0.2823 -0.12677,-0.0556 -0.33687,0.10178 -0.41509,-0.0124 -0.14185,-0.20712 0.20223,-1.99595 0.2164,-2.2297 0.20682,-2.79105 -0.25976,-5.57122 -0.77928,-8.30514 -0.92249,-4.54144 -1.32767,-9.17103 -1.26395,-13.79993 0.27106,-4.01454 1.22023,-8.0595 4.45989,-10.68034 4.06312,-1.01481 2.53115,3.59862 1.74997,5.60503 -1.30437,3.02374 -3.60819,5.3568 -6.0771,7.45733 -0.81811,0.75268 -0.52299,0.38172 -0.96871,1.04117 0,0 -0.97981,-0.70111 -0.97981,-0.70111 l 0,0 c 0.6312,-0.85003 0.25438,-0.41889 1.16898,-1.25871 2.322,-1.96486 4.49748,-4.149 5.73518,-6.97903 0.30292,-0.76433 1.95842,-4.23662 0.1189,-4.21971 -2.99828,2.30505 -3.71427,6.17176 -4.00261,9.75275 -0.0687,4.54778 0.33958,9.09656 1.24303,13.55833 0.53483,2.83243 1.01396,5.71185 0.79807,8.60303 -0.0631,1.02006 -0.36501,5.32864 -2.10452,2.47862 -0.92843,-3.07282 -0.82039,-6.33933 -1.2869,-9.49763 -0.30219,-4.13547 -0.0566,-8.28878 -0.13382,-12.43251 -0.011,-3.13049 0.0514,-6.27962 -0.31942,-9.39314 -0.0738,-0.32796 -0.31975,-0.66754 -0.21201,-0.98598 0.0303,-0.0895 0.19423,-0.0828 0.22535,-0.17201 0.15371,-0.44071 -1.81879,1.99979 -0.96392,1.51709 -0.68784,3.47075 -0.84476,7.15413 -3.10726,10.06627 -1.94114,1.99824 -4.46902,3.407 -5.58873,-0.22464 -0.22402,-3.43185 0.97276,-6.76551 2.35026,-9.8685 0,0 1.07762,0.53881 1.07762,0.53881 z"
     inkscape:connector-curvature="0" />
  <path
     style="color:#000000;fill:#00000e;fill-opacity:1;fill-rule:nonzero;stroke:none;stroke-width:1.00699997;marker:none;visibility:visible;display:inline;overflow:visible;enable-background:accumulate"
     id="path4125"
     d="m 268.95796,362.50099 c -0.94264,3.19884 -1.64009,6.51747 -1.67532,9.85953 0.1886,0.71744 0.12092,2.10012 0.9068,2.58063 0.0377,0.023 0.42027,-0.51189 0.7339,-0.90498 1.5385,-2.15963 2.49376,-4.7108 3.20725,-7.25088 0.28708,-0.84938 0.36061,-3.18029 1.8768,-1.53324 0.0626,0.068 0.0915,1.53228 0.099,1.78309 0.0988,1.63874 -0.47157,4.8286 1.56618,5.44608 2.69775,-0.72905 4.2857,-3.15825 5.49182,-5.50137 0.66742,-1.75654 0.38196,-0.87397 0.86244,-2.64572 0,0 1.16213,0.31785 1.16213,0.31785 l 0,0 c -0.53139,1.92784 -0.21561,0.96615 -0.95502,2.88254 -1.4827,2.83971 -3.56307,5.94574 -7.0876,6.03052 -0.37369,-0.21855 -0.81334,-0.35115 -1.12106,-0.65565 -1.45928,-1.444 -1.01133,-4.02584 -1.12318,-5.83859 -0.009,-0.30672 -0.0144,-0.61356 -0.0267,-0.92016 -0.008,-0.19847 -0.19146,-0.47381 -0.034,-0.59491 1.75762,-1.3519 0.47256,1.34864 0.44873,1.55651 -0.76741,2.71234 -1.79239,5.43552 -3.46636,7.72436 -2.54632,2.68142 -3.46503,-0.0627 -3.74592,-2.49195 0.0541,-3.46668 0.74392,-6.90765 1.73705,-10.22466 0,0 1.14299,0.381 1.14299,0.381 z"
     inkscape:connector-curvature="0" />
  <path
     style="color:#000000;fill:#00000e;fill-opacity:1;fill-rule:nonzero;stroke:none;stroke-width:1.00699997;marker:none;visibility:visible;display:inline;overflow:visible;enable-background:accumulate"
     id="path4127"
     d="m 286.14458,362.31049 c 0,3.29824 0,6.59648 0,9.89473 0.047,0.45243 0.094,0.90487 0.14103,1.3573 0,0 -1.19864,0.12181 -1.19864,0.12181 l 0,0 c -0.0491,-0.49304 -0.0981,-0.98608 -0.14721,-1.47911 0,-3.29825 0,-6.59649 0,-9.89473 0,0 1.20482,0 1.20482,0 z"
     inkscape:connector-curvature="0" />
  <path
     style="color:#000000;fill:#00000e;fill-opacity:1;fill-rule:nonzero;stroke:none;stroke-width:1.00699997;marker:none;visibility:visible;display:inline;overflow:visible;enable-background:accumulate"
     id="path4129"
     d="m 292.16868,360.04497 c 0,3.83761 0,7.67523 0,11.51285 -0.80674,0.732 0.28695,1.45752 0.13442,2.16395 -0.031,0.14346 -0.1068,-0.27815 -0.19762,-0.39344 -0.10154,-0.12892 -0.38364,-0.16247 -0.369,-0.32593 0.0829,-0.92472 0.78707,-1.68189 1.19434,-2.51623 0.84671,-1.03207 2.20849,-6.06726 3.51774,-6.36127 0.32129,-0.0721 0.65127,0.0978 0.97691,0.14673 0.15925,0.34824 0.36976,0.67734 0.47776,1.04472 0.16645,0.56616 0.18262,1.79641 0.24371,2.35152 0.14346,1.30373 0.41294,2.60308 0.61838,3.89811 0.069,1.1967 0.43293,2.33295 0.75873,3.47569 0,0 -1.15875,0.32999 -1.15875,0.32999 l 0,0 c -0.33806,-1.18839 -0.71041,-2.37444 -0.78992,-3.61692 -0.33715,-2.12564 -0.81666,-4.30085 -0.76771,-6.44874 0.12181,-0.0728 0.25305,-0.13182 0.36544,-0.21849 0.08,-0.0617 -0.2062,0.0624 -0.26732,0.14282 -0.21524,0.28328 -0.37451,0.60568 -0.5405,0.92036 -0.84071,1.59374 -1.48437,3.28339 -2.35181,4.86411 -0.44381,0.90869 -1.05437,3.20868 -2.30032,3.45268 -1.04136,0.20393 -0.73284,-2.78466 -0.7493,-2.90966 0,-3.83762 0,-7.67524 0,-11.51285 0,0 1.20482,0 1.20482,0 z"
     inkscape:connector-curvature="0" />
  <path
     style="color:#000000;fill:#00000e;fill-opacity:1;fill-rule:nonzero;stroke:none;stroke-width:1.00699997;marker:none;visibility:visible;display:inline;overflow:visible;enable-background:accumulate"
     id="path4131"
     d="m 311.08446,364.30552 c -3.41945,0.008 -5.65001,2.05397 -7.3455,4.81877 -1.3286,2.61072 -1.98041,5.36537 -0.27898,7.92044 0.22912,0.15381 0.42321,0.38162 0.68738,0.46144 1.72978,0.52262 4.00586,-2.97657 4.69709,-3.98782 2.57716,-4.50244 3.11024,-9.71461 3.57115,-14.78401 0.10636,-1.57741 0.2702,-3.13213 0.12386,-4.70452 -0.008,-0.0899 -0.0233,0.20953 0.0465,0.26683 0.21782,0.17884 0.65594,0.12285 0.75116,0.38811 0.14079,0.39219 -0.1114,0.82592 -0.16711,1.23888 -0.51911,5.04432 0.19195,10.0727 1.39181,14.96487 0.87416,3.16976 2.15673,6.20724 3.53424,9.18552 0,0 -1.09368,0.50543 -1.09368,0.50543 l 0,0 c -1.40809,-3.04945 -2.72077,-6.15843 -3.61084,-9.40454 -1.23118,-5.04131 -1.9595,-10.22169 -1.41476,-15.41795 0.1522,-1.05777 -0.0221,-2.00756 1.35162,-2.40921 0.61612,-0.18014 0.50951,1.87327 0.43006,3.25578 -0.0429,0.74698 -0.0953,1.49338 -0.143,2.24007 -0.4813,5.27655 -1.06249,10.68849 -3.77869,15.35804 -1.62505,2.34412 -4.36566,6.14168 -7.3922,3.49157 -1.86786,-3.0222 -1.33867,-6.14285 0.27128,-9.20519 1.99172,-3.16357 4.62693,-5.45697 8.56668,-5.37094 0,0 -0.19807,1.18843 -0.19807,1.18843 z"
     inkscape:connector-curvature="0" />
  <path
     style="color:#000000;fill:#00000e;fill-opacity:1;fill-rule:nonzero;stroke:none;stroke-width:1.00699997;marker:none;visibility:visible;display:inline;overflow:visible;enable-background:accumulate"
     id="path4133"
     d="m 119.43506,341.82441 c -2.89185,-3.70519 -4.32827,-8.21778 -5.34998,-12.73721 -1.07987,-6.67608 -1.58078,-13.52303 -0.74115,-20.25946 0.21149,-1.69677 0.55836,-3.37392 0.83754,-5.06087 1.40375,-6.85377 3.75252,-13.48768 7.14633,-19.61491 1.905,-3.43931 3.02066,-4.81814 5.27525,-7.97724 4.08324,-5.34228 8.68913,-10.26743 13.68615,-14.76084 0.71698,-0.72305 1.43197,-1.42107 2.33483,-1.89233 0.22821,-0.11912 -0.16582,0.51672 -0.36384,0.68121 -0.0906,0.0752 -0.22282,-0.0761 -0.33422,-0.11411 -3.02976,-0.69622 -6.05818,-0.097 -9.05539,0.43494 -3.61544,0.96205 -7.41927,1.77167 -10.75221,3.53304 -0.14707,0.12998 -0.30461,0.24899 -0.44119,0.38994 -0.21455,0.22139 -0.26123,-0.63953 -0.12548,-0.91633 0.1143,-0.23308 0.50411,-0.12556 0.75174,-0.20346 0.56388,-0.17739 2.38962,-0.83965 2.77843,-0.97897 4.69689,-1.89535 9.41013,-3.73758 14.21143,-5.35426 1.33336,-0.23236 4.15203,-1.12321 5.07563,0.64 0.99297,1.89565 -0.60228,4.69867 -1.26966,6.34928 -2.94429,6.50846 -6.54964,12.68528 -9.67471,19.10822 -1.54708,3.45612 -0.78909,1.78115 -2.27166,5.02594 0,0 -1.09585,-0.50071 -1.09585,-0.50071 l 0,0 c 1.48413,-3.24808 0.72189,-1.56434 2.28414,-5.05238 3.11376,-6.39882 6.70169,-12.5544 9.64207,-19.03507 1.4539,-3.55081 3.50054,-6.74228 -2.30563,-5.3934 -4.7944,1.61304 -9.4988,3.45639 -14.18939,5.3466 -0.3685,0.13201 -7.54141,2.92109 -3.92968,-0.49226 3.45387,-1.80071 7.3562,-2.68183 11.10156,-3.65248 3.22418,-0.57176 6.50834,-1.20121 9.74978,-0.352 2.45323,1.19806 -0.4836,2.3894 -1.31537,3.32471 -4.93434,4.43182 -9.47664,9.29649 -13.51102,14.56492 -2.20056,3.07935 -3.31958,4.46517 -5.17764,7.81496 -3.33937,6.02035 -5.65303,12.53817 -7.03583,19.27418 -0.2751,1.65399 -0.6164,3.29832 -0.8253,4.96197 -0.83064,6.61502 -0.33612,13.33914 0.71574,19.89653 0.97352,4.34215 2.34492,8.68594 5.11539,12.24921 0,0 -0.94081,0.75264 -0.94081,0.75264 z"
     inkscape:connector-curvature="0" />
  <path
     style="fill:none;stroke:#000000;stroke-width:3;stroke-linecap:butt;stroke-linejoin:miter;stroke-miterlimit:4;stroke-opacity:1;stroke-dasharray:none"
     d="M 322.89157,97.590361 321.68675,283.13253"
     id="path4259"
     inkscape:connector-curvature="0" />
  <path
     style="color:#000000;fill:#00000e;fill-opacity:1;fill-rule:nonzero;stroke:none;stroke-width:1.00699997;marker:none;visibility:visible;display:inline;overflow:visible;enable-background:accumulate"
     id="path4083-3"
     d="m 366.36543,274.80007 c -1.31017,-1.76734 -3.09071,-3.74786 -5.43758,-3.84802 -0.38887,1.51664 2.8777,4.62633 3.80937,5.66115 1.70342,2.35836 4.80676,5.39422 4.00045,8.67479 -0.13752,0.55952 -0.51232,1.0322 -0.76848,1.5483 -3.10987,3.0072 -7.37037,3.17425 -11.38082,2.32497 -3.27069,-1.12163 -5.68712,-2.75562 -5.8542,-6.41355 0.43966,-1.80839 0.11135,-0.95208 0.97632,-2.57223 0,0 1.05502,0.58182 1.05502,0.58182 l 0,0 c -0.71197,1.2397 -0.4361,0.58545 -0.82683,1.96308 -0.0266,2.88675 2.38074,4.42191 4.90388,5.26318 3.48139,0.76717 7.21162,0.69325 10.06856,-1.72351 0.20739,-0.33506 0.51182,-0.62689 0.62219,-1.00517 0.85163,-2.91908 -2.24823,-5.74002 -3.69178,-7.83586 -1.16802,-1.29919 -5.34242,-4.96773 -3.77257,-7.15306 0.21091,-0.29359 0.63629,-0.34329 0.95444,-0.51493 2.75703,0.28786 4.83545,2.22544 6.37515,4.42916 0,0 -1.03312,0.61988 -1.03312,0.61988 z"
     inkscape:connector-curvature="0" />
  <path
     style="color:#000000;fill:#00000e;fill-opacity:1;fill-rule:nonzero;stroke:none;stroke-width:1.00699997;marker:none;visibility:visible;display:inline;overflow:visible;enable-background:accumulate"
     id="path4085-4"
     d="m 372.87195,269.95229 c 0.84096,5.04747 1.33483,10.13777 1.94625,15.21605 0.56523,5.38651 1.13674,10.75802 1.9415,16.11442 0.46524,1.92676 0.19798,1.06457 0.74832,2.60252 0,0 -1.13561,0.40248 -1.13561,0.40248 l 0,0 c -0.59484,-1.693 -0.3102,-0.75589 -0.80416,-2.82599 -0.80651,-5.36804 -1.3801,-10.75125 -1.94623,-16.14947 -0.6088,-5.06023 -1.09982,-10.13256 -1.9385,-15.16194 0,0 1.18843,-0.19807 1.18843,-0.19807 z"
     inkscape:connector-curvature="0" />
  <path
     style="color:#000000;fill:#00000e;fill-opacity:1;fill-rule:nonzero;stroke:none;stroke-width:1.00699997;marker:none;visibility:visible;display:inline;overflow:visible;enable-background:accumulate"
     id="path4087-6"
     d="m 368.66966,274.20828 c 1.75537,-1.45811 3.9137,-3.26485 6.37703,-3.0566 0.48191,0.0407 0.93301,0.25515 1.39952,0.38272 3.70099,2.30864 1.65627,5.50473 -0.41138,8.12154 -2.01563,2.4058 -4.45519,4.33633 -7.56681,4.9758 -1.0195,-0.18698 -0.58064,0.0862 -1.08385,-1.10921 0,0 1.20331,0.0603 1.20331,0.0603 l 0,0 c -0.49414,-0.25193 -0.57164,-0.3523 -0.35668,-0.1323 2.83342,-0.55333 5.02566,-2.37795 6.86092,-4.54433 1.41024,-1.76208 3.56149,-4.46134 1.00248,-6.21953 -2.52242,-0.88991 -4.72177,0.75986 -6.5726,2.37356 0,0 -0.85194,-0.85193 -0.85194,-0.85193 z"
     inkscape:connector-curvature="0" />
  <path
     style="color:#000000;fill:#00000e;fill-opacity:1;fill-rule:nonzero;stroke:none;stroke-width:1.00699997;marker:none;visibility:visible;display:inline;overflow:visible;enable-background:accumulate"
     id="path4089-2"
     d="m 382.44638,279.17026 c 2.48193,-1.06608 5.15661,-2.19507 6.83463,-4.39771 0.0455,-0.17166 0.17052,-0.34067 0.13653,-0.51497 -0.0166,-0.085 -0.16694,-0.0463 -0.25047,-0.0693 -1.48112,-0.40734 -2.73596,-0.08 -4.18968,0.32556 -2.7365,1.03477 -5.35603,2.59481 -6.38721,5.45133 0.27859,2.67515 3.17826,3.30347 5.40507,3.56508 3.62124,0.0883 6.9294,-1.09879 10.13442,-2.65137 0,0 0.52429,1.08476 0.52429,1.08476 l 0,0 c -3.41776,1.64832 -6.95129,2.8921 -10.80983,2.76191 -3.03284,-0.40692 -6.50553,-1.52042 -6.37929,-5.19072 1.2761,-3.19596 4.01737,-5.04369 7.19481,-6.18316 1.82887,-0.49101 6.99653,-1.54875 5.57109,2.16224 -1.87737,2.35884 -4.65932,3.67786 -7.40336,4.79936 0,0 -0.381,-1.14299 -0.381,-1.14299 z"
     inkscape:connector-curvature="0" />
  <path
     style="color:#000000;fill:#00000e;fill-opacity:1;fill-rule:nonzero;stroke:none;stroke-width:1.00699997;marker:none;visibility:visible;display:inline;overflow:visible;enable-background:accumulate"
     id="path4091-1"
     d="m 403.63322,272.88529 c -3.19953,-1.66937 -5.69246,-1.3059 -8.38933,1.01421 -2.16386,2.52519 -3.07614,4.81883 -1.13827,7.73029 2.27267,2.31537 5.39285,3.28296 8.57277,3.06148 2.42636,-0.45908 4.1979,-1.97413 5.85506,-3.69347 0,0 0.86613,0.8375 0.86613,0.8375 l 0,0 c -1.8763,1.93468 -3.90085,3.58969 -6.64638,4.05846 -3.62921,0.20244 -7.13811,-0.88962 -9.66255,-3.6148 -2.26434,-3.65566 -1.2923,-6.18556 1.37937,-9.30289 3.27902,-2.68804 5.95744,-3.06485 9.78307,-1.12391 0,0 -0.61987,1.03313 -0.61987,1.03313 z"
     inkscape:connector-curvature="0" />
  <path
     style="color:#000000;fill:#00000e;fill-opacity:1;fill-rule:nonzero;stroke:none;stroke-width:1.00699997;marker:none;visibility:visible;display:inline;overflow:visible;enable-background:accumulate"
     id="path4093-1"
     d="m 413.18169,269.01232 c -1.55258,3.23813 -2.35452,6.80022 -2.54644,10.37274 0.38887,3.21578 2.4502,4.66398 5.35646,5.49578 2.12173,0.21487 4.99617,0.12087 6.16166,-1.97373 0.0106,-0.18405 0.0212,-0.3681 0.0319,-0.55215 0,0 1.19135,0.17965 1.19135,0.17965 l 0,0 c -0.0682,0.33865 -0.1364,0.6773 -0.2046,1.01595 -1.68616,2.47368 -4.7017,2.87731 -7.51857,2.48663 -3.66897,-1.09391 -5.70965,-2.72605 -6.2211,-6.71944 0.21857,-3.76645 1.04792,-7.52148 2.71625,-10.9253 0,0 1.03313,0.61987 1.03313,0.61987 z"
     inkscape:connector-curvature="0" />
  <path
     style="color:#000000;fill:#00000e;fill-opacity:1;fill-rule:nonzero;stroke:none;stroke-width:1.00699997;marker:none;visibility:visible;display:inline;overflow:visible;enable-background:accumulate"
     id="path4095-0"
     d="m 402.92831,277.96544 c 3.55822,-1.4882 7.11575,-2.98629 10.76069,-4.25305 2.22412,-0.65337 1.12757,-0.365 3.28757,-0.87299 0,0 0.27517,1.17298 0.27517,1.17298 l 0,0 c -2.07708,0.48599 -1.02053,0.20937 -3.16746,0.83814 -3.65037,1.26691 -7.20922,2.77477 -10.77498,4.25791 0,0 -0.38099,-1.14299 -0.38099,-1.14299 z"
     inkscape:connector-curvature="0" />
  <path
     style="color:#000000;fill:#00000e;fill-opacity:1;fill-rule:nonzero;stroke:none;stroke-width:1.00699997;marker:none;visibility:visible;display:inline;overflow:visible;enable-background:accumulate"
     id="path4097-8"
     d="m 424.54326,277.28024 c 0,0.82124 0,1.64249 0,2.46374 0,0.24711 0,0.49422 0,0.74133 0,0.0574 0.0562,0.18371 0,0.17209 -1.53196,-0.31696 -1.24982,-0.15233 -1.05143,-1.33845 0.13808,-3.02828 1.68965,-5.2811 3.73081,-7.40392 0,0 0.8654,0.83825 0.8654,0.83825 l 0,0 c -1.91289,1.95879 -3.29685,3.96421 -3.40994,6.77626 -0.19172,1.00449 0.0509,0.84016 -1.33966,1.12786 -0.0562,0.0116 0,-0.11473 0,-0.17209 0,-0.24711 0,-0.49422 0,-0.74133 0,-0.82125 0,-1.6425 0,-2.46374 0,0 1.20482,0 1.20482,0 z"
     inkscape:connector-curvature="0" />
  <path
     style="color:#000000;fill:#00000e;fill-opacity:1;fill-rule:nonzero;stroke:none;stroke-width:1.00699997;marker:none;visibility:visible;display:inline;overflow:visible;enable-background:accumulate"
     id="path4099-4"
     d="m 431.61986,271.35518 c -0.42787,3.54894 -1.03092,7.13368 -0.4376,10.68869 0.95593,2.77477 2.84573,2.97912 4.94477,1.21161 1.93407,-2.36478 3.14008,-5.2836 3.48827,-8.31063 0.001,-0.38609 0.003,-0.77219 0.004,-1.15829 0,0 1.20479,0.008 1.20479,0.008 l 0,0 c -0.004,0.43148 -0.008,0.86296 -0.0125,1.29444 -0.41862,3.33907 -1.71397,6.55734 -3.93815,9.1123 -0.43955,0.33025 -0.82742,0.74385 -1.31865,0.99076 -2.54528,1.27937 -4.8861,-0.4957 -5.56159,-2.95479 -0.58645,-3.69124 -0.0345,-7.39778 0.43836,-11.0802 0,0 1.18843,0.19807 1.18843,0.19807 z"
     inkscape:connector-curvature="0" />
  <path
     style="color:#000000;fill:#00000e;fill-opacity:1;fill-rule:nonzero;stroke:none;stroke-width:1.00699997;marker:none;visibility:visible;display:inline;overflow:visible;enable-background:accumulate"
     id="path4101-1"
     d="m 442.46538,270.28063 c -0.30559,3.49476 -0.95978,7.01691 -0.77571,10.53349 0.043,0.19188 0.276,0.44492 0.12909,0.57564 -0.22048,0.19618 -0.36506,-0.58042 -0.24607,-0.8505 0.16515,-0.37481 0.44271,-0.69094 0.62736,-1.05654 0.67016,-1.32684 0.76547,-1.82192 1.24166,-3.27953 0.60431,-1.25852 1.74779,-6.45712 3.22792,-6.97584 0.31724,-0.11118 0.67208,0.0178 1.00812,0.0267 0.1901,0.36037 0.44729,0.69268 0.57031,1.0811 0.66071,2.08623 0.39478,5.77069 0.4163,7.99957 -0.0496,0.42732 -0.0281,4.09406 0.7525,4.13453 0.10336,0.005 -0.0852,-0.20936 -0.0495,-0.3065 0.0691,-0.18798 0.22891,-0.3287 0.34336,-0.49306 1.59671,-2.20645 2.09026,-5.00298 3.88325,-7.07119 0.22729,-0.10057 0.43804,-0.34991 0.68187,-0.3017 1.37168,0.2712 2.18955,3.72413 2.73419,4.87723 1.22724,2.5843 3.20417,4.4012 5.59527,5.87896 0.3717,0.17542 0.7434,0.35085 1.1151,0.52627 0,0 -0.51755,1.08799 -0.51755,1.08799 l 0,0 c -0.41111,-0.19694 -0.82222,-0.39389 -1.23332,-0.59084 -2.58018,-1.61044 -4.7252,-3.59211 -6.0496,-6.38928 -0.21027,-0.4482 -1.68172,-3.62272 -1.64871,-4.04769 0.0269,-0.34594 0.62393,-0.0997 0.22259,-0.23977 -1.86332,2.01872 -2.1411,5.03336 -3.93612,7.1269 -0.32973,0.2747 -0.58207,0.68835 -0.9892,0.82409 -2.36072,0.78709 -2.14257,-3.94087 -2.10891,-5.00433 -0.0256,-2.65991 -0.12952,-5.36444 -0.26814,-7.98996 0.10897,-0.0913 0.40014,-0.39569 0.32691,-0.27385 -0.0843,0.14023 -0.24117,0.2212 -0.36175,0.3318 -0.18218,0.30504 -0.36437,0.61007 -0.54656,0.9151 -0.85499,1.67306 -1.44561,3.46835 -2.02371,5.24982 -0.23428,0.70953 -2.97288,8.73121 -4.10005,4.29409 -0.16654,-3.59577 0.45253,-7.19083 0.78637,-10.76305 0,0 1.19271,0.17039 1.19271,0.17039 z"
     inkscape:connector-curvature="0" />
  <path
     style="color:#000000;fill:#00000e;fill-opacity:1;fill-rule:nonzero;stroke:none;stroke-width:1.00699997;marker:none;visibility:visible;display:inline;overflow:visible;enable-background:accumulate"
     id="path4103-7"
     d="m 494.16049,273.40349 c -2.9297,0.16599 -5.50569,1.33229 -7.52439,3.43582 -1.16867,2.03302 -0.5253,2.9223 1.69493,2.82117 3.51007,-0.74058 5.89834,-3.55318 7.92104,-6.31385 2.52377,-3.49527 3.40326,-7.46851 3.20695,-11.70747 -0.0704,-0.66019 -0.41459,-4.32863 -1.41575,-4.48405 -0.29384,-0.0456 -0.36001,0.47409 -0.52168,0.72367 -1.62943,4.19921 -1.60665,8.88148 -1.78261,13.32779 0.0104,5.64944 0.89805,11.2432 2.72337,16.58309 1.00956,2.72067 0.47768,1.41233 1.58329,3.93005 0,0 -1.10339,0.48387 -1.10339,0.48387 l 0,0 c -1.13543,-2.59264 -0.59195,-1.25232 -1.62025,-4.02508 -1.86512,-5.48292 -2.78685,-11.2202 -2.78689,-17.01965 0.18728,-4.71744 0.0917,-9.8007 2.14675,-14.14403 0.34328,-0.2736 0.61307,-0.68295 1.02983,-0.82079 2.53645,-0.83893 2.79649,4.11058 2.95101,5.39276 0.18472,4.51412 -0.74581,8.7534 -3.43983,12.47338 -2.26306,3.06988 -4.94206,6.10586 -8.88499,6.80511 -3.36141,-0.073 -4.36441,-2.01384 -2.56518,-4.86628 2.27701,-2.31145 5.11435,-3.63916 8.38779,-3.80033 0,0 0,1.20482 0,1.20482 z"
     inkscape:connector-curvature="0" />
  <path
     style="color:#000000;fill:#00000e;fill-opacity:1;fill-rule:nonzero;stroke:none;stroke-width:1.00699997;marker:none;visibility:visible;display:inline;overflow:visible;enable-background:accumulate"
     id="path4105-0"
     d="m 495.43584,281.49072 c 3.29638,-1.95702 6.82617,-3.47984 10.38949,-4.87513 2.12425,-0.83213 4.34387,-1.3146 6.58676,-1.68074 0,0 0.19341,1.18919 0.19341,1.18919 l 0,0 c -2.15937,0.34984 -4.29596,0.81334 -6.34107,1.6135 -3.50119,1.36957 -6.96951,2.86506 -10.20871,4.7863 0,0 -0.61988,-1.03312 -0.61988,-1.03312 z"
     inkscape:connector-curvature="0" />
  <path
     style="color:#000000;fill:#00000e;fill-opacity:1;fill-rule:nonzero;stroke:none;stroke-width:3;marker:none;visibility:visible;display:inline;overflow:visible;enable-background:accumulate"
     id="path5123"
     d="m 361.64817,309.48805 c -1.19629,-0.9613 -2.95138,-2.61481 -4.68832,-2.26016 -0.88541,0.18079 -2.18109,1.55553 -2.72739,2.0563 -2.54365,3.2772 -3.47419,5.77867 -2.44356,9.80178 1.31976,2.39271 4.00938,2.77937 6.50237,2.7397 0.41817,-0.0774 0.83635,-0.15479 1.25453,-0.23219 0,0 0.21176,1.18607 0.21176,1.18607 l 0,0 c -0.48367,0.0836 -0.96734,0.16723 -1.45101,0.25084 -3.08175,0.0301 -6.21202,-0.62676 -7.68594,-3.64996 -1.11765,-4.50025 -0.0706,-7.37912 2.80848,-10.99411 0.5637,-0.49405 1.057,-1.08245 1.6911,-1.48215 2.86072,-1.80323 5.18125,-0.18539 7.37991,1.73195 0,0 -0.85193,0.85193 -0.85193,0.85193 z"
     inkscape:connector-curvature="0" />
  <path
     style="color:#000000;fill:#00000e;fill-opacity:1;fill-rule:nonzero;stroke:none;stroke-width:3;marker:none;visibility:visible;display:inline;overflow:visible;enable-background:accumulate"
     id="path5125"
     d="m 365.4045,315.8206 c 1.93686,-1.62898 4.51738,-3.54669 4.35348,-6.34985 -1.05271,-2.00359 -3.14984,-0.4076 -4.39226,0.5123 -2.1836,2.01026 -3.86422,4.51144 -3.69876,7.55298 0.86555,3.16787 2.84237,2.67627 5.43659,1.77987 2.82979,-1.22627 4.80389,-3.51297 6.43476,-6.04966 0.4896,-0.63062 1.15266,-2.89908 2.1703,-0.93217 0.0381,0.0737 -0.46766,1.85975 -0.47009,1.86864 -0.64847,0.91693 -0.40781,4.34032 -0.96783,5.02458 -0.0915,0.11176 -0.01,-0.28867 -0.0143,-0.43301 -0.076,-0.12101 -0.28211,-0.23083 -0.2279,-0.36303 0.11536,-0.28131 0.44169,-0.41916 0.64233,-0.6476 1.45812,-1.66013 2.83694,-3.38694 4.3256,-5.02239 0.74959,-0.70225 2.94249,-4.25844 4.47085,-3.21503 0.26559,0.18131 0.36364,0.53048 0.54546,0.79573 0.19092,2.76142 -0.53009,5.51647 -0.88876,8.25131 -0.24264,2.19745 -0.13474,1.11266 -0.3256,3.25417 0,0 -1.20005,-0.10706 -1.20005,-0.10706 l 0,0 c 0.1942,-2.17492 0.0845,-1.07358 0.33107,-3.30385 0.33534,-2.55477 0.91915,-5.09957 0.95371,-7.67562 0.10683,-0.0303 0.38339,-0.2028 0.27299,-0.19087 -1.43958,0.15552 -2.31692,2.18677 -3.26899,3.00257 -1.17175,1.2853 -2.30692,2.60525 -3.43767,3.92666 -0.22418,0.26198 -1.2834,1.6689 -1.71906,1.91124 -0.36545,0.20329 -0.80521,0.22622 -1.20782,0.33932 -0.14465,-0.25177 -0.36367,-0.47357 -0.43397,-0.7553 -0.2056,-0.82392 0.90544,-4.1068 0.98813,-5.11083 0.0522,-0.1901 0.40289,-1.49087 0.42802,-1.50224 2.14451,-0.9697 0.17318,1.31216 0.0458,1.53823 -1.7903,2.76273 -3.95935,5.22901 -7.06265,6.53808 -3.44302,1.13248 -6.06448,1.16849 -7.02483,-2.87455 -0.0936,-3.46604 1.63856,-6.29799 4.19497,-8.57524 2.22946,-1.59065 5.0218,-3.01811 6.30456,0.44023 -0.0258,3.23466 -2.40768,5.42199 -4.80544,7.31319 0,0 -0.75265,-0.9408 -0.75265,-0.9408 z"
     inkscape:connector-curvature="0" />
  <path
     style="color:#000000;fill:#00000e;fill-opacity:1;fill-rule:nonzero;stroke:none;stroke-width:3;marker:none;visibility:visible;display:inline;overflow:visible;enable-background:accumulate"
     id="path5127"
     d="m 393.86984,304.71137 c -2.26912,2.93371 -3.82518,6.34663 -5.14034,9.79469 -0.35221,0.87376 -1.24999,4.53807 -0.216,5.2773 0.47823,0.3419 1.14095,0.28395 1.71143,0.42592 0,0 -0.43647,1.12298 -0.43647,1.12298 l 0,0 c -0.80738,-0.39355 -1.75087,-0.58388 -2.42213,-1.18067 -1.16059,-1.03183 -0.19297,-4.90123 0.23768,-6.07548 1.36316,-3.56302 2.97434,-7.08792 5.32502,-10.11739 0,0 0.94081,0.75265 0.94081,0.75265 z"
     inkscape:connector-curvature="0" />
  <path
     style="color:#000000;fill:#00000e;fill-opacity:1;fill-rule:nonzero;stroke:none;stroke-width:3;marker:none;visibility:visible;display:inline;overflow:visible;enable-background:accumulate"
     id="path5129"
     d="m 386.07271,316.99459 c 3.18904,-2.08223 6.54297,-3.83225 9.96705,-5.48486 0.52692,-0.23288 1.05384,-0.46576 1.58075,-0.69865 0,0 0.48683,1.10209 0.48683,1.10209 l 0,0 c -0.51463,0.2272 -1.02926,0.45441 -1.5439,0.68161 -3.37406,1.62843 -6.68007,3.3499 -9.82241,5.40228 0,0 -0.66832,-1.00247 -0.66832,-1.00247 z"
     inkscape:connector-curvature="0" />
  <path
     style="color:#000000;fill:#00000e;fill-opacity:1;fill-rule:nonzero;stroke:none;stroke-width:3;marker:none;visibility:visible;display:inline;overflow:visible;enable-background:accumulate"
     id="path5133"
     d="m 390.25064,321.23451 c 3.31772,0.65257 6.60188,0.48567 9.89698,-0.13919 0,0 0.22395,1.18382 0.22395,1.18382 l 0,0 c -3.4248,0.64638 -6.84367,0.81958 -10.29132,0.14808 0,0 0.17039,-1.19271 0.17039,-1.19271 z"
     inkscape:connector-curvature="0" />
  <path
     style="color:#000000;fill:#00000e;fill-opacity:1;fill-rule:nonzero;stroke:none;stroke-width:3;marker:none;visibility:visible;display:inline;overflow:visible;enable-background:accumulate"
     id="path5135"
     d="m 401.28903,311.8739 c -1.35038,2.50792 -2.21203,5.23818 -3.27935,7.87202 -0.30687,-1.32331 -0.10294,1.08216 -0.24949,0.83233 -0.24775,-0.42235 -0.61791,-0.84897 -0.60529,-1.33847 0.017,-0.66101 2.23478,-3.78648 2.60346,-4.33424 2.11655,-3.08602 4.62167,-5.69468 8.0257,-7.29029 1.59306,-0.42635 2.75879,0.0369 4.1474,0.7508 0,0 -0.56814,1.06245 -0.56814,1.06245 l 0,0 c -1.01133,-0.56854 -1.87332,-0.96983 -3.07165,-0.72058 -3.21444,1.47836 -5.53517,3.9831 -7.53464,6.87161 -0.2595,0.38341 -2.3884,4.13702 -2.55412,4.25463 -0.45076,0.31989 -1.05457,0.35831 -1.60364,0.42184 -0.33332,0.0386 1.43588,-1.72242 0.29387,-0.96278 1.09164,-2.691 1.96908,-5.48278 3.36277,-8.0392 0,0 1.03312,0.61988 1.03312,0.61988 z"
     inkscape:connector-curvature="0" />
  <path
     style="color:#000000;fill:#00000e;fill-opacity:1;fill-rule:nonzero;stroke:none;stroke-width:3;marker:none;visibility:visible;display:inline;overflow:visible;enable-background:accumulate"
     id="path5137"
     d="m 417.30662,310.37688 c -2.96895,0.74506 -5.09166,2.04056 -6.74369,4.62038 -0.60779,1.03737 -1.6628,4.04698 0.51246,3.84171 0.25124,-0.0859 0.53923,-0.10129 0.75372,-0.25782 2.01561,-1.47106 3.77172,-4.60992 5.14002,-6.70529 2.43837,-3.18579 0.86768,5.23218 0.86029,5.3037 -0.13356,1.34249 -0.19844,2.68991 -0.26188,4.03701 0,0 -1.20349,-0.0568 -1.20349,-0.0568 l 0,0 c 0.0647,-1.36951 0.13088,-2.73934 0.26694,-4.10414 0.0475,-0.45927 0.44866,-4.74315 0.60907,-4.88015 0.28554,-0.24384 0.78072,-0.29982 1.11829,-0.13538 0.18705,0.0911 -0.25374,0.32982 -0.38061,0.49473 -1.49153,2.28153 -3.46068,5.7887 -5.81136,7.20293 -0.34546,0.20783 -0.78054,0.20223 -1.17081,0.30335 -0.37224,-0.0525 -0.77035,-0.0114 -1.11674,-0.15747 -2.25334,-0.95031 -1.11424,-4.05479 -0.32609,-5.54302 1.87984,-2.85522 4.22978,-4.34654 7.55581,-5.1522 0,0 0.19807,1.18842 0.19807,1.18842 z"
     inkscape:connector-curvature="0" />
  <path
     style="color:#000000;fill:#00000e;fill-opacity:1;fill-rule:nonzero;stroke:none;stroke-width:3;marker:none;visibility:visible;display:inline;overflow:visible;enable-background:accumulate"
     id="path5139"
     d="m 425.75344,296.27474 c -0.49669,4.33809 -1.22907,8.63878 -1.64761,12.9866 -0.40427,4.85694 -0.53545,9.73019 -0.60393,14.60159 0,0 -1.2047,-0.0169 -1.2047,-0.0169 l 0,0 c 0.069,-4.90435 0.20153,-9.81054 0.60937,-14.70026 0.4215,-4.36606 1.15402,-8.68516 1.65416,-13.04138 0,0 1.19271,0.17039 1.19271,0.17039 z"
     inkscape:connector-curvature="0" />
  <path
     style="color:#000000;fill:#00000e;fill-opacity:1;fill-rule:nonzero;stroke:none;stroke-width:3;marker:none;visibility:visible;display:inline;overflow:visible;enable-background:accumulate"
     id="path5141"
     d="m 447.4271,310.37688 c -2.72889,0.5875 -4.71729,2.24444 -5.83008,4.77896 -0.32011,1.95742 1.30996,1.67975 2.5972,1.17886 2.96867,-2.07293 4.45291,-5.79122 5.62376,-9.09108 0.97391,-2.9885 1.21427,-6.12999 1.40932,-9.24608 0.0309,-0.42532 0.018,-1.645 1.23208,0.12545 0.002,0.003 -0.71881,6.0207 -0.75441,6.41099 -0.32235,4.13837 -0.42241,8.2898 -0.48308,12.43894 -0.0459,1.39623 -0.051,2.76954 0.11478,4.15538 0,0 -1.19682,0.13859 -1.19682,0.13859 l 0,0 c -0.1617,-1.43874 -0.18026,-2.86283 -0.12265,-4.31159 0.0612,-4.17982 0.16235,-8.36195 0.48794,-12.53087 0.0551,-0.60313 0.41714,-5.96623 0.74956,-6.2836 0.30216,-0.28849 0.78008,-0.34677 1.19715,-0.3709 0.10107,-0.006 -0.0147,0.20194 -0.0221,0.30291 -0.20227,3.22819 -0.46095,6.48091 -1.47672,9.57476 -1.29497,3.62787 -2.9581,7.68596 -6.34619,9.81905 -2.52706,0.8751 -4.71734,0.37729 -4.10754,-2.80744 1.33342,-2.87698 3.57838,-4.81476 6.72971,-5.47075 0,0 0.19807,1.18842 0.19807,1.18842 z"
     inkscape:connector-curvature="0" />
  <path
     style="color:#000000;fill:#00000e;fill-opacity:1;fill-rule:nonzero;stroke:none;stroke-width:3;marker:none;visibility:visible;display:inline;overflow:visible;enable-background:accumulate"
     id="path5143"
     d="m 457.22892,309.44255 c 0,3.36472 0,6.72944 0,10.09415 0,0 -1.20482,0 -1.20482,0 l 0,0 c 0,-3.36471 0,-6.72943 0,-10.09415 0,0 1.20482,0 1.20482,0 z"
     inkscape:connector-curvature="0" />
  <path
     style="color:#000000;fill:#00000e;fill-opacity:1;fill-rule:nonzero;stroke:none;stroke-width:3;marker:none;visibility:visible;display:inline;overflow:visible;enable-background:accumulate"
     id="path5145"
     d="m 469.79531,303.78875 c 1.35296,-2.45931 2.42295,-5.05675 2.20381,-7.89328 -0.43427,-1.72285 -1.52935,-3.19277 -3.31904,-2.19797 -2.56762,2.26604 -3.72298,5.68411 -4.74699,8.85014 -1.4076,6.61225 -1.79062,13.43495 -1.68214,20.18281 -0.0417,2.18071 0.30942,4.30237 0.81588,6.40883 0,0 -1.17191,0.27971 -1.17191,0.27971 l 0,0 c -0.51981,-2.19293 -0.89059,-4.40124 -0.84864,-6.66955 -0.10627,-6.87958 0.27877,-13.83715 1.74086,-20.57378 1.1319,-3.47503 2.41904,-7.23563 5.39173,-9.57377 0.40059,-0.16116 0.77687,-0.40658 1.20176,-0.48347 2.18118,-0.39471 3.42723,1.97628 3.82056,3.69581 0.18389,3.09255 -0.86093,5.91599 -2.37276,8.5944 0,0 -1.03312,-0.61988 -1.03312,-0.61988 z"
     inkscape:connector-curvature="0" />
  <path
     style="color:#000000;fill:#00000e;fill-opacity:1;fill-rule:nonzero;stroke:none;stroke-width:3;marker:none;visibility:visible;display:inline;overflow:visible;enable-background:accumulate"
     id="path5147"
     d="m 460.04496,312.6506 c 1.70137,0 3.40273,0 5.10409,0 0,0 0,1.20482 0,1.20482 l 0,0 c -1.70136,0 -3.40272,0 -5.10409,0 0,0 0,-1.20482 0,-1.20482 z"
     inkscape:connector-curvature="0" />
  <path
     style="color:#000000;fill:#00000e;fill-opacity:1;fill-rule:nonzero;stroke:none;stroke-width:3;marker:none;visibility:visible;display:inline;overflow:visible;enable-background:accumulate"
     id="path5149"
     d="m 481.8435,303.78875 c 1.47333,-2.57617 2.39942,-5.26757 2.20349,-8.24137 -0.41595,-1.76963 -1.44615,-3.92755 -2.71898,-1.34862 -2.16919,4.70138 -3.00613,9.936 -3.78759,15.02179 -0.75895,5.47016 -0.93054,10.99415 -1.02852,16.5082 -0.0336,2.35939 -0.0351,4.71905 -0.0305,7.07862 0,0 -1.20481,0.002 -1.20481,0.002 l 0,0 c -0.005,-2.36749 -0.003,-4.73507 0.0307,-7.10238 0.0991,-5.56819 0.27408,-11.14634 1.04234,-16.66996 0.80841,-5.24922 1.6733,-10.65615 3.96382,-15.48839 0.34148,-0.46297 0.58399,-1.01883 1.02443,-1.3889 0.26822,-0.22536 0.65279,-0.30049 1.00284,-0.31447 1.93048,-0.0771 2.60585,2.16167 2.90901,3.6306 0.17187,3.22253 -0.7546,6.14327 -2.37309,8.93242 0,0 -1.03312,-0.61988 -1.03312,-0.61988 z"
     inkscape:connector-curvature="0" />
  <path
     style="color:#000000;fill:#00000e;fill-opacity:1;fill-rule:nonzero;stroke:none;stroke-width:3;marker:none;visibility:visible;display:inline;overflow:visible;enable-background:accumulate"
     id="path5151"
     d="m 470.64519,312.51468 c 3.05696,-0.49907 6.14412,-0.75972 9.23445,-0.93241 1.3661,-0.0702 2.73374,-0.0955 4.10119,-0.12041 0,0 0.0219,1.20462 0.0219,1.20462 l 0,0 c -1.35238,0.0246 -2.70494,0.0494 -4.05599,0.11874 -3.04649,0.16988 -6.08988,0.42634 -9.10353,0.91789 0,0 -0.19807,-1.18843 -0.19807,-1.18843 z"
     inkscape:connector-curvature="0" />
  <path
     style="color:#000000;fill:#00000e;fill-opacity:1;fill-rule:nonzero;stroke:none;stroke-width:3;marker:none;visibility:visible;display:inline;overflow:visible;enable-background:accumulate"
     id="path5153"
     d="m 485.01155,314.80292 c 3.34321,-1.23748 6.7834,-2.27024 9.91063,-4.00552 2.04144,-1.44904 2.47546,-2.30538 0.0436,-3.31939 -3.09989,-0.70283 -5.65327,0.64799 -8.16386,2.31786 -2.16045,1.69946 -3.83995,3.87065 -3.56418,6.70918 0.99449,3.21865 3.99521,3.60167 6.9472,3.88158 3.05838,0.0651 6.00882,-0.4607 8.91528,-1.35161 0,0 0.35118,1.15251 0.35118,1.15251 l 0,0 c -3.06104,0.92752 -6.16527,1.48579 -9.3842,1.39816 -3.79002,-0.38394 -6.85183,-0.92958 -8.03069,-4.98764 -0.20563,-3.30635 1.51599,-5.82834 4.10005,-7.80661 2.87101,-1.89459 5.82346,-3.33257 9.32947,-2.40949 3.27229,1.58767 2.87121,3.56699 0.0386,5.47013 -3.19885,1.75871 -6.69313,2.84427 -10.11207,4.09383 0,0 -0.381,-1.14299 -0.381,-1.14299 z"
     inkscape:connector-curvature="0" />
  <path
     style="color:#000000;fill:#00000e;fill-opacity:1;fill-rule:nonzero;stroke:none;stroke-width:3;marker:none;visibility:visible;display:inline;overflow:visible;enable-background:accumulate"
     id="path5161"
     d="m 500.4501,313.01193 c -0.11172,0.5047 -0.67477,5.62242 -0.86914,5.57932 -0.47809,-0.10599 -0.84677,-0.49212 -1.27015,-0.73818 0.0993,-3.48822 1.68513,-6.70235 3.57817,-9.55572 1.86446,-2.62004 4.44392,-4.55429 7.74862,-4.47196 1.45851,0.31221 0.75973,0.0311 2.07988,0.88307 0,0 -0.691,0.98696 -0.691,0.98696 l 0,0 c -0.81561,-0.6484 -0.34326,-0.40927 -1.44175,-0.66637 -2.855,-0.20011 -5.09733,1.75447 -6.6932,3.93649 -1.73862,2.59577 -3.18179,5.51719 -3.39312,8.68458 -0.35077,0.17884 -0.67922,0.41068 -1.0523,0.53653 -0.0718,0.0242 0.0706,-0.13632 0.0859,-0.21056 0.062,-0.30061 0.10125,-0.60554 0.14523,-0.90932 0.20506,-1.41627 0.35067,-2.84071 0.58443,-4.25291 0,0 1.18843,0.19807 1.18843,0.19807 z"
     inkscape:connector-curvature="0" />
  <path
     style="color:#000000;fill:#00000e;fill-opacity:1;fill-rule:nonzero;stroke:none;stroke-width:3;marker:none;visibility:visible;display:inline;overflow:visible;enable-background:accumulate"
     id="path5165"
     d="m 508.23575,312.38035 c 2.62131,-0.86437 5.98473,-1.80125 7.31241,-4.47749 -0.20132,-1.19423 -2.31773,-1.10081 -3.23924,-1.05751 -2.44123,0.41364 -4.27168,1.53768 -5.87809,3.36314 -1.92135,2.48866 -1.20332,3.92648 1.19476,5.60761 2.60631,1.48521 5.2029,1.56281 7.99417,0.65769 1.84601,-0.88759 0.92455,-0.4303 2.76407,-1.37252 0,0 0.54909,1.07242 0.54909,1.07242 l 0,0 c -1.91919,0.98227 -0.93707,0.49858 -2.94777,1.44817 -3.16961,0.99201 -6.13472,0.88689 -9.06407,-0.82839 -2.934,-2.16325 -3.76697,-4.32927 -1.39259,-7.38334 1.83593,-2.06492 3.96527,-3.34443 6.74048,-3.76894 1.90579,-0.0424 4.77184,0.25334 4.34251,2.82818 -1.64508,2.94204 -5.005,4.16002 -8.08352,5.07983 0,0 -0.29221,-1.16885 -0.29221,-1.16885 z"
     inkscape:connector-curvature="0" />
  <path
     style="color:#000000;fill:#00000e;fill-opacity:1;fill-rule:nonzero;stroke:none;stroke-width:3;marker:none;visibility:visible;display:inline;overflow:visible;enable-background:accumulate"
     id="path5167"
     d="m 523.16266,304.55877 c -0.92972,3.18578 -1.67035,6.43283 -2.36622,9.67853 -0.15249,-0.096 -0.45377,2.81129 -0.7233,2.64166 -1.53669,-0.96713 -0.16303,-2.08015 0.45839,-3.05735 1.92682,-3.38351 4.1229,-6.5684 6.65181,-9.52839 2.52872,-2.5433 4.149,-2.47596 4.20334,1.442 -0.0914,2.14305 -0.26051,4.28173 -0.3968,6.4222 0,0 -1.20238,-0.0766 -1.20238,-0.0766 l 0,0 c 0.13456,-2.11293 0.30011,-4.22413 0.39437,-6.33939 0.0125,-2.36068 0.41517,-2.92178 -2.08301,-0.66505 -2.49637,2.91416 -4.6499,6.05893 -6.55087,9.39203 -0.23172,0.36386 -0.46953,0.72391 -0.69515,1.09159 -0.17815,0.29031 -0.20327,0.7469 -0.51593,0.88202 -2.3328,1.00821 -0.77025,-1.67647 -0.7185,-2.45744 0.71063,-3.31166 1.46164,-6.62699 2.4256,-9.87331 0,0 1.11865,0.44746 1.11865,0.44746 z"
     inkscape:connector-curvature="0" />
  <path
     style="color:#000000;fill:#00000e;fill-opacity:1;fill-rule:nonzero;stroke:none;stroke-width:3;marker:none;visibility:visible;display:inline;overflow:visible;enable-background:accumulate"
     id="path5169"
     d="m 540.69277,307.48942 c 0.50799,-1.75788 0.8848,-3.58901 -0.72106,-4.8124 -2.99971,-0.61093 -5.20821,3.15492 -6.56364,5.29848 -1.50688,2.79439 -2.69743,5.88143 -0.9629,8.80889 1.9854,2.13335 4.73784,1.56709 7.26491,0.89835 0.50426,-0.21945 1.00852,-0.43889 1.51278,-0.65833 0,0 0.47616,1.10674 0.47616,1.10674 l 0,0 c -0.56158,0.23912 -1.12316,0.47825 -1.68474,0.71737 -3.0974,0.79783 -6.33302,1.23993 -8.6179,-1.47116 -1.85516,-3.40428 -0.81378,-6.80912 0.99536,-10.04891 1.76118,-2.74898 4.55086,-7.05597 8.35138,-5.57691 1.9304,1.70401 1.81582,3.84945 1.06829,6.18534 0,0 -1.11864,-0.44746 -1.11864,-0.44746 z"
     inkscape:connector-curvature="0" />
  <path
     style="color:#000000;fill:#00000e;fill-opacity:1;fill-rule:nonzero;stroke:none;stroke-width:3;marker:none;visibility:visible;display:inline;overflow:visible;enable-background:accumulate"
     id="path5171"
     d="m 548.46386,303.35395 c -1.12607,3.19514 -1.50803,6.60657 -1.80965,9.96446 -0.038,0.58928 -0.076,1.17856 -0.11405,1.76784 0,0 -1.20231,-0.0777 -1.20231,-0.0777 l 0,0 c 0.0388,-0.59939 0.0776,-1.19878 0.1164,-1.79818 0.31349,-3.47405 0.71455,-7.00145 1.89096,-10.30388 0,0 1.11865,0.44746 1.11865,0.44746 z"
     inkscape:connector-curvature="0" />
  <path
     style="color:#000000;fill:#00000e;fill-opacity:1;fill-rule:nonzero;stroke:none;stroke-width:3;marker:none;visibility:visible;display:inline;overflow:visible;enable-background:accumulate"
     id="path5173"
     d="m 553.15119,302.69237 c -1.35655,4.03738 -2.09654,8.23533 -2.75175,12.43177 -1.39875,-1.3125 0.41384,1.5009 0.0532,1.27523 -0.97028,-0.60709 0.82986,-2.66097 1.14463,-3.20527 1.84266,-3.295 3.84705,-6.48387 6.21398,-9.42837 3.22279,-3.04315 2.78176,2.16492 2.66928,3.90095 -0.21268,2.56561 -0.4121,5.13199 -0.58011,7.70091 0,0 -1.20225,-0.0786 -1.20225,-0.0786 l 0,0 c 0.16809,-2.56894 0.36712,-5.13538 0.58011,-7.70099 0.0343,-0.5187 0.1644,-2.07687 0.13435,-2.75965 -0.01,-0.2159 -0.14106,-0.43058 -0.0939,-0.64148 0.0255,-0.11417 0.2672,-0.0909 0.28359,-0.20678 0.012,-0.0849 -0.1843,-0.0294 -0.25668,0.0166 -0.22343,0.14184 -0.39727,0.34977 -0.59591,0.52465 -2.33301,2.89325 -4.29394,6.03744 -6.10983,9.27657 -0.82855,1.42909 -3.56415,6.08247 -3.43084,1.14042 0.66565,-4.26265 1.42097,-8.526 2.79916,-12.62689 0,0 1.14299,0.381 1.14299,0.381 z"
     inkscape:connector-curvature="0" />
  <path
     style="color:#000000;fill:#00000e;fill-opacity:1;fill-rule:nonzero;stroke:none;stroke-width:3;marker:none;visibility:visible;display:inline;overflow:visible;enable-background:accumulate"
     id="path5175"
     d="m 572.54966,307.5 c -2.60786,-1.06912 -5.12835,-1.5597 -7.86236,-0.79546 -2.64135,1.29761 -4.1409,3.53763 -4.11683,6.46983 0.53053,2.29411 2.41772,2.73138 4.49653,2.46087 3.71356,-0.96641 4.73439,-2.13781 6.33451,-5.55435 0.53303,-1.21149 0.80066,-2.48873 0.831,-3.80723 0.004,-0.15446 -0.15391,-0.55525 -0.0303,-0.46253 1.03333,0.77524 0.65139,1.06007 0.38673,2.0741 -0.88744,6.22614 -1.61853,12.43464 -3.08998,18.55669 -0.52285,1.45907 -0.87166,2.99279 -1.56853,4.37721 -2.78704,5.53681 -7.86267,10.62578 -13.38054,13.44887 -1.09276,0.55909 -2.28028,0.90951 -3.42042,1.36427 -6.2645,1.51301 -9.68351,0.34199 -12.78555,-5.27722 -0.1942,-0.69261 -0.38841,-1.38522 -0.58261,-2.07783 0,0 1.16252,-0.31646 1.16252,-0.31646 l 0,0 c 0.15924,0.60575 0.31849,1.21151 0.47774,1.81727 2.72897,5.06884 5.63663,6.06295 11.28439,4.73402 1.07687,-0.42299 2.1987,-0.7458 3.23062,-1.26898 5.2723,-2.6731 10.20634,-7.55364 12.87996,-12.83124 0.68077,-1.3438 1.02071,-2.83463 1.53107,-4.25194 1.48049,-6.13769 2.18203,-12.36755 3.10286,-18.60564 0.37017,-1.21424 0.18364,-2.10134 1.97472,-1.80965 0.44715,0.0728 -0.65569,4.58913 -0.91412,4.85055 -1.7983,3.78308 -3.16906,5.22755 -7.2866,6.23705 -3.02192,0.31003 -5.14093,-0.45555 -5.83878,-3.66561 0.0638,-3.48831 1.79811,-6.15069 5.00611,-7.62483 3.00063,-0.79316 5.76853,-0.34906 8.62533,0.8396 0,0 -0.44746,1.11864 -0.44746,1.11864 z"
     inkscape:connector-curvature="0" />
  <path
     style="color:#000000;fill:#00000e;fill-opacity:1;fill-rule:nonzero;stroke:none;stroke-width:3;marker:none;visibility:visible;display:inline;overflow:visible;enable-background:accumulate"
     id="path5177"
     d="m 335.97028,152.92784 c 3.07951,1.93437 5.91321,4.22184 8.501,6.76939 2.94051,3.36967 5.6945,6.89331 8.63624,10.26269 2.57408,3.11283 5.20234,6.12751 7.25206,9.61614 2.69169,4.27263 5.08629,8.70693 7.29809,13.24173 2.36164,4.28869 3.79981,8.90763 4.88951,13.65331 0.83187,4.53692 1.42656,9.11793 2.04967,13.68914 0.48235,4.0551 0.59912,8.13109 1.02577,12.19207 0.46878,4.08128 0.68193,8.1859 0.81491,12.29003 0.0738,2.63267 0.0783,5.26653 0.0779,7.90002 -3.9e-4,0.17614 -7.9e-4,0.35228 -0.001,0.52843 0,0 -1.20481,-0.003 -1.20481,-0.003 l 0,0 c 3.9e-4,-0.17529 7.9e-4,-0.35058 0.001,-0.52587 3.5e-4,-2.62043 -0.004,-5.24125 -0.0773,-7.86087 -0.13187,-4.07512 -0.34324,-8.15076 -0.80895,-12.20316 -0.42521,-4.04878 -0.54461,-8.11209 -1.02133,-12.15526 -0.61781,-4.53549 -1.20934,-9.08035 -2.03021,-13.58248 -1.06678,-4.65731 -2.47752,-9.18751 -4.79807,-13.39448 -2.19831,-4.50716 -4.57861,-8.91411 -7.2545,-13.16041 -2.00569,-3.42688 -4.60162,-6.37311 -7.12037,-9.43326 -2.92178,-3.34702 -5.662,-6.84302 -8.57458,-10.19717 -2.51543,-2.48476 -5.28028,-4.70599 -8.27492,-6.59415 0,0 0.61987,-1.03312 0.61987,-1.03312 z"
     inkscape:connector-curvature="0" />
  <path
     style="color:#000000;fill:#00000e;fill-opacity:1;fill-rule:nonzero;stroke:none;stroke-width:3;marker:none;visibility:visible;display:inline;overflow:visible;enable-background:accumulate"
     id="path5179"
     d="m 332.17286,147.48481 c 1.61203,3.72308 2.8584,7.55113 3.59565,11.53914 0.61041,3.74108 0.58057,7.53906 1.27937,11.26479 0,0 -1.18435,0.22114 -1.18435,0.22114 l 0,0 c -0.69316,-3.72827 -0.68744,-7.52319 -1.27995,-11.2679 -0.71609,-3.91083 -1.95196,-7.6595 -3.52937,-11.30971 0,0 1.11865,-0.44746 1.11865,-0.44746 z"
     inkscape:connector-curvature="0" />
  <path
     style="color:#000000;fill:#00000e;fill-opacity:1;fill-rule:nonzero;stroke:none;stroke-width:3;marker:none;visibility:visible;display:inline;overflow:visible;enable-background:accumulate"
     id="path5181"
     d="m 329.00989,147.89658 c 5.87015,1.83883 11.63965,3.98656 17.40333,6.13166 2.26031,0.76994 4.46351,1.69116 6.68527,2.56286 0,0 -0.44005,1.12158 -0.44005,1.12158 l 0,0 c -2.21519,-0.86914 -4.41171,-1.78804 -6.66549,-2.5553 -5.72174,-2.12987 -11.44991,-4.25977 -17.27528,-6.09195 0,0 0.29222,-1.16885 0.29222,-1.16885 z"
     inkscape:connector-curvature="0" />
</svg>
