<?xml version="1.0" encoding="UTF-8" standalone="no"?>
<!-- Created with Inkscape (http://www.inkscape.org/) -->

<svg
   xmlns:dc="http://purl.org/dc/elements/1.1/"
   xmlns:cc="http://creativecommons.org/ns#"
   xmlns:rdf="http://www.w3.org/1999/02/22-rdf-syntax-ns#"
   xmlns:svg="http://www.w3.org/2000/svg"
   xmlns="http://www.w3.org/2000/svg"
   xmlns:sodipodi="http://sodipodi.sourceforge.net/DTD/sodipodi-0.dtd"
   xmlns:inkscape="http://www.inkscape.org/namespaces/inkscape"
   width="800"
   height="400"
   id="svg2"
   version="1.1"
   inkscape:version="0.48.3.1 r9886"
   sodipodi:docname="downstream.png">
  <defs
     id="defs4">
    <marker
       inkscape:stockid="Arrow2Lend"
       orient="auto"
       refY="0"
       refX="0"
       id="Arrow2Lend"
       style="overflow:visible">
      <path
         id="path3782"
         style="fill-rule:evenodd;stroke-width:0.625;stroke-linejoin:round"
         d="M 8.7185878,4.0337352 -2.2072895,0.01601326 8.7185884,-4.0017078 c -1.7454984,2.3720609 -1.7354408,5.6174519 -6e-7,8.035443 z"
         transform="matrix(-1.1,0,0,-1.1,-1.1,0)"
         inkscape:connector-curvature="0" />
    </marker>
    <marker
       inkscape:stockid="Arrow2Lend"
       orient="auto"
       refY="0"
       refX="0"
       id="Arrow2Lend-4"
       style="overflow:visible">
      <path
         inkscape:connector-curvature="0"
         id="path3782-3"
         style="fill-rule:evenodd;stroke-width:0.625;stroke-linejoin:round"
         d="M 8.7185878,4.0337352 -2.2072895,0.01601326 8.7185884,-4.0017078 c -1.7454984,2.3720609 -1.7354408,5.6174519 -6e-7,8.035443 z"
         transform="matrix(-1.1,0,0,-1.1,-1.1,0)" />
    </marker>
    <marker
       inkscape:stockid="Arrow2Lend"
       orient="auto"
       refY="0"
       refX="0"
       id="Arrow2Lend-4-2"
       style="overflow:visible">
      <path
         inkscape:connector-curvature="0"
         id="path3782-3-3"
         style="fill-rule:evenodd;stroke-width:0.625;stroke-linejoin:round"
         d="M 8.7185878,4.0337352 -2.2072895,0.01601326 8.7185884,-4.0017078 c -1.7454984,2.3720609 -1.7354408,5.6174519 -6e-7,8.035443 z"
         transform="matrix(-1.1,0,0,-1.1,-1.1,0)" />
    </marker>
    <marker
       inkscape:stockid="Arrow2Lend"
       orient="auto"
       refY="0"
       refX="0"
       id="Arrow2Lend-4-1"
       style="overflow:visible">
      <path
         inkscape:connector-curvature="0"
         id="path3782-3-4"
         style="fill-rule:evenodd;stroke-width:0.625;stroke-linejoin:round"
         d="M 8.7185878,4.0337352 -2.2072895,0.01601326 8.7185884,-4.0017078 c -1.7454984,2.3720609 -1.7354408,5.6174519 -6e-7,8.035443 z"
         transform="matrix(-1.1,0,0,-1.1,-1.1,0)" />
    </marker>
    <marker
       inkscape:stockid="Arrow2Lend"
       orient="auto"
       refY="0"
       refX="0"
       id="Arrow2Lend-9"
       style="overflow:visible">
      <path
         inkscape:connector-curvature="0"
         id="path3782-5"
         style="fill-rule:evenodd;stroke-width:0.625;stroke-linejoin:round"
         d="M 8.7185878,4.0337352 -2.2072895,0.01601326 8.7185884,-4.0017078 c -1.7454984,2.3720609 -1.7354408,5.6174519 -6e-7,8.035443 z"
         transform="matrix(-1.1,0,0,-1.1,-1.1,0)" />
    </marker>
  </defs>
  <sodipodi:namedview
     id="base"
     pagecolor="#ffffff"
     bordercolor="#666666"
     borderopacity="1.0"
     inkscape:pageopacity="0.0"
     inkscape:pageshadow="2"
     inkscape:zoom="0.49497475"
     inkscape:cx="591.10392"
     inkscape:cy="370.2294"
     inkscape:document-units="px"
     inkscape:current-layer="layer1"
     showgrid="false"
     inkscape:window-width="839"
     inkscape:window-height="653"
     inkscape:window-x="139"
     inkscape:window-y="31"
     inkscape:window-maximized="0" />
  <metadata
     id="metadata7">
    <rdf:RDF>
      <cc:Work
         rdf:about="">
        <dc:format>image/svg+xml</dc:format>
        <dc:type
           rdf:resource="http://purl.org/dc/dcmitype/StillImage" />
        <dc:title></dc:title>
      </cc:Work>
    </rdf:RDF>
  </metadata>
  <g
     inkscape:label="Layer 1"
     inkscape:groupmode="layer"
     id="layer1"
     transform="translate(0,-652.36217)">
    <path
       style="fill:none;stroke:#000000;stroke-width:1px;stroke-linecap:butt;stroke-linejoin:miter;stroke-opacity:1;marker-end:url(#Arrow2Lend)"
       d="m 263.93187,996.92362 0,-327.14286"
       id="path2987"
       inkscape:connector-curvature="0" />
    <path
       style="fill:none;stroke:#000000;stroke-width:1px;stroke-linecap:butt;stroke-linejoin:miter;stroke-opacity:1;marker-end:url(#Arrow2Lend)"
       d="m 264.23215,996.94123 327.14284,0"
       id="path2987-2"
       inkscape:connector-curvature="0" />
    <path
       style="fill:none;stroke:#ff0000;stroke-width:1px;stroke-linecap:butt;stroke-linejoin:miter;stroke-opacity:1"
       d="M 266.78901,994.06648 549.64615,745.49505"
       id="path4407"
       inkscape:connector-curvature="0" />
    <path
       style="fill:none;stroke:#00ff00;stroke-width:1px;stroke-linecap:butt;stroke-linejoin:miter;stroke-opacity:1;marker-end:url(#Arrow2Lend-4)"
       d="m 265.36044,931.20934 61.42857,-58.57143"
       id="path4413"
       inkscape:connector-curvature="0" />
    <path
       style="fill:none;stroke:#00ff00;stroke-width:1px;stroke-linecap:butt;stroke-linejoin:miter;stroke-opacity:1;marker-end:url(#Arrow2Lend-4)"
       d="m 264.42166,878.99536 61.42857,-58.57143"
       id="path4413-1"
       inkscape:connector-curvature="0" />
    <path
       style="fill:none;stroke:#00ff00;stroke-width:1px;stroke-linecap:butt;stroke-linejoin:miter;stroke-opacity:1;marker-end:url(#Arrow2Lend-4)"
       d="m 262.99309,829.28107 61.42857,-58.57143"
       id="path4413-2"
       inkscape:connector-curvature="0" />
    <path
       style="fill:none;stroke:#000000;stroke-width:1.00699997;stroke-linecap:butt;stroke-linejoin:miter;stroke-miterlimit:4;stroke-opacity:1;stroke-dasharray:8.056, 8.056;stroke-dashoffset:0;marker-end:none"
       d="m 548.2352,995.19477 0,-331.51855"
       id="path2987-28"
       inkscape:connector-curvature="0" />
    <path
       style="color:#000000;fill:#00000e;fill-opacity:1;fill-rule:nonzero;stroke:none;stroke-width:1.00699997;marker:none;visibility:visible;display:inline;overflow:visible;enable-background:accumulate"
       id="path5044"
       d="m 219.79005,661.2583 c -2.11284,5.50558 -3.55971,11.20953 -4.1006,17.07896 -0.0234,5.76412 0.71569,8.49901 6.14564,10.82273 3.73447,1.19528 7.49194,0.79741 11.26765,0.14042 0,0 0.24254,1.40783 0.24254,1.40783 l 0,0 c -4.05662,0.69229 -8.08464,1.08723 -12.08254,-0.23934 -6.01168,-2.67808 -7.05275,-5.8388 -6.9957,-12.26422 0.56685,-6.01623 2.03094,-11.86767 4.20994,-17.50912 0,0 1.31307,0.56274 1.31307,0.56274 z"
       inkscape:connector-curvature="0" />
    <path
       style="color:#000000;fill:#00000e;fill-opacity:1;fill-rule:nonzero;stroke:none;stroke-width:1.00699997;marker:none;visibility:visible;display:inline;overflow:visible;enable-background:accumulate"
       id="path5046"
       d="m 203.18683,676.20933 c 6.35942,-0.84634 12.57195,-2.59005 18.75327,-4.26515 5.17783,-1.65561 10.44941,-2.97117 15.70609,-4.34303 0,0 0.36073,1.38228 0.36073,1.38228 l 0,0 c -5.25239,1.37071 -10.51959,2.68529 -15.6932,4.3396 -6.30103,1.70723 -12.63742,3.49712 -19.12689,4.31487 0,0 0,-1.42857 0,-1.42857 z"
       inkscape:connector-curvature="0" />
    <path
       style="color:#000000;fill:#00000e;fill-opacity:1;fill-rule:nonzero;stroke:none;stroke-width:1.00699997;marker:none;visibility:visible;display:inline;overflow:visible;enable-background:accumulate"
       id="path5048"
       d="m 611.19116,991.70182 c 3.84026,-2.7899 8.29237,-3.64511 12.91256,-4.10854 3.00328,-0.14173 7.52641,0.7447 7.61229,4.61343 0.0144,0.64916 -0.23664,1.2769 -0.35496,1.91535 -2.15477,4.14643 -6.08297,6.93584 -10.19075,8.94874 -2.35283,0.8696 -1.17922,0.4998 -3.51702,1.1215 0,0 -0.36472,-1.3812 -0.36472,-1.3812 l 0,0 c 2.16369,-0.567 1.07739,-0.2292 3.25545,-1.0242 3.73122,-1.81105 7.29408,-4.32565 9.42146,-7.97007 1.10048,-4.1182 -2.27495,-4.84263 -5.72018,-4.80201 -4.39112,0.43404 -8.61358,1.21489 -12.2617,3.87564 0,0 -0.79243,-1.18864 -0.79243,-1.18864 z"
       inkscape:connector-curvature="0" />
    <path
       style="color:#000000;fill:#00000e;fill-opacity:1;fill-rule:nonzero;stroke:none;stroke-width:1.00699997;marker:none;visibility:visible;display:inline;overflow:visible;enable-background:accumulate"
       id="path5052"
       d="m 644.8478,984.78076 c -2.51545,-0.0862 -4.98371,-0.004 -7.46731,0.39768 -2.33813,0.50236 -3.99777,1.7171 -5.48195,3.52814 -1.24641,1.97482 -1.51111,4.18583 -0.94186,6.41362 3.02213,3.48962 7.10623,5.9444 11.57841,7.0221 2.53633,0.044 1.26694,0.089 3.80807,-0.139 0,0 0.12451,1.4232 0.12451,1.4232 l 0,0 c -2.80442,0.2391 -1.37987,0.2 -4.27402,0.103 -4.94747,-1.2407 -9.56863,-3.91799 -12.6253,-8.0726 -0.62406,-2.68924 -0.32951,-5.31755 1.23053,-7.66221 1.7197,-2.05326 3.67427,-3.47611 6.3544,-4.02664 2.55898,-0.41118 5.10354,-0.50564 7.69452,-0.41586 0,0 0,1.42857 0,1.42857 z"
       inkscape:connector-curvature="0" />
    <path
       style="color:#000000;fill:#00000e;fill-opacity:1;fill-rule:nonzero;stroke:none;stroke-width:1.00699997;marker:none;visibility:visible;display:inline;overflow:visible;enable-background:accumulate"
       id="path5054"
       d="m 391.76478,776.0018 c -2.63297,-0.86649 -4.82953,0.55704 -6.7043,2.2816 -2.65731,2.43715 -3.71056,5.55217 -4.32574,8.99431 3.6e-4,1.78129 -0.18113,3.84273 2.06909,2.92861 3.39762,-1.95207 5.35056,-5.55795 7.17166,-8.88538 2.11848,-3.97049 2.76694,-8.37788 3.1288,-12.79812 0.17668,-2.90682 0.19619,-5.82137 0.15807,-8.73258 -0.003,-0.0449 -0.006,-0.0897 -0.009,-0.13456 0.47271,0.14061 1.05394,0.0893 1.41815,0.42185 0.21321,0.19468 -0.006,0.57743 -0.008,0.86615 -0.01,1.57188 -0.0109,3.14381 -0.0136,4.71571 -0.005,4.0558 -0.005,8.1116 -0.005,12.1674 0.17119,2.35045 0.54974,4.67855 0.8547,7.01382 0,0 -1.41654,0.18497 -1.41654,0.18497 l 0,0 c -0.31288,-2.39647 -0.70438,-4.78552 -0.86673,-7.19884 1.2e-4,-4.0566 -5e-5,-8.11321 0.005,-12.16981 6.1e-4,-0.35089 0.0106,-5.59803 0.0214,-5.60821 1.45182,-1.36625 1.41496,-0.86546 1.44718,-0.27713 0.0385,2.95645 0.0185,5.9163 -0.16275,8.86821 -0.38095,4.62019 -1.08098,9.22131 -3.29986,13.36782 -2.00043,3.64398 -4.17154,7.55593 -7.98615,9.5584 -3.53358,0.97535 -4.05625,-1.55548 -3.91327,-4.54149 0.68006,-3.74999 1.88017,-7.14937 4.77199,-9.79932 2.28919,-2.05085 4.96454,-3.61866 8.11576,-2.57867 0,0 -0.45175,1.35526 -0.45175,1.35526 z"
       inkscape:connector-curvature="0" />
    <path
       style="color:#000000;fill:#00000e;fill-opacity:1;fill-rule:nonzero;stroke:none;stroke-width:1.00699997;marker:none;visibility:visible;display:inline;overflow:visible;enable-background:accumulate"
       id="path5056"
       d="m 398.33401,771.70182 c 2.38936,-1.43632 4.80659,-2.09028 7.44028,-1.03174 3.3154,2.60672 2.96762,4.7739 0.93473,8.14706 -1.88356,2.71569 -4.37294,4.89225 -7.15473,6.64132 0,0 -0.75804,-1.21086 -0.75804,-1.21086 l 0,0 c 2.60112,-1.62069 4.92344,-3.65712 6.69468,-6.17684 1.56736,-2.50935 2.18983,-3.88104 -0.27857,-6.08727 -2.11457,-0.98509 -4.14813,-0.19874 -6.08592,0.90697 0,0 -0.79243,-1.18864 -0.79243,-1.18864 z"
       inkscape:connector-curvature="0" />
    <path
       style="color:#000000;fill:#00000e;fill-opacity:1;fill-rule:nonzero;stroke:none;stroke-width:1.00699997;marker:none;visibility:visible;display:inline;overflow:visible;enable-background:accumulate"
       id="path5058"
       d="m 416.27637,773.35219 c -2.49127,0.422 -4.37927,1.95782 -5.77082,3.98484 -1.23229,2.09209 -0.83397,3.76962 1.20057,4.98248 1.66263,0.833 3.25884,0.71857 5.02579,0.39423 0,0 0.24571,1.40728 0.24571,1.40728 l 0,0 c -2.12616,0.35513 -4.06122,0.4449 -6.0337,-0.59326 -2.65696,-1.7446 -3.28483,-4.20992 -1.6094,-7.00896 1.69171,-2.3857 3.95535,-4.19629 6.94185,-4.59518 0,0 0,1.42857 0,1.42857 z"
       inkscape:connector-curvature="0" />
    <path
       style="color:#000000;fill:#00000e;fill-opacity:1;fill-rule:nonzero;stroke:none;stroke-width:1.00699997;marker:none;visibility:visible;display:inline;overflow:visible;enable-background:accumulate"
       id="path5060"
       d="m 371.75825,801.92362 c 5.35509,-0.85654 10.63454,-2.13707 15.94249,-3.24359 8.01446,-1.87329 16.17491,-2.99156 24.25368,-4.52306 3.3966,-0.55642 6.74605,-1.24502 10.067,-2.14303 0,0 0.37275,1.37908 0.37275,1.37908 l 0,0 c -3.35633,0.90675 -6.74128,1.60564 -10.17381,2.16755 -8.07056,1.52838 -16.22187,2.64796 -24.22813,4.51798 -5.40251,1.12582 -10.77589,2.44958 -16.23398,3.27364 0,0 0,-1.42857 0,-1.42857 z"
       inkscape:connector-curvature="0" />
    <path
       style="color:#000000;fill:#00000e;fill-opacity:1;fill-rule:nonzero;stroke:none;stroke-width:1.00699997;marker:none;visibility:visible;display:inline;overflow:visible;enable-background:accumulate"
       id="path5062"
       d="m 391.99065,816.20934 c -2.58663,-0.25208 -4.68031,0.48046 -6.76431,1.95581 -2.39219,2.54116 -3.87796,5.80285 -4.24563,9.26373 0.46124,3.23305 1.47685,3.67783 4.32719,2.54322 3.56648,-1.67681 5.68705,-4.54465 7.32432,-8.01094 1.37459,-3.27556 1.78522,-6.79095 1.98641,-10.30285 -0.27259,-2.18172 0.67188,-6.49802 -0.0811,-8.41687 1.57242,1.67304 1.07476,4.34136 1.09453,6.35924 0.0136,1.39186 0.038,2.7836 0.0614,4.17533 0.037,2.19724 0.10473,5.37706 0.15087,7.60758 0,0 -1.42827,0.0295 -1.42827,0.0295 l 0,0 c -0.0814,-3.93502 -0.17448,-7.87042 -0.21255,-11.80618 -0.018,-1.85893 -0.31201,-5.48223 0.76203,-7.28592 0.18122,-0.30434 0.62495,0.3336 0.93743,0.5004 0.76032,2.84576 -0.0727,6.0106 0.14182,8.91899 -0.21384,3.69627 -0.66178,7.39274 -2.12262,10.83453 -1.81585,3.79104 -4.18625,6.93155 -8.11271,8.73476 -4.02469,1.43786 -5.80704,0.19114 -6.24829,-4.04154 0.46102,-3.8673 2.07247,-7.49552 4.84546,-10.27304 2.32901,-1.61665 4.71022,-2.48111 7.58398,-2.21437 0,0 0,1.42858 0,1.42858 z"
       inkscape:connector-curvature="0" />
    <path
       style="color:#000000;fill:#00000e;fill-opacity:1;fill-rule:nonzero;stroke:none;stroke-width:1.00699997;marker:none;visibility:visible;display:inline;overflow:visible;enable-background:accumulate"
       id="path5064"
       d="m 404.64615,807.43627 c -0.62932,3.59206 -0.94482,7.22522 -1.17105,10.86163 0.0304,3.32962 0.14134,6.82157 2.90841,9.03929 2.79544,1.67085 5.46336,1.7217 8.20025,0.002 0,0 0.74357,1.2198 0.74357,1.2198 l 0,0 c -3.52034,2.09334 -6.3559,1.95472 -9.86486,-0.12997 -3.27595,-2.87047 -3.34196,-6.07884 -3.41318,-10.22012 0.22489,-3.60551 0.51568,-7.2154 1.16829,-10.77281 0,0 1.42857,0 1.42857,0 z"
       inkscape:connector-curvature="0" />
    <path
       style="color:#000000;fill:#00000e;fill-opacity:1;fill-rule:nonzero;stroke:none;stroke-width:1.00699997;marker:none;visibility:visible;display:inline;overflow:visible;enable-background:accumulate"
       id="path5066"
       d="m 399.13351,819.06648 c -3.97648,-0.88218 -1.78124,-2.43021 0.74398,-3.37271 3.84041,-1.20529 7.65764,-2.42381 11.61976,-3.1628 2.23458,-0.31552 1.12856,-0.18216 3.31768,-0.4034 0,0 0.14315,1.42138 0.14315,1.42138 l 0,0 c -2.11225,0.21198 -1.04564,0.0842 -3.19946,0.38648 -3.88496,0.72132 -7.62461,1.924 -11.39105,3.10022 -0.45817,0.16302 -0.92076,0.31413 -1.37451,0.48907 -0.16816,0.0648 -0.32098,0.29344 -0.48951,0.22959 -1.7568,-0.66552 0.55169,-0.4913 0.62996,-0.1164 0,0 0,1.42857 0,1.42857 z"
       inkscape:connector-curvature="0" />
    <path
       style="color:#000000;fill:#00000e;fill-opacity:1;fill-rule:nonzero;stroke:none;stroke-width:1.00699997;marker:none;visibility:visible;display:inline;overflow:visible;enable-background:accumulate"
       id="path5068"
       d="m 431.58737,783.35219 c 4.03006,0.0403 8.03603,-0.54052 12.05045,-0.85828 2.36933,-0.1382 4.72394,-0.2801 7.07851,-0.57498 0,0 0.17644,1.41763 0.17644,1.41763 l 0,0 c -2.37618,0.29401 -4.75126,0.4466 -7.14225,0.58147 -4.05178,0.32057 -8.09527,0.90534 -12.16315,0.86273 0,0 0,-1.42857 0,-1.42857 z"
       inkscape:connector-curvature="0" />
    <path
       style="color:#000000;fill:#00000e;fill-opacity:1;fill-rule:nonzero;stroke:none;stroke-width:1.00699997;marker:none;visibility:visible;display:inline;overflow:visible;enable-background:accumulate"
       id="path5070"
       d="m 432.79007,790.36082 c 3.9031,-0.59763 7.81274,-1.15678 11.71716,-1.77185 1.89129,-0.30469 3.79679,-0.49369 5.70315,-0.67018 0,0 0.13153,1.4225 0.13153,1.4225 l 0,0 c -1.87604,0.17324 -3.75121,0.35905 -5.61239,0.65885 -3.82696,0.60279 -7.65457,1.17395 -11.4877,1.71594 0,0 -0.45175,-1.35526 -0.45175,-1.35526 z"
       inkscape:connector-curvature="0" />
    <path
       style="color:#000000;fill:#00000e;fill-opacity:1;fill-rule:nonzero;stroke:none;stroke-width:1.00699997;marker:none;visibility:visible;display:inline;overflow:visible;enable-background:accumulate"
       id="path5072"
       d="m 475.79452,776.02458 c -3.57518,-0.82564 -7.1448,-0.59153 -10.66097,0.33203 -2.81343,0.99187 -6.14656,2.56349 -6.36587,5.90763 0.7839,2.38545 3.56575,1.89726 5.48539,1.41589 3.49213,-0.89524 6.43247,-2.72697 8.58316,-5.60953 0.76817,-0.96143 1.47097,-2.92892 2.65932,-0.91255 0.12281,0.20838 -0.0882,0.47584 -0.12049,0.71555 -0.054,0.40074 -0.0922,0.80345 -0.13827,1.20517 -0.42644,3.45783 -0.50207,6.89097 -0.13659,10.35052 0.27372,2.32474 0.0736,1.22133 0.56839,3.31586 0,0 -1.39125,0.3244 -1.39125,0.3244 l 0,0 c -0.52035,-2.25838 -0.31601,-1.0957 -0.59786,-3.49069 -0.37395,-3.56413 -0.30144,-7.10261 0.13821,-10.66429 0.10207,-0.87521 0.20138,-1.83926 0.25225,-1.8484 2.43068,-0.43668 0.0972,1.45184 -0.0936,1.86523 -2.3852,3.12677 -5.56099,5.17188 -9.3955,6.1392 -2.9631,0.66225 -6.56022,0.74043 -7.23394,-2.95533 0.52302,-3.97188 3.85318,-5.96453 7.42681,-7.14117 3.72868,-0.96228 7.51204,-1.22459 11.30098,-0.35035 0,0 -0.28017,1.40083 -0.28017,1.40083 z"
       inkscape:connector-curvature="0" />
    <path
       style="color:#000000;fill:#00000e;fill-opacity:1;fill-rule:nonzero;stroke:none;stroke-width:1.00699997;marker:none;visibility:visible;display:inline;overflow:visible;enable-background:accumulate"
       id="path5074"
       d="m 244.85369,1029.0423 c 1.51288,-2.9873 4.57187,-4.087 7.72028,-4.2365 3.01909,0.3343 6.31163,2.0726 6.19101,5.5684 -0.0252,0.7297 -0.28445,1.4323 -0.42667,2.1485 -1.5718,3.6411 -4.62749,5.9766 -8.15498,7.5485 0,0 -0.57501,-1.3077 -0.57501,-1.3077 l 0,0 c 3.11302,-1.348 5.84662,-3.4044 7.33322,-6.5406 0.16943,-0.7217 0.65683,-2.1517 0.37039,-2.9938 -0.66675,-1.96 -2.86839,-2.7411 -4.68493,-2.9957 -2.55362,0.063 -5.08439,0.902 -6.41805,3.2606 0,0 -1.35526,-0.4517 -1.35526,-0.4517 z"
       inkscape:connector-curvature="0" />
    <path
       style="color:#000000;fill:#00000e;fill-opacity:1;fill-rule:nonzero;stroke:none;stroke-width:1.00699997;marker:none;visibility:visible;display:inline;overflow:visible;enable-background:accumulate"
       id="path5076"
       d="m 271.76477,1023.1447 c -2.55462,-0.8489 -4.83672,0.6631 -7.02386,1.8077 -3.32205,1.7423 -4.66631,3.5262 -4.04578,7.323 0.8882,2.9184 3.14771,4.201 5.92194,4.9369 1.41364,0.3563 2.80139,0.3602 4.24083,0.2711 0,0 0.0799,1.4264 0.0799,1.4264 l 0,0 c -1.59382,0.081 -3.13085,0.086 -4.6933,-0.3183 -3.33205,-0.9145 -5.97311,-2.5925 -6.96264,-6.1077 -0.59619,-4.4243 0.89108,-6.7603 4.79672,-8.7972 2.54761,-1.3329 5.18232,-2.9055 8.13796,-1.8972 0,0 -0.45176,1.3553 -0.45176,1.3553 z"
       inkscape:connector-curvature="0" />
    <path
       style="color:#000000;fill:#00000e;fill-opacity:1;fill-rule:nonzero;stroke:none;stroke-width:1.00699997;marker:none;visibility:visible;display:inline;overflow:visible;enable-background:accumulate"
       id="path5078"
       d="m 278.73023,1026.2093 c 3.51737,-0.2629 7.06322,-0.6685 10.55811,-1.1981 2.65254,-0.475 5.31416,-0.8839 7.9884,-1.2132 0,0 0.17443,1.4179 0.17443,1.4179 l 0,0 c -2.66134,0.3271 -5.30971,0.7359 -7.94948,1.2079 -3.56594,0.5369 -7.18159,0.9556 -10.77146,1.2141 0,0 0,-1.4286 0,-1.4286 z"
       inkscape:connector-curvature="0" />
    <path
       style="color:#000000;fill:#00000e;fill-opacity:1;fill-rule:nonzero;stroke:none;stroke-width:1.00699997;marker:none;visibility:visible;display:inline;overflow:visible;enable-background:accumulate"
       id="path5080"
       d="m 275.87309,1031.9236 c 3.81672,0.077 7.6054,-0.5195 11.40078,-0.8576 4.47782,-0.7449 8.96607,-1.3611 13.49154,-1.7194 0,0 0.11264,1.4241 0.11264,1.4241 l 0,0 c -4.52099,0.3572 -9.00327,0.9803 -13.47744,1.7182 -3.83742,0.3416 -7.66828,0.9423 -11.52752,0.8633 0,0 0,-1.4286 0,-1.4286 z"
       inkscape:connector-curvature="0" />
    <path
       style="color:#000000;fill:#00000e;fill-opacity:1;fill-rule:nonzero;stroke:none;stroke-width:1.00699997;marker:none;visibility:visible;display:inline;overflow:visible;enable-background:accumulate"
       id="path5082"
       d="m 317.70494,1020.495 c -2.70483,0.5599 -5.02962,2.2823 -6.89598,4.2426 -2.13075,2.7285 -3.23672,5.7794 -1.83455,9.0675 2.45113,3.7028 6.50943,2.576 10.04968,1.2401 3.92398,-2.1156 7.24065,-5.3427 8.08542,-9.8275 -0.52517,-4.1875 -4.94593,-5.0377 -8.48286,-5.4382 -3.17993,-0.053 -5.88341,0.9122 -7.99973,3.2705 0,0 -1.05171,-0.9668 -1.05171,-0.9668 l 0,0 c 2.48879,-2.6544 5.54432,-3.8285 9.21838,-3.7224 4.43524,0.5397 9.39719,1.89 9.71649,7.1384 -1.08028,5.1064 -4.46207,8.4675 -8.98659,10.8844 -4.32242,1.5961 -9.08208,2.4933 -11.87555,-2.0482 -1.6427,-4.3281 -0.50677,-7.0057 2.13292,-10.5897 2.1587,-2.2118 4.79548,-4.1766 7.92408,-4.6792 0,0 0,1.4285 0,1.4285 z"
       inkscape:connector-curvature="0" />
    <path
       style="color:#000000;fill:#00000e;fill-opacity:1;fill-rule:nonzero;stroke:none;stroke-width:1.00699997;marker:none;visibility:visible;display:inline;overflow:visible;enable-background:accumulate"
       id="path5084"
       d="m 525.36801,1023.0488 c 2.63992,-1.9259 5.78629,-3.0274 9.02314,-3.3266 0.50935,0.2027 1.09893,0.2668 1.52803,0.608 2.70108,2.1474 0.95651,6.1977 -0.31821,8.5304 -1.59181,2.5065 -3.81527,4.1823 -6.65049,4.9783 0,0 -0.37058,-1.3796 -0.37058,-1.3796 l 0,0 c 2.47133,-0.626 4.37783,-2.1593 5.7721,-4.2921 1.11941,-1.9794 2.77471,-5.531 0.16242,-7.0218 -2.90667,0.2319 -5.7269,1.2655 -8.13626,2.9135 0,0 -1.01015,-1.0101 -1.01015,-1.0101 z"
       inkscape:connector-curvature="0" />
    <path
       style="color:#000000;fill:#00000e;fill-opacity:1;fill-rule:nonzero;stroke:none;stroke-width:1.00699997;marker:none;visibility:visible;display:inline;overflow:visible;enable-background:accumulate"
       id="path5086"
       d="m 550.16587,1021.4619 c -2.73277,-1.8042 -5.29569,-0.8689 -7.94714,0.5729 -2.39797,1.6846 -4.25778,4.0884 -3.88008,7.1237 1.07006,2.5501 3.61439,3.1702 6.08015,3.7011 1.99057,0.2868 1.03312,0.2358 2.86976,0.1958 0,0 0.0213,1.4284 0.0213,1.4284 l 0,0 c -2.09665,0.019 -1.03125,0.088 -3.1948,-0.2283 -3.09825,-0.6808 -6.10716,-1.6528 -7.19805,-4.9565 -0.29243,-3.6532 1.64239,-6.5073 4.62526,-8.5225 3.1228,-1.6619 6.24009,-2.6066 9.41604,-0.5033 0,0 -0.79243,1.1887 -0.79243,1.1887 z"
       inkscape:connector-curvature="0" />
    <path
       style="color:#000000;fill:#00000e;fill-opacity:1;fill-rule:nonzero;stroke:none;stroke-width:1.00699997;marker:none;visibility:visible;display:inline;overflow:visible;enable-background:accumulate"
       id="path5092"
       d="m 555.87309,1023.3522 c 3.42543,0.05 6.82203,-0.5359 10.22738,-0.8574 3.60594,-0.1325 7.16356,-0.6393 10.72802,-1.1633 0,0 0.20777,1.4134 0.20777,1.4134 l 0,0 c -3.5887,0.5275 -7.17137,1.0369 -10.80159,1.1722 -3.44981,0.3253 -6.89101,0.9169 -10.36158,0.8637 0,0 0,-1.4286 0,-1.4286 z"
       inkscape:connector-curvature="0" />
    <path
       style="color:#000000;fill:#00000e;fill-opacity:1;fill-rule:nonzero;stroke:none;stroke-width:1.00699997;marker:none;visibility:visible;display:inline;overflow:visible;enable-background:accumulate"
       id="path5094"
       d="m 557.30166,1027.6379 c 3.07833,0.1067 6.12168,-0.057 9.17908,-0.4022 3.60162,-0.4694 7.22166,-0.7387 10.84686,-0.9329 0,0 0.0764,1.4265 0.0764,1.4265 l 0,0 c -3.59719,0.1927 -7.18925,0.4596 -10.763,0.9259 -3.1105,0.351 -6.20788,0.5185 -9.33938,0.4113 0,0 0,-1.4286 0,-1.4286 z"
       inkscape:connector-curvature="0" />
    <path
       style="color:#000000;fill:#00000e;fill-opacity:1;fill-rule:nonzero;stroke:none;stroke-width:1.00699997;marker:none;visibility:visible;display:inline;overflow:visible;enable-background:accumulate"
       id="path5096"
       d="m 588.93187,1013.1505 c 0.0898,2.591 -0.005,5.1356 -0.41586,7.6946 -0.57579,3.0001 -0.79734,6.0417 -0.92089,9.0883 0.21527,2.8895 -0.3762,5.7141 -0.58007,8.5653 1.44041,0.5725 4.039,-0.3242 5.50296,-0.6021 2.95337,-0.5606 4.22309,-0.751 7.21993,-1.2454 0,0 0.23251,1.4095 0.23251,1.4095 l 0,0 c -3.14944,0.5195 -4.07557,0.6533 -7.1711,1.2365 -1.89275,0.3566 -4.92887,1.4666 -6.74649,0.1281 -0.30434,-0.2241 -0.30815,-0.6902 -0.46223,-1.0353 0.22835,-2.8364 0.77684,-5.6401 0.57709,-8.5146 0.12637,-3.1032 0.35301,-6.2014 0.93791,-9.2575 0.40118,-2.4836 0.48383,-4.9519 0.39767,-7.4674 0,0 1.42857,0 1.42857,0 z"
       inkscape:connector-curvature="0" />
    <path
       style="color:#000000;fill:#00000e;fill-opacity:1;fill-rule:nonzero;stroke:none;stroke-width:1.00699997;marker:none;visibility:visible;display:inline;overflow:visible;enable-background:accumulate"
       id="path5098"
       d="m 568.74712,725.06097 c -0.80217,4.31436 -0.90796,8.66061 -0.67732,13.02672 0.32612,4.50745 0.43652,9.01687 1.15782,13.48203 0.35174,2.13639 0.10206,1.17293 0.6731,2.909 0,0 -1.35983,0.43781 -1.35983,0.43781 l 0,0 c -0.61478,-1.94536 -0.35969,-0.90892 -0.72361,-3.11927 -0.72771,-4.51613 -0.84866,-9.07561 -1.17408,-13.63449 -0.23515,-4.48494 -0.12292,-8.95108 0.70309,-13.38197 0,0 1.40083,0.28017 1.40083,0.28017 z"
       inkscape:connector-curvature="0" />
    <path
       style="color:#000000;fill:#00000e;fill-opacity:1;fill-rule:nonzero;stroke:none;stroke-width:1.00699997;marker:none;visibility:visible;display:inline;overflow:visible;enable-background:accumulate"
       id="path5100"
       d="m 557.96502,730.30048 c 1.83681,-2.07786 4.32672,-3.47424 6.73663,-4.78925 3.084,-1.53196 6.54102,-1.84921 9.92559,-2.07457 2.89928,-0.14135 5.8032,-0.12431 8.70499,-0.11159 4.48322,1.24352 -2.40263,4.40166 -3.53557,5.01068 -2.56331,1.82462 -8.23575,2.7781 -9.57298,5.79297 0.0553,0.15204 0.055,0.33831 0.16587,0.45612 0.7264,0.77171 7.78975,1.8702 9.09918,2.09893 1.59788,0.27209 6.87966,1.49333 4.84823,4.2738 -0.30813,0.42176 -0.81445,0.65419 -1.22168,0.98128 -3.68341,2.33048 -7.91572,3.67081 -12.02583,5.05162 -2.00236,0.54551 -3.96262,1.22761 -5.93852,1.85911 0,0 -0.43489,-1.36076 -0.43489,-1.36076 l 0,0 c 1.96926,-0.62933 3.92292,-1.3093 5.91861,-1.85259 3.969,-1.33242 8.05781,-2.62271 11.62964,-4.84483 0.27727,-0.18056 0.54008,-0.38554 0.8318,-0.54168 0.10558,-0.0565 0.28407,0.0116 0.34785,-0.0897 0.67175,-1.06738 -3.99794,-2.11554 -4.20123,-2.069 -2.17592,-0.38073 -9.40686,-1.11977 -10.27518,-3.36941 -0.15274,-0.39573 -2.5e-4,-0.84837 -3.7e-4,-1.27256 2.1279,-3.53892 6.815,-4.3162 10.15332,-6.37169 1.83536,-0.98579 1.42288,-0.74202 3.06634,-1.7004 0.2882,-0.16807 0.55359,-0.38054 0.86076,-0.51075 0.21875,-0.0927 0.8683,0.21587 0.71184,0.0371 -0.10066,-0.11503 -0.28897,-0.0998 -0.43345,-0.14963 -2.86818,-0.0126 -5.73845,-0.0297 -8.6042,0.10848 -3.17742,0.2098 -6.43337,0.48424 -9.33683,1.9037 -2.2118,1.20224 -4.49141,2.48004 -6.23127,4.3271 0,0 -1.18865,-0.79242 -1.18865,-0.79242 z"
       inkscape:connector-curvature="0" />
    <path
       style="color:#000000;fill:#00000e;fill-opacity:1;fill-rule:nonzero;stroke:none;stroke-width:1.00699997;marker:none;visibility:visible;display:inline;overflow:visible;enable-background:accumulate"
       id="path5102"
       d="m 231.37184,973.64087 c -1.98488,4.42685 -3.70819,8.9584 -5.50316,13.46416 -2.3595,5.7726 -5.01817,11.41446 -7.32807,17.20777 -0.40401,1.3496 -0.98033,2.642 -1.39986,3.9864 -0.10262,0.3289 -0.17781,0.6661 -0.24539,1.0039 -0.0121,0.061 0.12575,-0.1286 0.0781,-0.1678 -1.0808,-0.8891 -1.18164,-0.034 -0.50204,-1.3412 2.52239,-5.255 4.70764,-10.66988 6.94986,-16.04941 2.72887,-5.83588 4.86686,-11.9239 7.38357,-17.84561 2.58661,-5.31955 4.99346,0.62563 5.98617,3.21936 1.87123,5.10004 2.98502,10.42315 4.24015,15.6948 0.93941,4.24207 1.97498,8.57266 1.86904,12.94346 0,0 -1.42801,-0.04 -1.42801,-0.04 l 0,0 c 0.13607,-4.2425 -0.94927,-8.45421 -1.83077,-12.57277 -1.24045,-5.21191 -2.33945,-10.4751 -4.18589,-15.51838 -0.0802,-0.21302 -1.92702,-5.33653 -2.63952,-4.47228 -0.31365,0.38047 -0.46442,0.86998 -0.69663,1.30497 -2.52004,5.91626 -4.64808,12.00508 -7.3795,17.83592 -2.26079,5.42393 -4.46264,10.88454 -7.01219,16.17994 -0.1968,0.3527 -0.24014,0.857 -0.59041,1.0581 -1.08282,0.6216 -1.7052,0.4009 -1.62859,-0.5727 0.0501,-0.6371 0.75383,-2.4706 0.89094,-2.8607 0.27128,-0.7718 0.54269,-1.5436 0.81403,-2.3154 2.31083,-5.79271 4.96602,-11.4358 7.32787,-17.20722 1.80991,-4.54307 3.54765,-9.11228 5.55255,-13.57432 0,0 1.27775,0.63887 1.27775,0.63887 z"
       inkscape:connector-curvature="0" />
    <path
       style="color:#000000;fill:#00000e;fill-opacity:1;fill-rule:nonzero;stroke:none;stroke-width:1.00699997;marker:none;visibility:visible;display:inline;overflow:visible;enable-background:accumulate"
       id="path5104"
       d="m 213.18683,991.92362 c 5.20502,-0.0195 10.40907,0.0992 15.60829,-0.16994 5.26941,-0.40121 10.54192,-0.74712 15.82054,-0.99892 0,0 0.0681,1.42695 0.0681,1.42695 l 0,0 c -5.27685,0.25161 -10.54751,0.5982 -15.81518,0.99866 -5.22387,0.26738 -10.45209,0.15514 -15.68171,0.17182 0,0 0,-1.42857 0,-1.42857 z"
       inkscape:connector-curvature="0" />
    <path
       style="color:#000000;fill:#00000e;fill-opacity:1;fill-rule:nonzero;stroke:none;stroke-width:1.00699997;marker:none;visibility:visible;display:inline;overflow:visible;enable-background:accumulate"
       id="path5110"
       d="m 655.88015,804.31904 c -3.37636,-1.6012 -7.16921,0.28374 -10.23079,1.83087 -2.94202,1.99178 -5.74368,4.64561 -5.03708,8.44739 1.10111,2.91372 3.79766,3.59274 6.57985,4.11768 3.25498,0.31393 6.10446,-0.91429 8.92946,-2.36205 0,0 0.65008,1.27208 0.65008,1.27208 l 0,0 c -3.11284,1.58655 -6.26924,2.88684 -9.84741,2.4932 -3.40429,-0.65679 -6.52397,-1.6993 -7.72272,-5.29589 -0.6588,-4.70556 2.12635,-7.44254 5.80653,-9.94896 3.55503,-1.7761 7.81218,-3.72618 11.66451,-1.74297 0,0 -0.79243,1.18865 -0.79243,1.18865 z"
       inkscape:connector-curvature="0" />
    <path
       style="color:#000000;fill:#00000e;fill-opacity:1;fill-rule:nonzero;stroke:none;stroke-width:1.00699997;marker:none;visibility:visible;display:inline;overflow:visible;enable-background:accumulate"
       id="path5112"
       d="m 666.50224,807.77213 c -2.47157,0.49952 -4.3349,1.97456 -5.79569,3.96624 -1.79554,3.14833 0.31291,4.16033 3.21155,4.36027 3.56784,0.0436 6.78506,-1.11543 9.06723,-3.88191 1.30669,-3.02885 -1.22941,-4.49964 -3.85942,-5.0143 -2.87228,-0.36603 -5.7401,0.25574 -7.32385,2.83921 0,0 -1.19881,-0.77697 -1.19881,-0.77697 l 0,0 c 2.03693,-3.02153 5.28248,-3.95594 8.82316,-3.45884 3.93265,0.90735 6.62286,3.05869 4.65163,7.33112 -2.644,3.0863 -6.21877,4.47244 -10.28961,4.38437 -4.27113,-0.46353 -6.58274,-2.33858 -4.22775,-6.63607 1.65604,-2.19629 3.72977,-3.8989 6.48981,-4.46838 0,0 0.45175,1.35526 0.45175,1.35526 z"
       inkscape:connector-curvature="0" />
    <path
       style="color:#000000;fill:#00000e;fill-opacity:1;fill-rule:nonzero;stroke:none;stroke-width:1.00699997;marker:none;visibility:visible;display:inline;overflow:visible;enable-background:accumulate"
       id="path5114"
       d="m 678.93187,807.43627 c 0,2.00628 0,4.01257 0,6.01885 -0.37288,-0.21853 -0.8389,-0.32612 -1.11863,-0.65559 -0.17094,-0.20133 2.73141,-6.92835 3.01251,-7.52778 1.90456,-3.6248 4.05328,-7.58101 8.12386,-8.98795 1.76764,0.14723 0.95565,-0.12417 2.44154,0.7973 0,0 -0.82779,1.1643 -0.82779,1.1643 l 0,0 c -0.64863,-0.5998 -0.26225,-0.38627 -1.18049,-0.60031 -3.69521,1.03461 -5.52263,5.17182 -7.26393,8.23369 -1.06059,2.25717 -1.97552,4.52914 -2.81783,6.87401 -0.10765,0.29967 -0.0408,0.77781 -0.33742,0.89368 -0.4573,0.17865 -0.9736,-0.12757 -1.46039,-0.19135 0,-2.00628 0,-4.01257 0,-6.01885 0,0 1.42857,0 1.42857,0 z"
       inkscape:connector-curvature="0" />
    <path
       style="color:#000000;fill:#00000e;fill-opacity:1;fill-rule:nonzero;stroke:none;stroke-width:1.00699997;marker:none;visibility:visible;display:inline;overflow:visible;enable-background:accumulate"
       id="path5116"
       d="m 692.36044,806.29341 c 0,2.43 0,4.85999 0,7.28999 0,0.0258 0,0.0516 0,0.0775 -0.47619,-0.18736 -1.13917,-0.14006 -1.42857,-0.5621 -0.26264,-0.383 1.50853,-5.97654 1.71292,-6.61029 1.30474,-3.32161 2.96899,-7.0183 6.55476,-8.2862 0,0 0.43563,1.36053 0.43563,1.36053 l 0,0 c -3.14947,0.84499 -4.46698,4.70768 -5.63101,7.3649 -0.54476,1.68273 -1.09166,3.3913 -1.48052,5.11907 -0.0779,0.3462 0.086,0.79933 -0.16321,1.05199 -0.35932,0.36436 -0.95238,0.37474 -1.42857,0.5621 0,-0.0258 0,-0.0516 0,-0.0775 0,-2.43 0,-4.85999 0,-7.28999 0,0 1.42857,0 1.42857,0 z"
       inkscape:connector-curvature="0" />
    <path
       style="color:#000000;fill:#00000e;fill-opacity:1;fill-rule:nonzero;stroke:none;stroke-width:1.00699997;marker:none;visibility:visible;display:inline;overflow:visible;enable-background:accumulate"
       id="path5118"
       d="m 702.1588,805.06648 c 3.18532,0.24745 6.09398,-0.5444 8.89913,-2.00559 0.11674,-0.0473 2.30134,-1.82852 1.62862,-2.37362 -0.13905,-0.11268 -0.32092,0.17733 -0.49854,0.19937 -0.34891,0.0433 -0.70316,-0.004 -1.05474,-0.007 -0.49479,0.0885 -0.98958,0.17703 -1.48437,0.26555 -2.99062,0.95918 -5.77038,2.58541 -7.48935,5.25683 -1.02891,2.77637 1.54672,3.34708 3.72676,3.85941 1.6697,0.32685 3.36777,0.4045 5.06163,0.49191 0,0 -0.0742,1.42664 -0.0742,1.42664 l 0,0 c -1.78102,-0.0932 -3.56632,-0.1775 -5.32067,-0.52938 -3.40416,-0.83108 -6.14551,-1.99297 -4.58779,-6.03258 1.98994,-2.98146 5.03382,-4.86069 8.45199,-5.88251 4.9782,-0.75886 6.40436,1.33974 2.29561,4.59464 -3.01407,1.5416 -6.13951,2.42531 -9.55413,2.16459 0,0 0,-1.42857 0,-1.42857 z"
       inkscape:connector-curvature="0" />
    <path
       style="color:#000000;fill:#00000e;fill-opacity:1;fill-rule:nonzero;stroke:none;stroke-width:1.00699997;marker:none;visibility:visible;display:inline;overflow:visible;enable-background:accumulate"
       id="path5120"
       d="m 730.93187,800.9824 c -0.38364,-2.71484 -2.92925,-3.17207 -5.26288,-3.16869 -4.38265,0.51037 -8.00587,2.60198 -10.65381,6.08092 -1.90229,3.04487 -2.77683,6.18376 0.0258,8.86457 3.69753,2.78081 7.25844,2.90145 11.66808,2.43489 2.39253,-0.28012 4.60112,-1.13858 6.80477,-2.04906 0,0 0.54356,1.32112 0.54356,1.32112 l 0,0 c -2.33232,0.95579 -4.66971,1.85776 -7.19939,2.14872 -4.86406,0.50535 -8.81325,0.26334 -12.8339,-2.85229 -3.58673,-3.79582 -2.50989,-6.56927 -0.13982,-10.74082 2.97305,-3.80502 6.93749,-6.1375 11.80236,-6.63651 3.14457,0.0745 6.27603,1.00893 6.67379,4.59715 0,0 -1.42857,0 -1.42857,0 z"
       inkscape:connector-curvature="0" />
    <path
       style="color:#000000;fill:#00000e;fill-opacity:1;fill-rule:nonzero;stroke:none;stroke-width:1.00699997;marker:none;visibility:visible;display:inline;overflow:visible;enable-background:accumulate"
       id="path5122"
       d="m 744.75586,792.40391 c -2.34062,3.36495 -3.46231,7.25441 -4.29426,11.21528 -0.54394,4.29828 0.0676,7.22605 3.8061,9.62051 4.02824,1.70441 8.53054,1.27967 12.50333,-0.33266 0.45915,-0.3021 0.91829,-0.6042 1.37743,-0.90629 0,0 0.77558,1.19971 0.77558,1.19971 l 0,0 c -0.54072,0.34428 -1.08145,0.68857 -1.62217,1.03286 -4.42944,1.75077 -9.37698,2.19939 -13.82063,0.19898 -4.2047,-2.83971 -5.07621,-6.15409 -4.41749,-11.10779 0.87507,-4.13661 2.05975,-8.19789 4.50346,-11.71303 0,0 1.18865,0.79243 1.18865,0.79243 z"
       inkscape:connector-curvature="0" />
    <path
       style="color:#000000;fill:#00000e;fill-opacity:1;fill-rule:nonzero;stroke:none;stroke-width:1.00699997;marker:none;visibility:visible;display:inline;overflow:visible;enable-background:accumulate"
       id="path5124"
       d="m 729.30166,800.78076 c 5.57021,-0.34034 11.14918,-0.74998 16.72915,-1.03432 0,0 0.0727,1.42672 0.0727,1.42672 l 0,0 c -5.60424,0.28552 -11.20682,0.69924 -16.80185,1.03618 0,0 0,-1.42858 0,-1.42858 z"
       inkscape:connector-curvature="0" />
    <path
       style="color:#000000;fill:#00000e;fill-opacity:1;fill-rule:nonzero;stroke:none;stroke-width:1.00699997;marker:none;visibility:visible;display:inline;overflow:visible;enable-background:accumulate"
       id="path5126"
       d="m 653.63476,844.49208 c 1.23982,-2.66318 1.76198,-5.55558 2.12409,-8.4475 0.0129,-2.48327 -0.33157,-5.0645 -2.08892,-6.93055 -1.93059,-0.23219 -2.9412,2.36688 -3.67979,3.7602 -1.75926,3.67434 -2.05728,7.78555 -2.318,11.78956 -0.2201,4.4677 -0.20268,8.9426 -0.19823,13.4144 0.006,2.4934 -0.0593,1.28146 0.17722,3.63676 0,0 -1.42169,0.14006 -1.42169,0.14006 l 0,0 c -0.24117,-2.49286 -0.17809,-1.23447 -0.1841,-3.77541 -0.004,-4.50333 -0.0217,-9.0098 0.20127,-13.50895 0.27579,-4.20706 0.61308,-8.51595 2.48245,-12.36762 1.2475,-2.3351 2.89306,-5.53534 6.00132,-4.04621 1.97378,2.25649 2.53527,5.11023 2.4459,8.06589 -0.3849,3.05185 -0.94659,6.10159 -2.26377,8.90825 0,0 -1.27775,-0.63888 -1.27775,-0.63888 z"
       inkscape:connector-curvature="0" />
    <path
       style="color:#000000;fill:#00000e;fill-opacity:1;fill-rule:nonzero;stroke:none;stroke-width:1.00699997;marker:none;visibility:visible;display:inline;overflow:visible;enable-background:accumulate"
       id="path5128"
       d="m 633.01358,850.34549 c 3.89648,-0.78835 7.88031,-0.96143 11.84188,-1.11774 4.10244,-0.40887 8.1915,-0.92831 12.29428,-1.33691 3.45263,-0.31231 1.84062,1.49835 0.11252,2.51189 -0.92417,0.83036 -3.1934,1.78921 -2.80916,3.34797 1.86455,1.07829 4.22216,0.81002 6.22693,0.42053 2.58001,-0.61 6.03079,-1.6726 6.71038,-4.58319 -0.36537,-2.46943 -2.80544,-2.72033 -4.8563,-2.49965 -1.71277,0.5856 -0.91881,0.19975 -2.39176,1.13699 0,0 -0.74842,-1.21683 -0.74842,-1.21683 l 0,0 c 1.8744,-1.12175 0.87398,-0.66838 3.00909,-1.3427 3.11305,-0.24842 6.30391,0.65531 6.35493,4.33528 -0.16945,0.48937 -0.24685,1.0211 -0.50835,1.46809 -1.45773,2.49178 -4.72084,3.47065 -7.30513,4.10589 -2.56191,0.46932 -6.44819,0.9566 -7.91809,-1.75179 0.0477,-2.29959 1.77853,-3.43632 3.51812,-4.65575 0.41343,-0.23759 0.72898,-0.81127 1.20421,-0.77215 0.15133,0.0125 -0.0647,0.32519 0.0135,0.45533 0.11942,0.19871 0.36759,0.28482 0.53046,0.4498 0.0457,0.0463 -0.11599,-0.0591 -0.17399,-0.0887 -0.2758,0.0335 -0.5516,0.067 -0.82739,0.10053 -4.13114,0.41142 -8.24816,0.93763 -12.37963,1.34284 -3.86398,0.15196 -7.74924,0.31843 -11.55163,1.07619 0,0 -0.34648,-1.38592 -0.34648,-1.38592 z"
       inkscape:connector-curvature="0" />
    <path
       style="color:#000000;fill:#00000e;fill-opacity:1;fill-rule:nonzero;stroke:none;stroke-width:1.00699997;marker:none;visibility:visible;display:inline;overflow:visible;enable-background:accumulate"
       id="path5130"
       d="m 673.21758,850.29341 c 0.24107,1.04834 0.42932,2.10704 0.63483,3.1625 0.067,0.34422 0.1238,0.69101 0.21116,1.03064 0.0307,0.11916 0.26033,0.37319 0.14161,0.34087 -0.42814,-0.11656 -0.78439,-0.41509 -1.17659,-0.62264 0.78337,-3.66766 2.60161,-6.76687 5.1077,-9.50338 2.47289,-2.35614 5.22793,-3.58894 8.58402,-2.79774 1.62116,0.70364 0.82063,0.28876 2.39347,1.26019 0,0 -0.75665,1.21173 -0.75665,1.21173 l 0,0 c -1.32212,-0.83613 -0.66029,-0.48193 -1.97403,-1.08372 -2.82367,-0.71066 -5.10025,0.40597 -7.19614,2.37748 -2.3641,2.54949 -4.04324,5.4597 -4.77552,8.89398 -0.51318,0.25905 -0.96877,0.70861 -1.53952,0.77715 -0.18874,0.0227 -0.98543,-4.61605 -1.08291,-5.04706 0,0 1.42857,0 1.42857,0 z"
       inkscape:connector-curvature="0" />
    <path
       style="color:#000000;fill:#00000e;fill-opacity:1;fill-rule:nonzero;stroke:none;stroke-width:1.00699997;marker:none;visibility:visible;display:inline;overflow:visible;enable-background:accumulate"
       id="path5132"
       d="m 723.21758,849.26812 c -0.67311,-2.37689 -3.52573,-3.08618 -5.61325,-3.6361 -3.97165,-0.30872 -6.55066,-0.0539 -9.17075,3.11347 -1.29361,1.99089 -2.0495,4.16029 0.38136,5.36706 2.83746,0.95704 5.62737,-0.67366 7.89971,-2.26038 1.16784,0.31523 3.91168,-5.106 4.50891,-5.31305 0.39664,-0.13751 0.83914,0.0279 1.2587,0.0419 1.05212,2.41393 0.71979,5.15283 1.18986,7.73533 0.49987,1.3393 0.19203,0.69029 0.92945,1.9442 0,0 -1.23846,0.71207 -1.23846,0.71207 l 0,0 c -0.87575,-1.55176 -0.51263,-0.75025 -1.09661,-2.40122 -0.39836,-2.20196 -0.67296,-4.55973 -0.52799,-6.77069 0.19845,-0.12088 0.4507,-0.54449 0.59533,-0.36263 0.14684,0.18462 -0.3113,0.35558 -0.44807,0.54779 -1.30218,1.82996 -2.40989,3.78003 -4.35834,5.04113 -2.75778,1.8922 -6.02513,3.62889 -9.39854,2.33862 -3.40165,-1.98148 -2.6459,-4.57654 -0.78502,-7.54389 3.07076,-3.54954 6.07694,-4.0239 10.62939,-3.5698 2.74725,0.74406 6.08544,1.81282 6.67289,5.01621 0,0 -1.42857,0 -1.42857,0 z"
       inkscape:connector-curvature="0" />
    <path
       style="color:#000000;fill:#00000e;fill-opacity:1;fill-rule:nonzero;stroke:none;stroke-width:1.00699997;marker:none;visibility:visible;display:inline;overflow:visible;enable-background:accumulate"
       id="path5134"
       d="m 756.32917,836.60219 c -4.29456,1.35508 -8.57071,2.75479 -12.94138,3.84634 -3.66035,1.3118 -7.52461,1.83059 -11.26391,2.80842 -4.46856,1.59097 0.15308,4.05547 2.00074,5.18731 4.1368,2.39577 8.31051,4.72087 12.50346,7.016 1.60615,0.74072 3.13351,1.54075 4.45353,2.71696 0,0 0.93871,-1.07686 0.93871,-1.07686 l 0,0 c -1.42079,-1.21661 -2.98749,-2.13563 -4.70633,-2.89324 -4.17271,-2.28386 -8.32604,-4.59789 -12.44332,-6.98115 -0.90804,-0.55588 -2.05312,-1.54269 -3.04194,-1.96278 -0.11081,-0.0471 -0.28781,0.11666 -0.36059,0.0207 -0.24317,-0.32044 1.53587,-0.98106 1.01963,-0.64554 3.7286,-0.98993 7.59554,-1.48298 11.24641,-2.80393 4.43275,-1.10866 8.77191,-2.52377 13.12555,-3.90589 0,0 -0.53056,-1.32639 -0.53056,-1.32639 z"
       inkscape:connector-curvature="0" />
    <path
       style="color:#000000;fill:#00000e;fill-opacity:1;fill-rule:nonzero;stroke:none;stroke-width:1.00699997;marker:none;visibility:visible;display:inline;overflow:visible;enable-background:accumulate"
       id="path5136"
       d="m 777.47906,838.85894 c -3.33189,-1.0814 -5.53672,-0.69043 -8.49887,1.11619 -2.15587,1.78808 -4.31583,4.40997 -2.82776,7.22607 2.77901,2.68162 6.64312,2.87736 10.28131,2.54061 3.76099,-0.96363 8.24944,-2.60602 9.30593,-6.74605 -1.64361,-4.34678 -7.178,-5.10185 -11.20797,-5.67457 -3.22257,-0.3051 -5.83482,0.38608 -8.38739,2.2866 0,0 -0.84092,-1.15486 -0.84092,-1.15486 l 0,0 c 2.89586,-2.069 5.82143,-2.91184 9.43231,-2.54567 3.97297,0.58125 9.98412,1.41643 11.94837,5.59879 0.27364,0.58264 0.28602,1.25521 0.42902,1.88282 -0.17412,0.56253 -0.25796,1.16142 -0.52237,1.68758 -1.83749,3.65654 -6.39928,5.13823 -10.03044,6.08831 -4.24617,0.36359 -8.69966,0.0292 -11.70514,-3.36536 -0.2148,-0.51309 -0.52911,-0.99512 -0.6444,-1.53928 -0.64381,-3.03869 1.95583,-5.76649 4.03453,-7.51002 3.34184,-1.97606 5.96299,-2.46504 9.68554,-1.24642 0,0 -0.45175,1.35526 -0.45175,1.35526 z"
       inkscape:connector-curvature="0" />
    <path
       style="fill:none;stroke:#000000;stroke-width:1px;stroke-linecap:butt;stroke-linejoin:miter;stroke-opacity:1"
       d="m 629.64615,828.35219 c -1.90476,0.95238 -3.80952,1.90476 -5.71428,2.85715 -0.95238,0 -1.95364,-0.30117 -2.85714,0 -0.63888,0.21295 -0.7897,1.21561 -1.42858,1.42857 -0.9035,0.30117 -1.95363,-0.30117 -2.85714,0 -0.63887,0.21296 -0.95238,0.95238 -1.42857,1.42857 -0.95238,0.47619 -1.82414,1.17032 -2.85714,1.42857 -0.92395,0.23099 -1.9332,-0.23099 -2.85715,0 -1.033,0.25825 -1.82414,1.17032 -2.85714,1.42857 -0.92394,0.23099 -1.90476,0 -2.85714,0 -4.28572,0.95238 -8.62158,1.70199 -12.85714,2.85714 -8.09384,4.04692 2.12958,-0.53239 -5.71429,1.42858 -1.033,0.25825 -1.82414,1.17032 -2.85714,1.42857 -1.84789,0.46197 -3.90727,-0.60234 -5.71429,0 -6.30602,2.102 5.19024,1.42857 -4.28571,1.42857 -1.42857,0 -2.93046,-0.45176 -4.28572,0 -0.63887,0.21296 -0.77524,1.26524 -1.42857,1.42857 -1.04561,0.2614 -8.40255,-0.16888 -8.57143,0 -0.33671,0.33672 0.33672,1.09185 0,1.42857 -0.0575,0.0575 -5.18966,0 -5.71428,0 -1.42857,0 -2.85715,0 -4.28572,0 -0.47619,0 -1.42857,0.47619 -1.42857,0 0,-0.95238 2.18371,0.67344 2.85714,0 0.33672,-0.33672 -0.33671,-1.09185 0,-1.42857 0.33672,-0.33672 1.00266,0.21296 1.42858,0 0.60233,-0.30117 0.82623,-1.1274 1.42857,-1.42857 0.42592,-0.21296 1.00265,0.21296 1.42857,0 0.60234,-0.30117 0.86824,-1.05502 1.42857,-1.42857 0.88596,-0.59065 1.97118,-0.83793 2.85714,-1.42857 1.12067,-0.74711 1.73648,-2.11004 2.85715,-2.85715 0.88596,-0.59064 1.97118,-0.83793 2.85714,-1.42857 0.56033,-0.37355 0.86824,-1.05502 1.42857,-1.42857 0.88596,-0.59064 1.97118,-0.83793 2.85714,-1.42857 0.56033,-0.37356 0.82624,-1.1274 1.42857,-1.42857 0.42592,-0.21296 1.09186,0.33671 1.42858,0 0.33671,-0.33672 -0.33672,-1.09186 0,-1.42857 0.33671,-0.33672 1.09185,0.33671 1.42857,0 0.33671,-0.33672 -0.33672,-1.09186 0,-1.42858 0.33671,-0.33671 1.42857,-0.47619 1.42857,0 0,0.47619 -1.00265,-0.21296 -1.42857,0 -1.20468,0.60234 -1.65247,2.25481 -2.85715,2.85715 -0.42591,0.21296 -1.00265,-0.21296 -1.42857,0 -0.60234,0.30117 -0.82623,1.1274 -1.42857,1.42857 -0.42592,0.21296 -1.00265,-0.21296 -1.42857,0 -1.20468,0.60234 -1.65247,2.2548 -2.85714,2.85714 -0.42592,0.21296 -1.00266,-0.21296 -1.42857,0 -0.39654,0.19827 -2.46061,2.65888 -2.85715,2.85714 -0.42591,0.21296 -1.00265,-0.21296 -1.42857,0 -0.60234,0.30117 -0.82623,1.12741 -1.42857,1.42858 -0.42592,0.21295 -1.09185,-0.33672 -1.42857,0 -0.33672,0.33671 0.33672,1.09185 0,1.42857 -0.33672,0.33671 -1.00265,-0.21296 -1.42857,0 -0.60234,0.30117 -0.82624,1.1274 -1.42857,1.42857 -0.85376,0.42688 -2.85715,-0.94042 -2.85715,1.42857 0,0.95238 2.00531,-0.42592 2.85715,0 3.25163,3.25163 -0.29587,0.37757 2.85714,1.42857 2.59461,0.86487 2.65121,1.22264 4.28571,2.85714 0.47619,0.47619 0.82624,1.12741 1.42857,1.42858 0.42592,0.21295 1.00266,-0.21296 1.42858,0 1.71428,0.85714 2.57142,3.42857 4.28571,4.28571 1.97051,0.98525 1.27782,-1.73008 2.85714,1.42857 0.21296,0.42592 -0.33671,1.09185 0,1.42857 0.33672,0.33672 1.00266,-0.21296 1.42857,0 0.60234,0.30117 0.82624,1.1274 1.42858,1.42857 1.90476,0.95238 1.42857,-1.42857 1.42857,1.42858"
       id="path5138"
       inkscape:connector-curvature="0" />
    <path
       style="color:#000000;fill:#00000e;fill-opacity:1;fill-rule:nonzero;stroke:none;stroke-width:1.00699997;marker:none;visibility:visible;display:inline;overflow:visible;enable-background:accumulate"
       id="path5110-7"
       d="m 35.247226,805.86409 c -3.37636,-1.6012 -7.16921,0.28374 -10.23079,1.83087 -2.94202,1.99178 -5.74368,4.64561 -5.03708,8.44739 1.10111,2.91372 3.79766,3.59274 6.57985,4.11768 3.25498,0.31393 6.10446,-0.91429 8.92946,-2.36205 0,0 0.65008,1.27208 0.65008,1.27208 l 0,0 c -3.11284,1.58655 -6.26924,2.88684 -9.84741,2.4932 -3.40429,-0.65679 -6.52397,-1.6993 -7.722722,-5.29589 -0.6588,-4.70556 2.126352,-7.44254 5.806532,-9.94896 3.55503,-1.7761 7.81218,-3.72618 11.66451,-1.74297 0,0 -0.79243,1.18865 -0.79243,1.18865 z"
       inkscape:connector-curvature="0" />
    <path
       style="color:#000000;fill:#00000e;fill-opacity:1;fill-rule:nonzero;stroke:none;stroke-width:1.00699997;marker:none;visibility:visible;display:inline;overflow:visible;enable-background:accumulate"
       id="path5112-8"
       d="m 45.869312,809.31718 c -2.471566,0.49952 -4.334896,1.97456 -5.795686,3.96624 -1.79554,3.14833 0.31291,4.16033 3.21155,4.36027 3.567836,0.0436 6.785056,-1.11543 9.067226,-3.88191 1.30669,-3.02885 -1.22941,-4.49964 -3.85942,-5.0143 -2.87228,-0.36603 -5.740096,0.25574 -7.323846,2.83921 0,0 -1.19881,-0.77697 -1.19881,-0.77697 l 0,0 c 2.03693,-3.02153 5.28248,-3.95594 8.823156,-3.45884 3.93265,0.90735 6.62286,3.05869 4.65163,7.33112 -2.644,3.0863 -6.21877,4.47244 -10.289606,4.38437 -4.27113,-0.46353 -6.58274,-2.33858 -4.22775,-6.63607 1.65604,-2.19629 3.72977,-3.8989 6.48981,-4.46838 0,0 0.451746,1.35526 0.451746,1.35526 z"
       inkscape:connector-curvature="0" />
    <path
       style="color:#000000;fill:#00000e;fill-opacity:1;fill-rule:nonzero;stroke:none;stroke-width:1.00699997;marker:none;visibility:visible;display:inline;overflow:visible;enable-background:accumulate"
       id="path5114-1"
       d="m 58.298942,808.98132 c 0,2.00628 0,4.01257 0,6.01885 -0.37288,-0.21853 -0.8389,-0.32612 -1.11863,-0.65559 -0.17094,-0.20133 2.73141,-6.92835 3.01251,-7.52778 1.90456,-3.6248 4.05328,-7.58101 8.12386,-8.98795 1.76764,0.14723 0.95565,-0.12417 2.44154,0.7973 0,0 -0.82779,1.1643 -0.82779,1.1643 l 0,0 c -0.64863,-0.5998 -0.26225,-0.38627 -1.18049,-0.60031 -3.69521,1.03461 -5.52263,5.17182 -7.26393,8.23369 -1.06059,2.25717 -1.97552,4.52914 -2.81783,6.87401 -0.10765,0.29967 -0.0408,0.77781 -0.33742,0.89368 -0.4573,0.17865 -0.9736,-0.12757 -1.46039,-0.19135 0,-2.00628 0,-4.01257 0,-6.01885 0,0 1.42857,0 1.42857,0 z"
       inkscape:connector-curvature="0" />
    <path
       style="color:#000000;fill:#00000e;fill-opacity:1;fill-rule:nonzero;stroke:none;stroke-width:1.00699997;marker:none;visibility:visible;display:inline;overflow:visible;enable-background:accumulate"
       id="path5116-6"
       d="m 71.727512,807.83846 c 0,2.43 0,4.85999 0,7.28999 0,0.0258 0,0.0516 0,0.0775 -0.47619,-0.18736 -1.13917,-0.14006 -1.42857,-0.5621 -0.26264,-0.383 1.50853,-5.97654 1.71292,-6.61029 1.30474,-3.32161 2.96899,-7.0183 6.55476,-8.2862 0,0 0.43563,1.36053 0.43563,1.36053 l 0,0 c -3.14947,0.84499 -4.46698,4.70768 -5.63101,7.3649 -0.54476,1.68273 -1.09166,3.3913 -1.48052,5.11907 -0.0779,0.3462 0.086,0.79933 -0.16321,1.05199 -0.35932,0.36436 -0.95238,0.37474 -1.42857,0.5621 0,-0.0258 0,-0.0516 0,-0.0775 0,-2.43 0,-4.85999 0,-7.28999 0,0 1.42857,0 1.42857,0 z"
       inkscape:connector-curvature="0" />
    <path
       style="color:#000000;fill:#00000e;fill-opacity:1;fill-rule:nonzero;stroke:none;stroke-width:1.00699997;marker:none;visibility:visible;display:inline;overflow:visible;enable-background:accumulate"
       id="path5118-7"
       d="m 81.525872,806.61153 c 3.18532,0.24745 6.09398,-0.5444 8.89913,-2.00559 0.11674,-0.0473 2.30134,-1.82852 1.62862,-2.37362 -0.13905,-0.11268 -0.32092,0.17733 -0.49854,0.19937 -0.34891,0.0433 -0.70316,-0.004 -1.05474,-0.007 -0.49479,0.0885 -0.98958,0.17703 -1.48437,0.26555 -2.99062,0.95918 -5.77038,2.58541 -7.48935,5.25683 -1.02891,2.77637 1.54672,3.34708 3.72676,3.85941 1.6697,0.32685 3.36777,0.4045 5.06163,0.49191 0,0 -0.0742,1.42664 -0.0742,1.42664 l 0,0 c -1.78102,-0.0932 -3.56632,-0.1775 -5.32067,-0.52938 -3.40416,-0.83108 -6.14551,-1.99297 -4.58779,-6.03258 1.98994,-2.98146 5.03382,-4.86069 8.45199,-5.88251 4.9782,-0.75886 6.40436,1.33974 2.29561,4.59464 -3.01407,1.5416 -6.13951,2.42531 -9.55413,2.16459 0,0 0,-1.42857 0,-1.42857 z"
       inkscape:connector-curvature="0" />
    <path
       style="color:#000000;fill:#00000e;fill-opacity:1;fill-rule:nonzero;stroke:none;stroke-width:1.00699997;marker:none;visibility:visible;display:inline;overflow:visible;enable-background:accumulate"
       id="path5120-7"
       d="m 110.29895,802.52745 c -0.38364,-2.71484 -2.92925,-3.17207 -5.26288,-3.16869 -4.38266,0.51037 -8.005878,2.60198 -10.653818,6.08092 -1.90229,3.04487 -2.77683,6.18376 0.0258,8.86457 3.69753,2.78081 7.258438,2.90145 11.668088,2.43489 2.39253,-0.28012 4.60112,-1.13858 6.80477,-2.04906 0,0 0.54356,1.32112 0.54356,1.32112 l 0,0 c -2.33232,0.95579 -4.66971,1.85776 -7.19939,2.14872 -4.86407,0.50535 -8.813258,0.26334 -12.833908,-2.85229 -3.58673,-3.79582 -2.50989,-6.56927 -0.13982,-10.74082 2.97305,-3.80502 6.937488,-6.1375 11.802368,-6.63651 3.14457,0.0745 6.27603,1.00893 6.67379,4.59715 0,0 -1.42857,0 -1.42857,0 z"
       inkscape:connector-curvature="0" />
    <path
       style="color:#000000;fill:#00000e;fill-opacity:1;fill-rule:nonzero;stroke:none;stroke-width:1.00699997;marker:none;visibility:visible;display:inline;overflow:visible;enable-background:accumulate"
       id="path5122-3"
       d="m 124.12294,793.94896 c -2.34062,3.36495 -3.46231,7.25441 -4.29426,11.21528 -0.54394,4.29828 0.0676,7.22605 3.8061,9.62051 4.02824,1.70441 8.53054,1.27967 12.50333,-0.33266 0.45915,-0.3021 0.91829,-0.6042 1.37743,-0.90629 0,0 0.77558,1.19971 0.77558,1.19971 l 0,0 c -0.54072,0.34428 -1.08145,0.68857 -1.62217,1.03286 -4.42944,1.75077 -9.37698,2.19939 -13.82063,0.19898 -4.2047,-2.83971 -5.07621,-6.15409 -4.41749,-11.10779 0.87507,-4.13661 2.05975,-8.19789 4.50346,-11.71303 0,0 1.18865,0.79243 1.18865,0.79243 z"
       inkscape:connector-curvature="0" />
    <path
       style="color:#000000;fill:#00000e;fill-opacity:1;fill-rule:nonzero;stroke:none;stroke-width:1.00699997;marker:none;visibility:visible;display:inline;overflow:visible;enable-background:accumulate"
       id="path5124-4"
       d="m 108.66874,802.32581 c 5.57021,-0.34034 11.14918,-0.74998 16.72915,-1.03432 0,0 0.0727,1.42672 0.0727,1.42672 l 0,0 c -5.60424,0.28552 -11.20682,0.69924 -16.80185,1.03618 0,0 0,-1.42858 0,-1.42858 z"
       inkscape:connector-curvature="0" />
    <path
       style="color:#000000;fill:#00000e;fill-opacity:1;fill-rule:nonzero;stroke:none;stroke-width:1.00699997;marker:none;visibility:visible;display:inline;overflow:visible;enable-background:accumulate"
       id="path5126-1"
       d="m 33.001836,846.03713 c 1.23982,-2.66318 1.76198,-5.55558 2.12409,-8.4475 0.0129,-2.48327 -0.33157,-5.0645 -2.08892,-6.93055 -1.93059,-0.23219 -2.9412,2.36688 -3.67979,3.7602 -1.75926,3.67434 -2.05728,7.78555 -2.318,11.78956 -0.2201,4.4677 -0.20268,8.9426 -0.19823,13.4144 0.006,2.4934 -0.0593,1.28146 0.17722,3.63676 0,0 -1.42169,0.14006 -1.42169,0.14006 l 0,0 c -0.24117,-2.49286 -0.17809,-1.23447 -0.1841,-3.77541 -0.004,-4.50333 -0.0217,-9.0098 0.20127,-13.50895 0.27579,-4.20706 0.61308,-8.51595 2.48245,-12.36762 1.2475,-2.3351 2.89306,-5.53534 6.00132,-4.04621 1.97378,2.25649 2.53527,5.11023 2.4459,8.06589 -0.3849,3.05185 -0.94659,6.10159 -2.26377,8.90825 0,0 -1.27775,-0.63888 -1.27775,-0.63888 z"
       inkscape:connector-curvature="0" />
    <path
       style="color:#000000;fill:#00000e;fill-opacity:1;fill-rule:nonzero;stroke:none;stroke-width:1.00699997;marker:none;visibility:visible;display:inline;overflow:visible;enable-background:accumulate"
       id="path5128-4"
       d="m 12.380654,851.89054 c 3.89648,-0.78835 7.880312,-0.96143 11.841882,-1.11774 4.10244,-0.40887 8.1915,-0.92831 12.29428,-1.33691 3.45263,-0.31231 1.84062,1.49835 0.11252,2.51189 -0.92417,0.83036 -3.1934,1.78921 -2.80916,3.34797 1.86455,1.07829 4.22216,0.81002 6.22693,0.42053 2.58001,-0.61 6.030786,-1.6726 6.710376,-4.58319 -0.36537,-2.46943 -2.805436,-2.72033 -4.856296,-2.49965 -1.71277,0.5856 -0.91881,0.19975 -2.39176,1.13699 0,0 -0.74842,-1.21683 -0.74842,-1.21683 l 0,0 c 1.8744,-1.12175 0.87398,-0.66838 3.00909,-1.3427 3.11305,-0.24842 6.303906,0.65531 6.354926,4.33528 -0.16945,0.48937 -0.24685,1.0211 -0.50835,1.46809 -1.45773,2.49178 -4.720836,3.47065 -7.305126,4.10589 -2.56191,0.46932 -6.44819,0.9566 -7.91809,-1.75179 0.0477,-2.29959 1.77853,-3.43632 3.51812,-4.65575 0.41343,-0.23759 0.72898,-0.81127 1.20421,-0.77215 0.15133,0.0125 -0.0647,0.32519 0.0135,0.45533 0.11942,0.19871 0.36759,0.28482 0.53046,0.4498 0.0457,0.0463 -0.11599,-0.0591 -0.17399,-0.0887 -0.2758,0.0335 -0.5516,0.067 -0.82739,0.10053 -4.13114,0.41142 -8.24816,0.93763 -12.37963,1.34284 -3.86398,0.15196 -7.749242,0.31843 -11.551632,1.07619 0,0 -0.34648,-1.38592 -0.34648,-1.38592 z"
       inkscape:connector-curvature="0" />
    <path
       style="color:#000000;fill:#00000e;fill-opacity:1;fill-rule:nonzero;stroke:none;stroke-width:1.00699997;marker:none;visibility:visible;display:inline;overflow:visible;enable-background:accumulate"
       id="path5130-8"
       d="m 52.584652,851.83846 c 0.24107,1.04834 0.42932,2.10704 0.63483,3.1625 0.067,0.34422 0.1238,0.69101 0.21116,1.03064 0.0307,0.11916 0.26033,0.37319 0.14161,0.34087 -0.42814,-0.11656 -0.78439,-0.41509 -1.17659,-0.62264 0.78337,-3.66766 2.60161,-6.76687 5.1077,-9.50338 2.47289,-2.35614 5.22793,-3.58894 8.58402,-2.79774 1.62116,0.70364 0.82063,0.28876 2.39347,1.26019 0,0 -0.75665,1.21173 -0.75665,1.21173 l 0,0 c -1.32212,-0.83613 -0.66029,-0.48193 -1.97403,-1.08372 -2.82367,-0.71066 -5.10025,0.40597 -7.19614,2.37748 -2.3641,2.54949 -4.04324,5.4597 -4.77552,8.89398 -0.51318,0.25905 -0.96877,0.70861 -1.53952,0.77715 -0.18874,0.0227 -0.98543,-4.61605 -1.08291,-5.04706 0,0 1.42857,0 1.42857,0 z"
       inkscape:connector-curvature="0" />
    <path
       style="color:#000000;fill:#00000e;fill-opacity:1;fill-rule:nonzero;stroke:none;stroke-width:1.00699997;marker:none;visibility:visible;display:inline;overflow:visible;enable-background:accumulate"
       id="path5132-7"
       d="m 102.58466,850.81317 c -0.67312,-2.37689 -3.525738,-3.08618 -5.613258,-3.6361 -3.97165,-0.30872 -6.55066,-0.0539 -9.17075,3.11347 -1.29361,1.99089 -2.0495,4.16029 0.38136,5.36706 2.83746,0.95704 5.62737,-0.67366 7.89971,-2.26038 1.16784,0.31523 3.91168,-5.106 4.508908,-5.31305 0.39664,-0.13751 0.83914,0.0279 1.2587,0.0419 1.05213,2.41393 0.7198,5.15283 1.18987,7.73533 0.49987,1.3393 0.19203,0.69029 0.92945,1.9442 0,0 -1.23846,0.71207 -1.23846,0.71207 l 0,0 c -0.87576,-1.55176 -0.51263,-0.75025 -1.09662,-2.40122 -0.39836,-2.20196 -0.67296,-4.55973 -0.52799,-6.77069 0.19845,-0.12088 0.4507,-0.54449 0.59533,-0.36263 0.14684,0.18462 -0.3113,0.35558 -0.44807,0.54779 -1.302178,1.82996 -2.409888,3.78003 -4.358338,5.04113 -2.75778,1.8922 -6.02513,3.62889 -9.39854,2.33862 -3.40165,-1.98148 -2.6459,-4.57654 -0.78502,-7.54389 3.07076,-3.54954 6.07694,-4.0239 10.62939,-3.5698 2.747248,0.74406 6.085448,1.81282 6.672898,5.01621 0,0 -1.42857,0 -1.42857,0 z"
       inkscape:connector-curvature="0" />
    <path
       style="color:#000000;fill:#00000e;fill-opacity:1;fill-rule:nonzero;stroke:none;stroke-width:1.00699997;marker:none;visibility:visible;display:inline;overflow:visible;enable-background:accumulate"
       id="path5134-8"
       d="m 110.13292,838.14724 c 4.29456,1.35508 8.57071,2.75479 12.94138,3.84634 3.66035,1.3118 7.52461,1.83059 11.26391,2.80842 4.46856,1.59097 -0.15308,4.05547 -2.00074,5.18731 -4.1368,2.39577 -8.31051,4.72087 -12.50346,7.016 -1.60615,0.74072 -3.13351,1.54075 -4.45353,2.71696 0,0 -0.93871,-1.07686 -0.93871,-1.07686 l 0,0 c 1.42079,-1.21661 2.98749,-2.13563 4.70633,-2.89324 4.17271,-2.28386 8.32604,-4.59789 12.44332,-6.98115 0.90804,-0.55588 2.05312,-1.54269 3.04194,-1.96278 0.11081,-0.0471 0.28781,0.11666 0.36059,0.0207 0.24317,-0.32044 -1.53587,-0.98106 -1.01963,-0.64554 -3.7286,-0.98993 -7.59554,-1.48298 -11.24641,-2.80393 -4.43275,-1.10866 -8.77191,-2.52377 -13.12555,-3.90589 0,0 0.53056,-1.32639 0.53056,-1.32639 z"
       inkscape:connector-curvature="0" />
    <path
       style="color:#000000;fill:#00000e;fill-opacity:1;fill-rule:nonzero;stroke:none;stroke-width:1.00699997;marker:none;visibility:visible;display:inline;overflow:visible;enable-background:accumulate"
       id="path5136-0"
       d="m 156.84614,840.40399 c -3.33189,-1.0814 -5.53672,-0.69043 -8.49887,1.11619 -2.15587,1.78808 -4.31583,4.40997 -2.82776,7.22607 2.77901,2.68162 6.64312,2.87736 10.28131,2.54061 3.76099,-0.96363 8.24944,-2.60602 9.30593,-6.74605 -1.64361,-4.34678 -7.178,-5.10185 -11.20797,-5.67457 -3.22257,-0.3051 -5.83482,0.38608 -8.38739,2.2866 0,0 -0.84092,-1.15486 -0.84092,-1.15486 l 0,0 c 2.89586,-2.069 5.82143,-2.91184 9.43231,-2.54567 3.97297,0.58125 9.98412,1.41643 11.94837,5.59879 0.27364,0.58264 0.28602,1.25521 0.42902,1.88282 -0.17412,0.56253 -0.25796,1.16142 -0.52237,1.68758 -1.83749,3.65654 -6.39928,5.13823 -10.03044,6.08831 -4.24617,0.36359 -8.69966,0.0292 -11.70514,-3.36536 -0.2148,-0.51309 -0.52911,-0.99512 -0.6444,-1.53928 -0.64381,-3.03869 1.95583,-5.76649 4.03453,-7.51002 3.34184,-1.97606 5.96299,-2.46504 9.68554,-1.24642 0,0 -0.45175,1.35526 -0.45175,1.35526 z"
       inkscape:connector-curvature="0" />
    <path
       style="fill:none;stroke:#000000;stroke-width:1px;stroke-linecap:butt;stroke-linejoin:miter;stroke-opacity:1"
       d="m 180.44181,824.18295 c 1.90476,0.95238 3.80952,1.90476 5.71428,2.85715 0.95238,0 1.95364,-0.30117 2.85714,0 0.63888,0.21295 0.7897,1.21561 1.42858,1.42857 0.9035,0.30117 1.95363,-0.30117 2.85714,0 0.63887,0.21296 0.95238,0.95238 1.42857,1.42857 0.95238,0.47619 1.82414,1.17032 2.85714,1.42857 0.92395,0.23099 1.9332,-0.23099 2.85715,0 1.033,0.25825 1.82414,1.17032 2.85714,1.42857 0.92394,0.23099 1.90476,0 2.85714,0 4.28572,0.95238 8.62158,1.70199 12.85713,2.85714 8.09384,4.04692 -2.12957,-0.53239 5.71429,1.42858 1.033,0.25825 1.82414,1.17032 2.85714,1.42857 1.84789,0.46197 3.90727,-0.60234 5.71429,0 6.30602,2.102 -5.19024,1.42857 4.28571,1.42857 1.42857,0 2.93046,-0.45176 4.28572,0 0.63887,0.21296 0.77524,1.26524 1.42857,1.42857 1.04561,0.2614 8.40255,-0.16888 8.57143,0 0.33671,0.33672 -0.33672,1.09185 0,1.42857 0.0575,0.0575 5.18966,0 5.71428,0 1.42857,0 2.85715,0 4.28572,0 0.47619,0 1.42857,0.47619 1.42857,0 0,-0.95238 -2.18371,0.67344 -2.85714,0 -0.33672,-0.33672 0.33671,-1.09185 0,-1.42857 -0.33672,-0.33672 -1.00266,0.21296 -1.42858,0 -0.60233,-0.30117 -0.82623,-1.1274 -1.42857,-1.42857 -0.42592,-0.21296 -1.00265,0.21296 -1.42857,0 -0.60234,-0.30117 -0.86824,-1.05502 -1.42857,-1.42857 -0.88596,-0.59065 -1.97118,-0.83793 -2.85714,-1.42857 -1.12067,-0.74711 -1.73648,-2.11004 -2.85715,-2.85715 -0.88596,-0.59064 -1.97118,-0.83793 -2.85714,-1.42857 -0.56033,-0.37355 -0.86824,-1.05502 -1.42857,-1.42857 -0.88596,-0.59064 -1.97118,-0.83793 -2.85714,-1.42857 -0.56033,-0.37356 -0.82624,-1.1274 -1.42857,-1.42857 -0.42592,-0.21296 -1.09186,0.33671 -1.42858,0 -0.33671,-0.33672 0.33672,-1.09186 0,-1.42857 -0.33671,-0.33672 -1.09185,0.33671 -1.42857,0 -0.33671,-0.33672 0.33672,-1.09186 0,-1.42858 -0.33671,-0.33671 -1.42857,-0.47619 -1.42857,0 0,0.47619 1.00265,-0.21296 1.42857,0 1.20468,0.60234 1.65247,2.25481 2.85715,2.85715 0.42591,0.21296 1.00265,-0.21296 1.42857,0 0.60234,0.30117 0.82623,1.1274 1.42857,1.42857 0.42592,0.21296 1.00265,-0.21296 1.42857,0 1.20468,0.60234 1.65247,2.2548 2.85714,2.85714 0.42592,0.21296 1.00266,-0.21296 1.42857,0 0.39654,0.19827 2.46061,2.65888 2.85715,2.85714 0.42591,0.21296 1.00265,-0.21296 1.42857,0 0.60234,0.30117 0.82623,1.12741 1.42857,1.42858 0.42592,0.21295 1.09185,-0.33672 1.42857,0 0.33672,0.33671 -0.33672,1.09185 0,1.42857 0.33672,0.33671 1.00265,-0.21296 1.42857,0 0.60234,0.30117 0.82624,1.1274 1.42857,1.42857 0.85376,0.42688 2.85715,-0.94042 2.85715,1.42857 0,0.95238 -2.00531,-0.42592 -2.85715,0 -3.25163,3.25163 0.29587,0.37757 -2.85714,1.42857 -2.59461,0.86487 -2.65121,1.22264 -4.28571,2.85714 -0.47619,0.47619 -0.82624,1.12741 -1.42857,1.42858 -0.42592,0.21295 -1.00266,-0.21296 -1.42858,0 -1.71428,0.85714 -2.57142,3.42857 -4.28571,4.28571 -1.97051,0.98525 -1.27782,-1.73008 -2.85714,1.42857 -0.21296,0.42592 0.33671,1.09185 0,1.42857 -0.33672,0.33672 -1.00266,-0.21296 -1.42857,0 -0.60234,0.30117 -0.82624,1.1274 -1.42858,1.42857 -1.90476,0.95238 -1.42857,-1.42857 -1.42857,1.42858"
       id="path5138-7"
       inkscape:connector-curvature="0" />
  </g>
</svg>
