<?xml version="1.0" encoding="UTF-8" standalone="no"?>
<!-- Created with Inkscape (http://www.inkscape.org/) -->

<svg
   xmlns:dc="http://purl.org/dc/elements/1.1/"
   xmlns:cc="http://creativecommons.org/ns#"
   xmlns:rdf="http://www.w3.org/1999/02/22-rdf-syntax-ns#"
   xmlns:svg="http://www.w3.org/2000/svg"
   xmlns="http://www.w3.org/2000/svg"
   xmlns:sodipodi="http://sodipodi.sourceforge.net/DTD/sodipodi-0.dtd"
   xmlns:inkscape="http://www.inkscape.org/namespaces/inkscape"
   width="500"
   height="200"
   id="svg2"
   version="1.1"
   inkscape:version="0.48.3.1 r9886"
   sodipodi:docname="enthalpy.png">
  <defs
     id="defs4" />
  <sodipodi:namedview
     id="base"
     pagecolor="#ffffff"
     bordercolor="#666666"
     borderopacity="1.0"
     inkscape:pageopacity="0.0"
     inkscape:pageshadow="2"
     inkscape:zoom="0.98994949"
     inkscape:cx="368.7509"
     inkscape:cy="262.316"
     inkscape:document-units="px"
     inkscape:current-layer="layer1"
     showgrid="false"
     inkscape:window-width="1336"
     inkscape:window-height="781"
     inkscape:window-x="0"
     inkscape:window-y="31"
     inkscape:window-maximized="1" />
  <metadata
     id="metadata7">
    <rdf:RDF>
      <cc:Work
         rdf:about="">
        <dc:format>image/svg+xml</dc:format>
        <dc:type
           rdf:resource="http://purl.org/dc/dcmitype/StillImage" />
        <dc:title></dc:title>
      </cc:Work>
    </rdf:RDF>
  </metadata>
  <g
     inkscape:label="Layer 1"
     inkscape:groupmode="layer"
     id="layer1"
     transform="translate(0,-852.36218)">
    <path
       style="color:#000000;fill:#000000;fill-opacity:1;fill-rule:nonzero;stroke:none;stroke-width:0.1;marker:none;visibility:visible;display:inline;overflow:visible;enable-background:accumulate"
       id="path2985"
       d="m 214.5315,877.51289 c -0.44581,4.125 -1.01053,8.233 -1.38108,12.36649 -0.36093,4.36263 -0.45285,8.74049 -0.50666,13.1157 -0.0133,1.48923 -0.0182,2.97852 -0.0188,4.4678 -8e-5,0.21173 0.19588,0.72048 0.002,0.63518 -0.33902,-0.14924 -0.67183,-0.3122 -1.00774,-0.4683 0.0236,-3.09409 0.63319,-6.15902 1.33047,-9.16303 0.71093,-2.9052 1.39679,-5.90008 3.26583,-8.29349 0.26213,-0.17464 0.48274,-0.44017 0.78637,-0.52391 2.47942,-0.68372 2.88673,4.26755 3.11111,5.60631 0.7272,3.96284 1.07094,7.97593 1.72781,11.94872 0.23126,1.79332 0.57644,3.55517 0.99319,5.31295 0,0 -0.98292,0.23296 -0.98292,0.23296 l 0,0 c -0.4218,-1.78029 -0.77206,-3.56516 -1.00689,-5.38115 -0.65657,-3.97256 -1.00188,-7.98503 -1.72765,-11.94775 -0.24171,-1.46516 -0.43729,-2.92389 -1.09242,-4.27592 -0.11686,-0.24117 -0.22408,-0.67915 -0.48892,-0.63821 -0.19879,0.0307 -0.35172,0.19526 -0.52758,0.29289 -1.80504,2.2453 -2.36706,5.16189 -3.07401,7.89531 -0.68205,2.92989 -1.27921,5.9206 -1.30425,8.93852 -0.33726,0.16786 -0.6662,0.35358 -1.01178,0.50357 -0.20668,0.0897 -0.003,-0.45061 -0.003,-0.67592 5.7e-4,-1.493 0.005,-2.98601 0.0189,-4.47896 0.0542,-4.40118 0.14712,-8.80502 0.51062,-13.1935 0.37246,-4.15106 0.9387,-8.27665 1.3872,-12.41911 0,0 1,0.14285 1,0.14285 z"
       inkscape:connector-curvature="0" />
    <path
       style="color:#000000;fill:#000000;fill-opacity:1;fill-rule:nonzero;stroke:none;stroke-width:0.1;marker:none;visibility:visible;display:inline;overflow:visible;enable-background:accumulate"
       id="path2987"
       d="m 231.83001,901.5643 c 0,3.38091 0,6.76182 0,10.14274 0,1.50484 0,3.00967 0,4.51451 0,0 -1.01016,0 -1.01016,0 l 0,0 c 0,-1.50484 0,-3.00967 0,-4.51451 0,-3.38092 0,-6.76183 0,-10.14274 0,0 1.01016,0 1.01016,0 z"
       inkscape:connector-curvature="0" />
    <path
       style="color:#000000;fill:#000000;fill-opacity:1;fill-rule:nonzero;stroke:none;stroke-width:0.1;marker:none;visibility:visible;display:inline;overflow:visible;enable-background:accumulate"
       id="path2989"
       d="m 223.88566,902.24057 c 2.78707,-0.33869 5.5285,-0.94648 8.30019,-1.38482 1.79304,-0.16704 3.5099,-0.73087 5.26792,-1.09061 0,0 0.20215,0.98972 0.20215,0.98972 l 0,0 c -1.77285,0.36141 -3.50396,0.93192 -5.31236,1.09865 -2.76893,0.43745 -5.50753,1.04552 -8.29183,1.38347 0,0 -0.16607,-0.99641 -0.16607,-0.99641 z"
       inkscape:connector-curvature="0" />
    <path
       style="color:#000000;fill:#000000;fill-opacity:1;fill-rule:nonzero;stroke:none;stroke-width:0.1;marker:none;visibility:visible;display:inline;overflow:visible;enable-background:accumulate"
       id="path2991"
       d="m 249.13948,894.15935 c 3.57202,-0.51928 7.18405,-0.66138 10.78713,-0.78226 3.36966,-0.0979 6.74092,-0.11434 10.11176,-0.12064 0,0 0.002,1.01016 0.002,1.01016 l 0,0 c -3.36019,0.006 -6.7208,0.0226 -10.0798,0.12007 -3.55882,0.11924 -7.12648,0.25856 -10.65491,0.76908 0,0 -0.16607,-0.99641 -0.16607,-0.99641 z"
       inkscape:connector-curvature="0" />
    <path
       style="color:#000000;fill:#000000;fill-opacity:1;fill-rule:nonzero;stroke:none;stroke-width:0.1;marker:none;visibility:visible;display:inline;overflow:visible;enable-background:accumulate"
       id="path2993"
       d="m 249.22251,898.31392 c 3.84771,-0.26271 7.66136,-0.81287 11.4868,-1.28079 2.83426,-0.33758 5.64352,-0.72935 8.47476,-0.25668 0,0 -0.17019,0.99571 -0.17019,0.99571 l 0,0 c -2.72909,-0.47863 -5.44826,-0.0374 -8.18195,0.26365 -3.86598,0.47275 -7.72026,1.03013 -11.60942,1.28827 0,0 0,-1.01016 0,-1.01016 z"
       inkscape:connector-curvature="0" />
    <path
       style="color:#000000;fill:#000000;fill-opacity:1;fill-rule:nonzero;stroke:none;stroke-width:0.1;marker:none;visibility:visible;display:inline;overflow:visible;enable-background:accumulate"
       id="path2995"
       d="m 283.34779,875.42116 c 0,4.50442 0,9.00884 0,13.51326 0,4.36402 0,8.72804 0,13.09206 0,2.30607 0,4.61214 0,6.91822 0,10e-4 0,0.003 0,0.004 -0.29145,-0.20229 -0.75025,-0.27451 -0.87433,-0.60688 -0.11515,-0.30845 0.20948,-0.62467 0.29598,-0.94236 0.47221,-1.7342 0.85995,-3.4899 1.33511,-5.22458 0.90706,-3.995 2.18489,-7.89252 4.05407,-11.54128 2.21522,-3.71811 3.55113,-0.62966 4.30118,1.92333 0.91649,3.29263 1.57513,6.65584 2.25615,10.00522 0.0814,0.46436 0.1629,0.92873 0.24434,1.39309 0,0 -0.99499,0.17438 -0.99499,0.17438 l 0,0 c -0.0797,-0.45541 -0.1595,-0.91083 -0.23925,-1.36624 -0.67525,-3.3225 -1.32837,-6.65873 -2.23643,-9.92511 -0.45752,-1.60085 -0.23874,-1.07064 -0.8391,-2.40559 -0.55101,-1.22523 -1.09671,-0.058 -1.59332,0.6624 -1.84502,3.58301 -3.08206,7.42232 -3.97841,11.34676 -0.14141,0.51587 -1.39217,5.93631 -1.62517,6.14433 -0.29178,0.26048 -0.74399,0.24168 -1.11599,0.36253 0,-10e-4 0,-0.003 0,-0.004 0,-2.30608 0,-4.61215 0,-6.91822 0,-4.36402 0,-8.72804 0,-13.09206 0,-4.50442 0,-9.00884 0,-13.51326 0,0 1.01016,0 1.01016,0 z"
       inkscape:connector-curvature="0" />
    <path
       style="color:#000000;fill:#000000;fill-opacity:1;fill-rule:nonzero;stroke:none;stroke-width:0.1;marker:none;visibility:visible;display:inline;overflow:visible;enable-background:accumulate"
       id="path3001"
       d="m 324.76404,886.53284 c 0,3.83223 0,7.66446 0,11.4967 0,2.75498 0,5.50996 0,8.26494 0,0 -1.01015,0 -1.01015,0 l 0,0 c 0,-2.75498 0,-5.50996 0,-8.26494 0,-3.83224 0,-7.66447 0,-11.4967 0,0 1.01015,0 1.01015,0 z"
       inkscape:connector-curvature="0" />
    <path
       style="color:#000000;fill:#000000;fill-opacity:1;fill-rule:nonzero;stroke:none;stroke-width:0.1;marker:none;visibility:visible;display:inline;overflow:visible;enable-background:accumulate"
       id="path3003"
       d="m 315.89258,897.30377 c 2.959,0 5.91801,0 8.87701,0 2.33803,-0.021 4.66902,0.14792 6.97627,-0.27928 1.16554,-0.22606 0.57956,-0.11868 1.75799,-0.32186 0,0 0.17151,0.99549 0.17151,0.99549 l 0,0 c -1.1608,0.19984 -0.57857,0.0933 -1.74663,0.31983 -2.36927,0.43371 -4.75875,0.28534 -7.15914,0.29597 -2.959,0 -5.91801,0 -8.87701,0 0,0 0,-1.01015 0,-1.01015 z"
       inkscape:connector-curvature="0" />
    <path
       style="color:#000000;fill:#000000;fill-opacity:1;fill-rule:nonzero;stroke:none;stroke-width:0.1;marker:none;visibility:visible;display:inline;overflow:visible;enable-background:accumulate"
       id="path3005"
       d="m 356.96122,871.34275 c -0.46256,3.24449 -0.62856,6.52237 -0.76927,9.7938 0.0496,0.37702 -0.43138,3.57942 0.59642,3.57354 0.0723,-4.2e-4 0.0116,-0.15107 0.0531,-0.21022 0.0911,-0.12976 0.22202,-0.22644 0.33303,-0.33966 1.37992,-1.78911 2.06063,-3.99643 2.82007,-6.09669 0.48448,-1.9691 1.24406,-3.85593 1.71294,-5.82839 -0.27181,-0.99194 1.52273,-4.71435 2.05515,-1.62939 -0.23626,2.70859 -0.39101,5.42163 -0.49426,8.13832 -0.0563,2.35623 -0.34005,4.89841 0.83729,7.0362 0.16658,0.16691 0.33317,0.33383 0.49976,0.50075 0,0 -0.73325,0.69481 -0.73325,0.69481 l 0,0 c -0.21955,-0.24058 -0.43909,-0.48115 -0.65864,-0.72173 -1.20699,-2.33936 -1.07257,-4.97867 -0.95458,-7.54841 0.10236,-2.69087 0.24697,-5.37935 0.49427,-8.06129 0.18098,-0.36042 0.0554,-0.23217 0.65828,-0.38739 0.0433,-0.0112 -0.092,0.0301 -0.1157,0.0681 -0.0912,0.14595 -0.1604,0.30578 -0.21913,0.46757 -0.24527,0.67569 -0.25667,0.94369 -0.38665,1.67707 -0.48152,2.00868 -1.24573,3.93303 -1.74558,5.93747 -0.82273,2.27302 -1.55537,4.67923 -3.14745,6.54856 -0.26415,0.18035 -0.485,0.45284 -0.79244,0.54103 -2.23049,0.63986 -1.89205,-3.32648 -1.82186,-4.40365 0.14261,-3.31248 0.3114,-6.63151 0.78208,-9.91643 0,0 0.99641,0.16606 0.99641,0.16606 z"
       inkscape:connector-curvature="0" />
    <path
       style="color:#000000;fill:#000000;fill-opacity:1;fill-rule:nonzero;stroke:none;stroke-width:0.1;marker:none;visibility:visible;display:inline;overflow:visible;enable-background:accumulate"
       id="path3007"
       d="m 366.7743,865.57444 c 1.59005,-1.98636 3.45832,-3.94379 6.02827,-4.47775 2.62466,0.30574 2.18513,2.93553 1.55807,4.79565 -1.06977,2.49949 -2.95517,4.43215 -4.81296,6.35157 0.15604,-0.0486 -0.58534,0.54868 -0.39961,0.77053 0.0776,0.0927 0.22902,-0.11408 0.34897,-0.0989 1.37697,0.17414 -0.48317,0.001 1.25313,0.14515 1.58729,0.0718 3.17708,0.0449 4.76538,0.0333 0,0 0.007,1.01013 0.007,1.01013 l 0,0 c -1.61971,0.0118 -3.24104,0.0398 -4.85961,-0.037 -1.6771,-0.14956 -3.46046,-0.57352 -1.84145,-2.52577 1.7551,-1.81284 3.55047,-3.62801 4.58377,-5.97822 0.37311,-1.05466 1.11352,-3.00583 -0.41537,-3.47385 -2.32897,0.38123 -3.98889,2.40278 -5.42718,4.11623 0,0 -0.7888,-0.63104 -0.7888,-0.63104 z"
       inkscape:connector-curvature="0" />
    <path
       style="color:#000000;fill:#000000;fill-opacity:1;fill-rule:nonzero;stroke:none;stroke-width:0.1;marker:none;visibility:visible;display:inline;overflow:visible;enable-background:accumulate"
       id="path3009"
       d="m 351.16979,899.00242 c 4.29462,-1.82763 8.43341,-3.9894 12.6582,-5.96502 3.81033,-1.84641 7.75654,-3.35414 11.7226,-4.8194 2.9142,-0.8896 5.8136,-1.86026 8.79259,-2.51531 0.29701,-0.0642 0.59402,-0.12832 0.89104,-0.19248 0,0 0.21328,0.98738 0.21328,0.98738 l 0,0 c -0.29592,0.0639 -0.59184,0.12784 -0.88776,0.19176 -2.93419,0.64278 -5.78802,1.60448 -8.6591,2.47621 -3.93976,1.45535 -7.85999,2.95231 -11.64484,4.78693 -4.23504,1.9794 -8.38289,4.14767 -12.68809,5.97841 0,0 -0.39792,-0.92848 -0.39792,-0.92848 z"
       inkscape:connector-curvature="0" />
    <path
       style="color:#000000;fill:#000000;fill-opacity:1;fill-rule:nonzero;stroke:none;stroke-width:0.1;marker:none;visibility:visible;display:inline;overflow:visible;enable-background:accumulate"
       id="path3011"
       d="m 358.66723,905.89506 c 1.13502,-1.39197 3.15959,-5.3611 5.2702,-5.07427 0.39412,0.0536 0.69746,0.38255 1.0462,0.57383 1.48805,2.71212 -0.37259,5.55233 -1.68148,7.95433 -1.257,2.27163 -2.95886,4.2427 -4.47177,6.33723 -0.0656,0.15856 -0.1885,0.30429 -0.19679,0.47568 -0.008,0.16892 3.11649,-0.11031 3.19651,-0.11729 2.7256,-0.4161 5.43052,-0.31509 8.15891,-0.0393 0.40695,0.0414 0.81389,0.0828 1.22083,0.12416 0,0 -0.10221,1.00496 -0.10221,1.00496 l 0,0 c -0.40676,-0.0414 -0.81353,-0.0827 -1.22029,-0.1241 -2.6661,-0.26991 -5.30608,-0.37045 -7.96967,0.0406 -1.45565,0.12637 -5.15311,0.65412 -3.90567,-1.9569 1.49125,-2.05751 3.15968,-3.99928 4.40317,-6.22846 1.08608,-1.99253 2.62955,-4.27301 1.98995,-6.64284 -0.27139,-0.31263 -0.47368,-0.74406 -1.04806,-0.41685 -1.49709,0.85284 -2.75193,3.3388 -3.84933,4.64954 0,0 -0.8405,-0.56034 -0.8405,-0.56034 z"
       inkscape:connector-curvature="0" />
    <path
       style="color:#000000;fill:#000000;fill-opacity:1;fill-rule:nonzero;stroke:none;stroke-width:0.1;marker:none;visibility:visible;display:inline;overflow:visible;enable-background:accumulate"
       id="path3013"
       d="m 321.73359,932.99986 c 0.12699,4.34928 -0.19252,8.68329 -0.4584,13.02078 -0.29831,4.76746 -0.31724,9.54106 -0.80869,14.29405 -0.23521,1.85504 -0.3818,3.71948 -0.57925,5.57842 -0.0209,0.19676 0.12419,0.55768 -0.0711,0.5893 -0.37402,0.0605 -0.7078,-0.2706 -1.06171,-0.40591 0.30891,-3.19766 1.37254,-6.27265 2.25721,-9.34627 0.96071,-2.78574 1.63277,-5.80591 3.46471,-8.17901 2.08831,-1.60447 2.46861,2.31786 2.70349,3.5647 0.49319,3.022 0.86742,6.07336 1.44379,9.08091 0.37876,1.89779 0.70387,3.78697 1.27075,5.63809 0,0 -0.96594,0.29558 -0.96594,0.29558 l 0,0 c -0.57678,-1.8863 -0.91365,-3.81026 -1.29703,-5.74415 -0.57304,-3.00967 -0.95388,-6.0608 -1.44449,-9.08464 -0.17401,-0.93666 -0.21796,-1.3573 -0.4961,-2.23058 -0.0759,-0.23838 -0.22463,-0.45404 -0.27114,-0.69986 -0.0239,-0.12614 0.27866,-0.36308 0.15056,-0.35449 -0.11224,0.008 -0.19906,0.10484 -0.29859,0.15726 -1.78352,2.23824 -2.33074,5.20408 -3.28928,7.83563 -0.84727,2.94304 -1.82865,5.87553 -2.22819,8.9222 -0.31363,0.14309 -0.60033,0.48273 -0.94089,0.42926 -0.18781,-0.0295 0.0485,-0.37716 0.0686,-0.56621 0.1976,-1.86088 0.34452,-3.72722 0.57983,-5.5842 0.49071,-4.73882 0.50545,-9.49867 0.80522,-14.25189 0.26463,-4.31695 0.58378,-8.63026 0.4565,-12.95897 0,0 1.01016,0 1.01016,0 z"
       inkscape:connector-curvature="0" />
    <path
       style="color:#000000;fill:#000000;fill-opacity:1;fill-rule:nonzero;stroke:none;stroke-width:0.1;marker:none;visibility:visible;display:inline;overflow:visible;enable-background:accumulate"
       id="path3015"
       d="m 334.12473,951.73626 c 4.08041,-0.61174 8.21511,-0.31986 12.31836,-0.17195 3.08328,0.11389 6.16755,0.19575 9.25242,0.2502 0,0 -0.0178,1.01 -0.0178,1.01 l 0,0 c -3.09106,-0.0546 -6.18151,-0.13658 -9.27098,-0.2507 -4.04336,-0.14577 -8.11803,-0.43818 -12.13911,0.16245 0,0 -0.14286,-1 -0.14286,-1 z"
       inkscape:connector-curvature="0" />
    <path
       style="color:#000000;fill:#000000;fill-opacity:1;fill-rule:nonzero;stroke:none;stroke-width:0.1;marker:none;visibility:visible;display:inline;overflow:visible;enable-background:accumulate"
       id="path3017"
       d="m 335.08548,956.90277 c 3.32967,0 6.65933,0 9.989,0 3.70133,0 7.40266,0 11.10399,0 0,0 0,1.01016 0,1.01016 l 0,0 c -3.70133,0 -7.40266,0 -11.10399,0 -3.32967,0 -6.65933,0 -9.989,0 0,0 0,-1.01016 0,-1.01016 z"
       inkscape:connector-curvature="0" />
    <path
       style="color:#000000;fill:#000000;fill-opacity:1;fill-rule:nonzero;stroke:none;stroke-width:0.1;marker:none;visibility:visible;display:inline;overflow:visible;enable-background:accumulate"
       id="path3023"
       d="m 371.29126,953.65657 c 2.45967,-0.91763 4.62332,-2.4478 6.32415,-4.43541 0.79567,-1.27218 2.04403,-3.19041 0.91688,-4.59742 -1.26786,-0.85562 -2.83329,0.10252 -4.02582,0.69583 -1.35337,0.84971 -2.17273,2.1766 -2.91651,3.544 -0.95362,1.80325 -1.12792,3.82065 -1.27432,5.8175 -0.25582,2.22547 0.34318,4.13036 2.04554,5.58717 2.39737,1.56941 4.5931,1.57832 7.3007,0.96946 1.82124,-0.45652 3.49139,-1.28371 5.15363,-2.1281 0,0 0.45678,0.90098 0.45678,0.90098 l 0,0 c -1.73916,0.88002 -3.48665,1.74132 -5.39207,2.21339 -3.04777,0.66494 -5.52669,0.60128 -8.18779,-1.19864 -1.89478,-1.71653 -2.6838,-3.8487 -2.38422,-6.41844 0.15826,-2.14054 0.36613,-4.29704 1.39441,-6.22605 0.84407,-1.55137 1.80449,-3.02709 3.35427,-3.96586 1.68688,-0.83754 3.67602,-1.82608 5.30908,-0.36166 1.23215,1.97617 0.23163,4.06085 -0.98535,5.82729 -1.83411,2.11471 -4.12923,3.76302 -6.76993,4.73428 0,0 -0.31943,-0.95832 -0.31943,-0.95832 z"
       inkscape:connector-curvature="0" />
    <path
       style="color:#000000;fill:#000000;fill-opacity:1;fill-rule:nonzero;stroke:none;stroke-width:0.1;marker:none;visibility:visible;display:inline;overflow:visible;enable-background:accumulate"
       id="path3029"
       d="m 408.4808,944.18296 c -0.47537,3.84715 -0.63474,7.72543 -0.77091,11.59679 -0.0553,1.75738 -0.0781,3.51547 -0.1,5.2735 0,0 -1.01007,-0.0125 -1.01007,-0.0125 l 0,0 c 0.0219,-1.76569 0.045,-3.53144 0.10052,-5.29647 0.13753,-3.90726 0.29898,-7.82149 0.78044,-11.70412 0,0 1,0.14285 1,0.14285 z"
       inkscape:connector-curvature="0" />
    <path
       style="color:#000000;fill:#000000;fill-opacity:1;fill-rule:nonzero;stroke:none;stroke-width:0.1;marker:none;visibility:visible;display:inline;overflow:visible;enable-background:accumulate"
       id="path3031"
       d="m 400.66236,953.75836 c 3.57351,-0.61418 7.14447,-1.17538 10.7572,-1.5124 2.28156,-0.19766 4.56973,-0.28995 6.85811,-0.35854 0,0 0.0302,1.0097 0.0302,1.0097 l 0,0 c -2.26719,0.0678 -4.53417,0.15909 -6.79462,0.35463 -3.58855,0.33411 -7.13533,0.89277 -10.68486,1.50301 0,0 -0.16607,-0.9964 -0.16607,-0.9964 z"
       inkscape:connector-curvature="0" />
    <path
       style="color:#000000;fill:#000000;fill-opacity:1;fill-rule:nonzero;stroke:none;stroke-width:0.1;marker:none;visibility:visible;display:inline;overflow:visible;enable-background:accumulate"
       id="path3033"
       d="m 439.79373,930.94175 c -0.49408,3.43402 -0.64293,6.90547 -0.76914,10.36878 -0.0953,3.17115 -0.11374,6.34387 -0.12002,9.51623 -1.5e-4,0.39219 -3e-4,0.78437 -4.4e-4,1.17656 0,0 -1.01016,-3.9e-4 -1.01016,-3.9e-4 l 0,0 c 1.5e-4,-0.39272 3e-4,-0.78545 4.5e-4,-1.17817 0.006,-3.18397 0.0249,-6.36829 0.12069,-9.55104 0.12795,-3.50659 0.27956,-7.0214 0.78221,-10.49803 0,0 0.99641,0.16606 0.99641,0.16606 z"
       inkscape:connector-curvature="0" />
    <path
       style="color:#000000;fill:#000000;fill-opacity:1;fill-rule:nonzero;stroke:none;stroke-width:0.1;marker:none;visibility:visible;display:inline;overflow:visible;enable-background:accumulate"
       id="path3035"
       d="m 432.79011,932.26061 c 3.12048,-1.84748 6.6535,-2.63378 10.19483,-3.1816 3.1856,-0.282 5.79231,0.55754 7.1468,3.58648 0.15609,3.13359 -2.5666,4.70779 -5.11403,5.77813 -2.38905,0.79956 -4.84768,1.33284 -7.3102,1.84313 0,0 -0.20497,-0.98913 -0.20497,-0.98913 l 0,0 c 2.40017,-0.49737 4.79613,-1.01638 7.12742,-1.78677 2.0232,-0.83105 4.36609,-2.00943 4.57146,-4.45178 -0.97959,-2.50485 -3.54117,-3.25084 -6.06236,-2.98173 -3.39649,0.52319 -6.7885,1.26507 -9.78861,3.02377 0,0 -0.56034,-0.8405 -0.56034,-0.8405 z"
       inkscape:connector-curvature="0" />
    <path
       style="color:#000000;fill:#000000;fill-opacity:1;fill-rule:nonzero;stroke:none;stroke-width:0.1;marker:none;visibility:visible;display:inline;overflow:visible;enable-background:accumulate"
       id="path3037"
       d="m 426.99144,956.68054 c 4.32474,-1.11454 8.63372,-2.26473 13.00551,-3.18802 5.18483,-0.98453 10.40477,-1.75106 15.61443,-2.58666 3.03658,-0.41349 6.02877,-1.08157 9.05254,-1.57394 0,0 0.16228,0.99704 0.16228,0.99704 l 0,0 c -3.02459,0.49207 -6.01738,1.16143 -9.05484,1.5743 -5.19338,0.83297 -10.39697,1.59718 -15.56576,2.57763 -4.34883,0.91763 -8.63466,2.06296 -12.93665,3.17094 0,0 -0.27751,-0.97129 -0.27751,-0.97129 z"
       inkscape:connector-curvature="0" />
    <path
       style="color:#000000;fill:#000000;fill-opacity:1;fill-rule:nonzero;stroke:none;stroke-width:0.1;marker:none;visibility:visible;display:inline;overflow:visible;enable-background:accumulate"
       id="path3041"
       d="m 438.28076,966.26173 c 2.16325,0.48239 4.37563,0.62268 6.43357,-0.2781 1.23552,-0.82812 2.20733,-2.29653 1.77782,-3.81657 -0.79575,-1.44573 -2.4234,-1.77185 -3.92307,-2.03204 -1.58762,-0.20648 -3.33447,-0.37722 -4.65172,0.68538 -1.28991,0.89356 -1.63142,2.26303 -1.86619,3.72833 -0.37123,1.95375 0.0959,3.78365 0.6787,5.63438 0.9892,2.23469 2.16945,4.37729 3.06958,6.6548 0.91237,2.28962 1.02194,4.34363 -0.46278,6.36519 -1.74143,1.60356 -4.21508,1.90072 -6.49263,1.83045 -1.28615,-0.12284 -2.32712,-0.69281 -3.39448,-1.3608 0,0 0.54191,-0.85249 0.54191,-0.85249 l 0,0 c 0.90376,0.58508 1.79147,1.08157 2.88873,1.20378 1.93768,0.0804 4.10995,-0.15034 5.65081,-1.43031 1.32644,-1.68847 1.08159,-3.45106 0.32876,-5.38512 -0.90597,-2.30095 -2.11583,-4.45618 -3.09348,-6.7223 -0.629,-2.00033 -1.10799,-3.9915 -0.71215,-6.09982 0.28354,-1.71862 0.75281,-3.32226 2.25462,-4.37233 1.61852,-1.1668 3.51245,-1.17578 5.43528,-0.87402 1.92294,0.34227 3.86192,0.86793 4.7333,2.80376 0.39593,2.05483 -0.60404,3.88121 -2.36672,4.9689 -2.30547,0.96197 -4.7361,0.8847 -7.1493,0.30724 0,0 0.31944,-0.95831 0.31944,-0.95831 z"
       inkscape:connector-curvature="0" />
    <path
       style="color:#000000;fill:#000000;fill-opacity:1;fill-rule:nonzero;stroke:none;stroke-width:0.1;marker:none;visibility:visible;display:inline;overflow:visible;enable-background:accumulate"
       id="path3047"
       d="m 278.29106,1024.2738 c 2.28714,-1.24 4.54425,-2.7772 5.74713,-5.1429 0.3381,-1.002 -0.16231,-2.24 -1.39353,-2.2662 -0.36958,-0.01 -0.72732,0.1326 -1.09099,0.1989 -2.704,0.7765 -4.84857,2.4831 -6.27505,4.877 -0.98132,1.9315 -1.00141,3.7007 0.41139,5.3651 2.03705,1.78 4.7886,2.0734 7.38838,2.0893 2.61375,-0.089 5.03996,-0.8243 7.4652,-1.7285 0,0 0.35214,0.9467 0.35214,0.9467 l 0,0 c -2.54179,0.9431 -5.08855,1.7066 -7.82614,1.7919 -2.91065,-0.032 -5.93227,-0.4041 -8.16233,-2.4608 -1.73276,-2.1916 -1.69791,-4.0408 -0.49383,-6.5251 1.61264,-2.6496 3.98318,-4.5423 7.01469,-5.3579 0.52889,-0.045 1.05789,-0.1834 1.58667,-0.1365 1.83703,0.1627 2.45313,2.2067 1.91842,3.6744 -1.35748,2.5342 -3.67551,4.2538 -6.19039,5.5781 0,0 -0.45176,-0.9035 -0.45176,-0.9035 z"
       inkscape:connector-curvature="0" />
    <path
       style="color:#000000;fill:#000000;fill-opacity:1;fill-rule:nonzero;stroke:none;stroke-width:0.1;marker:none;visibility:visible;display:inline;overflow:visible;enable-background:accumulate"
       id="path3049"
       d="m 202.73338,1023.4589 c 2.57626,-0.6302 5.01028,-1.7897 7.20041,-3.2722 1.56088,-1.2283 2.47827,-2.9329 2.526,-4.9185 -0.36503,-1.4955 -1.84494,-1.507 -3.11939,-1.4292 -1.51212,0.3757 -2.89214,1.1764 -4.1906,2.0216 -1.54564,1.1108 -2.68983,2.6137 -3.55133,4.2928 -0.85339,1.9645 -1.0567,4.0154 -0.61675,6.0976 1.23903,2.583 3.87728,3.3662 6.4763,3.9049 2.83312,0.3904 5.52725,-0.1681 8.20179,-1.0482 0,0 0.31464,0.9599 0.31464,0.9599 l 0,0 c -2.8453,0.9291 -5.71428,1.5093 -8.72335,1.077 -3.0095,-0.6355 -5.95301,-1.6401 -7.25897,-4.6909 -0.46181,-2.3166 -0.26065,-4.5873 0.70904,-6.7643 0.95302,-1.8304 2.20037,-3.4735 3.90084,-4.6775 1.4514,-0.9298 2.97715,-1.8303 4.68223,-2.1815 1.91561,-0.098 3.82091,0.279 4.18496,2.4766 -0.11482,2.3133 -1.11515,4.2915 -2.97035,5.717 -2.31385,1.557 -4.87683,2.7838 -7.5994,3.4313 0,0 -0.16607,-0.9964 -0.16607,-0.9964 z"
       inkscape:connector-curvature="0" />
    <path
       style="color:#000000;fill:#000000;fill-opacity:1;fill-rule:nonzero;stroke:none;stroke-width:0.1;marker:none;visibility:visible;display:inline;overflow:visible;enable-background:accumulate"
       id="path3051"
       d="m 224.81986,1023.7927 c 0,3.6859 0,7.3718 0,11.0577 0.04,0.6383 0.0799,1.2766 0.11986,1.9149 0,0 -1.00821,0.063 -1.00821,0.063 l 0,0 c -0.0406,-0.6591 -0.0812,-1.3183 -0.12181,-1.9775 0,-3.6859 0,-7.3718 0,-11.0576 0,0 1.01016,0 1.01016,0 z"
       inkscape:connector-curvature="0" />
    <path
       style="color:#000000;fill:#000000;fill-opacity:1;fill-rule:nonzero;stroke:none;stroke-width:0.1;marker:none;visibility:visible;display:inline;overflow:visible;enable-background:accumulate"
       id="path3053"
       d="m 217.00795,1024.4672 c 3.3493,-0.5164 6.74557,-0.5324 10.10831,-0.8986 2.69328,-0.3086 5.37622,-0.6187 8.04318,-1.1064 0,0 0.18166,0.9936 0.18166,0.9936 l 0,0 c -2.69113,0.4918 -5.39828,0.8063 -8.11593,1.1171 -3.35188,0.3619 -6.73579,0.3845 -10.07436,0.8943 0,0 -0.14286,-1 -0.14286,-1 z"
       inkscape:connector-curvature="0" />
    <path
       style="color:#000000;fill:#000000;fill-opacity:1;fill-rule:nonzero;stroke:none;stroke-width:0.1;marker:none;visibility:visible;display:inline;overflow:visible;enable-background:accumulate"
       id="path3055"
       d="m 244.23267,1018.5221 c 3.7765,0 7.553,0 11.3295,0 2.53449,0.087 5.04985,-0.033 7.57003,-0.2852 0,0 0.10023,1.0052 0.10023,1.0052 l 0,0 c -2.55344,0.2542 -5.10248,0.3779 -7.67026,0.2901 -3.7765,0 -7.553,0 -11.3295,0 0,0 0,-1.0101 0,-1.0101 z"
       inkscape:connector-curvature="0" />
    <path
       style="color:#000000;fill:#000000;fill-opacity:1;fill-rule:nonzero;stroke:none;stroke-width:0.1;marker:none;visibility:visible;display:inline;overflow:visible;enable-background:accumulate"
       id="path3059"
       d="m 246.25297,1022.5627 c 2.56251,0 5.12502,0 7.68753,0 2.18656,0 4.37313,0 6.55969,0 0.33985,0 0.6797,0 1.01955,0 0,0 0,1.0101 0,1.0101 l 0,0 c -0.33985,0 -0.6797,0 -1.01955,0 -2.18656,0 -4.37313,0 -6.55969,0 -2.56251,0 -5.12502,0 -7.68753,0 0,0 0,-1.0101 0,-1.0101 z"
       inkscape:connector-curvature="0" />
    <path
       style="color:#000000;fill:#000000;fill-opacity:1;fill-rule:nonzero;stroke:none;stroke-width:0.1;marker:none;visibility:visible;display:inline;overflow:visible;enable-background:accumulate"
       id="path3001-9"
       d="m 317.54586,1015.4115 c 0,3.8323 0,7.6645 0,11.4967 0,2.755 0,5.51 0,8.265 0,0 -1.01015,0 -1.01015,0 l 0,0 c 0,-2.755 0,-5.51 0,-8.265 0,-3.8322 0,-7.6644 0,-11.4967 0,0 1.01015,0 1.01015,0 z"
       inkscape:connector-curvature="0" />
    <path
       style="color:#000000;fill:#000000;fill-opacity:1;fill-rule:nonzero;stroke:none;stroke-width:0.1;marker:none;visibility:visible;display:inline;overflow:visible;enable-background:accumulate"
       id="path3003-9"
       d="m 308.6744,1026.1825 c 2.959,0 5.91801,0 8.87701,0 2.33803,-0.021 4.66902,0.1479 6.97627,-0.2793 1.16554,-0.2261 0.57956,-0.1187 1.75799,-0.3219 0,0 0.17151,0.9955 0.17151,0.9955 l 0,0 c -1.1608,0.1998 -0.57857,0.093 -1.74663,0.3198 -2.36927,0.4337 -4.75875,0.2854 -7.15914,0.296 -2.959,0 -5.91801,0 -8.87701,0 0,0 0,-1.0101 0,-1.0101 z"
       inkscape:connector-curvature="0" />
    <path
       style="color:#000000;fill:#000000;fill-opacity:1;fill-rule:nonzero;stroke:none;stroke-width:0.1;marker:none;visibility:visible;display:inline;overflow:visible;enable-background:accumulate"
       id="path3005-1"
       d="m 349.74304,1000.2214 c -0.46256,3.2445 -0.62856,6.5224 -0.76927,9.7938 0.0496,0.377 -0.43138,3.5794 0.59642,3.5736 0.0723,-4e-4 0.0116,-0.1511 0.0531,-0.2102 0.0911,-0.1298 0.22202,-0.2265 0.33303,-0.3397 1.37992,-1.7891 2.06063,-3.9964 2.82007,-6.0967 0.48448,-1.9691 1.24406,-3.8559 1.71294,-5.8284 -0.27181,-0.9919 1.52273,-4.71433 2.05515,-1.62938 -0.23626,2.70858 -0.39101,5.42168 -0.49426,8.13828 -0.0563,2.3563 -0.34005,4.8985 0.83729,7.0362 0.16658,0.167 0.33317,0.3339 0.49976,0.5008 0,0 -0.73325,0.6948 -0.73325,0.6948 l 0,0 c -0.21955,-0.2406 -0.43909,-0.4812 -0.65864,-0.7217 -1.20699,-2.3394 -1.07257,-4.9787 -0.95458,-7.5484 0.10236,-2.6909 0.24697,-5.3794 0.49427,-8.06132 0.18098,-0.36042 0.0554,-0.23217 0.65828,-0.38739 0.0433,-0.0112 -0.092,0.0301 -0.1157,0.0681 -0.0912,0.14595 -0.1604,0.30577 -0.21913,0.46757 -0.24527,0.67564 -0.25667,0.94364 -0.38665,1.67704 -0.48152,2.0087 -1.24573,3.9331 -1.74558,5.9375 -0.82273,2.273 -1.55537,4.6792 -3.14745,6.5486 -0.26415,0.1803 -0.485,0.4528 -0.79244,0.541 -2.23049,0.6398 -1.89205,-3.3265 -1.82186,-4.4037 0.14261,-3.3124 0.3114,-6.6315 0.78208,-9.9164 0,0 0.99641,0.1661 0.99641,0.1661 z"
       inkscape:connector-curvature="0" />
    <path
       style="color:#000000;fill:#000000;fill-opacity:1;fill-rule:nonzero;stroke:none;stroke-width:0.1;marker:none;visibility:visible;display:inline;overflow:visible;enable-background:accumulate"
       id="path3007-9"
       d="m 359.55612,994.45313 c 1.59005,-1.98637 3.45832,-3.94379 6.02827,-4.47775 2.62466,0.30573 2.18513,2.93553 1.55807,4.79565 -1.06977,2.49949 -2.95517,4.43215 -4.81296,6.35157 0.15604,-0.049 -0.58534,0.5487 -0.39961,0.7705 0.0776,0.093 0.22902,-0.1141 0.34897,-0.099 1.37697,0.1742 -0.48317,10e-4 1.25313,0.1452 1.58729,0.072 3.17708,0.045 4.76538,0.033 0,0 0.007,1.0101 0.007,1.0101 l 0,0 c -1.61971,0.012 -3.24104,0.04 -4.85961,-0.037 -1.6771,-0.1496 -3.46046,-0.5735 -1.84145,-2.5258 1.7551,-1.81281 3.55047,-3.62797 4.58377,-5.97819 0.37311,-1.05465 1.11352,-3.00582 -0.41537,-3.47384 -2.32897,0.38122 -3.98889,2.40278 -5.42718,4.11622 0,0 -0.7888,-0.63103 -0.7888,-0.63103 z"
       inkscape:connector-curvature="0" />
    <path
       style="color:#000000;fill:#000000;fill-opacity:1;fill-rule:nonzero;stroke:none;stroke-width:0.1;marker:none;visibility:visible;display:inline;overflow:visible;enable-background:accumulate"
       id="path3009-0"
       d="m 343.95161,1027.8811 c 4.29462,-1.8276 8.43341,-3.9894 12.6582,-5.965 3.81033,-1.8464 7.75654,-3.3542 11.7226,-4.8194 2.9142,-0.8896 5.8136,-1.8603 8.79259,-2.5153 0.29701,-0.064 0.59402,-0.1283 0.89104,-0.1925 0,0 0.21328,0.9874 0.21328,0.9874 l 0,0 c -0.29592,0.064 -0.59184,0.1278 -0.88776,0.1917 -2.93419,0.6428 -5.78802,1.6045 -8.6591,2.4762 -3.93976,1.4554 -7.85999,2.9524 -11.64484,4.787 -4.23504,1.9794 -8.38289,4.1476 -12.68809,5.9784 0,0 -0.39792,-0.9285 -0.39792,-0.9285 z"
       inkscape:connector-curvature="0" />
    <path
       style="color:#000000;fill:#000000;fill-opacity:1;fill-rule:nonzero;stroke:none;stroke-width:0.1;marker:none;visibility:visible;display:inline;overflow:visible;enable-background:accumulate"
       id="path3011-4"
       d="m 351.44905,1034.7737 c 1.13502,-1.3919 3.15959,-5.3611 5.2702,-5.0742 0.39412,0.054 0.69746,0.3825 1.0462,0.5738 1.48805,2.7121 -0.37259,5.5523 -1.68148,7.9543 -1.257,2.2717 -2.95886,4.2427 -4.47177,6.3373 -0.0656,0.1585 -0.1885,0.3042 -0.19679,0.4756 -0.008,0.169 3.11649,-0.1103 3.19651,-0.1173 2.7256,-0.4161 5.43052,-0.315 8.15891,-0.039 0.40695,0.041 0.81389,0.083 1.22083,0.1242 0,0 -0.10221,1.005 -0.10221,1.005 l 0,0 c -0.40676,-0.041 -0.81353,-0.083 -1.22029,-0.1241 -2.6661,-0.2699 -5.30608,-0.3705 -7.96967,0.041 -1.45565,0.1263 -5.15311,0.6541 -3.90567,-1.9569 1.49125,-2.0575 3.15968,-3.9993 4.40317,-6.2285 1.08608,-1.9925 2.62955,-4.273 1.98995,-6.6428 -0.27139,-0.3127 -0.47368,-0.7441 -1.04806,-0.4169 -1.49709,0.8529 -2.75193,3.3388 -3.84933,4.6496 0,0 -0.8405,-0.5604 -0.8405,-0.5604 z"
       inkscape:connector-curvature="0" />
    <path
       style="color:#000000;fill:#000000;fill-opacity:1;fill-rule:nonzero;stroke:none;stroke-width:0.1;marker:none;visibility:visible;display:inline;overflow:visible;enable-background:accumulate"
       id="path3013-1"
       d="m 31.188492,938.42311 c 0.12699,4.34928 -0.19252,8.68329 -0.4584,13.02078 -0.29831,4.76746 -0.31724,9.54106 -0.80869,14.29405 -0.23521,1.85504 -0.3818,3.71948 -0.57925,5.57842 -0.0209,0.19676 0.12419,0.55768 -0.0711,0.5893 -0.37402,0.0605 -0.7078,-0.2706 -1.06171,-0.40591 0.30891,-3.19766 1.37254,-6.27265 2.25721,-9.34627 0.96071,-2.78574 1.63277,-5.80591 3.46471,-8.17901 2.08831,-1.60447 2.46861,2.31786 2.70349,3.5647 0.49319,3.022 0.86742,6.07336 1.44379,9.08091 0.37876,1.89779 0.70387,3.78697 1.27075,5.63809 0,0 -0.96594,0.29558 -0.96594,0.29558 l 0,0 c -0.57678,-1.8863 -0.91365,-3.81026 -1.29703,-5.74415 -0.57304,-3.00967 -0.95388,-6.0608 -1.44449,-9.08464 -0.17401,-0.93666 -0.21796,-1.3573 -0.4961,-2.23058 -0.0759,-0.23838 -0.22463,-0.45404 -0.27114,-0.69986 -0.0239,-0.12614 0.27866,-0.36308 0.15056,-0.35449 -0.11224,0.008 -0.19906,0.10484 -0.29859,0.15726 -1.78352,2.23824 -2.33074,5.20408 -3.28928,7.83563 -0.84727,2.94304 -1.82865,5.87553 -2.22819,8.9222 -0.31363,0.14309 -0.60033,0.48273 -0.94089,0.42926 -0.18781,-0.0295 0.0485,-0.37716 0.0686,-0.56621 0.1976,-1.86088 0.34452,-3.72722 0.57983,-5.5842 0.49071,-4.73882 0.50545,-9.49867 0.80522,-14.25189 0.26463,-4.31695 0.58378,-8.63026 0.4565,-12.95897 0,0 1.01016,0 1.01016,0 z"
       inkscape:connector-curvature="0" />
    <path
       style="color:#000000;fill:#000000;fill-opacity:1;fill-rule:nonzero;stroke:none;stroke-width:0.1;marker:none;visibility:visible;display:inline;overflow:visible;enable-background:accumulate"
       id="path3015-3"
       d="m 59.579632,957.15951 c 4.08041,-0.61174 8.21511,-0.31986 12.31836,-0.17195 3.08328,0.11389 6.16755,0.19575 9.25242,0.2502 0,0 -0.0178,1.01 -0.0178,1.01 l 0,0 c -3.09106,-0.0546 -6.18151,-0.13658 -9.27098,-0.2507 -4.04336,-0.14577 -8.11803,-0.43818 -12.13911,0.16245 0,0 -0.14286,-1 -0.14286,-1 z"
       inkscape:connector-curvature="0" />
    <path
       style="color:#000000;fill:#000000;fill-opacity:1;fill-rule:nonzero;stroke:none;stroke-width:0.1;marker:none;visibility:visible;display:inline;overflow:visible;enable-background:accumulate"
       id="path3017-7"
       d="m 60.540382,962.32602 c 3.32967,0 6.65933,0 9.989,0 3.70133,0 7.40266,0 11.10399,0 0,0 0,1.01016 0,1.01016 l 0,0 c -3.70133,0 -7.40266,0 -11.10399,0 -3.32967,0 -6.65933,0 -9.989,0 0,0 0,-1.01016 0,-1.01016 z"
       inkscape:connector-curvature="0" />
    <path
       style="color:#000000;fill:#000000;fill-opacity:1;fill-rule:nonzero;stroke:none;stroke-width:0.1;marker:none;visibility:visible;display:inline;overflow:visible;enable-background:accumulate"
       id="path3023-6"
       d="m 96.746162,959.07982 c 2.45967,-0.91763 4.623318,-2.4478 6.324148,-4.43541 0.79567,-1.27218 2.04403,-3.19041 0.91688,-4.59742 -1.26786,-0.85562 -2.83329,0.10252 -4.025818,0.69583 -1.35337,0.84971 -2.17273,2.1766 -2.91651,3.544 -0.95362,1.80325 -1.12792,3.82065 -1.27432,5.8175 -0.25582,2.22547 0.34318,4.13036 2.04554,5.58717 2.397368,1.56941 4.593098,1.57832 7.300698,0.96946 1.82124,-0.45652 3.49139,-1.28371 5.15363,-2.1281 0,0 0.45678,0.90098 0.45678,0.90098 l 0,0 c -1.73916,0.88002 -3.48665,1.74132 -5.39207,2.21339 -3.04777,0.66494 -5.526688,0.60128 -8.187788,-1.19864 -1.89478,-1.71653 -2.6838,-3.8487 -2.38422,-6.41844 0.15826,-2.14054 0.36613,-4.29704 1.39441,-6.22605 0.84407,-1.55137 1.80449,-3.02709 3.35427,-3.96586 1.686878,-0.83754 3.676018,-1.82608 5.309078,-0.36166 1.23215,1.97617 0.23163,4.06085 -0.98535,5.82729 -1.83411,2.11471 -4.129228,3.76302 -6.769928,4.73428 0,0 -0.31943,-0.95832 -0.31943,-0.95832 z"
       inkscape:connector-curvature="0" />
    <path
       style="color:#000000;fill:#000000;fill-opacity:1;fill-rule:nonzero;stroke:none;stroke-width:0.1;marker:none;visibility:visible;display:inline;overflow:visible;enable-background:accumulate"
       id="path3029-3"
       d="m 139.9357,949.60621 c -0.47537,3.84715 -0.63474,7.72543 -0.77091,11.59679 -0.0553,1.75738 -0.0781,3.51547 -0.1,5.2735 0,0 -1.01007,-0.0125 -1.01007,-0.0125 l 0,0 c 0.0219,-1.76569 0.045,-3.53144 0.10052,-5.29647 0.13753,-3.90726 0.29898,-7.82149 0.78044,-11.70412 0,0 1,0.14285 1,0.14285 z"
       inkscape:connector-curvature="0" />
    <path
       style="color:#000000;fill:#000000;fill-opacity:1;fill-rule:nonzero;stroke:none;stroke-width:0.1;marker:none;visibility:visible;display:inline;overflow:visible;enable-background:accumulate"
       id="path3031-1"
       d="m 132.11726,959.18161 c 3.57351,-0.61418 7.14447,-1.17538 10.7572,-1.5124 2.28156,-0.19766 4.56973,-0.28995 6.85811,-0.35854 0,0 0.0302,1.0097 0.0302,1.0097 l 0,0 c -2.26719,0.0678 -4.53417,0.15909 -6.79462,0.35463 -3.58855,0.33411 -7.13533,0.89277 -10.68486,1.50301 0,0 -0.16607,-0.9964 -0.16607,-0.9964 z"
       inkscape:connector-curvature="0" />
    <path
       style="color:#000000;fill:#000000;fill-opacity:1;fill-rule:nonzero;stroke:none;stroke-width:0.1;marker:none;visibility:visible;display:inline;overflow:visible;enable-background:accumulate"
       id="path3033-7"
       d="m 171.24862,936.365 c -0.49408,3.43402 -0.64293,6.90547 -0.76914,10.36878 -0.0953,3.17115 -0.11374,6.34387 -0.12002,9.51623 -1.5e-4,0.39219 -3e-4,0.78437 -4.4e-4,1.17656 0,0 -1.01016,-3.9e-4 -1.01016,-3.9e-4 l 0,0 c 1.5e-4,-0.39272 3e-4,-0.78545 4.5e-4,-1.17817 0.006,-3.18397 0.0249,-6.36829 0.12069,-9.55104 0.12795,-3.50659 0.27956,-7.0214 0.78221,-10.49803 0,0 0.99641,0.16606 0.99641,0.16606 z"
       inkscape:connector-curvature="0" />
    <path
       style="color:#000000;fill:#000000;fill-opacity:1;fill-rule:nonzero;stroke:none;stroke-width:0.1;marker:none;visibility:visible;display:inline;overflow:visible;enable-background:accumulate"
       id="path3035-7"
       d="m 164.245,937.68386 c 3.12048,-1.84748 6.6535,-2.63378 10.19483,-3.1816 3.1856,-0.282 5.79231,0.55754 7.1468,3.58648 0.15609,3.13359 -2.5666,4.70779 -5.11403,5.77813 -2.38905,0.79956 -4.84768,1.33284 -7.3102,1.84313 0,0 -0.20497,-0.98913 -0.20497,-0.98913 l 0,0 c 2.40017,-0.49737 4.79613,-1.01638 7.12742,-1.78677 2.0232,-0.83105 4.36609,-2.00943 4.57146,-4.45178 -0.97959,-2.50485 -3.54117,-3.25084 -6.06236,-2.98173 -3.39649,0.52319 -6.7885,1.26507 -9.78861,3.02377 0,0 -0.56034,-0.8405 -0.56034,-0.8405 z"
       inkscape:connector-curvature="0" />
    <path
       style="color:#000000;fill:#000000;fill-opacity:1;fill-rule:nonzero;stroke:none;stroke-width:0.1;marker:none;visibility:visible;display:inline;overflow:visible;enable-background:accumulate"
       id="path3037-6"
       d="m 158.44633,962.10379 c 4.32474,-1.11454 8.63372,-2.26473 13.00551,-3.18802 5.18483,-0.98453 10.40477,-1.75106 15.61443,-2.58666 3.03658,-0.41349 6.02877,-1.08157 9.05254,-1.57394 0,0 0.16228,0.99704 0.16228,0.99704 l 0,0 c -3.02459,0.49207 -6.01738,1.16143 -9.05484,1.5743 -5.19338,0.83297 -10.39697,1.59718 -15.56576,2.57763 -4.34883,0.91763 -8.63466,2.06296 -12.93665,3.17094 0,0 -0.27751,-0.97129 -0.27751,-0.97129 z"
       inkscape:connector-curvature="0" />
    <path
       style="color:#000000;fill:#000000;fill-opacity:1;fill-rule:nonzero;stroke:none;stroke-width:0.1;marker:none;visibility:visible;display:inline;overflow:visible;enable-background:accumulate"
       id="path3041-3"
       d="m 169.73565,971.68498 c 2.16325,0.48239 4.37563,0.62268 6.43357,-0.2781 1.23552,-0.82812 2.20733,-2.29653 1.77782,-3.81657 -0.79575,-1.44573 -2.4234,-1.77185 -3.92307,-2.03204 -1.58762,-0.20648 -3.33447,-0.37722 -4.65172,0.68538 -1.28991,0.89356 -1.63142,2.26303 -1.86619,3.72833 -0.37123,1.95375 0.0959,3.78365 0.6787,5.63438 0.9892,2.23469 2.16945,4.37729 3.06958,6.6548 0.91237,2.28962 1.02194,4.34363 -0.46278,6.36519 -1.74143,1.60356 -4.21508,1.90072 -6.49263,1.83045 -1.28615,-0.12284 -2.32712,-0.69281 -3.39448,-1.3608 0,0 0.54191,-0.85249 0.54191,-0.85249 l 0,0 c 0.90376,0.58508 1.79147,1.08157 2.88873,1.20378 1.93768,0.0804 4.10995,-0.15034 5.65081,-1.43031 1.32644,-1.68847 1.08159,-3.45106 0.32876,-5.38512 -0.90597,-2.30095 -2.11583,-4.45618 -3.09348,-6.7223 -0.629,-2.00033 -1.10799,-3.9915 -0.71215,-6.09982 0.28354,-1.71862 0.75281,-3.32226 2.25462,-4.37233 1.61852,-1.1668 3.51245,-1.17578 5.43528,-0.87402 1.92294,0.34227 3.86192,0.86793 4.7333,2.80376 0.39593,2.05483 -0.60404,3.88121 -2.36672,4.9689 -2.30547,0.96197 -4.7361,0.8847 -7.1493,0.30724 0,0 0.31944,-0.95831 0.31944,-0.95831 z"
       inkscape:connector-curvature="0" />
    <path
       style="color:#000000;fill:#000000;fill-opacity:1;fill-rule:nonzero;stroke:none;stroke-width:0.1;marker:none;visibility:visible;display:inline;overflow:visible;enable-background:accumulate"
       id="path2987-0"
       d="m 48.780042,971.22246 c 0,3.38092 0,6.76183 0,10.14275 0,1.50483 0,3.00967 0,4.51451 0,0 -1.01016,0 -1.01016,0 l 0,0 c 0,-1.50484 0,-3.00968 0,-4.51451 0,-3.38092 0,-6.76183 0,-10.14275 0,0 1.01016,0 1.01016,0 z"
       inkscape:connector-curvature="0" />
    <path
       style="color:#000000;fill:#000000;fill-opacity:1;fill-rule:nonzero;stroke:none;stroke-width:0.1;marker:none;visibility:visible;display:inline;overflow:visible;enable-background:accumulate"
       id="path2989-0"
       d="m 42.835692,971.89874 c 2.78707,-0.3387 5.5285,-0.94648 8.30019,-1.38482 1.79304,-0.16704 3.5099,-0.73088 5.26792,-1.09061 0,0 0.20215,0.98972 0.20215,0.98972 l 0,0 c -1.77285,0.36141 -3.50396,0.93192 -5.31236,1.09865 -2.76893,0.43745 -5.50753,1.04552 -8.29183,1.38347 0,0 -0.16607,-0.99641 -0.16607,-0.99641 z"
       inkscape:connector-curvature="0" />
    <path
       style="color:#000000;fill:#000000;fill-opacity:1;fill-rule:nonzero;stroke:none;stroke-width:0.1;marker:none;visibility:visible;display:inline;overflow:visible;enable-background:accumulate"
       id="path2987-3"
       d="m 119.28768,967.16154 c 0,3.38092 0,6.76183 0,10.14275 0,1.50483 0,3.00967 0,4.51451 0,0 -1.01016,0 -1.01016,0 l 0,0 c 0,-1.50484 0,-3.00968 0,-4.51451 0,-3.38092 0,-6.76183 0,-10.14275 0,0 1.01016,0 1.01016,0 z"
       inkscape:connector-curvature="0" />
    <path
       style="color:#000000;fill:#000000;fill-opacity:1;fill-rule:nonzero;stroke:none;stroke-width:0.1;marker:none;visibility:visible;display:inline;overflow:visible;enable-background:accumulate"
       id="path2989-1"
       d="m 111.34333,967.83782 c 2.78707,-0.3387 5.5285,-0.94648 8.30019,-1.38482 1.79304,-0.16704 3.5099,-0.73088 5.26792,-1.09061 0,0 0.20215,0.98972 0.20215,0.98972 l 0,0 c -1.77285,0.36141 -3.50396,0.93192 -5.31236,1.09865 -2.76893,0.43745 -5.50753,1.04552 -8.29183,1.38347 0,0 -0.16607,-0.99641 -0.16607,-0.99641 z"
       inkscape:connector-curvature="0" />
    <path
       style="color:#000000;fill:#000000;fill-opacity:1;fill-rule:nonzero;stroke:none;stroke-width:0.1;marker:none;visibility:visible;display:inline;overflow:visible;enable-background:accumulate"
       id="path3169"
       d="m 288.39855,919.74704 c 0,2.56251 0,5.12502 0,7.68753 0,2.18656 0,4.37313 0,6.55969 0.14108,2.08148 -0.11991,4.10635 -0.46447,6.15098 -0.34378,1.97769 -0.44929,3.98283 -0.51256,5.98556 -0.0466,2.01431 -0.0409,4.02934 -0.0396,6.04405 0.003,2.02035 0.005,4.04069 0.006,6.06104 8.9e-4,2.0204 9.3e-4,4.04079 9.8e-4,6.06119 2e-5,2.02031 -10e-6,4.04062 -3e-5,6.06093 -10e-6,2.0203 -10e-6,4.04061 -10e-6,6.06091 -1e-5,2.02031 -1e-5,4.04061 0,6.06092 -0.26334,1.76735 -0.64551,3.50588 -0.82979,5.28601 -0.16413,1.9368 -0.17297,3.88213 -0.18458,5.82448 -0.0438,1.5451 0.38344,3.6473 -1.23153,4.48243 -1.67375,-0.32293 -2.49977,-2.21934 -3.35906,-3.5539 -1.20366,-1.63267 -1.97826,-3.5036 -2.90414,-5.2891 -0.13619,-0.2769 -0.28205,-0.54925 -0.40856,-0.83071 -0.35624,-0.79251 -0.37475,-0.92604 -0.63052,-1.7567 -0.0662,-0.21509 -0.12409,-0.43283 -0.1961,-0.64605 -0.0344,-0.10177 -0.23008,-0.2941 -0.12273,-0.29797 0.39806,-0.0144 0.77751,0.17357 1.16626,0.26036 0.62241,1.74614 1.39512,3.41278 2.26422,5.04658 0.82121,1.60002 1.86921,3.03774 2.94183,4.47122 0.95112,1.19341 1.33502,0.75332 2.05607,-0.27508 0.94685,-1.64515 1.61679,-3.41599 2.39829,-5.1404 0.61271,-1.52346 1.33445,-3.00266 2.08655,-4.46248 0.59413,-0.85319 0.30875,-0.43521 0.85734,-1.25312 0,0 0.83882,0.56285 0.83882,0.56285 l 0,0 c -0.53613,0.79867 -0.26938,0.4148 -0.79822,1.153 -0.7447,1.44477 -1.46018,2.90777 -2.06443,4.41676 -0.80818,1.78291 -1.49795,3.61693 -2.49512,5.30881 -1.2082,1.67912 -2.25563,2.02115 -3.68831,0.29457 -1.10239,-1.47544 -2.17844,-2.95699 -3.02465,-4.60173 -0.89191,-1.67673 -1.68323,-3.38858 -2.32317,-5.17975 0.24032,-0.3268 0.38601,-0.75158 0.72095,-0.98041 0.0375,-0.0256 0.084,0.16076 0.34757,1.02476 0.25499,0.83574 0.53294,1.65932 0.97132,2.42174 0.90664,1.76009 1.67342,3.5986 2.85642,5.20656 0.68851,1.07256 1.42348,2.13145 2.17225,3.14795 0.67823,0.5166 0.54657,-3.29403 0.55851,-3.53624 0.0118,-1.97517 0.0214,-3.95337 0.18997,-5.92279 0.18184,-1.74514 0.535,-3.45367 0.82438,-5.18165 0,-2.02031 0,-4.04062 0,-6.06092 0,-2.02031 1e-5,-4.04061 2e-5,-6.06092 1e-5,-2.0203 4e-5,-4.0406 3e-5,-6.0609 -5e-5,-2.02022 -9e-5,-4.04045 -9.8e-4,-6.06067 -10e-4,-2.02032 -0.003,-4.04063 -0.006,-6.06095 -0.001,-2.02557 -0.007,-4.05148 0.0402,-6.07665 0.065,-2.04827 0.17448,-4.09884 0.5261,-6.12146 0.33536,-1.98998 0.59301,-3.95647 0.45043,-5.98311 0,-2.18656 0,-4.37313 0,-6.55969 0,-2.56251 0,-5.12502 0,-7.68753 0,0 1.01015,0 1.01015,0 z"
       inkscape:connector-curvature="0" />
    <path
       style="color:#000000;fill:#000000;fill-opacity:1;fill-rule:nonzero;stroke:none;stroke-width:0.1;marker:none;visibility:visible;display:inline;overflow:visible;enable-background:accumulate"
       id="path3169-5"
       d="m 219.76058,921.27545 c 0,2.56251 0,5.12502 0,7.68753 0,2.18656 0,4.37313 0,6.55969 0.14108,2.08148 -0.11991,4.10635 -0.46447,6.15098 -0.34378,1.97769 -0.4493,3.98283 -0.51257,5.98556 -0.0466,2.01431 -0.0409,4.02934 -0.0396,6.04405 0.003,2.02035 0.005,4.04069 0.006,6.06104 8.9e-4,2.0204 9.3e-4,4.04079 9.8e-4,6.06119 2e-5,2.02031 -1e-5,4.04062 -3e-5,6.06093 -1e-5,2.0203 -1e-5,4.04061 -1e-5,6.06091 -1e-5,2.02031 -1e-5,4.04061 0,6.06092 -0.26334,1.76735 -0.64551,3.50588 -0.82979,5.28601 -0.16413,1.9368 -0.17297,3.88213 -0.18458,5.82448 -0.0438,1.5451 0.38344,3.6473 -1.23153,4.48243 -1.67375,-0.32293 -2.49977,-2.21934 -3.35906,-3.5539 -1.20366,-1.63267 -1.97826,-3.5036 -2.90414,-5.2891 -0.13619,-0.2769 -0.28205,-0.54925 -0.40856,-0.83071 -0.35624,-0.79251 -0.37475,-0.92604 -0.63052,-1.7567 -0.0662,-0.21509 -0.12409,-0.43283 -0.1961,-0.64605 -0.0344,-0.10177 -0.23008,-0.2941 -0.12273,-0.29797 0.39806,-0.0144 0.77751,0.17357 1.16626,0.26036 0.62241,1.74614 1.39512,3.41278 2.26422,5.04658 0.82121,1.60002 1.86921,3.03774 2.94183,4.47122 0.95112,1.19341 1.33502,0.75332 2.05607,-0.27508 0.94685,-1.64515 1.6168,-3.41599 2.3983,-5.1404 0.61271,-1.52346 1.33445,-3.00266 2.08655,-4.46248 0.59413,-0.85319 0.30875,-0.43521 0.85734,-1.25312 0,0 0.83882,0.56285 0.83882,0.56285 l 0,0 c -0.53613,0.79867 -0.26938,0.4148 -0.79822,1.153 -0.7447,1.44477 -1.46018,2.90777 -2.06443,4.41676 -0.80818,1.78291 -1.49795,3.61693 -2.49513,5.30881 -1.2082,1.67912 -2.25563,2.02115 -3.68831,0.29457 -1.10239,-1.47544 -2.17844,-2.95699 -3.02465,-4.60173 -0.89191,-1.67673 -1.68323,-3.38858 -2.32317,-5.17975 0.24032,-0.3268 0.38601,-0.75158 0.72095,-0.98041 0.0375,-0.0256 0.084,0.16076 0.34757,1.02476 0.25499,0.83574 0.53294,1.65932 0.97132,2.42174 0.90664,1.76009 1.67342,3.5986 2.85642,5.20656 0.68851,1.07256 1.42348,2.13145 2.17225,3.14795 0.67823,0.5166 0.54657,-3.29403 0.55851,-3.53624 0.0118,-1.97517 0.0214,-3.95337 0.18997,-5.92279 0.18184,-1.74514 0.535,-3.45367 0.82438,-5.18165 0,-2.02031 0,-4.04062 0,-6.06092 0,-2.02031 1e-5,-4.04061 2e-5,-6.06092 1e-5,-2.0203 4e-5,-4.0406 3e-5,-6.0609 -5e-5,-2.02022 -9e-5,-4.04045 -9.8e-4,-6.06067 -0.001,-2.02032 -0.003,-4.04063 -0.006,-6.06095 -0.001,-2.02557 -0.007,-4.05148 0.0402,-6.07665 0.065,-2.04827 0.17448,-4.09884 0.5261,-6.12146 0.33536,-1.98998 0.59302,-3.95647 0.45043,-5.98311 0,-2.18656 0,-4.37313 0,-6.55969 0,-2.56251 0,-5.12502 0,-7.68753 0,0 1.01016,0 1.01016,0 z"
       inkscape:connector-curvature="0" />
  </g>
</svg>
