<?xml version="1.0" encoding="UTF-8" standalone="no"?>
<!-- Created with Inkscape (http://www.inkscape.org/) -->

<svg
   xmlns:dc="http://purl.org/dc/elements/1.1/"
   xmlns:cc="http://creativecommons.org/ns#"
   xmlns:rdf="http://www.w3.org/1999/02/22-rdf-syntax-ns#"
   xmlns:svg="http://www.w3.org/2000/svg"
   xmlns="http://www.w3.org/2000/svg"
   xmlns:sodipodi="http://sodipodi.sourceforge.net/DTD/sodipodi-0.dtd"
   xmlns:inkscape="http://www.inkscape.org/namespaces/inkscape"
   id="svg3036"
   version="1.1"
   inkscape:version="0.48.3.1 r9886"
   width="600"
   height="600"
   sodipodi:docname="centred_scheme.svg">
  <metadata
     id="metadata3042">
    <rdf:RDF>
      <cc:Work
         rdf:about="">
        <dc:format>image/svg+xml</dc:format>
        <dc:type
           rdf:resource="http://purl.org/dc/dcmitype/StillImage" />
        <dc:title></dc:title>
      </cc:Work>
    </rdf:RDF>
  </metadata>
  <defs
     id="defs3040" />
  <sodipodi:namedview
     pagecolor="#ffffff"
     bordercolor="#666666"
     borderopacity="1"
     objecttolerance="10"
     gridtolerance="10"
     guidetolerance="10"
     inkscape:pageopacity="0"
     inkscape:pageshadow="2"
     inkscape:window-width="1020"
     inkscape:window-height="806"
     id="namedview3038"
     showgrid="false"
     inkscape:zoom="1.1737973"
     inkscape:cx="414.1013"
     inkscape:cy="299.43902"
     inkscape:window-x="0"
     inkscape:window-y="31"
     inkscape:window-maximized="0"
     inkscape:current-layer="svg3036"
     showguides="true"
     inkscape:guide-bbox="true">
    <inkscape:grid
       type="xygrid"
       id="grid5981"
       empspacing="5"
       visible="true"
       enabled="true"
       snapvisiblegridlinesonly="true" />
  </sodipodi:namedview>
  <rect
     style="color:#000000;fill:#ff0000;fill-opacity:0.08866996;fill-rule:nonzero;stroke:#000000;stroke-width:0.34675956;stroke-linecap:butt;stroke-linejoin:miter;stroke-miterlimit:4;stroke-opacity:1;stroke-dasharray:none;stroke-dashoffset:0;marker:none;visibility:visible;display:inline;overflow:visible;enable-background:accumulate"
     id="rect7270-4-9-8"
     width="93.564865"
     height="96.737839"
     x="295.34564"
     y="295.19836" />
  <rect
     style="color:#000000;fill:#ffffff;fill-opacity:1;fill-rule:nonzero;stroke:none;stroke-width:0.87127787;marker:none;visibility:visible;display:inline;overflow:visible;enable-background:accumulate"
     id="rect8941-0"
     width="156.7515"
     height="131.14009"
     x="492.14816"
     y="24.763895"
     transform="matrix(0.81919713,0.57351204,-0.67525155,0.73758752,0,0)" />
  <path
     style="fill:none;stroke:#000000;stroke-width:1.10291432999999994px;stroke-linecap:butt;stroke-linejoin:miter;stroke-opacity:0.38916257"
     d="m 293.0019,91.00024 2.19569,407.32307"
     id="path3772"
     inkscape:connector-curvature="0" />
  <rect
     style="color:#000000;fill:#ff0000;fill-opacity:0.08866996;fill-rule:nonzero;stroke:#000000;stroke-width:0.33523637;stroke-linecap:butt;stroke-linejoin:miter;stroke-miterlimit:4;stroke-opacity:1;stroke-dasharray:none;stroke-dashoffset:0;marker:none;visibility:visible;display:inline;overflow:visible;enable-background:accumulate"
     id="rect7270-4-9"
     width="87.449669"
     height="96.737839"
     x="204.98158"
     y="198.61903" />
  <rect
     style="color:#000000;fill:#ffffff;fill-opacity:1;fill-rule:nonzero;stroke:none;stroke-width:0.87127787;marker:none;visibility:visible;display:inline;overflow:visible;enable-background:accumulate"
     id="rect8941"
     width="156.7515"
     height="131.14009"
     x="194.55412"
     y="-7.4494472"
     transform="matrix(0.81919713,0.57351204,-0.67525155,0.73758752,0,0)" />
  <path
     style="color:#000000;fill-opacity:1;fill-rule:nonzero;stroke-width:1;stroke-linecap:butt;stroke-linejoin:miter;stroke-miterlimit:4;stroke-opacity:1;stroke-dasharray:none;stroke-dashoffset:0;marker:none;visibility:visible;display:inline;overflow:visible;enable-background:accumulate;stroke:#ff0000"
     id="path3253"
     d="m 202.692,485.54756 c -2.57485,0.142 -4.72165,1.05611 -6.6776,2.69698 -1.62276,1.68803 -1.61641,3.6393 -1.36476,5.8047 0.54457,1.89296 1.46502,3.63773 3.0378,4.85392 1.84547,1.0009 3.60568,2.12333 5.75298,2.23247 2.24003,0.0195 3.83862,-1.5363 5.47689,-2.8521 1.74958,-1.65389 2.74351,-3.85917 3.42052,-6.12959 0.40553,-2.59596 -0.20965,-3.23055 -2.09821,-4.69166 -1.93899,-1.33868 -4.28355,-1.58171 -6.56571,-1.79223 -3.15752,-0.0212 -5.35335,1.93097 -7.48894,3.99753 -0.33739,0.46111 -0.67477,0.92222 -1.01216,1.38331 0,0 -1.18101,-0.87476 -1.18101,-0.87476 l 0,0 c 0.39068,-0.52186 0.78136,-1.04372 1.17206,-1.56559 2.45604,-2.36863 5.03287,-4.48175 8.64601,-4.40388 2.56392,0.23976 5.16961,0.56189 7.32914,2.09326 2.39094,1.85026 3.15151,3.15196 2.60617,6.27759 -0.77493,2.55344 -1.91159,5.01399 -3.90772,6.85202 -1.93797,1.55551 -3.8484,3.25103 -6.49872,3.17228 -2.44277,-0.20313 -4.48978,-1.31716 -6.56933,-2.55095 -1.84075,-1.51021 -3.00442,-3.52012 -3.57984,-5.83374 -0.30379,-2.66878 -0.13187,-5.08874 1.88843,-7.10535 2.24099,-1.82973 4.6997,-2.90544 7.62729,-3.03385 0,0 -0.0133,1.46964 -0.0133,1.46964 z"
     inkscape:connector-curvature="0" />
  <path
     style="color:#000000;fill:#000000;fill-opacity:1;fill-rule:nonzero;stroke-width:1;stroke-linecap:butt;stroke-linejoin:miter;stroke-miterlimit:4;stroke-opacity:1;stroke-dasharray:none;stroke-dashoffset:0;marker:none;visibility:visible;display:inline;overflow:visible;enable-background:accumulate"
     id="path3253-5"
     d="m 108.66521,484.02095 c -2.57485,0.142 -4.72165,1.05611 -6.6776,2.69698 -1.62276,1.68803 -1.61641,3.6393 -1.36476,5.8047 0.54457,1.89296 1.46502,3.63773 3.0378,4.85392 1.84547,1.0009 3.60568,2.12333 5.75298,2.23247 2.24003,0.0195 3.83862,-1.5363 5.47689,-2.8521 1.74958,-1.65389 2.74352,-3.85917 3.42052,-6.12958 0.40554,-2.59597 -0.20965,-3.23056 -2.09821,-4.69167 -1.93898,-1.33868 -4.28355,-1.58171 -6.56571,-1.79223 -3.15752,-0.0212 -5.35335,1.93097 -7.48894,3.99753 -0.33739,0.46111 -0.67477,0.92222 -1.01216,1.38331 0,0 -1.18101,-0.87476 -1.18101,-0.87476 l 0,0 c 0.39068,-0.52186 0.78137,-1.04372 1.17206,-1.56559 2.45604,-2.36863 5.03287,-4.48175 8.64601,-4.40388 2.56392,0.23976 5.16961,0.56189 7.32914,2.09326 2.39094,1.85026 3.15151,3.15196 2.60617,6.27759 -0.77493,2.55344 -1.91159,5.01399 -3.90772,6.85202 -1.93797,1.55551 -3.8484,3.25103 -6.49871,3.17228 -2.44278,-0.20313 -4.48979,-1.31716 -6.56934,-2.55095 -1.84075,-1.51021 -3.00442,-3.52012 -3.57984,-5.83374 -0.30379,-2.66878 -0.13187,-5.08874 1.88843,-7.10535 2.24099,-1.82973 4.6997,-2.90544 7.62729,-3.03385 0,0 -0.0133,1.46964 -0.0133,1.46964 z"
     inkscape:connector-curvature="0" />
  <path
     style="color:#000000;fill-opacity:1;fill-rule:nonzero;stroke-width:1;stroke-linecap:butt;stroke-linejoin:miter;stroke-miterlimit:4;stroke-opacity:1;stroke-dasharray:none;stroke-dashoffset:0;marker:none;visibility:visible;display:inline;overflow:visible;enable-background:accumulate"
     id="path3253-5-8"
     d="m 294.78476,485.14547 c -2.57485,0.142 -4.72165,1.05611 -6.6776,2.69698 -1.62276,1.68803 -1.61641,3.6393 -1.36476,5.8047 0.54457,1.89296 1.46502,3.63773 3.0378,4.85391 1.84547,1.00091 3.60568,2.12334 5.75298,2.23248 2.24003,0.0195 3.83862,-1.5363 5.47689,-2.8521 1.74959,-1.65389 2.74352,-3.85917 3.42052,-6.12959 0.40554,-2.59596 -0.20965,-3.23055 -2.09821,-4.69166 -1.93898,-1.33868 -4.28355,-1.58171 -6.56571,-1.79223 -3.15752,-0.0212 -5.35334,1.93097 -7.48894,3.99753 -0.33739,0.46111 -0.67477,0.92221 -1.01216,1.38331 0,0 -1.18101,-0.87476 -1.18101,-0.87476 l 0,0 c 0.39068,-0.52186 0.78137,-1.04373 1.17206,-1.56559 2.45604,-2.36863 5.03287,-4.48176 8.64601,-4.40389 2.56392,0.23977 5.16961,0.5619 7.32914,2.09327 2.39094,1.85026 3.15151,3.15196 2.60617,6.27759 -0.77493,2.55344 -1.91159,5.01399 -3.90772,6.85202 -1.93797,1.55551 -3.8484,3.25103 -6.49871,3.17228 -2.44278,-0.20314 -4.48979,-1.31716 -6.56934,-2.55095 -1.84074,-1.51021 -3.00442,-3.52012 -3.57984,-5.83374 -0.30379,-2.66878 -0.13187,-5.08874 1.88843,-7.10535 2.24099,-1.82973 4.6997,-2.90544 7.62729,-3.03385 0,0 -0.0133,1.46964 -0.0133,1.46964 z"
     inkscape:connector-curvature="0" />
  <path
     sodipodi:type="arc"
     style="color:#000000;fill:#000000;fill-opacity:1;fill-rule:nonzero;stroke-width:1;stroke-linecap:butt;stroke-linejoin:miter;stroke-miterlimit:4;stroke-opacity:1;stroke-dasharray:12, 12;stroke-dashoffset:0;marker:none;visibility:visible;display:inline;overflow:visible;enable-background:accumulate"
     id="path4447"
     sodipodi:cx="97.120689"
     sodipodi:cy="64.136719"
     sodipodi:rx="8.5193586"
     sodipodi:ry="7.6674228"
     d="m 105.64005,64.136719 a 8.5193586,7.6674228 0 1 1 -17.038719,0 8.5193586,7.6674228 0 1 1 17.038719,0 z"
     transform="matrix(1.2197965,0.01103034,-0.01103034,1.2197965,-9.051444,411.64423)" />
  <path
     sodipodi:type="arc"
     style="color:#000000;fill:#000000;fill-opacity:1;fill-rule:nonzero;stroke-width:1;stroke-linecap:butt;stroke-linejoin:miter;stroke-miterlimit:4;stroke-opacity:1;stroke-dasharray:12, 12;stroke-dashoffset:0;marker:none;visibility:visible;display:inline;overflow:visible;enable-background:accumulate"
     id="path4447-6"
     sodipodi:cx="97.120689"
     sodipodi:cy="64.136719"
     sodipodi:rx="8.5193586"
     sodipodi:ry="7.6674228"
     d="m 105.64005,64.136719 a 8.5193586,7.6674228 0 1 1 -17.038719,0 8.5193586,7.6674228 0 1 1 17.038719,0 z"
     transform="matrix(1.2197965,0.01103034,-0.01103034,1.2197965,176.92786,412.32566)" />
  <path
     style="color:#000000;fill:#000000;fill-opacity:1;fill-rule:nonzero;stroke-width:1;stroke-linecap:butt;stroke-linejoin:miter;stroke-miterlimit:4;stroke-opacity:1;stroke-dasharray:none;stroke-dashoffset:0;marker:none;visibility:visible;display:inline;overflow:visible;enable-background:accumulate;stroke:#ff0000"
     id="path3253-5-9"
     d="m 108.16842,385.60517 c -2.57485,0.142 -4.72165,1.05611 -6.6776,2.69698 -1.62276,1.68804 -1.61641,3.6393 -1.36476,5.8047 0.54457,1.89296 1.46502,3.63773 3.0378,4.85392 1.84547,1.0009 3.60568,2.12333 5.75298,2.23247 2.24003,0.0195 3.83862,-1.5363 5.47689,-2.8521 1.74958,-1.65389 2.74352,-3.85917 3.42052,-6.12958 0.40554,-2.59597 -0.20965,-3.23056 -2.09821,-4.69167 -1.93898,-1.33868 -4.28355,-1.58171 -6.56571,-1.79223 -3.15752,-0.0212 -5.35335,1.93097 -7.48894,3.99753 -0.33739,0.46111 -0.67477,0.92222 -1.01216,1.38331 0,0 -1.18101,-0.87476 -1.18101,-0.87476 l 0,0 c 0.39068,-0.52186 0.78136,-1.04372 1.17206,-1.56559 2.45604,-2.36863 5.03287,-4.48175 8.64601,-4.40388 2.56392,0.23976 5.16961,0.56189 7.32914,2.09326 2.39094,1.85026 3.15151,3.15196 2.60617,6.27759 -0.77493,2.55344 -1.91159,5.01399 -3.90772,6.85203 -1.93797,1.5555 -3.8484,3.25102 -6.49871,3.17227 -2.44278,-0.20313 -4.48979,-1.31716 -6.56934,-2.55094 -1.84075,-1.51022 -3.00442,-3.52013 -3.57984,-5.83375 -0.30379,-2.66878 -0.13187,-5.08873 1.88843,-7.10535 2.24099,-1.82973 4.6997,-2.90544 7.62729,-3.03385 0,0 -0.0133,1.46964 -0.0133,1.46964 z"
     inkscape:connector-curvature="0" />
  <path
     style="color:#000000;fill:#000000;fill-opacity:1;fill-rule:nonzero;stroke-width:1;stroke-linecap:butt;stroke-linejoin:miter;stroke-miterlimit:4;stroke-opacity:1;stroke-dasharray:none;stroke-dashoffset:0;marker:none;visibility:visible;display:inline;overflow:visible;enable-background:accumulate"
     id="path3253-5-9-4"
     d="m 108.84944,286.34126 c -2.57485,0.142 -4.72166,1.05611 -6.67761,2.69698 -1.62275,1.68803 -1.6164,3.6393 -1.36475,5.8047 0.54457,1.89296 1.46501,3.63773 3.03779,4.85392 1.84548,1.0009 3.60569,2.12333 5.75299,2.23247 2.24003,0.0195 3.83862,-1.5363 5.47688,-2.8521 1.74959,-1.65389 2.74352,-3.85917 3.42053,-6.12959 0.40553,-2.59596 -0.20966,-3.23055 -2.09821,-4.69166 -1.93899,-1.33868 -4.28355,-1.58171 -6.56571,-1.79223 -3.15752,-0.0212 -5.35335,1.93097 -7.48895,3.99753 -0.33738,0.46111 -0.67477,0.92222 -1.01215,1.38331 0,0 -1.18101,-0.87476 -1.18101,-0.87476 l 0,0 c 0.39068,-0.52186 0.78136,-1.04372 1.17206,-1.56559 2.45603,-2.36863 5.03286,-4.48175 8.646,-4.40388 2.56392,0.23976 5.16961,0.56189 7.32914,2.09326 2.39095,1.85026 3.15151,3.15196 2.60617,6.27759 -0.77492,2.55344 -1.91158,5.01399 -3.90772,6.85202 -1.93796,1.55551 -3.84839,3.25103 -6.49871,3.17228 -2.44277,-0.20313 -4.48979,-1.31716 -6.56934,-2.55095 -1.84074,-1.51021 -3.00441,-3.52012 -3.57984,-5.83374 -0.30378,-2.66878 -0.13187,-5.08874 1.88844,-7.10535 2.24099,-1.82973 4.69969,-2.90544 7.62729,-3.03385 0,0 -0.0133,1.46964 -0.0133,1.46964 z"
     inkscape:connector-curvature="0" />
  <path
     style="color:#000000;fill-opacity:1;fill-rule:nonzero;stroke-width:1;stroke-linecap:butt;stroke-linejoin:miter;stroke-miterlimit:4;stroke-opacity:1;stroke-dasharray:none;stroke-dashoffset:0;marker:none;visibility:visible;display:inline;overflow:visible;enable-background:accumulate"
     id="path3253-5-8-8-6"
     d="m 294.96899,287.46578 c -2.57485,0.142 -4.72166,1.05611 -6.6776,2.69698 -1.62276,1.68803 -1.61641,3.6393 -1.36476,5.8047 0.54457,1.89296 1.46501,3.63773 3.0378,4.85391 1.84547,1.00091 3.60568,2.12334 5.75298,2.23248 2.24003,0.0195 3.83862,-1.53631 5.47688,-2.8521 1.74959,-1.65389 2.74352,-3.85917 3.42053,-6.12959 0.40553,-2.59596 -0.20966,-3.23055 -2.09821,-4.69166 -1.93899,-1.33868 -4.28355,-1.58171 -6.56571,-1.79224 -3.15752,-0.0212 -5.35335,1.93097 -7.48895,3.99754 -0.33738,0.46111 -0.67477,0.92221 -1.01215,1.38331 0,0 -1.18101,-0.87476 -1.18101,-0.87476 l 0,0 c 0.39068,-0.52186 0.78136,-1.04373 1.17206,-1.56559 2.45604,-2.36863 5.03286,-4.48176 8.646,-4.40389 2.56392,0.23977 5.16961,0.5619 7.32914,2.09327 2.39095,1.85026 3.15152,3.15196 2.60617,6.27759 -0.77492,2.55344 -1.91158,5.01399 -3.90772,6.85202 -1.93796,1.55551 -3.84839,3.25103 -6.49871,3.17228 -2.44277,-0.20314 -4.48978,-1.31716 -6.56933,-2.55095 -1.84075,-1.51021 -3.00442,-3.52012 -3.57985,-5.83374 -0.30378,-2.66879 -0.13187,-5.08874 1.88844,-7.10535 2.24099,-1.82973 4.6997,-2.90544 7.62729,-3.03385 0,0 -0.0133,1.46964 -0.0133,1.46964 z"
     inkscape:connector-curvature="0" />
  <path
     sodipodi:type="arc"
     style="color:#000000;fill:#000000;fill-opacity:1;fill-rule:nonzero;stroke-width:1;stroke-linecap:butt;stroke-linejoin:miter;stroke-miterlimit:4;stroke-opacity:1;stroke-dasharray:12, 12;stroke-dashoffset:0;marker:none;visibility:visible;display:inline;overflow:visible;enable-background:accumulate"
     id="path4447-4-3"
     sodipodi:cx="97.120689"
     sodipodi:cy="64.136719"
     sodipodi:rx="8.5193586"
     sodipodi:ry="7.6674228"
     d="m 105.64005,64.136719 a 8.5193586,7.6674228 0 1 1 -17.038719,0 8.5193586,7.6674228 0 1 1 17.038719,0 z"
     transform="matrix(1.2197965,0.01103034,-0.01103034,1.2197965,-8.867218,213.96454)" />
  <path
     sodipodi:type="arc"
     style="color:#000000;fill:#000000;fill-opacity:1;fill-rule:nonzero;stroke-width:1;stroke-linecap:butt;stroke-linejoin:miter;stroke-miterlimit:4;stroke-opacity:1;stroke-dasharray:12, 12;stroke-dashoffset:0;marker:none;visibility:visible;display:inline;overflow:visible;enable-background:accumulate"
     id="path4447-6-6-9"
     sodipodi:cx="97.120689"
     sodipodi:cy="64.136719"
     sodipodi:rx="8.5193586"
     sodipodi:ry="7.6674228"
     d="m 105.64005,64.136719 a 8.5193586,7.6674228 0 1 1 -17.038719,0 8.5193586,7.6674228 0 1 1 17.038719,0 z"
     transform="matrix(1.2197965,0.01103034,-0.01103034,1.2197965,177.11209,214.64597)" />
  <path
     style="color:#000000;fill:#000000;fill-opacity:1;fill-rule:nonzero;stroke-width:1;stroke-linecap:butt;stroke-linejoin:miter;stroke-miterlimit:4;stroke-opacity:1;stroke-dasharray:none;stroke-dashoffset:0;marker:none;visibility:visible;display:inline;overflow:visible;enable-background:accumulate;stroke:#ff0000"
     id="path3253-5-9-0"
     d="m 107.37467,188.82515 c -2.57485,0.142 -4.72165,1.05611 -6.6776,2.69699 -1.62276,1.68803 -1.61641,3.6393 -1.36476,5.80469 0.54457,1.89296 1.46502,3.63773 3.0378,4.85392 1.84547,1.0009 3.60568,2.12334 5.75298,2.23248 2.24003,0.0195 3.83862,-1.53631 5.47689,-2.85211 1.74958,-1.65389 2.74351,-3.85917 3.42052,-6.12958 0.40553,-2.59597 -0.20965,-3.23056 -2.09821,-4.69166 -1.93899,-1.33869 -4.28355,-1.58171 -6.56571,-1.79224 -3.15752,-0.0212 -5.35335,1.93097 -7.48895,3.99754 -0.33738,0.4611 -0.67476,0.92221 -1.01215,1.38331 0,0 -1.18101,-0.87476 -1.18101,-0.87476 l 0,0 c 0.39068,-0.52187 0.78136,-1.04373 1.17206,-1.56559 2.45604,-2.36863 5.03287,-4.48176 8.64601,-4.40389 2.56392,0.23977 5.1696,0.5619 7.32914,2.09327 2.39094,1.85026 3.15151,3.15196 2.60617,6.27758 -0.77493,2.55345 -1.91159,5.014 -3.90773,6.85203 -1.93796,1.55551 -3.84839,3.25103 -6.49871,3.17227 -2.44277,-0.20313 -4.48978,-1.31716 -6.56933,-2.55094 -1.84075,-1.51021 -3.00442,-3.52012 -3.57984,-5.83375 -0.30379,-2.66878 -0.13187,-5.08873 1.88843,-7.10535 2.24099,-1.82973 4.6997,-2.90544 7.62729,-3.03384 0,0 -0.0133,1.46963 -0.0133,1.46963 z"
     inkscape:connector-curvature="0" />
  <path
     style="color:#000000;fill-opacity:1;fill-rule:nonzero;stroke-width:1;stroke-linecap:butt;stroke-linejoin:miter;stroke-miterlimit:4;stroke-opacity:1;stroke-dasharray:none;stroke-dashoffset:0;marker:none;visibility:visible;display:inline;overflow:visible;enable-background:accumulate;stroke:#ff0000"
     id="path3253-5-8-5"
     d="m 391.20588,485.18703 c -2.57485,0.142 -4.72166,1.05612 -6.67761,2.69699 -1.62275,1.68803 -1.6164,3.6393 -1.36475,5.8047 0.54457,1.89295 1.46501,3.63773 3.03779,4.85391 1.84548,1.0009 3.60569,2.12334 5.75299,2.23248 2.24003,0.0195 3.83862,-1.53631 5.47688,-2.85211 1.74959,-1.65388 2.74352,-3.85917 3.42053,-6.12958 0.40553,-2.59597 -0.20966,-3.23056 -2.09822,-4.69166 -1.93898,-1.33868 -4.28355,-1.58171 -6.5657,-1.79224 -3.15752,-0.0212 -5.35335,1.93097 -7.48895,3.99754 -0.33738,0.4611 -0.67477,0.92221 -1.01215,1.38331 0,0 -1.18101,-0.87476 -1.18101,-0.87476 l 0,0 c 0.39068,-0.52186 0.78136,-1.04373 1.17205,-1.56559 2.45604,-2.36863 5.03287,-4.48176 8.64601,-4.40389 2.56392,0.23977 5.16961,0.5619 7.32914,2.09327 2.39094,1.85026 3.15151,3.15196 2.60617,6.27758 -0.77492,2.55345 -1.91158,5.014 -3.90772,6.85203 -1.93796,1.55551 -3.84839,3.25103 -6.49871,3.17228 -2.44277,-0.20314 -4.48979,-1.31716 -6.56934,-2.55095 -1.84074,-1.51021 -3.00441,-3.52012 -3.57984,-5.83375 -0.30379,-2.66878 -0.13187,-5.08873 1.88844,-7.10534 2.24099,-1.82974 4.69969,-2.90545 7.62729,-3.03385 0,0 -0.0133,1.46963 -0.0133,1.46963 z"
     inkscape:connector-curvature="0" />
  <path
     style="color:#000000;fill-opacity:1;fill-rule:nonzero;stroke-width:1;stroke-linecap:butt;stroke-linejoin:miter;stroke-miterlimit:4;stroke-opacity:1;stroke-dasharray:none;stroke-dashoffset:0;marker:none;visibility:visible;display:inline;overflow:visible;enable-background:accumulate;stroke:none"
     id="path3253-5-8-86"
     d="m 485.27576,484.56792 c -2.57485,0.142 -4.72165,1.05611 -6.6776,2.69698 -1.62276,1.68804 -1.61641,3.6393 -1.36476,5.8047 0.54457,1.89296 1.46501,3.63773 3.0378,4.85392 1.84547,1.0009 3.60568,2.12333 5.75298,2.23247 2.24003,0.0195 3.83862,-1.5363 5.47688,-2.8521 1.74959,-1.65389 2.74352,-3.85917 3.42053,-6.12958 0.40553,-2.59597 -0.20966,-3.23056 -2.09821,-4.69167 -1.93899,-1.33868 -4.28355,-1.58171 -6.56571,-1.79223 -3.15752,-0.0212 -5.35335,1.93097 -7.48895,3.99753 -0.33738,0.46111 -0.67476,0.92222 -1.01215,1.38331 0,0 -1.18101,-0.87475 -1.18101,-0.87475 l 0,0 c 0.39068,-0.52187 0.78136,-1.04373 1.17206,-1.5656 2.45604,-2.36863 5.03286,-4.48175 8.64601,-4.40388 2.56392,0.23976 5.1696,0.56189 7.32914,2.09326 2.39094,1.85026 3.15151,3.15196 2.60616,6.27759 -0.77492,2.55344 -1.91158,5.01399 -3.90772,6.85203 -1.93796,1.5555 -3.84839,3.25102 -6.49871,3.17227 -2.44277,-0.20313 -4.48978,-1.31716 -6.56933,-2.55094 -1.84075,-1.51022 -3.00442,-3.52013 -3.57985,-5.83375 -0.30378,-2.66878 -0.13186,-5.08873 1.88844,-7.10535 2.24099,-1.82973 4.6997,-2.90544 7.62729,-3.03385 0,0 -0.0133,1.46964 -0.0133,1.46964 z"
     inkscape:connector-curvature="0" />
  <path
     sodipodi:type="arc"
     style="color:#000000;fill:#000000;fill-opacity:1;fill-rule:nonzero;stroke-width:1;stroke-linecap:butt;stroke-linejoin:miter;stroke-miterlimit:4;stroke-opacity:1;stroke-dasharray:12, 12;stroke-dashoffset:0;marker:none;visibility:visible;display:inline;overflow:visible;enable-background:accumulate;stroke:none"
     id="path4447-6-1"
     sodipodi:cx="97.120689"
     sodipodi:cy="64.136719"
     sodipodi:rx="8.5193586"
     sodipodi:ry="7.6674228"
     d="m 105.64005,64.136719 a 8.5193586,7.6674228 0 1 1 -17.038719,0 8.5193586,7.6674228 0 1 1 17.038719,0 z"
     transform="matrix(1.2197965,0.01103034,-0.01103034,1.2197965,367.41886,411.74811)" />
  <path
     style="color:#000000;fill-opacity:1;fill-rule:nonzero;stroke-width:1;stroke-linecap:butt;stroke-linejoin:miter;stroke-miterlimit:4;stroke-opacity:1;stroke-dasharray:none;stroke-dashoffset:0;marker:none;visibility:visible;display:inline;overflow:visible;enable-background:accumulate"
     id="path3253-5-8-8-6-2"
     d="m 485.45999,286.88824 c -2.57485,0.142 -4.72166,1.05611 -6.67761,2.69698 -1.62276,1.68804 -1.61641,3.63931 -1.36476,5.8047 0.54458,1.89296 1.46502,3.63773 3.0378,4.85392 1.84547,1.0009 3.60569,2.12334 5.75299,2.23248 2.24002,0.0195 3.83862,-1.53631 5.47688,-2.85211 1.74959,-1.65389 2.74352,-3.85917 3.42052,-6.12958 0.40554,-2.59597 -0.20965,-3.23056 -2.09821,-4.69167 -1.93898,-1.33868 -4.28355,-1.5817 -6.5657,-1.79223 -3.15753,-0.0212 -5.35335,1.93097 -7.48895,3.99753 -0.33738,0.46111 -0.67477,0.92222 -1.01215,1.38331 0,0 -1.18102,-0.87475 -1.18102,-0.87475 l 0,0 c 0.39069,-0.52187 0.78137,-1.04373 1.17206,-1.5656 2.45604,-2.36862 5.03287,-4.48175 8.64601,-4.40388 2.56392,0.23976 5.16961,0.5619 7.32914,2.09327 2.39094,1.85025 3.15151,3.15195 2.60617,6.27758 -0.77492,2.55345 -1.91159,5.01399 -3.90772,6.85203 -1.93796,1.55551 -3.84839,3.25102 -6.49871,3.17227 -2.44278,-0.20313 -4.48979,-1.31716 -6.56934,-2.55094 -1.84074,-1.51022 -3.00442,-3.52012 -3.57984,-5.83375 -0.30379,-2.66878 -0.13187,-5.08873 1.88844,-7.10535 2.24099,-1.82973 4.69969,-2.90544 7.62729,-3.03384 0,0 -0.0133,1.46963 -0.0133,1.46963 z"
     inkscape:connector-curvature="0" />
  <path
     sodipodi:type="arc"
     style="color:#000000;fill:#000000;fill-opacity:1;fill-rule:nonzero;stroke-width:1;stroke-linecap:butt;stroke-linejoin:miter;stroke-miterlimit:4;stroke-opacity:1;stroke-dasharray:12, 12;stroke-dashoffset:0;marker:none;visibility:visible;display:inline;overflow:visible;enable-background:accumulate"
     id="path4447-6-6-9-7"
     sodipodi:cx="97.120689"
     sodipodi:cy="64.136719"
     sodipodi:rx="8.5193586"
     sodipodi:ry="7.6674228"
     d="m 105.64005,64.136719 a 8.5193586,7.6674228 0 1 1 -17.038719,0 8.5193586,7.6674228 0 1 1 17.038719,0 z"
     transform="matrix(1.2197965,0.01103034,-0.01103034,1.2197965,367.60308,214.06843)" />
  <path
     style="color:#000000;fill-opacity:1;fill-rule:nonzero;stroke-width:1;stroke-linecap:butt;stroke-linejoin:miter;stroke-miterlimit:4;stroke-opacity:1;stroke-dasharray:none;stroke-dashoffset:0;marker:none;visibility:visible;display:inline;overflow:visible;enable-background:accumulate;stroke:#ff0000"
     id="path3253-5-8-8-8-2"
     d="m 483.98522,189.37214 c -2.57485,0.142 -4.72166,1.05611 -6.67761,2.69698 -1.62275,1.68803 -1.6164,3.6393 -1.36475,5.8047 0.54457,1.89296 1.46501,3.63773 3.03779,4.85391 1.84548,1.0009 3.60569,2.12334 5.75299,2.23248 2.24003,0.0195 3.83862,-1.53631 5.47688,-2.85211 1.74959,-1.65388 2.74352,-3.85917 3.42053,-6.12958 0.40553,-2.59597 -0.20966,-3.23056 -2.09821,-4.69166 -1.93899,-1.33868 -4.28355,-1.58171 -6.56571,-1.79224 -3.15752,-0.0212 -5.35335,1.93097 -7.48895,3.99754 -0.33738,0.46111 -0.67477,0.92221 -1.01215,1.38331 0,0 -1.18101,-0.87476 -1.18101,-0.87476 l 0,0 c 0.39068,-0.52186 0.78136,-1.04373 1.17205,-1.56559 2.45604,-2.36863 5.03287,-4.48176 8.64601,-4.40389 2.56392,0.23977 5.16961,0.5619 7.32914,2.09327 2.39094,1.85026 3.15151,3.15196 2.60617,6.27759 -0.77492,2.55344 -1.91158,5.01399 -3.90772,6.85202 -1.93796,1.55551 -3.84839,3.25103 -6.49871,3.17228 -2.44277,-0.20314 -4.48979,-1.31716 -6.56934,-2.55095 -1.84074,-1.51021 -3.00441,-3.52012 -3.57984,-5.83374 -0.30378,-2.66879 -0.13187,-5.08874 1.88844,-7.10535 2.24099,-1.82974 4.69969,-2.90545 7.62729,-3.03385 0,0 -0.0133,1.46964 -0.0133,1.46964 z"
     inkscape:connector-curvature="0" />
  <path
     style="color:#000000;fill-opacity:1;fill-rule:nonzero;stroke-width:1;stroke-linecap:butt;stroke-linejoin:miter;stroke-miterlimit:4;stroke-opacity:1;stroke-dasharray:none;stroke-dashoffset:0;marker:none;visibility:visible;display:inline;overflow:visible;enable-background:accumulate;stroke:#ff0000"
     id="path3253-4-67-3"
     d="m 199.99935,90.22222 c -2.57485,0.142 -4.72165,1.05612 -6.6776,2.69699 -1.62276,1.68803 -1.61641,3.6393 -1.36476,5.80469 0.54457,1.89296 1.46502,3.63774 3.0378,4.85392 1.84547,1.0009 3.60568,2.12334 5.75298,2.23248 2.24003,0.0195 3.83862,-1.53631 5.47689,-2.85211 1.74958,-1.65389 2.74352,-3.85917 3.42052,-6.12958 0.40554,-2.59597 -0.20965,-3.23056 -2.09821,-4.69166 -1.93898,-1.33869 -4.28355,-1.58171 -6.56571,-1.79224 -3.15752,-0.0212 -5.35335,1.93097 -7.48894,3.99754 -0.33739,0.4611 -0.67477,0.92221 -1.01216,1.38331 0,0 -1.18101,-0.87476 -1.18101,-0.87476 l 0,0 c 0.39068,-0.52187 0.78137,-1.04373 1.17206,-1.56559 2.45604,-2.36863 5.03287,-4.48176 8.64601,-4.40389 2.56392,0.23977 5.16961,0.5619 7.32914,2.09327 2.39094,1.85026 3.15151,3.15196 2.60617,6.27758 -0.77493,2.55345 -1.91159,5.014 -3.90772,6.85203 -1.93797,1.55551 -3.8484,3.25103 -6.49871,3.17227 -2.44278,-0.20313 -4.48979,-1.31716 -6.56934,-2.55094 -1.84075,-1.51021 -3.00442,-3.52012 -3.57984,-5.83375 -0.30379,-2.66878 -0.13187,-5.08873 1.88843,-7.10535 2.24099,-1.82973 4.6997,-2.90544 7.62729,-3.03384 0,0 -0.0133,1.46963 -0.0133,1.46963 z"
     inkscape:connector-curvature="0" />
  <path
     style="color:#000000;fill:#000000;fill-opacity:1;fill-rule:nonzero;stroke-width:1;stroke-linecap:butt;stroke-linejoin:miter;stroke-miterlimit:4;stroke-opacity:1;stroke-dasharray:none;stroke-dashoffset:0;marker:none;visibility:visible;display:inline;overflow:visible;enable-background:accumulate"
     id="path3253-5-9-0-2"
     d="m 105.97256,88.69561 c -2.57485,0.142 -4.72165,1.05612 -6.6776,2.69699 -1.62276,1.68803 -1.61641,3.6393 -1.36476,5.80469 0.54457,1.89296 1.46502,3.63774 3.0378,4.85392 1.84547,1.0009 3.60568,2.12334 5.75298,2.23248 2.24003,0.0195 3.83862,-1.53631 5.47689,-2.85211 1.74959,-1.65389 2.74352,-3.85917 3.42052,-6.12958 0.40554,-2.59597 -0.20965,-3.23056 -2.09821,-4.69166 -1.93898,-1.33869 -4.28355,-1.58171 -6.56571,-1.79224 -3.15752,-0.0212 -5.35334,1.93097 -7.48894,3.99754 -0.33739,0.4611 -0.67477,0.92221 -1.01216,1.38331 0,0 -1.18101,-0.87476 -1.18101,-0.87476 l 0,0 c 0.39068,-0.52187 0.78137,-1.04373 1.17206,-1.56559 2.45604,-2.36863 5.03287,-4.48176 8.64601,-4.40389 2.56392,0.23977 5.16961,0.5619 7.32914,2.09327 2.39094,1.85026 3.15151,3.15196 2.60617,6.27758 -0.77493,2.55345 -1.91159,5.014 -3.90772,6.85203 -1.93797,1.55551 -3.8484,3.25103 -6.49871,3.17227 -2.44278,-0.20313 -4.48979,-1.31716 -6.56934,-2.55094 -1.84074,-1.51021 -3.00442,-3.52012 -3.57984,-5.83375 -0.30379,-2.66878 -0.13187,-5.08873 1.88843,-7.10535 2.24099,-1.82973 4.6997,-2.90544 7.62729,-3.03384 0,0 -0.0133,1.46963 -0.0133,1.46963 z"
     inkscape:connector-curvature="0" />
  <path
     style="color:#000000;fill-opacity:1;fill-rule:nonzero;stroke-width:1;stroke-linecap:butt;stroke-linejoin:miter;stroke-miterlimit:4;stroke-opacity:1;stroke-dasharray:none;stroke-dashoffset:0;marker:none;visibility:visible;display:inline;overflow:visible;enable-background:accumulate"
     id="path3253-5-8-8-8-9"
     d="m 292.09212,89.82013 c -2.57485,0.142 -4.72166,1.05611 -6.67761,2.69699 -1.62276,1.68803 -1.61641,3.6393 -1.36476,5.80469 0.54458,1.89296 1.46502,3.63773 3.0378,4.85392 1.84547,1.0009 3.60568,2.12334 5.75298,2.23248 2.24003,0.0195 3.83862,-1.53631 5.47689,-2.85211 1.74959,-1.65389 2.74352,-3.85917 3.42052,-6.12958 0.40554,-2.59597 -0.20965,-3.23056 -2.09821,-4.69167 -1.93898,-1.33868 -4.28355,-1.5817 -6.56571,-1.79223 -3.15752,-0.0212 -5.35334,1.93097 -7.48894,3.99753 -0.33739,0.46111 -0.67477,0.92222 -1.01215,1.38331 0,0 -1.18102,-0.87475 -1.18102,-0.87475 l 0,0 c 0.39068,-0.52187 0.78137,-1.04373 1.17206,-1.56559 2.45604,-2.36863 5.03287,-4.48176 8.64601,-4.40389 2.56392,0.23976 5.16961,0.5619 7.32914,2.09327 2.39094,1.85025 3.15151,3.15195 2.60617,6.27758 -0.77493,2.55345 -1.91159,5.01399 -3.90772,6.85203 -1.93797,1.55551 -3.84839,3.25103 -6.49871,3.17227 -2.44278,-0.20313 -4.48979,-1.31716 -6.56934,-2.55094 -1.84074,-1.51021 -3.00442,-3.52012 -3.57984,-5.83375 -0.30379,-2.66878 -0.13187,-5.08873 1.88843,-7.10535 2.24099,-1.82973 4.6997,-2.90544 7.6273,-3.03384 0,0 -0.0133,1.46963 -0.0133,1.46963 z"
     inkscape:connector-curvature="0" />
  <path
     sodipodi:type="arc"
     style="color:#000000;fill:#000000;fill-opacity:1;fill-rule:nonzero;stroke-width:1;stroke-linecap:butt;stroke-linejoin:miter;stroke-miterlimit:4;stroke-opacity:1;stroke-dasharray:12, 12;stroke-dashoffset:0;marker:none;visibility:visible;display:inline;overflow:visible;enable-background:accumulate"
     id="path4447-4-37-0"
     sodipodi:cx="97.120689"
     sodipodi:cy="64.136719"
     sodipodi:rx="8.5193586"
     sodipodi:ry="7.6674228"
     d="m 105.64005,64.136719 a 8.5193586,7.6674228 0 1 1 -17.038719,0 8.5193586,7.6674228 0 1 1 17.038719,0 z"
     transform="matrix(1.2197965,0.01103034,-0.01103034,1.2197965,-11.744093,16.318897)" />
  <path
     sodipodi:type="arc"
     style="color:#000000;fill:#000000;fill-opacity:1;fill-rule:nonzero;stroke-width:1;stroke-linecap:butt;stroke-linejoin:miter;stroke-miterlimit:4;stroke-opacity:1;stroke-dasharray:12, 12;stroke-dashoffset:0;marker:none;visibility:visible;display:inline;overflow:visible;enable-background:accumulate"
     id="path4447-6-6-4-1"
     sodipodi:cx="97.120689"
     sodipodi:cy="64.136719"
     sodipodi:rx="8.5193586"
     sodipodi:ry="7.6674228"
     d="m 105.64005,64.136719 a 8.5193586,7.6674228 0 1 1 -17.038719,0 8.5193586,7.6674228 0 1 1 17.038719,0 z"
     transform="matrix(1.2197965,0.01103034,-0.01103034,1.2197965,174.23521,17.000326)" />
  <path
     style="color:#000000;fill-opacity:1;fill-rule:nonzero;stroke-width:1;stroke-linecap:butt;stroke-linejoin:miter;stroke-miterlimit:4;stroke-opacity:1;stroke-dasharray:none;stroke-dashoffset:0;marker:none;visibility:visible;display:inline;overflow:visible;enable-background:accumulate;stroke:#ff0000"
     id="path3253-5-8-8-8-7-16"
     d="m 388.51323,89.8617 c -2.57485,0.142 -4.72166,1.05611 -6.67761,2.69698 -1.62275,1.68804 -1.6164,3.63931 -1.36475,5.8047 0.54457,1.89296 1.46501,3.63773 3.03779,4.85392 1.84548,1.0009 3.60569,2.12333 5.75299,2.23248 2.24003,0.0195 3.83862,-1.53631 5.47688,-2.85211 1.74959,-1.65389 2.74352,-3.85917 3.42053,-6.12958 0.40553,-2.59597 -0.20966,-3.23056 -2.09821,-4.69167 -1.93899,-1.33868 -4.28355,-1.58171 -6.56571,-1.79223 -3.15752,-0.0212 -5.35335,1.93097 -7.48895,3.99753 -0.33738,0.46111 -0.67477,0.92222 -1.01215,1.38331 0,0 -1.18101,-0.87475 -1.18101,-0.87475 l 0,0 c 0.39068,-0.52187 0.78136,-1.04373 1.17205,-1.5656 2.45604,-2.36863 5.03287,-4.48175 8.64601,-4.40388 2.56392,0.23976 5.16961,0.56189 7.32914,2.09326 2.39095,1.85026 3.15151,3.15196 2.60617,6.27759 -0.77492,2.55344 -1.91158,5.01399 -3.90772,6.85203 -1.93796,1.5555 -3.84839,3.25102 -6.49871,3.17227 -2.44277,-0.20313 -4.48979,-1.31716 -6.56934,-2.55094 -1.84074,-1.51022 -3.00441,-3.52013 -3.57984,-5.83375 -0.30378,-2.66878 -0.13187,-5.08873 1.88844,-7.10535 2.24099,-1.82973 4.69969,-2.90544 7.62729,-3.03385 0,0 -0.0133,1.46964 -0.0133,1.46964 z"
     inkscape:connector-curvature="0" />
  <path
     style="color:#000000;fill-opacity:1;fill-rule:nonzero;stroke-width:1;stroke-linecap:butt;stroke-linejoin:miter;stroke-miterlimit:4;stroke-opacity:1;stroke-dasharray:none;stroke-dashoffset:0;marker:none;visibility:visible;display:inline;overflow:visible;enable-background:accumulate"
     id="path3253-5-8-8-8-2-0"
     d="m 482.58311,89.2426 c -2.57485,0.142 -4.72165,1.05611 -6.6776,2.69698 -1.62276,1.68803 -1.61641,3.6393 -1.36476,5.8047 0.54457,1.89296 1.46502,3.63773 3.0378,4.85391 1.84547,1.00091 3.60568,2.12334 5.75298,2.23248 2.24003,0.0195 3.83862,-1.5363 5.47689,-2.8521 1.74958,-1.65389 2.74351,-3.85918 3.42052,-6.12959 0.40553,-2.59596 -0.20965,-3.23055 -2.09821,-4.69166 -1.93899,-1.33868 -4.28355,-1.58171 -6.56571,-1.79223 -3.15752,-0.0212 -5.35335,1.93097 -7.48895,3.99753 -0.33738,0.46111 -0.67476,0.92221 -1.01215,1.38331 0,0 -1.18101,-0.87476 -1.18101,-0.87476 l 0,0 c 0.39068,-0.52186 0.78136,-1.04373 1.17206,-1.56559 2.45604,-2.36863 5.03287,-4.48176 8.64601,-4.40389 2.56392,0.23977 5.1696,0.5619 7.32914,2.09327 2.39094,1.85026 3.15151,3.15196 2.60617,6.27759 -0.77493,2.55344 -1.91159,5.01399 -3.90773,6.85202 -1.93796,1.55551 -3.84839,3.25103 -6.49871,3.17228 -2.44277,-0.20314 -4.48978,-1.31716 -6.56933,-2.55095 -1.84075,-1.51021 -3.00442,-3.52012 -3.57984,-5.83374 -0.30379,-2.66878 -0.13187,-5.08874 1.88843,-7.10535 2.24099,-1.82974 4.6997,-2.90544 7.62729,-3.03385 0,0 -0.0133,1.46964 -0.0133,1.46964 z"
     inkscape:connector-curvature="0" />
  <path
     sodipodi:type="arc"
     style="color:#000000;fill:#000000;fill-opacity:1;fill-rule:nonzero;stroke-width:1;stroke-linecap:butt;stroke-linejoin:miter;stroke-miterlimit:4;stroke-opacity:1;stroke-dasharray:12, 12;stroke-dashoffset:0;marker:none;visibility:visible;display:inline;overflow:visible;enable-background:accumulate"
     id="path4447-6-6-4-5-9"
     sodipodi:cx="97.120689"
     sodipodi:cy="64.136719"
     sodipodi:rx="8.5193586"
     sodipodi:ry="7.6674228"
     d="m 105.64005,64.136719 a 8.5193586,7.6674228 0 1 1 -17.038719,0 8.5193586,7.6674228 0 1 1 17.038719,0 z"
     transform="matrix(1.2197965,0.01103034,-0.01103034,1.2197965,364.72621,16.42279)" />
  <path
     style="fill:none;stroke:#000000;stroke-width:0.57680535px;stroke-linecap:butt;stroke-linejoin:miter;stroke-opacity:1"
     d="m 328.81128,269.6166 c -0.83091,-0.52127 -2.91983,-0.54016 -2.49276,-1.56386 0.42708,-1.02366 1.66185,1.04259 2.49276,1.56386 z"
     id="path4671-2-5-2"
     inkscape:connector-curvature="0" />
  <path
     style="color:#000000;fill-opacity:1;fill-rule:nonzero;stroke:none;stroke-width:0.69999999;marker:none;visibility:visible;display:inline;overflow:visible;enable-background:accumulate"
     id="path5404-3"
     d="m 325.92404,275.8079 c -1.01187,1.50294 -2.05462,3.39097 -0.92531,5.08942 1.35933,1.12219 3.21802,1.1346 4.88713,1.2308 0.33104,-0.0321 0.66207,-0.0642 0.9931,-0.0963 0,0 0.0952,1.09087 0.0952,1.09087 l 0,0 c -0.38324,0.033 -0.76648,0.0659 -1.14973,0.0989 -2.0333,-0.11915 -4.22333,-0.19163 -5.74418,-1.7566 -1.21957,-2.21222 -0.39193,-4.37046 0.99075,-6.32194 0,0 0.8531,0.66488 0.8531,0.66488 z"
     inkscape:connector-curvature="0" />
  <path
     style="color:#000000;fill-opacity:1;fill-rule:nonzero;stroke:none;stroke-width:0.69999999;marker:none;visibility:visible;display:inline;overflow:visible;enable-background:accumulate"
     id="path5202-2"
     d="m 341.05161,274.83644 c -0.0226,2.49787 -0.0452,4.99575 -0.0678,7.49363 -0.098,2.26021 -1.2267,3.75881 -3.46448,3.89655 -1.37788,-0.23151 -2.46115,-1.0541 -3.45967,-1.99635 0,0 0.73463,-0.79909 0.73463,-0.79909 l 0,0 c 0.77663,0.7548 1.63108,1.40925 2.68133,1.70116 1.66801,-0.0222 2.36021,-1.15964 2.43439,-2.81198 0.0226,-2.49788 0.0452,-4.99576 0.0678,-7.49363 0,0 1.0738,0.01 1.0738,0.01 z"
     inkscape:connector-curvature="0" />
  <path
     style="fill:none;stroke:#000000;stroke-width:0.57680535px;stroke-linecap:butt;stroke-linejoin:miter;stroke-opacity:1"
     d="m 341.53853,269.99437 c -0.83093,-0.52127 -2.91984,-0.54016 -2.49277,-1.56384 0.42709,-1.02368 1.66184,1.04257 2.49277,1.56384 z"
     id="path4671-2-1"
     inkscape:connector-curvature="0" />
  <path
     style="color:#000000;fill-opacity:1;fill-rule:nonzero;stroke:none;stroke-width:0.69999999;marker:none;visibility:visible;display:inline;overflow:visible;enable-background:accumulate"
     id="path5812"
     d="m 326.92064,253.7166 c -0.0169,1.87201 -0.0339,3.74403 -0.0508,5.61604 -0.35661,-0.15079 -0.83318,-0.14132 -1.0698,-0.45238 -0.15557,-0.20454 0.0927,-0.50922 0.14573,-0.76241 0.30548,-1.45741 0.86304,-2.63579 1.68822,-3.86018 1.49007,-1.59087 3.19476,-2.88936 4.90037,-0.87336 0.8603,1.87018 0.78776,3.99895 0.80674,6.02139 0,0 -1.07379,0.0108 -1.07379,0.0108 l 0,0 c -0.0164,-1.79127 0.0429,-3.66277 -0.58368,-5.36349 -0.85484,-1.44164 -2.37318,-0.0154 -3.16819,0.82991 -0.58548,0.84663 -1.04662,1.65372 -1.33633,2.65583 -0.017,0.0589 -0.30408,1.35028 -0.30527,1.35126 -0.30136,0.24625 -0.71853,0.28865 -1.0778,0.43297 0.0169,-1.87201 0.0338,-3.74403 0.0508,-5.61604 0,0 1.0738,0.01 1.0738,0.01 z"
     inkscape:connector-curvature="0" />
  <path
     style="fill:none;stroke:#000000;stroke-width:1.10172355000000000px;stroke-linecap:butt;stroke-linejoin:miter;stroke-opacity:0.39408866"
     d="m 101.5959,294.15318 382.44159,0.51884"
     id="path3774"
     inkscape:connector-curvature="0" />
  <path
     style="fill:none;stroke:#000000;stroke-width:1.10291432999999994px;stroke-linecap:butt;stroke-linejoin:miter;stroke-opacity:0.38916257"
     d="m 106.33923,91.42632 2.19568,407.32307"
     id="path3772-8"
     inkscape:connector-curvature="0" />
  <path
     style="fill:none;stroke:#000000;stroke-width:1.10291432999999994px;stroke-linecap:butt;stroke-linejoin:miter;stroke-opacity:0.38916257"
     d="m 487.00111,91.92905 2.19568,407.32307"
     id="path3772-3"
     inkscape:connector-curvature="0" />
  <path
     style="fill:none;stroke:#000000;stroke-width:1.10172355000000000px;stroke-linecap:butt;stroke-linejoin:miter;stroke-opacity:0.38916257"
     d="m 104.66722,96.64594 382.44159,0.51883"
     id="path3774-6"
     inkscape:connector-curvature="0" />
  <path
     style="fill:none;stroke:#000000;stroke-width:1.10172355000000000px;stroke-linecap:butt;stroke-linejoin:miter;stroke-opacity:0.38916257"
     d="m 106.94429,494.97001 382.44158,0.51883"
     id="path3774-0"
     inkscape:connector-curvature="0" />
  <path
     style="color:#000000;fill-opacity:1;fill-rule:nonzero;stroke-width:1;stroke-linecap:butt;stroke-linejoin:miter;stroke-miterlimit:4;stroke-opacity:1;stroke-dasharray:none;stroke-dashoffset:0;marker:none;visibility:visible;display:inline;overflow:visible;enable-background:accumulate;stroke:#ff0000"
     id="path3253-5-8-8-2-8"
     d="m 487.75063,385.8007 c -2.57485,0.142 -4.72165,1.05611 -6.6776,2.69698 -1.62276,1.68803 -1.61641,3.6393 -1.36476,5.8047 0.54457,1.89296 1.46502,3.63773 3.0378,4.85392 1.84547,1.0009 3.60568,2.12333 5.75298,2.23247 2.24003,0.0195 3.83862,-1.5363 5.47689,-2.8521 1.74958,-1.65389 2.74351,-3.85917 3.42052,-6.12959 0.40553,-2.59596 -0.20965,-3.23055 -2.09821,-4.69166 -1.93899,-1.33868 -4.28355,-1.58171 -6.56571,-1.79223 -3.15752,-0.0212 -5.35335,1.93097 -7.48894,3.99753 -0.33739,0.46111 -0.67477,0.92222 -1.01216,1.38331 0,0 -1.18101,-0.87476 -1.18101,-0.87476 l 0,0 c 0.39068,-0.52186 0.78136,-1.04372 1.17206,-1.56559 2.45604,-2.36863 5.03287,-4.48175 8.64601,-4.40388 2.56392,0.23976 5.16961,0.56189 7.32914,2.09326 2.39094,1.85026 3.15151,3.15196 2.60617,6.27759 -0.77493,2.55344 -1.91159,5.01399 -3.90772,6.85202 -1.93797,1.55551 -3.8484,3.25103 -6.49872,3.17228 -2.44277,-0.20313 -4.48978,-1.31716 -6.56933,-2.55095 -1.84075,-1.51021 -3.00442,-3.52012 -3.57984,-5.83374 -0.30379,-2.66878 -0.13187,-5.08874 1.88843,-7.10535 2.24099,-1.82973 4.6997,-2.90544 7.62729,-3.03385 0,0 -0.0133,1.46964 -0.0133,1.46964 z"
     inkscape:connector-curvature="0" />
  <path
     style="fill:none;stroke:#000000;stroke-width:0.57680535px;stroke-linecap:butt;stroke-linejoin:miter;stroke-opacity:1"
     d="m 269.62504,327.94768 c -0.83091,-0.52127 -2.91983,-0.54016 -2.49276,-1.56386 0.42708,-1.02366 1.66185,1.04259 2.49276,1.56386 z"
     id="path4671-2-5-2-25"
     inkscape:connector-curvature="0" />
  <path
     style="color:#000000;fill-opacity:1;fill-rule:nonzero;stroke:none;stroke-width:0.69999999;marker:none;visibility:visible;display:inline;overflow:visible;enable-background:accumulate"
     id="path5404-3-0"
     d="m 266.7378,334.13898 c -1.01187,1.50294 -2.05462,3.39097 -0.92531,5.08942 1.35933,1.12219 3.21802,1.1346 4.88713,1.2308 0.33104,-0.0321 0.66207,-0.0642 0.9931,-0.0963 0,0 0.0952,1.09087 0.0952,1.09087 l 0,0 c -0.38324,0.033 -0.76648,0.0659 -1.14973,0.0989 -2.0333,-0.11915 -4.22333,-0.19163 -5.74418,-1.7566 -1.21957,-2.21222 -0.39193,-4.37046 0.99075,-6.32194 0,0 0.8531,0.66488 0.8531,0.66488 z"
     inkscape:connector-curvature="0" />
  <path
     style="color:#000000;fill-opacity:1;fill-rule:nonzero;stroke:none;stroke-width:0.69999999;marker:none;visibility:visible;display:inline;overflow:visible;enable-background:accumulate"
     id="path5202-2-4"
     d="m 281.86537,333.16752 c -0.0226,2.49787 -0.0452,4.99575 -0.0678,7.49363 -0.098,2.26021 -1.2267,3.75881 -3.46448,3.89655 -1.37788,-0.23151 -2.46115,-1.0541 -3.45967,-1.99635 0,0 0.73463,-0.79909 0.73463,-0.79909 l 0,0 c 0.77663,0.7548 1.63108,1.40925 2.68133,1.70116 1.66801,-0.0222 2.36021,-1.15964 2.43439,-2.81198 0.0226,-2.49788 0.0452,-4.99576 0.0678,-7.49363 0,0 1.0738,0.01 1.0738,0.01 z"
     inkscape:connector-curvature="0" />
  <path
     style="fill:none;stroke:#000000;stroke-width:0.57680535px;stroke-linecap:butt;stroke-linejoin:miter;stroke-opacity:1"
     d="m 282.35229,328.32545 c -0.83093,-0.52127 -2.91984,-0.54016 -2.49277,-1.56384 0.42709,-1.02368 1.66184,1.04257 2.49277,1.56384 z"
     id="path4671-2-1-6"
     inkscape:connector-curvature="0" />
  <path
     style="color:#000000;fill-opacity:1;fill-rule:nonzero;stroke:none;stroke-width:0.69999999;marker:none;visibility:visible;display:inline;overflow:visible;enable-background:accumulate"
     id="path5812-1"
     d="m 267.7344,312.04768 c -0.0169,1.87201 -0.0339,3.74403 -0.0508,5.61604 -0.35661,-0.15079 -0.83318,-0.14132 -1.0698,-0.45238 -0.15557,-0.20454 0.0927,-0.50922 0.14573,-0.76241 0.30548,-1.45741 0.86304,-2.63579 1.68822,-3.86018 1.49007,-1.59087 3.19476,-2.88936 4.90037,-0.87336 0.8603,1.87018 0.78776,3.99895 0.80674,6.02139 0,0 -1.07379,0.0108 -1.07379,0.0108 l 0,0 c -0.0164,-1.79127 0.0429,-3.66277 -0.58368,-5.36349 -0.85484,-1.44164 -2.37318,-0.0154 -3.16819,0.82991 -0.58548,0.84663 -1.04662,1.65372 -1.33633,2.65583 -0.017,0.0589 -0.30408,1.35028 -0.30527,1.35126 -0.30136,0.24625 -0.71853,0.28865 -1.0778,0.43297 0.0169,-1.87201 0.0338,-3.74403 0.0508,-5.61604 0,0 1.0738,0.01 1.0738,0.01 z"
     inkscape:connector-curvature="0" />
  <path
     style="color:#000000;fill-opacity:1;fill-rule:nonzero;stroke:none;stroke-width:0.69999999;marker:none;visibility:visible;display:inline;overflow:visible;enable-background:accumulate"
     id="path5688-0"
     d="m 251.00132,317.31041 c -0.89392,2.67709 -1.51563,5.41709 -1.90575,8.20927 0.0234,1.72561 -1.12374,4.70982 0.49508,5.99367 1.20067,-0.0126 2.16748,-0.85973 2.85277,-1.77353 1.01682,-1.55036 1.49868,-3.30674 2.16483,-5.0083 0.63368,-1.7264 1.16851,-3.51351 2.50541,-4.83366 2.2878,-1.75779 1.03311,2.11957 0.84641,2.84049 -0.46084,2.18349 -0.77335,4.42895 -0.58405,6.6585 0.43555,2.11854 2.09086,2.73288 4.00418,3.12333 0.35972,-0.0526 0.71944,-0.10513 1.07916,-0.1577 0,0 0.14018,1.19664 0.14018,1.19664 l 0,0 c -0.48857,0.0468 -0.97713,0.0936 -1.4657,0.14042 -2.44966,-0.52203 -4.46221,-1.51818 -4.95883,-4.2069 -0.17813,-2.3661 0.10993,-4.74161 0.61884,-7.0568 0.0355,-0.1368 0.52008,-1.93231 0.58663,-1.94227 0.16685,-0.025 0.295,0.19803 0.46364,0.20301 0.13553,0.004 0.25761,-0.26066 0.36549,-0.17853 0.0976,0.0743 -0.17776,0.16919 -0.26664,0.25378 -1.25883,1.12354 -1.58391,2.90609 -2.2141,4.40218 -0.71842,1.802 -1.22844,3.6734 -2.33508,5.30633 -1.13854,1.42056 -2.77729,2.71076 -4.65475,1.88527 -1.74317,-1.95134 -1.04745,-4.60981 -0.83664,-7.01306 0.39514,-2.81419 1.00728,-5.58218 1.91749,-8.27842 0,0 1.18143,0.23628 1.18143,0.23628 z"
     inkscape:connector-curvature="0" />
  <path
     style="color:#000000;fill:#ff0000;fill-opacity:1;fill-rule:nonzero;stroke:#000000;stroke-width:0.66323721;stroke-linecap:butt;stroke-linejoin:miter;stroke-miterlimit:4;stroke-opacity:1;stroke-dasharray:none;stroke-dashoffset:0;marker:none;visibility:visible;display:inline;overflow:visible;enable-background:accumulate"
     id="path6360"
     d="m 312.9568,258.96441 c -0.8125,-1.11324 -2.01777,-1.51251 -3.21644,-1.80226 -1.43599,-0.21187 -2.91569,-0.41495 -4.35866,-0.19857 -1.1394,0.36973 -1.87155,1.49162 -2.39151,2.64131 -0.47909,1.33253 -0.56453,2.72592 -0.35617,4.12876 0.31795,1.2817 1.24347,2.17439 2.23987,2.80298 1.22763,0.59606 2.5797,0.63202 3.89415,0.68301 1.42196,-0.0323 2.2602,-1.00982 2.89116,-2.35149 0.54315,-1.45408 0.60099,-3.04162 0.66189,-4.59656 0.004,-0.0921 -0.0688,-0.28613 0.0122,-0.27647 0.27466,0.0328 0.57129,0.14235 0.76185,0.36871 0.0271,0.0322 -0.0104,2.54004 -0.0113,2.75327 -0.043,1.98561 0.0831,3.97871 -0.10188,5.95572 -0.27118,1.77159 -0.4756,3.55038 -0.58333,5.34407 0.0584,1.60188 -0.30758,3.13621 -0.55383,4.69676 -0.0402,0.32631 -0.1532,1.17758 -0.16055,1.50319 -0.004,0.17364 0.0126,0.34826 0.0405,0.51906 0.005,0.0342 0.0712,0.11257 0.0576,0.0814 -0.14798,-0.33781 -0.15445,-0.11852 -0.079,-0.43798 1.18037,-1.5071 2.43299,-2.93717 3.74403,-4.29878 1.35996,-1.34469 2.89959,-2.37293 4.42778,-3.43586 0,0 0.39775,0.73428 0.39775,0.73428 l 0,0 c -1.48805,1.03213 -2.98561,2.03155 -4.3114,3.33647 -1.3202,1.37054 -2.5734,2.81651 -3.77019,4.32475 -0.19495,0.13285 -0.35856,0.37158 -0.58483,0.39853 -1.13232,0.13494 -0.56326,-2.33519 -0.51041,-2.8768 0.24221,-1.53049 0.60409,-3.03206 0.5437,-4.60362 0.10889,-1.80499 0.31126,-3.59578 0.586,-5.37833 0.19097,-1.94574 0.0455,-3.91194 0.0975,-5.86669 8.1e-4,-0.20581 -0.007,-2.72425 0.0113,-2.74495 0.192,-0.21639 0.48839,-0.30878 0.75863,-0.32996 0.0798,-0.006 -0.008,0.18098 -0.0121,0.27147 -0.0663,1.68561 -0.14162,3.40214 -0.75319,4.96909 -0.78866,1.62083 -1.86143,2.77395 -3.58602,2.80162 -1.43742,-0.0564 -2.91107,-0.11041 -4.24327,-0.79464 -1.19306,-0.77769 -2.26127,-1.84901 -2.61505,-3.41147 -0.22931,-1.58895 -0.12623,-3.16731 0.43191,-4.66736 0.65351,-1.40185 1.55363,-2.69732 2.97108,-3.09815 1.53136,-0.2094 3.09218,-0.0346 4.61419,0.21115 1.39474,0.34363 2.76897,0.84774 3.68906,2.16651 0,0 -0.63296,0.47782 -0.63296,0.47782 z"
     inkscape:connector-curvature="0" />
  <rect
     style="color:#000000;fill:#ff0000;fill-opacity:0.08866996;fill-rule:nonzero;stroke:#000000;stroke-width:0.34566185;stroke-linecap:butt;stroke-linejoin:miter;stroke-miterlimit:4;stroke-opacity:1;stroke-dasharray:none;stroke-dashoffset:0;marker:none;visibility:visible;display:inline;overflow:visible;enable-background:accumulate"
     id="rect7270"
     width="90.713791"
     height="99.147522"
     x="204.64311"
     y="295.00455" />
  <rect
     style="color:#000000;fill:#ff0000;fill-opacity:0.08866996;fill-rule:nonzero;stroke:#000000;stroke-width:0.35319287;stroke-linecap:butt;stroke-linejoin:miter;stroke-miterlimit:4;stroke-opacity:1;stroke-dasharray:none;stroke-dashoffset:0;marker:none;visibility:visible;display:inline;overflow:visible;enable-background:accumulate"
     id="rect7270-4"
     width="97.068817"
     height="96.737839"
     x="292.86639"
     y="198.61905" />
  <path
     style="fill:none;stroke:#000000;stroke-width:1.10172355px;stroke-linecap:butt;stroke-linejoin:miter;stroke-opacity:0.38916255"
     d="m 106.36957,196.12612 382.44158,0.51883"
     id="path3774-6-2"
     inkscape:connector-curvature="0" />
  <path
     style="fill:none;stroke:#000000;stroke-width:1.10172355px;stroke-linecap:butt;stroke-linejoin:miter;stroke-opacity:0.38916255"
     d="m 105.16475,393.71649 382.44158,0.51883"
     id="path3774-6-2-2"
     inkscape:connector-curvature="0" />
  <path
     style="fill:none;stroke:#000000;stroke-width:1.10291433px;stroke-linecap:butt;stroke-linejoin:miter;stroke-opacity:0.38916255"
     d="m 202.51661,96.338463 2.19568,407.323077"
     id="path3772-8-7"
     inkscape:connector-curvature="0" />
  <path
     style="fill:none;stroke:#000000;stroke-width:1.10291433px;stroke-linecap:butt;stroke-linejoin:miter;stroke-opacity:0.38916255"
     d="m 389.26361,91.519187 2.19568,407.323073"
     id="path3772-3-0"
     inkscape:connector-curvature="0" />
  <path
     style="color:#000000;fill:#000000;fill-opacity:1;fill-rule:nonzero;stroke-width:1;stroke-linecap:butt;stroke-linejoin:miter;stroke-miterlimit:4;stroke-opacity:1;stroke-dasharray:none;stroke-dashoffset:0;marker:none;visibility:visible;display:inline;overflow:visible;enable-background:accumulate"
     id="path3253-5-4"
     d="m 204.23595,486.16994 c -2.57485,0.142 -4.72165,1.05611 -6.6776,2.69698 -1.62276,1.68803 -1.61641,3.6393 -1.36476,5.8047 0.54457,1.89296 1.46502,3.63773 3.0378,4.85392 1.84547,1.0009 3.60568,2.12333 5.75298,2.23247 2.24003,0.0195 3.83862,-1.5363 5.47689,-2.8521 1.74958,-1.65389 2.74352,-3.85917 3.42052,-6.12958 0.40554,-2.59597 -0.20965,-3.23056 -2.09821,-4.69167 -1.93898,-1.33868 -4.28355,-1.58171 -6.56571,-1.79223 -3.15752,-0.0212 -5.35335,1.93097 -7.48894,3.99753 -0.33739,0.46111 -0.67477,0.92222 -1.01216,1.38331 0,0 -1.18101,-0.87476 -1.18101,-0.87476 l 0,0 c 0.39068,-0.52186 0.78137,-1.04372 1.17206,-1.56559 2.45604,-2.36863 5.03287,-4.48175 8.64601,-4.40388 2.56392,0.23976 5.16961,0.56189 7.32914,2.09326 2.39094,1.85026 3.15151,3.15196 2.60617,6.27759 -0.77493,2.55344 -1.91159,5.01399 -3.90772,6.85202 -1.93797,1.55551 -3.8484,3.25103 -6.49871,3.17228 -2.44278,-0.20313 -4.48979,-1.31716 -6.56934,-2.55095 -1.84075,-1.51021 -3.00442,-3.52012 -3.57984,-5.83374 -0.30379,-2.66878 -0.13187,-5.08874 1.88843,-7.10535 2.24099,-1.82973 4.6997,-2.90544 7.62729,-3.03385 0,0 -0.0133,1.46964 -0.0133,1.46964 z"
     inkscape:connector-curvature="0" />
  <path
     style="color:#000000;fill-opacity:1;fill-rule:nonzero;stroke-width:1;stroke-linecap:butt;stroke-linejoin:miter;stroke-miterlimit:4;stroke-opacity:1;stroke-dasharray:none;stroke-dashoffset:0;marker:none;visibility:visible;display:inline;overflow:visible;enable-background:accumulate"
     id="path3253-5-8-2"
     d="m 390.3555,487.29446 c -2.57485,0.142 -4.72165,1.05611 -6.6776,2.69698 -1.62276,1.68803 -1.61641,3.6393 -1.36476,5.8047 0.54457,1.89296 1.46502,3.63773 3.0378,4.85391 1.84547,1.00091 3.60568,2.12334 5.75298,2.23248 2.24003,0.0195 3.83862,-1.5363 5.47689,-2.8521 1.74959,-1.65389 2.74352,-3.85917 3.42052,-6.12959 0.40554,-2.59596 -0.20965,-3.23055 -2.09821,-4.69166 -1.93898,-1.33868 -4.28355,-1.58171 -6.56571,-1.79223 -3.15752,-0.0212 -5.35334,1.93097 -7.48894,3.99753 -0.33739,0.46111 -0.67477,0.92221 -1.01216,1.38331 0,0 -1.18101,-0.87476 -1.18101,-0.87476 l 0,0 c 0.39068,-0.52186 0.78137,-1.04373 1.17206,-1.56559 2.45604,-2.36863 5.03287,-4.48176 8.64601,-4.40389 2.56392,0.23977 5.16961,0.5619 7.32914,2.09327 2.39094,1.85026 3.15151,3.15196 2.60617,6.27759 -0.77493,2.55344 -1.91159,5.01399 -3.90772,6.85202 -1.93797,1.55551 -3.8484,3.25103 -6.49871,3.17228 -2.44278,-0.20314 -4.48979,-1.31716 -6.56934,-2.55095 -1.84074,-1.51021 -3.00442,-3.52012 -3.57984,-5.83374 -0.30379,-2.66878 -0.13187,-5.08874 1.88843,-7.10535 2.24099,-1.82973 4.6997,-2.90544 7.62729,-3.03385 0,0 -0.0133,1.46964 -0.0133,1.46964 z"
     inkscape:connector-curvature="0" />
  <path
     sodipodi:type="arc"
     style="color:#000000;fill:#000000;fill-opacity:1;fill-rule:nonzero;stroke-width:1;stroke-linecap:butt;stroke-linejoin:miter;stroke-miterlimit:4;stroke-opacity:1;stroke-dasharray:12, 12;stroke-dashoffset:0;marker:none;visibility:visible;display:inline;overflow:visible;enable-background:accumulate"
     id="path4447-8"
     sodipodi:cx="97.120689"
     sodipodi:cy="64.136719"
     sodipodi:rx="8.5193586"
     sodipodi:ry="7.6674228"
     d="m 105.64005,64.136719 a 8.5193586,7.6674228 0 1 1 -17.038719,0 8.5193586,7.6674228 0 1 1 17.038719,0 z"
     transform="matrix(1.2197965,0.01103034,-0.01103034,1.2197965,86.519304,413.79322)" />
  <path
     sodipodi:type="arc"
     style="color:#000000;fill:#000000;fill-opacity:1;fill-rule:nonzero;stroke-width:1;stroke-linecap:butt;stroke-linejoin:miter;stroke-miterlimit:4;stroke-opacity:1;stroke-dasharray:12, 12;stroke-dashoffset:0;marker:none;visibility:visible;display:inline;overflow:visible;enable-background:accumulate"
     id="path4447-6-16"
     sodipodi:cx="97.120689"
     sodipodi:cy="64.136719"
     sodipodi:rx="8.5193586"
     sodipodi:ry="7.6674228"
     d="m 105.64005,64.136719 a 8.5193586,7.6674228 0 1 1 -17.038719,0 8.5193586,7.6674228 0 1 1 17.038719,0 z"
     transform="matrix(1.2197965,0.01103034,-0.01103034,1.2197965,272.4986,414.47465)" />
  <path
     style="color:#000000;fill:#000000;fill-opacity:1;fill-rule:nonzero;stroke-width:1;stroke-linecap:butt;stroke-linejoin:miter;stroke-miterlimit:4;stroke-opacity:1;stroke-dasharray:none;stroke-dashoffset:0;marker:none;visibility:visible;display:inline;overflow:visible;enable-background:accumulate"
     id="path3253-5-9-4-0"
     d="m 204.42018,288.49025 c -2.57485,0.142 -4.72166,1.05611 -6.67761,2.69698 -1.62275,1.68803 -1.6164,3.6393 -1.36475,5.8047 0.54457,1.89296 1.46501,3.63773 3.03779,4.85392 1.84548,1.0009 3.60569,2.12333 5.75299,2.23247 2.24003,0.0195 3.83862,-1.5363 5.47688,-2.8521 1.74959,-1.65389 2.74352,-3.85917 3.42053,-6.12959 0.40553,-2.59596 -0.20966,-3.23055 -2.09821,-4.69166 -1.93899,-1.33868 -4.28355,-1.58171 -6.56571,-1.79223 -3.15752,-0.0212 -5.35335,1.93097 -7.48895,3.99753 -0.33738,0.46111 -0.67477,0.92222 -1.01215,1.38331 0,0 -1.18101,-0.87476 -1.18101,-0.87476 l 0,0 c 0.39068,-0.52186 0.78136,-1.04372 1.17206,-1.56559 2.45603,-2.36863 5.03286,-4.48175 8.646,-4.40388 2.56392,0.23976 5.16961,0.56189 7.32914,2.09326 2.39095,1.85026 3.15151,3.15196 2.60617,6.27759 -0.77492,2.55344 -1.91158,5.01399 -3.90772,6.85202 -1.93796,1.55551 -3.84839,3.25103 -6.49871,3.17228 -2.44277,-0.20313 -4.48979,-1.31716 -6.56934,-2.55095 -1.84074,-1.51021 -3.00441,-3.52012 -3.57984,-5.83374 -0.30378,-2.66878 -0.13187,-5.08874 1.88844,-7.10535 2.24099,-1.82973 4.69969,-2.90544 7.62729,-3.03385 0,0 -0.0133,1.46964 -0.0133,1.46964 z"
     inkscape:connector-curvature="0" />
  <path
     sodipodi:type="arc"
     style="color:#000000;fill:#000000;fill-opacity:1;fill-rule:nonzero;stroke-width:1;stroke-linecap:butt;stroke-linejoin:miter;stroke-miterlimit:4;stroke-opacity:1;stroke-dasharray:12, 12;stroke-dashoffset:0;marker:none;visibility:visible;display:inline;overflow:visible;enable-background:accumulate"
     id="path4447-4-3-2"
     sodipodi:cx="97.120689"
     sodipodi:cy="64.136719"
     sodipodi:rx="8.5193586"
     sodipodi:ry="7.6674228"
     d="m 105.64005,64.136719 a 8.5193586,7.6674228 0 1 1 -17.038719,0 8.5193586,7.6674228 0 1 1 17.038719,0 z"
     transform="matrix(1.2197965,0.01103034,-0.01103034,1.2197965,86.703524,216.11353)" />
  <path
     style="color:#000000;fill:#000000;fill-opacity:1;fill-rule:nonzero;stroke-width:1;stroke-linecap:butt;stroke-linejoin:miter;stroke-miterlimit:4;stroke-opacity:1;stroke-dasharray:none;stroke-dashoffset:0;marker:none;visibility:visible;display:inline;overflow:visible;enable-background:accumulate"
     id="path3253-5-9-0-2-5"
     d="m 201.5433,90.844599 c -2.57485,0.142 -4.72165,1.05612 -6.6776,2.69699 -1.62276,1.68803 -1.61641,3.6393 -1.36476,5.80469 0.54457,1.892961 1.46502,3.637741 3.0378,4.853921 1.84547,1.0009 3.60568,2.12334 5.75298,2.23248 2.24003,0.0195 3.83862,-1.53631 5.47689,-2.85211 1.74959,-1.65389 2.74352,-3.859171 3.42052,-6.129581 0.40554,-2.59597 -0.20965,-3.23056 -2.09821,-4.69166 -1.93898,-1.33869 -4.28355,-1.58171 -6.56571,-1.79224 -3.15752,-0.0212 -5.35334,1.93097 -7.48894,3.99754 -0.33739,0.4611 -0.67477,0.92221 -1.01216,1.38331 0,0 -1.18101,-0.87476 -1.18101,-0.87476 l 0,0 c 0.39068,-0.52187 0.78137,-1.04373 1.17206,-1.56559 2.45604,-2.36863 5.03287,-4.48176 8.64601,-4.40389 2.56392,0.23977 5.16961,0.5619 7.32914,2.09327 2.39094,1.85026 3.15151,3.15196 2.60617,6.27758 -0.77493,2.553451 -1.91159,5.014001 -3.90772,6.852031 -1.93797,1.55551 -3.8484,3.25103 -6.49871,3.17227 -2.44278,-0.20313 -4.48979,-1.31716 -6.56934,-2.55094 -1.84074,-1.51021 -3.00442,-3.52012 -3.57984,-5.833751 -0.30379,-2.66878 -0.13187,-5.08873 1.88843,-7.10535 2.24099,-1.82973 4.6997,-2.90544 7.62729,-3.03384 0,0 -0.0133,1.46963 -0.0133,1.46963 z"
     inkscape:connector-curvature="0" />
  <path
     style="color:#000000;fill-opacity:1;fill-rule:nonzero;stroke-width:1;stroke-linecap:butt;stroke-linejoin:miter;stroke-miterlimit:4;stroke-opacity:1;stroke-dasharray:none;stroke-dashoffset:0;marker:none;visibility:visible;display:inline;overflow:visible;enable-background:accumulate"
     id="path3253-5-8-8-8-9-9"
     d="m 387.66286,91.969119 c -2.57485,0.142 -4.72166,1.05611 -6.67761,2.69699 -1.62276,1.68803 -1.61641,3.6393 -1.36476,5.804691 0.54458,1.89296 1.46502,3.63773 3.0378,4.85392 1.84547,1.0009 3.60568,2.12334 5.75298,2.23248 2.24003,0.0195 3.83862,-1.53631 5.47689,-2.85211 1.74959,-1.65389 2.74352,-3.85917 3.42052,-6.129581 0.40554,-2.59597 -0.20965,-3.23056 -2.09821,-4.69167 -1.93898,-1.33868 -4.28355,-1.5817 -6.56571,-1.79223 -3.15752,-0.0212 -5.35334,1.93097 -7.48894,3.99753 -0.33739,0.46111 -0.67477,0.92222 -1.01215,1.38331 0,0 -1.18102,-0.87475 -1.18102,-0.87475 l 0,0 c 0.39068,-0.52187 0.78137,-1.04373 1.17206,-1.56559 2.45604,-2.36863 5.03287,-4.48176 8.64601,-4.40389 2.56392,0.23976 5.16961,0.5619 7.32914,2.09327 2.39094,1.85025 3.15151,3.15195 2.60617,6.27758 -0.77493,2.553451 -1.91159,5.013991 -3.90772,6.852031 -1.93797,1.55551 -3.84839,3.25103 -6.49871,3.17227 -2.44278,-0.20313 -4.48979,-1.31716 -6.56934,-2.55094 -1.84074,-1.51021 -3.00442,-3.52012 -3.57984,-5.83375 -0.30379,-2.668781 -0.13187,-5.088731 1.88843,-7.105351 2.24099,-1.82973 4.6997,-2.90544 7.6273,-3.03384 0,0 -0.0133,1.46963 -0.0133,1.46963 z"
     inkscape:connector-curvature="0" />
  <path
     sodipodi:type="arc"
     style="color:#000000;fill:#000000;fill-opacity:1;fill-rule:nonzero;stroke-width:1;stroke-linecap:butt;stroke-linejoin:miter;stroke-miterlimit:4;stroke-opacity:1;stroke-dasharray:12, 12;stroke-dashoffset:0;marker:none;visibility:visible;display:inline;overflow:visible;enable-background:accumulate"
     id="path4447-4-37-0-3"
     sodipodi:cx="97.120689"
     sodipodi:cy="64.136719"
     sodipodi:rx="8.5193586"
     sodipodi:ry="7.6674228"
     d="m 105.64005,64.136719 a 8.5193586,7.6674228 0 1 1 -17.038719,0 8.5193586,7.6674228 0 1 1 17.038719,0 z"
     transform="matrix(1.2197965,0.01103034,-0.01103034,1.2197965,83.826654,18.467889)" />
  <path
     sodipodi:type="arc"
     style="color:#000000;fill:#000000;fill-opacity:1;fill-rule:nonzero;stroke-width:1;stroke-linecap:butt;stroke-linejoin:miter;stroke-miterlimit:4;stroke-opacity:1;stroke-dasharray:12, 12;stroke-dashoffset:0;marker:none;visibility:visible;display:inline;overflow:visible;enable-background:accumulate"
     id="path4447-6-6-4-1-1"
     sodipodi:cx="97.120689"
     sodipodi:cy="64.136719"
     sodipodi:rx="8.5193586"
     sodipodi:ry="7.6674228"
     d="m 105.64005,64.136719 a 8.5193586,7.6674228 0 1 1 -17.038719,0 8.5193586,7.6674228 0 1 1 17.038719,0 z"
     transform="matrix(1.2197965,0.01103034,-0.01103034,1.2197965,269.80595,19.149319)" />
  <path
     style="color:#000000;fill:#000000;fill-opacity:1;fill-rule:nonzero;stroke-width:1;stroke-linecap:butt;stroke-linejoin:miter;stroke-miterlimit:4;stroke-opacity:1;stroke-dasharray:none;stroke-dashoffset:0;marker:none;visibility:visible;display:inline;overflow:visible;enable-background:accumulate"
     id="path3253-5-9-4-7"
     d="m 109.23946,386.08061 c -2.57485,0.142 -4.72166,1.05611 -6.67761,2.69698 -1.62275,1.68804 -1.6164,3.63931 -1.36475,5.80471 0.54457,1.89296 1.46501,3.63773 3.03779,4.85392 1.84548,1.0009 3.60569,2.12333 5.75299,2.23247 2.24003,0.0195 3.83862,-1.5363 5.47688,-2.8521 1.74959,-1.65389 2.74352,-3.85917 3.42053,-6.12959 0.40553,-2.59596 -0.20966,-3.23055 -2.09821,-4.69167 -1.93899,-1.33868 -4.28355,-1.58171 -6.56571,-1.79223 -3.15752,-0.0212 -5.35335,1.93097 -7.48895,3.99754 -0.33738,0.46111 -0.67477,0.92222 -1.01215,1.38331 0,0 -1.18101,-0.87476 -1.18101,-0.87476 l 0,0 c 0.39068,-0.52186 0.78136,-1.04372 1.17206,-1.5656 2.45603,-2.36863 5.03286,-4.48175 8.646,-4.40388 2.56392,0.23976 5.16961,0.56189 7.32914,2.09326 2.39095,1.85026 3.15151,3.15197 2.60617,6.2776 -0.77492,2.55344 -1.91158,5.01399 -3.90772,6.85202 -1.93796,1.55551 -3.84839,3.25103 -6.49871,3.17228 -2.44277,-0.20313 -4.48979,-1.31716 -6.56934,-2.55095 -1.84074,-1.51021 -3.00441,-3.52012 -3.579842,-5.83374 -0.30378,-2.66878 -0.13187,-5.08874 1.888442,-7.10536 2.24099,-1.82973 4.69969,-2.90544 7.62729,-3.03385 0,0 -0.0133,1.46964 -0.0133,1.46964 z"
     inkscape:connector-curvature="0" />
  <path
     sodipodi:type="arc"
     style="color:#000000;fill:#000000;fill-opacity:1;fill-rule:nonzero;stroke-width:1;stroke-linecap:butt;stroke-linejoin:miter;stroke-miterlimit:4;stroke-opacity:1;stroke-dasharray:12, 12;stroke-dashoffset:0;marker:none;visibility:visible;display:inline;overflow:visible;enable-background:accumulate"
     id="path4447-4-3-26"
     sodipodi:cx="97.120689"
     sodipodi:cy="64.136719"
     sodipodi:rx="8.5193586"
     sodipodi:ry="7.6674228"
     d="m 105.64005,64.136719 a 8.5193586,7.6674228 0 1 1 -17.038719,0 8.5193586,7.6674228 0 1 1 17.038719,0 z"
     transform="matrix(1.2197965,0.01103034,-0.01103034,1.2197965,-8.4771985,313.70389)" />
  <path
     style="color:#000000;fill:#000000;fill-opacity:1;fill-rule:nonzero;stroke-width:1;stroke-linecap:butt;stroke-linejoin:miter;stroke-miterlimit:4;stroke-opacity:1;stroke-dasharray:none;stroke-dashoffset:0;marker:none;visibility:visible;display:inline;overflow:visible;enable-background:accumulate"
     id="path3253-5-9-0-2-9"
     d="m 106.36258,188.43497 c -2.57485,0.142 -4.72165,1.05611 -6.677602,2.69698 -1.62276,1.68803 -1.61641,3.6393 -1.36476,5.80469 0.54457,1.89296 1.46502,3.63774 3.037802,4.85392 1.84547,1.0009 3.60568,2.12334 5.75298,2.23248 2.24003,0.0195 3.83862,-1.53631 5.47689,-2.85211 1.74959,-1.65389 2.74352,-3.85917 3.42052,-6.12958 0.40554,-2.59597 -0.20965,-3.23056 -2.09821,-4.69166 -1.93898,-1.33868 -4.28355,-1.5817 -6.56571,-1.79223 -3.15752,-0.0212 -5.35334,1.93096 -7.488942,3.99753 -0.33739,0.4611 -0.67477,0.92221 -1.01216,1.38331 0,0 -1.18101,-0.87476 -1.18101,-0.87476 l 0,0 c 0.39068,-0.52187 0.78137,-1.04373 1.17206,-1.56559 2.456042,-2.36862 5.032872,-4.48175 8.646012,-4.40388 2.56392,0.23977 5.16961,0.5619 7.32914,2.09326 2.39094,1.85026 3.15151,3.15196 2.60617,6.27758 -0.77493,2.55345 -1.91159,5.014 -3.90772,6.85203 -1.93797,1.55551 -3.8484,3.25103 -6.49871,3.17227 -2.44278,-0.20313 -4.48979,-1.31716 -6.56934,-2.55094 -1.840742,-1.51021 -3.004422,-3.52012 -3.579842,-5.83375 -0.30379,-2.66878 -0.13187,-5.08873 1.88843,-7.10535 2.240992,-1.82972 4.699702,-2.90543 7.627292,-3.03383 0,0 -0.0133,1.46963 -0.0133,1.46963 z"
     inkscape:connector-curvature="0" />
  <path
     style="color:#000000;fill-opacity:1;fill-rule:nonzero;stroke-width:1;stroke-linecap:butt;stroke-linejoin:miter;stroke-miterlimit:4;stroke-opacity:1;stroke-dasharray:none;stroke-dashoffset:0;marker:none;visibility:visible;display:inline;overflow:visible;enable-background:accumulate"
     id="path3253-5-8-8-8-9-3"
     d="m 292.48214,189.55948 c -2.57485,0.142 -4.72166,1.05611 -6.67761,2.69699 -1.62276,1.68803 -1.61641,3.6393 -1.36476,5.80469 0.54458,1.89296 1.46502,3.63773 3.0378,4.85392 1.84547,1.0009 3.60568,2.12334 5.75298,2.23248 2.24003,0.0195 3.83862,-1.53631 5.47689,-2.85211 1.74959,-1.65389 2.74352,-3.85917 3.42052,-6.12958 0.40554,-2.59597 -0.20965,-3.23056 -2.09821,-4.69167 -1.93898,-1.33868 -4.28355,-1.5817 -6.56571,-1.79223 -3.15752,-0.0212 -5.35334,1.93097 -7.48894,3.99753 -0.33739,0.46111 -0.67477,0.92222 -1.01215,1.38331 0,0 -1.18102,-0.87475 -1.18102,-0.87475 l 0,0 c 0.39068,-0.52187 0.78137,-1.04373 1.17206,-1.56559 2.45604,-2.36863 5.03287,-4.48175 8.64601,-4.40388 2.56392,0.23976 5.16961,0.5619 7.32914,2.09326 2.39094,1.85025 3.15151,3.15195 2.60617,6.27758 -0.77493,2.55345 -1.91159,5.01399 -3.90772,6.85203 -1.93797,1.55551 -3.84839,3.25103 -6.49871,3.17227 -2.44278,-0.20313 -4.48979,-1.31716 -6.56934,-2.55094 -1.84074,-1.51021 -3.00442,-3.52012 -3.57984,-5.83375 -0.30379,-2.66878 -0.13187,-5.08873 1.88843,-7.10535 2.24099,-1.82973 4.6997,-2.90543 7.6273,-3.03383 0,0 -0.0133,1.46962 -0.0133,1.46962 z"
     inkscape:connector-curvature="0" />
  <path
     sodipodi:type="arc"
     style="color:#000000;fill:#000000;fill-opacity:1;fill-rule:nonzero;stroke-width:1;stroke-linecap:butt;stroke-linejoin:miter;stroke-miterlimit:4;stroke-opacity:1;stroke-dasharray:12, 12;stroke-dashoffset:0;marker:none;visibility:visible;display:inline;overflow:visible;enable-background:accumulate"
     id="path4447-4-37-0-2"
     sodipodi:cx="97.120689"
     sodipodi:cy="64.136719"
     sodipodi:rx="8.5193586"
     sodipodi:ry="7.6674228"
     d="m 105.64005,64.136719 a 8.5193586,7.6674228 0 1 1 -17.038719,0 8.5193586,7.6674228 0 1 1 17.038719,0 z"
     transform="matrix(1.2197965,0.01103034,-0.01103034,1.2197965,-11.354069,116.05825)" />
  <path
     sodipodi:type="arc"
     style="color:#000000;fill:#000000;fill-opacity:1;fill-rule:nonzero;stroke-width:1;stroke-linecap:butt;stroke-linejoin:miter;stroke-miterlimit:4;stroke-opacity:1;stroke-dasharray:12, 12;stroke-dashoffset:0;marker:none;visibility:visible;display:inline;overflow:visible;enable-background:accumulate"
     id="path4447-6-6-4-1-5"
     sodipodi:cx="97.120689"
     sodipodi:cy="64.136719"
     sodipodi:rx="8.5193586"
     sodipodi:ry="7.6674228"
     d="m 105.64005,64.136719 a 8.5193586,7.6674228 0 1 1 -17.038719,0 8.5193586,7.6674228 0 1 1 17.038719,0 z"
     transform="matrix(1.2197965,0.01103034,-0.01103034,1.2197965,174.62523,116.73968)" />
  <path
     style="color:#000000;fill:#000000;fill-opacity:1;fill-rule:nonzero;stroke-width:1;stroke-linecap:butt;stroke-linejoin:miter;stroke-miterlimit:4;stroke-opacity:1;stroke-dasharray:none;stroke-dashoffset:0;marker:none;visibility:visible;display:inline;overflow:visible;enable-background:accumulate"
     id="path3253-5-9-4-70"
     d="m 203.21537,384.8758 c -2.57485,0.142 -4.72166,1.05611 -6.67761,2.69698 -1.62275,1.68803 -1.6164,3.6393 -1.36475,5.8047 0.54457,1.89296 1.46501,3.63773 3.03779,4.85392 1.84548,1.0009 3.60569,2.12333 5.75299,2.23247 2.24003,0.0195 3.83862,-1.5363 5.47688,-2.8521 1.74959,-1.65389 2.74352,-3.85917 3.42053,-6.12959 0.40553,-2.59596 -0.20966,-3.23055 -2.09821,-4.69166 -1.93899,-1.33868 -4.28355,-1.58171 -6.56571,-1.79223 -3.15752,-0.0212 -5.35335,1.93097 -7.48895,3.99753 -0.33738,0.46111 -0.67477,0.92222 -1.01215,1.38331 0,0 -1.18101,-0.87476 -1.18101,-0.87476 l 0,0 c 0.39068,-0.52186 0.78136,-1.04372 1.17206,-1.56559 2.45603,-2.36863 5.03286,-4.48175 8.646,-4.40388 2.56392,0.23976 5.16961,0.56189 7.32914,2.09326 2.39095,1.85026 3.15151,3.15196 2.60617,6.27759 -0.77492,2.55344 -1.91158,5.01399 -3.90772,6.85202 -1.93796,1.55551 -3.84839,3.25103 -6.49871,3.17228 -2.44277,-0.20313 -4.48979,-1.31716 -6.56934,-2.55095 -1.84074,-1.51021 -3.00441,-3.52012 -3.57984,-5.83374 -0.30378,-2.66878 -0.13187,-5.08874 1.88844,-7.10535 2.24099,-1.82973 4.69969,-2.90544 7.62729,-3.03385 0,0 -0.0133,1.46964 -0.0133,1.46964 z"
     inkscape:connector-curvature="0" />
  <path
     sodipodi:type="arc"
     style="color:#000000;fill:#000000;fill-opacity:1;fill-rule:nonzero;stroke-width:1;stroke-linecap:butt;stroke-linejoin:miter;stroke-miterlimit:4;stroke-opacity:1;stroke-dasharray:12, 12;stroke-dashoffset:0;marker:none;visibility:visible;display:inline;overflow:visible;enable-background:accumulate"
     id="path4447-4-3-8"
     sodipodi:cx="97.120689"
     sodipodi:cy="64.136719"
     sodipodi:rx="8.5193586"
     sodipodi:ry="7.6674228"
     d="m 105.64005,64.136719 a 8.5193586,7.6674228 0 1 1 -17.038719,0 8.5193586,7.6674228 0 1 1 17.038719,0 z"
     transform="matrix(1.2197965,0.01103034,-0.01103034,1.2197965,85.498708,312.49908)" />
  <path
     style="color:#000000;fill:#000000;fill-opacity:1;fill-rule:nonzero;stroke-width:1;stroke-linecap:butt;stroke-linejoin:miter;stroke-miterlimit:4;stroke-opacity:1;stroke-dasharray:none;stroke-dashoffset:0;marker:none;visibility:visible;display:inline;overflow:visible;enable-background:accumulate"
     id="path3253-5-9-0-2-97"
     d="m 200.33849,187.23014 c -2.57485,0.142 -4.72165,1.05612 -6.6776,2.69699 -1.62276,1.68803 -1.61641,3.6393 -1.36476,5.80469 0.54457,1.89296 1.46502,3.63774 3.0378,4.85392 1.84547,1.0009 3.60568,2.12334 5.75298,2.23248 2.24003,0.0195 3.83862,-1.53631 5.47689,-2.85211 1.74959,-1.65389 2.74352,-3.85917 3.42052,-6.12958 0.40554,-2.59597 -0.20965,-3.23056 -2.09821,-4.69166 -1.93898,-1.33869 -4.28355,-1.58171 -6.56571,-1.79224 -3.15752,-0.0212 -5.35334,1.93097 -7.48894,3.99754 -0.33739,0.4611 -0.67477,0.92221 -1.01216,1.38331 0,0 -1.18101,-0.87476 -1.18101,-0.87476 l 0,0 c 0.39068,-0.52187 0.78137,-1.04373 1.17206,-1.56559 2.45604,-2.36863 5.03287,-4.48176 8.64601,-4.40389 2.56392,0.23977 5.16961,0.5619 7.32914,2.09327 2.39094,1.85026 3.15151,3.15196 2.60617,6.27758 -0.77493,2.55345 -1.91159,5.014 -3.90772,6.85203 -1.93797,1.55551 -3.8484,3.25103 -6.49871,3.17227 -2.44278,-0.20313 -4.48979,-1.31716 -6.56934,-2.55094 -1.84074,-1.51021 -3.00442,-3.52012 -3.57984,-5.83375 -0.30379,-2.66878 -0.13187,-5.08873 1.88843,-7.10535 2.24099,-1.82973 4.6997,-2.90544 7.62729,-3.03384 0,0 -0.0133,1.46963 -0.0133,1.46963 z"
     inkscape:connector-curvature="0" />
  <path
     style="color:#000000;fill-opacity:1;fill-rule:nonzero;stroke-width:1;stroke-linecap:butt;stroke-linejoin:miter;stroke-miterlimit:4;stroke-opacity:1;stroke-dasharray:none;stroke-dashoffset:0;marker:none;visibility:visible;display:inline;overflow:visible;enable-background:accumulate"
     id="path3253-5-8-8-8-9-8"
     d="m 386.45805,188.35466 c -2.57485,0.142 -4.72166,1.05611 -6.67761,2.69699 -1.62276,1.68803 -1.61641,3.6393 -1.36476,5.80469 0.54458,1.89296 1.46502,3.63773 3.0378,4.85392 1.84547,1.0009 3.60568,2.12334 5.75298,2.23248 2.24003,0.0195 3.83862,-1.53631 5.47689,-2.85211 1.74959,-1.65389 2.74352,-3.85917 3.42052,-6.12958 0.40554,-2.59597 -0.20965,-3.23056 -2.09821,-4.69167 -1.93898,-1.33868 -4.28355,-1.5817 -6.56571,-1.79223 -3.15752,-0.0212 -5.35334,1.93097 -7.48894,3.99753 -0.33739,0.46111 -0.67477,0.92222 -1.01215,1.38331 0,0 -1.18102,-0.87475 -1.18102,-0.87475 l 0,0 c 0.39068,-0.52187 0.78137,-1.04373 1.17206,-1.56559 2.45604,-2.36863 5.03287,-4.48176 8.64601,-4.40389 2.56392,0.23976 5.16961,0.5619 7.32914,2.09327 2.39094,1.85025 3.15151,3.15195 2.60617,6.27758 -0.77493,2.55345 -1.91159,5.01399 -3.90772,6.85203 -1.93797,1.55551 -3.84839,3.25103 -6.49871,3.17227 -2.44278,-0.20313 -4.48979,-1.31716 -6.56934,-2.55094 -1.84074,-1.51021 -3.00442,-3.52012 -3.57984,-5.83375 -0.30379,-2.66878 -0.13187,-5.08873 1.88843,-7.10535 2.24099,-1.82973 4.6997,-2.90544 7.6273,-3.03384 0,0 -0.0133,1.46963 -0.0133,1.46963 z"
     inkscape:connector-curvature="0" />
  <path
     sodipodi:type="arc"
     style="color:#000000;fill:#000000;fill-opacity:1;fill-rule:nonzero;stroke-width:1;stroke-linecap:butt;stroke-linejoin:miter;stroke-miterlimit:4;stroke-opacity:1;stroke-dasharray:12, 12;stroke-dashoffset:0;marker:none;visibility:visible;display:inline;overflow:visible;enable-background:accumulate"
     id="path4447-4-37-0-34"
     sodipodi:cx="97.120689"
     sodipodi:cy="64.136719"
     sodipodi:rx="8.5193586"
     sodipodi:ry="7.6674228"
     d="m 105.64005,64.136719 a 8.5193586,7.6674228 0 1 1 -17.038719,0 8.5193586,7.6674228 0 1 1 17.038719,0 z"
     transform="matrix(1.2197965,0.01103034,-0.01103034,1.2197965,82.621838,114.85343)" />
  <path
     sodipodi:type="arc"
     style="color:#000000;fill:#000000;fill-opacity:1;fill-rule:nonzero;stroke-width:1;stroke-linecap:butt;stroke-linejoin:miter;stroke-miterlimit:4;stroke-opacity:1;stroke-dasharray:12, 12;stroke-dashoffset:0;marker:none;visibility:visible;display:inline;overflow:visible;enable-background:accumulate"
     id="path4447-6-6-4-1-9"
     sodipodi:cx="97.120689"
     sodipodi:cy="64.136719"
     sodipodi:rx="8.5193586"
     sodipodi:ry="7.6674228"
     d="m 105.64005,64.136719 a 8.5193586,7.6674228 0 1 1 -17.038719,0 8.5193586,7.6674228 0 1 1 17.038719,0 z"
     transform="matrix(1.2197965,0.01103034,-0.01103034,1.2197965,268.60114,115.53486)" />
  <path
     style="color:#000000;fill:#000000;fill-opacity:1;fill-rule:nonzero;stroke-width:1;stroke-linecap:butt;stroke-linejoin:miter;stroke-miterlimit:4;stroke-opacity:1;stroke-dasharray:none;stroke-dashoffset:0;marker:none;visibility:visible;display:inline;overflow:visible;enable-background:accumulate"
     id="path3253-5-9-0-2-6"
     d="m 299.13367,384.82051 c -2.57485,0.142 -4.72165,1.05612 -6.6776,2.69699 -1.62276,1.68803 -1.61641,3.6393 -1.36476,5.80469 0.54457,1.89296 1.46502,3.63774 3.0378,4.85392 1.84547,1.0009 3.60568,2.12334 5.75298,2.23248 2.24003,0.0195 3.83862,-1.53631 5.47689,-2.85211 1.74959,-1.65389 2.74352,-3.85917 3.42052,-6.12958 0.40554,-2.59597 -0.20965,-3.23056 -2.09821,-4.69166 -1.93898,-1.33869 -4.28355,-1.58171 -6.56571,-1.79224 -3.15752,-0.0212 -5.35334,1.93097 -7.48894,3.99754 -0.33739,0.4611 -0.67477,0.92221 -1.01216,1.38331 0,0 -1.18101,-0.87476 -1.18101,-0.87476 l 0,0 c 0.39068,-0.52187 0.78137,-1.04373 1.17206,-1.56559 2.45604,-2.36863 5.03287,-4.48176 8.64601,-4.40389 2.56392,0.23977 5.16961,0.5619 7.32914,2.09327 2.39094,1.85026 3.15151,3.15196 2.60617,6.27758 -0.77493,2.55345 -1.91159,5.014 -3.90772,6.85203 -1.93797,1.55551 -3.8484,3.25103 -6.49871,3.17227 -2.44278,-0.20313 -4.48979,-1.31716 -6.56934,-2.55094 -1.84074,-1.51021 -3.00442,-3.52012 -3.57984,-5.83375 -0.30379,-2.66878 -0.13187,-5.08873 1.88843,-7.10535 2.24099,-1.82973 4.6997,-2.90544 7.62729,-3.03384 0,0 -0.0133,1.46963 -0.0133,1.46963 z"
     inkscape:connector-curvature="0" />
  <path
     style="color:#000000;fill-opacity:1;fill-rule:nonzero;stroke-width:1;stroke-linecap:butt;stroke-linejoin:miter;stroke-miterlimit:4;stroke-opacity:1;stroke-dasharray:none;stroke-dashoffset:0;marker:none;visibility:visible;display:inline;overflow:visible;enable-background:accumulate"
     id="path3253-5-8-8-8-9-92"
     d="m 485.25322,385.94503 c -2.57485,0.142 -4.72166,1.05611 -6.67761,2.69699 -1.62276,1.68803 -1.61641,3.6393 -1.36476,5.80469 0.54458,1.89296 1.46502,3.63773 3.0378,4.85392 1.84547,1.0009 3.60568,2.12334 5.75298,2.23248 2.24003,0.0195 3.83862,-1.53631 5.47689,-2.85211 1.74959,-1.65389 2.74352,-3.85917 3.42052,-6.12958 0.40554,-2.59597 -0.20965,-3.23056 -2.09821,-4.69167 -1.93898,-1.33868 -4.28355,-1.5817 -6.56571,-1.79223 -3.15752,-0.0212 -5.35334,1.93097 -7.48894,3.99753 -0.33739,0.46111 -0.67477,0.92222 -1.01215,1.38331 0,0 -1.18102,-0.87475 -1.18102,-0.87475 l 0,0 c 0.39068,-0.52187 0.78137,-1.04373 1.17206,-1.56559 2.45604,-2.36863 5.03287,-4.48176 8.64601,-4.40389 2.56392,0.23976 5.16961,0.5619 7.32914,2.09327 2.39094,1.85025 3.15151,3.15195 2.60617,6.27758 -0.77493,2.55345 -1.91159,5.01399 -3.90772,6.85203 -1.93797,1.55551 -3.84839,3.25103 -6.49871,3.17227 -2.44278,-0.20313 -4.48979,-1.31716 -6.56934,-2.55094 -1.84074,-1.51021 -3.00442,-3.52012 -3.57984,-5.83375 -0.30379,-2.66878 -0.13187,-5.08873 1.88843,-7.10535 2.24099,-1.82973 4.6997,-2.90544 7.6273,-3.03384 0,0 -0.0133,1.46963 -0.0133,1.46963 z"
     inkscape:connector-curvature="0" />
  <path
     sodipodi:type="arc"
     style="color:#000000;fill:#000000;fill-opacity:1;fill-rule:nonzero;stroke-width:1;stroke-linecap:butt;stroke-linejoin:miter;stroke-miterlimit:4;stroke-opacity:1;stroke-dasharray:12, 12;stroke-dashoffset:0;marker:none;visibility:visible;display:inline;overflow:visible;enable-background:accumulate"
     id="path4447-4-37-0-21"
     sodipodi:cx="97.120689"
     sodipodi:cy="64.136719"
     sodipodi:rx="8.5193586"
     sodipodi:ry="7.6674228"
     d="m 105.64005,64.136719 a 8.5193586,7.6674228 0 1 1 -17.038719,0 8.5193586,7.6674228 0 1 1 17.038719,0 z"
     transform="matrix(1.2197965,0.01103034,-0.01103034,1.2197965,181.41702,312.44379)" />
  <path
     sodipodi:type="arc"
     style="color:#000000;fill:#000000;fill-opacity:1;fill-rule:nonzero;stroke-width:1;stroke-linecap:butt;stroke-linejoin:miter;stroke-miterlimit:4;stroke-opacity:1;stroke-dasharray:12, 12;stroke-dashoffset:0;marker:none;visibility:visible;display:inline;overflow:visible;enable-background:accumulate"
     id="path4447-6-6-4-1-8"
     sodipodi:cx="97.120689"
     sodipodi:cy="64.136719"
     sodipodi:rx="8.5193586"
     sodipodi:ry="7.6674228"
     d="m 105.64005,64.136719 a 8.5193586,7.6674228 0 1 1 -17.038719,0 8.5193586,7.6674228 0 1 1 17.038719,0 z"
     transform="matrix(1.2197965,0.01103034,-0.01103034,1.2197965,367.39632,313.12522)" />
  <path
     style="color:#000000;fill:#000000;fill-opacity:1;fill-rule:nonzero;stroke-width:1;stroke-linecap:butt;stroke-linejoin:miter;stroke-miterlimit:4;stroke-opacity:1;stroke-dasharray:none;stroke-dashoffset:0;marker:none;visibility:visible;display:inline;overflow:visible;enable-background:accumulate"
     id="path3253-5-9-4-10"
     d="m 391.16717,484.8758 c -2.57485,0.142 -4.72166,1.05611 -6.67761,2.69698 -1.62275,1.68803 -1.6164,3.6393 -1.36475,5.8047 0.54457,1.89296 1.46501,3.63773 3.03779,4.85392 1.84548,1.0009 3.60569,2.12333 5.75299,2.23247 2.24003,0.0195 3.83862,-1.5363 5.47688,-2.8521 1.74959,-1.65389 2.74352,-3.85917 3.42053,-6.12959 0.40553,-2.59596 -0.20966,-3.23055 -2.09821,-4.69166 -1.93899,-1.33868 -4.28355,-1.58171 -6.56571,-1.79223 -3.15752,-0.0212 -5.35335,1.93097 -7.48895,3.99753 -0.33738,0.46111 -0.67477,0.92222 -1.01215,1.38331 0,0 -1.18101,-0.87476 -1.18101,-0.87476 l 0,0 c 0.39068,-0.52186 0.78136,-1.04372 1.17206,-1.56559 2.45603,-2.36863 5.03286,-4.48175 8.646,-4.40388 2.56392,0.23976 5.16961,0.56189 7.32914,2.09326 2.39095,1.85026 3.15151,3.15196 2.60617,6.27759 -0.77492,2.55344 -1.91158,5.01399 -3.90772,6.85202 -1.93796,1.55551 -3.84839,3.25103 -6.49871,3.17228 -2.44277,-0.20313 -4.48979,-1.31716 -6.56934,-2.55095 -1.84074,-1.51021 -3.00441,-3.52012 -3.57984,-5.83374 -0.30378,-2.66878 -0.13187,-5.08874 1.88844,-7.10535 2.24099,-1.82973 4.69969,-2.90544 7.62729,-3.03385 0,0 -0.0133,1.46964 -0.0133,1.46964 z"
     inkscape:connector-curvature="0" />
  <path
     sodipodi:type="arc"
     style="color:#000000;fill:#000000;fill-opacity:1;fill-rule:nonzero;stroke-width:1;stroke-linecap:butt;stroke-linejoin:miter;stroke-miterlimit:4;stroke-opacity:1;stroke-dasharray:12, 12;stroke-dashoffset:0;marker:none;visibility:visible;display:inline;overflow:visible;enable-background:accumulate"
     id="path4447-4-3-4"
     sodipodi:cx="97.120689"
     sodipodi:cy="64.136719"
     sodipodi:rx="8.5193586"
     sodipodi:ry="7.6674228"
     d="m 105.64005,64.136719 a 8.5193586,7.6674228 0 1 1 -17.038719,0 8.5193586,7.6674228 0 1 1 17.038719,0 z"
     transform="matrix(1.2197965,0.01103034,-0.01103034,1.2197965,273.45051,412.49908)" />
  <path
     style="color:#000000;fill:#000000;fill-opacity:1;fill-rule:nonzero;stroke-width:1;stroke-linecap:butt;stroke-linejoin:miter;stroke-miterlimit:4;stroke-opacity:1;stroke-dasharray:none;stroke-dashoffset:0;marker:none;visibility:visible;display:inline;overflow:visible;enable-background:accumulate"
     id="path3253-5-9-0-2-99"
     d="m 388.29029,287.23015 c -2.57485,0.142 -4.72165,1.05612 -6.6776,2.69699 -1.62276,1.68803 -1.61641,3.6393 -1.36476,5.80469 0.54457,1.89296 1.46502,3.63774 3.0378,4.85392 1.84547,1.0009 3.60568,2.12334 5.75298,2.23248 2.24003,0.0195 3.83862,-1.53631 5.47689,-2.85211 1.74959,-1.65389 2.74352,-3.85917 3.42052,-6.12958 0.40554,-2.59597 -0.20965,-3.23056 -2.09821,-4.69166 -1.93898,-1.33869 -4.28355,-1.58171 -6.56571,-1.79224 -3.15752,-0.0212 -5.35334,1.93097 -7.48894,3.99754 -0.33739,0.4611 -0.67477,0.92221 -1.01216,1.38331 0,0 -1.18101,-0.87476 -1.18101,-0.87476 l 0,0 c 0.39068,-0.52187 0.78137,-1.04373 1.17206,-1.56559 2.45604,-2.36863 5.03287,-4.48176 8.64601,-4.40389 2.56392,0.23977 5.16961,0.5619 7.32914,2.09327 2.39094,1.85026 3.15151,3.15196 2.60617,6.27758 -0.77493,2.55345 -1.91159,5.014 -3.90772,6.85203 -1.93797,1.55551 -3.8484,3.25103 -6.49871,3.17227 -2.44278,-0.20313 -4.48979,-1.31716 -6.56934,-2.55094 -1.84074,-1.51021 -3.00442,-3.52012 -3.57984,-5.83375 -0.30379,-2.66878 -0.13187,-5.08873 1.88843,-7.10535 2.24099,-1.82973 4.6997,-2.90544 7.62729,-3.03384 0,0 -0.0133,1.46963 -0.0133,1.46963 z"
     inkscape:connector-curvature="0" />
  <path
     sodipodi:type="arc"
     style="color:#000000;fill:#000000;fill-opacity:1;fill-rule:nonzero;stroke-width:1;stroke-linecap:butt;stroke-linejoin:miter;stroke-miterlimit:4;stroke-opacity:1;stroke-dasharray:12, 12;stroke-dashoffset:0;marker:none;visibility:visible;display:inline;overflow:visible;enable-background:accumulate"
     id="path4447-4-37-0-5"
     sodipodi:cx="97.120689"
     sodipodi:cy="64.136719"
     sodipodi:rx="8.5193586"
     sodipodi:ry="7.6674228"
     d="m 105.64005,64.136719 a 8.5193586,7.6674228 0 1 1 -17.038719,0 8.5193586,7.6674228 0 1 1 17.038719,0 z"
     transform="matrix(1.2197965,0.01103034,-0.01103034,1.2197965,270.57364,214.85343)" />
  <path
     style="color:#000000;fill:#000000;fill-opacity:1;fill-rule:nonzero;stroke-width:1;stroke-linecap:butt;stroke-linejoin:miter;stroke-miterlimit:4;stroke-opacity:1;stroke-dasharray:none;stroke-dashoffset:0;marker:none;visibility:visible;display:inline;overflow:visible;enable-background:accumulate"
     id="path3253-5-9-4-3"
     d="m 487.55272,387.28543 c -2.57485,0.142 -4.72166,1.05611 -6.67761,2.69698 -1.62275,1.68803 -1.6164,3.6393 -1.36475,5.8047 0.54457,1.89296 1.46501,3.63773 3.03779,4.85392 1.84548,1.0009 3.60569,2.12333 5.75299,2.23247 2.24003,0.0195 3.83862,-1.5363 5.47688,-2.8521 1.74959,-1.65389 2.74352,-3.85917 3.42053,-6.12959 0.40553,-2.59596 -0.20966,-3.23055 -2.09821,-4.69166 -1.93899,-1.33868 -4.28355,-1.58171 -6.56571,-1.79223 -3.15752,-0.0212 -5.35335,1.93097 -7.48895,3.99753 -0.33738,0.46111 -0.67477,0.92222 -1.01215,1.38331 0,0 -1.18101,-0.87476 -1.18101,-0.87476 l 0,0 c 0.39068,-0.52186 0.78136,-1.04372 1.17206,-1.56559 2.45603,-2.36863 5.03286,-4.48175 8.646,-4.40388 2.56392,0.23976 5.16961,0.56189 7.32914,2.09326 2.39095,1.85026 3.15151,3.15196 2.60617,6.27759 -0.77492,2.55344 -1.91158,5.01399 -3.90772,6.85202 -1.93796,1.55551 -3.84839,3.25103 -6.49871,3.17228 -2.44277,-0.20313 -4.48979,-1.31716 -6.56934,-2.55095 -1.84074,-1.51021 -3.00441,-3.52012 -3.57984,-5.83374 -0.30378,-2.66878 -0.13187,-5.08874 1.88844,-7.10535 2.24099,-1.82973 4.69969,-2.90544 7.62729,-3.03385 0,0 -0.0133,1.46964 -0.0133,1.46964 z"
     inkscape:connector-curvature="0" />
  <path
     sodipodi:type="arc"
     style="color:#000000;fill:#000000;fill-opacity:1;fill-rule:nonzero;stroke-width:1;stroke-linecap:butt;stroke-linejoin:miter;stroke-miterlimit:4;stroke-opacity:1;stroke-dasharray:12, 12;stroke-dashoffset:0;marker:none;visibility:visible;display:inline;overflow:visible;enable-background:accumulate"
     id="path4447-4-3-86"
     sodipodi:cx="97.120689"
     sodipodi:cy="64.136719"
     sodipodi:rx="8.5193586"
     sodipodi:ry="7.6674228"
     d="m 105.64005,64.136719 a 8.5193586,7.6674228 0 1 1 -17.038719,0 8.5193586,7.6674228 0 1 1 17.038719,0 z"
     transform="matrix(1.2197965,0.01103034,-0.01103034,1.2197965,369.83606,314.90871)" />
  <path
     style="color:#000000;fill:#000000;fill-opacity:1;fill-rule:nonzero;stroke-width:1;stroke-linecap:butt;stroke-linejoin:miter;stroke-miterlimit:4;stroke-opacity:1;stroke-dasharray:none;stroke-dashoffset:0;marker:none;visibility:visible;display:inline;overflow:visible;enable-background:accumulate"
     id="path3253-5-9-0-2-8"
     d="m 484.67584,189.63978 c -2.57485,0.142 -4.72165,1.05612 -6.6776,2.69699 -1.62276,1.68803 -1.61641,3.6393 -1.36476,5.80469 0.54457,1.89296 1.46502,3.63774 3.0378,4.85392 1.84547,1.0009 3.60568,2.12334 5.75298,2.23248 2.24003,0.0195 3.83862,-1.53631 5.47689,-2.85211 1.74959,-1.65389 2.74352,-3.85917 3.42052,-6.12958 0.40554,-2.59597 -0.20965,-3.23056 -2.09821,-4.69166 -1.93898,-1.33869 -4.28355,-1.58171 -6.56571,-1.79224 -3.15752,-0.0212 -5.35334,1.93097 -7.48894,3.99754 -0.33739,0.4611 -0.67477,0.92221 -1.01216,1.38331 0,0 -1.18101,-0.87476 -1.18101,-0.87476 l 0,0 c 0.39068,-0.52187 0.78137,-1.04373 1.17206,-1.56559 2.45604,-2.36863 5.03287,-4.48176 8.64601,-4.40389 2.56392,0.23977 5.16961,0.5619 7.32914,2.09327 2.39094,1.85026 3.15151,3.15196 2.60617,6.27758 -0.77493,2.55345 -1.91159,5.014 -3.90772,6.85203 -1.93797,1.55551 -3.8484,3.25103 -6.49871,3.17227 -2.44278,-0.20313 -4.48979,-1.31716 -6.56934,-2.55094 -1.84074,-1.51021 -3.00442,-3.52012 -3.57984,-5.83375 -0.30379,-2.66878 -0.13187,-5.08873 1.88843,-7.10535 2.24099,-1.82973 4.6997,-2.90544 7.62729,-3.03384 0,0 -0.0133,1.46963 -0.0133,1.46963 z"
     inkscape:connector-curvature="0" />
  <path
     sodipodi:type="arc"
     style="color:#000000;fill:#000000;fill-opacity:1;fill-rule:nonzero;stroke-width:1;stroke-linecap:butt;stroke-linejoin:miter;stroke-miterlimit:4;stroke-opacity:1;stroke-dasharray:12, 12;stroke-dashoffset:0;marker:none;visibility:visible;display:inline;overflow:visible;enable-background:accumulate"
     id="path4447-4-37-0-0"
     sodipodi:cx="97.120689"
     sodipodi:cy="64.136719"
     sodipodi:rx="8.5193586"
     sodipodi:ry="7.6674228"
     d="m 105.64005,64.136719 a 8.5193586,7.6674228 0 1 1 -17.038719,0 8.5193586,7.6674228 0 1 1 17.038719,0 z"
     transform="matrix(1.2197965,0.01103034,-0.01103034,1.2197965,366.95919,117.26307)" />
  <path
     style="color:#000000;fill:#000000;fill-opacity:1;fill-rule:nonzero;stroke-width:1;stroke-linecap:butt;stroke-linejoin:miter;stroke-miterlimit:4;stroke-opacity:1;stroke-dasharray:none;stroke-dashoffset:0;marker:none;visibility:visible;display:inline;overflow:visible;enable-background:accumulate"
     id="path3253-5-9-0-2-0"
     d="m 391.90475,386.02533 c -2.57485,0.142 -4.72165,1.05612 -6.6776,2.69699 -1.62276,1.68803 -1.61641,3.6393 -1.36476,5.80468 0.54457,1.89296 1.46502,3.63774 3.0378,4.85392 1.84547,1.0009 3.60568,2.12334 5.75298,2.23248 2.24003,0.0195 3.83862,-1.53631 5.47689,-2.85211 1.74959,-1.65389 2.74352,-3.85917 3.42052,-6.12957 0.40554,-2.59597 -0.20965,-3.23056 -2.09821,-4.69166 -1.93898,-1.33869 -4.28355,-1.58171 -6.56571,-1.79224 -3.15752,-0.0212 -5.35334,1.93097 -7.48894,3.99754 -0.33739,0.4611 -0.67477,0.92221 -1.01216,1.38331 0,0 -1.18101,-0.87476 -1.18101,-0.87476 l 0,0 c 0.39068,-0.52187 0.78137,-1.04373 1.17206,-1.56559 2.45604,-2.36863 5.03287,-4.48176 8.64601,-4.40389 2.56392,0.23977 5.16961,0.5619 7.32914,2.09327 2.39094,1.85026 3.15151,3.15196 2.60617,6.27758 -0.77493,2.55344 -1.91159,5.01399 -3.90772,6.85202 -1.93797,1.55551 -3.8484,3.25103 -6.49871,3.17227 -2.44278,-0.20313 -4.48979,-1.31716 -6.56934,-2.55094 -1.84074,-1.51021 -3.00442,-3.52012 -3.57984,-5.83375 -0.30379,-2.66877 -0.13187,-5.08872 1.88843,-7.10534 2.24099,-1.82973 4.6997,-2.90544 7.62729,-3.03384 0,0 -0.0133,1.46963 -0.0133,1.46963 z"
     inkscape:connector-curvature="0" />
  <path
     sodipodi:type="arc"
     style="color:#000000;fill:#000000;fill-opacity:1;fill-rule:nonzero;stroke-width:1;stroke-linecap:butt;stroke-linejoin:miter;stroke-miterlimit:4;stroke-opacity:1;stroke-dasharray:12, 12;stroke-dashoffset:0;marker:none;visibility:visible;display:inline;overflow:visible;enable-background:accumulate"
     id="path4447-4-37-0-06"
     sodipodi:cx="97.120689"
     sodipodi:cy="64.136719"
     sodipodi:rx="8.5193586"
     sodipodi:ry="7.6674228"
     d="m 105.64005,64.136719 a 8.5193586,7.6674228 0 1 1 -17.038719,0 8.5193586,7.6674228 0 1 1 17.038719,0 z"
     transform="matrix(1.2197965,0.01103034,-0.01103034,1.2197965,274.1881,313.64861)" />
</svg>
