<?xml version="1.0" encoding="UTF-8" standalone="no"?>
<!-- Created with Inkscape (http://www.inkscape.org/) -->

<svg
   xmlns:osb="http://www.openswatchbook.org/uri/2009/osb"
   xmlns:dc="http://purl.org/dc/elements/1.1/"
   xmlns:cc="http://creativecommons.org/ns#"
   xmlns:rdf="http://www.w3.org/1999/02/22-rdf-syntax-ns#"
   xmlns:svg="http://www.w3.org/2000/svg"
   xmlns="http://www.w3.org/2000/svg"
   xmlns:xlink="http://www.w3.org/1999/xlink"
   xmlns:sodipodi="http://sodipodi.sourceforge.net/DTD/sodipodi-0.dtd"
   xmlns:inkscape="http://www.inkscape.org/namespaces/inkscape"
   id="svg3036"
   version="1.1"
   inkscape:version="0.48.3.1 r9886"
   width="850"
   height="650"
   sodipodi:docname="lax_friedrichs_stability.png">
  <metadata
     id="metadata3042">
    <rdf:RDF>
      <cc:Work
         rdf:about="">
        <dc:format>image/svg+xml</dc:format>
        <dc:type
           rdf:resource="http://purl.org/dc/dcmitype/StillImage" />
        <dc:title></dc:title>
      </cc:Work>
    </rdf:RDF>
  </metadata>
  <defs
     id="defs3040">
    <linearGradient
       id="linearGradient6310">
      <stop
         style="stop-color:#000000;stop-opacity:1;"
         offset="0"
         id="stop6312" />
      <stop
         style="stop-color:#000000;stop-opacity:0;"
         offset="1"
         id="stop6314" />
    </linearGradient>
    <linearGradient
       id="linearGradient6292"
       osb:paint="solid">
      <stop
         style="stop-color:#ffffff;stop-opacity:1;"
         offset="0"
         id="stop6294" />
    </linearGradient>
    <linearGradient
       id="linearGradient4823"
       osb:paint="solid">
      <stop
         style="stop-color:#000000;stop-opacity:1;"
         offset="0"
         id="stop4825" />
    </linearGradient>
    <radialGradient
       inkscape:collect="always"
       xlink:href="#linearGradient6310"
       id="radialGradient6318"
       cx="513.85541"
       cy="315.66266"
       fx="513.85541"
       fy="315.66266"
       r="196.98795"
       gradientUnits="userSpaceOnUse" />
    <filter
       inkscape:collect="always"
       id="filter6328"
       x="-0.45562013"
       width="1.9112403"
       y="-0.45562013"
       height="1.9112403">
      <feGaussianBlur
         inkscape:collect="always"
         stdDeviation="74.793062"
         id="feGaussianBlur6330" />
    </filter>
  </defs>
  <sodipodi:namedview
     pagecolor="#ffffff"
     bordercolor="#666666"
     borderopacity="1"
     objecttolerance="10"
     gridtolerance="10"
     guidetolerance="10"
     inkscape:pageopacity="0"
     inkscape:pageshadow="2"
     inkscape:window-width="1529"
     inkscape:window-height="852"
     id="namedview3038"
     showgrid="false"
     inkscape:zoom="0.83"
     inkscape:cx="373.80146"
     inkscape:cy="341.03849"
     inkscape:window-x="0"
     inkscape:window-y="31"
     inkscape:window-maximized="1"
     inkscape:current-layer="svg3036"
     showguides="true"
     inkscape:guide-bbox="true">
    <inkscape:grid
       type="xygrid"
       id="grid5981"
       empspacing="5"
       visible="true"
       enabled="true"
       snapvisiblegridlinesonly="true" />
  </sodipodi:namedview>
  <path
     sodipodi:type="arc"
     style="color:#000000;fill:url(#radialGradient6318);fill-opacity:1;stroke:none;stroke-width:0.99976215000000002;stroke-opacity:1;marker:none;visibility:visible;display:inline;overflow:visible;enable-background:accumulate;stroke-miterlimit:4;stroke-dasharray:none;opacity:1;filter:url(#filter6328)"
     id="path4053-0"
     sodipodi:cx="513.85541"
     sodipodi:cy="315.66266"
     sodipodi:rx="196.98795"
     sodipodi:ry="196.98795"
     d="m 710.84335,315.66266 a 196.98795,196.98795 0 1 1 -393.97589,0 196.98795,196.98795 0 1 1 393.97589,0 z"
     transform="matrix(1.2500759,0,0,1.2928893,-225.90044,-82.622913)" />
  <path
     sodipodi:type="arc"
     style="color:#000000;fill:#ffffff;stroke:#000000;stroke-width:1;stroke-opacity:1;marker:none;visibility:visible;display:inline;overflow:visible;enable-background:accumulate;fill-opacity:1"
     id="path4053"
     sodipodi:cx="513.85541"
     sodipodi:cy="315.66266"
     sodipodi:rx="196.98795"
     sodipodi:ry="196.98795"
     d="m 710.84335,315.66266 a 196.98795,196.98795 0 1 1 -393.97589,0 196.98795,196.98795 0 1 1 393.97589,0 z"
     transform="translate(-95.180724,7.2289156)" />
  <path
     style="fill:none;stroke:#000000;stroke-width:1px;stroke-linecap:butt;stroke-linejoin:miter;stroke-opacity:1"
     d="m 108.43373,325.51807 640.96386,2.40964"
     id="path6335"
     inkscape:connector-curvature="0" />
  <path
     style="fill:none;stroke:#000000;stroke-width:1px;stroke-linecap:butt;stroke-linejoin:miter;stroke-opacity:1"
     d="M 415.25301,593.37349 417.66265,43.975904"
     id="path6337"
     inkscape:connector-curvature="0" />
  <path
     style="color:#000000;fill:#000000;fill-opacity:1;fill-rule:nonzero;stroke:none;stroke-width:1.27100003;marker:none;visibility:visible;display:inline;overflow:visible;enable-background:accumulate"
     id="path6339"
     d="m 111.44578,100.11818 c 0.0709,3.19124 0.0137,6.35652 -0.34692,9.52816 -0.22329,3.14197 -0.67642,6.21885 -1.33909,9.29328 -0.0717,0.38254 0.10425,0.92509 -0.21506,1.14761 -2.60938,1.81843 -1.18798,-6.82424 -1.13465,-7.50058 0.41122,-3.65464 1.25745,-7.22651 2.83465,-10.55238 1.36791,-2.338146 2.72767,-4.744697 4.80629,-6.522426 2.15721,-1.524451 4.02029,-0.731979 5.26613,1.386042 0.83159,2.580098 -0.14867,4.544434 -1.92299,6.380074 -1.47977,1.76905 -4.01084,1.62527 -5.76246,2.85079 0.9755,1.61968 2.24045,3.11423 3.49759,4.54482 2.16534,2.32867 4.39085,4.59835 6.4594,7.01425 0.2722,0.28129 0.54441,0.56258 0.81662,0.84387 0,0 -0.86659,0.83703 -0.86659,0.83703 l 0,0 c -0.28854,-0.29926 -0.57709,-0.59852 -0.86563,-0.89778 -2.06257,-2.41414 -4.29083,-4.67421 -6.44904,-7.00231 -1.03435,-1.1783 -3.73691,-3.85736 -3.6256,-5.56599 0.0186,-0.28598 0.24454,-0.51841 0.36681,-0.77761 1.75378,-1.12339 4.03158,-1.14244 5.56605,-2.68795 1.4091,-1.43249 2.27805,-2.865458 1.73717,-4.946002 -0.80699,-1.507212 -1.88908,-2.129334 -3.44057,-1.058354 -1.97031,1.635141 -3.18382,3.960566 -4.49544,6.119636 -1.52523,3.18725 -2.31502,6.62497 -2.7213,10.12901 -0.0542,0.6876 -0.26067,3.24329 -0.30064,3.98331 -0.0302,0.55974 -0.0551,1.12014 -0.0568,1.68069 -0.001,0.34489 0.22331,0.73619 0.0486,1.03353 -0.179,0.30456 -0.68716,0.73115 -0.9417,0.48619 -0.28821,-0.27736 0.14763,-0.78622 0.22145,-1.17933 0.65435,-3.03579 1.10057,-6.07274 1.31978,-9.17575 0.3566,-3.12626 0.40811,-6.24602 0.33918,-9.39183 0,0 1.20482,0 1.20482,0 z"
     inkscape:connector-curvature="0" />
  <path
     style="color:#000000;fill:#000000;fill-opacity:1;fill-rule:nonzero;stroke:none;stroke-width:1.27100003;marker:none;visibility:visible;display:inline;overflow:visible;enable-background:accumulate"
     id="path6341"
     d="m 124.59324,111.80304 c 2.49732,-1.0798 4.76969,-2.57923 6.03189,-5.04556 0.32016,-1.48256 -1.00959,-1.43981 -2.05281,-1.15037 -1.73049,0.80848 -2.71984,1.97908 -3.33616,3.75413 -0.65514,2.08958 0.18106,3.70429 1.83322,4.96884 1.9985,1.2234 4.08231,0.9835 6.17005,0.16165 1.28492,-0.6006 2.38336,-1.48915 3.48859,-2.35976 0,0 0.74466,0.94714 0.74466,0.94714 l 0,0 c -1.20126,0.94274 -2.39692,1.90043 -3.7997,2.53673 -2.50505,0.94912 -4.99312,1.16423 -7.34944,-0.33955 -2.02296,-1.63187 -3.04612,-3.71404 -2.2225,-6.3189 0.77889,-2.1459 2.04834,-3.62083 4.18912,-4.5216 2.0931,-0.4534 4.11875,0.3705 3.40109,2.88293 -1.45231,2.69713 -3.85209,4.42623 -6.65055,5.60297 0,0 -0.44746,-1.11865 -0.44746,-1.11865 z"
     inkscape:connector-curvature="0" />
  <path
     style="color:#000000;fill:#000000;fill-opacity:1;fill-rule:nonzero;stroke:none;stroke-width:1.271;marker:none;visibility:visible;display:inline;overflow:visible;enable-background:accumulate;stroke-miterlimit:4;stroke-dasharray:none"
     id="path6343"
     d="m 142.52762,106.87708 c -1.76722,-0.55304 -3.64668,-0.23288 -4.64428,1.41729 0.0708,1.18986 2.07898,0.90882 2.8764,0.85543 2.33037,-0.39988 3.82486,-2.11854 5.10123,-3.97092 0.36511,-0.70318 0.69377,-1.16187 0.79691,-1.94935 0.0965,-0.73711 -0.29815,-1.01849 -0.19742,-0.97666 0.3989,0.47668 0.17523,0.33609 0.60418,0.51294 0.17363,3.75149 0.75483,7.47504 1.07476,11.2216 0.29599,5.14104 1.03709,10.52065 -0.94293,15.44371 -0.34931,0.86851 -0.85321,1.66653 -1.27982,2.4998 -2.42198,3.38262 -6.15874,5.78612 -10.4148,5.9658 -0.83219,0.0351 -1.66189,-0.11505 -2.49284,-0.17257 -5.63085,-1.03221 -8.42408,-4.47371 -10.8974,-9.33055 -1.55615,-3.43659 -1.99861,-6.86852 -1.14606,-10.52209 0,0 1.17181,0.28011 1.17181,0.28011 l 0,0 c -0.82567,3.3631 -0.36442,6.52597 1.04879,9.69704 2.25257,4.46139 4.74333,7.6884 9.91358,8.67409 5.18147,0.42785 8.53558,-1.0037 11.74635,-5.14452 0.39962,-0.76715 0.87139,-1.50084 1.19886,-2.30146 1.94938,-4.76606 1.16009,-10.00586 0.89401,-14.98692 -0.33801,-3.96338 -1.18411,-7.97435 -0.91048,-11.93881 0.24923,-0.23332 0.41262,-0.63456 0.7477,-0.69997 1.87345,-0.36576 0.88516,3.96671 0.0746,4.41469 -1.50609,2.15672 -3.28517,4.0727 -6.01641,4.48654 -1.85236,0.1072 -4.64862,-0.14358 -3.95582,-2.7228 1.4623,-2.08816 3.78822,-2.66225 6.18785,-1.83004 0,0 -0.53881,1.07762 -0.53881,1.07762 z"
     inkscape:connector-curvature="0" />
  <path
     style="color:#000000;fill:#000000;fill-opacity:1;fill-rule:nonzero;stroke:none;stroke-width:1.27100003;marker:none;visibility:visible;display:inline;overflow:visible;enable-background:accumulate"
     id="path6345"
     d="m 155.87178,100.36133 c -0.569,3.58484 -0.76421,7.2161 -0.91749,10.83841 -0.0753,2.45049 -0.0438,1.24494 -0.0953,3.6166 0,0 -1.20453,-0.0262 -1.20453,-0.0262 l 0,0 c 0.0519,-2.38715 0.0202,-1.17333 0.0961,-3.64141 0.15566,-3.67158 0.35478,-7.35206 0.93281,-10.98549 0,0 1.18842,0.19807 1.18842,0.19807 z"
     inkscape:connector-curvature="0" />
  <path
     style="color:#000000;fill:#000000;fill-opacity:1;fill-rule:nonzero;stroke:none;stroke-width:1.27100003;marker:none;visibility:visible;display:inline;overflow:visible;enable-background:accumulate"
     id="path6347"
     d="m 164.64959,103.96096 c -2.36974,1.64329 -4.33578,3.74508 -5.8421,6.1939 -0.9779,1.87164 -1.70681,4.00686 0.01,5.6221 1.81835,1.22242 3.24524,0.59094 4.88857,-0.5307 2.54986,-1.80828 3.95427,-4.38743 4.8251,-7.3118 0.28326,-1.81282 0.54879,-4.2719 -1.67748,-4.75968 -2.72321,-0.30335 -4.8607,1.779 -6.6359,3.57324 -1.58215,1.83544 -2.78921,3.89312 -1.84661,6.28148 0.18284,0.2445 0.36569,0.48899 0.54854,0.73349 0,0 -0.98149,0.69877 -0.98149,0.69877 l 0,0 c -0.2328,-0.33932 -0.4656,-0.67864 -0.6984,-1.01797 -1.05525,-3.05403 0.125,-5.18802 2.12261,-7.54427 2.11747,-2.12933 4.62371,-4.37082 7.84953,-3.87505 0.40144,0.14739 0.84101,0.2166 1.20432,0.44218 1.92446,1.19485 1.54102,3.97125 1.26882,5.81424 -0.96436,3.18838 -2.52042,5.99782 -5.30536,7.96424 -2.14589,1.4323 -4.16957,2.03237 -6.4233,0.37455 -2.00062,-2.15925 -1.50932,-4.65443 -0.17357,-7.09867 1.61962,-2.60454 3.70441,-4.85548 6.24684,-6.59317 0,0 0.61987,1.03312 0.61987,1.03312 z"
     inkscape:connector-curvature="0" />
  <path
     style="color:#000000;fill:#000000;fill-opacity:1;fill-rule:nonzero;stroke:none;stroke-width:1.27100003;marker:none;visibility:visible;display:inline;overflow:visible;enable-background:accumulate"
     id="path6349"
     d="m 174.94937,101.44828 c -1.40799,3.19905 -1.60913,6.77829 -1.64262,10.22817 -1.89749,-0.72887 0.84531,1.8931 0.199,1.93226 -1.24021,0.0751 0.59679,-3.60186 0.68589,-3.84737 1.37694,-3.63176 2.8614,-7.3237 5.17174,-10.473524 3.04519,-2.245047 2.98954,3.150024 3.09936,4.929074 0.10696,3.15293 1.01367,5.89004 2.61131,8.56239 0.23581,0.29798 0.47163,0.59597 0.70744,0.89395 0,0 -0.94793,0.74365 -0.94793,0.74365 l 0,0 c -0.26462,-0.33993 -0.52924,-0.67985 -0.79386,-1.01978 -1.69404,-2.83857 -2.65733,-5.7659 -2.77952,-9.10646 -0.0127,-0.20836 -0.40293,-4.568076 -0.4386,-4.562118 -0.18422,0.03077 -0.32569,0.182917 -0.48854,0.274378 -2.2577,3.04332 -3.65848,6.65691 -5.00892,10.16963 -0.28948,0.79694 -0.90676,3.67923 -1.94462,4.03193 -1.56392,0.53149 -1.20402,-2.01875 -1.2775,-2.54099 0.0428,-3.63278 0.26558,-7.39327 1.76975,-10.754 0,0 1.07762,0.53881 1.07762,0.53881 z"
     inkscape:connector-curvature="0" />
  <path
     style="color:#000000;fill:#000000;fill-opacity:1;fill-rule:nonzero;stroke:none;stroke-width:1.27100003;marker:none;visibility:visible;display:inline;overflow:visible;enable-background:accumulate"
     id="path6351"
     d="m 209.33149,102.63427 c -2.38464,1.24687 -4.09185,3.34371 -4.97143,5.85973 -0.31155,1.60433 0.54601,3.14809 2.30777,2.80416 1.64887,-0.86792 1.918,-2.83035 2.17428,-4.50296 0.46261,-2.47059 2.42255,-4.17978 3.98864,-6.01809 2.72338,-3.023573 4.44958,-6.498066 5.60365,-10.365303 0.34595,-2.852397 2.12049,-7.401067 0.80344,-10.173933 0.0589,0.152455 0.19634,0.295087 0.1768,0.457364 -0.0955,0.792619 -0.67055,1.451597 -0.93664,2.204294 -0.2729,0.771939 -0.52543,1.551883 -0.74287,2.341237 -0.46578,1.690916 -1.06855,4.607937 -1.42486,6.255393 -1.22971,6.372431 -2.1532,12.851598 -2.15259,19.351598 0.28123,2.92393 0.46145,6.14703 3.20078,7.78771 0,0 -0.63954,1.02107 -0.63954,1.02107 l 0,0 c -3.19916,-2.07184 -3.43678,-5.24938 -3.76606,-8.80943 0.008,-6.58559 0.92627,-13.14964 2.17983,-19.605698 0.42633,-1.970208 1.85151,-10.85497 4.0527,-11.728982 0.37051,-0.147115 0.77738,0.177086 1.16607,0.26563 1.30663,3.469196 -0.21604,7.505137 -0.76296,10.979654 -1.21088,4.023379 -3.00694,7.651604 -5.84062,10.800716 -1.41443,1.66029 -3.24989,3.21248 -3.71523,5.42169 -0.35336,2.24706 -0.86591,4.6302 -3.23469,5.51581 -2.85278,0.17568 -4.02928,-1.70265 -3.57123,-4.41077 1.03418,-2.79384 2.87867,-5.14295 5.56595,-6.52851 0,0 0.53881,1.07762 0.53881,1.07762 z"
     inkscape:connector-curvature="0" />
  <path
     style="color:#000000;fill:#000000;fill-opacity:1;fill-rule:nonzero;stroke:none;stroke-width:1.27100003;marker:none;visibility:visible;display:inline;overflow:visible;enable-background:accumulate"
     id="path6353"
     d="m 212.65064,104.68686 c 3.5701,-0.59084 7.18285,-0.79995 10.77046,-1.2747 2.61722,-0.34033 1.33379,-0.18111 3.85006,-0.47944 0,0 0.14183,1.19644 0.14183,1.19644 l 0,0 c -2.50185,0.29652 -1.22382,0.13802 -3.83386,0.47741 -3.56149,0.47111 -7.14726,0.68249 -10.69221,1.26171 0,0 -0.23628,-1.18142 -0.23628,-1.18142 z"
     inkscape:connector-curvature="0" />
  <path
     style="color:#000000;fill:#000000;fill-opacity:1;fill-rule:nonzero;stroke:none;stroke-width:1.27100003;marker:none;visibility:visible;display:inline;overflow:visible;enable-background:accumulate"
     id="path6355"
     d="m 111.44578,143.49167 c -0.15702,3.21923 0.17228,6.40182 0.54161,9.5933 0.26021,1.94925 0.30114,3.91564 0.66186,5.84881 0,0 -1.18498,0.21776 -1.18498,0.21776 l 0,0 c -0.3555,-1.96171 -0.42304,-3.95028 -0.67371,-5.92807 -0.37457,-3.23718 -0.70567,-6.46671 -0.5496,-9.7318 0,0 1.20482,0 1.20482,0 z"
     inkscape:connector-curvature="0" />
  <path
     style="color:#000000;fill:#000000;fill-opacity:1;fill-rule:nonzero;stroke:none;stroke-width:1.27100003;marker:none;visibility:visible;display:inline;overflow:visible;enable-background:accumulate"
     id="path6357"
     d="m 118.6747,144.84061 c 0,3.05633 0,6.11266 0,9.16899 0,1.26345 0,2.52691 0,3.79036 0,0.24672 0.24294,0.78317 0,0.74015 -0.41347,-0.0732 -0.80321,-0.24522 -1.20482,-0.36784 -0.1374,-2.7407 0.46091,-5.41648 1.08485,-8.06497 0.89096,-2.2143 1.11598,-5.61282 3.49023,-6.76231 0.34468,0.14319 0.74701,0.19099 1.03405,0.42956 1.29769,1.07855 1.37412,4.9861 1.48672,6.53591 0.11822,2.04749 0.0708,4.09219 0.29212,6.13137 0,0 -1.19801,0.1279 -1.19801,0.1279 l 0,0 c -0.21585,-2.05382 -0.18755,-4.11049 -0.2958,-6.17247 -0.1,-1.39274 -0.19583,-2.78044 -0.4951,-4.14854 -0.11249,-0.51419 -0.39206,-0.98301 -0.49716,-1.49876 -0.0185,-0.0906 0.048,-0.1787 0.0719,-0.26804 -0.99641,-0.0984 -2.41162,5.00669 -2.71628,5.90174 -0.6031,2.55822 -1.19063,5.14074 -1.05272,7.78861 -0.40161,0.12262 -0.79135,0.29462 -1.20482,0.36784 -0.24294,0.043 0,-0.49343 0,-0.74015 0,-1.26345 0,-2.52691 0,-3.79036 0,-3.05633 0,-6.11266 0,-9.16899 0,0 1.20482,0 1.20482,0 z"
     inkscape:connector-curvature="0" />
  <path
     style="color:#000000;fill:#000000;fill-opacity:1;fill-rule:nonzero;stroke:none;stroke-width:1.27100003;marker:none;visibility:visible;display:inline;overflow:visible;enable-background:accumulate"
     id="path6359"
     d="m 140.11798,144.22648 c -2.22992,-0.97981 -4.62033,-1.6169 -7.0591,-1.64267 -2.47703,0.29375 -1.72658,1.76404 -0.76059,3.34393 1.73478,2.6615 3.79301,5.12077 5.12897,8.0187 0.79872,2.67519 -1.11904,3.96943 -3.39991,4.65024 -2.49777,0.2892 -4.66787,-0.82029 -6.32854,-2.61009 -0.20999,-0.33911 -0.41997,-0.67822 -0.62996,-1.01734 0,0 1.03022,-0.6247 1.03022,-0.6247 l 0,0 c 0.16371,0.27716 0.32742,0.55432 0.49113,0.83148 1.30352,1.47021 3.09324,2.41071 5.10032,2.26387 1.55056,-0.43794 3.14483,-1.07719 2.64088,-2.99279 -1.29592,-2.86541 -3.38592,-5.2601 -5.06632,-7.89962 -1.52834,-2.58968 -1.79506,-4.68871 1.81344,-5.16834 2.62012,0.0558 5.18568,0.6931 7.57827,1.76971 0,0 -0.53881,1.07762 -0.53881,1.07762 z"
     inkscape:connector-curvature="0" />
  <path
     style="color:#000000;fill:#000000;fill-opacity:1;fill-rule:nonzero;stroke:none;stroke-width:1.27100003;marker:none;visibility:visible;display:inline;overflow:visible;enable-background:accumulate"
     id="path6361"
     d="m 145.02491,142.40499 c -0.53914,3.19963 -0.89046,6.45763 -0.76972,9.70318 0.27837,3.10299 2.12543,4.92246 4.8958,6.03093 2.72961,0.62258 5.26829,0.16955 7.39772,-1.65435 0,0 0.77301,0.92414 0.77301,0.92414 l 0,0 c -2.52104,2.06809 -5.44693,2.64541 -8.62732,1.84516 -3.19276,-1.33333 -5.33599,-3.50579 -5.64327,-7.10316 -0.11315,-3.33976 0.22759,-6.69043 0.79235,-9.98218 0,0 1.18143,0.23628 1.18143,0.23628 z"
     inkscape:connector-curvature="0" />
  <path
     style="color:#000000;fill:#000000;fill-opacity:1;fill-rule:nonzero;stroke:none;stroke-width:1.27100003;marker:none;visibility:visible;display:inline;overflow:visible;enable-background:accumulate"
     id="path6363"
     d="m 134.45553,146.98795 c 4.04349,-0.46203 8.09196,-0.83716 12.13274,-1.32518 3.67535,-0.47004 7.37014,-0.75059 11.06899,-0.94591 0,0 0.0635,1.20314 0.0635,1.20314 l 0,0 c -3.67181,0.19364 -7.33957,0.47219 -10.98802,0.9389 -4.08854,0.49378 -8.18451,0.87863 -12.2772,1.33387 0,0 0,-1.20482 0,-1.20482 z"
     inkscape:connector-curvature="0" />
  <path
     style="color:#000000;fill:#000000;fill-opacity:1;fill-rule:nonzero;stroke:none;stroke-width:1.27100003;marker:none;visibility:visible;display:inline;overflow:visible;enable-background:accumulate"
     id="path6365"
     d="m 163.25298,144.71073 c -2.65116,0.26014 -4.74297,1.42599 -6.50187,3.37247 -0.92074,1.27541 -1.68692,3.00935 -0.20174,4.11259 1.91488,0.95827 3.67577,-0.43133 5.08478,-1.6436 1.98087,-1.72534 3.27666,-3.96173 4.43843,-6.27396 1.98025,-2.987 2.00095,1.74604 2.02578,2.7825 -0.046,2.43697 0.50469,4.84545 1.50001,7.06092 0,0 -1.10117,0.48889 -1.10117,0.48889 l 0,0 c -1.04084,-2.36907 -1.65631,-4.92002 -1.60332,-7.52127 -0.0134,-0.57138 -0.26913,-2.45088 -0.12907,-2.59378 0.16481,-0.16815 0.83574,-0.3383 0.68938,-0.15387 -0.11741,0.14796 -0.20336,0.31836 -0.30505,0.47753 -1.2341,2.4561 -2.62912,4.81946 -4.7327,6.64935 -1.90378,1.61414 -4.19982,3.07915 -6.65016,1.64291 -1.886,-1.74598 -1.35271,-3.92218 0.0955,-5.84104 1.94754,-2.10986 4.24671,-3.44872 7.15491,-3.74106 0,0 0.23629,1.18142 0.23629,1.18142 z"
     inkscape:connector-curvature="0" />
  <path
     style="color:#000000;fill:#000000;fill-opacity:1;fill-rule:nonzero;stroke:none;stroke-width:1.27100003;marker:none;visibility:visible;display:inline;overflow:visible;enable-background:accumulate"
     id="path6367"
     d="m 172.73575,131.56162 c -0.57663,3.37301 -0.76484,6.79384 -0.91403,10.20728 -0.11905,3.36928 -0.13593,6.74095 -0.14297,10.11196 -0.0475,0.65839 0.50273,3.31044 -1.20109,1.1806 -0.44257,-0.55323 0.75977,-2.32935 1.0859,-2.96952 1.25567,-1.77188 4.41237,-6.39041 7.15233,-5.73892 0.36399,0.0866 0.63699,0.39266 0.95549,0.58898 1.1042,3.02904 -1.1123,5.73838 -3.15966,7.76579 -2.00256,1.57004 -4.43989,2.8982 -6.84735,1.52774 0,0 0.64261,-1.01913 0.64261,-1.01913 l 0,0 c 1.70038,1.27774 3.93613,-0.35162 5.36014,-1.36781 1.6688,-1.62699 3.17152,-3.52376 3.25825,-5.96051 -1.27961,-2.00988 -5.75516,3.85723 -6.30568,4.78366 -0.31187,0.51697 -0.71549,0.98871 -0.9356,1.55091 -0.10243,0.2616 0.17406,0.62358 -0.002,0.84281 -1.71128,2.13559 -1.16145,-0.51914 -1.20854,-1.18712 0.007,-3.38773 0.0242,-6.77611 0.14412,-10.16209 0.15213,-3.47504 0.34533,-6.95763 0.93628,-10.39091 0,0 1.18142,0.23628 1.18142,0.23628 z"
     inkscape:connector-curvature="0" />
  <path
     style="color:#000000;fill:#000000;fill-opacity:1;fill-rule:nonzero;stroke:none;stroke-width:1.27100003;marker:none;visibility:visible;display:inline;overflow:visible;enable-background:accumulate"
     id="path6369"
     d="m 184.93976,143.49167 c 0,2.92982 0,5.85963 0,8.78945 0,0.51249 0,1.02498 0,1.53747 0,0 -1.20482,0 -1.20482,0 l 0,0 c 0,-0.51249 0,-1.02498 0,-1.53747 0,-2.92982 0,-5.85963 0,-8.78945 0,0 1.20482,0 1.20482,0 z"
     inkscape:connector-curvature="0" />
  <path
     style="color:#000000;fill:#000000;fill-opacity:1;fill-rule:nonzero;stroke:none;stroke-width:1.27100003;marker:none;visibility:visible;display:inline;overflow:visible;enable-background:accumulate"
     id="path6371"
     d="m 189.75904,127.82902 c 0,4.46467 0,8.92933 0,13.394 0,4.75754 0,9.51509 0,14.27263 0,0 -1.20482,0 -1.20482,0 l 0,0 c 0,-4.75754 0,-9.51509 0,-14.27263 0,-4.46467 0,-8.92933 0,-13.394 0,0 1.20482,0 1.20482,0 z"
     inkscape:connector-curvature="0" />
  <path
     style="color:#000000;fill:#000000;fill-opacity:1;fill-rule:nonzero;stroke:none;stroke-width:1.27100003;marker:none;visibility:visible;display:inline;overflow:visible;enable-background:accumulate"
     id="path6373"
     d="m 196.83564,138.91555 c -0.5631,3.53794 -0.75423,7.12173 -0.91759,10.69631 -0.075,2.18403 -0.0437,1.11242 -0.0953,3.2148 0,0 -1.20446,-0.0296 -1.20446,-0.0296 l 0,0 c 0.0521,-2.11872 0.0204,-1.03863 0.0962,-3.24023 0.16574,-3.6225 0.36083,-7.25417 0.93272,-10.83936 0,0 1.18843,0.19808 1.18843,0.19808 z"
     inkscape:connector-curvature="0" />
  <path
     style="color:#000000;fill:#000000;fill-opacity:1;fill-rule:nonzero;stroke:none;stroke-width:1.27100003;marker:none;visibility:visible;display:inline;overflow:visible;enable-background:accumulate"
     id="path6375"
     d="m 204.06105,137.58572 c -0.61554,3.32776 -0.76912,6.71912 -0.91401,10.09345 -0.0814,2.69805 -0.59703,5.69688 1.45351,7.78709 2.01244,1.40171 4.15475,1.02736 6.31306,0.22382 1.6434,-0.77906 2.83823,-1.99396 3.86885,-3.45292 0,0 0.97991,0.70098 0.97991,0.70098 l 0,0 c -1.19029,1.64589 -2.55129,3.0234 -4.43456,3.88332 -2.63657,0.95093 -5.24085,1.269 -7.60807,-0.53315 -2.20378,-2.44967 -1.96716,-5.53944 -1.77641,-8.66086 0.14778,-3.43629 0.30659,-6.88962 0.9363,-10.27802 0,0 1.18142,0.23629 1.18142,0.23629 z"
     inkscape:connector-curvature="0" />
  <path
     style="color:#000000;fill:#000000;fill-opacity:1;fill-rule:nonzero;stroke:none;stroke-width:1.27100003;marker:none;visibility:visible;display:inline;overflow:visible;enable-background:accumulate"
     id="path6377"
     d="m 200.60244,143.24108 c 3.115,-0.36257 6.15917,-1.11731 9.24537,-1.6537 0.48611,-0.0693 0.97223,-0.13858 1.45834,-0.20786 0,0 0.16978,1.19279 0.16978,1.19279 l 0,0 c -0.47398,0.0674 -0.94796,0.13474 -1.42195,0.20212 -3.07615,0.5339 -6.11023,1.28847 -9.21525,1.64807 0,0 -0.23629,-1.18142 -0.23629,-1.18142 z"
     inkscape:connector-curvature="0" />
  <path
     style="color:#000000;fill:#000000;fill-opacity:1;fill-rule:nonzero;stroke:none;stroke-width:1.27100003;marker:none;visibility:visible;display:inline;overflow:visible;enable-background:accumulate"
     id="path6379"
     d="m 214.90443,141.20017 c -0.48789,2.79654 -0.78551,5.71774 0.26088,8.41292 0.94351,1.76347 2.44946,2.82178 4.45617,2.48845 1.95137,-0.79966 2.7938,-2.56403 3.36031,-4.46877 0.45912,-1.9841 0.50502,-4.02917 0.54695,-6.05609 1.63344,-2.76075 3.11945,5.61709 3.21975,6.04066 1.74442,7.26074 2.22156,14.74292 2.31829,22.18471 -0.22715,7.21764 -2.29943,14.37156 -7.84575,19.32427 -0.99041,0.88441 -2.13697,1.57664 -3.20546,2.36496 -5.4448,3.18656 -11.82796,4.25485 -17.92387,2.2878 -1.1216,-0.36192 -2.16547,-0.93094 -3.2482,-1.3964 -4.02055,-2.55612 -2.1553,-0.96482 -5.47829,-4.90826 0,0 0.92683,-0.7698 0.92683,-0.7698 l 0,0 c 2.99134,3.65947 1.2857,2.1675 5.03066,4.57263 1.0107,0.44203 1.98397,0.98213 3.03211,1.32609 5.75297,1.8879 11.78985,0.90821 16.94794,-2.08338 1.01329,-0.73941 2.09946,-1.3881 3.03985,-2.21823 5.34028,-4.71415 7.29572,-11.58034 7.51946,-18.48425 -0.0928,-7.35369 -0.56394,-14.74801 -2.28608,-21.923 -0.3918,-1.66079 -0.79987,-3.32451 -1.32477,-4.94989 -0.0902,-0.27945 -0.4267,-0.55037 -0.31598,-0.82236 0.0952,-0.23376 0.48736,-0.13147 0.73104,-0.19721 0.0223,-0.10779 0.0447,-0.21558 0.067,-0.32337 -0.0444,2.13627 -0.0982,4.29154 -0.59818,6.37957 -0.72358,2.36257 -1.86968,4.46991 -4.35164,5.3142 -2.59415,0.29693 -4.55427,-0.91789 -5.74586,-3.25816 -1.07401,-2.93268 -0.88173,-6.03691 -0.31462,-9.07337 0,0 1.18143,0.23628 1.18143,0.23628 z"
     inkscape:connector-curvature="0" />
  <path
     style="color:#000000;fill:#000000;fill-opacity:1;fill-rule:nonzero;stroke:none;stroke-width:1.27100003;marker:none;visibility:visible;display:inline;overflow:visible;enable-background:accumulate"
     id="path6381"
     d="m 418.34338,43.715399 c -1.22411,3.997879 -2.74268,7.895036 -4.12992,11.838122 -1.6633,4.500011 -3.10305,9.077001 -4.67887,13.607948 0,0 -1.13796,-0.395776 -1.13796,-0.395776 l 0,0 c 1.57632,-4.532286 3.01645,-9.110675 4.68029,-13.612025 1.3929,-3.959135 2.91551,-7.872525 4.14781,-11.885727 0,0 1.11865,0.447458 1.11865,0.447458 z"
     inkscape:connector-curvature="0" />
  <path
     style="color:#000000;fill:#000000;fill-opacity:1;fill-rule:nonzero;stroke:none;stroke-width:1.27100003;marker:none;visibility:visible;display:inline;overflow:visible;enable-background:accumulate"
     id="path6383"
     d="m 417.6023,43.373528 c 0.87905,4.026983 2.15752,7.9226 3.64137,11.763026 1.59543,4.575222 3.33449,9.096195 5.09936,13.607562 0.24509,0.560249 0.49019,1.120497 0.73528,1.680745 0,0 -1.10394,0.482608 -1.10394,0.482608 l 0,0 c -0.25112,-0.574808 -0.50224,-1.149616 -0.75336,-1.724424 -1.76542,-4.513009 -3.50566,-9.03541 -5.10125,-13.61241 -1.50761,-3.904942 -2.80588,-7.866484 -3.69888,-11.960823 0,0 1.18142,-0.236284 1.18142,-0.236284 z"
     inkscape:connector-curvature="0" />
  <path
     style="color:#000000;fill:#000000;fill-opacity:1;fill-rule:nonzero;stroke:none;stroke-width:1.27100003;marker:none;visibility:visible;display:inline;overflow:visible;enable-background:accumulate"
     id="path6385"
     d="m 726.13993,320.63774 c 2.7803,0.37552 5.48249,1.13298 8.23686,1.64953 2.56636,0.70158 5.16667,1.238 7.72985,1.94768 2.31729,0.66401 4.71569,0.87943 7.11204,1.00324 1.07138,-0.059 2.09768,0.14666 3.11742,0.4394 0,0 -0.33953,1.15598 -0.33953,1.15598 l 0,0 c -0.92851,-0.28037 -1.86066,-0.44939 -2.84027,-0.39218 -2.48391,-0.12921 -4.96934,-0.35724 -7.37116,-1.0453 -2.53049,-0.70066 -5.09799,-1.22812 -7.63066,-1.92468 -2.75898,-0.51853 -5.46592,-1.27505 -8.25083,-1.65224 0,0 0.23628,-1.18143 0.23628,-1.18143 z"
     inkscape:connector-curvature="0" />
  <path
     style="color:#000000;fill:#000000;fill-opacity:1;fill-rule:nonzero;stroke:none;stroke-width:1.27100003;marker:none;visibility:visible;display:inline;overflow:visible;enable-background:accumulate"
     id="path6387"
     d="m 722.45241,336.00866 c 3.11946,-0.70662 6.16513,-1.6864 9.2688,-2.44812 2.94122,-0.5847 5.84818,-1.32993 8.71863,-2.19421 2.45821,-0.95225 4.89002,-1.96795 7.32026,-2.98924 1.18634,-0.53416 2.43402,-0.88118 3.68802,-1.20906 0,0 0.30364,1.16593 0.30364,1.16593 l 0,0 c -1.19925,0.31098 -2.39161,0.64247 -3.52526,1.15401 -2.46974,1.03595 -4.93832,2.0733 -7.4393,3.03202 -2.89048,0.87029 -5.8177,1.62154 -8.77929,2.21076 -3.13338,0.76632 -6.2063,1.76233 -9.35742,2.46633 0,0 -0.19808,-1.18842 -0.19808,-1.18842 z"
     inkscape:connector-curvature="0" />
  <path
     style="color:#000000;fill:#000000;fill-opacity:1;fill-rule:nonzero;stroke:none;stroke-width:1.27100003;marker:none;visibility:visible;display:inline;overflow:visible;enable-background:accumulate"
     id="path6389"
     d="m 445.02841,30.481811 c -0.57697,4.029237 -0.76906,8.100844 -0.91736,12.164423 -0.12686,4.369778 -0.13611,8.741837 -0.14315,13.113111 -7e-4,2.190107 -8.1e-4,1.11901 2.2e-4,3.21329 0,0 -1.20482,5.91e-4 -1.20482,5.91e-4 l 0,0 c -0.001,-2.095774 -9.1e-4,-1.023833 -2.2e-4,-3.215821 0.007,-4.385287 0.0164,-8.771363 0.14396,-13.155143 0.1504,-4.115167 0.34588,-8.238479 0.93294,-12.318522 0,0 1.18843,0.198071 1.18843,0.198071 z"
     inkscape:connector-curvature="0" />
  <path
     style="color:#000000;fill:#000000;fill-opacity:1;fill-rule:nonzero;stroke:none;stroke-width:1.27100003;marker:none;visibility:visible;display:inline;overflow:visible;enable-background:accumulate"
     id="path6391"
     d="m 448.79518,44.696489 c 0,3.087022 0,6.174043 0,9.261065 0,0.994764 0,1.989528 0,2.984292 0,0.278593 0,0.557187 0,0.83578 0,0.117418 0.10523,0.404357 0,0.352255 -1.41296,-0.69962 -1.06915,-0.765486 -0.85244,-1.983034 0.73862,-3.564161 2.30061,-6.87305 3.75358,-10.186338 1.00639,-2.614113 2.61131,-3.815341 3.03686,-0.08139 0.15422,2.784187 0.12055,5.574956 0.11164,8.36228 0.40062,2.815227 0.52332,2.116748 1.64979,0.623994 1.64893,-2.620869 3.09826,-5.371265 4.85959,-7.919012 2.35194,-2.746941 3.18305,1.689482 3.70123,3.391395 0.9059,3.540271 1.87179,7.047801 3.50672,10.326113 0.29237,0.437954 0.58475,0.875909 0.87713,1.313863 0,0 -1.004,0.666011 -1.004,0.666011 l 0,0 c -0.31731,-0.481133 -0.63462,-0.962267 -0.95192,-1.443401 -1.65733,-3.341708 -2.66683,-6.903267 -3.58054,-10.511743 -0.26825,-0.8815 -0.49026,-1.777094 -0.77602,-2.653075 -0.0765,-0.234409 -0.25293,-0.43946 -0.2804,-0.684491 -0.0241,-0.214485 0.64126,-0.930325 -0.50179,0.281385 -1.78005,2.564352 -3.22075,5.349374 -4.90321,7.978056 -2.10284,2.589361 -3.59484,1.739668 -3.80139,-1.372949 0.009,-2.742327 0.0406,-5.487782 -0.10449,-8.227288 -0.0894,-0.857023 -0.45664,-1.279077 0.45468,-1.50945 0.0686,-0.01733 -0.14629,0.03782 -0.19087,0.09274 -0.39417,0.485619 -0.755,1.34646 -0.99962,1.850841 -1.41483,3.226131 -2.94174,6.445753 -3.6708,9.913631 -0.22408,1.258423 0.0604,1.418816 -1.53855,1.771862 -0.11466,0.02532 0,-0.234837 0,-0.352255 0,-0.278593 0,-0.557187 0,-0.83578 0,-0.994764 0,-1.989528 0,-2.984292 0,-3.087022 0,-6.174043 0,-9.261065 0,0 1.20482,0 1.20482,0 z"
     inkscape:connector-curvature="0" />
  <path
     style="color:#000000;fill:#000000;fill-opacity:1;fill-rule:nonzero;stroke:none;stroke-width:1.27100003;marker:none;visibility:visible;display:inline;overflow:visible;enable-background:accumulate"
     id="path6393"
     d="m 494.57831,37.231222 c -0.17172,-2.357741 -1.61558,-3.491249 -3.82492,-3.891213 -3.75293,0.04206 -6.50715,2.694639 -8.63771,5.50649 -2.34735,3.791343 -2.93578,7.927676 -2.1002,12.241057 0.92354,3.625557 3.55677,5.675709 6.8751,7.009199 2.46367,0.535925 5.75088,0.113893 7.04131,-2.321494 0.0231,-2.841258 -3.32506,-4.193513 -5.47219,-5.270843 -0.95851,-0.511635 -5.77238,-1.570887 -3.0958,-3.246612 0.35036,-0.219348 0.80403,-0.192322 1.20605,-0.288482 4.78373,-0.743426 9.62875,-0.892338 14.43946,-1.420309 2.96611,-0.329721 1.52331,-0.174645 4.3282,-0.466916 0,0 0.12486,1.198333 0.12486,1.198333 l 0,0 c -2.7972,0.29143 -1.35659,0.136611 -4.32165,0.466214 -4.76191,0.522388 -9.55606,0.678345 -14.29356,1.395148 -1.54592,0.361061 -0.81861,0.571201 -1.3162,-0.386812 -0.10234,-0.197032 0.32008,0.319466 0.51976,0.416534 0.96115,0.467234 1.99616,0.772197 2.94972,1.256293 2.80044,1.408414 6.65127,3.221235 5.96398,6.968152 -0.24805,0.381485 -0.42576,0.819354 -0.74414,1.144454 -1.96645,2.00794 -5.22111,2.274644 -7.78258,1.672844 -3.69555,-1.511071 -6.5936,-3.858675 -7.6059,-7.900437 -0.90042,-4.809545 -0.26212,-8.972923 2.32615,-13.197441 2.4419,-3.176372 5.57023,-6.048169 9.8344,-5.956236 2.75157,0.603186 4.60477,2.103831 4.79068,5.072077 0,0 -1.20482,0 -1.20482,0 z"
     inkscape:connector-curvature="0" />
  <path
     style="color:#000000;fill:#000000;fill-opacity:1;fill-rule:nonzero;stroke:none;stroke-width:1.27100003;marker:none;visibility:visible;display:inline;overflow:visible;enable-background:accumulate"
     id="path6395"
     d="m 772.73575,314.69415 c -0.71462,3.51153 -1.41604,7.02572 -2.1421,10.53628 -0.62611,3.26124 -1.4702,6.47127 -2.12954,9.72681 -0.0552,0.21981 0.0556,0.6097 -0.16547,0.65943 -0.4331,0.0974 -0.96818,-0.026 -1.28968,-0.33212 -0.26081,-0.24833 -0.18398,-4.83517 -0.18546,-5.31408 -0.12306,-3.97454 0.47683,-7.85493 1.98545,-11.52814 1.53044,-3.3006 4.29493,-5.60957 7.42952,-7.31364 2.70516,-1.32937 5.28725,-1.45538 7.7431,0.36779 1.72741,1.95449 1.85772,3.62544 0.089,5.54197 -1.87947,1.55589 -4.2751,1.88704 -6.62155,2.11895 -2.0511,0.12082 -3.74524,0.0578 -3.61298,2.51481 0.85675,3.12157 2.87843,5.75995 4.70996,8.37406 1.78315,2.39607 3.72959,4.93094 6.61164,6.00007 0,0 -0.43031,1.12536 -0.43031,1.12536 l 0,0 c -3.09651,-1.21317 -5.25694,-3.79333 -7.16814,-6.43421 -1.96745,-2.80949 -4.15904,-5.65548 -4.92796,-9.06165 0.0991,-3.27811 1.81516,-3.56187 4.70014,-3.7175 2.05275,-0.19984 4.18095,-0.44664 5.86569,-1.74969 1.28856,-1.3046 1.24579,-2.30145 0.0509,-3.75646 -2.00727,-1.60989 -4.19453,-1.33943 -6.43652,-0.26364 -2.89602,1.556 -5.46464,3.68135 -6.88887,6.71362 -1.46193,3.5202 -2.0077,7.25286 -1.89425,11.06461 0.004,1.39985 -0.004,2.80051 0.066,4.19912 0.0119,0.23825 0.20225,0.5307 0.0495,0.71394 -0.23601,0.28314 -0.65118,0.51056 -1.01344,0.44246 -0.20418,-0.0384 0.10196,-0.40281 0.15293,-0.60422 0.6597,-3.25721 1.50369,-6.46892 2.13055,-9.73169 0.72561,-3.50795 1.42742,-7.01941 2.14052,-10.52852 0,0 1.18142,0.23628 1.18142,0.23628 z"
     inkscape:connector-curvature="0" />
  <path
     style="color:#000000;fill:#000000;fill-opacity:1;fill-rule:nonzero;stroke:none;stroke-width:1.27100003;marker:none;visibility:visible;display:inline;overflow:visible;enable-background:accumulate"
     id="path6397"
     d="m 787.46757,326.50602 c 2.82369,-0.30658 5.66406,-0.57403 8.3197,-1.63422 1.67335,-1.07282 2.06559,-1.79737 0.10017,-2.51168 -2.69115,-0.73681 -5.39535,-0.76493 -7.98306,0.29393 -1.9731,1.18659 -2.78507,3.08176 -2.39365,5.30379 1.48109,2.423 4.5561,3.21344 7.14798,3.86922 2.69784,0.4413 5.15759,-0.0365 7.61071,-1.14124 0,0 0.49063,1.10039 0.49063,1.10039 l 0,0 c -2.71049,1.19761 -5.43037,1.72138 -8.3982,1.20853 -3.06853,-0.78366 -6.56763,-1.77769 -8.04147,-4.85075 -0.39672,-2.80898 0.60351,-5.16533 3.1365,-6.60856 2.8989,-1.13718 5.90197,-1.16417 8.89725,-0.28607 2.92484,1.34046 2.44406,3.25431 -0.12507,4.74333 -2.80463,1.0929 -5.78079,1.42833 -8.76149,1.71815 0,0 0,-1.20482 0,-1.20482 z"
     inkscape:connector-curvature="0" />
  <path
     style="color:#000000;fill:#000000;fill-opacity:1;fill-rule:nonzero;stroke:none;stroke-width:1.27100003;marker:none;visibility:visible;display:inline;overflow:visible;enable-background:accumulate"
     id="path6399"
     d="m 825.67898,314.75318 c -1.38451,-2.17207 -2.67233,-2.77817 -5.17821,-2.34228 -3.57063,1.0881 -5.88733,3.81552 -7.8018,6.86059 -1.63566,3.31414 -2.46976,6.97688 -1.93679,10.64794 0.38495,2.52969 1.65651,4.34733 3.93453,5.4508 2.25617,0.53579 4.00795,-0.74032 5.20606,-2.53389 1.349,-2.45359 -0.027,-4.25644 -1.90388,-5.85509 -0.53108,-0.43847 -5.14795,-2.47102 -3.49361,-3.79391 0.31746,-0.25386 0.80681,-0.0999 1.21021,-0.14979 3.14991,0.27036 6.24621,0.87406 9.35423,1.42643 1.6026,0.3004 3.22658,0.44297 4.84839,0.58783 0,0 -0.10738,1.20003 -0.10738,1.20003 l 0,0 c -1.65642,-0.14847 -3.31499,-0.29508 -4.95185,-0.60163 -3.04459,-0.54119 -6.07684,-1.13239 -9.1612,-1.40797 -0.39151,-0.18256 -0.58638,-0.16398 -0.56921,-0.76715 0.003,-0.11506 0.11951,0.20155 0.2069,0.27648 0.24119,0.2068 0.50823,0.38172 0.77027,0.56137 0.39106,0.2681 2.34007,1.53459 2.68129,1.75694 2.32655,2.03807 3.80907,4.44655 2.10974,7.44745 -1.59194,2.27644 -3.87623,3.74873 -6.73541,2.9322 -2.61677,-1.32376 -4.14779,-3.42193 -4.59228,-6.36316 -0.53597,-3.9632 0.30481,-7.89172 2.11111,-11.45791 2.1125,-3.33525 4.69451,-6.27945 8.63184,-7.40749 3.06472,-0.44884 4.7972,0.33752 6.44467,2.9934 0,0 -1.07762,0.53881 -1.07762,0.53881 z"
     inkscape:connector-curvature="0" />
  <path
     style="color:#000000;fill:#000000;fill-opacity:1;fill-rule:nonzero;stroke:none;stroke-width:1.27100003;marker:none;visibility:visible;display:inline;overflow:visible;enable-background:accumulate"
     id="path6401"
     d="m 316.52321,493.21555 c -4.86444,4.12006 -8.93905,9.0721 -12.98685,13.96897 -7.53047,9.27862 -14.70377,18.83586 -21.98235,28.31035 -7.68893,9.80978 -15.12102,19.81835 -22.91716,29.54348 -4.30012,5.28038 -8.20741,10.86974 -12.65286,16.03194 -1.64074,1.7819 -3.13066,1.45089 -2.51216,-1.1396 0,0 1.16293,0.31496 1.16293,0.31496 l 0,0 c -0.0972,0.30085 -0.70128,1.90691 -0.75089,0.8544 -0.0226,-0.47975 2.26436,0.70046 1.18738,-0.8162 4.43891,-5.14899 8.33046,-10.73306 12.62556,-15.9991 7.79119,-9.71845 15.21763,-19.7209 22.90177,-29.52387 7.2874,-9.48581 14.46924,-19.05459 22.00917,-28.344 4.10065,-4.96009 8.23082,-9.97359 13.16281,-14.14214 0,0 0.75265,0.94081 0.75265,0.94081 z"
     inkscape:connector-curvature="0" />
  <path
     style="color:#000000;fill:#000000;fill-opacity:1;fill-rule:nonzero;stroke:none;stroke-width:1.27100003;marker:none;visibility:visible;display:inline;overflow:visible;enable-background:accumulate"
     id="path6403"
     d="m 255.87178,548.5541 c -1.11676,4.58109 -2.34049,9.13288 -3.84059,13.60541 -1.71319,4.67633 -3.40333,9.36008 -5.08418,14.0482 -1.26367,2.82041 -2.13755,5.77797 -3.07091,8.71608 -0.0556,2.08906 -3.86255,4.2973 -2.16588,0.22054 2.58275,-3.89397 6.43568,-6.65758 9.99365,-9.59136 4.587,-3.66526 9.18836,-7.32384 13.94722,-10.76481 2.20057,-1.57357 1.11167,-0.83649 3.26056,-2.22025 0,0 0.6519,1.01322 0.6519,1.01322 l 0,0 c -2.09855,1.349 -1.02711,0.62496 -3.20664,2.18346 -4.73906,3.42468 -9.31857,7.06994 -13.88656,10.71794 -3.4158,2.81656 -7.0947,5.46519 -9.65434,9.14014 -0.56873,1.25078 0.0265,0.58108 -0.79428,0.61393 -0.15305,0.006 -0.27946,0.16357 -0.43242,0.15547 -0.10325,-0.005 0.19636,-0.0854 0.26301,-0.16444 0.41563,-0.4929 0.61698,-1.08854 0.87552,-1.66865 0.93801,-2.95196 1.81598,-5.924 3.08504,-8.75791 1.67822,-4.6803 3.3652,-9.35645 5.07607,-14.02483 1.48104,-4.41204 2.68496,-8.90268 3.79441,-13.42021 0,0 1.18842,0.19807 1.18842,0.19807 z"
     inkscape:connector-curvature="0" />
  <path
     style="color:#000000;fill:#000000;fill-opacity:1;fill-rule:nonzero;stroke:none;stroke-width:1.27100003;marker:none;visibility:visible;display:inline;overflow:visible;enable-background:accumulate"
     id="path6405"
     d="m 147.59036,529.03384 c 0.0591,3.15499 -0.14536,6.3197 0.14171,9.4646 0.15867,2.09356 0.77589,4.06986 3.06626,4.3898 2.85816,-0.35641 4.50698,-2.89698 5.7557,-5.23836 0.92699,-1.95408 1.33335,-4.0613 1.64931,-6.18141 0,0 1.19152,0.17857 1.19152,0.17857 l 0,0 c -0.34005,2.2572 -0.7816,4.49848 -1.78018,6.57434 -1.52678,2.80755 -3.55475,5.67774 -7.03534,5.85161 -2.80573,-0.60328 -3.86226,-2.70771 -4.04727,-5.46688 -0.28085,-3.18199 -0.0965,-6.38055 -0.14653,-9.57227 0,0 1.20482,0 1.20482,0 z"
     inkscape:connector-curvature="0" />
  <path
     style="color:#000000;fill:#000000;fill-opacity:1;fill-rule:nonzero;stroke:none;stroke-width:1.27100003;marker:none;visibility:visible;display:inline;overflow:visible;enable-background:accumulate"
     id="path6407"
     d="m 160.84337,526.6242 c 0,2.92982 0,5.85963 0,8.78945 -0.0128,0.37682 0.0212,4.75112 0,4.7663 -0.14709,0.10529 -0.11287,-0.3516 -0.22412,-0.49423 -0.0847,-0.10862 -0.22811,-0.15452 -0.34217,-0.23178 1.25459,-2.78491 2.19655,-5.67731 3.52325,-8.43386 1.34633,-2.71921 3.23405,-4.33852 4.02308,-0.24411 0.31287,2.96979 0.28394,5.96282 0.28263,8.9453 -0.034,1.25645 -0.0337,2.48899 0.12395,3.7349 0,0 -1.19595,0.14593 -1.19595,0.14593 l 0,0 c -0.15297,-1.2957 -0.17878,-2.57559 -0.13282,-3.88137 0.001,-2.90945 0.0277,-5.82828 -0.26269,-8.72651 -0.0821,-0.47231 -0.29443,-0.94968 -0.21363,-1.42221 0.015,-0.0879 0.22126,-0.14549 0.16254,-0.21267 -0.51414,-0.58819 -1.57397,2.5319 -1.70178,2.18386 -1.37725,2.85313 -2.28229,5.88144 -3.70647,8.70935 -0.34276,0.18108 -0.64106,0.56149 -1.02828,0.54324 -0.86058,-0.0406 -0.44975,-4.68194 -0.51236,-5.38214 0,-2.92982 0,-5.85963 0,-8.78945 0,0 1.20482,0 1.20482,0 z"
     inkscape:connector-curvature="0" />
  <path
     style="color:#000000;fill:#000000;fill-opacity:1;fill-rule:nonzero;stroke:none;stroke-width:1.27100003;marker:none;visibility:visible;display:inline;overflow:visible;enable-background:accumulate"
     id="path6409"
     d="m 179.88416,528.75985 c -1.7576,-0.2492 -4.37167,-0.81454 -5.6331,0.79867 0.0703,1.78844 2.35091,3.16001 3.52002,4.30757 1.98049,2.01566 4.03385,3.91413 3.29925,6.9331 -1.71388,2.23749 -4.51378,2.37683 -7.10909,2.18003 -2.04557,-0.34692 -3.61131,-1.11565 -4.81875,-2.80331 0,0 0.99098,-0.68524 0.99098,-0.68524 l 0,0 c 0.93727,1.42063 2.26887,1.96639 3.92122,2.28736 2.04436,0.16343 4.22809,0.1347 5.85617,-1.30626 0.80676,-2.31581 -1.56993,-4.22554 -2.98402,-5.74611 -1.61602,-1.58819 -4.58756,-3.37733 -3.56098,-5.98445 1.81593,-1.79527 4.38382,-1.61294 6.75459,-1.16279 0,0 -0.23629,1.18143 -0.23629,1.18143 z"
     inkscape:connector-curvature="0" />
  <path
     style="color:#000000;fill:#000000;fill-opacity:1;fill-rule:nonzero;stroke:none;stroke-width:1.27100003;marker:none;visibility:visible;display:inline;overflow:visible;enable-background:accumulate"
     id="path6411"
     d="m 184.78745,524.45771 c -0.50358,3.46424 -0.89537,6.96566 -0.77318,10.46853 0.24868,3.23419 1.88578,5.22547 4.76801,6.48392 1.07765,0.32475 1.88051,0.18551 2.85471,-0.27885 0,0 0.4785,1.10572 0.4785,1.10572 l 0,0 c -1.32311,0.5337 -2.40816,0.74647 -3.82254,0.27411 -3.28464,-1.48218 -5.20818,-3.84351 -5.48283,-7.54462 -0.11501,-3.58321 0.26525,-7.16365 0.7889,-10.70688 0,0 1.18843,0.19807 1.18843,0.19807 z"
     inkscape:connector-curvature="0" />
  <path
     style="color:#000000;fill:#000000;fill-opacity:1;fill-rule:nonzero;stroke:none;stroke-width:1.27100003;marker:none;visibility:visible;display:inline;overflow:visible;enable-background:accumulate"
     id="path6413"
     d="m 175.41938,533.73494 c 3.31129,-0.0733 6.60297,-0.58356 9.90383,-0.87084 2.38553,-0.10417 4.71704,-0.66436 7.06915,-1.03635 0,0 0.18808,1.19005 0.18808,1.19005 l 0,0 c -2.37986,0.37588 -4.73901,0.94169 -7.1528,1.04659 -3.33555,0.29007 -6.66157,0.80667 -10.00826,0.87537 0,0 0,-1.20482 0,-1.20482 z"
     inkscape:connector-curvature="0" />
  <path
     style="color:#000000;fill:#000000;fill-opacity:1;fill-rule:nonzero;stroke:none;stroke-width:1.27100003;marker:none;visibility:visible;display:inline;overflow:visible;enable-background:accumulate"
     id="path6415"
     d="m 202.89387,528.91566 c -2.68876,0.22222 -4.50283,2.12854 -6.09866,4.11948 -1.16389,1.72589 -2.23989,3.90627 -0.55576,5.61311 1.89052,1.22441 3.91093,-0.13129 5.31785,-1.47153 1.95225,-2.14568 3.37923,-4.68664 4.30051,-7.42582 0.51786,0.11726 -0.12435,-2.1182 0.10197,-1.95326 0.63845,0.4653 0.55925,0.61702 0.31295,1.20951 -0.69311,2.18828 -0.72101,4.51174 -0.80242,6.78543 0.0301,1.11187 0.23248,2.15552 0.59995,3.197 0,0 -1.14007,0.38965 -1.14007,0.38965 l 0,0 c -0.39549,-1.18843 -0.65112,-2.36537 -0.66392,-3.62986 0.0874,-2.4291 0.12357,-4.91296 0.90887,-7.2391 1.47622,-3.09 2.69807,-0.14847 1.82392,1.62682 -0.99566,2.92585 -2.51544,5.64356 -4.62297,7.92347 -1.97666,1.78995 -4.5868,3.22463 -7.03458,1.391 -1.94686,-2.31816 -1.11013,-4.86529 0.51571,-7.17257 1.8412,-2.2721 3.95528,-4.36174 7.03665,-4.56815 0,0 0,1.20482 0,1.20482 z"
     inkscape:connector-curvature="0" />
  <path
     style="color:#000000;fill:#000000;fill-opacity:1;fill-rule:nonzero;stroke:none;stroke-width:1.27100003;marker:none;visibility:visible;display:inline;overflow:visible;enable-background:accumulate"
     id="path6417"
     d="m 210.09601,521.44459 c -0.44241,5.25999 -0.28613,10.58673 -0.92887,15.83092 -0.37466,-0.21778 -0.90248,-0.28088 -1.12399,-0.65336 -0.16805,-0.28258 0.0864,-0.6526 0.15627,-0.97387 0.47515,-2.18544 1.4316,-3.81326 2.83719,-5.52886 2.04479,-2.05613 4.64969,-3.47679 7.23663,-1.60647 1.91652,2.27167 1.11072,4.6834 -0.20076,7.01564 -1.64268,2.23728 -3.96864,3.85544 -6.64942,4.55359 -1.2499,0.12541 -1.85139,-0.33051 -2.63988,-1.20436 0,0 0.93211,-0.76339 0.93211,-0.76339 l 0,0 c 0.39543,0.5825 0.65551,0.8214 1.41469,0.79912 2.36606,-0.5654 4.42043,-2.06161 5.89483,-3.97991 1.02284,-1.7813 1.86456,-3.61396 0.50662,-5.47131 -1.86341,-1.64982 -4.09303,0.009 -5.56602,1.4245 -1.00368,1.20335 -1.77538,2.27798 -2.26616,3.78388 -0.12488,0.38319 -0.22424,0.77484 -0.31025,1.16857 -0.0686,0.31412 0.0849,0.73612 -0.15301,0.95237 -0.32276,0.29333 -0.84304,0.22397 -1.26456,0.33595 0.65149,-5.21397 0.46864,-10.51645 0.92143,-15.74634 0,0 1.20315,0.0633 1.20315,0.0633 z"
     inkscape:connector-curvature="0" />
  <path
     style="color:#000000;fill:#000000;fill-opacity:1;fill-rule:nonzero;stroke:none;stroke-width:1.27100003;marker:none;visibility:visible;display:inline;overflow:visible;enable-background:accumulate"
     id="path6419"
     d="m 223.49398,517.12976 c 0,4.08049 0,8.16098 0,12.24148 0,3.04528 0,6.09056 0,9.13584 0,0 -1.20482,0 -1.20482,0 l 0,0 c 0,-3.04528 0,-6.09056 0,-9.13584 0,-4.0805 0,-8.16099 0,-12.24148 0,0 1.20482,0 1.20482,0 z"
     inkscape:connector-curvature="0" />
  <path
     style="color:#000000;fill:#000000;fill-opacity:1;fill-rule:nonzero;stroke:none;stroke-width:1.27100003;marker:none;visibility:visible;display:inline;overflow:visible;enable-background:accumulate"
     id="path6421"
     d="m 227.10847,532.3977 c 2.58985,-0.61482 4.95899,-1.75263 7.15622,-3.23642 0.54056,-0.29037 3.65529,-2.31767 2.45224,-3.1548 -1.79092,-0.8963 -3.66712,0.0347 -5.16124,1.08245 -2.63798,2.1463 -4.21909,5.04773 -4.81435,8.35976 -0.17163,3.123 1.50196,5.0407 4.0515,6.52895 3.01008,1.43312 5.80066,0.98539 8.74749,-0.2895 1.77937,-0.73601 3.2385,-1.96615 4.71663,-3.16181 0,0 0.75689,0.93739 0.75689,0.93739 l 0,0 c -1.56556,1.2619 -3.11745,2.55396 -4.99883,3.33179 -3.31155,1.40762 -6.48346,1.85309 -9.83538,0.21923 -2.9772,-1.7801 -4.87649,-4.13833 -4.62288,-7.78595 0.69191,-3.62518 2.39685,-6.80377 5.32097,-9.13583 2.05932,-1.36777 4.68918,-2.50169 6.86177,-0.72361 1.12941,2.36278 -1.0569,3.60911 -2.80298,4.79204 -2.33521,1.56117 -4.84273,2.77767 -7.59177,3.41773 0,0 -0.23628,-1.18142 -0.23628,-1.18142 z"
     inkscape:connector-curvature="0" />
  <path
     style="color:#000000;fill:#000000;fill-opacity:1;fill-rule:nonzero;stroke:none;stroke-width:1.27100003;marker:none;visibility:visible;display:inline;overflow:visible;enable-background:accumulate"
     id="path6409-5"
     d="m 324.61322,449.37023 c -1.7576,-0.2492 -4.37167,-0.81454 -5.6331,0.79867 0.0703,1.78844 2.35091,3.16001 3.52002,4.30757 1.98049,2.01566 4.03385,3.91413 3.29925,6.9331 -1.71388,2.23749 -4.51378,2.37683 -7.10909,2.18003 -2.04557,-0.34692 -3.61131,-1.11565 -4.81875,-2.80331 0,0 0.99098,-0.68524 0.99098,-0.68524 l 0,0 c 0.93727,1.42063 2.26887,1.96639 3.92122,2.28736 2.04436,0.16343 4.22809,0.1347 5.85617,-1.30626 0.80676,-2.31581 -1.56993,-4.22554 -2.98402,-5.74611 -1.61602,-1.58819 -4.58756,-3.37733 -3.56098,-5.98445 1.81593,-1.79527 4.38382,-1.61294 6.75459,-1.16279 0,0 -0.23629,1.18143 -0.23629,1.18143 z"
     inkscape:connector-curvature="0" />
  <path
     style="color:#000000;fill:#000000;fill-opacity:1;fill-rule:nonzero;stroke:none;stroke-width:1.27100003;marker:none;visibility:visible;display:inline;overflow:visible;enable-background:accumulate"
     id="path6411-0"
     d="m 329.51651,445.06809 c -0.50358,3.46424 -0.89537,6.96566 -0.77318,10.46853 0.24868,3.23419 1.88578,5.22547 4.76801,6.48392 1.07765,0.32475 1.88051,0.18551 2.85471,-0.27885 0,0 0.4785,1.10572 0.4785,1.10572 l 0,0 c -1.32311,0.5337 -2.40816,0.74647 -3.82254,0.27411 -3.28464,-1.48218 -5.20818,-3.84351 -5.48283,-7.54462 -0.11501,-3.58321 0.26525,-7.16365 0.7889,-10.70688 0,0 1.18843,0.19807 1.18843,0.19807 z"
     inkscape:connector-curvature="0" />
  <path
     style="color:#000000;fill:#000000;fill-opacity:1;fill-rule:nonzero;stroke:none;stroke-width:1.27100003;marker:none;visibility:visible;display:inline;overflow:visible;enable-background:accumulate"
     id="path6413-0"
     d="m 320.14844,454.34532 c 3.31129,-0.0733 6.60297,-0.58356 9.90383,-0.87084 2.38553,-0.10417 4.71704,-0.66436 7.06915,-1.03635 0,0 0.18808,1.19005 0.18808,1.19005 l 0,0 c -2.37986,0.37588 -4.73901,0.94169 -7.1528,1.04659 -3.33555,0.29007 -6.66157,0.80667 -10.00826,0.87537 0,0 0,-1.20482 0,-1.20482 z"
     inkscape:connector-curvature="0" />
  <path
     style="color:#000000;fill:#000000;fill-opacity:1;fill-rule:nonzero;stroke:none;stroke-width:1.27100003;marker:none;visibility:visible;display:inline;overflow:visible;enable-background:accumulate"
     id="path6415-2"
     d="m 347.62293,449.52604 c -2.68876,0.22222 -4.50283,2.12854 -6.09866,4.11948 -1.16389,1.72589 -2.23989,3.90627 -0.55576,5.61311 1.89052,1.22441 3.91093,-0.13129 5.31785,-1.47153 1.95225,-2.14568 3.37923,-4.68664 4.30051,-7.42582 0.51786,0.11726 -0.12435,-2.1182 0.10197,-1.95326 0.63845,0.4653 0.55925,0.61702 0.31295,1.20951 -0.69311,2.18828 -0.72101,4.51174 -0.80242,6.78543 0.0301,1.11187 0.23248,2.15552 0.59995,3.197 0,0 -1.14007,0.38965 -1.14007,0.38965 l 0,0 c -0.39549,-1.18843 -0.65112,-2.36537 -0.66392,-3.62986 0.0874,-2.4291 0.12357,-4.91296 0.90887,-7.2391 1.47622,-3.09 2.69807,-0.14847 1.82392,1.62682 -0.99566,2.92585 -2.51544,5.64356 -4.62297,7.92347 -1.97666,1.78995 -4.5868,3.22463 -7.03458,1.391 -1.94686,-2.31816 -1.11013,-4.86529 0.51571,-7.17257 1.8412,-2.2721 3.95528,-4.36174 7.03665,-4.56815 0,0 0,1.20482 0,1.20482 z"
     inkscape:connector-curvature="0" />
  <path
     style="color:#000000;fill:#000000;fill-opacity:1;fill-rule:nonzero;stroke:none;stroke-width:1.27100003;marker:none;visibility:visible;display:inline;overflow:visible;enable-background:accumulate"
     id="path6417-9"
     d="m 354.82507,442.05497 c -0.44241,5.25999 -0.28613,10.58673 -0.92887,15.83092 -0.37466,-0.21778 -0.90248,-0.28088 -1.12399,-0.65336 -0.16805,-0.28258 0.0864,-0.6526 0.15627,-0.97387 0.47515,-2.18544 1.4316,-3.81326 2.83719,-5.52886 2.04479,-2.05613 4.64969,-3.47679 7.23663,-1.60647 1.91652,2.27167 1.11072,4.6834 -0.20076,7.01564 -1.64268,2.23728 -3.96864,3.85544 -6.64942,4.55359 -1.2499,0.12541 -1.85139,-0.33051 -2.63988,-1.20436 0,0 0.93211,-0.76339 0.93211,-0.76339 l 0,0 c 0.39543,0.5825 0.65551,0.8214 1.41469,0.79912 2.36606,-0.5654 4.42043,-2.06161 5.89483,-3.97991 1.02284,-1.7813 1.86456,-3.61396 0.50662,-5.47131 -1.86341,-1.64982 -4.09303,0.009 -5.56602,1.4245 -1.00368,1.20335 -1.77538,2.27798 -2.26616,3.78388 -0.12488,0.38319 -0.22424,0.77484 -0.31025,1.16857 -0.0686,0.31412 0.0849,0.73612 -0.15301,0.95237 -0.32276,0.29333 -0.84304,0.22397 -1.26456,0.33595 0.65149,-5.21397 0.46864,-10.51645 0.92143,-15.74634 0,0 1.20315,0.0633 1.20315,0.0633 z"
     inkscape:connector-curvature="0" />
  <path
     style="color:#000000;fill:#000000;fill-opacity:1;fill-rule:nonzero;stroke:none;stroke-width:1.27100003;marker:none;visibility:visible;display:inline;overflow:visible;enable-background:accumulate"
     id="path6419-3"
     d="m 368.22304,437.74014 c 0,4.08049 0,8.16098 0,12.24148 0,3.04528 0,6.09056 0,9.13584 0,0 -1.20482,0 -1.20482,0 l 0,0 c 0,-3.04528 0,-6.09056 0,-9.13584 0,-4.0805 0,-8.16099 0,-12.24148 0,0 1.20482,0 1.20482,0 z"
     inkscape:connector-curvature="0" />
  <path
     style="color:#000000;fill:#000000;fill-opacity:1;fill-rule:nonzero;stroke:none;stroke-width:1.27100003;marker:none;visibility:visible;display:inline;overflow:visible;enable-background:accumulate"
     id="path6421-5"
     d="m 371.83753,453.00808 c 2.58985,-0.61482 4.95899,-1.75263 7.15622,-3.23642 0.54056,-0.29037 3.65529,-2.31767 2.45224,-3.1548 -1.79092,-0.8963 -3.66712,0.0347 -5.16124,1.08245 -2.63798,2.1463 -4.21909,5.04773 -4.81435,8.35976 -0.17163,3.123 1.50196,5.0407 4.0515,6.52895 3.01008,1.43312 5.80066,0.98539 8.74749,-0.2895 1.77937,-0.73601 3.2385,-1.96615 4.71663,-3.16181 0,0 0.75689,0.93739 0.75689,0.93739 l 0,0 c -1.56556,1.2619 -3.11745,2.55396 -4.99883,3.33179 -3.31155,1.40762 -6.48346,1.85309 -9.83538,0.21923 -2.9772,-1.7801 -4.87649,-4.13833 -4.62288,-7.78595 0.69191,-3.62518 2.39685,-6.80377 5.32097,-9.13583 2.05932,-1.36777 4.68918,-2.50169 6.86177,-0.72361 1.12941,2.36278 -1.0569,3.60911 -2.80298,4.79204 -2.33521,1.56117 -4.84273,2.77767 -7.59177,3.41773 0,0 -0.23628,-1.18142 -0.23628,-1.18142 z"
     inkscape:connector-curvature="0" />
  <path
     style="fill:none;stroke:#000000;stroke-width:1.00873244px;stroke-linecap:butt;stroke-linejoin:miter;stroke-opacity:1"
     d="M 415.65828,325.89925 284.34172,180.12485"
     id="path6459"
     inkscape:connector-curvature="0" />
  <path
     style="color:#000000;fill:#000000;fill-opacity:1;fill-rule:nonzero;stroke:none;stroke-width:1.27100003;marker:none;visibility:visible;display:inline;overflow:visible;enable-background:accumulate"
     id="path6461"
     d="m 286.14458,178.43143 c 0.18592,3.32378 1.34473,6.3839 2.55834,9.44025 1.54939,3.43092 3.02927,6.89746 4.62482,10.30858 1.16657,2.97049 2.27919,5.97657 3.01888,9.0854 0.46169,1.31327 0.8531,2.64857 1.28789,3.97037 0,0 -1.14459,0.37616 -1.14459,0.37616 l 0,0 c -0.44468,-1.35424 -0.84986,-2.72069 -1.31557,-4.06836 -0.71699,-3.03002 -1.80927,-5.95629 -2.93802,-8.85328 -1.60453,-3.43327 -3.09587,-6.92075 -4.65319,-10.37427 -1.26936,-3.19733 -2.46438,-6.40747 -2.64338,-9.88485 0,0 1.20482,0 1.20482,0 z"
     inkscape:connector-curvature="0" />
  <path
     style="color:#000000;fill:#000000;fill-opacity:1;fill-rule:nonzero;stroke:none;stroke-width:1.27100003;marker:none;visibility:visible;display:inline;overflow:visible;enable-background:accumulate"
     id="path6463"
     d="m 284.07044,178.86609 c 2.28404,1.86161 4.8528,3.31834 7.29311,4.95666 2.52034,1.78966 4.82536,3.85409 7.23465,5.78458 1.83648,1.66236 4.07331,2.67817 6.2269,3.83035 1.96728,0.90894 3.94833,1.75223 5.86686,2.76398 0.77506,0.57894 1.5804,1.09205 2.42962,1.5517 0,0 -0.57669,1.05784 -0.57669,1.05784 l 0,0 c -0.8414,-0.46163 -1.65505,-0.95339 -2.41496,-1.54384 -1.92081,-1.01305 -3.90691,-1.85169 -5.87428,-2.76794 -2.21577,-1.19158 -4.51938,-2.23992 -6.41116,-3.95213 -2.38153,-1.91099 -4.66408,-3.94902 -7.15266,-5.72435 -2.45709,-1.65081 -5.04442,-3.1174 -7.34428,-4.993 0,0 0.72289,-0.96385 0.72289,-0.96385 z"
     inkscape:connector-curvature="0" />
  <path
     style="color:#000000;fill:#000000;fill-opacity:1;fill-rule:nonzero;stroke:none;stroke-width:1.27100003;marker:none;visibility:visible;display:inline;overflow:visible;enable-background:accumulate"
     id="path6465"
     d="m 340.78899,213.17295 c 2.31566,-1.15329 4.08294,-3.00557 5.70905,-4.97119 0.65742,-1.12085 2.36412,-4.14871 2.96994,-0.90956 0.14164,2.13002 0.0897,4.26857 0.0779,6.40203 -0.0154,2.43328 -0.0217,4.86661 -0.0254,7.29993 -0.003,2.41569 -0.003,4.83138 -0.003,7.24706 4e-5,1.912 1.2e-4,3.824 2e-4,5.736 0,0 -1.20482,4e-5 -1.20482,4e-5 l 0,0 c -8e-5,-1.91202 -1.6e-4,-3.82403 -2e-4,-5.73605 3e-5,-2.41629 -1.1e-4,-4.83258 0.003,-7.24887 0.004,-2.43494 0.01,-4.86987 0.0254,-7.30477 0.0114,-2.0702 0.0573,-4.14437 -0.0639,-6.212 -0.0134,-0.14115 -0.1395,-0.32209 -0.0403,-0.42344 0.0998,-0.10199 0.28907,0.0641 0.42713,0.0281 0.0858,-0.0224 0.24356,-0.2575 0.18774,-0.18857 -0.53001,0.6545 -0.98159,1.35836 -1.4265,2.07947 -1.73794,2.08866 -3.62844,4.05585 -6.09743,5.27947 0,0 -0.53881,-1.07763 -0.53881,-1.07763 z"
     inkscape:connector-curvature="0" />
  <path
     style="color:#000000;fill:#000000;fill-opacity:1;fill-rule:nonzero;stroke:none;stroke-width:1.27100003;marker:none;visibility:visible;display:inline;overflow:visible;enable-background:accumulate"
     id="path6467"
     d="m 342.28919,232.54228 c 2.62923,-0.47186 5.27899,-0.65298 7.88141,-1.264 1.14446,-0.29531 2.30975,-0.48256 3.47678,-0.65881 0,0 0.17942,1.19139 0.17942,1.19139 l 0,0 c -1.13508,0.17044 -2.26828,0.35266 -3.38115,0.64043 -2.61606,0.61264 -5.27634,0.80807 -7.92018,1.27241 0,0 -0.23628,-1.18142 -0.23628,-1.18142 z"
     inkscape:connector-curvature="0" />
  <path
     sodipodi:type="arc"
     style="color:#000000;fill:none;stroke:#000000;stroke-width:1.27100003;stroke-opacity:1;marker:none;visibility:visible;display:inline;overflow:visible;enable-background:accumulate"
     id="path6471"
     sodipodi:cx="568.07227"
     sodipodi:cy="321.68674"
     sodipodi:rx="64.457832"
     sodipodi:ry="64.457832"
     d="m 632.5301,321.68674 a 64.457832,64.457832 0 1 1 -128.91567,0 64.457832,64.457832 0 1 1 128.91567,0 z"
     transform="matrix(3.0498472,0,0,1.2128547,-1314.7253,-64.327955)" />
  <path
     style="fill:none;stroke:#000000;stroke-width:0.96903598px;stroke-linecap:butt;stroke-linejoin:miter;stroke-opacity:1"
     d="m 415.64718,327.12392 131.35626,-57.8623"
     id="path6475"
     inkscape:connector-curvature="0" />
  <path
     style="color:#000000;fill:#000000;fill-opacity:1;fill-rule:nonzero;stroke:none;stroke-width:1.27100003;marker:none;visibility:visible;display:inline;overflow:visible;enable-background:accumulate"
     id="path6393-8"
     d="m 486.99916,268.58215 c -0.14108,-1.94213 -1.32738,-2.87584 -3.1426,-3.20529 -3.08346,0.0347 -5.34637,2.21964 -7.09687,4.53584 -1.92861,3.12303 -2.41208,6.53024 -1.72555,10.08329 0.75879,2.98646 2.92229,4.67523 5.64868,5.77367 2.02418,0.44145 4.725,0.0938 5.78524,-1.91229 0.019,-2.34042 -2.73192,-3.4543 -4.49603,-4.34173 -0.78753,-0.42145 -4.74267,-1.29398 -2.54356,-2.67432 0.28787,-0.18068 0.66061,-0.15842 0.99091,-0.23763 3.93038,-0.61238 7.91112,-0.73504 11.86366,-1.16995 2.437,-0.27159 1.25158,-0.14386 3.55611,-0.38461 0,0 0.10259,0.9871 0.10259,0.9871 l 0,0 c -2.29822,0.24006 -1.11459,0.11253 -3.55073,0.38403 -3.91245,0.43031 -7.85139,0.55877 -11.74379,1.14923 -1.27015,0.29741 -0.67258,0.47051 -1.0814,-0.31864 -0.0841,-0.1623 0.26298,0.26316 0.42704,0.34312 0.78969,0.38487 1.64007,0.63607 2.42353,1.03484 2.30088,1.16014 5.46478,2.65342 4.90009,5.73985 -0.2038,0.31424 -0.34981,0.67493 -0.6114,0.94272 -1.61566,1.654 -4.28973,1.87368 -6.39427,1.37797 -3.03632,-1.24471 -5.4174,-3.17849 -6.24912,-6.50781 -0.7398,-3.96175 -0.21536,-7.39123 1.9112,-10.87108 2.0063,-2.61646 4.57658,-4.98204 8.08008,-4.90631 2.26073,0.49686 3.78334,1.73298 3.93609,4.178 0,0 -0.9899,0 -0.9899,0 z"
     inkscape:connector-curvature="0" />
  <path
     style="color:#000000;fill:none;stroke:#000000;stroke-width:0.6;stroke-linecap:butt;stroke-linejoin:miter;stroke-miterlimit:4;stroke-opacity:1;stroke-dasharray:none;stroke-dashoffset:0;marker:none;visibility:visible;display:inline;overflow:visible;enable-background:accumulate"
     id="path3219"
     d="m 476.85253,301.01306 c 1.73567,2.45586 2.8696,5.24628 4.13431,7.95598 0.88059,2.29168 1.68198,4.62152 2.20633,7.02313 0.45335,2.39705 0.50584,4.84173 0.54585,7.27329 -0.0288,1.44933 -0.51956,2.72091 -1.11431,4.01237 0,0 -1.09397,-0.50478 -1.09397,-0.50478 l 0,0 c 0.52108,-1.12698 0.97264,-2.21818 1.00362,-3.48782 -0.0385,-2.35217 -0.0857,-4.71727 -0.51848,-7.03698 -0.50163,-2.31545 -1.28111,-4.5581 -2.12083,-6.76972 -1.24681,-2.67225 -2.36229,-5.42483 -4.07565,-7.8456 0,0 1.03313,-0.61987 1.03313,-0.61987 z"
     inkscape:connector-curvature="0" />
  <path
     style="color:#000000;fill:none;stroke:#000000;stroke-width:0.60000002;stroke-linecap:butt;stroke-linejoin:miter;stroke-miterlimit:4;stroke-opacity:1;stroke-dasharray:none;stroke-dashoffset:0;marker:none;visibility:visible;display:inline;overflow:visible;enable-background:accumulate"
     id="path3989"
     d="m 506.2846,304.48796 c -2.26189,-0.88491 -4.61461,-1.44386 -6.96032,-0.62505 -2.03333,0.65332 -2.8107,2.12901 -3.26423,4.08417 -0.34054,2.00657 -0.47699,4.04149 0.32563,5.94754 1.02612,1.26832 2.54901,2.01325 4.08805,2.46909 1.90708,0.52498 3.68323,-0.1976 5.40021,-0.98991 1.86429,-1.09841 3.37082,-2.48953 4.43283,-4.37526 1.26077,-1.70366 1.86135,-3.43621 1.78134,-5.53464 -0.44936,-2.4793 -2.52036,-3.45192 -4.66399,-4.28158 -4.04098,-1.27957 -7.71013,-0.0865 -11.18232,2.0506 -2.24405,1.70649 -1.19821,0.81015 -3.1506,2.67367 0,0 -0.83022,-0.87312 -0.83022,-0.87312 l 0,0 c 2.08575,-1.97626 0.97211,-1.0286 3.35291,-2.82881 3.81318,-2.3116 7.84,-3.56993 12.24868,-2.14455 2.61122,1.02891 4.96998,2.34548 5.42966,5.36297 0.07,2.31889 -0.55028,4.28816 -1.93906,6.17265 -1.20818,2.09304 -2.87277,3.67259 -4.97711,4.87328 -1.99301,0.90837 -4.04732,1.67207 -6.24972,1.04835 -1.88236,-0.57489 -3.71968,-1.50778 -4.85759,-3.17101 -0.84701,-2.16265 -0.80746,-4.41034 -0.38089,-6.67776 0.56964,-2.34987 1.62919,-4.1606 4.05653,-4.94904 2.6482,-0.84506 5.23799,-0.38291 7.78767,0.64976 0,0 -0.44746,1.11865 -0.44746,1.11865 z"
     inkscape:connector-curvature="0" />
  <path
     style="color:#000000;fill:none;stroke:#000000;stroke-width:0.60000002;stroke-linecap:butt;stroke-linejoin:miter;stroke-miterlimit:4;stroke-opacity:1;stroke-dasharray:none;stroke-dashoffset:0;marker:none;visibility:visible;display:inline;overflow:visible;enable-background:accumulate"
     id="path3993"
     d="m 505.42169,293.03338 c 0,3.05633 0,6.11266 0,9.16899 0,2.60794 0,5.21587 0,7.82381 0,2.41207 0,4.82415 0,7.23623 0.0705,1.95717 0.0238,3.86797 -0.35452,5.78972 0,0 -1.18189,-0.23394 -1.18189,-0.23394 l 0,0 c 0.3671,-1.84394 0.39508,-3.67673 0.33159,-5.55578 0,-2.41208 0,-4.82416 0,-7.23623 0,-2.60794 0,-5.21587 0,-7.82381 0,-3.05633 0,-6.11266 0,-9.16899 0,0 1.20482,0 1.20482,0 z"
     inkscape:connector-curvature="0" />
  <path
     style="color:#000000;fill:#000000;fill-opacity:1;fill-rule:nonzero;stroke:none;stroke-width:1.27100003;marker:none;visibility:visible;display:inline;overflow:visible;enable-background:accumulate"
     id="path6465-9"
     d="m 622.56543,344.30091 c 2.31566,-1.15329 4.08294,-3.00557 5.70905,-4.97119 0.65742,-1.12085 2.36412,-4.14871 2.96994,-0.90956 0.14164,2.13002 0.0897,4.26857 0.0779,6.40203 -0.0154,2.43328 -0.0217,4.86661 -0.0254,7.29993 -0.003,2.41569 -0.003,4.83138 -0.003,7.24706 4e-5,1.912 1.2e-4,3.824 2e-4,5.736 0,0 -1.20482,4e-5 -1.20482,4e-5 l 0,0 c -8e-5,-1.91202 -1.6e-4,-3.82403 -2e-4,-5.73605 3e-5,-2.41629 -1.1e-4,-4.83258 0.003,-7.24887 0.004,-2.43494 0.01,-4.86987 0.0254,-7.30477 0.0114,-2.0702 0.0573,-4.14437 -0.0639,-6.212 -0.0134,-0.14115 -0.1395,-0.32209 -0.0403,-0.42344 0.0998,-0.10199 0.28907,0.0641 0.42713,0.0281 0.0858,-0.0224 0.24356,-0.2575 0.18774,-0.18857 -0.53001,0.6545 -0.98159,1.35836 -1.4265,2.07947 -1.73794,2.08866 -3.62844,4.05585 -6.09743,5.27947 0,0 -0.53881,-1.07763 -0.53881,-1.07763 z"
     inkscape:connector-curvature="0" />
  <path
     style="color:#000000;fill:#000000;fill-opacity:1;fill-rule:nonzero;stroke:none;stroke-width:1.27100003;marker:none;visibility:visible;display:inline;overflow:visible;enable-background:accumulate"
     id="path6467-7"
     d="m 624.06563,363.67024 c 2.62923,-0.47186 5.27899,-0.65298 7.88141,-1.264 1.14446,-0.29531 2.30975,-0.48256 3.47678,-0.65881 0,0 0.17942,1.19139 0.17942,1.19139 l 0,0 c -1.13508,0.17044 -2.26828,0.35266 -3.38115,0.64043 -2.61606,0.61264 -5.27634,0.80807 -7.92018,1.27241 0,0 -0.23628,-1.18142 -0.23628,-1.18142 z"
     inkscape:connector-curvature="0" />
  <path
     style="color:#000000;fill:#000000;fill-opacity:1;fill-rule:nonzero;stroke:none;stroke-width:1.27100003;marker:none;visibility:visible;display:inline;overflow:visible;enable-background:accumulate"
     id="path6461-9"
     d="m 543.57735,268.34938 c -0.2905,2.11689 -2.10113,4.06586 -3.99738,6.01242 -2.4209,2.18513 -4.73319,4.39294 -7.22621,6.56546 -1.82275,1.89188 -3.5612,3.80643 -4.71696,5.78642 -0.72138,0.83641 -1.33296,1.68685 -2.01231,2.52869 0,0 1.78841,0.23958 1.78841,0.23958 l 0,0 c 0.6948,-0.86251 1.32789,-1.73279 2.05556,-2.59111 1.12028,-1.9298 2.82695,-3.79351 4.59061,-5.63858 2.50706,-2.18663 4.83725,-4.40778 7.27055,-6.6073 1.98335,-2.03635 3.85055,-4.08086 4.13024,-6.29558 0,0 -1.88251,0 -1.88251,0 z"
     inkscape:connector-curvature="0" />
  <path
     style="color:#000000;fill:#000000;fill-opacity:1;fill-rule:nonzero;stroke:#000000;stroke-width:0.10227755;stroke-linecap:butt;stroke-linejoin:miter;stroke-miterlimit:4;stroke-opacity:1;stroke-dasharray:none;stroke-dashoffset:0;marker:none;visibility:visible;display:inline;overflow:visible;enable-background:accumulate"
     id="path3263"
     d="m 517.91754,268.6747 c 3.51974,0 7.03946,0 10.55919,0 3.03119,0 6.06239,0 9.09358,0 2.25579,0 4.51156,0 6.76735,0 0,0 0,1.20482 0,1.20482 l 0,0 c -2.25579,0 -4.51156,0 -6.76735,0 -3.03119,0 -6.06239,0 -9.09358,0 -3.51973,0 -7.03945,0 -10.55919,0 0,0 0,-1.20482 0,-1.20482 z"
     inkscape:connector-curvature="0" />
  <path
     style="color:#000000;fill:#000000;fill-opacity:1;fill-rule:nonzero;stroke:#000000;stroke-width:0.10877025;stroke-linecap:butt;stroke-linejoin:miter;stroke-miterlimit:4;stroke-opacity:1;stroke-dasharray:none;stroke-dashoffset:0;marker:none;visibility:visible;display:inline;overflow:visible;enable-background:accumulate"
     id="path3288"
     d="m 441.54598,221.08554 c 0,3.59111 0,7.18222 0,10.77334 -0.0692,2.8368 -1.50542,4.71897 -4.43985,5.12655 -1.98146,-0.32666 -3.55934,-1.66335 -5.12028,-2.81074 -1.82169,-1.64451 -2.13235,-3.96632 -2.35894,-6.2383 -0.35542,-2.42052 0.0696,-4.60921 1.11716,-6.79856 1.39756,-2.33831 3.94465,-2.67147 6.49887,-2.91674 3.26304,-0.20854 6.53569,-0.18407 9.80403,-0.1743 2.31856,0.0109 4.63712,0.0203 6.9557,0.0264 0,0 -0.003,1.28588 -0.003,1.28588 l 0,0 c -2.31873,-0.006 -4.63747,-0.0155 -6.95619,-0.0264 -3.22343,-0.01 -6.45101,-0.0339 -9.66939,0.16814 -2.04766,0.19023 -4.23282,0.32473 -5.41674,2.17591 -0.95268,1.98312 -1.33677,3.93733 -1.00022,6.13797 0.18575,1.90157 0.37,3.9156 1.84282,5.34013 1.29099,0.96089 2.61469,2.00802 4.14916,2.55371 2.28728,-0.17785 3.20419,-1.73792 3.26198,-3.84966 0,-3.59112 0,-7.18224 0,-10.77334 0,0 1.33555,0 1.33555,0 z"
     inkscape:connector-curvature="0" />
</svg>
