<?xml version="1.0" encoding="UTF-8" standalone="no"?>
<!-- Created with Inkscape (http://www.inkscape.org/) -->

<svg
   xmlns:dc="http://purl.org/dc/elements/1.1/"
   xmlns:cc="http://creativecommons.org/ns#"
   xmlns:rdf="http://www.w3.org/1999/02/22-rdf-syntax-ns#"
   xmlns:svg="http://www.w3.org/2000/svg"
   xmlns="http://www.w3.org/2000/svg"
   xmlns:sodipodi="http://sodipodi.sourceforge.net/DTD/sodipodi-0.dtd"
   xmlns:inkscape="http://www.inkscape.org/namespaces/inkscape"
   id="svg3036"
   version="1.1"
   inkscape:version="0.48.3.1 r9886"
   width="800"
   height="400"
   sodipodi:docname="limits_e.svg"
   inkscape:export-filename="/home/uwhpsc/Programs/sphinx/thevisualroom/_images/limits_e.png"
   inkscape:export-xdpi="90"
   inkscape:export-ydpi="90">
  <metadata
     id="metadata3042">
    <rdf:RDF>
      <cc:Work
         rdf:about="">
        <dc:format>image/svg+xml</dc:format>
        <dc:type
           rdf:resource="http://purl.org/dc/dcmitype/StillImage" />
        <dc:title></dc:title>
      </cc:Work>
    </rdf:RDF>
  </metadata>
  <defs
     id="defs3040">
    <pattern
       inkscape:stockid="Wavy"
       id="Wavy"
       height="5.1805778"
       width="30.066020"
       patternUnits="userSpaceOnUse"
       inkscape:collect="always">
      <path
         id="path5812"
         d="M 7.597,0.061 C 5.079,-0.187 2.656,0.302 -0.01,1.788 L -0.01,3.061 C 2.773,1.431 5.173,1.052 7.472,1.280 C 9.770,1.508 11.969,2.361 14.253,3.218 C 18.820,4.931 23.804,6.676 30.066,3.061 L 30.062,1.788 C 23.622,5.497 19.246,3.770 14.691,2.061 C 12.413,1.207 10.115,0.311 7.597,0.061 z "
         style="fill:black;stroke:none;" />
    </pattern>
  </defs>
  <sodipodi:namedview
     pagecolor="#ffffff"
     bordercolor="#666666"
     borderopacity="1"
     objecttolerance="10"
     gridtolerance="10"
     guidetolerance="10"
     inkscape:pageopacity="0"
     inkscape:pageshadow="2"
     inkscape:window-width="1302"
     inkscape:window-height="791"
     id="namedview3038"
     showgrid="false"
     inkscape:zoom="0.83"
     inkscape:cx="321.81045"
     inkscape:cy="142.61341"
     inkscape:window-x="0"
     inkscape:window-y="31"
     inkscape:window-maximized="1"
     inkscape:current-layer="svg3036"
     showguides="true"
     inkscape:guide-bbox="true" />
  <path
     sodipodi:type="star"
     style="color:#000000;fill:url(#Wavy);fill-opacity:1;fill-rule:nonzero;stroke-width:3;stroke-linecap:butt;stroke-linejoin:miter;stroke-miterlimit:8;stroke-opacity:1;stroke-dasharray:none;stroke-dashoffset:0;marker:none;visibility:visible;display:inline;overflow:visible;enable-background:accumulate"
     id="path6547"
     sodipodi:sides="3"
     sodipodi:cx="559.03613"
     sodipodi:cy="193.97591"
     sodipodi:r1="60.385368"
     sodipodi:r2="30.192684"
     sodipodi:arg1="0.49934672"
     sodipodi:arg2="1.5465443"
     inkscape:flatsided="false"
     inkscape:rounded="0"
     inkscape:randomized="0"
     d="m 612.04818,222.89157 -52.27989,1.26814 -52.27988,1.26815 25.0417,-45.90979 25.0417,-45.90977 27.23818,44.64163 z"
     inkscape:transform-center-x="0.79123632"
     inkscape:transform-center-y="11.422475"
     transform="matrix(-1.0806595,0,0,-0.79005445,907.08067,235.75833)" />
  <rect
     style="color:#000000;fill:#ffffff;fill-opacity:1;fill-rule:nonzero;stroke-width:2;stroke-linecap:butt;stroke-linejoin:miter;stroke-miterlimit:8;stroke-opacity:1;stroke-dasharray:none;stroke-dashoffset:0;marker:none;visibility:visible;display:inline;overflow:visible;enable-background:accumulate"
     id="rect5913"
     width="159.03615"
     height="248.19276"
     x="151.01205"
     y="49.879524" />
  <path
     style="fill:none;stroke:#000000;stroke-width:0.90134156px;stroke-linecap:butt;stroke-linejoin:miter;stroke-opacity:1"
     d="M 260.50118,139.53011 330.57967,80.597729"
     id="path4992-1"
     inkscape:connector-curvature="0" />
  <path
     style="fill:#000000;fill-opacity:1;stroke-width:1.05299997;stroke-miterlimit:4;stroke-dasharray:none;stroke-dashoffset:0"
     id="path4914-6"
     d="m 486.74563,65.361741 c -0.38772,3.29857 -0.76724,6.59548 -0.98755,9.90726 0.0165,3.105472 -0.56721,6.162542 -0.95181,9.237922 -0.33616,2.77376 -0.41206,5.56365 -0.4581,8.35108 -0.0286,2.39625 -0.022,4.79269 -0.0188,7.189047 0.004,2.18011 0.005,4.36022 0.006,6.54034 7e-4,2.16735 6.7e-4,4.33471 6.8e-4,6.50207 -0.008,2.16822 0.5765,4.29611 0.86859,6.44388 0.2664,2.18169 0.30599,4.378 0.33397,6.57048 0.017,2.17252 0.0101,4.3451 0.007,6.51766 -0.003,2.17008 -0.004,4.34016 -0.005,6.51025 -4.6e-4,2.17021 -4.2e-4,4.34041 -4.1e-4,6.51062 2e-5,2.17026 4e-5,4.34051 5e-5,6.51077 0,2.17025 0,4.3405 10e-6,6.51075 0,2.17026 0,4.34052 0,6.51077 0,2.17026 0,4.34051 0,6.51077 0,2.47922 0,4.95845 0,7.43767 0,2.87622 0,5.75244 0,8.62865 0,0.39605 0,0.7921 0,1.18816 0,0 -1.20482,0 -1.20482,0 l 0,0 c 0,-0.39606 0,-0.79211 0,-1.18816 0,-2.87621 0,-5.75243 0,-8.62865 0,-2.47922 0,-4.95845 0,-7.43767 0,-2.17026 0,-4.34051 0,-6.51077 0,-2.17025 0,-4.34051 0,-6.51077 0,-2.17024 0,-4.3405 -1e-5,-6.51075 -10e-6,-2.17026 -3e-5,-4.34051 -5e-5,-6.51077 -10e-6,-2.1703 -5e-5,-4.3406 4.1e-4,-6.5109 6.1e-4,-2.17042 0.002,-4.34084 0.005,-6.51126 0.003,-2.16797 0.01,-4.33598 -0.007,-6.50392 -0.0274,-2.15261 -0.0651,-4.30903 -0.32513,-6.45119 -0.29716,-2.1914 -0.89555,-4.36207 -0.87751,-6.57562 -10e-6,-2.16722 2e-5,-4.33445 -6.8e-4,-6.50167 -9e-4,-2.17981 -0.002,-4.35962 -0.006,-6.53943 -0.003,-2.402167 -0.01,-4.804447 0.019,-7.206517 0.0467,-2.82263 0.12465,-5.64772 0.46555,-8.45646 0.38284,-3.05665 0.96415,-6.09465 0.94639,-9.181332 0.21927,-3.29003 0.58706,-6.56646 0.98539,-9.84231 0,0 1.20481,0 1.20481,0 z"
     inkscape:connector-curvature="0" />
  <path
     style="fill:#000000;fill-opacity:1;stroke-width:1.05299997;stroke-miterlimit:4;stroke-dasharray:none;stroke-dashoffset:0"
     id="path4918-9"
     d="m 478.31189,164.88028 c 0.43623,3.01284 0.5975,6.06809 1.12171,9.06596 0.62939,2.53481 1.26535,5.11708 2.14044,7.58269 0.64316,1.82104 1.31377,3.65432 2.23052,5.3585 0.13811,0.26853 0.28693,0.53181 0.41432,0.80559 0.90023,1.93468 -0.13486,-0.18442 0.6802,1.86153 0.0376,0.0943 0.30909,0.74085 0.56847,0.81166 0.0671,0.0183 -0.075,-0.11711 -0.11252,-0.17567 0.70685,-1.45399 1.09496,-3.13946 1.51299,-4.72014 0.80918,-2.82274 1.37319,-5.69951 2.05427,-8.55294 0.56967,-2.60133 1.32738,-5.15257 2.06258,-7.71091 0,0 1.15792,0.33288 1.15792,0.33288 l 0,0 c -0.73072,2.54089 -1.4835,5.07456 -2.04876,7.6584 -0.68651,2.86175 -1.25013,5.7489 -2.06129,8.58082 -0.51703,1.95224 -0.77279,4.55717 -2.69117,5.61663 -1.87205,-0.46735 -1.68728,-2.49852 -2.60086,-3.94233 -0.92933,-1.76622 -1.65096,-3.64002 -2.30313,-5.52396 -0.88542,-2.53405 -1.5585,-5.17236 -2.19105,-7.77669 -0.52874,-3.06699 -0.71458,-6.18847 -1.13946,-9.27202 0,0 1.20482,0 1.20482,0 z"
     inkscape:connector-curvature="0" />
  <path
     style="fill:#000000;fill-opacity:1;stroke-width:1.05299997;stroke-miterlimit:4;stroke-dasharray:none;stroke-dashoffset:0"
     id="path4926-4"
     d="m 486.42648,61.793671 c -1.29587,3.25221 -2.64292,6.48139 -3.91588,9.74314 -1.27191,2.77231 -2.22122,5.673282 -3.443,8.465922 -0.68173,1.62821 -1.46418,3.20246 -2.09259,4.85318 0,0 -1.12565,-0.42954 -1.12565,-0.42954 l 0,0 c 0.63791,-1.66795 1.42212,-3.26241 2.11469,-4.90713 1.21818,-2.776282 2.15549,-5.664702 3.4242,-8.420522 1.26595,-3.24274 2.60276,-6.45434 3.89524,-9.68605 0,0 1.14299,0.381 1.14299,0.381 z"
     inkscape:connector-curvature="0" />
  <path
     style="fill:#000000;fill-opacity:1;stroke-width:1.05299997;stroke-miterlimit:4;stroke-dasharray:none;stroke-dashoffset:0"
     id="path4928-3"
     d="m 485.79813,59.003031 c 1.16648,3.09317 2.54489,6.09553 3.88472,9.11521 1.38073,2.80181 2.42188,5.7779 3.31606,8.768882 0.51899,2.55264 1.21353,5.06628 1.68084,7.6303 0.36611,1.53284 0.96687,2.95466 1.92101,4.20913 0,0 -0.9656,0.72057 -0.9656,0.72057 l 0,0 c -1.04278,-1.41918 -1.75327,-2.98902 -2.14078,-4.71409 -0.45755,-2.52085 -1.14548,-4.99073 -1.64995,-7.50128 -0.87712,-2.942762 -1.90374,-5.869622 -3.26289,-8.624932 -1.35509,-3.05495 -2.74973,-6.09228 -3.9264,-9.22279 0,0 1.14299,-0.381 1.14299,-0.381 z"
     inkscape:connector-curvature="0" />
  <path
     style="fill:#000000;fill-opacity:1;stroke-width:1.05299997;stroke-miterlimit:4;stroke-dasharray:none;stroke-dashoffset:0"
     id="path4932"
     d="m 522.289,116.92149 c -0.24206,2.86506 0.50804,5.56362 2.53247,7.61916 0.30569,0.20313 0.55158,0.57588 0.91708,0.6094 0.28225,0.0259 0.48731,-0.29134 0.71534,-0.4597 1.86575,-1.37753 3.00395,-3.09875 4.05921,-5.1305 0.1392,-0.43054 0.29492,-0.8561 0.4176,-1.29164 0.29156,-1.03505 0.242,-1.46291 0.27859,-1.43632 1.39798,1.01604 1.15264,0.36628 1.05407,1.84431 0.20377,3.45081 0.86408,6.84498 1.34854,10.26166 0.4264,4.08907 1.09466,8.22684 0.34272,12.30655 -1.07138,3.2851 -4.05088,4.02923 -7.15856,3.68283 -3.40781,-0.78145 -6.44914,-2.54733 -8.38054,-5.48806 0,0 1.01422,-0.65034 1.01422,-0.65034 l 0,0 c 1.66195,2.67006 4.50896,4.19797 7.51012,4.94219 2.44224,0.31906 4.92568,-0.10731 5.83076,-2.70959 0.75983,-3.94102 0.0261,-7.96197 -0.35161,-11.91451 -0.49566,-3.49851 -1.18153,-6.97518 -1.35777,-10.51142 0.0935,-1.38454 -0.22802,-1.12355 1.35272,-1.74506 0.0551,-0.0217 -7.7e-4,0.11882 -0.008,0.17757 -0.13996,1.06186 -0.43634,2.09241 -0.82455,3.08988 -1.09861,2.09016 -3.58977,6.50438 -6.5207,6.02785 -0.44328,-0.0721 -0.7375,-0.51269 -1.10624,-0.76904 -2.25034,-2.37729 -3.16647,-5.38217 -2.85338,-8.65329 0,0 1.18842,0.19807 1.18842,0.19807 z"
     inkscape:connector-curvature="0" />
  <path
     style="fill:#000000;fill-opacity:1;stroke-width:1.05299997;stroke-miterlimit:4;stroke-dasharray:none;stroke-dashoffset:0"
     id="path4944-7"
     d="m 513.64452,112.61655 c -2.32906,2.23456 -4.45322,4.67818 -6.3938,7.25537 -1.89469,2.31467 -3.38464,4.90759 -5.06323,7.36971 -0.21312,0.33357 -0.41154,0.677 -0.63936,1.00071 -0.36491,0.51849 -0.95587,1.17268 -1.29708,1.72235 -0.0526,0.0847 -0.46131,0.71376 -0.28015,0.96836 0.0384,0.054 0.0697,-0.11271 0.10449,-0.16907 1.63542,-0.15635 3.32394,-0.22514 4.97894,-0.31137 2.42632,-0.11725 4.85568,-0.14142 7.28436,-0.15789 0.42899,0.0477 0.85926,0.0851 1.28696,0.1432 0.35941,0.0489 4.05896,0.87656 3.8979,0.46387 -0.0963,-0.0257 -0.23877,0.009 -0.28891,-0.0771 -0.30516,-0.5243 -0.36344,-1.15923 -0.59548,-1.71973 -0.56372,-1.36164 -1.13705,-2.70041 -1.64244,-4.08599 -1.12393,-3.06293 -2.49225,-6.02697 -3.39805,-9.16531 -0.10003,-0.44958 -0.20005,-0.89917 -0.30008,-1.34875 0,0 1.1763,-0.26066 1.1763,-0.26066 l 0,0 c 0.0939,0.42537 0.18773,0.85075 0.28159,1.27612 0.89362,3.11283 2.26537,6.04715 3.37239,9.08651 0.52976,1.45864 2.28663,4.69707 2.30754,6.13217 0.006,0.38454 -0.13499,0.75722 -0.20248,1.13583 -1.79505,0.92133 -3.96011,-0.41795 -5.88708,-0.37539 -2.4105,0.0163 -4.82168,0.0401 -7.22986,0.15629 -1.94828,0.10143 -4.04799,0.52674 -5.92486,-0.0724 -0.14097,-0.24585 -0.36478,-0.46017 -0.42289,-0.73754 -0.33749,-1.61069 1.93332,-2.95037 2.42336,-4.28378 1.6934,-2.47433 3.18682,-5.0883 5.09608,-7.41546 1.97733,-2.61956 4.13334,-5.10933 6.50391,-7.38201 0,0 0.85193,0.85194 0.85193,0.85194 z"
     inkscape:connector-curvature="0" />
  <path
     style="fill:#000000;fill-opacity:1;stroke-width:1.05299997;stroke-miterlimit:4;stroke-dasharray:none;stroke-dashoffset:0"
     id="path5064"
     d="m 542.77032,128.17788 c 0.88721,2.27887 1.80345,4.61576 1.65148,7.09229 -0.44112,1.9599 -2.00631,2.71934 -3.87104,2.81548 -1.98814,-0.2426 -3.45202,-1.41716 -4.16749,-3.25952 0,0 0.79873,-0.29636 0.79873,-0.29636 l 0,0 c 0.5259,1.5101 1.75725,2.45647 3.33637,2.70456 1.41451,-0.0292 2.67027,-0.54678 3.05353,-2.02301 0.18336,-2.33283 -0.78395,-4.54843 -1.58464,-6.69784 0,0 0.78306,-0.3356 0.78306,-0.3356 z"
     inkscape:connector-curvature="0" />
  <path
     style="fill:#000000;fill-opacity:1;stroke-width:1.05299997;stroke-miterlimit:4;stroke-dasharray:none;stroke-dashoffset:0"
     id="path5066"
     d="m 551.87033,125.03984 c 0.23245,2.58799 0.51819,5.16988 0.69654,7.76261 0,0 -0.84993,0.0584 -0.84993,0.0584 l 0,0 c -0.1795,-2.61219 -0.4721,-5.21297 -0.69854,-7.82104 0,0 0.85193,0 0.85193,0 z"
     inkscape:connector-curvature="0" />
  <path
     style="fill:#000000;fill-opacity:1;stroke-width:1.05299997;stroke-miterlimit:4;stroke-dasharray:none;stroke-dashoffset:0"
     id="path5068"
     d="m 546.35093,128.81094 c 3.02135,-0.33155 6.05584,-0.52254 9.09167,-0.65637 0,0 0.0375,0.85111 0.0375,0.85111 l 0,0 c -3.01694,0.13288 -6.03254,0.3226 -9.0351,0.65199 0,0 -0.0941,-0.84673 -0.0941,-0.84673 z"
     inkscape:connector-curvature="0" />
  <path
     style="fill:#000000;fill-opacity:1;stroke-width:1.05299997;stroke-miterlimit:4;stroke-dasharray:none;stroke-dashoffset:0"
     id="path5070"
     d="m 561.24163,124.18791 c 0.23244,2.58799 0.51819,5.16988 0.69653,7.7626 0.052,0.3135 0.10391,0.627 0.15587,0.9405 0,0 -0.84075,0.13764 -0.84075,0.13764 l 0,0 c -0.055,-0.3399 -0.11003,-0.6798 -0.16504,-1.0197 -0.17951,-2.61219 -0.47211,-5.21297 -0.69855,-7.82104 0,0 0.85194,0 0.85194,0 z"
     inkscape:connector-curvature="0" />
  <path
     style="fill:#000000;fill-opacity:1;stroke-width:1.05299997;stroke-miterlimit:4;stroke-dasharray:none;stroke-dashoffset:0"
     id="path4914-6-4"
     d="m 485.9928,196.43724 c -0.38772,3.11665 -0.76724,6.23173 -0.98755,9.36086 0.0165,2.9342 -0.56721,5.82267 -0.95181,8.72844 -0.33616,2.62078 -0.41206,5.25681 -0.4581,7.89051 -0.0286,2.26409 -0.022,4.52836 -0.0188,6.79256 0.004,2.05988 0.005,4.11975 0.006,6.17963 7e-4,2.04782 6.7e-4,4.09565 6.8e-4,6.14348 -0.008,2.04864 0.5765,4.05917 0.86859,6.08849 0.2664,2.06137 0.30599,4.13655 0.33397,6.20811 0.017,2.0527 0.0101,4.10546 0.007,6.1582 -0.003,2.0504 -0.004,4.1008 -0.005,6.1512 -4.6e-4,2.05052 -4.2e-4,4.10104 -4.1e-4,6.15156 2e-5,2.05056 4e-5,4.10112 5e-5,6.15169 0,2.05056 0,4.10111 10e-6,6.15167 0,2.05057 0,4.10114 0,6.1517 0,2.05056 0,4.10112 0,6.15169 0,2.34249 0,4.68498 0,7.02747 0,2.7176 0,5.43519 0,8.15277 0,0.37421 0,0.74842 0,1.12263 0,0 -1.20482,0 -1.20482,0 l 0,0 c 0,-0.37421 0,-0.74842 0,-1.12263 0,-2.71758 0,-5.43517 0,-8.15277 0,-2.34249 0,-4.68498 0,-7.02747 0,-2.05057 0,-4.10113 0,-6.15169 0,-2.05056 0,-4.10113 0,-6.1517 0,-2.05055 0,-4.10111 -10e-6,-6.15167 -1e-5,-2.05057 -3e-5,-4.10113 -5e-5,-6.15169 -1e-5,-2.05061 -5e-5,-4.10122 4.1e-4,-6.15182 6.1e-4,-2.05072 0.002,-4.10144 0.005,-6.15216 0.003,-2.0484 0.01,-4.09684 -0.007,-6.14522 -0.0274,-2.03389 -0.0651,-4.07138 -0.32513,-6.0954 -0.29716,-2.07054 -0.89555,-4.12149 -0.87751,-6.21296 -10e-6,-2.0477 2e-5,-4.0954 -6.8e-4,-6.1431 -9e-4,-2.05959 -0.002,-4.11918 -0.006,-6.17877 -0.003,-2.26969 -0.01,-4.53948 0.019,-6.80907 0.0467,-2.66696 0.12465,-5.33624 0.46555,-7.99008 0.38284,-2.88807 0.96415,-5.75852 0.94639,-8.67497 0.21927,-3.10858 0.58706,-6.20431 0.98539,-9.29949 0,0 1.20481,0 1.20481,0 z"
     inkscape:connector-curvature="0" />
  <path
     style="fill:#000000;fill-opacity:1;stroke-width:1.05299997;stroke-miterlimit:4;stroke-dasharray:none;stroke-dashoffset:0"
     id="path4918-9-8"
     d="m 477.55906,287.95578 c 0.43623,3.01284 0.5975,6.06809 1.12171,9.06596 0.62939,2.53481 1.26535,5.11708 2.14044,7.58269 0.64316,1.82104 1.31377,3.65432 2.23052,5.3585 0.13811,0.26853 0.28693,0.53181 0.41432,0.80559 0.90023,1.93468 -0.13486,-0.18442 0.6802,1.86153 0.0376,0.0943 0.30909,0.74085 0.56847,0.81166 0.0671,0.0183 -0.075,-0.11711 -0.11252,-0.17567 0.70685,-1.45399 1.09496,-3.13946 1.51299,-4.72014 0.80918,-2.82274 1.37319,-5.69951 2.05427,-8.55294 0.56967,-2.60133 1.32738,-5.15257 2.06258,-7.71091 0,0 1.15792,0.33288 1.15792,0.33288 l 0,0 c -0.73072,2.54089 -1.4835,5.07456 -2.04876,7.6584 -0.68651,2.86175 -1.25013,5.7489 -2.06129,8.58082 -0.51703,1.95224 -0.77279,4.55717 -2.69117,5.61663 -1.87205,-0.46735 -1.68728,-2.49852 -2.60086,-3.94233 -0.92933,-1.76622 -1.65096,-3.64002 -2.30313,-5.52396 -0.88542,-2.53405 -1.5585,-5.17236 -2.19105,-7.77669 -0.52874,-3.06699 -0.71458,-6.18847 -1.13946,-9.27202 0,0 1.20482,0 1.20482,0 z"
     inkscape:connector-curvature="0" />
  <path
     style="fill:#000000;fill-opacity:1;stroke-width:1.05299997;stroke-miterlimit:4;stroke-dasharray:none;stroke-dashoffset:0"
     id="path4926-4-4"
     d="m 485.67365,192.86917 c -1.29587,3.25221 -2.64292,6.48139 -3.91588,9.74314 -1.27191,2.77231 -2.22122,5.67328 -3.443,8.46592 -0.68173,1.62821 -1.46418,3.20246 -2.09259,4.85318 0,0 -1.12565,-0.42954 -1.12565,-0.42954 l 0,0 c 0.63791,-1.66795 1.42212,-3.26241 2.11469,-4.90713 1.21818,-2.77628 2.15549,-5.6647 3.4242,-8.42052 1.26595,-3.24274 2.60276,-6.45434 3.89524,-9.68605 0,0 1.14299,0.381 1.14299,0.381 z"
     inkscape:connector-curvature="0" />
  <path
     style="fill:#000000;fill-opacity:1;stroke-width:1.05299997;stroke-miterlimit:4;stroke-dasharray:none;stroke-dashoffset:0"
     id="path4928-3-1"
     d="m 485.0453,190.07853 c 1.16648,3.09317 2.54489,6.09553 3.88472,9.11521 1.38073,2.80181 2.42188,5.7779 3.31606,8.76888 0.51899,2.55264 1.21353,5.06628 1.68084,7.6303 0.36611,1.53284 0.96687,2.95466 1.92101,4.20913 0,0 -0.9656,0.72057 -0.9656,0.72057 l 0,0 c -1.04278,-1.41918 -1.75327,-2.98902 -2.14078,-4.71409 -0.45755,-2.52085 -1.14548,-4.99073 -1.64995,-7.50128 -0.87712,-2.94276 -1.90374,-5.86962 -3.26289,-8.62493 -1.35509,-3.05495 -2.74973,-6.09228 -3.9264,-9.22279 0,0 1.14299,-0.381 1.14299,-0.381 z"
     inkscape:connector-curvature="0" />
  <path
     style="fill:#000000;fill-opacity:1;stroke-width:1.05299997;stroke-miterlimit:4;stroke-dasharray:none;stroke-dashoffset:0"
     id="path4932-6"
     d="m 521.53617,247.99699 c -0.24206,2.86506 0.50804,5.56362 2.53247,7.61916 0.30569,0.20313 0.55158,0.57588 0.91708,0.6094 0.28225,0.0259 0.48731,-0.29134 0.71534,-0.4597 1.86575,-1.37753 3.00395,-3.09875 4.05921,-5.1305 0.1392,-0.43054 0.29492,-0.8561 0.4176,-1.29164 0.29156,-1.03505 0.242,-1.46291 0.27859,-1.43632 1.39798,1.01604 1.15264,0.36628 1.05407,1.84431 0.20377,3.45081 0.86408,6.84498 1.34854,10.26166 0.4264,4.08907 1.09466,8.22684 0.34272,12.30655 -1.07138,3.2851 -4.05088,4.02923 -7.15856,3.68283 -3.40781,-0.78145 -6.44914,-2.54733 -8.38054,-5.48806 0,0 1.01422,-0.65034 1.01422,-0.65034 l 0,0 c 1.66195,2.67006 4.50896,4.19797 7.51012,4.94219 2.44224,0.31906 4.92568,-0.10731 5.83076,-2.70959 0.75983,-3.94102 0.0261,-7.96197 -0.35161,-11.91451 -0.49566,-3.49851 -1.18153,-6.97518 -1.35777,-10.51142 0.0935,-1.38454 -0.22802,-1.12355 1.35272,-1.74506 0.0551,-0.0217 -7.7e-4,0.11882 -0.008,0.17757 -0.13996,1.06186 -0.43634,2.09241 -0.82455,3.08988 -1.09861,2.09016 -3.58977,6.50438 -6.5207,6.02785 -0.44328,-0.0721 -0.7375,-0.51269 -1.10624,-0.76904 -2.25034,-2.37729 -3.16647,-5.38217 -2.85338,-8.65329 0,0 1.18842,0.19807 1.18842,0.19807 z"
     inkscape:connector-curvature="0" />
  <path
     style="fill:#000000;fill-opacity:1;stroke-width:1.05299997;stroke-miterlimit:4;stroke-dasharray:none;stroke-dashoffset:0"
     id="path4944-7-8"
     d="m 512.89169,243.69205 c -2.32906,2.23456 -4.45322,4.67818 -6.3938,7.25537 -1.89469,2.31467 -3.38464,4.90759 -5.06323,7.36971 -0.21312,0.33357 -0.41154,0.677 -0.63936,1.00071 -0.36491,0.51849 -0.95587,1.17268 -1.29708,1.72235 -0.0526,0.0847 -0.46131,0.71376 -0.28015,0.96836 0.0384,0.054 0.0697,-0.11271 0.10449,-0.16907 1.63542,-0.15635 3.32394,-0.22514 4.97894,-0.31137 2.42632,-0.11725 4.85568,-0.14142 7.28436,-0.15789 0.42899,0.0477 0.85926,0.0851 1.28696,0.1432 0.35941,0.0489 4.05896,0.87656 3.8979,0.46387 -0.0963,-0.0257 -0.23877,0.009 -0.28891,-0.0771 -0.30516,-0.5243 -0.36344,-1.15923 -0.59548,-1.71973 -0.56372,-1.36164 -1.13705,-2.70041 -1.64244,-4.08599 -1.12393,-3.06293 -2.49225,-6.02697 -3.39805,-9.16531 -0.10003,-0.44958 -0.20005,-0.89917 -0.30008,-1.34875 0,0 1.1763,-0.26066 1.1763,-0.26066 l 0,0 c 0.0939,0.42537 0.18773,0.85075 0.28159,1.27612 0.89362,3.11283 2.26537,6.04715 3.37239,9.08651 0.52976,1.45864 2.28663,4.69707 2.30754,6.13217 0.006,0.38454 -0.13499,0.75722 -0.20248,1.13583 -1.79505,0.92133 -3.96011,-0.41795 -5.88708,-0.37539 -2.4105,0.0163 -4.82168,0.0401 -7.22986,0.15629 -1.94828,0.10143 -4.04799,0.52674 -5.92486,-0.0724 -0.14097,-0.24585 -0.36478,-0.46017 -0.42289,-0.73754 -0.33749,-1.61069 1.93332,-2.95037 2.42336,-4.28378 1.6934,-2.47433 3.18682,-5.0883 5.09608,-7.41546 1.97733,-2.61956 4.13334,-5.10933 6.50391,-7.38201 0,0 0.85193,0.85194 0.85193,0.85194 z"
     inkscape:connector-curvature="0" />
  <path
     style="fill:#000000;fill-opacity:1;stroke-width:1.05299997;stroke-miterlimit:4;stroke-dasharray:none;stroke-dashoffset:0"
     id="path5064-0"
     d="m 542.01749,259.25338 c 0.88721,2.27887 1.80345,4.61576 1.65148,7.09229 -0.44112,1.9599 -2.00631,2.71934 -3.87104,2.81548 -1.98814,-0.2426 -3.45202,-1.41716 -4.16749,-3.25952 0,0 0.79873,-0.29636 0.79873,-0.29636 l 0,0 c 0.5259,1.5101 1.75725,2.45647 3.33637,2.70456 1.41451,-0.0292 2.67027,-0.54678 3.05353,-2.02301 0.18336,-2.33283 -0.78395,-4.54843 -1.58464,-6.69784 0,0 0.78306,-0.3356 0.78306,-0.3356 z"
     inkscape:connector-curvature="0" />
  <path
     style="fill:none;stroke:#000000;stroke-width:1px;stroke-linecap:butt;stroke-linejoin:miter;stroke-opacity:1"
     d="m 541.22114,125.07653 0.85193,-1.70387"
     id="path5117"
     inkscape:connector-curvature="0" />
  <path
     style="fill:none;stroke:#000000;stroke-width:1px;stroke-linecap:butt;stroke-linejoin:miter;stroke-opacity:1"
     d="m 542.07307,256.27466 -2.55581,-0.85194"
     id="path5119"
     inkscape:connector-curvature="0" />
  <path
     style="fill:none;stroke:#000000;stroke-width:1.3109585;stroke-linecap:butt;stroke-linejoin:miter;stroke-miterlimit:4;stroke-opacity:1;stroke-dasharray:15.73150235, 15.73150235;stroke-dashoffset:0"
     d="M 410.6879,57.119334 188.10728,348.37463"
     id="path4136"
     inkscape:connector-curvature="0" />
  <path
     style="fill:none;stroke:#000000;stroke-width:1px;stroke-linecap:butt;stroke-linejoin:miter;stroke-opacity:1"
     d="m 186.74699,347.32529 68.6747,0"
     id="path4237"
     inkscape:connector-curvature="0" />
  <path
     style="color:#000000;fill:#000000;fill-opacity:1;fill-rule:nonzero;stroke-width:1;stroke-linecap:butt;stroke-linejoin:miter;stroke-miterlimit:4;stroke-opacity:1;stroke-dasharray:12, 12;stroke-dashoffset:0;marker:none;visibility:visible;display:inline;overflow:visible;enable-background:accumulate"
     id="path4175-2"
     d="m 224.9417,326.19675 c -1.37673,2.99183 -3.24584,5.69696 -5.08116,8.41815 -1.57744,1.94422 -2.94921,4.34266 -5.64492,4.57961 -2.49766,-0.68065 -2.81159,-3.13177 -2.71874,-5.36289 0.39205,-2.29849 1.34683,-4.11068 3.62523,-4.88874 2.42886,-0.34247 4.43052,1.38109 6.33477,2.65294 2.52919,1.94219 4.85267,4.16378 7.19077,6.33565 1.39444,1.15678 2.68877,2.39455 4.20674,3.38949 0,0 -0.66337,1.00576 -0.66337,1.00576 l 0,0 c -1.56791,-1.03999 -2.92585,-2.30286 -4.36337,-3.51253 -2.29132,-2.12856 -4.56858,-4.30499 -7.04019,-6.21664 -1.57998,-1.05642 -3.3079,-2.60913 -5.30685,-2.50443 -1.81515,0.48261 -2.42355,2.08687 -2.78015,3.79312 -0.0743,1.4957 -0.0877,3.34025 1.46656,4.10443 2.18926,0.1022 3.39385,-2.71035 4.69469,-4.04951 1.82404,-2.70385 3.67859,-5.3914 5.04686,-8.36428 0,0 1.03313,0.61987 1.03313,0.61987 z"
     inkscape:connector-curvature="0" />
  <path
     style="color:#000000;fill:#000000;fill-opacity:1;fill-rule:nonzero;stroke-width:1;stroke-linecap:butt;stroke-linejoin:miter;stroke-miterlimit:4;stroke-opacity:1;stroke-dasharray:12, 12;stroke-dashoffset:0;marker:none;visibility:visible;display:inline;overflow:visible;enable-background:accumulate"
     id="path4257"
     d="m 219.81477,307.36157 c 3.35333,1.30939 6.73219,2.62668 9.94272,4.09888 2.63345,1.17396 5.17899,2.55888 7.1356,4.25483 1.70537,1.37497 3.09429,2.96192 4.17129,4.60913 1.36394,1.61356 2.45576,3.33728 3.32916,5.10248 0.95419,2.18173 1.11886,4.46375 1.23419,6.72483 0.0768,2.27895 0.0554,4.55877 0.0474,6.83813 -0.008,2.34893 -0.011,4.69786 -0.0145,7.0468 0,0 -1.65188,-9.4e-4 -1.65188,-9.4e-4 l 0,0 c 0.003,-2.34947 0.007,-4.69894 0.0145,-7.0484 0.008,-2.26527 0.0291,-4.53099 -0.0465,-6.79585 -0.10887,-2.15088 -0.25428,-4.32297 -1.14807,-6.40089 -0.85092,-1.73446 -1.94073,-3.41899 -3.2735,-5.00471 -1.00671,-1.56753 -2.3479,-3.06684 -3.9627,-4.37109 -1.81844,-1.61573 -4.28626,-2.89496 -6.75406,-4.01168 -3.18259,-1.46663 -6.54683,-2.76615 -9.87365,-4.06881 0,0 0.8499,-0.97252 0.8499,-0.97252 z"
     inkscape:connector-curvature="0" />
  <g
     id="g10581"
     transform="matrix(-1,0,0,-1,734.2568,328.51247)">
    <path
       inkscape:connector-curvature="0"
       d="m 405.53482,242.52519 c -1.53037,1.35454 -2.86742,3.08491 -2.77001,5.21141 0.63419,1.39792 2.46069,1.56344 3.8213,1.49482 1.48202,-0.36136 2.64193,-1.49448 2.35111,-3.08214 -0.36636,-1.4972 -1.37389,-2.56617 -2.73481,-3.21467 -0.72402,-0.2212 -1.17164,0.005 -1.7713,0.38241 0,0 -0.58559,-1.05294 -0.58559,-1.05294 l 0,0 c 0.98983,-0.50825 1.77901,-0.81624 2.89031,-0.40977 1.71524,0.87015 2.97626,2.22596 3.39791,4.15376 0.18872,2.32505 -1.21527,3.96705 -3.50621,4.42746 -2.08726,0.0462 -4.42915,-0.39626 -5.06736,-2.67796 0.006,-2.53302 1.34695,-4.58299 3.25176,-6.19623 0,0 0.72289,0.96385 0.72289,0.96385 z"
       id="path3076-1"
       style="stroke-width:0.1;stroke-miterlimit:4;stroke-dasharray:0.4, 0.4;stroke-dashoffset:0" />
    <path
       inkscape:connector-curvature="0"
       d="m 281.85311,144.74682 c 2.74795,0 5.4959,0 8.24384,0 2.56009,0 5.12017,0 7.68026,0 2.69468,-0.16005 5.33759,0.43726 8.00088,0.75866 4.15284,0.41631 8.33019,0.43545 12.49845,0.47729 4.32978,0.0305 8.65969,0.0265 12.98955,0.0233 3.2934,-0.003 6.5868,-0.005 9.8802,-0.006 3.64489,-7.7e-4 7.28977,-7.3e-4 10.93466,-7.5e-4 3.31533,10e-6 6.63066,4e-5 9.94598,5e-5 3.36242,1e-5 6.72483,1e-5 10.08725,2e-5 3.58157,-0.34761 7.15018,-0.78669 10.74152,-1.02427 3.65476,-0.214 7.31685,-0.21848 10.9762,-0.23347 2.88517,-0.11133 5.79504,0.19869 8.66681,-0.14461 2.65835,-0.52247 5.3463,-0.79269 8.04407,-0.96084 2.56675,-0.13528 5.1374,-0.14361 7.70677,-0.15014 2.61838,0.0948 3.69191,1.82333 4.22097,4.25874 0.36265,2.69094 0.285,5.42185 0.2748,8.13224 -0.0192,2.79786 -0.0332,5.59573 -0.0402,8.39365 -0.0593,2.9655 -0.054,5.90111 0.33096,8.84158 0.47469,3.27897 0.6712,6.58642 0.7891,9.89662 0.41762,2.9871 0.84393,5.96313 1.07162,8.97422 0.19366,3.04617 0.20509,6.10079 0.21844,9.15234 0.005,3.47775 -3.3e-4,6.9555 -0.003,10.43324 0.29807,3.19304 0.73284,6.36768 0.98094,9.56634 0.18526,2.64341 0.21004,5.29461 0.22512,7.94372 0.007,2.80616 10e-4,5.61233 -0.001,8.41848 0.0459,2.67255 0.0595,5.31064 -0.35451,7.95168 -0.45791,2.45944 -0.66205,4.95284 -0.77683,7.4513 -0.0738,2.54453 -0.66575,5.03292 -0.96334,7.55676 -0.31643,2.41264 0.0202,4.8783 -0.85109,7.17109 -1.16192,1.84192 -3.42036,1.39445 -5.26346,1.33855 -2.57848,-0.10229 -5.15809,-0.16082 -7.73816,-0.19415 -3.13046,-0.0284 -6.26108,-0.0263 -9.39163,-0.0271 -3.51028,-0.0507 -6.99676,-0.0641 -10.48565,0.35385 -3.71694,0.47852 -7.45714,0.69284 -11.1983,0.81915 -3.31573,0.0917 -6.63298,0.0891 -9.94962,0.0902 -3.37666,-0.002 -6.75332,-0.005 -10.12998,-0.007 -3.0752,-0.002 -6.1504,-0.002 -9.22561,-0.002 -3.47248,-7e-5 -6.94496,-3e-5 -10.41744,-10e-6 -3.08551,2e-5 -6.17102,3e-5 -9.25652,3e-5 -2.7742,0 -5.54839,0 -8.32258,0 -2.68183,0 -5.36365,0 -8.04548,0 -3.30835,0 -6.61669,0 -9.92504,0 -2.73657,0 -5.47313,0 -8.2097,0 -2.41627,0 -4.83254,0 -7.24882,0 -2.53941,0.21261 -4.21491,-0.6854 -5.14657,-3.14019 -0.58032,-2.3557 -0.52339,-4.81298 -0.52765,-7.22677 0.0138,-2.77184 0.0311,-5.54365 0.0407,-8.31551 0.008,-2.66838 0.009,-5.33678 0.0102,-8.00517 3.8e-4,-2.51277 1.2e-4,-5.02554 10e-6,-7.53831 -1.1e-4,-2.50299 -1.4e-4,-5.00599 -1.6e-4,-7.50898 -10e-6,-2.50481 -10e-6,-5.00962 -10e-6,-7.51442 0,-2.50508 0,-5.01015 0,-7.51522 0,-2.50506 0,-5.01012 0,-7.51518 0,-2.50506 0,-5.01012 0,-7.51517 0,-2.50506 0,-5.01012 0,-7.51518 0,-2.50505 0,-5.01011 0,-7.51516 0,-2.75655 0,-5.5131 0,-8.26965 0,-2.66554 0,-5.33108 0,-7.99661 0.0484,-2.50122 0.059,-4.96637 -0.33498,-7.43639 -0.46751,-2.50203 -0.67398,-5.03935 -0.79121,-7.58133 -0.0863,-2.05706 -0.2616,-4.06311 0.4426,-6.01526 0,0 1.12071,0.45979 1.12071,0.45979 l 0,0 c -0.70931,1.74688 -0.3692,3.64323 -0.35987,5.49562 0.11448,2.49365 0.31672,4.98264 0.77645,7.43692 0.40238,2.53823 0.40495,5.07106 0.35112,7.64065 0,2.66553 0,5.33107 0,7.99661 0,2.75655 0,5.5131 0,8.26965 0,2.50505 0,5.01011 0,7.51516 0,2.50506 0,5.01012 0,7.51518 0,2.50505 0,5.01011 0,7.51517 0,2.50506 0,5.01012 0,7.51519 0,2.50506 0,5.01013 0,7.51521 0,2.5048 0,5.00961 10e-6,7.51441 2e-5,2.50298 5e-5,5.00596 1.6e-4,7.50894 1.1e-4,2.5129 3.7e-4,5.02581 -1e-5,7.53873 -7.3e-4,2.66978 -0.002,5.33956 -0.0102,8.00934 -0.01,2.7696 -0.0269,5.53914 -0.0407,8.30872 0.004,2.26437 -0.0507,4.5669 0.4495,6.78524 0.69289,2.01024 1.9812,2.50377 4.0199,2.33145 2.41628,0 4.83255,0 7.24882,0 2.73657,0 5.47313,0 8.2097,0 3.30835,0 6.61669,0 9.92504,0 2.68183,0 5.36365,0 8.04548,0 2.77419,0 5.54838,0 8.32257,0 3.08551,0 6.17102,-2e-5 9.25653,-4e-5 3.47249,-2e-5 6.94499,-6e-5 10.41749,10e-6 3.07541,1.2e-4 6.15082,1.8e-4 9.22623,0.002 3.3763,0.002 6.75261,0.005 10.12892,0.007 3.30374,-0.001 6.60809,10e-4 9.91093,-0.0896 3.70819,-0.12499 7.41546,-0.33707 11.09962,-0.81161 3.53495,-0.42241 7.06734,-0.41566 10.62372,-0.36206 3.13544,8.4e-4 6.27095,-10e-4 9.40629,0.0272 2.58682,0.0335 5.17319,0.0921 7.75842,0.19459 1.25237,0.0381 3.17134,0.48949 4.11469,-0.5648 0.90133,-2.13946 0.36539,-4.5829 0.76879,-6.84551 0.29496,-2.49307 0.87704,-4.95157 0.95574,-7.46398 0.11749,-2.54602 0.32573,-5.08701 0.79123,-7.59346 0.40595,-2.57389 0.37892,-5.14562 0.33873,-7.75085 0.003,-2.80329 0.008,-5.60658 10e-4,-8.40986 -0.0149,-2.61803 -0.0388,-5.23812 -0.22125,-7.85056 -0.25024,-3.23248 -0.69894,-6.43961 -0.98483,-9.66793 0.003,-3.4755 0.009,-6.95102 0.003,-10.42652 -0.0132,-3.02075 -0.0241,-6.04455 -0.21475,-9.06002 -0.22835,-3.02858 -0.6686,-6.01968 -1.07449,-9.02595 -0.1162,-3.26932 -0.30957,-6.53595 -0.77898,-9.77437 -0.3907,-2.99775 -0.40483,-5.99051 -0.34191,-9.01339 0.007,-2.79846 0.0211,-5.59688 0.0403,-8.39529 0.01,-2.6189 0.0835,-5.25632 -0.24673,-7.85849 -0.38299,-1.87317 -0.98967,-3.19473 -3.04129,-3.27505 -2.54634,0.006 -5.09395,0.0144 -7.63771,0.1479 -2.67733,0.16636 -5.34385,0.4382 -7.98218,0.95531 -2.91774,0.33056 -5.86545,0.0597 -8.79595,0.15237 -3.63544,0.0149 -7.27359,0.019 -10.9045,0.23095 -3.61684,0.23891 -7.2099,0.68963 -10.81797,1.02679 -3.36242,0 -6.72484,0 -10.08725,-10e-6 -3.31533,-2e-5 -6.63065,-5e-5 -9.94597,-5e-5 -3.64478,2e-5 -7.28956,-2e-5 -10.93433,7.5e-4 -3.29323,9.6e-4 -6.58645,0.003 -9.87967,0.006 -4.33403,0.003 -8.66811,0.007 -13.00206,-0.0234 -4.21083,-0.0423 -8.43085,-0.0625 -12.62592,-0.48561 -2.61752,-0.3167 -5.21364,-0.90764 -7.86177,-0.75028 -2.56009,0 -5.12017,0 -7.68026,0 -2.74794,0 -5.49589,0 -8.24384,0 0,0 0,-1.25253 0,-1.25253 z"
       id="path3248"
       style="fill:#000000;stroke-width:0.1;stroke-miterlimit:4;stroke-dasharray:0.4, 0.4;stroke-dashoffset:0" />
    <path
       inkscape:connector-curvature="0"
       d="m 282.93976,146.84614 c 0,-3.34736 0,-6.69473 0,-10.0421 0,-2.71779 0,-5.43558 0,-8.15336 0,-2.41448 0,-4.82896 0,-7.24343 0,-2.40513 0,-4.81026 0,-7.21539 0,-2.40928 0,-4.81856 0,-7.22784 0.21152,-2.18379 -0.34231,-4.27186 -0.71664,-6.39903 -0.36502,-2.26732 -0.42576,-4.56664 -0.47208,-6.85797 -0.0328,-2.40627 -0.0252,-4.81285 -0.0226,-7.21927 0.003,-2.41143 0.005,-4.82287 0.006,-7.2343 7.2e-4,-2.40981 7e-4,-4.81961 7.2e-4,-7.22942 -1e-5,-2.40962 -3e-5,-4.81924 -5e-5,-7.22886 -1e-5,-2.40963 -1e-5,-4.81927 -1e-5,-7.2289 0,-2.40964 0,-4.81928 0,-7.22892 0,-2.40964 0,-4.81928 0,-7.22891 0,-2.40964 0,-4.81928 0,-7.22892 0,-2.40964 0,-4.81928 0,-7.22892 -0.33616,-2.39211 -0.75688,-4.76552 -0.98382,-7.17248 0.16325,-2.11027 -0.85304,-4.13472 -0.44944,-6.20664 1.11878,-1.87965 3.47538,-1.80975 5.42304,-1.90624 2.43048,0.26351 4.82757,0.73352 7.26263,0.97476 2.30509,0.0222 4.53252,0.32811 6.78109,0.80049 2.21769,0.52298 4.45524,1.03141 6.6518,1.64658 2.29226,0.75157 4.67052,1.08856 7.06547,1.27786 2.39304,0.14645 4.79186,0.14013 7.18833,0.14195 2.40964,-0.003 4.81927,-0.008 7.22891,-0.0112 2.40985,-0.002 4.8197,-0.003 7.22955,-0.003 2.2369,0.16524 4.38221,-0.0928 6.56402,-0.53368 2.2089,-0.44855 4.46269,-0.55739 6.70915,-0.63098 2.39999,-0.0567 4.8009,-0.0494 7.20138,-0.0479 2.41184,0.003 4.82369,0.005 7.23553,0.007 2.40992,10e-4 4.81985,10e-4 7.22977,10e-4 2.40963,2e-5 4.81925,-10e-6 7.22887,-3e-5 2.41579,0.17863 4.76768,-0.36428 7.13983,-0.71913 2.42017,-0.34497 4.86552,-0.42126 7.30607,-0.46961 2.41368,-0.0327 4.82766,-0.0252 7.24149,-0.0226 2.40949,0.003 4.81899,0.005 7.22848,0.006 2.33015,-0.0932 4.69003,0.18947 7.00348,-0.13791 2.031,-0.4456 3.93152,-1.08191 5.72923,0.23476 1.27123,1.59328 0.69008,3.60529 0.48751,5.4648 -0.23781,2.27925 -0.29286,4.57143 -0.33193,6.86097 -0.0299,2.41138 -0.0261,4.82302 -0.0253,7.23454 0.002,2.41162 0.003,4.82324 0.004,7.23487 5.7e-4,2.40973 5.9e-4,4.81946 6.3e-4,7.2292 0.0939,2.33019 -0.18879,4.69012 0.13861,7.00362 0.48734,2.08827 0.77087,4.20457 0.92899,6.34052 0.0915,2.08976 0.71635,4.10302 1.01226,6.17156 0.27987,2.3166 0.30528,4.65314 0.33018,6.98334 0.015,2.41047 0.008,4.82101 0.005,7.2315 -0.003,2.41102 -0.004,4.82204 -0.005,7.23306 -4.4e-4,2.40972 -3.8e-4,4.81943 -3.7e-4,7.22914 2e-5,2.40963 4e-5,4.81925 5e-5,7.22887 10e-6,2.40964 10e-6,4.81927 10e-6,7.22891 0,2.40964 0,4.81928 0,7.22891 0,2.40964 0,4.81928 0,7.22892 0,2.40964 0,4.81928 0,7.22892 0,2.40963 0,4.81927 0,7.22891 0.0848,1.57868 -0.0263,3.11598 -0.35676,4.65882 0,0 -1.17741,-0.25555 -1.17741,-0.25555 l 0,0 c 0.32118,-1.45824 0.40635,-2.90981 0.32935,-4.40327 0,-2.40964 0,-4.81928 0,-7.22891 0,-2.40964 0,-4.81928 0,-7.22892 0,-2.40964 0,-4.81928 0,-7.22892 0,-2.40963 0,-4.81927 0,-7.22891 0,-2.40964 0,-4.81927 -1e-5,-7.22891 -10e-6,-2.40962 -3e-5,-4.81924 -5e-5,-7.22886 -10e-6,-2.40981 -7e-5,-4.81963 3.7e-4,-7.22944 5.9e-4,-2.41144 0.002,-4.82288 0.005,-7.23431 0.003,-2.4057 0.0103,-4.81143 -0.005,-7.2171 -0.0243,-2.27763 -0.0477,-4.56148 -0.31819,-6.82612 -0.29777,-2.09541 -0.93699,-4.13414 -1.02105,-6.25297 -0.15533,-2.11184 -0.44292,-4.20184 -0.92129,-6.26699 -0.31084,-2.37249 -0.0793,-4.77789 -0.14958,-7.16581 -3e-5,-2.40962 -6e-5,-4.81924 -6.3e-4,-7.22887 -7e-4,-2.41159 -0.002,-4.82319 -0.004,-7.23478 -8.6e-4,-2.41853 -0.005,-4.83717 0.0255,-7.25555 0.0398,-2.32626 0.0966,-4.65515 0.33884,-6.97089 0.15369,-1.41046 0.67146,-3.09286 -0.0441,-4.39482 -1.30177,-1.23471 -3.27612,-0.16606 -4.81274,0.0196 -2.37259,0.31084 -4.7781,0.0793 -7.16612,0.14888 -2.40978,-9.1e-4 -4.81956,-0.003 -7.22934,-0.006 -2.40545,-0.003 -4.81106,-0.0101 -7.21635,0.0223 -2.38891,0.0472 -4.78264,0.1201 -7.15175,0.45661 -2.43046,0.36317 -4.843,0.91178 -7.31797,0.73237 -2.40964,2e-5 -4.81927,5e-5 -7.2289,3e-5 -2.41013,-5e-5 -4.82026,-10e-5 -7.23039,-10e-4 -2.41188,-0.001 -4.82376,-0.004 -7.23564,-0.007 -2.38712,-0.001 -4.77465,-0.009 -7.16128,0.0473 -2.17952,0.0711 -4.36655,0.17345 -6.50986,0.60775 -2.25919,0.45652 -4.48802,0.72161 -6.80256,0.55756 -2.4094,2.1e-4 -4.81881,4.6e-4 -7.22822,0.003 -2.41042,0.003 -4.82084,0.008 -7.23126,0.0112 -2.42795,-0.002 -4.85831,0.004 -7.2827,-0.14572 -2.47281,-0.19693 -4.92899,-0.54588 -7.29651,-1.31913 -2.16869,-0.61326 -4.38252,-1.10913 -6.57317,-1.62727 -2.20693,-0.46365 -4.3889,-0.76039 -6.65241,-0.78065 -2.37597,-0.2363 -4.71815,-0.67016 -7.08465,-0.97031 -1.4027,0.0679 -3.20312,-0.0347 -4.30745,0.97125 -0.53255,1.85382 0.82064,3.90048 0.47441,5.82539 0.22954,2.44467 0.6752,4.85228 0.98912,7.28534 0,2.40964 0,4.81928 0,7.22892 0,2.40964 0,4.81928 0,7.22892 0,2.40963 0,4.81927 0,7.22891 0,2.40964 0,4.81928 0,7.22892 0,2.40963 0,4.81926 1e-5,7.22889 2e-5,2.40963 4e-5,4.81926 5e-5,7.22888 -2e-5,2.40995 0,4.81991 -7.2e-4,7.22986 -9.1e-4,2.41172 -0.003,4.82344 -0.006,7.23516 -0.003,2.39788 -0.0102,4.79592 0.0223,7.19365 0.0449,2.22957 0.10159,4.4671 0.45413,6.67369 0.38533,2.19452 0.94678,4.35546 0.73483,6.60762 0,2.40928 0,4.81856 0,7.22784 0,2.40513 0,4.81026 0,7.21539 0,2.41447 0,4.82895 0,7.24343 0,2.71778 0,5.43557 0,8.15336 0,3.34737 0,6.69474 0,10.0421 0,0 -1.20482,0 -1.20482,0 z"
       id="path4183"
       style="fill:#000000;fill-opacity:1;stroke-width:3;stroke-miterlimit:4;stroke-dasharray:none;stroke-dashoffset:0" />
    <path
       inkscape:connector-curvature="0"
       d="m 405.2763,244.58377 c -0.63113,0.52483 -1.25299,1.06115 -1.80537,1.67005 -0.0552,0.0608 -0.22884,0.27741 -0.12245,0.14504 -0.0717,-0.10281 -0.21877,-0.18312 -0.21516,-0.30842 0.003,-0.0906 0.15305,-0.0971 0.22831,-0.1476 0.4916,-0.32971 0.94283,-0.71209 1.42077,-1.06058 0.32742,-0.29425 0.6726,-0.55344 1.05736,-0.76613 0.20456,-0.11308 0.34191,-0.18082 0.35256,-0.13469 0.0445,0.19258 -0.0134,0.39506 -0.02,0.59259 -0.57241,0.70399 -1.22103,1.33349 -1.87548,1.96036 -0.11417,0.12652 -0.43087,0.46307 -0.54139,0.63118 -0.0398,0.0606 -0.0472,0.27454 -0.0701,0.20579 -0.13774,-0.41354 -0.17702,-0.28087 0.15047,-0.48369 0.72284,-0.48126 1.40893,-1.02141 2.16607,-1.44875 -0.10451,0.21887 0.25221,-0.23999 0.26261,-0.14116 0.0207,0.19601 0.0399,0.40607 -0.0294,0.59056 -0.0609,0.16197 -0.87117,0.83474 -1.01872,0.97689 -0.36248,0.37828 -0.77009,0.71502 -1.12657,1.09909 -0.0607,0.0654 -0.11621,0.13584 -0.16573,0.21 -0.0101,0.0152 -0.008,0.0718 -0.0104,0.0537 -0.0152,-0.11997 -0.0191,-0.2411 -0.0286,-0.36164 0.76841,-0.4034 1.47156,-0.9179 2.2,-1.38718 0.32079,-0.15041 0.96325,-0.76858 0.57697,0.26177 -0.0486,0.12961 -0.20009,0.19133 -0.30013,0.28701 -0.11441,0.10944 -0.22882,0.21889 -0.34323,0.32834 -0.73844,0.5591 -1.39853,1.20672 -2.08793,1.82189 -0.0248,-0.48422 -0.21591,0.4161 -0.25779,0.29295 -0.0464,-0.13639 -0.0902,-0.29146 -0.0487,-0.42945 0.0329,-0.10959 0.90877,-0.60935 1.01975,-0.67915 0.79508,-0.59076 1.64283,-1.09568 2.47915,-1.62362 0.0498,-0.0239 0.12096,-0.11901 0.14955,-0.0717 0.0853,0.14116 0.13458,0.32333 0.1,0.4846 -0.0119,0.0553 -1.17212,0.97372 -1.2781,1.06516 -0.6137,0.47793 -1.24043,0.93613 -1.72124,1.55078 0.14057,-0.0526 -0.0721,-0.24582 -0.0283,-0.35681 0.0256,-0.0648 1.08748,-0.7795 1.22415,-0.88155 0.1027,-0.0769 1.25136,-0.94101 1.32424,-0.733 0.0599,0.17106 -0.013,0.36228 -0.0195,0.54343 -0.26883,0.45605 -0.77641,0.72206 -1.0673,1.15517 0.004,-0.13856 -0.0468,-0.2907 0.0132,-0.4157 0.0914,-0.19065 0.37981,-0.187 0.56133,-0.29545 0.27993,-0.16723 0.54677,-0.36737 0.79515,-0.57745 1.37657,-0.90369 0.021,0.78597 -0.0557,0.90947 -0.009,0.0334 -0.0504,0.0762 -0.0255,0.10011 0.0236,0.0226 0.0415,-0.0601 0.0341,-0.0919 -0.01,-0.0412 -0.0884,-0.0581 -0.0791,-0.0993 0.002,-0.008 0.37945,-0.22413 0.44194,-0.2641 0.32504,-0.28568 0.70583,-0.84085 0.49558,-1.28468 -0.45634,-0.16834 -0.86629,0.38928 -1.14178,0.66618 -0.0909,0.13924 -0.41617,0.41193 -0.3196,0.63248 10e-4,0.003 0.088,-0.11353 0.24664,-0.1926 0.50686,-0.38438 1.05997,-0.91431 1.04657,-1.59464 -0.28606,-0.51646 -0.85519,-0.12459 -1.19375,0.11715 -0.22121,-0.0776 -0.70021,1.01371 -0.24318,0.75297 0.5884,-0.14759 0.89724,-0.69137 1.11636,-1.21142 0.19708,-0.5927 0.36092,-1.21587 -0.23666,-1.59186 -0.59752,-0.11203 -1.12931,0.25615 -1.50361,0.68648 -0.38094,0.42418 -0.875,0.98903 -0.69971,1.59988 0.25712,0.32088 0.63498,0.11175 0.91037,-0.0806 0.45711,-0.49538 0.72311,-1.09575 0.77249,-1.76462 -0.0694,-0.72254 -0.49743,-1.23939 -1.24102,-1.20594 -0.84079,0.23975 -1.12411,1.03964 -1.34278,1.80413 -0.0863,0.72471 0.0556,1.06423 0.78841,0.81267 0.69532,-0.37741 0.90403,-1.09752 1.04401,-1.82357 0.0574,-0.69981 -0.3429,-0.90934 -0.96461,-0.92078 -0.72864,0.13176 -1.16887,0.72884 -1.50219,1.34187 -0.29436,0.69607 -0.49495,1.44542 -0.0824,2.1257 0.4364,0.44098 1.02672,0.54649 1.60027,0.3451 0.51177,-0.36885 0.54002,-1.05116 0.59431,-1.62823 0.0542,-0.63723 8.5e-4,-1.28798 -0.55458,-1.67417 -0.67439,-0.33343 -1.30893,0.0781 -1.77756,0.56209 -0.56839,0.61656 -0.85434,1.32468 -0.72529,2.15782 0.27335,0.64891 0.87169,0.97044 1.54448,1.04581 0.80576,0.0544 1.3995,-0.39583 1.86129,-1.01167 0.38627,-0.6023 0.29225,-1.09839 -0.30821,-1.46063 -0.64176,-0.29656 -1.23519,-0.0824 -1.77216,0.31459 -0.55723,0.53927 -0.69341,1.21884 -0.52795,1.95526 0.3112,0.64161 0.91163,0.97425 1.59931,1.05208 0.71735,-0.072 1.30117,-0.46361 1.65482,-1.08093 0.30082,-0.62788 0.0583,-1.07312 -0.50753,-1.39252 -0.71426,-0.31967 -1.37854,-0.23633 -1.97412,0.26027 -0.51047,0.57751 -0.5012,1.21368 -0.0342,1.80258 0.57008,0.49911 1.27035,0.55202 1.97701,0.3675 0.63916,-0.15759 1.04203,-0.57077 1.10917,-1.22823 -0.12159,-0.67764 -0.77212,-0.84786 -1.36061,-0.96591 -0.86214,-0.0303 -1.74493,0.15113 -2.32514,0.82263 -0.38085,0.58488 -0.18037,1.0576 0.39381,1.35828 0.73581,0.29189 1.48414,0.2395 2.23129,0.0351 0.71502,-0.28788 1.05053,-0.89879 1.09092,-1.6424 -0.0989,-0.72101 -0.71493,-0.90271 -1.33956,-1.03139 -0.74576,-0.12701 -1.48657,0.0476 -2.13302,0.42492 -0.56736,0.28457 -0.90132,0.75256 -0.93623,1.38717 0.13115,0.66326 0.75379,0.84122 1.33508,0.97323 0.75345,0.14662 1.48744,0.14487 2.21318,-0.10713 0.63278,-0.32801 0.86348,-0.96335 0.87678,-1.64151 -0.13197,-0.72081 -0.75685,-1.06721 -1.38997,-1.30263 -0.84005,-0.25421 -1.69679,-0.0412 -2.48417,0.28288 -0.65407,0.35488 -0.97843,0.98181 -1.00499,1.71009 0.12456,0.70744 0.73947,0.91541 1.36153,1.06011 0.83144,0.18062 1.62309,0.0479 2.39251,-0.28662 0.76359,-0.38248 1.31788,-1.00105 1.4634,-1.85162 -0.0794,-0.59849 -0.76385,-0.63295 -1.25074,-0.69687 -0.68611,0.0115 -1.28371,0.29156 -1.64589,0.87596 -0.3051,0.60755 -0.037,1.03177 0.50669,1.33644 0.66631,0.31076 1.25319,0.19517 1.86822,-0.15811 0.49614,-0.4157 0.89221,-0.86036 0.9565,-1.5225 -0.10248,-0.67811 -0.64258,-1.05714 -1.28113,-1.17011 -0.71559,0.0221 -1.15856,0.49927 -1.28828,1.17581 0.0687,0.58759 0.44433,0.81287 0.96673,0.97576 0.75656,0.0847 1.22688,-0.35485 1.53036,-0.9941 0.29728,-0.74791 0.21987,-1.38661 -0.29268,-1.99776 -0.59956,-0.56003 -1.27168,-0.4789 -1.9788,-0.1843 -0.10861,0.0672 -0.25214,0.0972 -0.32581,0.20147 -0.0847,0.11992 -0.0937,0.27973 -0.11658,0.42475 -0.11093,0.70259 0.0146,1.32636 0.45566,1.87816 0.6159,0.36798 0.89279,-0.16072 1.07041,-0.68465 0.11095,-0.77699 -0.1699,-1.44771 -0.61871,-2.06402 -0.512,-0.53201 -1.11349,-0.62708 -1.7673,-0.31989 -0.7183,0.42833 -1.00263,1.08603 -1.03531,1.88869 0.0793,0.7718 0.60609,1.14974 1.28677,1.38885 0.74521,0.23575 1.4206,0.13848 2.07911,-0.26389 0.50732,-0.46191 0.62215,-1.15285 0.59012,-1.80899 -0.1649,-0.76908 -0.73596,-1.14096 -1.43471,-1.37763 -0.84816,-0.13219 -1.45638,0.41536 -1.98775,1.00296 -0.53488,0.68758 -0.68377,1.46775 -0.62254,2.31401 0.14346,0.77967 0.66937,1.1736 1.37772,1.41729 0.76439,0.23674 1.42752,-0.0947 2.06011,-0.50279 0.63703,-0.49783 0.95078,-1.21042 0.9769,-2.0056 -0.0934,-0.76767 -0.59696,-1.24145 -1.34349,-1.35683 -0.82315,-0.0743 -1.42724,0.35119 -1.88545,0.99397 -0.35971,0.6877 -0.50152,1.48356 -0.43192,2.2539 0.1897,0.73465 0.80186,1.12736 1.46722,1.39091 0.79399,0.28196 1.51228,0.0424 2.22139,-0.32557 0.63953,-0.39095 0.79809,-1.04423 0.89943,-1.73862 0.0205,-0.73198 -0.44787,-1.08702 -1.07793,-1.31506 -0.72329,-0.23874 -1.34476,-0.11318 -1.98441,0.26652 -0.62323,0.43186 -0.9663,1.03824 -0.87313,1.79388 0.27718,0.83089 1.03288,1.1988 1.84793,1.33123 0.82599,0.0997 1.42513,-0.22788 1.82252,-0.93597 0.26208,-0.58275 0.19492,-1.25039 -0.46868,-1.46713 -0.65335,-0.007 -1.01086,0.50425 -1.12112,1.09573 0.0837,0.56373 0.59304,0.51275 0.99414,0.3122 0.55511,-0.42839 0.8028,-1.08019 0.67309,-1.76224 -0.0445,-0.0797 -0.0891,-0.15934 -0.13363,-0.23901 0,0 0.37921,-0.19403 0.37921,-0.19403 l 0,0 c 0.0582,0.12118 0.11646,0.24237 0.17468,0.36355 0.12994,0.8827 -0.1664,1.69649 -0.91567,2.21887 -0.78896,0.34038 -1.52263,0.19564 -1.58848,-0.78791 0.19729,-0.85221 0.7517,-1.51166 1.69694,-1.40228 0.93036,0.41892 1.06266,1.17252 0.67811,2.07576 -0.50656,0.85312 -1.25356,1.26828 -2.26435,1.14208 -1.00597,-0.18561 -1.90146,-0.66142 -2.19853,-1.70828 -0.0775,-0.9303 0.30128,-1.67771 1.08301,-2.20479 0.7546,-0.43055 1.50239,-0.58336 2.34716,-0.29732 0.81777,0.31215 1.39428,0.83507 1.35049,1.77669 -0.12531,0.83291 -0.35574,1.59709 -1.12492,2.05439 -0.82226,0.42485 -1.66397,0.66943 -2.57632,0.34246 -0.81825,-0.33398 -1.52955,-0.83921 -1.7327,-1.75134 -0.0653,-0.87478 0.0819,-1.76624 0.51197,-2.53916 0.56851,-0.76889 1.31085,-1.26457 2.3057,-1.16261 0.95541,0.19113 1.59798,0.79054 1.69327,1.79541 -0.0523,0.93617 -0.40819,1.76578 -1.1726,2.34484 -0.74771,0.47629 -1.53572,0.82968 -2.4314,0.54594 -0.8679,-0.31148 -1.50114,-0.83323 -1.6612,-1.7895 -0.0648,-0.96474 0.11855,-1.85391 0.7328,-2.63068 0.65774,-0.71534 1.40998,-1.31767 2.44161,-1.11846 0.86629,0.3047 1.54736,0.8062 1.72118,1.7639 0.0244,0.81981 -0.13475,1.64301 -0.79777,2.19127 -0.77542,0.45248 -1.57209,0.58131 -2.44135,0.29873 -0.85741,-0.31476 -1.49293,-0.83923 -1.56803,-1.80963 0.0506,-0.96707 0.41882,-1.75763 1.28802,-2.25806 0.85431,-0.36265 1.64132,-0.24166 2.28614,0.46085 0.52208,0.73633 0.84218,1.53648 0.67446,2.45384 -0.32993,0.91024 -0.86765,1.45343 -1.8113,0.80103 -0.5801,-0.79277 -0.90009,-2.05858 -0.22138,-2.92464 0.0929,-0.11853 0.25827,-0.15494 0.38741,-0.23241 0.88849,-0.35088 1.74076,-0.40375 2.46907,0.31039 0.5997,0.75554 0.71619,1.54841 0.34482,2.45375 -0.41425,0.82657 -1.06884,1.35972 -2.04377,1.21227 -0.72954,-0.24181 -1.23723,-0.64746 -1.25212,-1.47194 0.2143,-0.90299 0.81699,-1.51622 1.78884,-1.50254 0.85707,0.18926 1.54231,0.70768 1.61957,1.63927 -0.11187,0.79639 -0.54009,1.35621 -1.17112,1.84248 -0.75344,0.41361 -1.48994,0.54471 -2.29211,0.15381 -0.7408,-0.45018 -1.07731,-1.11007 -0.64887,-1.93481 0.47521,-0.71403 1.19515,-1.07443 2.06035,-1.0671 0.75703,0.10334 1.58708,0.2762 1.61275,1.19791 -0.19939,0.9883 -0.80529,1.72047 -1.7139,2.16416 -0.85655,0.36387 -1.73655,0.5133 -2.65907,0.30966 -0.83267,-0.20141 -1.57416,-0.55333 -1.68843,-1.49736 0.0598,-0.89623 0.44877,-1.65508 1.26952,-2.08171 0.89069,-0.36014 1.8504,-0.58393 2.79568,-0.28687 0.81121,0.31125 1.54122,0.78612 1.665,1.71597 -0.0406,0.86136 -0.34672,1.63533 -1.1654,2.0299 -0.80404,0.26835 -1.61378,0.28752 -2.44641,0.1188 -0.79973,-0.1885 -1.55414,-0.50685 -1.66355,-1.4222 0.0755,-0.7704 0.44499,-1.36903 1.1495,-1.72301 0.74488,-0.41822 1.57821,-0.62452 2.43219,-0.4719 0.84419,0.18135 1.58945,0.5147 1.67659,1.47891 -0.0799,0.92775 -0.4991,1.67754 -1.40529,2.02308 -0.85654,0.22626 -1.71369,0.27861 -2.54887,-0.0742 -0.85461,-0.49606 -1.05256,-1.15219 -0.50401,-2.01472 0.70792,-0.76886 1.69884,-1.01931 2.72865,-0.95558 0.82136,0.1741 1.61244,0.48956 1.6967,1.43874 -0.1259,0.82511 -0.60285,1.38307 -1.42884,1.58597 -0.88098,0.20967 -1.737,0.12586 -2.41982,-0.52453 -0.57809,-0.79663 -0.58674,-1.64884 0.10764,-2.3911 0.753,-0.58739 1.57802,-0.70771 2.45779,-0.29472 0.75452,0.46227 1.06987,1.13415 0.65731,1.9758 -0.45921,0.75862 -1.17378,1.23597 -2.07693,1.28658 -0.86902,-0.12606 -1.60935,-0.54458 -1.96082,-1.38696 -0.1801,-0.90876 -0.008,-1.74028 0.69557,-2.38815 0.69369,-0.49084 1.44642,-0.72361 2.25118,-0.32786 0.78866,0.52679 0.9472,1.26533 0.41709,2.07773 -0.56689,0.7321 -1.28767,1.24888 -2.25507,1.17564 -0.86568,-0.12547 -1.60836,-0.54357 -1.91119,-1.40918 -0.12423,-0.96946 0.17316,-1.80017 0.84464,-2.51672 0.63738,-0.63075 1.46455,-1.07801 2.33457,-0.60379 0.65764,0.51321 0.80497,1.24433 0.72413,2.05618 -0.0733,0.75989 -0.15925,1.57701 -0.88766,1.99323 -0.78026,0.23589 -1.5475,0.0963 -2.10138,-0.54017 -0.45306,-0.8372 -0.30268,-1.69529 0.0797,-2.5415 0.42076,-0.75593 0.97766,-1.44396 1.8889,-1.56217 0.95503,0.0405 1.42984,0.42074 1.3691,1.42823 -0.17569,0.8881 -0.47059,1.72773 -1.34066,2.15017 -1.09231,0.2918 -1.4725,-0.29329 -1.31901,-1.33931 0.27841,-0.95322 0.68293,-1.88374 1.7504,-2.11176 1.06396,0.0259 1.56628,0.62823 1.66695,1.66886 -0.0778,0.79589 -0.37919,1.51921 -0.96208,2.08311 -0.55255,0.35084 -1.19911,0.49904 -1.56158,-0.18522 -0.13631,-0.77775 0.27099,-1.42529 0.79854,-1.97332 0.53502,-0.586 1.25517,-1.0243 2.06499,-0.75195 0.79367,0.59014 0.66583,1.24699 0.38438,2.10906 -0.29372,0.67488 -0.71633,1.32408 -1.49236,1.46922 -1.11133,-0.094 -0.5403,-1.0798 -0.0161,-1.52796 0.6435,-0.44069 1.5695,-0.74178 1.86332,0.24435 -0.0505,0.85788 -0.6148,1.52131 -1.31706,1.9791 -1.12447,0.37913 -0.92039,-0.59877 -0.3843,-1.13699 0.48679,-0.48915 1.22408,-1.22522 1.84822,-0.49929 0.18333,0.68075 -0.13108,1.34476 -0.67054,1.77708 -0.35368,0.22622 -1.25905,0.69856 -0.96063,-0.23178 0.0731,-0.11341 0.40707,-0.6955 0.55563,-0.70363 0.89256,-0.0488 0.24626,0.2649 0.13337,0.34884 -0.21639,0.17987 -1.23835,0.96969 -1.48737,0.94777 -0.18404,-0.0162 -0.33555,-0.15472 -0.50332,-0.23208 0.31133,-0.42563 0.77802,-0.71801 1.07123,-1.16063 0.0952,0.0424 0.18452,0.10178 0.28557,0.12731 0.028,0.007 0.10298,-0.0515 0.0792,-0.0351 -0.34761,0.23996 -0.7717,0.37528 -1.0712,0.69066 -0.14664,0.10937 -1.99451,1.66273 -1.78613,0.63451 0.49838,-0.637 1.14032,-1.11861 1.77849,-1.61085 0.0991,-0.0854 1.19168,-1.04635 1.25484,-1.04353 0.14386,0.006 0.27407,0.10664 0.38172,0.20229 0.028,0.0248 -0.0682,0.0306 -0.10237,0.0459 -0.83659,0.52808 -1.68435,1.03317 -2.47976,1.62401 -0.25119,0.15797 -0.50939,0.30522 -0.75418,0.47294 -0.10246,0.0702 -0.17332,0.2211 -0.29748,0.22441 -0.88925,0.0237 -0.36511,-0.34781 -0.17174,-0.56029 0.6864,-0.61088 1.34098,-1.25753 2.07689,-1.8117 0.0398,-0.0381 0.64042,-0.61268 0.64064,-0.61272 1.12697,-0.24391 -0.002,0.48027 -0.0492,0.40158 -0.75667,0.48678 -1.48514,1.02618 -2.29064,1.43133 -0.16948,-0.0649 -0.36883,-0.0788 -0.50844,-0.19475 -0.0273,-0.0227 0.0914,-0.21567 0.27528,-0.41407 0.35689,-0.38518 0.76601,-0.7221 1.12898,-1.10142 0.10754,-0.10361 0.91211,-0.95287 1.0176,-0.97581 0.15434,-0.0336 0.59659,0.0332 0.46021,0.11289 -0.0634,0.037 -0.12525,0.0764 -0.18787,0.11465 -0.75353,0.4224 -1.43175,0.96552 -2.15205,1.4405 -1.57507,0.95978 -0.37789,-0.97289 -0.0565,-1.02389 0.64179,-0.61474 1.27912,-1.23079 1.83983,-1.92174 0.13087,0.0349 0.52063,0.0248 0.39792,0.0821 -0.44952,0.21 -0.83595,0.51255 -1.20671,0.83943 -0.23219,0.16894 -1.4209,1.20941 -1.64894,1.20806 -0.15666,-9.2e-4 -0.29959,-0.0918 -0.44939,-0.13766 0.32375,-0.77677 1.50262,-1.43813 2.06873,-2.04045 0,0 0.2727,0.32724 0.2727,0.32724 z"
       id="path4819-3-7"
       style="fill:#000000;fill-opacity:1;stroke-width:1.05299997;stroke-miterlimit:4;stroke-dasharray:none;stroke-dashoffset:0" />
    <path
       inkscape:connector-curvature="0"
       id="path4136-4"
       d="m 424.49063,202.0154 -50.18605,67.05352"
       style="fill:none;stroke:#000000;stroke-width:3;stroke-linecap:butt;stroke-linejoin:miter;stroke-miterlimit:8;stroke-opacity:1;stroke-dasharray:none;stroke-dashoffset:0" />
  </g>
  <path
     style="fill:#000000;fill-opacity:1;stroke-width:3;stroke-miterlimit:4;stroke-dasharray:none;stroke-dashoffset:0"
     id="path3900-8-4"
     d="m 113.36422,157.82098 c 0.0464,-2.81747 -0.37378,-5.65309 -1.5129,-8.23914 -0.55056,-1.26227 -1.68187,-3.30103 -3.36832,-2.80618 -1.56219,0.50229 -1.84088,2.12387 -2.10249,3.55088 -0.29447,2.28559 -0.27055,4.59689 -0.27362,6.89696 0.007,2.60279 0.0173,5.20556 0.0226,7.80835 0.005,2.86031 0.005,5.72062 0.006,8.58093 2.2e-4,2.57984 8e-5,5.15968 2e-5,7.73952 -4e-5,1.52505 -2e-5,0.81129 -5e-5,2.1396 0,0 -1.20482,-3e-5 -1.20482,-3e-5 l 0,0 c 3e-5,-1.32804 1e-5,-0.6149 5e-5,-2.1396 6e-5,-2.57977 2e-4,-5.15954 -2e-5,-7.73931 -4.2e-4,-2.85956 -7.4e-4,-5.71911 -0.006,-8.57866 -0.005,-2.60415 -0.0155,-5.20828 -0.0226,-7.81242 0.003,-2.37355 -0.0206,-4.75912 0.29412,-7.11665 0.37255,-1.96075 0.94277,-3.92879 3.09128,-4.51841 2.35901,-0.25076 3.82491,1.46665 4.66881,3.51474 1.18094,2.74903 1.67433,5.72877 1.61276,8.71942 0,0 -1.20482,0 -1.20482,0 z"
     inkscape:connector-curvature="0" />
  <path
     style="fill:#000000;fill-opacity:1;stroke-width:3;stroke-miterlimit:4;stroke-dasharray:none;stroke-dashoffset:0"
     id="path3904-2-9"
     d="m 100.3735,166.517 c 2.8766,0.15767 5.69431,-0.0898 8.52929,-0.53821 1.20104,-0.23786 2.386,-0.33228 3.60533,-0.30388 0,0 -0.0353,1.2043 -0.0353,1.2043 l 0,0 c -1.14426,-0.0416 -2.25377,0.077 -3.38188,0.28961 -2.89677,0.45805 -5.7788,0.7103 -8.71749,0.553 0,0 0,-1.20482 0,-1.20482 z"
     inkscape:connector-curvature="0" />
  <path
     style="fill:#000000;fill-opacity:1;stroke-width:3;stroke-miterlimit:4;stroke-dasharray:none;stroke-dashoffset:0"
     id="path3945-0"
     d="m 118.60142,173.5633 c -2.14263,0.14137 -4.05022,1.03076 -4.85113,3.10421 0.0207,1.24248 1.36948,1.23208 2.26744,0.91871 1.48266,-0.4676 2.26649,-1.86011 3.21631,-2.99006 2.01575,-1.40146 1.97956,1.94084 2.03013,3.11072 0.0523,0.28061 0.10459,0.56122 0.15689,0.84182 0,0 -1.18582,0.21313 -1.18582,0.21313 l 0,0 c -0.0583,-0.33452 -0.11653,-0.66905 -0.17479,-1.00357 -0.0284,-0.6734 -0.24453,-1.56678 -0.17798,-2.23417 0.0172,-0.17254 0.30525,-0.16516 0.4631,-0.23693 0.0634,-0.0288 -0.12698,0.0571 -0.19046,0.0857 -1.11087,1.31275 -2.04619,2.86218 -3.79917,3.36975 -1.923,0.49857 -4.03519,-0.15815 -3.71699,-2.54039 1.09991,-2.48841 3.26759,-3.69895 5.96247,-3.84372 0,0 0,1.20482 0,1.20482 z"
     inkscape:connector-curvature="0" />
  <path
     style="fill:#000000;fill-opacity:1;stroke-width:1.05299997;stroke-miterlimit:4;stroke-dasharray:none;stroke-dashoffset:0"
     id="path3253-2"
     d="m 135.77286,150.70379 c 0.89903,2.91445 1.27265,5.95687 2.04241,8.89715 0.82199,2.15294 0.90334,4.4749 1.43922,6.68692 0.4794,2.06727 1.07815,4.09824 1.60516,6.15338 0.51503,2.23665 0.5654,4.51912 1.09698,6.74994 0.051,0.15279 0.94841,2.09563 -0.48559,0.52343 -0.19126,-0.20968 0.49572,-2.06927 0.55231,-2.29344 0.48522,-2.2189 0.60033,-4.47007 1.14188,-6.67707 0.30453,-1.98836 1.10548,-3.83263 1.57798,-5.77796 0.23645,-2.07693 0.61488,-4.09774 1.08532,-6.13351 0.22414,-2.00701 0.9302,-3.89688 1.35764,-5.86054 0.43675,-1.26101 0.21603,-0.64396 0.66083,-1.8516 0,0 1.13054,0.41649 1.13054,0.41649 l 0,0 c -0.42168,1.14436 -0.21709,0.58019 -0.61433,1.69231 -0.43172,1.96854 -1.13406,3.86262 -1.36082,5.87469 -0.47203,2.04133 -0.84216,4.06602 -1.08873,6.14788 -0.47722,1.94585 -1.2698,3.79122 -1.57843,5.77981 -0.5437,2.2082 -0.64015,4.46632 -1.14375,6.68454 -0.27168,1.07515 -1.17159,5.57956 -2.40699,1.7537 -0.52819,-2.22561 -0.59933,-4.49618 -1.09199,-6.72974 -0.52742,-2.06199 -1.12824,-4.09992 -1.61013,-6.1735 -0.5172,-2.20981 -0.62854,-4.51303 -1.43314,-6.66252 -0.77183,-2.98689 -1.17496,-6.06748 -2.06908,-9.02997 0,0 1.19271,-0.17039 1.19271,-0.17039 z"
     inkscape:connector-curvature="0" />
  <path
     style="fill:#000000;fill-opacity:1;stroke-width:3;stroke-miterlimit:4;stroke-dasharray:none;stroke-dashoffset:0"
     id="path3945-5-2-1"
     d="m 154.69211,175.42573 c -2.14263,0.14137 -4.05022,1.03076 -4.85113,3.10421 0.0207,1.24248 1.36948,1.23208 2.26744,0.91871 1.48266,-0.4676 2.26649,-1.86011 3.21631,-2.99006 2.01575,-1.40146 1.97956,1.94084 2.03013,3.11072 0.0523,0.28061 0.10459,0.56122 0.15689,0.84182 0,0 -1.18582,0.21313 -1.18582,0.21313 l 0,0 c -0.0583,-0.33452 -0.11653,-0.66905 -0.17479,-1.00357 -0.0284,-0.6734 -0.24453,-1.56678 -0.17798,-2.23417 0.0172,-0.17254 0.30525,-0.16516 0.4631,-0.23693 0.0634,-0.0288 -0.12698,0.0571 -0.19046,0.0857 -1.11087,1.31275 -2.04619,2.86218 -3.79917,3.36975 -1.923,0.49857 -4.03519,-0.15815 -3.71699,-2.54039 1.09991,-2.48841 3.26759,-3.69895 5.96247,-3.84372 0,0 0,1.20482 0,1.20482 z"
     inkscape:connector-curvature="0" />
  <path
     style="color:#000000;fill-opacity:1;fill-rule:nonzero;stroke-width:1;stroke-linecap:butt;stroke-linejoin:miter;stroke-miterlimit:4;stroke-opacity:1;stroke-dasharray:none;stroke-dashoffset:0;marker:none;visibility:visible;display:inline;overflow:visible;enable-background:accumulate"
     id="path10153-1"
     d="m 67.737782,156.95813 c -0.0143,2.92726 -0.11488,5.83537 0.33595,8.73373 0.17409,2.16728 0.99541,4.172 1.50001,6.26579 0.46615,2.24041 0.51882,4.53547 0.5661,6.81485 0,0 -1.20456,0.0249 -1.20456,0.0249 l 0,0 c -0.0453,-2.19308 -0.0918,-4.40158 -0.53305,-6.55844 -0.50852,-2.12565 -1.3452,-4.16231 -1.51912,-6.3627 -0.45669,-2.96029 -0.37167,-5.92874 -0.35015,-8.91815 0,0 1.20482,0 1.20482,0 z"
     inkscape:connector-curvature="0" />
  <path
     style="color:#000000;fill-opacity:1;fill-rule:nonzero;stroke-width:1;stroke-linecap:butt;stroke-linejoin:miter;stroke-miterlimit:4;stroke-opacity:1;stroke-dasharray:none;stroke-dashoffset:0;marker:none;visibility:visible;display:inline;overflow:visible;enable-background:accumulate"
     id="path10155-0"
     d="m 77.515492,171.01775 c 4.92385,-0.4199 9.8841,-0.9198 14.86531,-0.78861 2.67839,0.18969 1.36466,0.0852 3.94169,0.31115 0,0 -0.27626,1.19275 -0.27626,1.19275 l 0,0 c -2.48153,-0.2181 -1.22995,-0.11772 -3.75495,-0.30034 -4.8405,-0.1464 -9.66761,0.38306 -14.45405,0.77347 0,0 -0.32174,-1.18842 -0.32174,-1.18842 z"
     inkscape:connector-curvature="0" />
  <path
     style="color:#000000;fill-opacity:1;fill-rule:nonzero;stroke-width:1;stroke-linecap:butt;stroke-linejoin:miter;stroke-miterlimit:4;stroke-opacity:1;stroke-dasharray:none;stroke-dashoffset:0;marker:none;visibility:visible;display:inline;overflow:visible;enable-background:accumulate"
     id="path10085-7-7"
     d="m 61.007822,149.04037 c -2.28287,1.11298 -3.9154,2.62205 -5.47049,4.3583 -1.2985,1.43201 -1.65035,3.13399 -1.85544,4.87318 -0.10884,1.76485 -0.71596,3.46833 -0.99949,5.21768 -0.2572,1.89346 -0.27854,3.80145 -0.30113,5.70469 -0.17802,1.86479 0.087,3.65223 0.52975,5.47044 0.30925,1.49766 0.41633,3.11344 1.70049,4.27881 1.40493,1.09915 2.89109,2.12656 4.24933,3.26664 1.24781,1.09537 2.82241,1.32251 4.54108,1.51072 0,0 -0.16062,0.99684 -0.16062,0.99684 l 0,0 c -1.97922,-0.22724 -3.80204,-0.54102 -5.23649,-1.79975 -1.36985,-1.16009 -2.89191,-2.18668 -4.30123,-3.31327 -1.36595,-1.35739 -1.69449,-3.01927 -1.97324,-4.73964 -0.45931,-1.88646 -0.73094,-3.74745 -0.55383,-5.68077 0.0232,-1.94514 0.0462,-3.89511 0.31202,-5.83001 0.28346,-1.73756 0.88094,-3.42995 0.99445,-5.18188 0.23088,-1.92148 0.65558,-3.79676 2.08949,-5.37606 1.64861,-1.84016 3.40697,-3.43483 5.81548,-4.61841 0,0 0.61987,0.86249 0.61987,0.86249 z"
     inkscape:connector-curvature="0" />
  <path
     style="color:#000000;fill-opacity:1;fill-rule:nonzero;stroke-width:1;stroke-linecap:butt;stroke-linejoin:miter;stroke-miterlimit:4;stroke-opacity:1;stroke-dasharray:none;stroke-dashoffset:0;marker:none;visibility:visible;display:inline;overflow:visible;enable-background:accumulate"
     id="path10085-2-4-1"
     d="m 121.67255,148.95542 c 2.28287,1.14968 3.9154,2.7085 5.47049,4.50201 1.2985,1.47922 1.65035,3.23732 1.85544,5.03385 0.10884,1.82304 0.71596,3.5827 0.99949,5.38973 0.2572,1.95589 0.27854,3.92679 0.30113,5.89279 0.17802,1.92628 -0.087,3.77265 -0.52975,5.65081 -0.30925,1.54704 -0.41633,3.2161 -1.70049,4.4199 -1.40493,1.13539 -2.89109,2.19668 -4.24933,3.37435 -1.24781,1.13148 -2.82241,1.36612 -4.54108,1.56053 0,0 0.16062,1.02971 0.16062,1.02971 l 0,0 c 1.97922,-0.23474 3.80204,-0.55886 5.23649,-1.8591 1.36985,-1.19833 2.89191,-2.25878 4.30123,-3.42251 1.36595,-1.40215 1.69449,-3.11882 1.97324,-4.89592 0.45931,-1.94866 0.73094,-3.87102 0.55383,-5.86809 -0.0232,-2.00927 -0.0462,-4.02354 -0.31202,-6.02223 -0.28346,-1.79485 -0.88094,-3.54305 -0.99445,-5.35275 -0.23088,-1.98483 -0.65558,-3.92195 -2.08949,-5.55332 -1.64861,-1.90083 -3.40697,-3.54809 -5.81548,-4.77069 0,0 -0.61987,0.89093 -0.61987,0.89093 z"
     inkscape:connector-curvature="0" />
  <path
     style="fill:#000000;fill-opacity:1;stroke-width:3;stroke-miterlimit:4;stroke-dasharray:none;stroke-dashoffset:0"
     id="path3906-3-9-4"
     d="m 289.79629,165.43214 c -0.2963,2.92672 -0.83819,5.78818 -1.47698,8.65537 -0.42231,1.85359 -0.57289,3.74787 -0.70898,5.63879 0,0 -1.20171,-0.0865 -1.20171,-0.0865 l 0,0 c 0.14045,-1.94996 0.29923,-3.90296 0.73471,-5.8143 0.63419,-2.84625 1.17083,-5.68573 1.46453,-8.59142 0,0 1.18843,0.19807 1.18843,0.19807 z"
     inkscape:connector-curvature="0" />
  <path
     style="fill:#000000;fill-opacity:1;stroke-width:3;stroke-miterlimit:4;stroke-dasharray:none;stroke-dashoffset:0"
     id="path3914-4-9-5"
     d="m 287.90029,172.45204 c 2.4702,0.59939 4.89371,1.92521 5.55406,4.52551 0.0767,2.39142 -1.9755,3.07753 -3.9504,3.48092 -1.01779,0.24497 -2.0022,0.12668 -3.00469,-0.0864 0,0 0.26122,-1.17616 0.26122,-1.17616 l 0,0 c 0.83973,0.19703 1.64883,0.29187 2.50698,0.0812 1.25419,-0.24518 2.92283,-0.48819 3.0082,-2.05 -0.29036,-2.10915 -2.78554,-3.09093 -4.57344,-3.58662 0,0 0.19807,-1.18843 0.19807,-1.18843 z"
     inkscape:connector-curvature="0" />
  <path
     style="color:#000000;fill:#000000;fill-opacity:1;fill-rule:nonzero;stroke-width:3;stroke-linecap:butt;stroke-linejoin:miter;stroke-miterlimit:4;stroke-opacity:1;stroke-dasharray:none;stroke-dashoffset:0;marker:none;visibility:visible;display:inline;overflow:visible;enable-background:accumulate"
     id="path3900-84-2-6"
     d="m 251.3246,156.56994 c 0.0464,-2.81747 -0.37378,-5.65309 -1.5129,-8.23914 -0.55056,-1.26227 -1.68187,-3.30103 -3.36832,-2.80618 -1.56219,0.50229 -1.84088,2.12387 -2.10249,3.55088 -0.29447,2.28559 -0.27055,4.59689 -0.27362,6.89696 0.007,2.60279 0.0173,5.20556 0.0226,7.80835 0.005,2.86031 0.005,5.72062 0.006,8.58093 2.2e-4,2.57984 8e-5,5.15968 2e-5,7.73952 -4e-5,1.52505 -2e-5,0.81129 -5e-5,2.1396 0,0 -1.20482,-3e-5 -1.20482,-3e-5 l 0,0 c 3e-5,-1.32804 1e-5,-0.6149 5e-5,-2.1396 6e-5,-2.57977 2e-4,-5.15954 -2e-5,-7.73931 -4.2e-4,-2.85956 -7.4e-4,-5.71911 -0.006,-8.57866 -0.005,-2.60415 -0.0155,-5.20828 -0.0226,-7.81242 0.003,-2.37355 -0.0206,-4.75912 0.29412,-7.11665 0.37255,-1.96075 0.94277,-3.92879 3.09128,-4.51841 2.35901,-0.25076 3.82491,1.46665 4.66881,3.51474 1.18094,2.74903 1.67433,5.72877 1.61276,8.71942 0,0 -1.20482,0 -1.20482,0 z"
     inkscape:connector-curvature="0" />
  <path
     style="color:#000000;fill:#000000;fill-opacity:1;fill-rule:nonzero;stroke-width:3;stroke-linecap:butt;stroke-linejoin:miter;stroke-miterlimit:4;stroke-opacity:1;stroke-dasharray:none;stroke-dashoffset:0;marker:none;visibility:visible;display:inline;overflow:visible;enable-background:accumulate"
     id="path3904-9-6-0"
     d="m 238.33388,165.26596 c 2.8766,0.15767 5.69431,-0.0898 8.52929,-0.53821 1.20104,-0.23786 2.386,-0.33228 3.60533,-0.30388 0,0 -0.0353,1.2043 -0.0353,1.2043 l 0,0 c -1.14426,-0.0416 -2.25377,0.077 -3.38188,0.28961 -2.89677,0.45805 -5.7788,0.7103 -8.71749,0.553 0,0 0,-1.20482 0,-1.20482 z"
     inkscape:connector-curvature="0" />
  <path
     style="color:#000000;fill:#000000;fill-opacity:1;fill-rule:nonzero;stroke-width:3;stroke-linecap:butt;stroke-linejoin:miter;stroke-miterlimit:4;stroke-opacity:1;stroke-dasharray:none;stroke-dashoffset:0;marker:none;visibility:visible;display:inline;overflow:visible;enable-background:accumulate"
     id="path3906-3-6-0"
     d="m 255.99156,165.62729 c -0.2963,2.92672 -0.83819,5.78818 -1.47698,8.65537 -0.42231,1.85359 -0.57289,3.74787 -0.70898,5.63879 0,0 -1.20171,-0.0865 -1.20171,-0.0865 l 0,0 c 0.14045,-1.94996 0.29923,-3.90296 0.73471,-5.8143 0.63419,-2.84625 1.17083,-5.68573 1.46453,-8.59142 0,0 1.18843,0.19807 1.18843,0.19807 z"
     inkscape:connector-curvature="0" />
  <path
     style="color:#000000;fill:#000000;fill-opacity:1;fill-rule:nonzero;stroke-width:3;stroke-linecap:butt;stroke-linejoin:miter;stroke-miterlimit:4;stroke-opacity:1;stroke-dasharray:none;stroke-dashoffset:0;marker:none;visibility:visible;display:inline;overflow:visible;enable-background:accumulate"
     id="path3914-4-1-2"
     d="m 254.09556,172.64719 c 2.4702,0.59939 4.89371,1.92521 5.55406,4.52551 0.0767,2.39142 -1.9755,3.07753 -3.9504,3.48092 -1.01779,0.24497 -2.0022,0.12668 -3.00469,-0.0864 0,0 0.26122,-1.17616 0.26122,-1.17616 l 0,0 c 0.83973,0.19703 1.64883,0.29187 2.50698,0.0812 1.25419,-0.24518 2.92283,-0.48819 3.0082,-2.05 -0.29036,-2.10915 -2.78554,-3.09093 -4.57344,-3.58662 0,0 0.19807,-1.18843 0.19807,-1.18843 z"
     inkscape:connector-curvature="0" />
  <path
     style="fill:#000000;fill-opacity:1;stroke-width:1.05299997;stroke-miterlimit:4;stroke-dasharray:none;stroke-dashoffset:0"
     id="path3253-1-6"
     d="m 271.87835,148.13626 c 0.89903,2.91445 1.27265,5.95687 2.04241,8.89715 0.82199,2.15294 0.90334,4.4749 1.43922,6.68692 0.4794,2.06727 1.07815,4.09824 1.60516,6.15338 0.51503,2.23665 0.5654,4.51912 1.09698,6.74994 0.051,0.15279 0.94841,2.09563 -0.48559,0.52343 -0.19126,-0.20968 0.49572,-2.06927 0.55231,-2.29344 0.48522,-2.2189 0.60033,-4.47007 1.14188,-6.67707 0.30453,-1.98836 1.10548,-3.83263 1.57798,-5.77796 0.23645,-2.07693 0.61488,-4.09774 1.08532,-6.13351 0.22414,-2.00701 0.9302,-3.89688 1.35764,-5.86054 0.43675,-1.26101 0.21603,-0.64396 0.66083,-1.8516 0,0 1.13054,0.41649 1.13054,0.41649 l 0,0 c -0.42168,1.14436 -0.21709,0.58019 -0.61433,1.69231 -0.43172,1.96854 -1.13406,3.86262 -1.36082,5.87469 -0.47203,2.04133 -0.84216,4.06602 -1.08873,6.14788 -0.47722,1.94585 -1.2698,3.79122 -1.57843,5.77981 -0.5437,2.2082 -0.64015,4.46632 -1.14375,6.68454 -0.27168,1.07515 -1.17159,5.57956 -2.40699,1.7537 -0.52819,-2.22561 -0.59933,-4.49618 -1.09199,-6.72974 -0.52742,-2.06199 -1.12824,-4.09992 -1.61013,-6.1735 -0.5172,-2.20981 -0.62854,-4.51303 -1.43314,-6.66252 -0.77183,-2.98689 -1.17496,-6.06748 -2.06908,-9.02997 0,0 1.19271,-0.17039 1.19271,-0.17039 z"
     inkscape:connector-curvature="0" />
  <path
     style="color:#000000;fill-opacity:1;fill-rule:nonzero;stroke-width:1;stroke-linecap:butt;stroke-linejoin:miter;stroke-miterlimit:4;stroke-opacity:1;stroke-dasharray:none;stroke-dashoffset:0;marker:none;visibility:visible;display:inline;overflow:visible;enable-background:accumulate"
     id="path10153-1-8"
     d="m 203.85049,153.20816 c -0.0143,2.92726 -0.11488,5.83537 0.33595,8.73373 0.17409,2.16728 0.99541,4.172 1.50001,6.26579 0.46615,2.24041 0.51882,4.53547 0.5661,6.81485 0,0 -1.20456,0.0249 -1.20456,0.0249 l 0,0 c -0.0453,-2.19308 -0.0918,-4.40158 -0.53305,-6.55844 -0.50852,-2.12565 -1.3452,-4.16231 -1.51912,-6.3627 -0.45669,-2.96029 -0.37167,-5.92874 -0.35015,-8.91815 0,0 1.20482,0 1.20482,0 z"
     inkscape:connector-curvature="0" />
  <path
     style="color:#000000;fill-opacity:1;fill-rule:nonzero;stroke-width:1;stroke-linecap:butt;stroke-linejoin:miter;stroke-miterlimit:4;stroke-opacity:1;stroke-dasharray:none;stroke-dashoffset:0;marker:none;visibility:visible;display:inline;overflow:visible;enable-background:accumulate"
     id="path10155-0-1"
     d="m 213.6282,167.26778 c 4.92385,-0.4199 9.8841,-0.9198 14.86531,-0.78861 2.67839,0.18969 1.36466,0.0852 3.94169,0.31115 0,0 -0.27626,1.19275 -0.27626,1.19275 l 0,0 c -2.48153,-0.2181 -1.22995,-0.11772 -3.75495,-0.30034 -4.8405,-0.1464 -9.66761,0.38306 -14.45405,0.77347 0,0 -0.32174,-1.18842 -0.32174,-1.18842 z"
     inkscape:connector-curvature="0" />
  <path
     style="color:#000000;fill-opacity:1;fill-rule:nonzero;stroke-width:1;stroke-linecap:butt;stroke-linejoin:miter;stroke-miterlimit:4;stroke-opacity:1;stroke-dasharray:none;stroke-dashoffset:0;marker:none;visibility:visible;display:inline;overflow:visible;enable-background:accumulate"
     id="path10085-7-7-7"
     d="m 197.12053,145.2904 c -2.28287,1.11298 -3.9154,2.62205 -5.47049,4.3583 -1.2985,1.43201 -1.65035,3.13399 -1.85544,4.87318 -0.10884,1.76485 -0.71596,3.46833 -0.99949,5.21768 -0.2572,1.89346 -0.27854,3.80145 -0.30113,5.70469 -0.17802,1.86479 0.087,3.65223 0.52975,5.47044 0.30925,1.49766 0.41633,3.11344 1.70049,4.27881 1.40493,1.09915 2.89109,2.12656 4.24933,3.26664 1.24781,1.09537 2.82241,1.32251 4.54108,1.51072 0,0 -0.16062,0.99684 -0.16062,0.99684 l 0,0 c -1.97922,-0.22724 -3.80204,-0.54102 -5.23649,-1.79975 -1.36985,-1.16009 -2.89191,-2.18668 -4.30123,-3.31327 -1.36595,-1.35739 -1.69449,-3.01927 -1.97324,-4.73964 -0.45931,-1.88646 -0.73094,-3.74745 -0.55383,-5.68077 0.0232,-1.94514 0.0462,-3.89511 0.31202,-5.83001 0.28346,-1.73756 0.88094,-3.42995 0.99445,-5.18188 0.23088,-1.92148 0.65558,-3.79676 2.08949,-5.37606 1.64861,-1.84016 3.40697,-3.43483 5.81548,-4.61841 0,0 0.61987,0.86249 0.61987,0.86249 z"
     inkscape:connector-curvature="0" />
  <path
     style="color:#000000;fill-opacity:1;fill-rule:nonzero;stroke-width:1;stroke-linecap:butt;stroke-linejoin:miter;stroke-miterlimit:4;stroke-opacity:1;stroke-dasharray:none;stroke-dashoffset:0;marker:none;visibility:visible;display:inline;overflow:visible;enable-background:accumulate"
     id="path10085-2-4-1-2"
     d="m 258.32994,147.77667 c 2.28287,1.14968 3.9154,2.7085 5.47049,4.50201 1.2985,1.47922 1.65035,3.23732 1.85544,5.03385 0.10884,1.82304 0.71596,3.5827 0.99949,5.38973 0.2572,1.95589 0.27854,3.92679 0.30113,5.89279 0.17802,1.92628 -0.087,3.77265 -0.52975,5.65081 -0.30925,1.54704 -0.41633,3.2161 -1.70049,4.4199 -1.40493,1.13539 -2.89109,2.19668 -4.24933,3.37435 -1.24781,1.13148 -2.82241,1.36612 -4.54108,1.56053 0,0 0.16062,1.02971 0.16062,1.02971 l 0,0 c 1.97922,-0.23474 3.80204,-0.55886 5.23649,-1.8591 1.36985,-1.19833 2.89191,-2.25878 4.30123,-3.42251 1.36595,-1.40215 1.69449,-3.11882 1.97324,-4.89592 0.45931,-1.94866 0.73094,-3.87102 0.55383,-5.86809 -0.0232,-2.00927 -0.0462,-4.02354 -0.31202,-6.02223 -0.28346,-1.79485 -0.88094,-3.54305 -0.99445,-5.35275 -0.23088,-1.98483 -0.65558,-3.92195 -2.08949,-5.55332 -1.64861,-1.90083 -3.40697,-3.54809 -5.81548,-4.77069 0,0 -0.61987,0.89093 -0.61987,0.89093 z"
     inkscape:connector-curvature="0" />
  <path
     style="color:#000000;fill:#000000;fill-opacity:1;fill-rule:nonzero;stroke-width:3;stroke-linecap:butt;stroke-linejoin:miter;stroke-miterlimit:4;stroke-opacity:1;stroke-dasharray:none;stroke-dashoffset:0;marker:none;visibility:visible;display:inline;overflow:visible;enable-background:accumulate"
     id="path3344-2"
     d="m 172.45329,155.30479 c -0.47055,3.33047 -0.74257,6.68332 -0.91994,10.04076 -0.13288,2.82545 -0.13683,5.65453 -0.14271,8.48241 0,0 -1.20482,-0.003 -1.20482,-0.003 l 0,0 c 0.006,-2.84825 0.0102,-5.69772 0.14439,-8.54351 0.17955,-3.39314 0.45459,-6.78166 0.93037,-10.14754 0,0 1.19271,0.17039 1.19271,0.17039 z"
     inkscape:connector-curvature="0" />
  <path
     style="color:#000000;fill:#000000;fill-opacity:1;fill-rule:nonzero;stroke-width:3;stroke-linecap:butt;stroke-linejoin:miter;stroke-miterlimit:4;stroke-opacity:1;stroke-dasharray:none;stroke-dashoffset:0;marker:none;visibility:visible;display:inline;overflow:visible;enable-background:accumulate"
     id="path3346-8"
     d="m 160.96168,164.45174 c 3.84643,0 7.69287,0 11.53932,0 2.56703,0 5.13406,0 7.70109,0 0,0 0,1.20482 0,1.20482 l 0,0 c -2.56703,0 -5.13406,0 -7.70109,0 -3.84645,0 -7.69289,0 -11.53932,0 0,0 0,-1.20482 0,-1.20482 z"
     inkscape:connector-curvature="0" />
</svg>
