<?xml version="1.0" encoding="UTF-8" standalone="no"?>
<!-- Created with Inkscape (http://www.inkscape.org/) -->

<svg
   xmlns:dc="http://purl.org/dc/elements/1.1/"
   xmlns:cc="http://creativecommons.org/ns#"
   xmlns:rdf="http://www.w3.org/1999/02/22-rdf-syntax-ns#"
   xmlns:svg="http://www.w3.org/2000/svg"
   xmlns="http://www.w3.org/2000/svg"
   xmlns:sodipodi="http://sodipodi.sourceforge.net/DTD/sodipodi-0.dtd"
   xmlns:inkscape="http://www.inkscape.org/namespaces/inkscape"
   id="svg3036"
   version="1.1"
   inkscape:version="0.48.3.1 r9886"
   width="400"
   height="550"
   sodipodi:docname="navier_stokes_BCS.png">
  <metadata
     id="metadata3042">
    <rdf:RDF>
      <cc:Work
         rdf:about="">
        <dc:format>image/svg+xml</dc:format>
        <dc:type
           rdf:resource="http://purl.org/dc/dcmitype/StillImage" />
        <dc:title></dc:title>
      </cc:Work>
    </rdf:RDF>
  </metadata>
  <defs
     id="defs3040" />
  <sodipodi:namedview
     pagecolor="#ffffff"
     bordercolor="#666666"
     borderopacity="1"
     objecttolerance="10"
     gridtolerance="10"
     guidetolerance="10"
     inkscape:pageopacity="0"
     inkscape:pageshadow="2"
     inkscape:window-width="1107"
     inkscape:window-height="663"
     id="namedview3038"
     showgrid="false"
     inkscape:zoom="0.83"
     inkscape:cx="378.91566"
     inkscape:cy="278.78031"
     inkscape:window-x="28"
     inkscape:window-y="107"
     inkscape:window-maximized="0"
     inkscape:current-layer="svg3036" />
  <path
     style="fill:none;stroke:#000000;stroke-width:1px;stroke-linecap:butt;stroke-linejoin:miter;stroke-opacity:1"
     d="m 114.09521,172.40721 2.40964,202.40964"
     id="path5032"
     inkscape:connector-curvature="0" />
  <path
     style="fill:none;stroke:#000000;stroke-width:1px;stroke-linecap:butt;stroke-linejoin:miter;stroke-opacity:1"
     d="m 345.42052,172.4072 2.40964,202.40964"
     id="path5032-1"
     inkscape:connector-curvature="0" />
  <path
     style="fill:none;stroke:#000000;stroke-width:1px;stroke-linecap:butt;stroke-linejoin:miter;stroke-opacity:1"
     d="m 115.30003,173.61203 231.32531,0"
     id="path5052"
     inkscape:connector-curvature="0" />
  <path
     style="fill:none;stroke:#000000;stroke-width:1px;stroke-linecap:butt;stroke-linejoin:miter;stroke-opacity:1"
     d="m 116.50485,374.81685 231.32531,0"
     id="path5052-4"
     inkscape:connector-curvature="0" />
  <path
     style="color:#000000;fill:none;stroke:#000000;stroke-width:0.75;stroke-linecap:butt;stroke-linejoin:miter;stroke-miterlimit:4;stroke-opacity:1;stroke-dasharray:none;stroke-dashoffset:0;marker:none;visibility:visible;display:inline;overflow:visible;enable-background:accumulate"
     id="path5909"
     d="m 77.888275,169.23466 c 1.41483,-2.72502 3.35315,-5.11762 5.44981,-7.34111 2.204005,-2.25847 4.753645,-4.22946 7.821175,-5.08294 3.13534,-0.0446 4.27998,1.42031 4.42654,4.40683 -0.31163,3.22962 -1.94339,6.03405 -3.6793,8.69391 -1.88496,2.88286 -4.08678,5.55231 -6.33229,8.16035 -1.479565,2.03408 -3.363555,3.7405 -4.820655,5.78747 -0.0254,0.14246 -0.0932,0.28368 -0.0762,0.42739 0.0146,0.12347 3.2357,-0.0788 3.37873,-0.0931 3.179755,-0.44981 6.380655,-0.67993 9.586565,-0.82872 1.87762,-0.15106 3.7477,0.0315 5.59138,0.37407 0,0 -0.15691,0.83736 -0.15691,0.83736 l 0,0 c -1.77802,-0.33619 -3.58369,-0.50541 -5.39499,-0.3604 -3.19137,0.14795 -6.37758,0.37773 -9.542885,0.82556 -1.37485,0.13249 -4.95602,0.81626 -4.07873,-1.67761 1.48037,-2.06263 3.36375,-3.79991 4.86813,-5.8479 2.221215,-2.57932 4.399965,-5.21906 6.264525,-8.07023 1.64045,-2.51118 3.20182,-5.15335 3.54129,-8.19642 -0.0528,-2.29914 -0.88591,-3.61025 -3.35083,-3.61669 -2.92061,0.78013 -5.32833,2.72356 -7.426035,4.84589 -2.04196,2.16061 -3.9277,4.48861 -5.30732,7.1373 0,0 -0.76199,-0.381 -0.76199,-0.381 z"
     inkscape:connector-curvature="0" />
  <path
     style="color:#000000;fill:none;stroke:#000000;stroke-width:0.75;stroke-linecap:butt;stroke-linejoin:miter;stroke-miterlimit:4;stroke-opacity:1;stroke-dasharray:none;stroke-dashoffset:0;marker:none;visibility:visible;display:inline;overflow:visible;enable-background:accumulate"
     id="path5911"
     d="m 95.34467,380.03879 c -2.03233,-0.0958 -3.90595,0.58626 -5.45933,1.86783 -2.17488,2.33309 -2.78932,5.528 -3.27638,8.572 -0.48385,4.59378 0.43705,7.93288 2.56165,11.95026 1.63764,2.65461 4.00095,4.87908 7.25131,5.20136 0.5421,0.0537 1.08899,-0.0336 1.63348,-0.0504 3.84282,-0.82813 5.65561,-4.08737 6.97845,-7.48614 1.26634,-4.83516 0.32358,-8.55858 -2.24101,-12.72493 -2.87482,-3.56616 -6.23853,-4.86193 -10.71717,-5.1112 -3.21912,0.29217 -4.47507,1.12153 -6.60125,3.43798 0,0 -0.624035,-0.57998 -0.624035,-0.57998 l 0,0 c 0.509045,-0.54155 0.958315,-1.14628 1.527155,-1.62466 1.64644,-1.38461 3.64905,-1.92151 5.74832,-2.0838 4.87269,0.30283 8.26327,1.6418 11.39347,5.51667 2.75003,4.5107 3.65917,8.26716 2.30783,13.4805 -1.46847,3.73012 -3.51635,7.19993 -7.75234,8.02728 -0.61471,0.01 -1.23298,0.0956 -1.84414,0.0289 -3.4912,-0.38103 -6.05468,-2.76876 -7.81355,-5.63397 -2.20773,-4.19297 -3.1616,-7.69702 -2.64933,-12.48296 0.52485,-3.25515 1.21264,-6.64002 3.58145,-9.099 1.72826,-1.37695 3.75379,-2.16664 5.99542,-2.05764 0,0 0,0.85193 0,0.85193 z"
     inkscape:connector-curvature="0" />
  <path
     style="color:#000000;fill:none;stroke:#000000;stroke-width:0.75;stroke-linecap:butt;stroke-linejoin:miter;stroke-miterlimit:4;stroke-opacity:1;stroke-dasharray:none;stroke-dashoffset:0;marker:none;visibility:visible;display:inline;overflow:visible;enable-background:accumulate"
     id="path5913"
     d="m 332.63284,393.36704 c 1.70034,-2.44188 4.02639,-4.25729 6.49286,-5.86519 2.34397,-1.25713 4.90149,-2.29738 7.5936,-1.93844 2.31768,0.81748 2.44443,3.45616 2.44724,5.56858 -0.37354,3.16217 -1.72944,6.1205 -3.3024,8.85431 -1.93264,3.38444 -4.6572,6.17549 -7.28101,9.01742 -1.95391,2.45054 -4.72439,4.3021 -6.33645,7.0125 -0.005,0.14518 -0.0807,0.30631 -0.0144,0.43554 0.11903,0.23194 0.52101,0.0639 0.7809,0.0433 1.3145,-0.10394 2.60511,-0.51977 3.8782,-0.8347 3.99993,-0.84821 8.03812,-1.49936 12.10361,-1.93258 2.12602,-0.27405 4.26737,-0.1887 6.40177,-0.1265 0,0 -0.0249,0.85157 -0.0249,0.85157 l 0,0 c -2.09601,-0.0617 -4.1988,-0.14815 -6.28662,0.12208 -4.02709,0.42851 -8.0268,1.07427 -11.98925,1.91245 -1.14574,0.28338 -5.2112,1.94358 -5.7095,-0.1374 -0.061,-0.25466 0.0875,-0.51636 0.1312,-0.77454 1.68159,-2.74255 4.40629,-4.67985 6.43954,-7.14963 2.58097,-2.79549 5.26586,-5.53722 7.16902,-8.86524 1.50508,-2.60153 2.79844,-5.42395 3.18841,-8.43038 0.01,-1.63638 0.0343,-3.97037 -1.71563,-4.72339 -2.46962,-0.38025 -4.85468,0.69699 -7.00847,1.80902 -2.36063,1.53461 -4.58817,3.26414 -6.22714,5.58954 0,0 -0.73053,-0.43832 -0.73053,-0.43832 z"
     inkscape:connector-curvature="0" />
  <path
     style="color:#000000;fill:none;stroke:#000000;stroke-width:0.75;stroke-linecap:butt;stroke-linejoin:miter;stroke-miterlimit:4;stroke-opacity:1;stroke-dasharray:none;stroke-dashoffset:0;marker:none;visibility:visible;display:inline;overflow:visible;enable-background:accumulate"
     id="path5925"
     d="m 180.28538,63.107915 c -2.40149,0.17531 -4.69443,0.80054 -6.44577,2.50268 -1.11267,1.449286 -1.78037,3.208946 -1.38345,5.026496 0.57218,1.50894 1.73684,2.04507 3.26964,1.895 2.02435,-0.87561 3.48088,-2.62203 4.69216,-4.40498 1.59219,-2.738906 1.62653,-5.656156 1.12199,-8.686156 -0.67218,-3.56921 -2.3711,-6.702019 -4.54842,-9.559471 -1.29158,-1.459084 -2.91306,-2.912894 -4.9828,-2.626944 -0.16323,0.08624 -0.32645,0.17249 -0.48968,0.258735 0,0 -0.36605,-0.769289 -0.36605,-0.769289 l 0,0 c 0.25342,-0.112006 0.50684,-0.224011 0.76027,-0.336016 2.40439,-0.226314 4.2482,1.193172 5.75625,2.957642 2.25741,2.970944 4.01732,6.228823 4.71101,9.936663 0.54899,3.35708 0.47948,6.27266 -1.25906,9.305326 -1.36215,1.98466 -2.99576,3.93715 -5.32788,4.77373 -1.97339,0.12999 -3.48862,-0.62104 -4.17258,-2.57597 -0.4006,-2.12758 0.28005,-4.134226 1.631,-5.811646 1.91892,-1.79691 4.31921,-2.55782 6.9277,-2.73116 0,0 0.10567,0.84536 0.10567,0.84536 z"
     inkscape:connector-curvature="0" />
  <path
     style="color:#000000;fill:none;stroke:#000000;stroke-width:0.75;stroke-linecap:butt;stroke-linejoin:miter;stroke-miterlimit:4;stroke-opacity:1;stroke-dasharray:none;stroke-dashoffset:0;marker:none;visibility:visible;display:inline;overflow:visible;enable-background:accumulate"
     id="path5927"
     d="m 188.28925,59.685115 c -0.068,2.79465 0.30193,5.57301 0.51196,8.355586 0.22341,3.21194 0.28803,6.43187 0.32864,9.6504 0.003,0.40194 0.007,0.80388 0.01,1.20582 0,0 -0.85191,0.007 -0.85191,0.007 l 0,0 c -0.003,-0.40067 -0.007,-0.80133 -0.01,-1.202 -0.0404,-3.20072 -0.10439,-6.40284 -0.3263,-9.59703 -0.21154,-2.803866 -0.58325,-5.603606 -0.51437,-8.419696 0,0 0.85193,0 0.85193,0 z"
     inkscape:connector-curvature="0" />
  <path
     style="color:#000000;fill:none;stroke:#000000;stroke-width:0.75;stroke-linecap:butt;stroke-linejoin:miter;stroke-miterlimit:4;stroke-opacity:1;stroke-dasharray:none;stroke-dashoffset:0;marker:none;visibility:visible;display:inline;overflow:visible;enable-background:accumulate"
     id="path5929"
     d="m 182.69212,60.150765 c 1.39809,-2.03114 3.58136,-3.18147 5.85283,-3.967759 2.5113,-0.619981 4.77694,0.0958 6.63831,1.815519 1.60574,2.08433 1.37135,4.28566 0.24343,6.51571 -1.38058,1.96748 -3.20472,3.497466 -5.37236,4.511936 -1.42777,0.54516 -2.8779,0.87768 -4.36358,0.44062 0,0 0.25798,-0.81194 0.25798,-0.81194 l 0,0 c 1.24655,0.43909 2.5403,0.0127 3.74659,-0.40127 2.00179,-0.92285 3.67637,-2.341156 4.97426,-4.129956 0.98424,-1.86455 1.2368,-3.70874 -0.0691,-5.5037 -1.59947,-1.52693 -3.59039,-2.14847 -5.77864,-1.63123 -2.0831,0.71019 -4.10309,1.75271 -5.39917,3.60039 0,0 -0.73053,-0.43832 -0.73053,-0.43832 z"
     inkscape:connector-curvature="0" />
  <path
     style="color:#000000;fill:none;stroke:#000000;stroke-width:0.75;stroke-linecap:butt;stroke-linejoin:miter;stroke-miterlimit:4;stroke-opacity:1;stroke-dasharray:none;stroke-dashoffset:0;marker:none;visibility:visible;display:inline;overflow:visible;enable-background:accumulate"
     id="path5931"
     d="m 212.60448,54.727175 c -2.55888,3.10149 -4.84422,6.41506 -7.175,9.68773 -3.63996,5.134066 -7.21907,10.311726 -10.69513,15.558226 -2.67632,3.94802 -5.27717,7.95441 -7.74283,12.03809 0,0 -0.72928,-0.4404 -0.72928,-0.4404 l 0,0 c 2.47243,-4.0935 5.07856,-8.11057 7.76192,-12.06824 3.48145,-5.25441 7.06579,-10.44008 10.71139,-15.581886 2.33482,-3.27836 4.62409,-6.59779 7.18738,-9.70468 0,0 0.68155,0.511161 0.68155,0.511161 z"
     inkscape:connector-curvature="0" />
  <path
     style="color:#000000;fill:none;stroke:#000000;stroke-width:0.75;stroke-linecap:butt;stroke-linejoin:miter;stroke-miterlimit:4;stroke-opacity:1;stroke-dasharray:none;stroke-dashoffset:0;marker:none;visibility:visible;display:inline;overflow:visible;enable-background:accumulate"
     id="path5935"
     d="m 223.21862,80.983511 c -0.0179,1.85198 -0.0676,3.68655 0.23686,5.51712 0.35386,1.33475 1.31685,1.86681 2.62691,1.62233 1.67877,-0.33137 2.91398,-1.35674 3.83882,-2.75001 0.76088,-1.39826 0.87277,-2.98413 0.96875,-4.54017 0.44942,0.72817 -0.10512,-0.54811 0.0276,-0.46652 0.29871,0.18365 0.65274,0.33201 0.84685,0.62403 0.14711,0.22132 0.0476,0.53003 0.0942,0.79167 0.16408,0.92189 0.32353,1.3396 0.60352,2.26571 1.02278,3.33443 1.94893,6.69592 2.64757,10.11404 0.53719,2.887636 0.77785,6.014779 -0.79058,8.650739 -0.28584,0.48039 -0.67555,0.89081 -1.01332,1.33622 -1.97031,1.96585 -4.6086,3.41319 -7.47924,3.25088 -0.55211,-0.0312 -1.09015,-0.18656 -1.63522,-0.27984 -3.27321,-0.92732 -5.11883,-3.01899 -6.82007,-5.80935 -0.78498,-1.313943 -1.21863,-2.756913 -1.54344,-4.238273 0,0 0.83241,-0.18134 0.83241,-0.18134 l 0,0 c 0.30067,1.3899 0.70436,2.74331 1.4387,3.976553 1.51231,2.48726 3.31079,4.60431 6.24186,5.41369 3.44628,0.64183 5.76411,-0.24587 8.2894,-2.65132 2.4432,-3.13452 2.30421,-5.504243 1.6448,-9.297499 -0.6923,-3.39299 -1.61401,-6.72892 -2.62858,-10.03871 -0.1171,-0.38986 -0.93829,-2.91765 -0.73389,-3.30842 0.15676,-0.29969 0.55901,-0.38249 0.85405,-0.54784 0.0212,-0.0119 -0.004,0.0485 -0.006,0.0727 -0.007,0.12515 -0.0133,0.25029 -0.02,0.37544 -0.10595,1.70868 -0.25149,3.44032 -1.11232,4.96331 -1.07654,1.58028 -2.49062,2.74761 -4.41464,3.1161 -1.78939,0.23893 -3.13407,-0.50192 -3.59833,-2.32499 -0.30949,-1.87725 -0.27145,-3.75744 -0.24829,-5.65628 0,0 0.85193,0 0.85193,0 z"
     inkscape:connector-curvature="0" />
  <path
     style="color:#000000;fill:none;stroke:#000000;stroke-width:0.75;stroke-linecap:butt;stroke-linejoin:miter;stroke-miterlimit:4;stroke-opacity:1;stroke-dasharray:none;stroke-dashoffset:0;marker:none;visibility:visible;display:inline;overflow:visible;enable-background:accumulate"
     id="path5925-8"
     d="m 214.23206,86.247811 c -2.40149,0.17531 -4.69443,0.80054 -6.44577,2.50268 -1.11267,1.44929 -1.78037,3.20895 -1.38345,5.0265 0.57218,1.50894 1.73684,2.04507 3.26964,1.895 2.02435,-0.87561 3.48088,-2.62203 4.69216,-4.40498 1.59219,-2.73891 1.62653,-5.65616 1.12199,-8.68616 -0.67218,-3.56921 -2.3711,-6.70202 -4.54842,-9.55947 -1.29158,-1.45908 -2.91306,-2.9129 -4.9828,-2.62694 -0.16323,0.0862 -0.32645,0.17249 -0.48968,0.25873 0,0 -0.36605,-0.76929 -0.36605,-0.76929 l 0,0 c 0.25342,-0.11201 0.50684,-0.22401 0.76027,-0.33602 2.40439,-0.22631 4.2482,1.19318 5.75625,2.95765 2.25741,2.97094 4.01732,6.22882 4.71101,9.93666 0.54899,3.35708 0.47948,6.27266 -1.25906,9.30533 -1.36215,1.98466 -2.99576,3.93715 -5.32788,4.77373 -1.97339,0.129986 -3.48862,-0.62104 -4.17258,-2.57597 -0.4006,-2.12758 0.28005,-4.13423 1.631,-5.81165 1.91892,-1.79691 4.31921,-2.55782 6.9277,-2.73116 0,0 0.10567,0.84536 0.10567,0.84536 z"
     inkscape:connector-curvature="0" />
  <path
     style="color:#000000;fill:none;stroke:#000000;stroke-width:0.75;stroke-linecap:butt;stroke-linejoin:miter;stroke-miterlimit:4;stroke-opacity:1;stroke-dasharray:none;stroke-dashoffset:0;marker:none;visibility:visible;display:inline;overflow:visible;enable-background:accumulate"
     id="path5961"
     d="m 246.30445,68.120911 c 2.7035,-0.42549 5.44095,-0.51131 8.15883,-0.79712 3.2528,-0.408096 6.51927,-0.671746 9.79375,-0.814046 1.80449,-0.0563 0.92029,-0.0331 2.65256,-0.0705 0,0 0.0184,0.851726 0.0184,0.851726 l 0,0 c -1.72063,0.0371 -0.84263,0.0141 -2.63398,0.0699 -3.25714,0.14129 -6.50624,0.40424 -9.74179,0.8102 -2.74755,0.28771 -5.51337,0.38367 -8.24774,0.80177 0,0 0,-0.85193 0,-0.85193 z"
     inkscape:connector-curvature="0" />
  <path
     style="color:#000000;fill:none;stroke:#000000;stroke-width:0.75;stroke-linecap:butt;stroke-linejoin:miter;stroke-miterlimit:4;stroke-opacity:1;stroke-dasharray:none;stroke-dashoffset:0;marker:none;visibility:visible;display:inline;overflow:visible;enable-background:accumulate"
     id="path5963"
     d="m 248.00833,72.380591 c 2.97541,-0.3997 5.97811,-0.49347 8.96197,-0.79727 2.84458,-0.37189 5.69719,-0.65659 8.56158,-0.81367 0.3392,0.0197 0.6784,0.0395 1.01759,0.0592 0,0 -0.0519,0.85036 -0.0519,0.85036 l 0,0 c -0.30638,-0.0196 -0.61276,-0.0393 -0.91913,-0.0589 -2.85123,0.15609 -5.69055,0.44075 -8.52208,0.81059 -3.01256,0.30543 -6.04316,0.40743 -9.04808,0.80162 0,0 0,-0.85193 0,-0.85193 z"
     inkscape:connector-curvature="0" />
  <path
     style="color:#000000;fill:none;stroke:#000000;stroke-width:0.75;stroke-linecap:butt;stroke-linejoin:miter;stroke-miterlimit:4;stroke-opacity:1;stroke-dasharray:none;stroke-dashoffset:0;marker:none;visibility:visible;display:inline;overflow:visible;enable-background:accumulate"
     id="path5965"
     d="m 287.03025,60.453485 c -2.03288,0.13055 -3.65252,1.20646 -5.1727,2.46123 -1.43472,1.30399 -2.38728,2.86177 -2.91315,4.712016 -0.29716,1.59109 -0.49911,3.25356 -0.28172,4.86596 0.16305,1.46303 1.18567,2.30152 2.34817,3.05464 1.43546,0.79393 3.06416,0.95137 4.66973,1.05792 1.87446,-0.007 3.16575,-1.1435 4.4237,-2.38495 1.1973,-1.37639 2.01029,-3.01625 2.52441,-4.75563 0.40613,-1.64375 0.43742,-3.343256 0.46449,-5.026656 -0.12647,-1.81692 -1.05654,-3.35764 -2.49946,-4.42562 -2.78725,-1.44971 -4.97496,-0.80612 -7.57646,0.6617 -1.81165,1.42282 -0.93611,0.6747 -2.62635,2.24468 0,0 -0.57925,-0.62472 -0.57925,-0.62472 l 0,0 c 1.77772,-1.6455 0.84871,-0.85645 2.78999,-2.36364 2.92954,-1.6228 5.41895,-2.27156 8.50731,-0.59649 1.6389,1.271 2.71726,3.00388 2.83604,5.11784 -0.0286,1.76099 -0.0662,3.538276 -0.49978,5.255956 -0.5618,1.87535 -1.43799,3.6431 -2.74306,5.11949 -1.43772,1.41393 -2.94734,2.64451 -5.07836,2.62808 -1.75254,-0.11779 -3.52192,-0.30957 -5.07912,-1.19488 -1.36458,-0.89919 -2.53417,-1.93985 -2.72703,-3.65948 -0.21193,-1.73137 -0.0352,-3.50409 0.30793,-5.20941 0.58385,-2.013216 1.61978,-3.720056 3.19041,-5.134456 1.67664,-1.37764 3.47811,-2.53073 5.71426,-2.65551 0,0 0,0.85193 0,0.85193 z"
     inkscape:connector-curvature="0" />
  <path
     style="color:#000000;fill:none;stroke:#000000;stroke-width:0.75;stroke-linecap:butt;stroke-linejoin:miter;stroke-miterlimit:4;stroke-opacity:1;stroke-dasharray:none;stroke-dashoffset:0;marker:none;visibility:visible;display:inline;overflow:visible;enable-background:accumulate"
     id="path5967"
     d="m 178.91796,18.042165 c 0,2.618861 0,5.237722 0,7.856583 0.0634,1.713569 -0.46357,3.892611 1.08817,5.074662 1.50761,0.775961 2.59731,-0.352432 3.56376,-1.397858 1.38609,-1.811474 2.33637,-3.91171 3.05,-6.066067 0.27901,-1.607593 1.04795,-3.456676 0.71806,-5.111233 -0.20357,0.621549 0.47436,0.180864 0.54783,0.393319 0.0581,0.167958 -0.0728,0.348249 -0.0959,0.524456 -0.0423,0.322226 -0.0738,0.645888 -0.10012,0.969806 -0.0756,0.929571 -0.10186,1.707028 -0.14411,2.64217 -0.009,2.350806 -0.47858,4.808623 0.57684,6.995072 1.07409,1.505184 2.64426,1.295632 4.24335,0.939393 0.29835,-0.106764 0.59671,-0.213528 0.89506,-0.320292 0,0 0.28431,0.803096 0.28431,0.803096 l 0,0 c -0.33196,0.11638 -0.66392,0.232759 -0.99589,0.349138 -2.00998,0.439192 -3.93405,0.492957 -5.19816,-1.409619 -1.07246,-2.342954 -0.72257,-4.882172 -0.65658,-7.395291 0.0331,-0.730412 -0.0516,-4.828905 0.98476,-4.995273 0.20445,-0.03282 0.33318,0.245979 0.49977,0.368969 0.25084,1.832726 -0.35774,3.744719 -0.75075,5.514887 -0.75566,2.268252 -1.75761,4.480544 -3.23446,6.377462 -1.30183,1.393801 -2.81293,2.580989 -4.72916,1.475671 -1.71096,-1.482478 -1.4283,-3.641574 -1.39873,-5.732468 0,-2.618861 0,-5.237722 0,-7.856583 0,0 0.85194,0 0.85194,0 z"
     inkscape:connector-curvature="0" />
  <path
     style="color:#000000;fill:none;stroke:#000000;stroke-width:0.75;stroke-linecap:butt;stroke-linejoin:miter;stroke-miterlimit:4;stroke-opacity:1;stroke-dasharray:none;stroke-dashoffset:0;marker:none;visibility:visible;display:inline;overflow:visible;enable-background:accumulate"
     id="path5973"
     d="m 202.95763,20.412503 c 3.16105,-0.389947 6.34625,-0.489055 9.5138,-0.797448 3.35905,-0.294229 6.69705,-0.686201 10.02959,-1.195042 0.4064,-0.05699 0.81281,-0.113983 1.21921,-0.170975 0,0 0.11829,0.843684 0.11829,0.843684 l 0,0 c -0.40297,0.05649 -0.80594,0.112978 -1.20891,0.169466 -3.34786,0.511181 -6.70136,0.904927 -10.07578,1.200809 -3.195,0.309847 -6.40709,0.416285 -9.5962,0.801442 0,0 0,-0.851936 0,-0.851936 z"
     inkscape:connector-curvature="0" />
  <path
     style="color:#000000;fill:none;stroke:#000000;stroke-width:0.75;stroke-linecap:butt;stroke-linejoin:miter;stroke-miterlimit:4;stroke-opacity:1;stroke-dasharray:none;stroke-dashoffset:0;marker:none;visibility:visible;display:inline;overflow:visible;enable-background:accumulate"
     id="path5975"
     d="m 204.5596,23.820247 c 3.02386,-0.03597 6.03461,-0.441481 9.02674,-0.855926 2.4946,-0.299024 4.94927,-0.844946 7.42771,-1.248438 0,0 0.13685,0.840873 0.13685,0.840873 l 0,0 c -2.48512,0.404284 -4.94628,0.952302 -7.44768,1.251445 -3.03083,0.419773 -6.08056,0.828534 -9.14362,0.863981 0,0 0,-0.851935 0,-0.851935 z"
     inkscape:connector-curvature="0" />
  <path
     style="color:#000000;fill:none;stroke:#000000;stroke-width:0.75;stroke-linecap:butt;stroke-linejoin:miter;stroke-miterlimit:4;stroke-opacity:1;stroke-dasharray:none;stroke-dashoffset:0;marker:none;visibility:visible;display:inline;overflow:visible;enable-background:accumulate"
     id="path5977"
     d="m 233.53549,14.448976 c 0.24833,2.302615 1.31664,4.318875 2.37264,6.332349 0.93691,1.826554 2.00158,3.530988 3.50931,4.935777 1.18864,0.789727 1.83274,0.415326 2.24964,-0.807326 0.34844,-1.544185 0.31855,-3.142117 0.32487,-4.716294 -0.13444,-1.602644 -0.49338,-3.137242 -1.16993,-4.594532 -0.72848,-1.702751 -0.047,-2.355299 1.60048,-2.717441 1.90985,-0.201498 3.82126,0.260026 5.71985,0.456113 1.38526,0.132635 2.77592,0.183077 4.16627,0.222563 0,0 -0.0242,0.851592 -0.0242,0.851592 l 0,0 c -1.41153,-0.04023 -2.82338,-0.09169 -4.22971,-0.226742 -1.81171,-0.187745 -3.63507,-0.619945 -5.45688,-0.469819 -1.03228,0.204587 -1.52953,0.388112 -1.00208,1.527105 0.72032,1.572848 1.11932,3.226014 1.24816,4.954607 -0.007,1.671264 0.0243,3.369654 -0.37603,5.003657 -0.73228,1.927638 -1.86923,2.287981 -3.63302,1.13809 -1.5688,-1.478457 -2.70698,-3.244634 -3.68117,-5.161659 -1.09337,-2.084774 -2.18981,-4.179356 -2.45357,-6.560962 0,0 0.8354,-0.167078 0.8354,-0.167078 z"
     inkscape:connector-curvature="0" />
  <path
     style="color:#000000;fill:none;stroke:#000000;stroke-width:0.75;stroke-linecap:butt;stroke-linejoin:miter;stroke-miterlimit:4;stroke-opacity:1;stroke-dasharray:none;stroke-dashoffset:0;marker:none;visibility:visible;display:inline;overflow:visible;enable-background:accumulate"
     id="path5979"
     d="m 260.81924,16.056713 c 3.24758,-0.428345 6.52484,-0.554856 9.79575,-0.659758 2.81719,-0.08154 5.63559,-0.09666 8.45376,-0.101724 0.36382,-1.26e-4 0.72764,-2.52e-4 1.09147,-3.79e-4 0,0 2.9e-4,0.851936 2.9e-4,0.851936 l 0,0 c -0.36341,1.26e-4 -0.72682,2.52e-4 -1.09023,3.78e-4 -2.80958,0.005 -5.61939,0.02006 -8.428,0.101287 -3.23318,0.103585 -6.47251,0.228234 -9.68298,0.648605 0,0 -0.14006,-0.840345 -0.14006,-0.840345 z"
     inkscape:connector-curvature="0" />
  <path
     style="color:#000000;fill:none;stroke:#000000;stroke-width:0.75;stroke-linecap:butt;stroke-linejoin:miter;stroke-miterlimit:4;stroke-opacity:1;stroke-dasharray:none;stroke-dashoffset:0;marker:none;visibility:visible;display:inline;overflow:visible;enable-background:accumulate"
     id="path5981"
     d="m 261.74121,18.708631 c 3.34833,0 6.69667,0 10.045,0 2.87863,0 5.75725,0 8.63588,0 0,0 0,0.851936 0,0.851936 l 0,0 c -2.87863,0 -5.75725,0 -8.63588,0 -3.34833,0 -6.69667,0 -10.045,0 0,0 0,-0.851936 0,-0.851936 z"
     inkscape:connector-curvature="0" />
  <path
     style="color:#000000;fill:none;stroke:#000000;stroke-width:0.75;stroke-linecap:butt;stroke-linejoin:miter;stroke-miterlimit:4;stroke-opacity:1;stroke-dasharray:none;stroke-dashoffset:0;marker:none;visibility:visible;display:inline;overflow:visible;enable-background:accumulate"
     id="path5983"
     d="m 300.66122,11.041207 c -1.96946,-0.099 -3.82966,-0.02609 -5.67464,0.701227 -1.98748,0.873961 -3.1205,2.546291 -4.10461,4.394426 -0.78587,1.558995 -1.04818,3.065968 -0.36125,4.681248 0.63823,1.632468 2.20959,2.474979 3.74449,3.128318 1.98122,0.682315 3.9974,0.660002 6.0257,0.250523 2.06875,-0.608306 4.007,-1.428344 5.51,-3.00575 1.41247,-1.7464 1.4342,-3.584622 0.41882,-5.514128 -1.84293,-2.10759 -4.67069,-2.850662 -7.34998,-3.179749 -1.52142,-0.11729 -2.9429,0.263488 -4.38149,0.685916 0,0 -0.23813,-0.817976 -0.23813,-0.817976 l 0,0 c 1.55272,-0.448421 3.08634,-0.849802 4.72572,-0.713244 2.96378,0.379424 6.0424,1.225191 8.00263,3.637649 1.20645,2.424279 1.13379,4.31847 -0.56556,6.494184 -1.64953,1.67991 -3.70074,2.617364 -5.95571,3.248645 -2.1994,0.432022 -4.38621,0.453947 -6.52781,-0.30311 -1.73861,-0.750809 -3.47208,-1.735209 -4.1963,-3.58656 -0.75146,-1.87045 -0.52054,-3.610306 0.39747,-5.407456 1.08604,-2.026014 2.36257,-3.840118 4.54675,-4.786759 1.94927,-0.751356 3.90619,-0.874111 5.9839,-0.759339 0,0 0,0.851935 0,0.851935 z"
     inkscape:connector-curvature="0" />
  <path
     style="color:#000000;fill:none;stroke:#000000;stroke-width:0.75;stroke-linecap:butt;stroke-linejoin:miter;stroke-miterlimit:4;stroke-opacity:1;stroke-dasharray:none;stroke-dashoffset:0;marker:none;visibility:visible;display:inline;overflow:visible;enable-background:accumulate"
     id="path5925-3"
     d="m 166.15806,502.87266 c -2.40149,0.17531 -4.69443,0.80054 -6.44577,2.50268 -1.11267,1.44929 -1.78038,3.20895 -1.38346,5.0265 0.57219,1.50894 1.73685,2.04507 3.26965,1.895 2.02435,-0.87561 3.48088,-2.62203 4.69216,-4.40498 1.59219,-2.73891 1.62653,-5.65616 1.12199,-8.68616 -0.67218,-3.56921 -2.3711,-6.70202 -4.54842,-9.55947 -1.29158,-1.45908 -2.91306,-2.91289 -4.98281,-2.62694 -0.16323,0.0862 -0.32645,0.17249 -0.48968,0.25873 0,0 -0.36605,-0.76929 -0.36605,-0.76929 l 0,0 c 0.25342,-0.112 0.50684,-0.22401 0.76027,-0.33601 2.4044,-0.22632 4.24821,1.19317 5.75626,2.95764 2.25741,2.97094 4.01732,6.22882 4.71101,9.93666 0.54899,3.35708 0.47948,6.27266 -1.25906,9.30533 -1.36215,1.98466 -2.99576,3.93715 -5.32788,4.77373 -1.97339,0.12999 -3.48863,-0.62104 -4.17259,-2.57597 -0.4006,-2.12758 0.28005,-4.13423 1.63101,-5.81165 1.91892,-1.79691 4.31921,-2.55782 6.9277,-2.73116 0,0 0.10567,0.84536 0.10567,0.84536 z"
     inkscape:connector-curvature="0" />
  <path
     style="color:#000000;fill:none;stroke:#000000;stroke-width:0.75;stroke-linecap:butt;stroke-linejoin:miter;stroke-miterlimit:4;stroke-opacity:1;stroke-dasharray:none;stroke-dashoffset:0;marker:none;visibility:visible;display:inline;overflow:visible;enable-background:accumulate"
     id="path5927-5"
     d="m 174.16193,499.44986 c -0.068,2.79465 0.30193,5.57301 0.51196,8.35559 0.22341,3.21194 0.28803,6.43187 0.32864,9.6504 0.003,0.40194 0.007,0.80388 0.01,1.20582 0,0 -0.85191,0.007 -0.85191,0.007 l 0,0 c -0.003,-0.40067 -0.007,-0.80133 -0.01,-1.202 -0.0404,-3.20072 -0.10439,-6.40284 -0.3263,-9.59703 -0.21154,-2.80387 -0.58325,-5.60361 -0.51437,-8.4197 0,0 0.85193,0 0.85193,0 z"
     inkscape:connector-curvature="0" />
  <path
     style="color:#000000;fill:none;stroke:#000000;stroke-width:0.75;stroke-linecap:butt;stroke-linejoin:miter;stroke-miterlimit:4;stroke-opacity:1;stroke-dasharray:none;stroke-dashoffset:0;marker:none;visibility:visible;display:inline;overflow:visible;enable-background:accumulate"
     id="path5929-0"
     d="m 168.5648,499.91551 c 1.39809,-2.03114 3.58136,-3.18147 5.85283,-3.96776 2.5113,-0.61998 4.77694,0.0958 6.63831,1.81552 1.60574,2.08433 1.37135,4.28566 0.24343,6.51571 -1.38058,1.96748 -3.20472,3.49747 -5.37236,4.51194 -1.42777,0.54516 -2.8779,0.87768 -4.36358,0.44062 0,0 0.25798,-0.81194 0.25798,-0.81194 l 0,0 c 1.24655,0.43909 2.5403,0.0127 3.74659,-0.40127 2.00179,-0.92285 3.67637,-2.34116 4.97426,-4.12996 0.98424,-1.86455 1.2368,-3.70874 -0.0691,-5.5037 -1.59947,-1.52693 -3.59039,-2.14847 -5.77864,-1.63123 -2.0831,0.71019 -4.10309,1.75271 -5.39917,3.60039 0,0 -0.73053,-0.43832 -0.73053,-0.43832 z"
     inkscape:connector-curvature="0" />
  <path
     style="color:#000000;fill:none;stroke:#000000;stroke-width:0.75;stroke-linecap:butt;stroke-linejoin:miter;stroke-miterlimit:4;stroke-opacity:1;stroke-dasharray:none;stroke-dashoffset:0;marker:none;visibility:visible;display:inline;overflow:visible;enable-background:accumulate"
     id="path5931-0"
     d="m 198.47716,494.49192 c -2.55888,3.10149 -4.84422,6.41506 -7.175,9.68773 -3.63996,5.13407 -7.21907,10.31173 -10.69513,15.55823 -2.67632,3.94802 -5.27717,7.95441 -7.74283,12.03809 0,0 -0.72928,-0.4404 -0.72928,-0.4404 l 0,0 c 2.47243,-4.0935 5.07856,-8.11057 7.76192,-12.06824 3.48145,-5.25441 7.06579,-10.44008 10.71139,-15.58189 2.33482,-3.27836 4.62409,-6.59779 7.18738,-9.70468 0,0 0.68155,0.51116 0.68155,0.51116 z"
     inkscape:connector-curvature="0" />
  <path
     style="color:#000000;fill:none;stroke:#000000;stroke-width:0.75;stroke-linecap:butt;stroke-linejoin:miter;stroke-miterlimit:4;stroke-opacity:1;stroke-dasharray:none;stroke-dashoffset:0;marker:none;visibility:visible;display:inline;overflow:visible;enable-background:accumulate"
     id="path5935-9"
     d="m 209.0913,520.74826 c -0.0179,1.85198 -0.0676,3.68655 0.23686,5.51712 0.35386,1.33475 1.31685,1.86681 2.62691,1.62233 1.67877,-0.33137 2.91398,-1.35674 3.83882,-2.75001 0.76088,-1.39826 0.87277,-2.98413 0.96875,-4.54017 0.44942,0.72817 -0.10512,-0.54811 0.0276,-0.46652 0.29871,0.18365 0.65274,0.33201 0.84685,0.62403 0.14711,0.22132 0.0476,0.53003 0.0942,0.79167 0.16408,0.92189 0.32353,1.3396 0.60352,2.26571 1.02278,3.33443 1.94893,6.69592 2.64757,10.11404 0.53719,2.88764 0.77785,6.01478 -0.79058,8.65075 -0.28584,0.48039 -0.67555,0.89081 -1.01332,1.33622 -1.97031,1.96585 -4.6086,3.41319 -7.47924,3.25088 -0.55211,-0.0312 -1.09015,-0.18656 -1.63522,-0.27984 -3.27321,-0.92732 -5.11883,-3.01899 -6.82007,-5.80936 -0.78498,-1.31394 -1.21863,-2.75691 -1.54344,-4.23827 0,0 0.83241,-0.18134 0.83241,-0.18134 l 0,0 c 0.30067,1.3899 0.70436,2.74331 1.4387,3.97655 1.51231,2.48727 3.31079,4.60432 6.24186,5.4137 3.44628,0.64183 5.76411,-0.24587 8.2894,-2.65132 2.4432,-3.13453 2.30421,-5.50425 1.6448,-9.29751 -0.6923,-3.39299 -1.61401,-6.72892 -2.62858,-10.03871 -0.1171,-0.38986 -0.93829,-2.91765 -0.73389,-3.30842 0.15676,-0.29969 0.55901,-0.38249 0.85405,-0.54784 0.0212,-0.0119 -0.004,0.0485 -0.006,0.0727 -0.007,0.12515 -0.0133,0.25029 -0.02,0.37544 -0.10595,1.70868 -0.25149,3.44032 -1.11232,4.96331 -1.07654,1.58028 -2.49062,2.74761 -4.41464,3.1161 -1.78939,0.23893 -3.13407,-0.50192 -3.59833,-2.32499 -0.30949,-1.87725 -0.27145,-3.75744 -0.24829,-5.65628 0,0 0.85193,0 0.85193,0 z"
     inkscape:connector-curvature="0" />
  <path
     style="color:#000000;fill:none;stroke:#000000;stroke-width:0.75;stroke-linecap:butt;stroke-linejoin:miter;stroke-miterlimit:4;stroke-opacity:1;stroke-dasharray:none;stroke-dashoffset:0;marker:none;visibility:visible;display:inline;overflow:visible;enable-background:accumulate"
     id="path5925-8-7"
     d="m 200.10474,526.01256 c -2.40149,0.17531 -4.69443,0.80054 -6.44577,2.50268 -1.11267,1.44929 -1.78037,3.20895 -1.38345,5.0265 0.57218,1.50894 1.73684,2.04507 3.26964,1.895 2.02435,-0.87561 3.48088,-2.62203 4.69216,-4.40498 1.59219,-2.73891 1.62653,-5.65616 1.12199,-8.68616 -0.67218,-3.56921 -2.3711,-6.70202 -4.54842,-9.55947 -1.29158,-1.45908 -2.91306,-2.9129 -4.9828,-2.62694 -0.16323,0.0862 -0.32645,0.17249 -0.48968,0.25873 0,0 -0.36605,-0.76929 -0.36605,-0.76929 l 0,0 c 0.25342,-0.11201 0.50684,-0.22401 0.76027,-0.33602 2.40439,-0.22631 4.2482,1.19318 5.75625,2.95765 2.25741,2.97094 4.01732,6.22882 4.71101,9.93666 0.54899,3.35708 0.47948,6.27266 -1.25906,9.30533 -1.36215,1.98466 -2.99576,3.93715 -5.32788,4.77373 -1.97339,0.12999 -3.48862,-0.62104 -4.17258,-2.57597 -0.4006,-2.12758 0.28005,-4.13423 1.631,-5.81165 1.91892,-1.79691 4.31921,-2.55782 6.9277,-2.73116 0,0 0.10567,0.84536 0.10567,0.84536 z"
     inkscape:connector-curvature="0" />
  <path
     style="color:#000000;fill:none;stroke:#000000;stroke-width:0.75;stroke-linecap:butt;stroke-linejoin:miter;stroke-miterlimit:4;stroke-opacity:1;stroke-dasharray:none;stroke-dashoffset:0;marker:none;visibility:visible;display:inline;overflow:visible;enable-background:accumulate"
     id="path5961-2"
     d="m 232.17713,507.88566 c 2.7035,-0.42549 5.44095,-0.51131 8.15883,-0.79712 3.2528,-0.4081 6.51927,-0.67175 9.79375,-0.81405 1.80449,-0.0563 0.92029,-0.0331 2.65256,-0.0705 0,0 0.0184,0.85173 0.0184,0.85173 l 0,0 c -1.72063,0.0371 -0.84263,0.0141 -2.63398,0.0699 -3.25714,0.14129 -6.50624,0.40424 -9.74179,0.8102 -2.74755,0.28771 -5.51337,0.38367 -8.24774,0.80177 0,0 0,-0.85193 0,-0.85193 z"
     inkscape:connector-curvature="0" />
  <path
     style="color:#000000;fill:none;stroke:#000000;stroke-width:0.75;stroke-linecap:butt;stroke-linejoin:miter;stroke-miterlimit:4;stroke-opacity:1;stroke-dasharray:none;stroke-dashoffset:0;marker:none;visibility:visible;display:inline;overflow:visible;enable-background:accumulate"
     id="path5963-2"
     d="m 233.88101,512.14534 c 2.97541,-0.3997 5.97811,-0.49347 8.96197,-0.79727 2.84458,-0.37189 5.69719,-0.65659 8.56158,-0.81367 0.3392,0.0197 0.6784,0.0395 1.01759,0.0592 0,0 -0.0519,0.85036 -0.0519,0.85036 l 0,0 c -0.30638,-0.0196 -0.61276,-0.0393 -0.91913,-0.0589 -2.85123,0.15609 -5.69055,0.44075 -8.52208,0.81059 -3.01256,0.30543 -6.04316,0.40743 -9.04808,0.80162 0,0 0,-0.85193 0,-0.85193 z"
     inkscape:connector-curvature="0" />
  <path
     style="color:#000000;fill:none;stroke:#000000;stroke-width:0.75;stroke-linecap:butt;stroke-linejoin:miter;stroke-miterlimit:4;stroke-opacity:1;stroke-dasharray:none;stroke-dashoffset:0;marker:none;visibility:visible;display:inline;overflow:visible;enable-background:accumulate"
     id="path5965-0"
     d="m 272.90293,500.21823 c -2.03288,0.13055 -3.65252,1.20646 -5.1727,2.46123 -1.43472,1.30399 -2.38728,2.86177 -2.91315,4.71202 -0.29716,1.59109 -0.49911,3.25356 -0.28172,4.86596 0.16305,1.46303 1.18567,2.30152 2.34817,3.05464 1.43546,0.79393 3.06416,0.95137 4.66973,1.05792 1.87446,-0.007 3.16575,-1.1435 4.4237,-2.38495 1.1973,-1.37639 2.01029,-3.01625 2.52441,-4.75563 0.40613,-1.64375 0.43742,-3.34326 0.46449,-5.02666 -0.12647,-1.81692 -1.05654,-3.35764 -2.49946,-4.42562 -2.78725,-1.44971 -4.97496,-0.80612 -7.57646,0.6617 -1.81165,1.42282 -0.93611,0.6747 -2.62635,2.24468 0,0 -0.57925,-0.62472 -0.57925,-0.62472 l 0,0 c 1.77772,-1.6455 0.84871,-0.85645 2.78999,-2.36364 2.92954,-1.6228 5.41895,-2.27156 8.50731,-0.59649 1.6389,1.271 2.71726,3.00388 2.83604,5.11784 -0.0286,1.76099 -0.0662,3.53828 -0.49978,5.25596 -0.5618,1.87535 -1.43799,3.6431 -2.74306,5.11949 -1.43772,1.41393 -2.94734,2.64451 -5.07836,2.62808 -1.75254,-0.11779 -3.52192,-0.30957 -5.07912,-1.19488 -1.36458,-0.89919 -2.53417,-1.93985 -2.72703,-3.65948 -0.21193,-1.73137 -0.0352,-3.50409 0.30793,-5.20941 0.58385,-2.01322 1.61978,-3.72006 3.19041,-5.13446 1.67664,-1.37764 3.47811,-2.53073 5.71426,-2.65551 0,0 0,0.85193 0,0.85193 z"
     inkscape:connector-curvature="0" />
  <path
     style="color:#000000;fill:none;stroke:#000000;stroke-width:0.75;stroke-linecap:butt;stroke-linejoin:miter;stroke-miterlimit:4;stroke-opacity:1;stroke-dasharray:none;stroke-dashoffset:0;marker:none;visibility:visible;display:inline;overflow:visible;enable-background:accumulate"
     id="path5967-2"
     d="m 164.79064,457.80691 c 0,2.61886 0,5.23772 0,7.85658 0.0634,1.71357 -0.46357,3.89262 1.08817,5.07467 1.50761,0.77596 2.59731,-0.35244 3.56376,-1.39786 1.38609,-1.81148 2.33637,-3.91171 3.05,-6.06607 0.27901,-1.60759 1.04795,-3.45667 0.71806,-5.11123 -0.20357,0.62155 0.47436,0.18086 0.54783,0.39332 0.0581,0.16795 -0.0728,0.34825 -0.0959,0.52445 -0.0423,0.32223 -0.0738,0.64589 -0.10012,0.96981 -0.0756,0.92957 -0.10186,1.70703 -0.14411,2.64217 -0.009,2.35081 -0.47858,4.80862 0.57684,6.99507 1.07409,1.50519 2.64426,1.29563 4.24335,0.93939 0.29835,-0.10676 0.59671,-0.21352 0.89506,-0.32029 0,0 0.28431,0.8031 0.28431,0.8031 l 0,0 c -0.33196,0.11638 -0.66392,0.23276 -0.99589,0.34914 -2.00998,0.43919 -3.93405,0.49295 -5.19816,-1.40962 -1.07246,-2.34296 -0.72257,-4.88217 -0.65658,-7.39529 0.0331,-0.73042 -0.0516,-4.82891 0.98476,-4.99528 0.20445,-0.0328 0.33318,0.24598 0.49977,0.36897 0.25084,1.83273 -0.35774,3.74472 -0.75075,5.51489 -0.75566,2.26825 -1.75761,4.48054 -3.23446,6.37746 -1.30183,1.3938 -2.81293,2.58099 -4.72916,1.47567 -1.71096,-1.48248 -1.4283,-3.64157 -1.39873,-5.73247 0,-2.61886 0,-5.23772 0,-7.85658 0,0 0.85194,0 0.85194,0 z"
     inkscape:connector-curvature="0" />
  <path
     style="color:#000000;fill:none;stroke:#000000;stroke-width:0.75;stroke-linecap:butt;stroke-linejoin:miter;stroke-miterlimit:4;stroke-opacity:1;stroke-dasharray:none;stroke-dashoffset:0;marker:none;visibility:visible;display:inline;overflow:visible;enable-background:accumulate"
     id="path5973-6"
     d="m 188.83031,460.17725 c 3.16105,-0.38995 6.34625,-0.48906 9.5138,-0.79745 3.35905,-0.29423 6.69705,-0.6862 10.02959,-1.19504 0.4064,-0.057 0.81281,-0.11398 1.21921,-0.17098 0,0 0.11829,0.84369 0.11829,0.84369 l 0,0 c -0.40297,0.0565 -0.80594,0.11298 -1.20891,0.16946 -3.34786,0.51118 -6.70136,0.90493 -10.07578,1.20081 -3.195,0.30985 -6.40709,0.41629 -9.5962,0.80145 0,0 0,-0.85194 0,-0.85194 z"
     inkscape:connector-curvature="0" />
  <path
     style="color:#000000;fill:none;stroke:#000000;stroke-width:0.75;stroke-linecap:butt;stroke-linejoin:miter;stroke-miterlimit:4;stroke-opacity:1;stroke-dasharray:none;stroke-dashoffset:0;marker:none;visibility:visible;display:inline;overflow:visible;enable-background:accumulate"
     id="path5975-8"
     d="m 190.43228,463.58499 c 3.02386,-0.036 6.03461,-0.44148 9.02674,-0.85592 2.4946,-0.29903 4.94927,-0.84495 7.42771,-1.24844 0,0 0.13685,0.84087 0.13685,0.84087 l 0,0 c -2.48512,0.40429 -4.94628,0.9523 -7.44768,1.25145 -3.03083,0.41977 -6.08056,0.82853 -9.14362,0.86398 0,0 0,-0.85194 0,-0.85194 z"
     inkscape:connector-curvature="0" />
  <path
     style="color:#000000;fill:none;stroke:#000000;stroke-width:0.75;stroke-linecap:butt;stroke-linejoin:miter;stroke-miterlimit:4;stroke-opacity:1;stroke-dasharray:none;stroke-dashoffset:0;marker:none;visibility:visible;display:inline;overflow:visible;enable-background:accumulate"
     id="path5977-1"
     d="m 219.40817,454.21372 c 0.24833,2.30262 1.31664,4.31888 2.37264,6.33235 0.93691,1.82656 2.00158,3.53099 3.50931,4.93578 1.18864,0.78973 1.83274,0.41532 2.24964,-0.80733 0.34844,-1.54418 0.31855,-3.14211 0.32487,-4.71629 -0.13444,-1.60265 -0.49338,-3.13724 -1.16993,-4.59453 -0.72848,-1.70276 -0.047,-2.3553 1.60048,-2.71745 1.90985,-0.20149 3.82126,0.26003 5.71985,0.45612 1.38526,0.13263 2.77592,0.18307 4.16627,0.22256 0,0 -0.0242,0.85159 -0.0242,0.85159 l 0,0 c -1.41153,-0.0402 -2.82338,-0.0917 -4.22971,-0.22674 -1.81171,-0.18774 -3.63507,-0.61994 -5.45688,-0.46982 -1.03228,0.20459 -1.52953,0.38811 -1.00208,1.52711 0.72032,1.57284 1.11932,3.22601 1.24816,4.9546 -0.007,1.67127 0.0243,3.36966 -0.37603,5.00366 -0.73228,1.92764 -1.86923,2.28798 -3.63302,1.13809 -1.5688,-1.47846 -2.70698,-3.24463 -3.68117,-5.16166 -1.09337,-2.08477 -2.18981,-4.17935 -2.45357,-6.56096 0,0 0.8354,-0.16708 0.8354,-0.16708 z"
     inkscape:connector-curvature="0" />
  <path
     style="color:#000000;fill:none;stroke:#000000;stroke-width:0.75;stroke-linecap:butt;stroke-linejoin:miter;stroke-miterlimit:4;stroke-opacity:1;stroke-dasharray:none;stroke-dashoffset:0;marker:none;visibility:visible;display:inline;overflow:visible;enable-background:accumulate"
     id="path5979-1"
     d="m 246.69192,455.82146 c 3.24758,-0.42835 6.52484,-0.55486 9.79575,-0.65976 2.81719,-0.0815 5.63559,-0.0967 8.45376,-0.10172 0.36382,-1.3e-4 0.72764,-2.6e-4 1.09147,-3.8e-4 0,0 2.9e-4,0.85193 2.9e-4,0.85193 l 0,0 c -0.36341,1.3e-4 -0.72682,2.6e-4 -1.09023,3.8e-4 -2.80958,0.005 -5.61939,0.0201 -8.428,0.10129 -3.23318,0.10358 -6.47251,0.22823 -9.68298,0.6486 0,0 -0.14006,-0.84034 -0.14006,-0.84034 z"
     inkscape:connector-curvature="0" />
  <path
     style="color:#000000;fill:none;stroke:#000000;stroke-width:0.75;stroke-linecap:butt;stroke-linejoin:miter;stroke-miterlimit:4;stroke-opacity:1;stroke-dasharray:none;stroke-dashoffset:0;marker:none;visibility:visible;display:inline;overflow:visible;enable-background:accumulate"
     id="path5981-3"
     d="m 247.61389,458.47338 c 3.34833,0 6.69667,0 10.045,0 2.87863,0 5.75725,0 8.63588,0 0,0 0,0.85193 0,0.85193 l 0,0 c -2.87863,0 -5.75725,0 -8.63588,0 -3.34833,0 -6.69667,0 -10.045,0 0,0 0,-0.85193 0,-0.85193 z"
     inkscape:connector-curvature="0" />
  <path
     style="color:#000000;fill:none;stroke:#000000;stroke-width:0.75;stroke-linecap:butt;stroke-linejoin:miter;stroke-miterlimit:4;stroke-opacity:1;stroke-dasharray:none;stroke-dashoffset:0;marker:none;visibility:visible;display:inline;overflow:visible;enable-background:accumulate"
     id="path5983-5"
     d="m 286.5339,450.80595 c -1.96946,-0.099 -3.82966,-0.0261 -5.67464,0.70123 -1.98748,0.87396 -3.1205,2.54629 -4.10461,4.39443 -0.78587,1.55899 -1.04818,3.06596 -0.36125,4.68124 0.63823,1.63247 2.20959,2.47498 3.74449,3.12832 1.98122,0.68232 3.9974,0.66 6.0257,0.25053 2.06875,-0.60831 4.007,-1.42835 5.51,-3.00575 1.41247,-1.74641 1.4342,-3.58463 0.41882,-5.51413 -1.84293,-2.10759 -4.67069,-2.85067 -7.34998,-3.17975 -1.52142,-0.11729 -2.9429,0.26349 -4.38149,0.68591 0,0 -0.23813,-0.81797 -0.23813,-0.81797 l 0,0 c 1.55272,-0.44842 3.08634,-0.8498 4.72572,-0.71325 2.96378,0.37943 6.0424,1.22519 8.00263,3.63765 1.20645,2.42428 1.13379,4.31847 -0.56556,6.49419 -1.64953,1.67991 -3.70074,2.61736 -5.95571,3.24864 -2.1994,0.43202 -4.38621,0.45395 -6.52781,-0.30311 -1.73861,-0.75081 -3.47208,-1.73521 -4.1963,-3.58656 -0.75146,-1.87045 -0.52054,-3.6103 0.39747,-5.40745 1.08604,-2.02602 2.36257,-3.84012 4.54675,-4.78676 1.94927,-0.75136 3.90619,-0.87411 5.9839,-0.75934 0,0 0,0.85193 0,0.85193 z"
     inkscape:connector-curvature="0" />
  <path
     style="color:#000000;fill:none;stroke:#000000;stroke-width:0.75;stroke-linecap:butt;stroke-linejoin:miter;stroke-miterlimit:4;stroke-opacity:1;stroke-dasharray:none;stroke-dashoffset:0;marker:none;visibility:visible;display:inline;overflow:visible;enable-background:accumulate"
     id="path6056"
     d="m 328.90944,276.69516 c 4.21311,-1.55459 8.18653,-3.69324 12.19398,-5.70418 6.34328,-3.19173 12.81545,-6.13106 19.33666,-8.94017 3.00557,-1.25295 6.10509,-2.27358 9.08928,-3.57517 0,0 0.34027,0.78103 0.34027,0.78103 l 0,0 c -2.98642,1.29965 -6.08414,2.32718 -9.09251,3.57658 -6.50608,2.80238 -12.96312,5.73495 -19.29161,8.91918 -4.04378,2.02916 -8.05353,4.18672 -12.30666,5.75095 0,0 -0.26941,-0.80822 -0.26941,-0.80822 z"
     inkscape:connector-curvature="0" />
  <path
     style="color:#000000;fill:none;stroke:#000000;stroke-width:0.75;stroke-linecap:butt;stroke-linejoin:miter;stroke-miterlimit:4;stroke-opacity:1;stroke-dasharray:none;stroke-dashoffset:0;marker:none;visibility:visible;display:inline;overflow:visible;enable-background:accumulate"
     id="path6058"
     d="m 327.14977,284.28379 c 4.83504,-2.46633 9.73408,-4.80113 14.65755,-7.08471 7.00412,-3.27696 14.07458,-6.40497 21.19211,-9.42638 2.19049,-0.96958 4.46233,-1.73049 6.69515,-2.59143 0.70973,-0.27366 1.33706,-0.56386 2.08318,-0.69838 0,0 0.14367,0.83973 0.14367,0.83973 l 0,0 c -0.69192,0.10918 -1.27405,0.40426 -1.92925,0.65691 -2.22098,0.85645 -4.48102,1.61274 -6.65985,2.57737 -7.10895,3.01776 -14.17089,6.14199 -21.16656,9.41503 -4.91593,2.28001 -9.80741,4.61128 -14.635,7.07386 0,0 -0.381,-0.762 -0.381,-0.762 z"
     inkscape:connector-curvature="0" />
  <path
     style="color:#000000;fill:none;stroke:#000000;stroke-width:0.75;stroke-linecap:butt;stroke-linejoin:miter;stroke-miterlimit:4;stroke-opacity:1;stroke-dasharray:none;stroke-dashoffset:0;marker:none;visibility:visible;display:inline;overflow:visible;enable-background:accumulate"
     id="path6056-7"
     d="m 93.97063,278.05528 c 4.21311,-1.55459 8.18653,-3.69324 12.19398,-5.70418 6.34328,-3.19173 12.81545,-6.13106 19.33666,-8.94017 3.00557,-1.25295 6.10509,-2.27358 9.08928,-3.57517 0,0 0.34027,0.78103 0.34027,0.78103 l 0,0 c -2.98642,1.29965 -6.08414,2.32718 -9.09251,3.57658 -6.50608,2.80238 -12.96312,5.73495 -19.29161,8.91918 -4.04378,2.02916 -8.05353,4.18672 -12.30666,5.75095 0,0 -0.26941,-0.80822 -0.26941,-0.80822 z"
     inkscape:connector-curvature="0" />
  <path
     style="color:#000000;fill:none;stroke:#000000;stroke-width:0.75;stroke-linecap:butt;stroke-linejoin:miter;stroke-miterlimit:4;stroke-opacity:1;stroke-dasharray:none;stroke-dashoffset:0;marker:none;visibility:visible;display:inline;overflow:visible;enable-background:accumulate"
     id="path6058-8"
     d="m 92.21096,285.64391 c 4.83504,-2.46633 9.73408,-4.80113 14.65755,-7.08471 7.00412,-3.27696 14.07458,-6.40497 21.19211,-9.42638 2.19049,-0.96958 4.46233,-1.73049 6.69515,-2.59143 0.70973,-0.27366 1.33706,-0.56386 2.08318,-0.69838 0,0 0.14367,0.83973 0.14367,0.83973 l 0,0 c -0.69192,0.10918 -1.27405,0.40426 -1.92925,0.65691 -2.22098,0.85645 -4.48102,1.61274 -6.65985,2.57737 -7.10895,3.01776 -14.17089,6.14199 -21.16656,9.41503 -4.91593,2.28001 -9.80741,4.61128 -14.635,7.07386 0,0 -0.381,-0.762 -0.381,-0.762 z"
     inkscape:connector-curvature="0" />
  <path
     style="color:#000000;fill:none;stroke:#000000;stroke-width:0.75;stroke-linecap:butt;stroke-linejoin:miter;stroke-miterlimit:4;stroke-opacity:1;stroke-dasharray:none;stroke-dashoffset:0;marker:none;visibility:visible;display:inline;overflow:visible;enable-background:accumulate"
     id="path6081"
     d="m 116.33572,306.15761 c -1.29515,2.30514 -2.50533,4.65642 -3.79205,6.96594 -1.78028,2.9187 -3.21343,6.01193 -4.67096,9.09731 -0.72388,1.61883 -1.43765,3.24304 -2.1942,4.84693 0,0 -0.77046,-0.36356 -0.77046,-0.36356 l 0,0 c 0.75707,-1.60377 1.46975,-3.22863 2.19436,-4.84727 1.46564,-3.10254 2.9078,-6.21269 4.69706,-9.14809 1.30566,-2.34277 2.52625,-4.73194 3.8547,-7.06242 0,0 0.68155,0.51116 0.68155,0.51116 z"
     inkscape:connector-curvature="0" />
  <path
     style="color:#000000;fill:none;stroke:#000000;stroke-width:0.75;stroke-linecap:butt;stroke-linejoin:miter;stroke-miterlimit:4;stroke-opacity:1;stroke-dasharray:none;stroke-dashoffset:0;marker:none;visibility:visible;display:inline;overflow:visible;enable-background:accumulate"
     id="path6083"
     d="m 115.26777,307.48865 c 1.48883,2.51922 3.00497,5.02258 4.52009,7.52631 1.62625,2.76052 3.31464,5.48338 4.98429,8.2176 0.99437,1.32187 1.91307,2.69768 2.88578,4.03412 0,0 -0.68907,0.50099 -0.68907,0.50099 l 0,0 c -0.98481,-1.35591 -1.92018,-2.74773 -2.92381,-4.09113 -1.67014,-2.73524 -3.35928,-5.45899 -4.98606,-8.22051 -1.51567,-2.50465 -3.03224,-5.009 -4.52175,-7.52907 0,0 0.73053,-0.43831 0.73053,-0.43831 z"
     inkscape:connector-curvature="0" />
  <path
     style="color:#000000;fill:none;stroke:#000000;stroke-width:0.75;stroke-linecap:butt;stroke-linejoin:miter;stroke-miterlimit:4;stroke-opacity:1;stroke-dasharray:none;stroke-dashoffset:0;marker:none;visibility:visible;display:inline;overflow:visible;enable-background:accumulate"
     id="path6085"
     d="m 159.5652,366.6421 c 1.9686,0.88629 3.89845,1.8539 5.85222,2.77162 1.79495,0.8019 3.35042,2.02124 5.06787,2.95501 1.11757,0.93555 2.48577,1.21358 3.81772,1.66805 1.90018,0.83932 0.21215,1.82053 -0.79134,2.3681 -1.59648,0.84953 -3.21638,1.66044 -4.85182,2.43347 -1.35228,0.74454 -2.67663,1.55938 -4.08428,2.19588 -1.26473,0.68705 -2.49474,1.44044 -3.64155,2.31103 -1.07933,0.76158 -2.16,1.51647 -3.25126,2.26028 0,0 -0.47953,-0.70416 -0.47953,-0.70416 l 0,0 c 1.08035,-0.735 2.14832,-1.48361 3.21709,-2.23576 1.20119,-0.9043 2.47989,-1.6993 3.80586,-2.40838 1.40533,-0.62803 2.71807,-1.45563 4.0698,-2.18921 1.62185,-0.76563 3.22755,-1.57054 4.81049,-2.41256 1.64618,-0.88068 -0.38048,0.23143 1.00271,-0.60604 0.23558,-0.14264 0.67112,0.25322 -0.0834,-0.20709 -1.37113,-0.47651 -2.7953,-0.76219 -3.94859,-1.7258 -1.70005,-0.93102 -3.24722,-2.12823 -5.02204,-2.93176 -1.93847,-0.9111 -3.85399,-1.87004 -5.80633,-2.75168 0,0 0.3164,-0.791 0.3164,-0.791 z"
     inkscape:connector-curvature="0" />
  <path
     style="color:#000000;fill:none;stroke:#000000;stroke-width:0.75;stroke-linecap:butt;stroke-linejoin:miter;stroke-miterlimit:4;stroke-opacity:1;stroke-dasharray:none;stroke-dashoffset:0;marker:none;visibility:visible;display:inline;overflow:visible;enable-background:accumulate"
     id="path6087"
     d="m 85.094825,317.16264 c -0.40117,2.07066 -0.53647,4.17882 -0.64649,6.28119 0.0656,1.61604 0.21767,3.35432 1.349125,4.59808 1.22481,0.93693 2.44776,-0.0254 3.41555,-0.86197 1.17464,-1.29036 1.89789,-2.8956 2.3708,-4.55774 0.20535,-0.82148 0.29229,-1.66311 0.3629,-2.50452 0.0598,-0.7131 0.0575,-0.93493 0.0766,-0.93067 0.32153,0.0717 0.57546,0.32079 0.86318,0.48118 0.42841,3.00866 0.57142,6.04528 0.69108,9.07865 0.0658,4.78082 -0.57465,7.87883 -3.64799,11.58788 -2.86539,2.67767 -5.658585,2.77454 -9.253525,1.69969 -3.29287,-1.2806 -5.9951,-3.49319 -8.10713,-6.28849 -0.87723,-1.4977 -0.49708,-0.74434 -1.15473,-2.25281 0,0 0.78179,-0.33851 0.78179,-0.33851 l 0,0 c 0.59662,1.38833 0.25028,0.69292 1.05355,2.07892 1.99299,2.65744 4.5608,4.75524 7.67379,5.98563 3.23486,0.99639 5.741405,0.9664 8.351685,-1.42971 2.94654,-3.51688 3.50669,-6.45926 3.45128,-11.00904 -0.11964,-3.03626 -0.26743,-6.07446 -0.69135,-9.08649 0.27865,-0.14023 0.53002,-0.3597 0.83594,-0.42069 0.0852,-0.017 -0.0194,0.17271 -0.0265,0.25931 -0.0182,0.22095 -0.0306,0.44235 -0.0493,0.66325 -0.0758,0.89434 -0.1709,1.7886 -0.39227,2.66106 -0.52505,1.82094 -1.3232,3.57475 -2.63566,4.9702 -1.35933,1.15435 -3.01297,2.12052 -4.61133,0.77529 -1.238575,-1.46205 -1.526105,-3.32656 -1.558235,-5.20307 0.1124,-2.14349 0.25188,-4.29272 0.66187,-6.4037 0,0 0.83539,0.16708 0.83539,0.16708 z"
     inkscape:connector-curvature="0" />
  <path
     style="color:#000000;fill:none;stroke:#000000;stroke-width:0.75;stroke-linecap:butt;stroke-linejoin:miter;stroke-miterlimit:4;stroke-opacity:1;stroke-dasharray:none;stroke-dashoffset:0;marker:none;visibility:visible;display:inline;overflow:visible;enable-background:accumulate"
     id="path6089"
     d="m 150.53014,394.30118 c 1.72135,-1.21234 3.70913,-1.79342 5.78733,-1.94484 2.39709,0.1516 3.16808,1.29457 3.6543,3.4852 0.23144,2.71184 -1.40897,4.75575 -3.3171,6.45438 -1.72914,1.43449 -3.78901,2.05788 -5.97222,2.35134 -0.88933,0.17387 -1.65828,0.0451 -2.49505,-0.23819 0,0 0.28846,-0.80162 0.28846,-0.80162 l 0,0 c 0.69762,0.27223 1.34156,0.33502 2.09402,0.19534 2.01491,-0.26618 3.91878,-0.82463 5.51939,-2.14414 1.67353,-1.47938 3.20298,-3.25475 3.04996,-5.63634 -0.34349,-1.62296 -0.92457,-2.73972 -2.76346,-2.81603 -1.91451,0.12216 -3.74584,0.67198 -5.33447,1.77645 0,0 -0.51116,-0.68155 -0.51116,-0.68155 z"
     inkscape:connector-curvature="0" />
  <path
     style="color:#000000;fill:none;stroke:#000000;stroke-width:0.75;stroke-linecap:butt;stroke-linejoin:miter;stroke-miterlimit:4;stroke-opacity:1;stroke-dasharray:none;stroke-dashoffset:0;marker:none;visibility:visible;display:inline;overflow:visible;enable-background:accumulate"
     id="path6091"
     d="m 168.52763,392.70765 c -1.93988,-0.14093 -3.83109,0.61729 -5.40536,1.69878 -1.48359,1.30462 -1.9577,2.99278 -1.68983,4.89928 0.89787,2.08522 3.01674,2.80334 5.05531,3.32341 1.5683,0.3639 3.12043,0.24138 4.66036,-0.15252 0,0 0.20571,0.82673 0.20571,0.82673 l 0,0 c -1.68335,0.40854 -3.36801,0.55922 -5.0781,0.15092 -2.38929,-0.61808 -4.76445,-1.53641 -5.68803,-4.03809 -0.27453,-2.24048 0.29087,-4.21096 2.05763,-5.71564 1.78382,-1.188 3.86764,-2.03411 6.04938,-1.82826 0,0 -0.16707,0.83539 -0.16707,0.83539 z"
     inkscape:connector-curvature="0" />
  <path
     style="color:#000000;fill:none;stroke:#000000;stroke-width:0.75;stroke-linecap:butt;stroke-linejoin:miter;stroke-miterlimit:4;stroke-opacity:1;stroke-dasharray:none;stroke-dashoffset:0;marker:none;visibility:visible;display:inline;overflow:visible;enable-background:accumulate"
     id="path6095"
     d="m 237.70153,375.01074 c -0.0338,1.95856 0.0924,3.92215 -0.10414,5.87288 -0.29617,1.79685 -0.53033,3.59891 -0.65291,5.41589 -0.0939,1.69589 -0.0963,3.39498 -0.10054,5.09291 -9.7e-4,1.70192 0.002,3.40384 0.004,5.10575 0.001,1.70385 0.002,3.4077 0.002,5.11155 1.1e-4,1.7039 7e-5,3.4078 6e-5,5.1117 -2e-5,1.70387 -3e-5,3.40775 -3e-5,5.11162 0,1.70387 0,3.40774 0,5.11161 0,1.70388 0,3.40775 0,5.11162 0,1.70387 0,3.40774 0,5.11162 0,1.70387 0,3.40774 0,5.11161 0,1.70387 0,3.40774 0,5.11162 -0.10823,1.00001 -0.34583,1.97869 -0.5196,2.96832 0,0 -0.83908,-0.1475 -0.83908,-0.1475 l 0,0 c 0.16563,-0.94117 0.38451,-1.87264 0.50674,-2.82082 0,-1.70388 0,-3.40775 0,-5.11162 0,-1.70387 0,-3.40774 0,-5.11161 0,-1.70388 0,-3.40775 0,-5.11162 0,-1.70387 0,-3.40774 0,-5.11162 0,-1.70387 0,-3.40774 0,-5.11161 1e-5,-1.70388 1e-5,-3.40775 3e-5,-5.11163 1e-5,-1.70387 5e-5,-3.40774 -6e-5,-5.11161 -1.6e-4,-1.70362 -4e-4,-3.40723 -0.002,-5.11085 -0.002,-1.70288 -0.005,-3.40576 -0.004,-5.10864 0.004,-1.7164 0.007,-3.43397 0.10247,-5.14826 0.12375,-1.8268 0.35552,-3.63931 0.65545,-5.44564 0.20218,-1.9204 0.0572,-3.85708 0.0997,-5.78567 0,0 0.85193,0 0.85193,0 z"
     inkscape:connector-curvature="0" />
  <path
     style="color:#000000;fill:none;stroke:#000000;stroke-width:0.75;stroke-linecap:butt;stroke-linejoin:miter;stroke-miterlimit:4;stroke-opacity:1;stroke-dasharray:none;stroke-dashoffset:0;marker:none;visibility:visible;display:inline;overflow:visible;enable-background:accumulate"
     id="path6097"
     d="m 239.40538,372.465 c -1.4233,0.40651 -2.45849,1.38317 -2.84361,2.81224 0.0982,1.25166 1.33811,0.8882 2.14432,0.56461 1.49019,-0.76507 2.60657,-1.96923 2.56425,-3.69652 -0.3918,-1.57834 -1.65291,-2.31962 -3.09664,-2.79518 -1.43267,-0.45401 -2.71127,-0.28778 -4.04897,0.30265 -1.1255,0.67307 -1.29479,1.93038 -1.44749,3.12712 -0.21426,1.39314 -0.0901,2.58166 0.8016,3.69136 0.97786,0.79207 2.30694,0.986 3.52999,0.88754 1.21018,-0.3554 1.75465,-1.09721 2.10466,-2.25671 0.16145,-1.51515 -0.7206,-2.45064 -2.00239,-3.05378 -1.21185,-0.42239 -2.5808,-0.62069 -3.64649,0.21863 -0.75163,0.96072 -0.86372,2.04275 -0.20719,3.06041 1.00912,0.98097 2.45605,1.21104 3.81101,1.15366 1.47898,-0.3143 2.21347,-1.54849 2.70561,-2.86893 0.2438,-1.20863 -0.2157,-2.18645 -1.46367,-2.37004 -0.37719,0.0346 -0.57511,0.19141 -0.74513,0.50918 0,0 -0.69238,-0.49638 -0.69238,-0.49638 l 0,0 c 0.44083,-0.5471 0.8461,-0.86422 1.59332,-0.85036 1.75867,0.37214 2.50066,1.75941 2.10447,3.50959 -0.63549,1.65227 -1.61215,3.08999 -3.47406,3.41841 -1.67605,0.0425 -3.39547,-0.26608 -4.56919,-1.56597 -0.82386,-1.43975 -0.69949,-2.92764 0.43559,-4.18818 1.3902,-0.96069 2.96987,-0.88527 4.51984,-0.29658 1.65535,0.82213 2.72557,2.12332 2.44406,4.07367 -0.47563,1.48939 -1.2846,2.47143 -2.85951,2.8533 -1.51727,0.0904 -3.10212,-0.15412 -4.26098,-1.21437 -0.99524,-1.31149 -1.23743,-2.69712 -0.97403,-4.32394 0.19833,-1.50929 0.50999,-2.99706 1.94945,-3.7975 1.53388,-0.67209 3.0309,-0.84481 4.66274,-0.33051 1.79758,0.61209 3.29191,1.61675 3.67771,3.6045 -0.0447,2.09499 -1.24731,3.57465 -3.11263,4.49095 -1.61349,0.59049 -3.2765,0.5642 -3.26572,-1.59921 0.5316,-1.72365 1.72912,-2.93148 3.49438,-3.40905 0,0 0.16708,0.83539 0.16708,0.83539 z"
     inkscape:connector-curvature="0" />
  <path
     style="color:#000000;fill:none;stroke:#000000;stroke-width:0.75;stroke-linecap:butt;stroke-linejoin:miter;stroke-miterlimit:4;stroke-opacity:1;stroke-dasharray:none;stroke-dashoffset:0;marker:none;visibility:visible;display:inline;overflow:visible;enable-background:accumulate"
     id="path6099"
     d="m 245.36896,103.24318 c 0,1.97707 0,3.95413 0,5.93119 0,2.10917 0,4.21834 0,6.32752 0,1.92544 0,3.85089 0,5.77634 -0.0333,1.71354 -0.0437,3.40285 0.23687,5.09509 0.33055,1.70083 0.47658,3.42565 0.55947,5.15366 0.0281,1.70154 0.0194,3.38023 0.29848,5.06113 0.32931,1.70341 0.47303,3.43084 0.55471,5.16118 0.0625,1.70973 0.0597,3.42093 0.0604,5.13152 -0.001,1.70403 -0.004,3.40806 -0.005,5.11209 -0.001,1.70378 -0.001,3.40755 -0.001,5.11133 -4e-5,1.70387 -1e-5,3.40773 0,5.11159 1e-5,1.70388 2e-5,3.40775 2e-5,5.11162 0,1.06798 0,2.13596 0,3.20393 0,0 -0.85194,0 -0.85194,0 l 0,0 c 0,-1.06797 0,-2.13595 0,-3.20393 0,-1.70387 0,-3.40774 -2e-5,-5.11161 -10e-6,-1.70388 -4e-5,-3.40776 1e-5,-5.11164 8e-5,-1.70397 1.9e-4,-3.40793 0.001,-5.1119 0.001,-1.70371 0.004,-3.40743 0.005,-5.11114 -6.6e-4,-1.69735 0.002,-3.39528 -0.0594,-5.09178 -0.0798,-1.69718 -0.22043,-3.39146 -0.54421,-5.0621 -0.28301,-1.71397 -0.28513,-3.42493 -0.30895,-5.15956 -0.081,-1.69516 -0.22399,-3.38712 -0.54904,-5.05549 -0.28645,-1.73864 -0.28545,-3.47395 -0.24828,-5.23399 0,-1.92545 0,-3.8509 0,-5.77634 0,-2.10918 0,-4.21835 0,-6.32752 0,-1.97706 0,-3.95412 0,-5.93119 0,0 0.85194,0 0.85194,0 z"
     inkscape:connector-curvature="0" />
  <path
     style="color:#000000;fill:none;stroke:#000000;stroke-width:0.75;stroke-linecap:butt;stroke-linejoin:miter;stroke-miterlimit:4;stroke-opacity:1;stroke-dasharray:none;stroke-dashoffset:0;marker:none;visibility:visible;display:inline;overflow:visible;enable-background:accumulate"
     id="path6101"
     d="m 247.34675,170.68309 c -0.25987,0.11626 -2.3362,2.49703 -1.33957,2.52211 1.11243,-0.29084 1.69983,-0.72833 2.21339,-1.77928 0.31317,-1.07628 -0.5585,-1.47053 -1.49673,-1.52218 -1.31372,0.27266 -1.68673,1.51441 -1.96144,2.66993 -0.12683,1.25823 0.64585,1.80618 1.81278,1.61952 1.32871,-0.52024 1.8302,-1.82303 1.90675,-3.15757 -0.18885,-1.37805 -1.22969,-1.93015 -2.52119,-1.75327 -1.31649,0.45728 -1.83724,1.59104 -1.86579,2.90203 0.2152,1.22461 0.86416,1.81294 1.99505,2.20165 1.53576,0.18071 2.61988,-0.83199 3.42578,-2.01525 0.24641,-0.91298 1.31,-1.36739 -0.10304,-1.35748 -1.3622,0.01 -1.81676,0.14552 -3.03254,0.7941 -1.5365,1.12719 -2.50287,2.63382 -1.89418,4.52645 0.66839,1.07435 1.95346,1.75578 3.20655,1.39649 0.794,-0.57984 0.87705,-1.61016 1.00039,-2.51305 0,0 0.84379,0.11754 0.84379,0.11754 l 0,0 c -0.18123,1.27875 -0.39074,2.57566 -1.64823,3.2246 -1.73811,0.35628 -3.36719,-0.40923 -4.21942,-1.98386 -0.68075,-2.45949 0.34461,-4.05613 2.31768,-5.52383 0.39109,-0.19938 0.76094,-0.44749 1.17327,-0.59814 2.08065,-0.76016 4.73106,-0.30951 3.05577,2.40271 -1.0557,1.49928 -2.46502,2.66104 -4.41189,2.33219 -1.47089,-0.53944 -2.35311,-1.42593 -2.56044,-3.03249 0.0743,-1.74868 0.85795,-3.19669 2.62824,-3.72093 1.84047,-0.15186 3.26722,0.70748 3.45984,2.66305 -0.15175,1.7587 -0.86009,3.36194 -2.65884,3.9414 -1.89912,0.16317 -2.90511,-0.70538 -2.73828,-2.6666 0.39217,-1.59037 1.0454,-3.09903 2.86687,-3.31759 1.54058,0.17786 2.7355,1.0707 2.17947,2.75512 -0.72559,1.39681 -1.874,2.45083 -3.55217,2.02008 -0.13722,-0.17084 -0.33072,-0.3089 -0.41166,-0.51253 -0.50411,-1.26823 1.06582,-2.5752 1.81863,-3.31647 0,0 0.51116,0.68155 0.51116,0.68155 z"
     inkscape:connector-curvature="0" />
  <path
     style="color:#000000;fill:none;stroke:#000000;stroke-width:0.75;stroke-linecap:butt;stroke-linejoin:miter;stroke-miterlimit:4;stroke-opacity:1;stroke-dasharray:none;stroke-dashoffset:0;marker:none;visibility:visible;display:inline;overflow:visible;enable-background:accumulate"
     id="path6109"
     d="m 8.792875,268.6747 c 3.252014,-0.0735 6.481803,-0.59236 9.724382,-0.8709 3.535201,-0.26735 7.081673,-0.30394 10.625096,-0.33175 3.606196,-0.0169 7.212451,-0.0101 10.818671,-0.007 2.930009,0.003 5.860019,0.004 8.790029,0.005 2.439426,4.5e-4 4.878853,4.1e-4 7.31828,4.1e-4 0.400158,-10e-6 0.800317,-10e-6 1.200475,-10e-6 0,0 8e-6,1.20482 8e-6,1.20482 l 0,0 c -0.40016,0 -0.80032,0 -1.20048,10e-6 -2.439523,0 -4.879046,4e-5 -7.318569,-4.1e-4 -2.930237,-7e-4 -5.860473,-0.002 -8.790708,-0.005 -3.602749,-0.003 -7.205532,-0.01 -10.808256,0.007 -3.51218,0.0275 -7.02739,0.0632 -10.531478,0.32737 -3.27681,0.28122 -6.540426,0.80703 -9.82745,0.87531 0,0 0,-1.20482 0,-1.20482 z"
     inkscape:connector-curvature="0" />
  <path
     style="color:#000000;fill:none;stroke:#000000;stroke-width:0.75;stroke-linecap:butt;stroke-linejoin:miter;stroke-miterlimit:4;stroke-opacity:1;stroke-dasharray:none;stroke-dashoffset:0;marker:none;visibility:visible;display:inline;overflow:visible;enable-background:accumulate"
     id="path6111"
     d="m 36.405983,258.00636 c 1.781679,0.69049 3.627096,1.25321 5.407979,1.95392 2.032619,0.90439 4.068954,1.79256 6.138744,2.61454 1.883634,0.88978 3.678231,1.96904 5.588219,2.79863 1.745515,0.75078 3.581491,1.25676 5.353032,1.9308 0.220264,0.0573 0.440529,0.11454 0.660793,0.17181 0,0 -0.309131,1.16448 -0.309131,1.16448 l 0,0 c -0.261404,-0.0706 -0.522808,-0.14119 -0.784213,-0.21179 -1.781172,-0.69375 -3.643891,-1.18807 -5.402779,-1.95123 -1.894785,-0.83199 -3.685909,-1.88504 -5.550844,-2.78304 -2.069147,-0.82272 -4.106201,-1.7095 -6.138143,-2.61431 -1.754686,-0.7027 -3.585006,-1.24961 -5.344655,-1.93082 0,0 0.380998,-1.14299 0.380998,-1.14299 z"
     inkscape:connector-curvature="0" />
  <path
     style="color:#000000;fill:none;stroke:#000000;stroke-width:0.75;stroke-linecap:butt;stroke-linejoin:miter;stroke-miterlimit:4;stroke-opacity:1;stroke-dasharray:none;stroke-dashoffset:0;marker:none;visibility:visible;display:inline;overflow:visible;enable-background:accumulate"
     id="path6115"
     d="m 33.615347,279.40487 c 2.051052,-0.47353 3.8817,-1.51972 5.80555,-2.32794 1.783254,-1.07253 3.773991,-1.72235 5.582576,-2.73923 1.858779,-1.11627 3.804896,-2.0532 5.731392,-3.04324 1.722767,-0.77908 3.412122,-1.62779 5.088671,-2.50361 1.210293,-0.51266 0.587025,-0.28252 1.871392,-0.68608 0,0 0.357975,1.15041 0.357975,1.15041 l 0,0 c -1.143628,0.35195 -0.586745,0.1498 -1.67167,0.60365 -1.679103,0.8765 -3.371739,1.72543 -5.095826,2.5073 -1.914728,0.98327 -3.848595,1.91323 -5.694999,3.02376 -1.854788,1.02739 -3.872945,1.71855 -5.703746,2.79819 -1.952626,0.81656 -3.809467,1.88004 -5.890318,2.35978 0,0 -0.380997,-1.14299 -0.380997,-1.14299 z"
     inkscape:connector-curvature="0" />
  <path
     style="color:#000000;fill:none;stroke:#000000;stroke-width:0.75;stroke-linecap:butt;stroke-linejoin:miter;stroke-miterlimit:4;stroke-opacity:1;stroke-dasharray:none;stroke-dashoffset:0;marker:none;visibility:visible;display:inline;overflow:visible;enable-background:accumulate"
     id="path6117"
     d="m 20.722892,219.25117 c 0,3.2402 0,6.48041 0,9.72061 0.271286,3.53777 0.720893,7.05732 0.984802,10.59607 -0.0244,2.6204 0.547473,5.16773 0.943761,7.74203 0.190749,1.52979 0.101881,0.81667 0.266641,2.13936 0,0 -1.19558,0.14893 -1.19558,0.14893 l 0,0 c -0.163342,-1.31131 -0.07602,-0.60962 -0.261873,-2.10511 -0.400442,-2.605 -0.976075,-5.18437 -0.954436,-7.83566 -0.265789,-3.56854 -0.725232,-7.11721 -0.988135,-10.68562 0,-3.2402 0,-6.48041 0,-9.72061 0,0 1.20482,0 1.20482,0 z"
     inkscape:connector-curvature="0" />
  <path
     style="color:#000000;fill:none;stroke:#000000;stroke-width:0.75;stroke-linecap:butt;stroke-linejoin:miter;stroke-miterlimit:4;stroke-opacity:1;stroke-dasharray:none;stroke-dashoffset:0;marker:none;visibility:visible;display:inline;overflow:visible;enable-background:accumulate"
     id="path6119"
     d="m 14.338238,222.77836 c 2.144078,-0.65988 4.265494,-1.4018 6.386303,-2.13884 2.862347,-0.79393 5.700217,-1.66882 8.556366,-2.48341 2.832028,-0.58497 5.611953,-1.39142 8.452004,-1.93961 0,0 0.227961,1.18306 0.227961,1.18306 l 0,0 c -2.805954,0.53971 -5.551225,1.3412 -8.349745,1.91523 -2.834533,0.80723 -5.649911,1.6782 -8.491117,2.46279 -2.125625,0.73856 -4.252578,1.47998 -6.400774,2.14377 0,0 -0.380998,-1.14299 -0.380998,-1.14299 z"
     inkscape:connector-curvature="0" />
  <path
     style="color:#000000;fill:none;stroke:#000000;stroke-width:0.75;stroke-linecap:butt;stroke-linejoin:miter;stroke-miterlimit:4;stroke-opacity:1;stroke-dasharray:none;stroke-dashoffset:0;marker:none;visibility:visible;display:inline;overflow:visible;enable-background:accumulate"
     id="path6121"
     d="m 19.013857,234.7527 c 2.272701,-1.19433 4.824321,-1.83235 7.301745,-2.47767 2.642671,-0.61029 5.230851,-1.37696 7.916205,-1.792 0,0 0.183482,1.19076 0.183482,1.19076 l 0,0 c -2.645307,0.40632 -5.192564,1.16998 -7.79632,1.76724 -2.349848,0.61064 -4.765608,1.2175 -6.936798,2.31414 0,0 -0.668314,-1.00247 -0.668314,-1.00247 z"
     inkscape:connector-curvature="0" />
</svg>
