<?xml version="1.0" encoding="UTF-8" standalone="no"?>
<!-- Created with Inkscape (http://www.inkscape.org/) -->

<svg
   xmlns:osb="http://www.openswatchbook.org/uri/2009/osb"
   xmlns:dc="http://purl.org/dc/elements/1.1/"
   xmlns:cc="http://creativecommons.org/ns#"
   xmlns:rdf="http://www.w3.org/1999/02/22-rdf-syntax-ns#"
   xmlns:svg="http://www.w3.org/2000/svg"
   xmlns="http://www.w3.org/2000/svg"
   xmlns:sodipodi="http://sodipodi.sourceforge.net/DTD/sodipodi-0.dtd"
   xmlns:inkscape="http://www.inkscape.org/namespaces/inkscape"
   id="svg3036"
   version="1.1"
   inkscape:version="0.48.3.1 r9886"
   width="800"
   height="320"
   sodipodi:docname="richtmyer.png">
  <metadata
     id="metadata3042">
    <rdf:RDF>
      <cc:Work
         rdf:about="">
        <dc:format>image/svg+xml</dc:format>
        <dc:type
           rdf:resource="http://purl.org/dc/dcmitype/StillImage" />
        <dc:title></dc:title>
      </cc:Work>
    </rdf:RDF>
  </metadata>
  <defs
     id="defs3040">
    <linearGradient
       id="linearGradient8546"
       osb:paint="solid">
      <stop
         style="stop-color:#000000;stop-opacity:1;"
         offset="0"
         id="stop8548" />
    </linearGradient>
    <linearGradient
       id="linearGradient8540"
       osb:paint="solid">
      <stop
         style="stop-color:#000000;stop-opacity:1;"
         offset="0"
         id="stop8542" />
    </linearGradient>
  </defs>
  <sodipodi:namedview
     pagecolor="#ffffff"
     bordercolor="#666666"
     borderopacity="1"
     objecttolerance="10"
     gridtolerance="10"
     guidetolerance="10"
     inkscape:pageopacity="0"
     inkscape:pageshadow="2"
     inkscape:window-width="1209"
     inkscape:window-height="852"
     id="namedview3038"
     showgrid="false"
     inkscape:zoom="1.1737973"
     inkscape:cx="419.31221"
     inkscape:cy="203.45592"
     inkscape:window-x="0"
     inkscape:window-y="31"
     inkscape:window-maximized="1"
     inkscape:current-layer="svg3036"
     showguides="true"
     inkscape:guide-bbox="true" />
  <path
     style="color:#000000;fill-opacity:1;fill-rule:nonzero;stroke-width:1;stroke-linecap:butt;stroke-linejoin:miter;stroke-miterlimit:4;stroke-opacity:1;stroke-dasharray:none;stroke-dashoffset:0;marker:none;visibility:visible;display:inline;overflow:visible;enable-background:accumulate"
     id="path3253"
     d="m 296.12279,133.01205 c -2.10966,0.13549 -3.86271,0.90074 -5.45392,2.26033 -1.31773,1.39578 -1.29806,2.99527 -1.07572,4.76847 0.46044,1.5477 1.2279,2.97114 2.52619,3.95644 1.52023,0.8068 2.97147,1.71386 4.73251,1.78741 1.83639,-6.2e-4 3.13529,-1.28783 4.46849,-2.37859 1.42195,-1.36873 2.22037,-3.18386 2.75851,-5.05003 0.31319,-2.13103 -0.19581,-2.64667 -1.75477,-3.8304 -1.59939,-1.083 -3.52313,-1.26484 -5.39547,-1.4205 -2.58851,0.006 -4.37405,1.62258 -6.10937,3.33246 -0.27315,0.38049 -0.5463,0.76098 -0.81945,1.14146 0,0 -0.97461,-0.70832 -0.97461,-0.70832 l 0,0 c 0.31639,-0.43069 0.63278,-0.86138 0.94918,-1.29207 1.99576,-1.95987 4.09243,-3.71119 7.05485,-3.67414 2.10353,0.17754 4.24191,0.42229 6.02352,1.66161 1.97367,1.49901 2.60679,2.56043 2.18292,5.12668 -0.61631,2.09891 -1.52984,4.12435 -3.15253,5.64586 -1.5771,1.28948 -3.13059,2.69353 -5.30375,2.64862 -2.00395,-0.14841 -3.69023,-1.04645 -5.40407,-2.04242 -1.52013,-1.22434 -2.48894,-2.86332 -2.97779,-4.75563 -0.26881,-2.18546 -0.14582,-4.17047 1.49536,-5.83855 1.82347,-1.51652 3.831,-2.41655 6.22992,-2.54351 0,0 0,1.20482 0,1.20482 z"
     inkscape:connector-curvature="0" />
  <path
     style="color:#000000;fill-opacity:1;fill-rule:nonzero;stroke-width:1;stroke-linecap:butt;stroke-linejoin:miter;stroke-miterlimit:4;stroke-opacity:1;stroke-dasharray:none;stroke-dashoffset:0;marker:none;visibility:visible;display:inline;overflow:visible;enable-background:accumulate"
     id="path3253-8"
     d="m 296.7493,224.48182 c -2.10966,0.13549 -3.86271,0.90074 -5.45392,2.26033 -1.31773,1.39578 -1.29806,2.99527 -1.07572,4.76847 0.46044,1.5477 1.2279,2.97114 2.52619,3.95644 1.52023,0.8068 2.97147,1.71386 4.73251,1.78741 1.83639,-6.2e-4 3.13529,-1.28783 4.46849,-2.37859 1.42195,-1.36873 2.22037,-3.18386 2.75851,-5.05003 0.31319,-2.13103 -0.19581,-2.64667 -1.75477,-3.8304 -1.59939,-1.083 -3.52313,-1.26484 -5.39547,-1.4205 -2.58851,0.006 -4.37405,1.62258 -6.10937,3.33246 -0.27315,0.38049 -0.5463,0.76098 -0.81945,1.14146 0,0 -0.97461,-0.70832 -0.97461,-0.70832 l 0,0 c 0.31639,-0.43069 0.63278,-0.86138 0.94918,-1.29207 1.99576,-1.95987 4.09243,-3.71119 7.05485,-3.67414 2.10353,0.17754 4.24191,0.42229 6.02352,1.66161 1.97367,1.49901 2.60679,2.56043 2.18292,5.12668 -0.61631,2.09891 -1.52984,4.12435 -3.15253,5.64586 -1.5771,1.28948 -3.13059,2.69353 -5.30375,2.64862 -2.00395,-0.14841 -3.69023,-1.04645 -5.40407,-2.04242 -1.52013,-1.22434 -2.48894,-2.86332 -2.97779,-4.75563 -0.26881,-2.18546 -0.14582,-4.17047 1.49536,-5.83855 1.82347,-1.51652 3.831,-2.41655 6.22992,-2.54351 0,0 0,1.20482 0,1.20482 z"
     inkscape:connector-curvature="0" />
  <path
     style="color:#000000;fill-opacity:1;fill-rule:nonzero;stroke-width:1;stroke-linecap:butt;stroke-linejoin:miter;stroke-miterlimit:4;stroke-opacity:1;stroke-dasharray:none;stroke-dashoffset:0;marker:none;visibility:visible;display:inline;overflow:visible;enable-background:accumulate"
     id="path3364"
     d="m 296.24096,284.76878 c 0,2.45126 0,4.90251 0,7.35377 -0.009,1.96504 0.0171,4.12917 1.72513,5.54599 1.81059,0.61857 3.35275,-1.01707 4.36954,-2.1557 0,0 0.93523,0.67755 0.93523,0.67755 l 0,0 c -1.54319,1.66764 -3.62815,3.48772 -6.14808,2.24572 -1.88188,-1.70847 -2.15578,-3.98945 -2.08664,-6.31356 0,-2.45126 0,-4.90251 0,-7.35377 0,0 1.20482,0 1.20482,0 z"
     inkscape:connector-curvature="0" />
  <path
     style="fill:none;stroke:#000000;stroke-width:1.11006212px;stroke-linecap:butt;stroke-linejoin:miter;stroke-opacity:1"
     d="m 296.84337,279.01205 -2.69341,0"
     id="path3366"
     inkscape:connector-curvature="0" />
  <path
     style="color:#000000;fill-opacity:1;fill-rule:nonzero;stroke-width:1;stroke-linecap:butt;stroke-linejoin:miter;stroke-miterlimit:4;stroke-opacity:1;stroke-dasharray:12, 12;stroke-dashoffset:0;marker:none;visibility:visible;display:inline;overflow:visible;enable-background:accumulate"
     id="path4255"
     d="m 736.09876,244.15228 c -1.48037,0.0127 -3.00427,0.20417 -4.35088,0.8533 -1.36778,0.73138 -1.96772,1.97444 -2.31517,3.43797 -0.15777,1.22915 -0.56818,2.67761 0.32469,3.69184 1.06442,0.7617 2.28865,0.41865 3.39538,-0.0547 1.50175,-0.83676 2.23364,-2.13346 2.66729,-3.75949 0.49184,-2.17869 0.3327,-4.36949 -0.14412,-6.52899 -0.78009,-3.00866 -2.15614,-5.70611 -4.07356,-8.10759 -0.29422,-0.30024 -0.58846,-0.60047 -0.88269,-0.9007 0,0 0.54854,-0.55611 0.54854,-0.55611 l 0,0 c 0.31165,0.31996 0.6233,0.63992 0.93495,0.95988 1.98911,2.49984 3.423,5.30398 4.22819,8.4334 0.49399,2.28763 0.66676,4.60479 0.13482,6.90941 -0.50913,1.86097 -1.38924,3.34582 -3.11853,4.27907 -1.44303,0.59618 -2.98355,0.91423 -4.28959,-0.17543 -0.98437,-1.30382 -0.74833,-2.83786 -0.47692,-4.37867 0.41447,-1.69539 1.1546,-3.1275 2.74028,-3.9647 1.45791,-0.68087 3.07807,-0.92435 4.67732,-0.92686 0,0 0,0.78836 0,0.78836 z"
     inkscape:connector-curvature="0" />
  <path
     style="color:#000000;fill-opacity:1;fill-rule:nonzero;stroke-width:1;stroke-linecap:butt;stroke-linejoin:miter;stroke-miterlimit:4;stroke-opacity:1;stroke-dasharray:12, 12;stroke-dashoffset:0;marker:none;visibility:visible;display:inline;overflow:visible;enable-background:accumulate"
     id="path4259"
     d="m 744.5115,243.02138 c -0.36575,1.90441 -0.53251,3.83757 -0.64665,5.77088 0.0662,0.88781 0.13943,2.08105 1.14102,1.16392 0.94494,-1.23396 1.66855,-2.62592 2.24685,-4.06426 0.54653,-1.57654 0.62219,-3.24389 1.01834,-4.85671 0.0413,-0.67737 0.91957,-1.69487 1.30554,-0.50638 0.0682,0.21 -0.10156,1.02969 -0.13569,1.22503 -0.32992,1.92365 -0.42393,3.87431 -0.49776,5.82113 -0.0179,1.82366 -0.2091,3.48653 1.36337,4.67965 0.83805,0.45278 1.69925,0.53194 2.62858,0.57376 0,0 -0.0456,0.85071 -0.0456,0.85071 l 0,0 c -1.11442,-0.068 -2.12822,-0.17338 -3.11457,-0.75876 -1.79949,-1.49204 -1.73554,-3.1742 -1.68307,-5.37768 0.0755,-1.98563 0.17285,-3.97505 0.51011,-5.93689 0.0491,-0.27483 -0.0616,-0.65437 0.16185,-0.82173 0.0661,-0.0495 0.16643,0.0633 0.24497,0.0377 0.55559,-0.1813 0.26285,-0.33948 0.0896,0.4169 -0.40647,1.65101 -0.4727,3.3631 -1.05564,4.97219 -0.63629,1.5702 -1.41893,3.11218 -2.51235,4.41668 -1.71093,1.22293 -2.49743,-0.21541 -2.51596,-1.88554 0.11678,-1.97251 0.28779,-3.94479 0.66171,-5.88768 0,0 0.83539,0.16708 0.83539,0.16708 z"
     inkscape:connector-curvature="0" />
  <path
     style="color:#000000;fill-opacity:1;fill-rule:nonzero;stroke-width:1;stroke-linecap:butt;stroke-linejoin:miter;stroke-miterlimit:4;stroke-opacity:1;stroke-dasharray:12, 12;stroke-dashoffset:0;marker:none;visibility:visible;display:inline;overflow:visible;enable-background:accumulate"
     id="path4261"
     d="m 724.17524,259.79937 c 3.01456,-0.49847 6.0392,-0.90387 9.0837,-1.17397 4.59516,-0.3384 9.2047,-0.39055 13.81013,-0.43061 3.52176,-0.0219 7.04361,-0.0165 10.56541,-0.0121 1.1062,0.002 2.2124,0.003 3.3186,0.004 0,0 -9.3e-4,0.85193 -9.3e-4,0.85193 l 0,0 c -1.10625,-10e-4 -2.21249,-0.002 -3.31874,-0.004 -3.51898,-0.004 -7.038,-0.01 -10.55693,0.0121 -4.58281,0.0398 -9.16969,0.0914 -13.74232,0.42732 -3.01375,0.26686 -6.00762,0.66849 -8.99184,1.16075 0,0 -0.16708,-0.83539 -0.16708,-0.83539 z"
     inkscape:connector-curvature="0" />
  <path
     style="color:#000000;fill-opacity:1;fill-rule:nonzero;stroke-width:1;stroke-linecap:butt;stroke-linejoin:miter;stroke-miterlimit:4;stroke-opacity:1;stroke-dasharray:12, 12;stroke-dashoffset:0;marker:none;visibility:visible;display:inline;overflow:visible;enable-background:accumulate"
     id="path4255-7"
     d="m 736.2016,274.11611 c -1.48037,0.0127 -3.00427,0.20417 -4.35088,0.8533 -1.36778,0.73138 -1.96772,1.97445 -2.31517,3.43797 -0.15777,1.22915 -0.56818,2.67762 0.32469,3.69185 1.06442,0.7617 2.28865,0.41865 3.39538,-0.0547 1.50175,-0.83676 2.23364,-2.13347 2.66729,-3.7595 0.49184,-2.17869 0.3327,-4.36948 -0.14412,-6.52899 -0.78009,-3.00866 -2.15614,-5.70611 -4.07356,-8.10759 -0.29422,-0.30023 -0.58846,-0.60047 -0.88269,-0.9007 0,0 0.54854,-0.55611 0.54854,-0.55611 l 0,0 c 0.31165,0.31996 0.6233,0.63992 0.93495,0.95989 1.98911,2.49983 3.423,5.30397 4.22819,8.43339 0.49399,2.28763 0.66676,4.6048 0.13482,6.90941 -0.50913,1.86097 -1.38924,3.34583 -3.11853,4.27908 -1.44303,0.59618 -2.98355,0.91423 -4.28959,-0.17543 -0.98437,-1.30382 -0.74833,-2.83787 -0.47692,-4.37868 0.41447,-1.69539 1.1546,-3.1275 2.74028,-3.9647 1.45791,-0.68087 3.07807,-0.92435 4.67732,-0.92686 0,0 0,0.78836 0,0.78836 z"
     inkscape:connector-curvature="0" />
  <path
     style="color:#000000;fill-opacity:1;fill-rule:nonzero;stroke-width:1;stroke-linecap:butt;stroke-linejoin:miter;stroke-miterlimit:4;stroke-opacity:1;stroke-dasharray:12, 12;stroke-dashoffset:0;marker:none;visibility:visible;display:inline;overflow:visible;enable-background:accumulate"
     id="path4295"
     d="m 738.96865,273.20791 c 1.21226,-0.65688 2.49079,-0.99589 3.82592,-0.95392 1.14312,0.21867 1.87828,1.10128 2.31704,2.2833 0.35938,1.31204 0.3982,2.66167 0.18679,4.00497 -0.3223,1.12873 -0.88105,2.10166 -1.70266,2.81668 -1.02643,0.68957 -2.10702,0.71639 -3.21501,0.32798 -0.519,-0.28544 -0.96726,-0.66428 -1.40234,-1.09018 0,0 0.41358,-0.55505 0.41358,-0.55505 l 0,0 c 0.36537,0.36706 0.74991,0.6818 1.17855,0.94695 0.90693,0.33988 1.79338,0.32207 2.64861,-0.21871 0.70479,-0.58082 1.15611,-1.43071 1.45501,-2.35955 0.19324,-1.20334 0.16076,-2.41055 -0.14829,-3.59143 -0.32056,-0.91628 -0.87672,-1.63332 -1.75018,-1.83352 -1.2298,-0.0462 -2.40524,0.27718 -3.5232,0.87699 0,0 -0.28382,-0.65451 -0.28382,-0.65451 z"
     inkscape:connector-curvature="0" />
  <path
     style="color:#000000;fill-opacity:1;fill-rule:nonzero;stroke-width:1;stroke-linecap:butt;stroke-linejoin:miter;stroke-miterlimit:4;stroke-opacity:1;stroke-dasharray:12, 12;stroke-dashoffset:0;marker:none;visibility:visible;display:inline;overflow:visible;enable-background:accumulate"
     id="path4297"
     d="m 749.78524,273.86242 c -1.15728,-0.63869 -2.30484,-0.9587 -3.53967,-0.47571 -1.02406,0.656 -1.22134,1.90286 -1.36001,3.13695 0.0305,1.17635 0.33363,2.3333 1.0114,3.22406 0.62891,0.89424 1.50509,1.46798 2.43023,1.85986 1.2128,0.51516 2.37451,0.2638 3.57553,-0.12307 0.61355,-0.20159 1.12836,-0.62833 1.66294,-1.01029 0,0 0.33422,0.62207 0.33422,0.62207 l 0,0 c -0.58508,0.41774 -1.15463,0.87604 -1.82669,1.09308 -1.3301,0.42685 -2.6286,0.6731 -3.96714,0.10412 -1.02346,-0.44319 -1.99363,-1.07921 -2.69247,-2.07158 -0.77374,-1.07395 -1.15938,-2.39358 -1.15726,-3.79371 0.17705,-1.52995 0.499,-2.98834 1.79373,-3.73766 1.40707,-0.50539 2.7048,-0.22593 4.01903,0.51737 0,0 -0.28384,0.65451 -0.28384,0.65451 z"
     inkscape:connector-curvature="0" />
  <path
     style="color:#000000;fill-opacity:1;fill-rule:nonzero;stroke-width:1;stroke-linecap:butt;stroke-linejoin:miter;stroke-miterlimit:4;stroke-opacity:1;stroke-dasharray:12, 12;stroke-dashoffset:0;marker:none;visibility:visible;display:inline;overflow:visible;enable-background:accumulate"
     id="path4317"
     d="m 691.29296,257.33719 c 2.87674,0 5.75348,0 8.63022,0 3.69642,-0.0248 7.37934,0.38138 11.06524,0.61826 1.3015,0.0838 2.60465,0.13338 3.9079,0.17883 0,0 -0.0297,0.85142 -0.0297,0.85142 l 0,0 c -1.31156,-0.0458 -2.62303,-0.0957 -3.93283,-0.18007 -3.66772,-0.23576 -7.33248,-0.64022 -11.0106,-0.6165 -2.87674,0 -5.75348,0 -8.63022,0 0,0 0,-0.85194 0,-0.85194 z"
     inkscape:connector-curvature="0" />
  <path
     style="color:#000000;fill-opacity:1;fill-rule:nonzero;stroke-width:1;stroke-linecap:butt;stroke-linejoin:miter;stroke-miterlimit:4;stroke-opacity:1;stroke-dasharray:12, 12;stroke-dashoffset:0;marker:none;visibility:visible;display:inline;overflow:visible;enable-background:accumulate"
     id="path4319"
     d="m 692.1449,261.59687 c 2.48251,0 4.96502,0 7.44753,0 2.77812,0.18979 5.5442,0.51074 8.32287,0.69851 1.92578,0.29548 3.83419,0.66733 5.77482,0.85653 0,0 -0.0829,0.8479 -0.0829,0.8479 l 0,0 c -1.93202,-0.1892 -3.8335,-0.55089 -5.74942,-0.85443 -2.75955,-0.18665 -5.50687,-0.5019 -8.26541,-0.69657 -2.48251,0 -4.96502,0 -7.44753,0 0,0 0,-0.85194 0,-0.85194 z"
     inkscape:connector-curvature="0" />
  <path
     style="color:#000000;fill-opacity:1;fill-rule:nonzero;stroke-width:1;stroke-linecap:butt;stroke-linejoin:miter;stroke-miterlimit:4;stroke-opacity:1;stroke-dasharray:12, 12;stroke-dashoffset:0;marker:none;visibility:visible;display:inline;overflow:visible;enable-background:accumulate"
     id="path4371"
     d="m 692.50935,184.0475 c 3.58756,-0.50432 7.21866,-0.57083 10.83484,-0.65985 4.35134,-0.0872 8.70374,-0.0964 13.0558,-0.10163 0.50623,-1.3e-4 1.01247,-2.5e-4 1.5187,-3.8e-4 0,0 2.1e-4,0.85194 2.1e-4,0.85194 l 0,0 c -0.50596,1.2e-4 -1.01192,2.5e-4 -1.51788,3.7e-4 -4.34542,0.005 -8.69117,0.0144 -13.03588,0.10138 -3.57631,0.088 -7.16736,0.15277 -10.71573,0.64852 0,0 -0.14006,-0.84035 -0.14006,-0.84035 z"
     inkscape:connector-curvature="0" />
  <path
     style="color:#000000;fill-opacity:1;fill-rule:nonzero;stroke-width:1;stroke-linecap:butt;stroke-linejoin:miter;stroke-miterlimit:4;stroke-opacity:1;stroke-dasharray:12, 12;stroke-dashoffset:0;marker:none;visibility:visible;display:inline;overflow:visible;enable-background:accumulate"
     id="path4373"
     d="m 691.76911,189.1576 c 4.05767,-0.35622 8.11709,-0.70149 12.17703,-1.04276 4.05418,-0.21505 8.12835,-0.64365 12.19058,-0.43853 0,0 -0.0437,0.85082 -0.0437,0.85082 l 0,0 c -4.02317,-0.21043 -8.06006,0.23122 -12.0755,0.43665 -4.04354,0.33985 -8.0864,0.685 -12.12791,1.0372 0,0 -0.12048,-0.84338 -0.12048,-0.84338 z"
     inkscape:connector-curvature="0" />
  <path
     sodipodi:type="arc"
     style="color:#000000;fill:#000000;fill-opacity:1;fill-rule:nonzero;stroke-width:1;stroke-linecap:butt;stroke-linejoin:miter;stroke-miterlimit:4;stroke-opacity:1;stroke-dasharray:12, 12;stroke-dashoffset:0;marker:none;visibility:visible;display:inline;overflow:visible;enable-background:accumulate"
     id="path4447"
     sodipodi:cx="97.120689"
     sodipodi:cy="64.136719"
     sodipodi:rx="8.5193586"
     sodipodi:ry="7.6674228"
     d="m 105.64005,64.136719 a 8.5193586,7.6674228 0 1 1 -17.038719,0 8.5193586,7.6674228 0 1 1 17.038719,0 z"
     transform="translate(26.214158,70.592257)" />
  <path
     sodipodi:type="arc"
     style="color:#000000;fill:#000000;fill-opacity:1;fill-rule:nonzero;stroke-width:1;stroke-linecap:butt;stroke-linejoin:miter;stroke-miterlimit:4;stroke-opacity:1;stroke-dasharray:12, 12;stroke-dashoffset:0;marker:none;visibility:visible;display:inline;overflow:visible;enable-background:accumulate"
     id="path4447-5"
     sodipodi:cx="97.120689"
     sodipodi:cy="64.136719"
     sodipodi:rx="8.5193586"
     sodipodi:ry="7.6674228"
     d="m 105.64005,64.136719 a 8.5193586,7.6674228 0 1 1 -17.038719,0 8.5193586,7.6674228 0 1 1 17.038719,0 z"
     transform="translate(199.45327,74.40548)" />
  <path
     sodipodi:type="arc"
     style="color:#000000;fill:#000000;fill-opacity:1;fill-rule:nonzero;stroke-width:1;stroke-linecap:butt;stroke-linejoin:miter;stroke-miterlimit:4;stroke-opacity:1;stroke-dasharray:12, 12;stroke-dashoffset:0;marker:none;visibility:visible;display:inline;overflow:visible;enable-background:accumulate"
     id="path4447-6"
     sodipodi:cx="97.120689"
     sodipodi:cy="64.136719"
     sodipodi:rx="8.5193586"
     sodipodi:ry="7.6674228"
     d="m 105.64005,64.136719 a 8.5193586,7.6674228 0 1 1 -17.038719,0 8.5193586,7.6674228 0 1 1 17.038719,0 z"
     transform="translate(376.76527,70.364493)" />
  <path
     sodipodi:type="arc"
     style="color:#000000;fill:#000000;fill-opacity:1;fill-rule:nonzero;stroke-width:1;stroke-linecap:butt;stroke-linejoin:miter;stroke-miterlimit:4;stroke-opacity:1;stroke-dasharray:12, 12;stroke-dashoffset:0;marker:none;visibility:visible;display:inline;overflow:visible;enable-background:accumulate"
     id="path4447-3"
     sodipodi:cx="97.120689"
     sodipodi:cy="64.136719"
     sodipodi:rx="8.5193586"
     sodipodi:ry="7.6674228"
     d="m 105.64005,64.136719 a 8.5193586,7.6674228 0 1 1 -17.038719,0 8.5193586,7.6674228 0 1 1 17.038719,0 z"
     transform="translate(201.09786,166.29613)" />
  <path
     style="color:#000000;fill-opacity:1;fill-rule:nonzero;stroke-width:1;stroke-linecap:butt;stroke-linejoin:miter;stroke-miterlimit:4;stroke-opacity:1;stroke-dasharray:none;stroke-dashoffset:0;marker:none;visibility:visible;display:inline;overflow:visible;enable-background:accumulate"
     id="path3253-8-5"
     d="m 293.52948,38.12517 c -2.10966,0.13549 -3.86271,0.90074 -5.45392,2.26033 -1.31773,1.39578 -1.29806,2.99527 -1.07572,4.76847 0.46044,1.5477 1.2279,2.97114 2.52619,3.95644 1.52023,0.8068 2.97147,1.71386 4.73251,1.78741 1.83639,-6.2e-4 3.13529,-1.28783 4.46849,-2.37859 1.42195,-1.36873 2.22037,-3.18386 2.75851,-5.05003 0.31319,-2.13103 -0.19581,-2.64667 -1.75477,-3.8304 -1.59939,-1.083 -3.52313,-1.26484 -5.39547,-1.4205 -2.58851,0.006 -4.37405,1.62258 -6.10937,3.33246 -0.27315,0.38049 -0.5463,0.76098 -0.81945,1.14146 0,0 -0.97461,-0.70832 -0.97461,-0.70832 l 0,0 c 0.31639,-0.43069 0.63278,-0.86138 0.94918,-1.29207 1.99576,-1.95987 4.09243,-3.71119 7.05485,-3.67414 2.10353,0.17754 4.24191,0.42229 6.02352,1.66161 1.97367,1.49901 2.60679,2.56043 2.18292,5.12668 -0.61631,2.09891 -1.52984,4.12435 -3.15253,5.64586 -1.5771,1.28948 -3.13059,2.69353 -5.30375,2.64862 -2.00395,-0.14841 -3.69023,-1.04645 -5.40407,-2.04242 -1.52013,-1.22434 -2.48894,-2.86332 -2.97779,-4.75563 -0.26881,-2.18546 -0.14582,-4.17047 1.49536,-5.83855 1.82347,-1.51652 3.831,-2.41655 6.22992,-2.54351 0,0 0,1.20482 0,1.20482 z"
     inkscape:connector-curvature="0" />
  <path
     sodipodi:type="arc"
     style="color:#000000;fill:#000000;fill-opacity:1;fill-rule:nonzero;stroke-width:1;stroke-linecap:butt;stroke-linejoin:miter;stroke-miterlimit:4;stroke-opacity:1;stroke-dasharray:12, 12;stroke-dashoffset:0;marker:none;visibility:visible;display:inline;overflow:visible;enable-background:accumulate"
     id="path4447-3-4"
     sodipodi:cx="97.120689"
     sodipodi:cy="64.136719"
     sodipodi:rx="8.5193586"
     sodipodi:ry="7.6674228"
     d="m 105.64005,64.136719 a 8.5193586,7.6674228 0 1 1 -17.038719,0 8.5193586,7.6674228 0 1 1 17.038719,0 z"
     transform="translate(197.87804,-20.06052)" />
  <path
     style="color:#000000;fill-opacity:1;fill-rule:nonzero;stroke-width:1;stroke-linecap:butt;stroke-linejoin:miter;stroke-miterlimit:4;stroke-opacity:1;stroke-dasharray:none;stroke-dashoffset:0;marker:none;visibility:visible;display:inline;overflow:visible;enable-background:accumulate"
     id="path3322-1-5"
     d="m 49.19452,44.45197 c 0,2.74795 0,5.4959 0,8.24385 0,1.73899 0,3.47798 0,5.21698 0,0 -1.20482,0 -1.20482,0 l 0,0 c 0,-1.739 0,-3.47799 0,-5.21698 0,-2.74795 0,-5.4959 0,-8.24385 0,0 1.20482,0 1.20482,0 z"
     inkscape:connector-curvature="0" />
  <path
     style="color:#000000;fill-opacity:1;fill-rule:nonzero;stroke-width:1;stroke-linecap:butt;stroke-linejoin:miter;stroke-miterlimit:4;stroke-opacity:1;stroke-dasharray:none;stroke-dashoffset:0;marker:none;visibility:visible;display:inline;overflow:visible;enable-background:accumulate"
     id="path3324-6-5"
     d="m 39.556,51.43029 c 2.74766,-0.52879 5.53689,-0.77064 8.32643,-0.9358 2.57519,0.044 5.08493,-0.25712 7.61611,-0.68189 0.40888,-0.0608 0.81775,-0.12162 1.22663,-0.18243 0,0 0.17713,1.19173 0.17713,1.19173 l 0,0 c -0.40145,0.0596 -0.8029,0.11927 -1.20436,0.1789 -2.57299,0.43179 -5.12739,0.73807 -7.7444,0.69641 -2.73412,0.16143 -5.46801,0.39726 -8.16126,0.91451 0,0 -0.23628,-1.18143 -0.23628,-1.18143 z"
     inkscape:connector-curvature="0" />
  <path
     style="color:#000000;fill-opacity:1;fill-rule:nonzero;stroke-width:1;stroke-linecap:butt;stroke-linejoin:miter;stroke-miterlimit:4;stroke-opacity:1;stroke-dasharray:none;stroke-dashoffset:0;marker:none;visibility:visible;display:inline;overflow:visible;enable-background:accumulate"
     id="path3326-8-1"
     d="m 64.06199,39.6327 c 0,3.03898 0,6.07796 0,9.11694 -0.19923,3.00421 0.32564,5.95396 0.72046,8.91673 0.0496,0.43915 0.0992,0.8783 0.14884,1.31745 0,0 -1.19721,0.13515 -1.19721,0.13515 l 0,0 c -0.0486,-0.43116 -0.0973,-0.86232 -0.1459,-1.29348 -0.40166,-3.01515 -0.92968,-6.01883 -0.73101,-9.07585 0,-3.03898 0,-6.07796 0,-9.11694 0,0 1.20482,0 1.20482,0 z"
     inkscape:connector-curvature="0" />
  <rect
     style="color:#000000;fill:none;stroke:#000000;stroke-width:1;stroke-linecap:butt;stroke-linejoin:miter;stroke-miterlimit:4;stroke-opacity:1;stroke-dasharray:none;stroke-dashoffset:0;marker:none;visibility:visible;display:inline;overflow:visible;enable-background:accumulate"
     id="rect7770-2-8"
     width="51.11615"
     height="47.708408"
     x="630.55109"
     y="163.93634" />
  <path
     sodipodi:type="arc"
     style="color:#000000;fill:none;stroke:#000000;stroke-width:1;stroke-linecap:butt;stroke-linejoin:miter;stroke-miterlimit:4;stroke-opacity:1;stroke-dasharray:none;stroke-dashoffset:0;marker:none;visibility:visible;display:inline;overflow:visible;enable-background:accumulate"
     id="path10042"
     sodipodi:cx="325.43948"
     sodipodi:cy="34.196014"
     sodipodi:rx="26.410011"
     sodipodi:ry="27.261948"
     d="m 351.84949,34.196014 a 26.410011,27.261948 0 1 1 -52.82002,0 26.410011,27.261948 0 1 1 52.82002,0 z"
     transform="translate(-204.51466,200.42816)" />
  <path
     sodipodi:type="arc"
     style="color:#000000;fill:none;stroke:#000000;stroke-width:1;stroke-linecap:butt;stroke-linejoin:miter;stroke-miterlimit:4;stroke-opacity:1;stroke-dasharray:none;stroke-dashoffset:0;marker:none;visibility:visible;display:inline;overflow:visible;enable-background:accumulate"
     id="path10042-8"
     sodipodi:cx="325.43948"
     sodipodi:cy="34.196014"
     sodipodi:rx="26.410011"
     sodipodi:ry="27.261948"
     d="m 351.84949,34.196014 a 26.410011,27.261948 0 1 1 -52.82002,0 26.410011,27.261948 0 1 1 52.82002,0 z"
     transform="translate(331.52164,223.38037)" />
  <path
     style="color:#000000;fill-opacity:1;fill-rule:nonzero;stroke-width:1;stroke-linecap:butt;stroke-linejoin:miter;stroke-miterlimit:4;stroke-opacity:1;stroke-dasharray:12, 12;stroke-dashoffset:0;marker:none;visibility:visible;display:inline;overflow:visible;enable-background:accumulate"
     id="path4255-0"
     d="m 737.67012,170.43516 c -1.48037,0.0127 -3.00427,0.20417 -4.35088,0.8533 -1.36778,0.73138 -1.96772,1.97444 -2.31517,3.43797 -0.15777,1.22915 -0.56818,2.67761 0.32469,3.69184 1.06442,0.7617 2.28865,0.41865 3.39538,-0.0547 1.50175,-0.83676 2.23364,-2.13346 2.66729,-3.75949 0.49184,-2.17869 0.3327,-4.36949 -0.14412,-6.52899 -0.78009,-3.00866 -2.15614,-5.70611 -4.07356,-8.10759 -0.29422,-0.30024 -0.58846,-0.60047 -0.88269,-0.9007 0,0 0.54854,-0.55611 0.54854,-0.55611 l 0,0 c 0.31165,0.31996 0.6233,0.63992 0.93495,0.95988 1.98911,2.49984 3.423,5.30398 4.22819,8.4334 0.49399,2.28763 0.66676,4.60479 0.13482,6.90941 -0.50913,1.86097 -1.38924,3.34582 -3.11853,4.27907 -1.44303,0.59618 -2.98355,0.91423 -4.28959,-0.17543 -0.98437,-1.30382 -0.74833,-2.83786 -0.47692,-4.37867 0.41447,-1.69539 1.1546,-3.1275 2.74028,-3.9647 1.45791,-0.68087 3.07807,-0.92435 4.67732,-0.92686 0,0 0,0.78836 0,0.78836 z"
     inkscape:connector-curvature="0" />
  <path
     style="color:#000000;fill-opacity:1;fill-rule:nonzero;stroke-width:1;stroke-linecap:butt;stroke-linejoin:miter;stroke-miterlimit:4;stroke-opacity:1;stroke-dasharray:12, 12;stroke-dashoffset:0;marker:none;visibility:visible;display:inline;overflow:visible;enable-background:accumulate"
     id="path4259-7"
     d="m 746.08286,169.30426 c -0.36575,1.90441 -0.53251,3.83757 -0.64665,5.77088 0.0662,0.88781 0.13943,2.08105 1.14102,1.16392 0.94494,-1.23396 1.66855,-2.62592 2.24685,-4.06426 0.54653,-1.57654 0.62219,-3.24389 1.01834,-4.85671 0.0413,-0.67737 0.91957,-1.69487 1.30554,-0.50638 0.0682,0.21 -0.10156,1.02969 -0.13569,1.22503 -0.32992,1.92365 -0.42393,3.87431 -0.49776,5.82113 -0.0179,1.82366 -0.2091,3.48653 1.36337,4.67965 0.83805,0.45278 1.69925,0.53194 2.62858,0.57376 0,0 -0.0456,0.85071 -0.0456,0.85071 l 0,0 c -1.11442,-0.068 -2.12822,-0.17338 -3.11457,-0.75876 -1.79949,-1.49204 -1.73554,-3.1742 -1.68307,-5.37768 0.0755,-1.98563 0.17285,-3.97505 0.51011,-5.93689 0.0491,-0.27483 -0.0616,-0.65437 0.16185,-0.82173 0.0661,-0.0495 0.16643,0.0633 0.24497,0.0377 0.55559,-0.1813 0.26285,-0.33948 0.0896,0.4169 -0.40647,1.65101 -0.4727,3.3631 -1.05564,4.97219 -0.63629,1.5702 -1.41893,3.11218 -2.51235,4.41668 -1.71093,1.22293 -2.49743,-0.21541 -2.51596,-1.88554 0.11678,-1.97251 0.28779,-3.94479 0.66171,-5.88768 0,0 0.83539,0.16708 0.83539,0.16708 z"
     inkscape:connector-curvature="0" />
  <path
     style="color:#000000;fill-opacity:1;fill-rule:nonzero;stroke-width:1;stroke-linecap:butt;stroke-linejoin:miter;stroke-miterlimit:4;stroke-opacity:1;stroke-dasharray:12, 12;stroke-dashoffset:0;marker:none;visibility:visible;display:inline;overflow:visible;enable-background:accumulate"
     id="path4261-6"
     d="m 725.7466,186.08225 c 3.01456,-0.49847 6.0392,-0.90387 9.0837,-1.17397 4.59516,-0.3384 9.2047,-0.39055 13.81013,-0.43061 3.52176,-0.0219 7.04361,-0.0165 10.56541,-0.0121 1.1062,0.002 2.2124,0.003 3.3186,0.004 0,0 -9.3e-4,0.85193 -9.3e-4,0.85193 l 0,0 c -1.10625,-10e-4 -2.21249,-0.002 -3.31874,-0.004 -3.51898,-0.004 -7.038,-0.01 -10.55693,0.0121 -4.58281,0.0398 -9.16969,0.0914 -13.74232,0.42732 -3.01375,0.26686 -6.00762,0.66849 -8.99184,1.16075 0,0 -0.16708,-0.83539 -0.16708,-0.83539 z"
     inkscape:connector-curvature="0" />
  <path
     style="color:#000000;fill-opacity:1;fill-rule:nonzero;stroke-width:1;stroke-linecap:butt;stroke-linejoin:miter;stroke-miterlimit:4;stroke-opacity:1;stroke-dasharray:12, 12;stroke-dashoffset:0;marker:none;visibility:visible;display:inline;overflow:visible;enable-background:accumulate"
     id="path4255-7-5"
     d="m 737.77296,200.39899 c -1.48037,0.0127 -3.00427,0.20417 -4.35088,0.8533 -1.36778,0.73138 -1.96772,1.97445 -2.31517,3.43797 -0.15777,1.22915 -0.56818,2.67762 0.32469,3.69185 1.06442,0.7617 2.28865,0.41865 3.39538,-0.0547 1.50175,-0.83676 2.23364,-2.13347 2.66729,-3.7595 0.49184,-2.17869 0.3327,-4.36948 -0.14412,-6.52899 -0.78009,-3.00866 -2.15614,-5.70611 -4.07356,-8.10759 -0.29422,-0.30023 -0.58846,-0.60047 -0.88269,-0.9007 0,0 0.54854,-0.55611 0.54854,-0.55611 l 0,0 c 0.31165,0.31996 0.6233,0.63992 0.93495,0.95989 1.98911,2.49983 3.423,5.30397 4.22819,8.43339 0.49399,2.28763 0.66676,4.6048 0.13482,6.90941 -0.50913,1.86097 -1.38924,3.34583 -3.11853,4.27908 -1.44303,0.59618 -2.98355,0.91423 -4.28959,-0.17543 -0.98437,-1.30382 -0.74833,-2.83787 -0.47692,-4.37868 0.41447,-1.69539 1.1546,-3.1275 2.74028,-3.9647 1.45791,-0.68087 3.07807,-0.92435 4.67732,-0.92686 0,0 0,0.78836 0,0.78836 z"
     inkscape:connector-curvature="0" />
  <path
     style="color:#000000;fill:none;stroke:#000000;stroke-width:0.5;stroke-linecap:butt;stroke-linejoin:miter;stroke-miterlimit:4;stroke-opacity:1;stroke-dasharray:none;stroke-dashoffset:0;marker:none;visibility:visible;display:inline;overflow:visible;enable-background:accumulate"
     id="path3187"
     d="m 23.46469,42.401977 c -0.0407,2.38612 -0.42501,4.754332 -0.61879,7.133151 -0.1629,2.157487 -0.20927,4.320984 -0.23165,6.483711 -0.20779,1.309924 0.33485,2.829766 -0.1607,4.078171 -0.20625,0.05637 -0.42062,0.249443 -0.61877,0.169103 -0.75589,-0.30647 -0.79127,-3.225386 -0.82956,-3.868856 -0.16733,-2.211256 -0.11436,-4.397171 0.39744,-6.55777 0.45084,-2.025576 1.25036,-3.943916 2.52223,-5.5854 1.55824,-1.678799 2.70066,-2.716136 4.99499,-1.669728 1.91158,1.536619 2.60413,3.970437 3.21218,6.252276 0.53849,2.472922 0.57348,5.005129 0.94375,7.50265 0.0521,0.353251 0.1043,0.706502 0.15645,1.059753 0,0 -0.8428,0.124426 -0.8428,0.124426 l 0,0 c -0.0521,-0.35311 -0.10426,-0.70622 -0.15639,-1.059329 -0.36511,-2.466259 -0.4063,-4.964944 -0.92437,-7.408701 -0.54075,-2.040811 -1.14108,-4.247562 -2.76172,-5.705087 -1.73501,-0.922585 -2.76756,0.155956 -3.95081,1.428315 -1.20988,1.533397 -1.9343,3.360466 -2.36496,5.259078 -0.50246,2.077133 -0.52997,4.18243 -0.37554,6.309074 0.0385,0.651363 0.0611,1.194292 0.13433,1.839174 0.0443,0.390191 0.22916,0.768711 0.20276,1.160524 -0.0132,0.19594 -0.69337,0.0016 -0.4837,0.336348 0.13905,-1.031959 -0.0113,-2.499523 0.0533,-3.672847 0.0226,-2.182885 0.0697,-4.366539 0.23442,-6.544116 0.19224,-2.355807 0.57149,-4.701337 0.61597,-7.06392 0,0 0.85193,0 0.85193,0 z"
     inkscape:connector-curvature="0" />
  <path
     style="color:#000000;fill:none;stroke:#000000;stroke-width:0.5;stroke-linecap:butt;stroke-linejoin:miter;stroke-miterlimit:4;stroke-opacity:1;stroke-dasharray:none;stroke-dashoffset:0;marker:none;visibility:visible;display:inline;overflow:visible;enable-background:accumulate"
     id="path3187-4"
     d="m 25.57757,129.82893 c -0.0407,2.38612 -0.42501,4.75433 -0.61879,7.13315 -0.1629,2.15749 -0.20926,4.32099 -0.23165,6.48371 -0.20778,1.30993 0.33485,2.82977 -0.16069,4.07817 -0.20626,0.0564 -0.42062,0.24945 -0.61878,0.16911 -0.75588,-0.30647 -0.79126,-3.22539 -0.82955,-3.86886 -0.16734,-2.21126 -0.11436,-4.39717 0.39743,-6.55777 0.45084,-2.02557 1.25036,-3.94391 2.52224,-5.5854 1.55823,-1.6788 2.70066,-2.71613 4.99498,-1.66973 1.91159,1.53662 2.60413,3.97044 3.21219,6.25228 0.53849,2.47292 0.57347,5.00513 0.94374,7.50265 0.0522,0.35325 0.10431,0.7065 0.15646,1.05975 0,0 -0.8428,0.12443 -0.8428,0.12443 l 0,0 c -0.0521,-0.35311 -0.10426,-0.70622 -0.15639,-1.05933 -0.36511,-2.46626 -0.40631,-4.96494 -0.92437,-7.4087 -0.54076,-2.04081 -1.14108,-4.24756 -2.76173,-5.70509 -1.735,-0.92258 -2.76756,0.15596 -3.9508,1.42832 -1.20988,1.53339 -1.9343,3.36046 -2.36497,5.25907 -0.50245,2.07714 -0.52997,4.18243 -0.37554,6.30908 0.0385,0.65136 0.0611,1.19429 0.13434,1.83917 0.0443,0.39019 0.22915,0.76871 0.20276,1.16053 -0.0132,0.19594 -0.69338,0.002 -0.48371,0.33634 0.13905,-1.03196 -0.0113,-2.49952 0.0533,-3.67284 0.0226,-2.18289 0.0697,-4.36654 0.23442,-6.54412 0.19225,-2.35581 0.57149,-4.70134 0.61597,-7.06392 0,0 0.85194,0 0.85194,0 z"
     inkscape:connector-curvature="0" />
  <path
     style="color:#000000;fill:none;stroke:#000000;stroke-width:0.5;stroke-linecap:butt;stroke-linejoin:miter;stroke-miterlimit:4;stroke-opacity:1;stroke-dasharray:none;stroke-dashoffset:0;marker:none;visibility:visible;display:inline;overflow:visible;enable-background:accumulate"
     id="path3187-3"
     d="m 45.9466,224.17058 c -0.0407,2.38612 -0.42501,4.75433 -0.61879,7.13315 -0.1629,2.15749 -0.20927,4.32099 -0.23165,6.48371 -0.20779,1.30993 0.33485,2.82977 -0.1607,4.07818 -0.20625,0.0564 -0.42062,0.24944 -0.61877,0.1691 -0.75589,-0.30647 -0.79127,-3.22539 -0.82956,-3.86886 -0.16733,-2.21125 -0.11436,-4.39717 0.39744,-6.55777 0.45084,-2.02558 1.25036,-3.94392 2.52223,-5.5854 1.55824,-1.6788 2.70066,-2.71614 4.99499,-1.66973 1.91158,1.53662 2.60413,3.97044 3.21218,6.25228 0.53849,2.47292 0.57348,5.00513 0.94375,7.50265 0.0521,0.35325 0.1043,0.7065 0.15645,1.05975 0,0 -0.8428,0.12443 -0.8428,0.12443 l 0,0 c -0.0521,-0.35311 -0.10426,-0.70622 -0.15639,-1.05933 -0.36511,-2.46626 -0.4063,-4.96494 -0.92437,-7.4087 -0.54075,-2.04081 -1.14108,-4.24756 -2.76172,-5.70509 -1.73501,-0.92258 -2.76756,0.15596 -3.95081,1.42832 -1.20988,1.53339 -1.9343,3.36046 -2.36496,5.25908 -0.50246,2.07713 -0.52997,4.18243 -0.37554,6.30907 0.0385,0.65136 0.0611,1.19429 0.13433,1.83917 0.0443,0.39019 0.22916,0.76871 0.20276,1.16053 -0.0132,0.19594 -0.69337,0.002 -0.4837,0.33635 0.13905,-1.03196 -0.0113,-2.49953 0.0533,-3.67285 0.0226,-2.18289 0.0697,-4.36654 0.23442,-6.54412 0.19224,-2.35581 0.57149,-4.70134 0.61597,-7.06392 0,0 0.85193,0 0.85193,0 z"
     inkscape:connector-curvature="0" />
  <path
     style="color:#000000;fill:none;stroke:#ff0000;stroke-width:0.43670815;stroke-linecap:butt;stroke-linejoin:miter;stroke-miterlimit:4;stroke-opacity:1;stroke-dasharray:none;stroke-dashoffset:0;marker:none;visibility:visible;display:inline;overflow:visible;enable-background:accumulate"
     id="path10080-1-3-5-8"
     d="m 321.83869,144.5264 c -1.98803,-0.22456 -3.9559,-0.57444 -5.93223,-0.93265 -1.89954,-0.16917 -3.76464,-0.49357 -5.58679,-1.1483 -1.27049,-0.43167 -2.57268,-0.61124 -3.87098,-0.86918 -2.20914,-0.33871 -2.6752,0.17555 -1.40644,2.08664 1.18246,1.60095 2.77175,2.8642 4.24215,4.21715 0.86433,1.16611 2.00813,2.09125 3.01016,3.13647 0.89485,1.03937 2.00371,1.85515 3.15102,2.616 0.65318,0.55473 1.28613,1.12811 1.95126,1.66997 0,0 0.46841,-0.5361 0.46841,-0.5361 l 0,0 c -0.68715,-0.55891 -1.33515,-1.15688 -2.01873,-1.71958 -1.09644,-0.72597 -2.15623,-1.50273 -3.00882,-2.4977 -1.02066,-1.05252 -2.16184,-1.9991 -3.04604,-3.17151 -1.42229,-1.3087 -2.96081,-2.52922 -4.11529,-4.06956 -0.79776,-1.1732 -1.38171,-1.26188 0.67645,-1.02023 1.25829,0.24785 2.51829,0.42102 3.75023,0.83578 1.86646,0.66682 3.77495,1.01574 5.72065,1.18418 2.00127,0.36242 3.99439,0.71536 6.00742,0.94274 0,0 0.008,-0.72411 0.008,-0.72411 z"
     inkscape:connector-curvature="0"
     inkscape:transform-center-x="-29.817755" />
  <path
     style="color:#000000;fill:none;stroke:#000000;stroke-width:0.5;stroke-linecap:butt;stroke-linejoin:miter;stroke-miterlimit:4;stroke-opacity:1;stroke-dasharray:none;stroke-dashoffset:0;marker:none;visibility:visible;display:inline;overflow:visible;enable-background:accumulate"
     id="path3250"
     d="m 747.75414,195.23732 c -0.77496,1.99206 -1.05938,4.11661 -1.28022,6.22863 -0.11844,1.94297 -0.49663,3.95203 0.47976,5.72375 0.99901,1.51326 2.60777,1.85946 4.28807,2.12051 1.02378,0.0987 1.95182,-0.2106 2.90434,-0.52876 0,0 0.26654,0.80917 0.26654,0.80917 l 0,0 c -1.08461,0.35277 -2.14143,0.68803 -3.3029,0.56123 -1.95298,-0.30905 -3.77953,-0.79069 -4.90832,-2.56231 -1.01206,-1.96034 -0.75769,-4.07191 -0.57479,-6.21236 0.2299,-2.19 0.53033,-4.39166 1.33651,-6.45627 0,0 0.79101,0.31641 0.79101,0.31641 z"
     inkscape:connector-curvature="0" />
  <path
     style="color:#000000;fill:none;stroke:#000000;stroke-width:0.5;stroke-linecap:butt;stroke-linejoin:miter;stroke-miterlimit:4;stroke-opacity:1;stroke-dasharray:none;stroke-dashoffset:0;marker:none;visibility:visible;display:inline;overflow:visible;enable-background:accumulate"
     id="path3252"
     d="m 743.06227,200.10717 c 2.49555,0 4.99109,0 7.48664,0 1.12506,0 2.25012,0 3.37518,0 0,0 0,0.85193 0,0.85193 l 0,0 c -1.12506,0 -2.25012,0 -3.37518,0 -2.49555,0 -4.99109,0 -7.48664,0 0,0 0,-0.85193 0,-0.85193 z"
     inkscape:connector-curvature="0" />
  <path
     style="color:#000000;fill-opacity:1;fill-rule:nonzero;stroke-width:1;stroke-linecap:butt;stroke-linejoin:miter;stroke-miterlimit:4;stroke-opacity:1;stroke-dasharray:none;stroke-dashoffset:0;marker:none;visibility:visible;display:inline;overflow:visible;enable-background:accumulate"
     id="path3364-4-6-1"
     d="m 103.4074,287.5639 c 0,2.45126 0,4.90251 0,7.35377 -0.009,1.96504 0.0171,4.12917 1.72513,5.54599 1.81059,0.61857 3.35275,-1.01707 4.36954,-2.1557 0,0 0.93523,0.67755 0.93523,0.67755 l 0,0 c -1.54319,1.66764 -3.62815,3.48772 -6.14808,2.24572 -1.88188,-1.70847 -2.15578,-3.98945 -2.08664,-6.31356 0,-2.45126 0,-4.90251 0,-7.35377 0,0 1.20482,0 1.20482,0 z"
     inkscape:connector-curvature="0" />
  <path
     style="fill:none;stroke:#000000;stroke-width:1.11006212px;stroke-linecap:butt;stroke-linejoin:miter;stroke-opacity:1"
     d="m 104.00981,281.80717 -2.69341,0"
     id="path3366-5-0-6"
     inkscape:connector-curvature="0" />
  <path
     style="color:#000000;fill-opacity:1;fill-rule:nonzero;stroke-width:1;stroke-linecap:butt;stroke-linejoin:miter;stroke-miterlimit:4;stroke-opacity:1;stroke-dasharray:none;stroke-dashoffset:0;marker:none;visibility:visible;display:inline;overflow:visible;enable-background:accumulate"
     id="path3324-6-9-6"
     d="m 111.1888,292.89881 c 2.74766,-0.52879 5.53689,-0.77064 8.32643,-0.9358 2.57519,0.044 5.08493,-0.25712 7.61611,-0.68189 0.40888,-0.0608 0.81775,-0.12162 1.22663,-0.18243 0,0 0.17713,1.19173 0.17713,1.19173 l 0,0 c -0.40145,0.0596 -0.8029,0.11927 -1.20436,0.1789 -2.57299,0.43179 -5.12739,0.73807 -7.7444,0.69641 -2.73412,0.16143 -5.46801,0.39726 -8.16126,0.91451 0,0 -0.23628,-1.18143 -0.23628,-1.18143 z"
     inkscape:connector-curvature="0" />
  <path
     style="color:#000000;fill-opacity:1;fill-rule:nonzero;stroke-width:1;stroke-linecap:butt;stroke-linejoin:miter;stroke-miterlimit:4;stroke-opacity:1;stroke-dasharray:none;stroke-dashoffset:0;marker:none;visibility:visible;display:inline;overflow:visible;enable-background:accumulate"
     id="path3326-8-6-4"
     d="m 137.69479,281.10122 c 0,3.03898 0,6.07796 0,9.11694 -0.19923,3.00421 0.32564,5.95396 0.72046,8.91673 0.0496,0.43915 0.0992,0.8783 0.14884,1.31745 0,0 -1.19721,0.13515 -1.19721,0.13515 l 0,0 c -0.0486,-0.43116 -0.0973,-0.86232 -0.1459,-1.29348 -0.40166,-3.01515 -0.92968,-6.01883 -0.73101,-9.07585 0,-3.03898 0,-6.07796 0,-9.11694 0,0 1.20482,0 1.20482,0 z"
     inkscape:connector-curvature="0" />
  <path
     style="color:#000000;fill-opacity:1;fill-rule:nonzero;stroke-width:1;stroke-linecap:butt;stroke-linejoin:miter;stroke-miterlimit:4;stroke-opacity:1;stroke-dasharray:none;stroke-dashoffset:0;marker:none;visibility:visible;display:inline;overflow:visible;enable-background:accumulate"
     id="path3364-4-1"
     d="m 462.61005,285.60035 c 0,2.45126 0,4.90251 0,7.35377 -0.009,1.96504 0.0171,4.12917 1.72513,5.54599 1.81059,0.61857 3.35275,-1.01707 4.36954,-2.1557 0,0 0.93523,0.67755 0.93523,0.67755 l 0,0 c -1.54319,1.66764 -3.62815,3.48772 -6.14808,2.24572 -1.88188,-1.70847 -2.15578,-3.98945 -2.08664,-6.31356 0,-2.45126 0,-4.90251 0,-7.35377 0,0 1.20482,0 1.20482,0 z"
     inkscape:connector-curvature="0" />
  <path
     style="fill:none;stroke:#000000;stroke-width:1.11006212px;stroke-linecap:butt;stroke-linejoin:miter;stroke-opacity:1"
     d="m 463.21246,279.84362 -2.69341,0"
     id="path3366-5-8"
     inkscape:connector-curvature="0" />
  <path
     style="color:#000000;fill-opacity:1;fill-rule:nonzero;stroke-width:1;stroke-linecap:butt;stroke-linejoin:miter;stroke-miterlimit:4;stroke-opacity:1;stroke-dasharray:none;stroke-dashoffset:0;marker:none;visibility:visible;display:inline;overflow:visible;enable-background:accumulate"
     id="path3322-1-55"
     d="m 480.02997,283.95694 c 0,2.74795 0,5.4959 0,8.24385 0,1.73899 0,3.47798 0,5.21698 0,0 -1.20482,0 -1.20482,0 l 0,0 c 0,-1.739 0,-3.47799 0,-5.21698 0,-2.74795 0,-5.4959 0,-8.24385 0,0 1.20482,0 1.20482,0 z"
     inkscape:connector-curvature="0" />
  <path
     style="color:#000000;fill-opacity:1;fill-rule:nonzero;stroke-width:1;stroke-linecap:butt;stroke-linejoin:miter;stroke-miterlimit:4;stroke-opacity:1;stroke-dasharray:none;stroke-dashoffset:0;marker:none;visibility:visible;display:inline;overflow:visible;enable-background:accumulate"
     id="path3324-6-54"
     d="m 470.39145,290.93526 c 2.74766,-0.52879 5.53689,-0.77064 8.32643,-0.9358 2.57519,0.044 5.08493,-0.25712 7.61611,-0.68189 0.40888,-0.0608 0.81775,-0.12162 1.22663,-0.18243 0,0 0.17713,1.19173 0.17713,1.19173 l 0,0 c -0.40145,0.0596 -0.8029,0.11927 -1.20436,0.1789 -2.57299,0.43179 -5.12739,0.73807 -7.7444,0.69641 -2.73412,0.16143 -5.46801,0.39726 -8.16126,0.91451 0,0 -0.23628,-1.18143 -0.23628,-1.18143 z"
     inkscape:connector-curvature="0" />
  <path
     style="color:#000000;fill-opacity:1;fill-rule:nonzero;stroke-width:1;stroke-linecap:butt;stroke-linejoin:miter;stroke-miterlimit:4;stroke-opacity:1;stroke-dasharray:none;stroke-dashoffset:0;marker:none;visibility:visible;display:inline;overflow:visible;enable-background:accumulate"
     id="path3326-8-9"
     d="m 496.89744,279.13767 c 0,3.03898 0,6.07796 0,9.11694 -0.19923,3.00421 0.32564,5.95396 0.72046,8.91673 0.0496,0.43915 0.0992,0.8783 0.14884,1.31745 0,0 -1.19721,0.13515 -1.19721,0.13515 l 0,0 c -0.0486,-0.43116 -0.0973,-0.86232 -0.1459,-1.29348 -0.40166,-3.01515 -0.92968,-6.01883 -0.73101,-9.07585 0,-3.03898 0,-6.07796 0,-9.11694 0,0 1.20482,0 1.20482,0 z"
     inkscape:connector-curvature="0" />
  <path
     style="color:#000000;fill-opacity:1;fill-rule:nonzero;stroke-width:1;stroke-linecap:butt;stroke-linejoin:miter;stroke-miterlimit:4;stroke-opacity:1;stroke-dasharray:none;stroke-dashoffset:0;marker:none;visibility:visible;display:inline;overflow:visible;enable-background:accumulate"
     id="path3326-8-6-1"
     d="m 64.41074,121.44405 c 0,2.15266 0,4.30531 0,6.45797 -0.17106,2.12803 0.2796,4.21747 0.61861,6.31614 0.0426,0.31107 0.0852,0.62214 0.1278,0.93321 0,0 -1.02796,0.0957 -1.02796,0.0957 l 0,0 c -0.0417,-0.30541 -0.0836,-0.61083 -0.12528,-0.91624 -0.34487,-2.13577 -0.79824,-4.26342 -0.62766,-6.42885 0,-2.15266 0,-4.30531 0,-6.45797 0,0 1.03449,0 1.03449,0 z"
     inkscape:connector-curvature="0" />
  <path
     style="color:#000000;fill:#000000;fill-opacity:1;fill-rule:nonzero;stroke:#000000;stroke-width:0.30049342;stroke-linecap:butt;stroke-linejoin:miter;stroke-miterlimit:4;stroke-opacity:1;stroke-dasharray:none;stroke-dashoffset:0;marker:none;visibility:visible;display:inline;overflow:visible;enable-background:accumulate"
     id="path3715-5"
     d="m 77.99264,130.15376 c -1.5578,1.10342 -3.16703,2.11546 -4.77872,3.13568 -1.20242,0.71974 -2.16271,1.67548 -3.15877,2.63575 -0.86265,0.80685 -1.43913,1.8388 -2.17863,2.75033 -0.78227,0.77181 -1.67913,1.41358 -2.46021,2.18367 -0.75843,1.00109 -1.77099,1.73764 -2.7462,2.50738 -0.2028,0.13149 -0.40561,0.26298 -0.60841,0.39446 0,0 -0.39659,-0.61454 -0.39659,-0.61454 l 0,0 c 0.18396,-0.11802 0.36792,-0.23605 0.55188,-0.35407 0.9555,-0.75349 1.94579,-1.47322 2.68715,-2.45542 0.76572,-0.74705 1.62698,-1.38581 2.40432,-2.12226 0.75832,-0.93445 1.34802,-1.99495 2.23982,-2.81688 1.03441,-0.99031 2.03112,-1.98085 3.27448,-2.72644 1.62068,-1.02489 3.23609,-2.04541 4.80448,-3.15124 0,0 0.3654,0.63358 0.3654,0.63358 z"
     inkscape:connector-curvature="0" />
  <path
     style="color:#000000;fill:#000000;fill-opacity:1;fill-rule:nonzero;stroke:#000000;stroke-width:0.28743979;stroke-linecap:butt;stroke-linejoin:miter;stroke-miterlimit:4;stroke-opacity:1;stroke-dasharray:none;stroke-dashoffset:0;marker:none;visibility:visible;display:inline;overflow:visible;enable-background:accumulate"
     id="path3719-4"
     d="m 69.58002,142.36645 c 0.65274,-1.44981 1.4446,-2.83052 2.52408,-4.05174 1.10673,-1.06834 2.49917,-1.61072 4.09356,-1.36573 1.56568,0.57282 1.66359,1.86211 1.58326,3.21085 -0.23365,1.17631 -0.72328,2.26596 -1.35901,3.3036 -0.84561,1.20673 -1.73027,2.38842 -2.59744,3.58232 -0.96229,1.13004 -1.59247,2.44819 -2.49546,3.61292 -0.0975,0.47547 -1.03491,0.81254 -0.98519,1.31064 0.0119,0.11941 -0.0865,-0.22899 -0.15842,-0.32934 1.00598,-0.25093 1.99232,-0.59944 2.97641,-0.92384 1.43915,-0.46889 2.95665,-0.61493 4.47108,-0.701 1.47728,-0.0616 2.95665,-0.0543 4.43508,-0.0525 0,0 -8.5e-4,0.66851 -8.5e-4,0.66851 l 0,0 c -1.46301,-0.002 -2.92693,-0.009 -4.38883,0.0512 -1.44505,0.0815 -2.89391,0.21637 -4.26775,0.66255 -1.0702,0.35267 -2.147,0.76459 -3.26153,0.96273 -0.16492,-0.0914 -0.36728,-0.14194 -0.49474,-0.27414 -0.41362,-0.42903 0.97703,-1.4326 1.07826,-1.7625 0.90529,-1.15369 1.51544,-2.47626 2.48175,-3.5947 0.85725,-1.18013 1.73115,-2.34858 2.56917,-3.54008 0.58529,-0.94828 1.0307,-1.94164 1.26643,-3.01369 0.0625,-0.9916 0.14768,-2.01427 -0.98654,-2.5164 -1.3076,-0.25301 -2.47692,0.27696 -3.39002,1.12921 -1.02868,1.15602 -1.77097,2.47054 -2.39852,3.84252 0,0 -0.69469,-0.21141 -0.69469,-0.21141 z"
     inkscape:connector-curvature="0" />
  <path
     style="color:#000000;fill-opacity:1;fill-rule:nonzero;stroke-width:1;stroke-linecap:butt;stroke-linejoin:miter;stroke-miterlimit:4;stroke-opacity:1;stroke-dasharray:none;stroke-dashoffset:0;marker:none;visibility:visible;display:inline;overflow:visible;enable-background:accumulate"
     id="path3322-1-5-2"
     d="m 47.82638,130.62274 c 0,2.74795 0,5.4959 0,8.24385 0,1.73899 0,3.47798 0,5.21698 0,0 -1.20482,0 -1.20482,0 l 0,0 c 0,-1.739 0,-3.47799 0,-5.21698 0,-2.74795 0,-5.4959 0,-8.24385 0,0 1.20482,0 1.20482,0 z"
     inkscape:connector-curvature="0" />
  <path
     style="color:#000000;fill-opacity:1;fill-rule:nonzero;stroke-width:1;stroke-linecap:butt;stroke-linejoin:miter;stroke-miterlimit:4;stroke-opacity:1;stroke-dasharray:none;stroke-dashoffset:0;marker:none;visibility:visible;display:inline;overflow:visible;enable-background:accumulate"
     id="path3324-6-5-8"
     d="m 38.18786,137.60106 c 2.74766,-0.52879 5.53689,-0.77064 8.32643,-0.9358 2.57519,0.044 5.08493,-0.25712 7.6161,-0.68189 0.40888,-0.0608 0.81775,-0.12162 1.22663,-0.18243 0,0 0.17713,1.19173 0.17713,1.19173 l 0,0 c -0.40145,0.0596 -0.8029,0.11927 -1.20436,0.1789 -2.57298,0.43179 -5.12738,0.73807 -7.74439,0.69641 -2.73412,0.16143 -5.46801,0.39726 -8.16126,0.91451 0,0 -0.23628,-1.18143 -0.23628,-1.18143 z"
     inkscape:connector-curvature="0" />
  <path
     sodipodi:type="arc"
     style="color:#000000;fill:#000000;fill-opacity:1;fill-rule:nonzero;stroke-width:1;stroke-linecap:butt;stroke-linejoin:miter;stroke-miterlimit:4;stroke-opacity:1;stroke-dasharray:12, 12;stroke-dashoffset:0;marker:none;visibility:visible;display:inline;overflow:visible;enable-background:accumulate"
     id="path4447-3-4-9"
     sodipodi:cx="97.120689"
     sodipodi:cy="64.136719"
     sodipodi:rx="8.5193586"
     sodipodi:ry="7.6674228"
     d="m 105.64005,64.136719 a 8.5193586,7.6674228 0 1 1 -17.038719,0 8.5193586,7.6674228 0 1 1 17.038719,0 z"
     transform="translate(23.73677,171.1969)" />
  <path
     sodipodi:type="arc"
     style="color:#000000;fill:#000000;fill-opacity:1;fill-rule:nonzero;stroke-width:1;stroke-linecap:butt;stroke-linejoin:miter;stroke-miterlimit:4;stroke-opacity:1;stroke-dasharray:12, 12;stroke-dashoffset:0;marker:none;visibility:visible;display:inline;overflow:visible;enable-background:accumulate"
     id="path4447-3-4-9-6"
     sodipodi:cx="97.120689"
     sodipodi:cy="64.136719"
     sodipodi:rx="8.5193586"
     sodipodi:ry="7.6674228"
     d="m 105.64005,64.136719 a 8.5193586,7.6674228 0 1 1 -17.038719,0 8.5193586,7.6674228 0 1 1 17.038719,0 z"
     transform="translate(377.58629,170.12173)" />
  <path
     style="fill:none;stroke:#ff0000;stroke-width:1.5;stroke-linecap:butt;stroke-linejoin:miter;stroke-miterlimit:4;stroke-opacity:1;stroke-dasharray:9,9;stroke-dashoffset:0"
     d="M 120.68557,235.06128 295.01344,140.96153"
     id="path3488-9-1-8"
     inkscape:connector-curvature="0" />
  <path
     sodipodi:type="arc"
     style="color:#000000;fill:none;stroke:#000000;stroke-width:1;stroke-linecap:butt;stroke-linejoin:miter;stroke-miterlimit:4;stroke-opacity:1;stroke-dasharray:none;stroke-dashoffset:0;marker:none;visibility:visible;display:inline;overflow:visible;enable-background:accumulate"
     id="path10042-7"
     sodipodi:cx="325.43948"
     sodipodi:cy="34.196014"
     sodipodi:rx="26.410011"
     sodipodi:ry="27.261948"
     d="m 351.84949,34.196014 a 26.410011,27.261948 0 1 1 -52.82002,0 26.410011,27.261948 0 1 1 52.82002,0 z"
     transform="translate(149.98624,200.57395)" />
  <rect
     style="color:#000000;fill:none;stroke:#000000;stroke-width:1.10749292;stroke-linecap:butt;stroke-linejoin:miter;stroke-miterlimit:4;stroke-opacity:1;stroke-dasharray:none;stroke-dashoffset:0;marker:none;visibility:visible;display:inline;overflow:visible;enable-background:accumulate"
     id="rect7770-1"
     width="54.435501"
     height="54.948116"
     x="447.66919"
     y="208.45764" />
  <rect
     style="color:#000000;fill:none;stroke:#000000;stroke-width:1.10749292;stroke-linecap:butt;stroke-linejoin:miter;stroke-miterlimit:4;stroke-opacity:1;stroke-dasharray:none;stroke-dashoffset:0;marker:none;visibility:visible;display:inline;overflow:visible;enable-background:accumulate"
     id="rect7770-1-2"
     width="54.435501"
     height="54.948116"
     x="94.098801"
     y="206.70366" />
  <path
     sodipodi:type="arc"
     style="color:#000000;fill:none;stroke:#0000ff;stroke-width:1;stroke-linecap:butt;stroke-linejoin:miter;stroke-miterlimit:4;stroke-opacity:1;stroke-dasharray:none;stroke-dashoffset:0;marker:none;visibility:visible;display:inline;overflow:visible;enable-background:accumulate"
     id="path10042-1-4"
     sodipodi:cx="325.43948"
     sodipodi:cy="34.196014"
     sodipodi:rx="26.410011"
     sodipodi:ry="27.261948"
     d="m 351.84949,34.196014 a 26.410011,27.261948 0 1 1 -52.82002,0 26.410011,27.261948 0 1 1 52.82002,0 z"
     transform="matrix(0.90793846,0,0,0.90793846,179.57215,102.89753)" />
  <path
     style="color:#000000;fill:#0000ff;fill-opacity:1;fill-rule:nonzero;stroke-width:1;stroke-linecap:butt;stroke-linejoin:miter;stroke-miterlimit:4;stroke-opacity:1;stroke-dasharray:12, 12;stroke-dashoffset:0;marker:none;visibility:visible;display:inline;overflow:visible;enable-background:accumulate"
     id="path4255-8"
     d="m 736.23298,104.0667 c -1.48037,0.0127 -3.00427,0.20417 -4.35088,0.8533 -1.36778,0.73138 -1.96772,1.97444 -2.31517,3.43797 -0.15777,1.22915 -0.56818,2.67761 0.32469,3.69184 1.06442,0.7617 2.28865,0.41865 3.39538,-0.0547 1.50175,-0.83676 2.23364,-2.13346 2.66729,-3.75949 0.49184,-2.17869 0.3327,-4.36949 -0.14412,-6.52899 -0.78009,-3.008662 -2.15614,-5.706112 -4.07356,-8.107592 -0.29422,-0.30024 -0.58846,-0.60047 -0.88269,-0.9007 0,0 0.54854,-0.556115 0.54854,-0.556115 l 0,0 c 0.31165,0.31996 0.6233,0.639925 0.93495,0.959885 1.98911,2.49984 3.423,5.30398 4.22819,8.433402 0.49399,2.28763 0.66676,4.60479 0.13482,6.90941 -0.50913,1.86097 -1.38924,3.34582 -3.11853,4.27907 -1.44303,0.59618 -2.98355,0.91423 -4.28959,-0.17543 -0.98437,-1.30382 -0.74833,-2.83786 -0.47692,-4.37867 0.41447,-1.69539 1.1546,-3.1275 2.74028,-3.9647 1.45791,-0.68087 3.07807,-0.92435 4.67732,-0.92686 0,0 0,0.78836 0,0.78836 z"
     inkscape:connector-curvature="0" />
  <path
     style="color:#000000;fill:#0000ff;fill-opacity:1;fill-rule:nonzero;stroke-width:1;stroke-linecap:butt;stroke-linejoin:miter;stroke-miterlimit:4;stroke-opacity:1;stroke-dasharray:12, 12;stroke-dashoffset:0;marker:none;visibility:visible;display:inline;overflow:visible;enable-background:accumulate"
     id="path4259-3"
     d="m 744.64572,102.9358 c -0.36575,1.90441 -0.53251,3.83757 -0.64665,5.77088 0.0662,0.88781 0.13943,2.08105 1.14102,1.16392 0.94494,-1.23396 1.66855,-2.62592 2.24685,-4.06426 0.54653,-1.57654 0.62219,-3.24389 1.01834,-4.85671 0.0413,-0.67737 0.91957,-1.694872 1.30554,-0.50638 0.0682,0.21 -0.10156,1.02969 -0.13569,1.22503 -0.32992,1.92365 -0.42393,3.87431 -0.49776,5.82113 -0.0179,1.82366 -0.2091,3.48653 1.36337,4.67965 0.83805,0.45278 1.69925,0.53194 2.62858,0.57376 0,0 -0.0456,0.85071 -0.0456,0.85071 l 0,0 c -1.11442,-0.068 -2.12822,-0.17338 -3.11457,-0.75876 -1.79949,-1.49204 -1.73554,-3.1742 -1.68307,-5.37768 0.0755,-1.98563 0.17285,-3.97505 0.51011,-5.93689 0.0491,-0.27483 -0.0616,-0.65437 0.16185,-0.82173 0.0661,-0.0495 0.16643,0.0633 0.24497,0.0377 0.55559,-0.1813 0.26285,-0.33948 0.0896,0.4169 -0.40647,1.65101 -0.4727,3.3631 -1.05564,4.97219 -0.63629,1.5702 -1.41893,3.11218 -2.51235,4.41668 -1.71093,1.22293 -2.49743,-0.21541 -2.51596,-1.88554 0.11678,-1.97251 0.28779,-3.94479 0.66171,-5.88768 0,0 0.83539,0.16708 0.83539,0.16708 z"
     inkscape:connector-curvature="0" />
  <path
     style="color:#000000;fill:#0000ff;fill-opacity:1;fill-rule:nonzero;stroke-width:1;stroke-linecap:butt;stroke-linejoin:miter;stroke-miterlimit:4;stroke-opacity:1;stroke-dasharray:12, 12;stroke-dashoffset:0;marker:none;visibility:visible;display:inline;overflow:visible;enable-background:accumulate"
     id="path4261-60"
     d="m 724.30946,119.71379 c 3.01456,-0.49847 6.0392,-0.90387 9.0837,-1.17397 4.59516,-0.3384 9.2047,-0.39055 13.81013,-0.43061 3.52176,-0.0219 7.04361,-0.0165 10.56541,-0.0121 1.1062,0.002 2.2124,0.003 3.3186,0.004 0,0 -9.3e-4,0.85193 -9.3e-4,0.85193 l 0,0 c -1.10625,-0.001 -2.21249,-0.002 -3.31874,-0.004 -3.51898,-0.004 -7.038,-0.01 -10.55693,0.0121 -4.58281,0.0398 -9.16969,0.0914 -13.74232,0.42732 -3.01375,0.26686 -6.00762,0.66849 -8.99184,1.16075 0,0 -0.16708,-0.83539 -0.16708,-0.83539 z"
     inkscape:connector-curvature="0" />
  <path
     style="color:#000000;fill:#0000ff;fill-opacity:1;fill-rule:nonzero;stroke-width:1;stroke-linecap:butt;stroke-linejoin:miter;stroke-miterlimit:4;stroke-opacity:1;stroke-dasharray:12, 12;stroke-dashoffset:0;marker:none;visibility:visible;display:inline;overflow:visible;enable-background:accumulate"
     id="path4255-7-9"
     d="m 736.33582,134.03053 c -1.48037,0.0127 -3.00427,0.20417 -4.35088,0.8533 -1.36778,0.73138 -1.96772,1.97445 -2.31517,3.43797 -0.15777,1.22915 -0.56818,2.67762 0.32469,3.69185 1.06442,0.7617 2.28865,0.41865 3.39538,-0.0547 1.50175,-0.83676 2.23364,-2.13347 2.66729,-3.7595 0.49184,-2.17869 0.3327,-4.36948 -0.14412,-6.52899 -0.78009,-3.00866 -2.15614,-5.70611 -4.07356,-8.10759 -0.29422,-0.30023 -0.58846,-0.60047 -0.88269,-0.9007 0,0 0.54854,-0.55611 0.54854,-0.55611 l 0,0 c 0.31165,0.31996 0.6233,0.63992 0.93495,0.95989 1.98911,2.49983 3.423,5.30397 4.22819,8.43339 0.49399,2.28763 0.66676,4.6048 0.13482,6.90941 -0.50913,1.86097 -1.38924,3.34583 -3.11853,4.27908 -1.44303,0.59618 -2.98355,0.91423 -4.28959,-0.17543 -0.98437,-1.30382 -0.74833,-2.83787 -0.47692,-4.37868 0.41447,-1.69539 1.1546,-3.1275 2.74028,-3.9647 1.45791,-0.68087 3.07807,-0.92435 4.67732,-0.92686 0,0 0,0.78836 0,0.78836 z"
     inkscape:connector-curvature="0" />
  <path
     style="color:#000000;fill:#0000ff;fill-opacity:1;fill-rule:nonzero;stroke-width:1;stroke-linecap:butt;stroke-linejoin:miter;stroke-miterlimit:4;stroke-opacity:1;stroke-dasharray:12, 12;stroke-dashoffset:0;marker:none;visibility:visible;display:inline;overflow:visible;enable-background:accumulate"
     id="path4295-0"
     d="m 739.10287,133.12233 c 1.21226,-0.65688 2.49079,-0.99589 3.82592,-0.95392 1.14312,0.21867 1.87828,1.10128 2.31704,2.2833 0.35938,1.31204 0.3982,2.66167 0.18679,4.00497 -0.3223,1.12873 -0.88105,2.10166 -1.70266,2.81668 -1.02643,0.68957 -2.10702,0.71639 -3.21501,0.32798 -0.519,-0.28544 -0.96726,-0.66428 -1.40234,-1.09018 0,0 0.41358,-0.55505 0.41358,-0.55505 l 0,0 c 0.36537,0.36706 0.74991,0.6818 1.17855,0.94695 0.90693,0.33988 1.79338,0.32207 2.64861,-0.21871 0.70479,-0.58082 1.15611,-1.43071 1.45501,-2.35955 0.19324,-1.20334 0.16076,-2.41055 -0.14829,-3.59143 -0.32056,-0.91628 -0.87672,-1.63332 -1.75018,-1.83352 -1.2298,-0.0462 -2.40524,0.27718 -3.5232,0.87699 0,0 -0.28382,-0.65451 -0.28382,-0.65451 z"
     inkscape:connector-curvature="0" />
  <path
     style="color:#000000;fill:#0000ff;fill-opacity:1;fill-rule:nonzero;stroke-width:1;stroke-linecap:butt;stroke-linejoin:miter;stroke-miterlimit:4;stroke-opacity:1;stroke-dasharray:12, 12;stroke-dashoffset:0;marker:none;visibility:visible;display:inline;overflow:visible;enable-background:accumulate"
     id="path4297-8"
     d="m 749.91946,133.77684 c -1.15728,-0.63869 -2.30484,-0.9587 -3.53967,-0.47571 -1.02406,0.656 -1.22134,1.90286 -1.36001,3.13695 0.0305,1.17635 0.33363,2.3333 1.0114,3.22406 0.62891,0.89424 1.50509,1.46798 2.43023,1.85986 1.2128,0.51516 2.37451,0.2638 3.57553,-0.12307 0.61355,-0.20159 1.12836,-0.62833 1.66294,-1.01029 0,0 0.33422,0.62207 0.33422,0.62207 l 0,0 c -0.58508,0.41774 -1.15463,0.87604 -1.82669,1.09308 -1.3301,0.42685 -2.6286,0.6731 -3.96714,0.10412 -1.02346,-0.44319 -1.99363,-1.07921 -2.69247,-2.07158 -0.77374,-1.07395 -1.15938,-2.39358 -1.15726,-3.79371 0.17705,-1.52995 0.499,-2.98834 1.79373,-3.73766 1.40707,-0.50539 2.7048,-0.22593 4.01903,0.51737 0,0 -0.28384,0.65451 -0.28384,0.65451 z"
     inkscape:connector-curvature="0" />
  <path
     style="color:#000000;fill:#0000ff;fill-opacity:1;fill-rule:nonzero;stroke-width:1;stroke-linecap:butt;stroke-linejoin:miter;stroke-miterlimit:4;stroke-opacity:1;stroke-dasharray:12, 12;stroke-dashoffset:0;marker:none;visibility:visible;display:inline;overflow:visible;enable-background:accumulate"
     id="path4317-6"
     d="m 691.42718,117.25161 c 2.87674,0 5.75348,0 8.63022,0 3.69642,-0.0248 7.37934,0.38138 11.06524,0.61826 1.3015,0.0838 2.60465,0.13338 3.9079,0.17883 0,0 -0.0297,0.85142 -0.0297,0.85142 l 0,0 c -1.31156,-0.0458 -2.62303,-0.0957 -3.93283,-0.18007 -3.66772,-0.23576 -7.33248,-0.64022 -11.0106,-0.6165 -2.87674,0 -5.75348,0 -8.63022,0 0,0 0,-0.85194 0,-0.85194 z"
     inkscape:connector-curvature="0" />
  <path
     style="color:#000000;fill:#0000ff;fill-opacity:1;fill-rule:nonzero;stroke-width:1;stroke-linecap:butt;stroke-linejoin:miter;stroke-miterlimit:4;stroke-opacity:1;stroke-dasharray:12, 12;stroke-dashoffset:0;marker:none;visibility:visible;display:inline;overflow:visible;enable-background:accumulate"
     id="path4319-0"
     d="m 692.27912,121.51129 c 2.48251,0 4.96502,0 7.44753,0 2.77812,0.18979 5.5442,0.51074 8.32287,0.69851 1.92578,0.29548 3.83419,0.66733 5.77482,0.85653 0,0 -0.0829,0.8479 -0.0829,0.8479 l 0,0 c -1.93202,-0.1892 -3.8335,-0.55089 -5.74942,-0.85443 -2.75955,-0.18665 -5.50687,-0.5019 -8.26541,-0.69657 -2.48251,0 -4.96502,0 -7.44753,0 0,0 0,-0.85194 0,-0.85194 z"
     inkscape:connector-curvature="0" />
  <path
     style="color:#000000;fill:#0000ff;fill-opacity:1;fill-rule:nonzero;stroke-width:1;stroke-linecap:butt;stroke-linejoin:miter;stroke-miterlimit:4;stroke-opacity:1;stroke-dasharray:12, 12;stroke-dashoffset:0;marker:none;visibility:visible;display:inline;overflow:visible;enable-background:accumulate"
     id="path4371-3"
     d="m 692.64357,43.961913 c 3.58756,-0.50432 7.21866,-0.57083 10.83484,-0.65985 4.35134,-0.0872 8.70374,-0.0964 13.0558,-0.10163 0.50623,-1.3e-4 1.01247,-2.5e-4 1.5187,-3.8e-4 0,0 2.1e-4,0.85194 2.1e-4,0.85194 l 0,0 c -0.50596,1.2e-4 -1.01192,2.5e-4 -1.51788,3.7e-4 -4.34542,0.005 -8.69117,0.0144 -13.03588,0.10138 -3.57631,0.088 -7.16736,0.15277 -10.71573,0.64852 0,0 -0.14006,-0.84035 -0.14006,-0.84035 z"
     inkscape:connector-curvature="0" />
  <path
     style="color:#000000;fill:#0000ff;fill-opacity:1;fill-rule:nonzero;stroke-width:1;stroke-linecap:butt;stroke-linejoin:miter;stroke-miterlimit:4;stroke-opacity:1;stroke-dasharray:12, 12;stroke-dashoffset:0;marker:none;visibility:visible;display:inline;overflow:visible;enable-background:accumulate"
     id="path4373-0"
     d="m 691.90333,49.072013 c 4.05767,-0.35622 8.11709,-0.70149 12.17703,-1.04276 4.05418,-0.21505 8.12835,-0.64365 12.19058,-0.43853 0,0 -0.0437,0.85082 -0.0437,0.85082 l 0,0 c -4.02317,-0.21043 -8.06006,0.23122 -12.0755,0.43665 -4.04354,0.33985 -8.0864,0.685 -12.12791,1.0372 0,0 -0.12048,-0.84338 -0.12048,-0.84338 z"
     inkscape:connector-curvature="0" />
  <path
     style="color:#000000;fill:#0000ff;fill-opacity:1;fill-rule:nonzero;stroke-width:1;stroke-linecap:butt;stroke-linejoin:miter;stroke-miterlimit:4;stroke-opacity:1;stroke-dasharray:12, 12;stroke-dashoffset:0;marker:none;visibility:visible;display:inline;overflow:visible;enable-background:accumulate"
     id="path4255-0-7"
     d="m 737.80434,30.349573 c -1.48037,0.0127 -3.00427,0.20417 -4.35088,0.8533 -1.36778,0.73138 -1.96772,1.97444 -2.31517,3.43797 -0.15777,1.22915 -0.56818,2.67761 0.32469,3.69184 1.06442,0.7617 2.28865,0.41865 3.39538,-0.0547 1.50175,-0.83676 2.23364,-2.13346 2.66729,-3.75949 0.49184,-2.17869 0.3327,-4.36949 -0.14412,-6.52899 -0.78009,-3.00866 -2.15614,-5.70611 -4.07356,-8.10759 -0.29422,-0.30024 -0.58846,-0.60047 -0.88269,-0.9007 0,0 0.54854,-0.55611 0.54854,-0.55611 l 0,0 c 0.31165,0.31996 0.6233,0.63992 0.93495,0.95988 1.98911,2.49984 3.423,5.30398 4.22819,8.4334 0.49399,2.28763 0.66676,4.60479 0.13482,6.90941 -0.50913,1.86097 -1.38924,3.34582 -3.11853,4.27907 -1.44303,0.59618 -2.98355,0.91423 -4.28959,-0.17543 -0.98437,-1.30382 -0.74833,-2.83786 -0.47692,-4.37867 0.41447,-1.69539 1.1546,-3.1275 2.74028,-3.9647 1.45791,-0.68087 3.07807,-0.92435 4.67732,-0.92686 0,0 0,0.78836 0,0.78836 z"
     inkscape:connector-curvature="0" />
  <path
     style="color:#000000;fill:#0000ff;fill-opacity:1;fill-rule:nonzero;stroke-width:1;stroke-linecap:butt;stroke-linejoin:miter;stroke-miterlimit:4;stroke-opacity:1;stroke-dasharray:12, 12;stroke-dashoffset:0;marker:none;visibility:visible;display:inline;overflow:visible;enable-background:accumulate"
     id="path4259-7-2"
     d="m 746.21708,29.218673 c -0.36575,1.90441 -0.53251,3.83757 -0.64665,5.77088 0.0662,0.88781 0.13943,2.08105 1.14102,1.16392 0.94494,-1.23396 1.66855,-2.62592 2.24685,-4.06426 0.54653,-1.57654 0.62219,-3.24389 1.01834,-4.85671 0.0413,-0.67737 0.91957,-1.69487 1.30554,-0.50638 0.0682,0.21 -0.10156,1.02969 -0.13569,1.22503 -0.32992,1.92365 -0.42393,3.87431 -0.49776,5.82113 -0.0179,1.82366 -0.2091,3.48653 1.36337,4.67965 0.83805,0.45278 1.69925,0.53194 2.62858,0.57376 0,0 -0.0456,0.85071 -0.0456,0.85071 l 0,0 c -1.11442,-0.068 -2.12822,-0.17338 -3.11457,-0.75876 -1.79949,-1.49204 -1.73554,-3.1742 -1.68307,-5.37768 0.0755,-1.98563 0.17285,-3.97505 0.51011,-5.93689 0.0491,-0.27483 -0.0616,-0.65437 0.16185,-0.82173 0.0661,-0.0495 0.16643,0.0633 0.24497,0.0377 0.55559,-0.1813 0.26285,-0.33948 0.0896,0.4169 -0.40647,1.65101 -0.4727,3.3631 -1.05564,4.97219 -0.63629,1.5702 -1.41893,3.11218 -2.51235,4.41668 -1.71093,1.22293 -2.49743,-0.21541 -2.51596,-1.88554 0.11678,-1.97251 0.28779,-3.94479 0.66171,-5.88768 0,0 0.83539,0.16708 0.83539,0.16708 z"
     inkscape:connector-curvature="0" />
  <path
     style="color:#000000;fill:#0000ff;fill-opacity:1;fill-rule:nonzero;stroke-width:1;stroke-linecap:butt;stroke-linejoin:miter;stroke-miterlimit:4;stroke-opacity:1;stroke-dasharray:12, 12;stroke-dashoffset:0;marker:none;visibility:visible;display:inline;overflow:visible;enable-background:accumulate"
     id="path4261-6-3"
     d="m 725.88082,45.996663 c 3.01456,-0.49847 6.0392,-0.90387 9.0837,-1.17397 4.59516,-0.3384 9.2047,-0.39055 13.81013,-0.43061 3.52176,-0.0219 7.04361,-0.0165 10.56541,-0.0121 1.1062,0.002 2.2124,0.003 3.3186,0.004 0,0 -9.3e-4,0.85193 -9.3e-4,0.85193 l 0,0 c -1.10625,-10e-4 -2.21249,-0.002 -3.31874,-0.004 -3.51898,-0.004 -7.038,-0.01 -10.55693,0.0121 -4.58281,0.0398 -9.16969,0.0914 -13.74232,0.42732 -3.01375,0.26686 -6.00762,0.66849 -8.99184,1.16075 0,0 -0.16708,-0.83539 -0.16708,-0.83539 z"
     inkscape:connector-curvature="0" />
  <path
     style="color:#000000;fill:#0000ff;fill-opacity:1;fill-rule:nonzero;stroke-width:1;stroke-linecap:butt;stroke-linejoin:miter;stroke-miterlimit:4;stroke-opacity:1;stroke-dasharray:12, 12;stroke-dashoffset:0;marker:none;visibility:visible;display:inline;overflow:visible;enable-background:accumulate"
     id="path4255-7-5-9"
     d="m 737.90718,60.313403 c -1.48037,0.0127 -3.00427,0.20417 -4.35088,0.8533 -1.36778,0.73138 -1.96772,1.97445 -2.31517,3.43797 -0.15777,1.22915 -0.56818,2.67762 0.32469,3.69185 1.06442,0.7617 2.28865,0.41865 3.39538,-0.0547 1.50175,-0.83676 2.23364,-2.13347 2.66729,-3.7595 0.49184,-2.17869 0.3327,-4.36948 -0.14412,-6.52899 -0.78009,-3.00866 -2.15614,-5.70611 -4.07356,-8.10759 -0.29422,-0.30023 -0.58846,-0.60047 -0.88269,-0.9007 0,0 0.54854,-0.55611 0.54854,-0.55611 l 0,0 c 0.31165,0.31996 0.6233,0.63992 0.93495,0.95989 1.98911,2.49983 3.423,5.30397 4.22819,8.43339 0.49399,2.28763 0.66676,4.6048 0.13482,6.90941 -0.50913,1.86097 -1.38924,3.34583 -3.11853,4.27908 -1.44303,0.59618 -2.98355,0.91423 -4.28959,-0.17543 -0.98437,-1.30382 -0.74833,-2.83787 -0.47692,-4.37868 0.41447,-1.69539 1.1546,-3.1275 2.74028,-3.9647 1.45791,-0.68087 3.07807,-0.92435 4.67732,-0.92686 0,0 0,0.78836 0,0.78836 z"
     inkscape:connector-curvature="0" />
  <path
     style="color:#000000;fill:#0000ff;fill-opacity:1;fill-rule:nonzero;stroke:#0000ff;stroke-width:0.2;stroke-linecap:butt;stroke-linejoin:miter;stroke-miterlimit:4;stroke-opacity:1;stroke-dasharray:none;stroke-dashoffset:0;marker:none;visibility:visible;display:inline;overflow:visible;enable-background:accumulate"
     id="path4900"
     d="m 746.95572,56.804583 c -0.34758,2.130975 -0.52893,4.282973 -0.64905,6.437172 -0.0492,1.474528 -0.30062,3.162542 0.67353,4.397858 1.07267,0.804166 2.49008,0.793455 3.7743,0.849982 0.95922,0.05643 1.90273,0.02123 2.85598,-0.08047 0,0 0.0882,0.847362 0.0882,0.847362 l 0,0 c -0.99557,0.101178 -1.98065,0.145928 -2.98199,0.08421 -1.54959,-0.06955 -3.20694,-0.100069 -4.42183,-1.195051 -1.03542,-1.468206 -0.95932,-3.218639 -0.83877,-4.951369 0.12211,-2.185196 0.30642,-4.368145 0.65931,-6.529745 0,0 0.84035,0.140057 0.84035,0.140057 z"
     inkscape:connector-curvature="0" />
  <path
     style="color:#000000;fill:#0000ff;fill-opacity:1;fill-rule:nonzero;stroke:#0000ff;stroke-width:0.2;stroke-linecap:butt;stroke-linejoin:miter;stroke-miterlimit:4;stroke-opacity:1;stroke-dasharray:none;stroke-dashoffset:0;marker:none;visibility:visible;display:inline;overflow:visible;enable-background:accumulate"
     id="path4902"
     d="m 741.84115,61.104893 c 2.16115,0 4.3223,0 6.48345,0 1.84409,0 3.68818,0 5.53227,0 0,0 0,0.851936 0,0.851936 l 0,0 c -1.84409,0 -3.68818,0 -5.53227,0 -2.16115,0 -4.3223,0 -6.48345,0 0,0 0,-0.851936 0,-0.851936 z"
     inkscape:connector-curvature="0" />
  <path
     style="color:#000000;fill:#0000ff;fill-opacity:1;fill-rule:nonzero;stroke:#0000ff;stroke-width:0.15000001;stroke-linecap:butt;stroke-linejoin:miter;stroke-miterlimit:4;stroke-opacity:1;stroke-dasharray:none;stroke-dashoffset:0;marker:none;visibility:visible;display:inline;overflow:visible;enable-background:accumulate"
     id="path4922"
     d="m 550.02447,85.90933 c -1.83713,-0.706745 -3.77494,-1.051351 -5.7211,-1.280843 -0.59867,-0.0015 -2.94543,-0.02067 -2.67025,1.100939 0.99494,1.230637 2.66292,1.768764 4.01957,2.533229 2.02484,1.220393 4.00032,2.573755 5.20711,4.649418 0.62465,2.045034 -1.03214,2.96724 -2.6927,3.591108 -2.32261,0.629443 -4.72157,0.719731 -7.10129,0.472489 -1.91681,-0.308138 -3.07564,-1.476362 -3.32309,-3.37867 0.19143,-1.029635 0.0618,-0.529868 0.38417,-1.500554 0,0 0.80753,0.271441 0.80753,0.271441 l 0,0 c -0.27,0.792457 -0.15833,0.41284 -0.34488,1.135903 0.12358,1.51071 1.08472,2.376686 2.56484,2.62456 2.24993,0.236648 4.51615,0.154155 6.71655,-0.423966 1.11858,-0.408492 2.57078,-0.923945 2.24918,-2.369636 -1.09479,-1.956472 -3.02196,-3.17377 -4.88581,-4.329974 -1.57901,-0.890684 -3.793,-1.489805 -4.4512,-3.332457 0.32348,-1.908457 2.02028,-1.858475 3.62032,-1.889872 2.02015,0.239514 4.03118,0.600099 5.93745,1.335883 0,0 -0.3164,0.791002 -0.3164,0.791002 z"
     inkscape:connector-curvature="0" />
  <path
     style="color:#000000;fill:#0000ff;fill-opacity:1;fill-rule:nonzero;stroke:#0000ff;stroke-width:0.15000001;stroke-linecap:butt;stroke-linejoin:miter;stroke-miterlimit:4;stroke-opacity:1;stroke-dasharray:none;stroke-dashoffset:0;marker:none;visibility:visible;display:inline;overflow:visible;enable-background:accumulate"
     id="path4924"
     d="m 553.56628,81.287492 c -0.35031,2.5153 -0.68583,5.037226 -0.3084,7.562404 0.66863,2.133021 2.08969,3.587223 4.10989,4.444747 1.04661,0.296257 1.94041,-0.05913 1.39488,-1.167057 0,0 0.79114,-0.31606 0.79114,-0.31606 l 0,0 c 0.70697,2.022415 -0.67218,2.756231 -2.52308,2.265538 -2.28774,-0.998263 -3.89728,-2.66217 -4.61577,-5.103697 -0.37593,-2.615385 -0.0654,-5.22198 0.31099,-7.825932 0,0 0.84035,0.140057 0.84035,0.140057 z"
     inkscape:connector-curvature="0" />
  <path
     style="color:#000000;fill:#0000ff;fill-opacity:1;fill-rule:nonzero;stroke:#0000ff;stroke-width:0.15000001;stroke-linecap:butt;stroke-linejoin:miter;stroke-miterlimit:4;stroke-opacity:1;stroke-dasharray:none;stroke-dashoffset:0;marker:none;visibility:visible;display:inline;overflow:visible;enable-background:accumulate"
     id="path4926"
     d="m 547.14587,86.995545 c 2.85388,-0.0409 5.7128,0.100633 8.56117,-0.100866 1.74293,-0.18231 0.88907,-0.08789 2.56171,-0.282093 0,0 0.0982,0.846253 0.0982,0.846253 l 0,0 c -1.69204,0.196376 -0.82528,0.100671 -2.60045,0.285696 -2.8686,0.198819 -5.74666,0.06607 -8.62067,0.102946 0,0 0,-0.851936 0,-0.851936 z"
     inkscape:connector-curvature="0" />
  <path
     style="color:#000000;fill:#0000ff;fill-opacity:1;fill-rule:nonzero;stroke:#0000ff;stroke-width:0.15000001;stroke-linecap:butt;stroke-linejoin:miter;stroke-miterlimit:4;stroke-opacity:1;stroke-dasharray:none;stroke-dashoffset:0;marker:none;visibility:visible;display:inline;overflow:visible;enable-background:accumulate"
     id="path4928"
     d="m 560.54023,89.3694 c 2.5136,-0.746164 4.97122,-1.699748 7.12028,-3.217801 0.74087,-0.767563 2.09895,-1.695213 0.55744,-2.275927 -1.66189,-0.467737 -3.11639,0.522557 -4.399,1.459841 -1.56191,1.390804 -2.2714,2.657624 -1.75275,4.734159 1.20753,2.147674 3.50679,2.830696 5.76053,3.3257 2.48518,0.455312 4.97496,0.248777 7.25007,-0.853506 0,0 0.36813,0.768296 0.36813,0.768296 l 0,0 c -2.4584,1.166208 -5.1226,1.419852 -7.80204,0.917074 -2.58339,-0.57425 -5.14492,-1.428404 -6.40624,-3.963553 -0.54285,-2.455434 0.21827,-3.989256 2.08105,-5.617047 1.54676,-1.120986 3.27725,-2.174847 5.24917,-1.548172 2.1799,1.075378 0.92988,2.545255 -0.4165,3.750151 -2.22399,1.555685 -4.74275,2.56589 -7.34073,3.329002 0,0 -0.26941,-0.808217 -0.26941,-0.808217 z"
     inkscape:connector-curvature="0" />
  <path
     style="color:#000000;fill:#0000ff;fill-opacity:1;fill-rule:nonzero;stroke:#0000ff;stroke-width:0.15000001;stroke-linecap:butt;stroke-linejoin:miter;stroke-miterlimit:4;stroke-opacity:1;stroke-dasharray:none;stroke-dashoffset:0;marker:none;visibility:visible;display:inline;overflow:visible;enable-background:accumulate"
     id="path4930"
     d="m 578.27492,82.326047 c -0.69927,3.408815 -1.09178,6.862346 -1.3496,10.328976 -0.20648,3.25292 -0.24106,6.513132 -0.25828,9.771487 0.0325,0.32701 0.0649,0.654 0.0974,0.981 0,0 -0.84795,0.0823 -0.84795,0.0823 l 0,0 c -0.0338,-0.35593 -0.0676,-0.71186 -0.10141,-1.06779 0.0173,-3.277958 0.0524,-6.557775 0.26062,-9.83023 0.25931,-3.48061 0.65033,-6.948996 1.35384,-10.371406 0,0 0.84535,0.10567 0.84535,0.10567 z"
     inkscape:connector-curvature="0" />
  <path
     style="color:#000000;fill:#0000ff;fill-opacity:1;fill-rule:nonzero;stroke:#0000ff;stroke-width:0.15000001;stroke-linecap:butt;stroke-linejoin:miter;stroke-miterlimit:4;stroke-opacity:1;stroke-dasharray:none;stroke-dashoffset:0;marker:none;visibility:visible;display:inline;overflow:visible;enable-background:accumulate"
     id="path4932"
     d="m 573.08597,85.829327 c 2.6918,-1.876711 5.23155,-2.218937 8.39441,-1.585389 1.78647,0.743324 4.07549,2.243098 3.69609,4.527683 -0.066,0.397663 -0.28939,0.752491 -0.43408,1.128737 -1.78243,2.514578 -4.78974,3.175189 -7.66268,3.622448 -1.85756,0.222524 -3.96068,0.427233 -5.52501,-0.772452 0,0 0.54694,-0.65318 0.54694,-0.65318 l 0,0 c 1.18529,1.157653 3.39018,0.672674 4.84777,0.583719 2.57005,-0.395274 5.3232,-0.938502 7.00678,-3.108698 0.12279,-0.264575 0.29941,-0.510314 0.36837,-0.793726 0.44616,-1.83365 -1.64894,-3.090041 -3.01447,-3.699788 -2.90455,-0.6043 -5.20586,-0.297464 -7.69192,1.415897 0,0 -0.5322,-0.665251 -0.5322,-0.665251 z"
     inkscape:connector-curvature="0" />
  <path
     style="color:#000000;fill:#000000;fill-opacity:1;fill-rule:nonzero;stroke:#000000;stroke-width:0.15000001;stroke-linecap:butt;stroke-linejoin:miter;stroke-miterlimit:4;stroke-opacity:1;stroke-dasharray:none;stroke-dashoffset:0;marker:none;visibility:visible;display:inline;overflow:visible;enable-background:accumulate"
     id="path4922-6"
     d="m 560.10473,215.33496 c -1.83713,-0.70675 -3.77494,-1.05135 -5.7211,-1.28084 -0.59867,-0.001 -2.94543,-0.0207 -2.67025,1.10093 0.99494,1.23064 2.66292,1.76877 4.01957,2.53323 2.02484,1.2204 4.00032,2.57376 5.20711,4.64942 0.62465,2.04504 -1.03214,2.96724 -2.6927,3.59111 -2.32261,0.62944 -4.72157,0.71973 -7.10129,0.47249 -1.91681,-0.30814 -3.07564,-1.47636 -3.32309,-3.37867 0.19143,-1.02964 0.0618,-0.52987 0.38417,-1.50056 0,0 0.80753,0.27145 0.80753,0.27145 l 0,0 c -0.27,0.79245 -0.15833,0.41284 -0.34488,1.1359 0.12358,1.51071 1.08472,2.37668 2.56484,2.62456 2.24993,0.23665 4.51615,0.15415 6.71655,-0.42397 1.11858,-0.40849 2.57078,-0.92394 2.24918,-2.36963 -1.09479,-1.95648 -3.02196,-3.17377 -4.88581,-4.32998 -1.57901,-0.89068 -3.793,-1.4898 -4.4512,-3.33245 0.32348,-1.90846 2.02028,-1.85848 3.62032,-1.88988 2.02015,0.23952 4.03118,0.6001 5.93745,1.33589 0,0 -0.3164,0.791 -0.3164,0.791 z"
     inkscape:connector-curvature="0" />
  <path
     style="color:#000000;fill:#000000;fill-opacity:1;fill-rule:nonzero;stroke:#000000;stroke-width:0.15000001;stroke-linecap:butt;stroke-linejoin:miter;stroke-miterlimit:4;stroke-opacity:1;stroke-dasharray:none;stroke-dashoffset:0;marker:none;visibility:visible;display:inline;overflow:visible;enable-background:accumulate"
     id="path4924-2"
     d="m 563.64654,210.71312 c -0.35031,2.5153 -0.68583,5.03723 -0.3084,7.5624 0.66863,2.13303 2.08969,3.58723 4.10989,4.44475 1.04661,0.29626 1.94041,-0.0591 1.39488,-1.16706 0,0 0.79114,-0.31606 0.79114,-0.31606 l 0,0 c 0.70697,2.02242 -0.67218,2.75624 -2.52308,2.26554 -2.28774,-0.99826 -3.89728,-2.66217 -4.61577,-5.10369 -0.37593,-2.61539 -0.0654,-5.22198 0.31099,-7.82594 0,0 0.84035,0.14006 0.84035,0.14006 z"
     inkscape:connector-curvature="0" />
  <path
     style="color:#000000;fill:#000000;fill-opacity:1;fill-rule:nonzero;stroke:#000000;stroke-width:0.15000001;stroke-linecap:butt;stroke-linejoin:miter;stroke-miterlimit:4;stroke-opacity:1;stroke-dasharray:none;stroke-dashoffset:0;marker:none;visibility:visible;display:inline;overflow:visible;enable-background:accumulate"
     id="path4926-4"
     d="m 557.22613,216.42117 c 2.85388,-0.0409 5.7128,0.10064 8.56117,-0.10086 1.74293,-0.18231 0.88907,-0.0879 2.56171,-0.2821 0,0 0.0982,0.84626 0.0982,0.84626 l 0,0 c -1.69204,0.19637 -0.82528,0.10067 -2.60045,0.28569 -2.8686,0.19882 -5.74666,0.0661 -8.62067,0.10295 0,0 0,-0.85194 0,-0.85194 z"
     inkscape:connector-curvature="0" />
  <path
     style="color:#000000;fill:#000000;fill-opacity:1;fill-rule:nonzero;stroke:#000000;stroke-width:0.15000001;stroke-linecap:butt;stroke-linejoin:miter;stroke-miterlimit:4;stroke-opacity:1;stroke-dasharray:none;stroke-dashoffset:0;marker:none;visibility:visible;display:inline;overflow:visible;enable-background:accumulate"
     id="path4928-5"
     d="m 570.62049,218.79503 c 2.5136,-0.74617 4.97122,-1.69975 7.12028,-3.2178 0.74087,-0.76757 2.09895,-1.69522 0.55744,-2.27593 -1.66189,-0.46774 -3.11639,0.52256 -4.399,1.45984 -1.56191,1.39081 -2.2714,2.65763 -1.75275,4.73416 1.20753,2.14767 3.50679,2.8307 5.76053,3.3257 2.48518,0.45531 4.97496,0.24878 7.25007,-0.85351 0,0 0.36813,0.7683 0.36813,0.7683 l 0,0 c -2.4584,1.16621 -5.1226,1.41985 -7.80204,0.91707 -2.58339,-0.57425 -5.14492,-1.4284 -6.40624,-3.96355 -0.54285,-2.45543 0.21827,-3.98925 2.08105,-5.61705 1.54676,-1.12098 3.27725,-2.17484 5.24917,-1.54817 2.1799,1.07538 0.92988,2.54526 -0.4165,3.75015 -2.22399,1.55569 -4.74275,2.56589 -7.34073,3.32901 0,0 -0.26941,-0.80822 -0.26941,-0.80822 z"
     inkscape:connector-curvature="0" />
  <path
     style="color:#000000;fill:#000000;fill-opacity:1;fill-rule:nonzero;stroke:#000000;stroke-width:0.15000001;stroke-linecap:butt;stroke-linejoin:miter;stroke-miterlimit:4;stroke-opacity:1;stroke-dasharray:none;stroke-dashoffset:0;marker:none;visibility:visible;display:inline;overflow:visible;enable-background:accumulate"
     id="path4930-2"
     d="m 588.35518,211.75168 c -0.69927,3.40881 -1.09178,6.86234 -1.3496,10.32897 -0.20648,3.25292 -0.24106,6.51313 -0.25828,9.77149 0.0325,0.32701 0.0649,0.654 0.0974,0.981 0,0 -0.84795,0.0823 -0.84795,0.0823 l 0,0 c -0.0338,-0.35593 -0.0676,-0.71186 -0.10141,-1.0678 0.0173,-3.27795 0.0524,-6.55777 0.26062,-9.83022 0.25931,-3.48061 0.65033,-6.949 1.35384,-10.37141 0,0 0.84535,0.10567 0.84535,0.10567 z"
     inkscape:connector-curvature="0" />
  <path
     style="color:#000000;fill:#000000;fill-opacity:1;fill-rule:nonzero;stroke:#000000;stroke-width:0.15000001;stroke-linecap:butt;stroke-linejoin:miter;stroke-miterlimit:4;stroke-opacity:1;stroke-dasharray:none;stroke-dashoffset:0;marker:none;visibility:visible;display:inline;overflow:visible;enable-background:accumulate"
     id="path4932-0"
     d="m 583.16623,215.25496 c 2.6918,-1.87672 5.23155,-2.21894 8.39441,-1.58539 1.78647,0.74332 4.07549,2.24309 3.69609,4.52768 -0.066,0.39766 -0.28939,0.75249 -0.43408,1.12874 -1.78243,2.51457 -4.78974,3.17519 -7.66268,3.62244 -1.85756,0.22253 -3.96068,0.42724 -5.52501,-0.77245 0,0 0.54694,-0.65318 0.54694,-0.65318 l 0,0 c 1.18529,1.15766 3.39018,0.67268 4.84777,0.58372 2.57005,-0.39527 5.3232,-0.9385 7.00678,-3.1087 0.12279,-0.26457 0.29941,-0.51031 0.36837,-0.79372 0.44616,-1.83365 -1.64894,-3.09004 -3.01447,-3.69979 -2.90455,-0.6043 -5.20586,-0.29746 -7.69192,1.4159 0,0 -0.5322,-0.66525 -0.5322,-0.66525 z"
     inkscape:connector-curvature="0" />
  <path
     style="color:#000000;fill:#000000;fill-opacity:1;fill-rule:nonzero;stroke:#000000;stroke-width:0.15000001;stroke-linecap:butt;stroke-linejoin:miter;stroke-miterlimit:4;stroke-opacity:1;stroke-dasharray:none;stroke-dashoffset:0;marker:none;visibility:visible;display:inline;overflow:visible;enable-background:accumulate"
     id="path4934-1"
     d="m 605.73337,209.36392 c 0.22156,-0.40285 0.85237,-3.70851 1.57613,-3.30158 0.29477,0.16573 0.3623,0.57111 0.54344,0.85666 0.25923,3.15237 0.20603,6.3248 0.21328,9.48596 0.0387,2.50944 0.0459,5.0029 -0.25164,7.49615 0,0 -0.8459,-0.10121 -0.8459,-0.10121 l 0,0 c 0.29493,-2.45883 0.28161,-4.91805 0.2456,-7.39298 -0.007,-3.1001 0.0363,-6.2089 -0.19275,-9.30204 0.10309,-0.0636 0.21582,-0.11377 0.30925,-0.19087 0.0832,-0.0687 0.19599,-0.34806 0.21513,-0.24187 0.0299,0.16581 -0.99038,2.6333 -1.02153,3.00818 0,0 -0.79101,-0.3164 -0.79101,-0.3164 z"
     inkscape:connector-curvature="0" />
  <path
     style="color:#000000;fill:#0000ff;fill-opacity:1;fill-rule:nonzero;stroke:#000000;stroke-width:0.12497716;stroke-linecap:butt;stroke-linejoin:miter;stroke-miterlimit:4;stroke-opacity:1;stroke-dasharray:none;stroke-dashoffset:0;marker:none;visibility:visible;display:inline;overflow:visible;enable-background:accumulate"
     id="path4974"
     d="m 593.23596,80.927073 c 1.25665,-1.292427 2.67156,-2.339047 4.08706,-3.400389 1.1634,-0.873065 2.33803,-1.511655 3.68182,-0.799215 1.02863,0.950521 1.21207,2.342507 1.07972,3.730875 -0.31107,1.519358 -1.06836,2.836903 -1.79744,4.150119 -0.83663,1.324242 -1.8181,2.499727 -2.82694,3.66236 -0.95998,1.075036 -1.96697,2.094265 -2.82071,3.277531 -0.34616,0.62661 -1.04628,1.086135 -1.32651,1.759493 -0.0122,0.02927 0.074,-0.02802 0.0692,-0.05977 -0.0177,-0.116932 -0.0851,-0.217936 -0.12772,-0.326904 1.03392,-0.24232 2.01975,-0.657431 3.05027,-0.925536 1.36758,-0.318587 2.76759,-0.375525 4.16043,-0.413644 0.71951,0.02452 1.39682,0.19051 2.07787,0.426488 0,0 -0.20844,0.706928 -0.20844,0.706928 l 0,0 c -0.60536,-0.219382 -1.21181,-0.357705 -1.85254,-0.390762 -1.34592,0.03664 -2.69898,0.0891 -4.02102,0.393877 -1.09945,0.284354 -2.14606,0.771259 -3.26652,0.942624 -0.16298,-0.120672 -0.38446,-0.179439 -0.48894,-0.362015 -0.32312,-0.564661 1.26368,-1.811016 1.40249,-2.212343 0.86971,-1.197758 1.88291,-2.240508 2.86065,-3.327886 0.97611,-1.123903 1.92609,-2.25886 2.73904,-3.536616 0.67835,-1.220297 1.3861,-2.441208 1.70256,-3.844023 0.11101,-1.075516 0.0213,-2.187318 -0.71907,-2.992116 -1.04671,-0.667774 -2.07641,0.115746 -2.98527,0.75367 -1.38159,1.034594 -2.76248,2.053687 -3.99041,3.312545 0,0 -0.47958,-0.525298 -0.47958,-0.525298 z"
     inkscape:connector-curvature="0" />
  <rect
     style="color:#000000;fill:none;stroke:#0000ff;stroke-width:1.20000005;stroke-linecap:butt;stroke-linejoin:miter;stroke-miterlimit:4;stroke-opacity:1;stroke-dasharray:none;stroke-dashoffset:0;marker:none;visibility:visible;display:inline;overflow:visible;enable-background:accumulate"
     id="rect7770-6"
     width="44.41861"
     height="42.714741"
     x="274.97141"
     y="208.71492" />
  <path
     style="color:#000000;fill:none;stroke:#ff0000;stroke-width:0.43670815;stroke-linecap:butt;stroke-linejoin:miter;stroke-miterlimit:4;stroke-opacity:1;stroke-dasharray:none;stroke-dashoffset:0;marker:none;visibility:visible;display:inline;overflow:visible;enable-background:accumulate"
     id="path10080-1-3-5-83"
     d="m 272.73243,147.45149 c 1.94367,-0.47412 3.85151,-1.07003 5.76669,-1.67526 1.8629,-0.40801 3.67201,-0.96564 5.39674,-1.84551 1.20572,-0.58885 2.47475,-0.93164 3.73,-1.35167 2.14859,-0.61533 2.67594,-0.16412 1.65901,1.89206 -0.97053,1.73761 -2.38734,3.19168 -3.67486,4.7197 -0.70995,1.26604 -1.72758,2.32838 -2.58941,3.4919 -0.75625,1.14419 -1.75306,2.09364 -2.79494,2.99344 -0.57781,0.63288 -1.13317,1.2817 -1.72444,1.90329 0,0 -0.53244,-0.47256 -0.53244,-0.47256 l 0,0 c 0.61096,-0.64131 1.17814,-1.31642 1.78508,-1.96103 0.99585,-0.85878 1.94892,-1.76332 2.66885,-2.85811 0.87939,-1.17313 1.89171,-2.25641 2.62058,-3.53121 1.24538,-1.47803 2.61724,-2.88331 3.56768,-4.55725 0.64301,-1.26467 1.21105,-1.42647 -0.80003,-0.92651 -1.21685,0.40497 -2.44484,0.73607 -3.61445,1.30326 -1.76716,0.89749 -3.61621,1.48492 -5.525,1.89803 -1.93938,0.61256 -3.87187,1.21469 -5.84,1.69479 0,0 -0.0991,-0.71735 -0.0991,-0.71735 z"
     inkscape:connector-curvature="0" />
  <path
     style="fill:none;stroke:#ff0000;stroke-width:1.5;stroke-linecap:butt;stroke-linejoin:miter;stroke-miterlimit:4;stroke-opacity:1;stroke-dasharray:9, 9;stroke-dashoffset:0"
     d="M 473.94281,234.14788 299.61494,140.04813"
     id="path3488-9-1-8-7"
     inkscape:connector-curvature="0" />
  <path
     style="color:#000000;fill:none;stroke:#ff0000;stroke-width:0.43670815;stroke-linecap:butt;stroke-linejoin:miter;stroke-miterlimit:4;stroke-opacity:1;stroke-dasharray:none;stroke-dashoffset:0;marker:none;visibility:visible;display:inline;overflow:visible;enable-background:accumulate"
     id="path10080-1-3-5-8-1"
     d="m 320.87976,45.86886 c -1.98803,-0.22456 -3.9559,-0.57444 -5.93223,-0.93265 -1.89954,-0.16917 -3.76464,-0.49357 -5.58679,-1.1483 -1.27049,-0.43167 -2.57268,-0.61124 -3.87098,-0.86918 -2.20914,-0.33871 -2.6752,0.17555 -1.40644,2.08664 1.18246,1.60095 2.77175,2.8642 4.24215,4.21715 0.86433,1.16611 2.00813,2.09125 3.01016,3.13647 0.89485,1.03937 2.00371,1.85515 3.15102,2.616 0.65318,0.55473 1.28613,1.12811 1.95126,1.66997 0,0 0.46841,-0.5361 0.46841,-0.5361 l 0,0 c -0.68715,-0.55891 -1.33515,-1.15688 -2.01873,-1.71958 -1.09644,-0.72597 -2.15623,-1.50273 -3.00882,-2.4977 -1.02066,-1.05252 -2.16184,-1.9991 -3.04604,-3.17151 -1.42229,-1.3087 -2.96081,-2.52922 -4.11529,-4.06956 -0.79776,-1.1732 -1.38171,-1.26188 0.67645,-1.02023 1.25829,0.24785 2.51829,0.42102 3.75023,0.83578 1.86646,0.66682 3.77495,1.01574 5.72065,1.18418 2.00127,0.36242 3.99439,0.71536 6.00742,0.94274 0,0 0.008,-0.72411 0.008,-0.72411 z"
     inkscape:connector-curvature="0"
     inkscape:transform-center-x="-29.817755" />
  <path
     style="fill:none;stroke:#ff0000;stroke-width:1.5;stroke-linecap:butt;stroke-linejoin:miter;stroke-miterlimit:4;stroke-opacity:1;stroke-dasharray:9, 9;stroke-dashoffset:0"
     d="M 119.72664,136.40374 294.05451,42.30399"
     id="path3488-9-1-8-1"
     inkscape:connector-curvature="0" />
  <path
     style="color:#000000;fill:none;stroke:#ff0000;stroke-width:0.43670815;stroke-linecap:butt;stroke-linejoin:miter;stroke-miterlimit:4;stroke-opacity:1;stroke-dasharray:none;stroke-dashoffset:0;marker:none;visibility:visible;display:inline;overflow:visible;enable-background:accumulate"
     id="path10080-1-3-5-83-6"
     d="m 271.7735,48.79395 c 1.94367,-0.47412 3.85151,-1.07003 5.76669,-1.67526 1.8629,-0.40801 3.67201,-0.96564 5.39674,-1.84551 1.20572,-0.58885 2.47475,-0.93164 3.73,-1.35167 2.14859,-0.61533 2.67594,-0.16412 1.65901,1.89206 -0.97053,1.73761 -2.38734,3.19168 -3.67486,4.7197 -0.70995,1.26604 -1.72758,2.32838 -2.58941,3.4919 -0.75625,1.14419 -1.75306,2.09364 -2.79494,2.99344 -0.57781,0.63288 -1.13317,1.2817 -1.72444,1.90329 0,0 -0.53244,-0.47256 -0.53244,-0.47256 l 0,0 c 0.61096,-0.64131 1.17814,-1.31642 1.78508,-1.96103 0.99585,-0.85878 1.94892,-1.76332 2.66885,-2.85811 0.87939,-1.17313 1.89171,-2.25641 2.62058,-3.53121 1.24538,-1.47803 2.61724,-2.88331 3.56768,-4.55725 0.64301,-1.26467 1.21105,-1.42647 -0.80003,-0.92651 -1.21685,0.40497 -2.44484,0.73607 -3.61445,1.30326 -1.76716,0.89749 -3.61621,1.48492 -5.525,1.89803 -1.93938,0.61256 -3.87187,1.21469 -5.84,1.69479 0,0 -0.0991,-0.71735 -0.0991,-0.71735 z"
     inkscape:connector-curvature="0" />
  <path
     style="fill:none;stroke:#ff0000;stroke-width:1.5;stroke-linecap:butt;stroke-linejoin:miter;stroke-miterlimit:4;stroke-opacity:1;stroke-dasharray:9, 9;stroke-dashoffset:0"
     d="M 472.98388,135.49034 298.65601,41.39059"
     id="path3488-9-1-8-7-3"
     inkscape:connector-curvature="0" />
  <rect
     style="color:#000000;fill:none;stroke:#0000ff;stroke-width:1.20000005;stroke-linecap:butt;stroke-linejoin:miter;stroke-miterlimit:4;stroke-opacity:1;stroke-dasharray:none;stroke-dashoffset:0;marker:none;visibility:visible;display:inline;overflow:visible;enable-background:accumulate"
     id="rect7770-6-9"
     width="44.41861"
     height="42.714741"
     x="272.85663"
     y="23.20767" />
  <path
     sodipodi:type="arc"
     style="color:#000000;fill:none;stroke:#0000ff;stroke-width:1;stroke-linecap:butt;stroke-linejoin:miter;stroke-miterlimit:4;stroke-opacity:1;stroke-dasharray:none;stroke-dashoffset:0;marker:none;visibility:visible;display:inline;overflow:visible;enable-background:accumulate"
     id="path10042-1-4-6"
     sodipodi:cx="325.43948"
     sodipodi:cy="34.196014"
     sodipodi:rx="26.410011"
     sodipodi:ry="27.261948"
     d="m 351.84949,34.196014 a 26.410011,27.261948 0 1 1 -52.82002,0 26.410011,27.261948 0 1 1 52.82002,0 z"
     transform="matrix(0.90793846,0,0,0.90793846,-173.09639,103.23011)" />
  <path
     sodipodi:type="arc"
     style="color:#000000;fill:none;stroke:#0000ff;stroke-width:1;stroke-linecap:butt;stroke-linejoin:miter;stroke-miterlimit:4;stroke-opacity:1;stroke-dasharray:none;stroke-dashoffset:0;marker:none;visibility:visible;display:inline;overflow:visible;enable-background:accumulate"
     id="path10042-1-4-0"
     sodipodi:cx="325.43948"
     sodipodi:cy="34.196014"
     sodipodi:rx="26.410011"
     sodipodi:ry="27.261948"
     d="m 351.84949,34.196014 a 26.410011,27.261948 0 1 1 -52.82002,0 26.410011,27.261948 0 1 1 52.82002,0 z"
     transform="matrix(0.90793846,0,0,0.90793846,355.39997,86.191394)" />
  <rect
     style="color:#000000;fill:none;stroke:#0000ff;stroke-width:1.20000005;stroke-linecap:butt;stroke-linejoin:miter;stroke-miterlimit:4;stroke-opacity:1;stroke-dasharray:none;stroke-dashoffset:0;marker:none;visibility:visible;display:inline;overflow:visible;enable-background:accumulate"
     id="rect7770-6-9-5"
     width="44.41861"
     height="42.714741"
     x="628.66974"
     y="24.875092" />
  <path
     style="fill:none;stroke:#ff0000;stroke-width:1.5;stroke-linecap:butt;stroke-linejoin:miter;stroke-miterlimit:4;stroke-opacity:1;stroke-dasharray:9, 9;stroke-dashoffset:0"
     d="M 296.74016,231.59208 122.41229,137.49233"
     id="path3488-9-1-8-6"
     inkscape:connector-curvature="0" />
  <path
     style="fill:none;stroke:#ff0000;stroke-width:1.5;stroke-linecap:butt;stroke-linejoin:miter;stroke-miterlimit:4;stroke-opacity:1;stroke-dasharray:9, 9;stroke-dashoffset:0"
     d="M 302.17075,228.18433 476.49862,134.08458"
     id="path3488-9-1-8-6-8"
     inkscape:connector-curvature="0" />
  <path
     style="color:#000000;fill:none;stroke:#ff0000;stroke-width:0.43670815;stroke-linecap:butt;stroke-linejoin:miter;stroke-miterlimit:4;stroke-opacity:1;stroke-dasharray:none;stroke-dashoffset:0;marker:none;visibility:visible;display:inline;overflow:visible;enable-background:accumulate"
     id="path10080-1-3-5-83-7"
     d="m 451.51939,142.00074 c 1.94367,-0.47412 3.85151,-1.07003 5.76669,-1.67526 1.8629,-0.40801 3.67201,-0.96564 5.39674,-1.84551 1.20572,-0.58885 2.47475,-0.93164 3.73,-1.35167 2.14859,-0.61533 2.67594,-0.16412 1.65901,1.89206 -0.97053,1.73761 -2.38734,3.19168 -3.67486,4.7197 -0.70995,1.26604 -1.72758,2.32838 -2.58941,3.4919 -0.75625,1.14419 -1.75306,2.09364 -2.79494,2.99344 -0.57781,0.63288 -1.13317,1.2817 -1.72444,1.90329 0,0 -0.53244,-0.47256 -0.53244,-0.47256 l 0,0 c 0.61096,-0.64131 1.17814,-1.31642 1.78508,-1.96103 0.99585,-0.85878 1.94892,-1.76332 2.66885,-2.85811 0.87939,-1.17313 1.89171,-2.25641 2.62058,-3.53121 1.24538,-1.47803 2.61724,-2.88331 3.56768,-4.55725 0.64301,-1.26467 1.21105,-1.42647 -0.80003,-0.92651 -1.21685,0.40497 -2.44484,0.73607 -3.61445,1.30326 -1.76716,0.89749 -3.61621,1.48492 -5.525,1.89803 -1.93938,0.61256 -3.87187,1.21469 -5.84,1.69479 0,0 -0.0991,-0.71735 -0.0991,-0.71735 z"
     inkscape:connector-curvature="0" />
  <path
     style="color:#000000;fill:none;stroke:#ff0000;stroke-width:0.43670815;stroke-linecap:butt;stroke-linejoin:miter;stroke-miterlimit:4;stroke-opacity:1;stroke-dasharray:none;stroke-dashoffset:0;marker:none;visibility:visible;display:inline;overflow:visible;enable-background:accumulate"
     id="path10080-1-3-5-83-0"
     d="m 139.72408,142.00075 c -1.94367,-0.47412 -3.85151,-1.07003 -5.76669,-1.67526 -1.8629,-0.40801 -3.67201,-0.96564 -5.39674,-1.84551 -1.20572,-0.58885 -2.47475,-0.93164 -3.73,-1.35167 -2.14859,-0.61533 -2.67594,-0.16412 -1.65901,1.89206 0.97053,1.73761 2.38734,3.19168 3.67486,4.7197 0.70995,1.26604 1.72758,2.32838 2.58941,3.4919 0.75625,1.14419 1.75306,2.09364 2.79494,2.99344 0.57781,0.63288 1.13317,1.2817 1.72444,1.90329 0,0 0.53244,-0.47256 0.53244,-0.47256 l 0,0 c -0.61096,-0.64131 -1.17814,-1.31642 -1.78508,-1.96103 -0.99585,-0.85878 -1.94892,-1.76332 -2.66885,-2.85811 -0.87939,-1.17313 -1.89171,-2.25641 -2.62058,-3.53121 -1.24538,-1.47803 -2.61724,-2.88331 -3.56768,-4.55725 -0.64301,-1.26467 -1.21105,-1.42647 0.80003,-0.92651 1.21685,0.40497 2.44484,0.73607 3.61445,1.30326 1.76716,0.89749 3.61621,1.48492 5.525,1.89803 1.93938,0.61256 3.87187,1.21469 5.84,1.69479 0,0 0.0991,-0.71735 0.0991,-0.71735 z"
     inkscape:connector-curvature="0" />
  <rect
     style="color:#000000;fill:none;stroke:#000000;stroke-width:1.10749292;stroke-linecap:butt;stroke-linejoin:miter;stroke-miterlimit:4;stroke-opacity:1;stroke-dasharray:none;stroke-dashoffset:0;marker:none;visibility:visible;display:inline;overflow:visible;enable-background:accumulate"
     id="rect7770-1-2-5"
     width="54.435501"
     height="54.948116"
     x="268.40399"
     y="110.76748" />
</svg>
