<?xml version="1.0" encoding="UTF-8" standalone="no"?>
<!-- Created with Inkscape (http://www.inkscape.org/) -->

<svg
   xmlns:osb="http://www.openswatchbook.org/uri/2009/osb"
   xmlns:dc="http://purl.org/dc/elements/1.1/"
   xmlns:cc="http://creativecommons.org/ns#"
   xmlns:rdf="http://www.w3.org/1999/02/22-rdf-syntax-ns#"
   xmlns:svg="http://www.w3.org/2000/svg"
   xmlns="http://www.w3.org/2000/svg"
   xmlns:sodipodi="http://sodipodi.sourceforge.net/DTD/sodipodi-0.dtd"
   xmlns:inkscape="http://www.inkscape.org/namespaces/inkscape"
   id="svg3036"
   version="1.1"
   inkscape:version="0.48.3.1 r9886"
   width="600"
   height="400"
   sodipodi:docname="segment.png">
  <metadata
     id="metadata3042">
    <rdf:RDF>
      <cc:Work
         rdf:about="">
        <dc:format>image/svg+xml</dc:format>
        <dc:type
           rdf:resource="http://purl.org/dc/dcmitype/StillImage" />
        <dc:title></dc:title>
      </cc:Work>
    </rdf:RDF>
  </metadata>
  <defs
     id="defs3040">
    <linearGradient
       id="linearGradient6310">
      <stop
         style="stop-color:#000000;stop-opacity:1;"
         offset="0"
         id="stop6312" />
      <stop
         style="stop-color:#000000;stop-opacity:0;"
         offset="1"
         id="stop6314" />
    </linearGradient>
    <linearGradient
       id="linearGradient6292"
       osb:paint="solid">
      <stop
         style="stop-color:#ffffff;stop-opacity:1;"
         offset="0"
         id="stop6294" />
    </linearGradient>
    <linearGradient
       id="linearGradient4823"
       osb:paint="solid">
      <stop
         style="stop-color:#000000;stop-opacity:1;"
         offset="0"
         id="stop4825" />
    </linearGradient>
  </defs>
  <sodipodi:namedview
     pagecolor="#ffffff"
     bordercolor="#666666"
     borderopacity="1"
     objecttolerance="10"
     gridtolerance="10"
     guidetolerance="10"
     inkscape:pageopacity="0"
     inkscape:pageshadow="2"
     inkscape:window-width="1008"
     inkscape:window-height="728"
     id="namedview3038"
     showgrid="false"
     inkscape:zoom="0.83"
     inkscape:cx="357.5364"
     inkscape:cy="244.65295"
     inkscape:window-x="0"
     inkscape:window-y="31"
     inkscape:window-maximized="1"
     inkscape:current-layer="svg3036"
     showguides="true"
     inkscape:guide-bbox="true">
    <inkscape:grid
       type="xygrid"
       id="grid5981"
       empspacing="5"
       visible="true"
       enabled="true"
       snapvisiblegridlinesonly="true" />
  </sodipodi:namedview>
  <path
     style="fill:none;stroke:#000000;stroke-width:0.79302788px;stroke-linecap:butt;stroke-linejoin:miter;stroke-opacity:1"
     d="m 12.831419,205.63855 403.097841,2.40964"
     id="path6335"
     inkscape:connector-curvature="0" />
  <path
     style="fill:none;stroke:#000000;stroke-width:0.78571099px;stroke-linecap:butt;stroke-linejoin:miter;stroke-opacity:1"
     d="M 267.06024,369.60452 269.46988,30.438456"
     id="path6337"
     inkscape:connector-curvature="0" />
  <path
     style="color:#000000;fill:#000000;fill-opacity:1;fill-rule:nonzero;stroke:none;stroke-width:1.27100003;marker:none;visibility:visible;display:inline;overflow:visible;enable-background:accumulate"
     id="path6381"
     d="m 271.35543,26.968416 c -1.22411,3.99788 -2.74268,7.89504 -4.12992,11.83812 -1.6633,4.5 -3.10305,9.077 -4.67887,13.60795 0,0 -1.13796,-0.39578 -1.13796,-0.39578 l 0,0 c 1.57632,-4.53228 3.01645,-9.11067 4.68029,-13.61202 1.3929,-3.95914 2.91551,-7.87253 4.14781,-11.88573 0,0 1.11865,0.44746 1.11865,0.44746 z"
     inkscape:connector-curvature="0" />
  <path
     style="color:#000000;fill:#000000;fill-opacity:1;fill-rule:nonzero;stroke:none;stroke-width:1.27100003;marker:none;visibility:visible;display:inline;overflow:visible;enable-background:accumulate"
     id="path6383"
     d="m 270.61435,26.626546 c 0.87905,4.02698 2.15752,7.9226 3.64137,11.76302 1.59543,4.57523 3.33449,9.0962 5.09936,13.60757 0.24509,0.56025 0.49019,1.12049 0.73528,1.68073 0,0 -1.10394,0.48262 -1.10394,0.48262 l 0,0 c -0.25112,-0.57481 -0.50224,-1.14963 -0.75336,-1.72442 -1.76542,-4.51301 -3.50566,-9.03542 -5.10125,-13.61242 -1.50761,-3.90494 -2.80588,-7.86648 -3.69888,-11.96082 0,0 1.18142,-0.23629 1.18142,-0.23629 z"
     inkscape:connector-curvature="0" />
  <path
     style="color:#000000;fill:#000000;fill-opacity:1;fill-rule:nonzero;stroke:none;stroke-width:1.27100003;marker:none;visibility:visible;display:inline;overflow:visible;enable-background:accumulate"
     id="path6385"
     d="m 392.40499,198.34858 c 2.7803,0.37552 5.48249,1.13298 8.23686,1.64953 2.56636,0.70158 5.16667,1.238 7.72985,1.94768 2.31729,0.66401 4.71569,0.87943 7.11204,1.00324 1.07138,-0.059 2.09768,0.14666 3.11742,0.4394 0,0 -0.33953,1.15598 -0.33953,1.15598 l 0,0 c -0.92851,-0.28037 -1.86066,-0.44939 -2.84027,-0.39218 -2.48391,-0.12921 -4.96934,-0.35724 -7.37116,-1.0453 -2.53049,-0.70066 -5.09799,-1.22812 -7.63066,-1.92468 -2.75898,-0.51853 -5.46592,-1.27505 -8.25083,-1.65224 0,0 0.23628,-1.18143 0.23628,-1.18143 z"
     inkscape:connector-curvature="0" />
  <path
     style="color:#000000;fill:#000000;fill-opacity:1;fill-rule:nonzero;stroke:none;stroke-width:1.27100003;marker:none;visibility:visible;display:inline;overflow:visible;enable-background:accumulate"
     id="path6387"
     d="m 388.71747,213.7195 c 3.11946,-0.70662 6.16513,-1.6864 9.2688,-2.44812 2.94122,-0.5847 5.84818,-1.32993 8.71863,-2.19421 2.45821,-0.95225 4.89002,-1.96795 7.32026,-2.98924 1.18634,-0.53416 2.43402,-0.88118 3.68802,-1.20906 0,0 0.30364,1.16593 0.30364,1.16593 l 0,0 c -1.19925,0.31098 -2.39161,0.64247 -3.52526,1.15401 -2.46974,1.03595 -4.93832,2.0733 -7.4393,3.03202 -2.89048,0.87029 -5.8177,1.62154 -8.77929,2.21076 -3.13338,0.76632 -6.2063,1.76233 -9.35742,2.46633 0,0 -0.19808,-1.18842 -0.19808,-1.18842 z"
     inkscape:connector-curvature="0" />
  <path
     style="color:#000000;fill:#000000;fill-opacity:1;fill-rule:nonzero;stroke:none;stroke-width:1.27100003;marker:none;visibility:visible;display:inline;overflow:visible;enable-background:accumulate"
     id="path6389"
     d="m 298.04046,13.734827 c -0.57697,4.02924 -0.76906,8.100849 -0.91736,12.164419 -0.12686,4.36978 -0.13611,8.74184 -0.14315,13.11312 -7e-4,2.1901 -8.1e-4,1.11901 2.2e-4,3.21329 0,0 -1.20482,5.9e-4 -1.20482,5.9e-4 l 0,0 c -10e-4,-2.09578 -9.1e-4,-1.02384 -2.2e-4,-3.21582 0.007,-4.38529 0.0164,-8.77137 0.14396,-13.15515 0.1504,-4.11516 0.34588,-8.238479 0.93294,-12.318519 0,0 1.18843,0.19807 1.18843,0.19807 z"
     inkscape:connector-curvature="0" />
  <path
     style="color:#000000;fill:#000000;fill-opacity:1;fill-rule:nonzero;stroke:none;stroke-width:1.27100003;marker:none;visibility:visible;display:inline;overflow:visible;enable-background:accumulate"
     id="path6391"
     d="m 301.80723,27.949506 c 0,3.08702 0,6.17404 0,9.26106 0,0.99477 0,1.98953 0,2.9843 0,0.27859 0,0.55718 0,0.83578 0,0.11741 0.10523,0.40435 0,0.35225 -1.41296,-0.69962 -1.06915,-0.76548 -0.85244,-1.98303 0.73862,-3.56416 2.30061,-6.87305 3.75358,-10.18634 1.00639,-2.61412 2.61131,-3.81534 3.03686,-0.0814 0.15422,2.7842 0.12055,5.57497 0.11164,8.36228 0.40062,2.81524 0.52332,2.11676 1.64979,0.62399 1.64893,-2.62086 3.09826,-5.37125 4.85959,-7.919 2.35194,-2.74694 3.18305,1.68948 3.70123,3.3914 0.9059,3.54027 1.87179,7.0478 3.50672,10.32611 0.29237,0.43795 0.58475,0.87591 0.87713,1.31386 0,0 -1.004,0.666 -1.004,0.666 l 0,0 c -0.31731,-0.48112 -0.63462,-0.96226 -0.95192,-1.4434 -1.65733,-3.3417 -2.66683,-6.90326 -3.58054,-10.51173 -0.26825,-0.88151 -0.49026,-1.7771 -0.77602,-2.65309 -0.0765,-0.23439 -0.25293,-0.43946 -0.2804,-0.68449 -0.0241,-0.21447 0.64126,-0.93032 -0.50179,0.2814 -1.78005,2.56434 -3.22075,5.34936 -4.90321,7.97804 -2.10284,2.58938 -3.59484,1.73967 -3.80139,-1.37294 0.009,-2.74233 0.0406,-5.48779 -0.10449,-8.22728 -0.0894,-0.85703 -0.45664,-1.27909 0.45468,-1.50945 0.0686,-0.0173 -0.14629,0.0378 -0.19087,0.0927 -0.39417,0.48561 -0.755,1.34646 -0.99962,1.85083 -1.41483,3.22613 -2.94174,6.44576 -3.6708,9.91363 -0.22408,1.25842 0.0604,1.41882 -1.53855,1.77187 -0.11466,0.0253 0,-0.23485 0,-0.35225 0,-0.27861 0,-0.5572 0,-0.83578 0,-0.99478 0,-1.98953 0,-2.9843 0,-3.08703 0,-6.17405 0,-9.26107 0,0 1.20482,0 1.20482,0 z"
     inkscape:connector-curvature="0" />
  <path
     style="color:#000000;fill:#000000;fill-opacity:1;fill-rule:nonzero;stroke:none;stroke-width:1.27100003;marker:none;visibility:visible;display:inline;overflow:visible;enable-background:accumulate"
     id="path6395"
     d="m 439.00081,192.40499 c -0.71462,3.51153 -1.41604,7.02572 -2.1421,10.53628 -0.62611,3.26124 -1.4702,6.47127 -2.12954,9.72681 -0.0552,0.21981 0.0556,0.6097 -0.16547,0.65943 -0.4331,0.0974 -0.96818,-0.026 -1.28968,-0.33212 -0.26081,-0.24833 -0.18398,-4.83517 -0.18546,-5.31408 -0.12306,-3.97454 0.47683,-7.85493 1.98545,-11.52814 1.53044,-3.3006 4.29493,-5.60957 7.42952,-7.31364 2.70516,-1.32937 5.28725,-1.45538 7.7431,0.36779 1.72741,1.95449 1.85772,3.62544 0.089,5.54197 -1.87947,1.55589 -4.2751,1.88704 -6.62155,2.11895 -2.0511,0.12082 -3.74524,0.0578 -3.61298,2.51481 0.85675,3.12157 2.87843,5.75995 4.70996,8.37406 1.78315,2.39607 3.72959,4.93094 6.61164,6.00007 0,0 -0.43031,1.12536 -0.43031,1.12536 l 0,0 c -3.09651,-1.21317 -5.25694,-3.79333 -7.16814,-6.43421 -1.96745,-2.80949 -4.15904,-5.65548 -4.92796,-9.06165 0.0991,-3.27811 1.81516,-3.56187 4.70014,-3.7175 2.05275,-0.19984 4.18095,-0.44664 5.86569,-1.74969 1.28856,-1.3046 1.24579,-2.30145 0.0509,-3.75646 -2.00727,-1.60989 -4.19453,-1.33943 -6.43652,-0.26364 -2.89602,1.556 -5.46464,3.68135 -6.88887,6.71362 -1.46193,3.5202 -2.0077,7.25286 -1.89425,11.06461 0.004,1.39985 -0.004,2.80051 0.066,4.19912 0.0119,0.23825 0.20225,0.5307 0.0495,0.71394 -0.23601,0.28314 -0.65118,0.51056 -1.01344,0.44246 -0.20418,-0.0384 0.10196,-0.40281 0.15293,-0.60422 0.6597,-3.25721 1.50369,-6.46892 2.13055,-9.73169 0.72561,-3.50795 1.42742,-7.01941 2.14052,-10.52852 0,0 1.18142,0.23628 1.18142,0.23628 z"
     inkscape:connector-curvature="0" />
  <path
     style="color:#000000;fill:#000000;fill-opacity:1;fill-rule:nonzero;stroke:none;stroke-width:1.27100003;marker:none;visibility:visible;display:inline;overflow:visible;enable-background:accumulate"
     id="path6397"
     d="m 453.73263,204.21686 c 2.82369,-0.30658 5.66406,-0.57403 8.3197,-1.63422 1.67335,-1.07282 2.06559,-1.79737 0.10017,-2.51168 -2.69115,-0.73681 -5.39535,-0.76493 -7.98306,0.29393 -1.9731,1.18659 -2.78507,3.08176 -2.39365,5.30379 1.48109,2.423 4.5561,3.21344 7.14798,3.86922 2.69784,0.4413 5.15759,-0.0365 7.61071,-1.14124 0,0 0.49063,1.10039 0.49063,1.10039 l 0,0 c -2.71049,1.19761 -5.43037,1.72138 -8.3982,1.20853 -3.06853,-0.78366 -6.56763,-1.77769 -8.04147,-4.85075 -0.39672,-2.80898 0.60351,-5.16533 3.1365,-6.60856 2.8989,-1.13718 5.90197,-1.16417 8.89725,-0.28607 2.92484,1.34046 2.44406,3.25431 -0.12507,4.74333 -2.80463,1.0929 -5.78079,1.42833 -8.76149,1.71815 0,0 0,-1.20482 0,-1.20482 z"
     inkscape:connector-curvature="0" />
  <path
     style="color:#000000;fill:#00000e;fill-opacity:1;fill-rule:nonzero;stroke:none;stroke-width:3;marker:none;visibility:visible;display:inline;overflow:visible;enable-background:accumulate"
     id="path3595"
     d="m 338.44815,23.988474 c -2.5044,3.263918 -4.19329,6.986125 -5.30358,10.92395 -0.66181,5.146738 1.14149,8.55003 4.611,12.152539 2.11766,1.713834 1.03767,0.949159 3.22454,2.315679 0,0 -0.64088,1.020226 -0.64088,1.020226 l 0,0 c -2.34632,-1.48111 -1.18992,-0.654295 -3.45349,-2.50225 -3.76739,-3.948776 -5.67652,-7.714414 -4.90044,-13.314355 1.16214,-4.089934 2.9138,-7.959652 5.52205,-11.348434 0,0 0.9408,0.752645 0.9408,0.752645 z"
     inkscape:connector-curvature="0" />
  <path
     style="color:#000000;fill:#00000e;fill-opacity:1;fill-rule:nonzero;stroke:none;stroke-width:3;marker:none;visibility:visible;display:inline;overflow:visible;enable-background:accumulate"
     id="path3597"
     d="m 347.85265,43.975903 c 2.83486,-0.136988 5.76222,0.394918 8.50827,-0.461627 1.39531,-0.643017 0.96513,-1.837398 0.44331,-2.974178 -0.89913,-1.90639 -2.21781,-3.557228 -3.13532,-5.460116 -1.04131,-2.403148 -0.72458,-4.738469 0.79253,-6.813286 1.79825,-1.794387 4.25181,-2.104636 6.66478,-2.309836 2.88283,0.15511 4.51131,0.573483 4.68362,3.78969 -0.0915,2.625056 -1.62973,4.63288 -3.16253,6.61853 -0.22745,0.43776 -2.08458,1.64474 -1.69209,2.335488 0.0744,0.130888 0.29956,0.0371 0.44556,0.07381 2.16493,0.623247 4.3892,0.149908 6.56745,-0.128812 2.0001,-0.262482 4.01114,-0.41485 6.02363,-0.539394 0,0 0.0743,1.202524 0.0743,1.202524 l 0,0 c -1.98625,0.122648 -3.97105,0.272901 -5.94505,0.531945 -2.43025,0.310963 -4.92918,0.82442 -7.31354,-0.01758 -2.14743,-1.481254 -0.39283,-2.847458 0.88599,-4.19421 1.35925,-1.76071 2.79287,-3.522687 2.91187,-5.849287 0.026,-2.52902 -1.16862,-2.39337 -3.37811,-2.622138 -2.05818,0.17167 -4.21031,0.373334 -5.80299,1.83339 -1.29863,1.665658 -1.50601,3.606733 -0.66909,5.568209 0.91376,1.917049 2.27123,3.561659 3.15056,5.493179 0.78862,1.831956 0.94366,3.703104 -1.1978,4.615804 -2.88126,0.840739 -5.88716,0.431601 -8.85539,0.512714 0,0 0,-1.204819 0,-1.204819 z"
     inkscape:connector-curvature="0" />
  <path
     style="color:#000000;fill:#00000e;fill-opacity:1;fill-rule:nonzero;stroke:none;stroke-width:3;marker:none;visibility:visible;display:inline;overflow:visible;enable-background:accumulate"
     id="path3605"
     d="m 385.4361,27.602932 c -2.42104,2.651846 -4.76602,5.37181 -7.19847,8.014744 -0.41307,0.605402 -5.3468,4.861796 -4.72267,5.403379 0.0156,-0.09734 -0.0449,-0.255701 0.0467,-0.292023 0.38213,-0.151453 5.56419,-0.159428 6.31566,-0.187156 3.11645,-0.167899 6.20396,-0.20513 9.30196,0.176745 1.14409,-0.107085 3.03486,0.72018 2.7008,-0.961708 -1.18994,-2.006503 -2.2784,-4.081776 -3.42943,-6.11645 -1.04631,-2.010557 -1.91861,-4.130757 -2.67435,-6.269786 -0.12708,-0.259992 -0.25416,-0.519983 -0.38124,-0.779974 0,0 1.08472,-0.524385 1.08472,-0.524385 l 0,0 c 0.14432,0.301422 0.28864,0.602845 0.43297,0.904267 0.72743,2.074225 1.57878,4.127134 2.58702,6.077485 1.22294,2.169644 2.4819,4.346757 3.5769,6.568234 0.19517,2.537088 -2.0823,2.475325 -4.04513,2.298044 -3.03392,-0.375791 -6.05737,-0.330968 -9.1098,-0.168472 -1.41597,0.05223 -5.72249,0.556228 -6.89819,0.06113 -0.2991,-0.125954 -0.47181,-0.445752 -0.70771,-0.668628 0.0672,-2.790234 3.60163,-4.26406 5.03526,-6.336621 2.4137,-2.622391 4.74005,-5.321975 7.14417,-7.951471 0,0 0.9408,0.752645 0.9408,0.752645 z"
     inkscape:connector-curvature="0" />
  <path
     style="color:#000000;fill:#00000e;fill-opacity:1;fill-rule:nonzero;stroke:none;stroke-width:3;marker:none;visibility:visible;display:inline;overflow:visible;enable-background:accumulate"
     id="path3607"
     d="m 396.83564,26.264943 c -0.90626,3.28386 -1.50182,6.636181 -1.90774,10.015015 -0.11539,2.810416 0.77457,4.320737 3.26368,5.52244 2.75085,0.931415 5.64152,0.863776 8.49365,0.641347 0,0 0.093,1.201227 0.093,1.201227 l 0,0 c -3.06807,0.235723 -6.17775,0.288232 -9.12174,-0.763112 -2.94851,-1.493625 -4.07847,-3.397444 -3.92476,-6.745804 0.40912,-3.396349 0.9993,-6.769257 1.9155,-10.069184 0,0 1.18843,0.198071 1.18843,0.198071 z"
     inkscape:connector-curvature="0" />
  <path
     style="color:#000000;fill:#00000e;fill-opacity:1;fill-rule:nonzero;stroke:none;stroke-width:3;marker:none;visibility:visible;display:inline;overflow:visible;enable-background:accumulate"
     id="path3609"
     d="m 391.22615,33.13253 c 3.85697,0 7.71394,0 11.57092,0 2.38877,-0.01104 4.77209,0.07885 7.15194,-0.141638 0,0 0.10921,1.19986 0.10921,1.19986 l 0,0 c -2.41699,0.216315 -4.83541,0.144072 -7.26115,0.146597 -3.85698,0 -7.71395,0 -11.57092,0 0,0 0,-1.204819 0,-1.204819 z"
     inkscape:connector-curvature="0" />
  <path
     style="color:#000000;fill:#00000e;fill-opacity:1;fill-rule:nonzero;stroke:none;stroke-width:3;marker:none;visibility:visible;display:inline;overflow:visible;enable-background:accumulate"
     id="path3611"
     d="m 405.8498,17.988078 c 3.89269,2.294119 6.2371,6.140123 7.99919,10.17138 2.13348,5.749718 1.64675,10.279904 -0.61628,15.844494 -1.34939,2.808634 -3.55035,4.943487 -5.79578,7.028394 0,0 -0.8194,-0.88327 -0.8194,-0.88327 l 0,0 c 2.11806,-1.963126 4.21065,-3.962844 5.49988,-6.60087 2.15136,-5.23833 2.62947,-9.480422 0.62667,-14.908381 -1.64536,-3.806421 -3.8474,-7.452347 -7.51415,-9.618622 0,0 0.61987,-1.033125 0.61987,-1.033125 z"
     inkscape:connector-curvature="0" />
  <path
     style="color:#000000;fill:#00000e;fill-opacity:1;fill-rule:nonzero;stroke:none;stroke-width:3;marker:none;visibility:visible;display:inline;overflow:visible;enable-background:accumulate"
     id="path3595-9"
     d="m 481.80073,191.8879 c -2.5044,3.26391 -4.19329,6.98612 -5.30358,10.92395 -0.66181,5.14673 1.14149,8.55003 4.611,12.15254 2.11766,1.71383 1.03767,0.94915 3.22454,2.31567 0,0 -0.64088,1.02023 -0.64088,1.02023 l 0,0 c -2.34632,-1.48111 -1.18992,-0.65429 -3.45349,-2.50225 -3.76739,-3.94878 -5.67652,-7.71441 -4.90044,-13.31435 1.16214,-4.08994 2.9138,-7.95966 5.52205,-11.34844 0,0 0.9408,0.75265 0.9408,0.75265 z"
     inkscape:connector-curvature="0" />
  <path
     style="color:#000000;fill:#00000e;fill-opacity:1;fill-rule:nonzero;stroke:none;stroke-width:3;marker:none;visibility:visible;display:inline;overflow:visible;enable-background:accumulate"
     id="path3597-7"
     d="m 491.20523,211.87533 c 2.83486,-0.13699 5.76222,0.39491 8.50827,-0.46163 1.39531,-0.64302 0.96513,-1.8374 0.44331,-2.97418 -0.89913,-1.90639 -2.21781,-3.55723 -3.13532,-5.46012 -1.04131,-2.40314 -0.72458,-4.73846 0.79253,-6.81328 1.79825,-1.79439 4.25181,-2.10464 6.66478,-2.30984 2.88283,0.15511 4.51131,0.57349 4.68362,3.78969 -0.0915,2.62506 -1.62973,4.63288 -3.16253,6.61853 -0.22745,0.43776 -2.08458,1.64474 -1.69209,2.33549 0.0744,0.13089 0.29956,0.0371 0.44556,0.0738 2.16493,0.62325 4.3892,0.14991 6.56745,-0.12881 2.0001,-0.26248 4.01114,-0.41485 6.02363,-0.5394 0,0 0.0743,1.20253 0.0743,1.20253 l 0,0 c -1.98625,0.12265 -3.97105,0.2729 -5.94505,0.53194 -2.43025,0.31097 -4.92918,0.82442 -7.31354,-0.0176 -2.14743,-1.48125 -0.39283,-2.84745 0.88599,-4.19421 1.35925,-1.76071 2.79287,-3.52268 2.91187,-5.84928 0.026,-2.52902 -1.16862,-2.39337 -3.37811,-2.62214 -2.05818,0.17167 -4.21031,0.37333 -5.80299,1.83339 -1.29863,1.66566 -1.50601,3.60673 -0.66909,5.56821 0.91376,1.91705 2.27123,3.56166 3.15056,5.49318 0.78862,1.83195 0.94366,3.7031 -1.1978,4.6158 -2.88126,0.84074 -5.88716,0.4316 -8.85539,0.51271 0,0 0,-1.20481 0,-1.20481 z"
     inkscape:connector-curvature="0" />
  <path
     style="color:#000000;fill:#00000e;fill-opacity:1;fill-rule:nonzero;stroke:none;stroke-width:3;marker:none;visibility:visible;display:inline;overflow:visible;enable-background:accumulate"
     id="path3605-6"
     d="m 528.78868,195.50235 c -2.42104,2.65185 -4.76602,5.37181 -7.19847,8.01475 -0.41307,0.6054 -5.3468,4.86179 -4.72267,5.40338 0.0156,-0.0973 -0.0449,-0.2557 0.0467,-0.29203 0.38213,-0.15145 5.56419,-0.15942 6.31566,-0.18715 3.11645,-0.1679 6.20396,-0.20513 9.30196,0.17674 1.14409,-0.10708 3.03486,0.72018 2.7008,-0.9617 -1.18994,-2.00651 -2.2784,-4.08178 -3.42943,-6.11645 -1.04631,-2.01056 -1.91861,-4.13076 -2.67435,-6.26979 -0.12708,-0.25999 -0.25416,-0.51998 -0.38124,-0.77997 0,0 1.08472,-0.52439 1.08472,-0.52439 l 0,0 c 0.14432,0.30142 0.28864,0.60285 0.43297,0.90427 0.72743,2.07422 1.57878,4.12713 2.58702,6.07748 1.22294,2.16965 2.4819,4.34676 3.5769,6.56824 0.19517,2.53708 -2.0823,2.47532 -4.04513,2.29804 -3.03392,-0.37579 -6.05737,-0.33097 -9.1098,-0.16847 -1.41597,0.0522 -5.72249,0.55623 -6.89819,0.0611 -0.2991,-0.12596 -0.47181,-0.44575 -0.70771,-0.66863 0.0672,-2.79023 3.60163,-4.26406 5.03526,-6.33662 2.4137,-2.62239 4.74005,-5.32198 7.14417,-7.95147 0,0 0.9408,0.75264 0.9408,0.75264 z"
     inkscape:connector-curvature="0" />
  <path
     style="color:#000000;fill:#00000e;fill-opacity:1;fill-rule:nonzero;stroke:none;stroke-width:3;marker:none;visibility:visible;display:inline;overflow:visible;enable-background:accumulate"
     id="path3607-2"
     d="m 540.18822,194.16437 c -0.90626,3.28386 -1.50182,6.63618 -1.90774,10.01501 -0.11539,2.81042 0.77457,4.32074 3.26368,5.52244 2.75085,0.93142 5.64152,0.86378 8.49365,0.64135 0,0 0.093,1.20122 0.093,1.20122 l 0,0 c -3.06807,0.23573 -6.17775,0.28824 -9.12174,-0.76311 -2.94851,-1.49362 -4.07847,-3.39744 -3.92476,-6.7458 0.40912,-3.39635 0.9993,-6.76926 1.9155,-10.06919 0,0 1.18843,0.19808 1.18843,0.19808 z"
     inkscape:connector-curvature="0" />
  <path
     style="color:#000000;fill:#00000e;fill-opacity:1;fill-rule:nonzero;stroke:none;stroke-width:3;marker:none;visibility:visible;display:inline;overflow:visible;enable-background:accumulate"
     id="path3609-8"
     d="m 534.57873,201.03195 c 3.85697,0 7.71394,0 11.57092,0 2.38877,-0.011 4.77209,0.0788 7.15194,-0.14164 0,0 0.10921,1.19986 0.10921,1.19986 l 0,0 c -2.41699,0.21632 -4.83541,0.14408 -7.26115,0.1466 -3.85698,0 -7.71395,0 -11.57092,0 0,0 0,-1.20482 0,-1.20482 z"
     inkscape:connector-curvature="0" />
  <path
     style="color:#000000;fill:#00000e;fill-opacity:1;fill-rule:nonzero;stroke:none;stroke-width:3;marker:none;visibility:visible;display:inline;overflow:visible;enable-background:accumulate"
     id="path3611-6"
     d="m 549.20238,185.8875 c 3.89269,2.29412 6.2371,6.14012 7.99919,10.17138 2.13348,5.74972 1.64675,10.2799 -0.61628,15.84449 -1.34939,2.80864 -3.55035,4.94349 -5.79578,7.0284 0,0 -0.8194,-0.88327 -0.8194,-0.88327 l 0,0 c 2.11806,-1.96313 4.21065,-3.96285 5.49988,-6.60087 2.15136,-5.23833 2.62947,-9.48042 0.62667,-14.90838 -1.64536,-3.80642 -3.8474,-7.45235 -7.51415,-9.61863 0,0 0.61987,-1.03312 0.61987,-1.03312 z"
     inkscape:connector-curvature="0" />
  <path
     style="color:#000000;fill:#00000e;fill-opacity:1;fill-rule:nonzero;stroke:none;stroke-width:3;marker:none;visibility:visible;display:inline;overflow:visible;enable-background:accumulate"
     id="path3887"
     d="m 259.75673,92.168675 c 3.10421,0 6.20842,0 9.31263,0 2.97573,0 5.95146,0 8.92719,0 0.83602,0 1.67203,0 2.50804,0 0,0 0,1.204819 0,1.204819 l 0,0 c -0.83601,0 -1.67202,0 -2.50804,0 -2.97573,0 -5.95146,0 -8.92719,0 -3.10421,0 -6.20842,0 -9.31263,0 0,0 0,-1.204819 0,-1.204819 z"
     inkscape:connector-curvature="0" />
  <path
     style="color:#000000;fill:#00000e;fill-opacity:1;fill-rule:nonzero;stroke:none;stroke-width:3;marker:none;visibility:visible;display:inline;overflow:visible;enable-background:accumulate"
     id="path3889"
     d="m 259.75673,310.24096 c 2.74795,0 5.4959,0 8.24384,0 2.56009,0 5.12017,0 7.68026,0 2.41387,0 4.82774,0 7.2416,0 1.20338,0 2.40676,0 3.61013,0 0,0 0,1.20482 0,1.20482 l 0,0 c -1.20337,0 -2.40675,0 -3.61013,0 -2.41386,0 -4.82773,0 -7.2416,0 -2.56009,0 -5.12017,0 -7.68026,0 -2.74794,0 -5.49589,0 -8.24384,0 0,0 0,-1.20482 0,-1.20482 z"
     inkscape:connector-curvature="0" />
  <path
     style="color:#000000;fill:#00000e;fill-opacity:1;fill-rule:nonzero;stroke:none;stroke-width:3;marker:none;visibility:visible;display:inline;overflow:visible;enable-background:accumulate"
     id="path3891"
     d="m 246.38554,81.443477 c 0,2.747948 0,5.495896 0,8.243843 0,2.560086 0,5.120171 0,7.680256 0,0.808363 0,1.616725 0,2.425087 0,0 -1.20482,0 -1.20482,0 l 0,0 c 0,-0.808362 0,-1.616724 0,-2.425087 0,-2.560085 0,-5.12017 0,-7.680256 0,-2.747947 0,-5.495895 0,-8.243843 0,0 1.20482,0 1.20482,0 z"
     inkscape:connector-curvature="0" />
  <path
     style="color:#000000;fill:#00000e;fill-opacity:1;fill-rule:nonzero;stroke:none;stroke-width:3;marker:none;visibility:visible;display:inline;overflow:visible;enable-background:accumulate"
     id="path3893"
     d="m 223.61215,315.06024 c 2.74795,0 5.4959,0 8.24385,0 0.89162,0 1.78324,0 2.67487,0 0,0 0,1.20482 0,1.20482 l 0,0 c -0.89163,0 -1.78325,0 -2.67487,0 -2.74795,0 -5.4959,0 -8.24385,0 0,0 0,-1.20482 0,-1.20482 z"
     inkscape:connector-curvature="0" />
  <path
     style="color:#000000;fill:#00000e;fill-opacity:1;fill-rule:nonzero;stroke:none;stroke-width:3;marker:none;visibility:visible;display:inline;overflow:visible;enable-background:accumulate"
     id="path3895"
     d="m 243.9759,306.74468 c 0,2.74795 0,5.4959 0,8.24385 0,2.56008 0,5.12017 0,7.68025 -0.16862,1.83525 0.17256,3.5896 0.53364,5.37347 0,0 -1.18088,0.23901 -1.18088,0.23901 l 0,0 c -0.37658,-1.8606 -0.72333,-3.69997 -0.55758,-5.61248 0,-2.56008 0,-5.12017 0,-7.68025 0,-2.74795 0,-5.4959 0,-8.24385 0,0 1.20482,0 1.20482,0 z"
     inkscape:connector-curvature="0" />
  <path
     style="color:#000000;fill:#00000e;fill-opacity:1;fill-rule:nonzero;stroke:none;stroke-width:3;marker:none;visibility:visible;display:inline;overflow:visible;enable-background:accumulate"
     id="path3943"
     d="m 272.57242,96.235924 c -1.41387,3.923776 -2.98396,7.782546 -4.61567,11.619436 -0.79529,1.6179 -1.51458,3.26645 -2.18301,4.9397 0,0 -1.11868,-0.44737 -1.11868,-0.44737 l 0,0 c 0.67285,-1.68081 1.39216,-3.33892 2.19297,-4.96385 1.61912,-3.80719 3.17738,-7.635862 4.5814,-11.528913 0,0 1.14299,0.380997 1.14299,0.380997 z"
     inkscape:connector-curvature="0" />
  <path
     style="color:#000000;fill:#00000e;fill-opacity:1;fill-rule:nonzero;stroke:none;stroke-width:3;marker:none;visibility:visible;display:inline;overflow:visible;enable-background:accumulate"
     id="path3945"
     d="m 271.35543,114.19733 c -1.74308,3.44275 -3.38055,6.92756 -4.77641,10.52668 -0.78659,2.3705 -1.63413,4.71584 -2.33462,7.11375 0,0 -1.1564,-0.33813 -1.1564,-0.33813 l 0,0 c 0.71138,-2.43062 1.56764,-4.80935 2.36786,-7.21164 1.39953,-3.60163 3.02777,-7.09587 4.78092,-10.53812 0,0 1.11865,0.44746 1.11865,0.44746 z"
     inkscape:connector-curvature="0" />
  <path
     style="color:#000000;fill:#00000e;fill-opacity:1;fill-rule:nonzero;stroke:none;stroke-width:3;marker:none;visibility:visible;display:inline;overflow:visible;enable-background:accumulate"
     id="path3947"
     d="m 273.54355,131.0584 c -1.64986,2.92572 -3.20116,5.9035 -4.65638,8.93053 -0.82656,1.99093 -0.40573,1.0041 -1.26196,2.96073 0,0 -1.10373,-0.48308 -1.10373,-0.48308 l 0,0 c 0.85627,-1.95603 0.42898,-0.95637 1.2799,-2.99982 1.48985,-3.0968 3.07079,-6.14825 4.77832,-9.13126 0,0 0.96385,0.7229 0.96385,0.7229 z"
     inkscape:connector-curvature="0" />
  <path
     style="color:#000000;fill:#00000e;fill-opacity:1;fill-rule:nonzero;stroke:none;stroke-width:3;marker:none;visibility:visible;display:inline;overflow:visible;enable-background:accumulate"
     id="path3949"
     d="m 272.56025,147.93227 c -2.01071,4.45025 -3.90988,8.9355 -5.66825,13.4919 -1.21823,3.09028 -2.16007,6.26875 -2.91394,9.49965 0,0 -1.17322,-0.27414 -1.17322,-0.27414 l 0,0 c 0.76856,-3.28467 1.72389,-6.51726 2.96314,-9.6593 1.7602,-4.5609 3.65939,-9.05158 5.67362,-13.50557 0,0 1.11865,0.44746 1.11865,0.44746 z"
     inkscape:connector-curvature="0" />
  <path
     style="color:#000000;fill:#00000e;fill-opacity:1;fill-rule:nonzero;stroke:none;stroke-width:3;marker:none;visibility:visible;display:inline;overflow:visible;enable-background:accumulate"
     id="path3951"
     d="m 271.16855,170.91004 c -1.85734,3.45991 -3.62065,7.00497 -4.98499,10.69262 -0.53036,1.79938 -1.11121,3.5824 -1.6528,5.37836 0,0 -1.1535,-0.34791 -1.1535,-0.34791 l 0,0 c 0.54896,-1.81978 1.13635,-3.62684 1.67663,-5.44929 1.39527,-3.75558 3.18276,-7.37099 5.08153,-10.89365 0,0 1.03313,0.61987 1.03313,0.61987 z"
     inkscape:connector-curvature="0" />
  <path
     style="color:#000000;fill:#00000e;fill-opacity:1;fill-rule:nonzero;stroke:none;stroke-width:3;marker:none;visibility:visible;display:inline;overflow:visible;enable-background:accumulate"
     id="path3953"
     d="m 272.57242,187.80219 c -1.72652,4.35677 -3.65477,8.61778 -5.1624,13.06154 0,0 -1.14088,-0.38729 -1.14088,-0.38729 l 0,0 c 1.50845,-4.44106 3.42614,-8.70398 5.16029,-13.05525 0,0 1.14299,0.381 1.14299,0.381 z"
     inkscape:connector-curvature="0" />
  <path
     style="color:#000000;fill:#00000e;fill-opacity:1;fill-rule:nonzero;stroke:none;stroke-width:3;marker:none;visibility:visible;display:inline;overflow:visible;enable-background:accumulate"
     id="path3955"
     d="m 269.92909,208.16683 c -1.64281,2.87129 -3.23711,5.75657 -4.65498,8.74748 -0.20749,0.51054 -0.41498,1.02109 -0.62247,1.53163 0,0 -1.1159,-0.45427 -1.1159,-0.45427 l 0,0 c 0.2166,-0.53123 0.43319,-1.06246 0.64979,-1.59369 1.45339,-3.06254 3.08202,-6.02155 4.77971,-8.95404 0,0 0.96385,0.72289 0.96385,0.72289 z"
     inkscape:connector-curvature="0" />
  <path
     style="color:#000000;fill:#00000e;fill-opacity:1;fill-rule:nonzero;stroke:none;stroke-width:3;marker:none;visibility:visible;display:inline;overflow:visible;enable-background:accumulate"
     id="path3957"
     d="m 272.37337,221.51245 c -1.95132,2.75028 -3.72022,5.58964 -5.31016,8.56117 -0.24535,0.51206 -0.4907,1.02411 -0.73605,1.53617 0,0 -1.08636,-0.52098 -1.08636,-0.52098 l 0,0 c 0.25337,-0.52787 0.50673,-1.05574 0.7601,-1.58361 1.59926,-2.98873 3.37412,-5.84826 5.33934,-8.61262 0,0 1.03313,0.61987 1.03313,0.61987 z"
     inkscape:connector-curvature="0" />
  <path
     style="color:#000000;fill:#00000e;fill-opacity:1;fill-rule:nonzero;stroke:none;stroke-width:3;marker:none;visibility:visible;display:inline;overflow:visible;enable-background:accumulate"
     id="path3959"
     d="m 271.35543,237.08889 c -1.73906,3.54041 -3.3438,7.13755 -4.53401,10.90069 -0.75139,2.1936 -0.39296,1.11962 -1.07763,3.22117 0,0 -1.14554,-0.37326 -1.14554,-0.37326 l 0,0 c 0.68758,-2.10989 0.32994,-1.03913 1.07459,-3.21171 1.20218,-3.79012 2.80518,-7.42029 4.56394,-10.98435 0,0 1.11865,0.44746 1.11865,0.44746 z"
     inkscape:connector-curvature="0" />
  <path
     style="color:#000000;fill:#00000e;fill-opacity:1;fill-rule:nonzero;stroke:none;stroke-width:3;marker:none;visibility:visible;display:inline;overflow:visible;enable-background:accumulate"
     id="path3961"
     d="m 273.57819,251.63293 c -1.93776,3.16838 -3.56338,6.51111 -5.52531,9.67053 -1.28197,2.05901 -2.14536,4.30149 -2.83433,6.61305 0,0 -1.15427,-0.34535 -1.15427,-0.34535 l 0,0 c 0.72431,-2.41214 1.62526,-4.75438 2.96522,-6.90352 1.96002,-3.15316 3.57869,-6.49275 5.51556,-9.65458 0,0 1.03313,0.61987 1.03313,0.61987 z"
     inkscape:connector-curvature="0" />
  <path
     style="color:#000000;fill:#00000e;fill-opacity:1;fill-rule:nonzero;stroke:none;stroke-width:3;marker:none;visibility:visible;display:inline;overflow:visible;enable-background:accumulate"
     id="path3963"
     d="m 271.13391,270.81743 c -2.07205,2.7447 -3.59323,5.89377 -5.11976,8.96814 -0.79906,1.57564 -1.3512,3.24478 -1.86699,4.92743 0,0 -1.15165,-0.35398 -1.15165,-0.35398 l 0,0 c 0.53751,-1.74428 1.11065,-3.4754 1.93955,-5.10933 1.55948,-3.13988 3.11782,-6.352 5.235,-9.15515 0,0 0.96385,0.72289 0.96385,0.72289 z"
     inkscape:connector-curvature="0" />
  <path
     style="color:#000000;fill:#00000e;fill-opacity:1;fill-rule:nonzero;stroke:none;stroke-width:3;marker:none;visibility:visible;display:inline;overflow:visible;enable-background:accumulate"
     id="path3965"
     d="m 271.33491,285.18322 c -1.51663,3.03623 -3.47488,5.80463 -4.98019,8.84871 -1.02452,2.04467 -0.54244,1.03408 -1.451,3.02947 0,0 -1.09638,-0.49955 -1.09638,-0.49955 l 0,0 c 0.92727,-2.03374 0.43904,-1.01172 1.46771,-3.06462 1.50962,-3.0439 3.45585,-5.82021 4.98224,-8.85282 0,0 1.07762,0.53881 1.07762,0.53881 z"
     inkscape:connector-curvature="0" />
  <path
     style="color:#000000;fill:#00000e;fill-opacity:1;fill-rule:nonzero;stroke:none;stroke-width:3;marker:none;visibility:visible;display:inline;overflow:visible;enable-background:accumulate"
     id="path3967"
     d="m 271.13391,302.14273 c -1.72865,2.09328 -3.08609,4.45141 -4.5947,6.70089 0,0 -1.00057,-0.67116 -1.00057,-0.67116 l 0,0 c 1.52075,-2.26674 2.88913,-4.64311 4.63142,-6.75262 0,0 0.96385,0.72289 0.96385,0.72289 z"
     inkscape:connector-curvature="0" />
  <path
     style="color:#000000;fill:#00000e;fill-opacity:1;fill-rule:nonzero;stroke:none;stroke-width:3;marker:none;visibility:visible;display:inline;overflow:visible;enable-background:accumulate"
     id="path3971"
     d="m 354.47737,93.042173 c -2.36507,-0.766028 -5.58631,-1.307774 -7.39679,0.785022 -0.0784,0.282915 -0.23206,0.555189 -0.23513,0.848743 -0.0245,2.332319 2.56895,5.843262 3.76959,7.727902 1.10551,2.01604 4.19978,4.93347 4.03767,7.42422 -0.0251,0.38638 -0.24306,0.73526 -0.36459,1.10289 -2.0964,2.18385 -4.90891,0.55961 -7.13904,-0.57969 -1.2716,-0.67886 -2.10721,-1.69794 -2.92514,-2.84073 0,0 0.98484,-0.69402 0.98484,-0.69402 l 0,0 c 0.6886,0.99556 1.39726,1.87064 2.48993,2.46261 1.56791,0.80679 3.75558,2.24916 5.48073,1.18024 1.16365,-1.73564 -2.74741,-5.93692 -3.58074,-7.40848 -1.38897,-2.18316 -4.21742,-6.037248 -3.89149,-8.769915 0.0548,-0.459332 0.33838,-0.861073 0.50757,-1.29161 0.34426,-0.330607 0.62991,-0.735877 1.03278,-0.99182 2.2392,-1.422548 5.34512,-0.803902 7.67727,-0.07401 0,0 -0.44746,1.118646 -0.44746,1.118646 z"
     inkscape:connector-curvature="0" />
  <path
     style="color:#000000;fill:#00000e;fill-opacity:1;fill-rule:nonzero;stroke:none;stroke-width:3;marker:none;visibility:visible;display:inline;overflow:visible;enable-background:accumulate"
     id="path3973"
     d="m 356.14227,103.01205 c 2.72188,0.0292 5.58002,-0.33856 7.6058,-2.29206 0.92316,-1.619564 -0.75603,-1.93776 -2.02121,-1.748459 -2.45549,1.108019 -3.93244,3.181409 -4.90227,5.608169 -0.65139,2.44657 0.95223,3.30903 3.03035,3.89725 1.98894,0.12985 0.97703,0.14861 3.03528,-0.0765 0,0 0.12382,1.19844 0.12382,1.19844 l 0,0 c -2.35577,0.23086 -1.18968,0.22404 -3.49815,0.0341 -2.96198,-0.89415 -4.64437,-2.15722 -3.80829,-5.50495 1.15466,-2.82723 2.93058,-5.234734 5.8866,-6.354093 2.63826,-0.22279 4.68053,1.090332 2.97036,3.831923 -2.34024,2.08284 -5.33732,2.68964 -8.42229,2.61091 0,0 0,-1.20482 0,-1.20482 z"
     inkscape:connector-curvature="0" />
  <path
     style="color:#000000;fill:#00000e;fill-opacity:1;fill-rule:nonzero;stroke:none;stroke-width:3;marker:none;visibility:visible;display:inline;overflow:visible;enable-background:accumulate"
     id="path3975"
     d="m 374.9657,98.844757 c -2.66809,-1.373478 -4.86546,-1.189178 -7.37714,0.347713 -1.36015,1.31232 -3.24595,2.86195 -0.98891,4.21265 2.89118,1.16784 4.66773,-0.5361 6.46827,-2.60618 0.91303,-1.217969 1.68074,-2.493008 1.89447,-4.019378 0.0332,-0.237055 0.0352,-0.478747 0.0222,-0.717762 -0.004,-0.07463 -0.13895,-0.246828 -0.0728,-0.212071 0.32867,0.172664 0.60332,0.43284 0.90499,0.64926 -0.46036,3.160841 -0.5279,6.366771 -0.85204,9.549371 -0.43601,4.52401 -2.08324,8.4307 -5.28427,11.64145 -3.2336,2.35831 -6.2613,3.36066 -10.15988,2.29848 -3.0229,-1.44754 -4.79623,-4.08782 -5.33221,-7.3322 0.0387,-0.47739 0.0774,-0.95477 0.11604,-1.43215 0,0 1.19955,0.1126 1.19955,0.1126 l 0,0 c -0.0417,0.37841 -0.0833,0.75682 -0.12496,1.13523 0.39403,2.77264 1.95127,5.05766 4.46725,6.35656 3.42728,0.9959 6.11273,0.0354 8.98506,-1.99323 3.03301,-2.98131 4.51426,-6.68106 4.93481,-10.90885 0.3363,-3.30008 0.35435,-6.640879 0.94309,-9.901509 0.45854,-0.14995 0.89408,-0.479144 1.37562,-0.449849 0.0627,0.0038 0.17859,0.6915 0.0532,1.468099 -0.2781,1.722463 -1.11502,3.177619 -2.16503,4.551169 -2.27524,2.56645 -4.56079,4.35868 -8.05158,2.80676 -2.93677,-2.15946 -1.14874,-4.32266 1.04892,-6.242583 2.9841,-1.748779 5.61928,-1.962787 8.71822,-0.277435 0,0 -0.72289,0.963855 -0.72289,0.963855 z"
     inkscape:connector-curvature="0" />
  <path
     style="color:#000000;fill:#00000e;fill-opacity:1;fill-rule:nonzero;stroke:none;stroke-width:3;marker:none;visibility:visible;display:inline;overflow:visible;enable-background:accumulate"
     id="path3977"
     d="m 382.37781,96.144461 c -0.57744,3.210435 -1.18567,6.419469 -1.80088,9.624349 -0.0601,0.22813 -0.12323,0.45549 -0.18038,0.68438 -0.095,0.38063 -0.83654,-0.23963 -1.02062,-0.58607 -0.0401,-0.0755 1.06456,-3.35177 1.13058,-3.54068 0.2471,-1.29838 2.13077,-6.143903 3.03414,-1.96691 0.14235,0.85566 0.001,5.4045 0.83766,5.43182 -0.004,-0.0844 -0.0596,-0.18385 -0.0114,-0.25325 0.12488,-0.1797 0.35091,-0.26781 0.49056,-0.4363 1.19,-1.43569 1.96523,-3.40592 2.77862,-5.06397 0.74523,-1.286895 2.5891,-6.290609 4.18198,-2.74457 0.48486,2.598774 0.11068,5.24338 0.84812,7.79465 0.16397,0.28967 0.32793,0.57934 0.4919,0.86901 0,0 -1.05743,0.57745 -1.05743,0.57745 l 0,0 c -0.19805,-0.37326 -0.3961,-0.74651 -0.59415,-1.11977 -0.69943,-2.53933 -0.47673,-5.12986 -0.82598,-7.724375 -0.0796,-0.707761 -0.13541,-0.13459 0.33016,-0.617177 0.26906,-0.27889 -0.61356,0.49325 -0.82807,0.815982 -0.5598,0.842226 -1.00589,1.785123 -1.46502,2.67977 -0.73831,1.50265 -2.30283,5.4588 -3.95134,6.10601 -0.33125,0.13006 -0.70755,0.0771 -1.06133,0.11562 -1.76405,-1.5248 -1.04063,-4.13399 -1.35088,-6.22214 -0.0206,-0.1923 -0.16599,-0.41396 -0.0618,-0.576897 0.0843,-0.131827 0.32351,0.0089 0.46614,-0.05542 0.0665,-0.02999 0.13961,-0.254665 0.0944,-0.197433 -0.67449,0.853563 -0.77247,2.021853 -1.20918,2.986193 -0.10713,0.30514 -0.9662,3.361 -1.10944,3.47421 -0.34921,0.27599 -0.84672,0.35839 -1.29143,0.33953 -0.3358,-0.0143 0.46004,-1.19638 0.15102,-0.99693 0.61411,-3.195 1.22003,-6.394482 1.79564,-9.59515 0,0 1.18843,0.198071 1.18843,0.198071 z"
     inkscape:connector-curvature="0" />
  <path
     style="color:#000000;fill:#00000e;fill-opacity:1;fill-rule:nonzero;stroke:none;stroke-width:3;marker:none;visibility:visible;display:inline;overflow:visible;enable-background:accumulate"
     id="path3979"
     d="m 399.51577,101.80723 c 2.84063,-0.18856 5.41345,-1.05872 7.76514,-2.643522 0.27999,-0.317304 1.07946,-1.047149 1.08981,-1.614071 0.0177,-0.968451 -2.36925,-1.735154 -2.98824,-1.886162 -3.14214,-0.236303 -5.35953,1.306035 -6.98373,3.849569 -1.17535,2.176486 -0.947,4.339186 0.96828,5.915456 2.59999,1.40294 5.11899,0.66898 7.64918,-0.47186 2.84392,-1.74362 4.77452,-4.46164 6.51312,-7.233917 0.34587,-0.603148 0.98936,-2.594037 1.49417,0.05039 0.0393,0.20574 -1.13345,3.313692 -1.24863,3.700782 -0.22593,1.20806 -0.75605,2.44504 -0.63808,3.70133 0.009,0.0945 0.11968,0.3229 0.1587,0.23638 0.46676,-1.03506 -0.94072,0.34685 0.25817,-0.67234 2.16336,-2.25242 3.85793,-4.854323 6.33646,-6.795641 3.10177,-1.204655 3.33078,2.603151 3.53751,4.748881 0.0542,1.53947 0.0672,3.05038 0.44388,4.54978 0,0 -1.16985,0.28814 -1.16985,0.28814 l 0,0 c -0.3774,-1.55882 -0.43776,-3.12389 -0.47342,-4.7237 -0.0459,-0.4879 -0.36707,-3.944452 -0.97605,-4.023893 -0.20913,-0.02728 -0.41513,0.07471 -0.6227,0.112069 -2.53852,1.955914 -4.14767,4.717264 -6.47332,6.887714 -0.32467,0.15502 -0.61456,0.44947 -0.974,0.46506 -2.40477,0.10432 -0.76316,-4.07775 -0.56194,-5.11786 0.13122,-0.43971 0.95588,-3.512014 1.25961,-3.735709 0.36043,-0.265454 0.88073,-0.263675 1.32566,-0.214534 0.4482,0.0495 -2.11827,1.594363 -0.65552,1.183351 -1.86684,2.975672 -3.96102,5.865362 -7.04204,7.693612 -2.97585,1.32006 -5.94652,2.04482 -8.92697,0.28503 -2.30746,-2.05422 -2.69658,-4.745 -1.19312,-7.484013 1.9495,-2.967182 4.62698,-4.72808 8.30737,-4.357606 3.14102,0.904787 5.2701,2.862291 2.25485,5.665669 -2.56195,1.69736 -5.34924,2.66587 -8.4343,2.84643 0,0 0,-1.20482 0,-1.20482 z"
     inkscape:connector-curvature="0" />
  <path
     style="color:#000000;fill:#00000e;fill-opacity:1;fill-rule:nonzero;stroke:none;stroke-width:3;marker:none;visibility:visible;display:inline;overflow:visible;enable-background:accumulate"
     id="path3981"
     d="m 430.40374,89.007009 c -1.5058,3.817516 -2.45368,7.780579 -2.31896,11.888681 0.39726,3.98794 2.9721,6.43438 6.41631,8.06563 2.5463,1.05244 5.15776,1.06502 7.04342,-1.08972 0,0 0.88982,0.81228 0.88982,0.81228 l 0,0 c -2.33721,2.47991 -5.36367,2.6642 -8.45315,1.36431 -4.02473,-1.94251 -6.56567,-4.49098 -7.10067,-9.11615 -0.11803,-4.250631 0.81103,-8.354975 2.38024,-12.306029 0,0 1.14299,0.380998 1.14299,0.380998 z"
     inkscape:connector-curvature="0" />
  <path
     style="color:#000000;fill:#00000e;fill-opacity:1;fill-rule:nonzero;stroke:none;stroke-width:3;marker:none;visibility:visible;display:inline;overflow:visible;enable-background:accumulate"
     id="path3983"
     d="m 421.2476,99.26167 c 4.56997,-0.525043 9.12064,-1.195877 13.69899,-1.656065 3.43249,-0.461762 1.71862,-0.229417 5.14163,-0.697008 0,0 0.16306,1.193733 0.16306,1.193733 l 0,0 c -3.4389,0.469759 -1.71083,0.235701 -5.18425,0.70206 -4.55243,0.45714 -9.07707,1.125644 -13.62136,1.64571 0,0 -0.19807,-1.18843 -0.19807,-1.18843 z"
     inkscape:connector-curvature="0" />
  <path
     style="color:#000000;fill:#00000e;fill-opacity:1;fill-rule:nonzero;stroke:none;stroke-width:3;marker:none;visibility:visible;display:inline;overflow:visible;enable-background:accumulate"
     id="path3985"
     d="m 466.86744,94.710732 c -2.40023,0.704259 -4.2533,2.294832 -5.67245,4.302715 -1.09849,1.760503 -0.98552,3.261223 0.80118,4.343693 2.26324,0.54412 4.19645,-0.89138 5.59078,-2.52044 0.37458,-2.737451 -2.25679,-3.766496 -4.49358,-4.20179 -2.05749,0.05409 -1.05199,-0.07257 -3.01804,0.367445 0,0 -0.2541,-1.177719 -0.2541,-1.177719 l 0,0 c 2.28702,-0.477572 1.11603,-0.348174 3.51496,-0.369823 3.14026,0.675688 6.3329,2.459858 5.15916,6.173337 -1.82813,2.06717 -4.30378,3.70092 -7.15208,2.74157 -2.47763,-1.66822 -2.60179,-3.53312 -1.12861,-6.056658 1.61886,-2.244721 3.7005,-4.024741 6.41649,-4.783752 0,0 0.23629,1.181422 0.23629,1.181422 z"
     inkscape:connector-curvature="0" />
  <path
     style="color:#000000;fill:#00000e;fill-opacity:1;fill-rule:nonzero;stroke:none;stroke-width:3;marker:none;visibility:visible;display:inline;overflow:visible;enable-background:accumulate"
     id="path3987"
     d="m 472.73575,96.019451 c -0.28957,1.827954 -2.18303,5.889879 -0.94839,7.470219 1.152,-1.84515 2.93448,-3.610011 4.48091,-5.213868 2.67368,-2.429795 4.23309,0.854505 5.24674,3.044988 1.07914,2.42283 3.05951,3.9806 5.05251,5.61634 0,0 -0.76492,0.93086 -0.76492,0.93086 l 0,0 c -2.12972,-1.7521 -4.23024,-3.4536 -5.3816,-6.04247 -0.23751,-0.51647 -1.35252,-3.824267 -2.50714,-3.311282 -0.29921,0.132935 -0.51924,0.398968 -0.77886,0.598453 -1.10766,1.145419 -3.78404,4.985849 -5.27518,5.273399 -0.3772,0.0727 -0.74319,-0.19477 -1.11479,-0.29215 -1.30087,-2.60797 0.25055,-5.665049 0.8093,-8.310774 0,0 1.18142,0.236285 1.18142,0.236285 z"
     inkscape:connector-curvature="0" />
  <path
     style="color:#000000;fill:#00000e;fill-opacity:1;fill-rule:nonzero;stroke:none;stroke-width:3;marker:none;visibility:visible;display:inline;overflow:visible;enable-background:accumulate"
     id="path3989"
     d="m 511.09395,88.797682 c -1.30191,3.650519 -2.55523,6.98 -1.61186,10.859063 2.29758,3.051165 5.86699,4.537635 9.55016,5.081625 0,0 -0.18138,1.19109 -0.18138,1.19109 l 0,0 c -4.16234,-0.65102 -8.17702,-2.34255 -10.54245,-6.000521 -0.14208,-0.638996 -0.36185,-1.26556 -0.42625,-1.916987 -0.33147,-3.353273 1.13333,-6.643276 2.13416,-9.753082 0,0 1.07762,0.538812 1.07762,0.538812 z"
     inkscape:connector-curvature="0" />
  <path
     style="color:#000000;fill:#00000e;fill-opacity:1;fill-rule:nonzero;stroke:none;stroke-width:3;marker:none;visibility:visible;display:inline;overflow:visible;enable-background:accumulate"
     id="path3991"
     d="m 498.31095,96.987952 c 3.75146,0.253222 7.34481,-0.622217 10.89513,-1.73122 3.80357,-1.205648 6.9562,-3.481745 9.96474,-6.007593 3.25906,-2.280061 2.58589,1.272534 2.06402,3.17113 -0.75593,3.076551 -1.88201,6.154886 -1.61353,9.357701 0.10839,0.23307 0.15914,0.50299 0.32517,0.69922 0.63978,0.75615 3.83931,-1.93242 4.29829,-2.30473 0.92423,-0.693803 2.83802,-3.936635 4.42241,-2.818476 0.25032,0.176655 0.35016,0.50284 0.52524,0.754259 0.41661,1.814518 0.65818,3.628227 2.09317,4.923037 0,0 -0.82679,0.87636 -0.82679,0.87636 l 0,0 c -1.47739,-1.44004 -2.03903,-3.23377 -2.33882,-5.250322 0.0169,-0.127538 0.23627,-0.341083 0.11085,-0.369683 -0.74661,-0.170239 -2.68563,2.476775 -3.22859,2.821745 -1.85558,1.49548 -5.39292,4.46407 -6.58228,0.75996 -0.23259,-3.349857 0.81648,-6.555817 1.6534,-9.769332 0.11503,-0.415767 0.40018,-1.40169 0.49261,-1.880649 0.24342,-1.261402 -0.26975,0.207349 0.46446,-0.554908 0.27697,-0.287546 -2.52001,0.832164 -1.08492,0.507425 -3.1312,2.628812 -6.42522,4.980778 -10.38091,6.235098 -3.66633,1.140348 -7.38122,2.041063 -11.25365,1.785797 0,0 0,-1.204819 0,-1.204819 z"
     inkscape:connector-curvature="0" />
  <path
     style="color:#000000;fill:#00000e;fill-opacity:1;fill-rule:nonzero;stroke:none;stroke-width:3;marker:none;visibility:visible;display:inline;overflow:visible;enable-background:accumulate"
     id="path3993"
     d="m 536.74702,100.46999 c 2.66165,-0.45118 5.32531,-1.322348 7.52527,-2.911076 1.38808,-1.513027 2.28277,-2.565387 0.006,-3.465482 -2.83328,-0.831742 -5.58765,0.749665 -7.64198,2.599011 -1.79251,2.419521 -1.69782,4.208177 0.78544,5.924187 2.72697,1.47533 5.71828,1.34212 8.69773,1.06577 0.44941,-0.0942 0.89883,-0.18838 1.34825,-0.28256 0,0 0.24392,1.17986 0.24392,1.17986 l 0,0 c -0.49376,0.10081 -0.98753,0.20161 -1.48129,0.30241 -3.27483,0.30163 -6.55077,0.38576 -9.51714,-1.29103 -3.16711,-2.39296 -3.23425,-4.659924 -0.87749,-7.799004 2.44759,-2.152944 5.62291,-3.854409 8.94002,-2.79597 3.19649,1.575781 2.31551,3.37748 0.19585,5.544063 -2.35931,1.661291 -5.14551,2.644441 -7.98807,3.111241 0,0 -0.23629,-1.18142 -0.23629,-1.18142 z"
     inkscape:connector-curvature="0" />
  <path
     style="color:#000000;fill:#00000e;fill-opacity:1;fill-rule:nonzero;stroke:none;stroke-width:3;marker:none;visibility:visible;display:inline;overflow:visible;enable-background:accumulate"
     id="path3995"
     d="m 347.43805,128.67458 c -0.41329,2.52754 -0.64962,5.07784 -0.83576,7.63054 0,0 -1.20162,-0.0877 -1.20162,-0.0877 l 0,0 c 0.18917,-2.58964 0.4293,-5.17683 0.84895,-7.74091 0,0 1.18843,0.19807 1.18843,0.19807 z"
     inkscape:connector-curvature="0" />
  <path
     style="color:#000000;fill:#00000e;fill-opacity:1;fill-rule:nonzero;stroke:none;stroke-width:3;marker:none;visibility:visible;display:inline;overflow:visible;enable-background:accumulate"
     id="path3997"
     d="m 350,127.37073 c -0.0743,3.31778 0.16759,6.6496 -0.14693,9.95611 -0.16186,1.08598 -0.23114,1.27466 -0.2557,2.25601 -0.004,0.14663 0.16005,0.48162 0.0195,0.4396 -1.08269,-0.32375 -0.52638,-1.15201 -0.27709,-1.7212 1.01796,-2.65954 1.93105,-5.40704 3.35996,-7.88176 1.93884,-2.00804 2.4365,2.82561 2.6527,3.86849 0.0682,0.41669 0.14445,0.83213 0.20453,1.25006 0.10729,0.74629 0.12478,1.50605 0.27248,2.2454 0.0568,0.28449 0.23376,1.04524 0.36865,0.7884 0.0454,-0.0865 -0.0852,-0.1759 -0.12774,-0.26385 -0.016,-0.0876 -0.0818,-0.18044 -0.048,-0.26285 0.27243,-0.66484 0.75575,-1.22407 1.08224,-1.86409 0.71182,-1.39538 1.35937,-2.80243 2.11919,-4.17519 1.0976,-1.86904 2.90385,-3.81496 3.79653,-0.55159 0.37517,2.01984 0.50048,4.19746 1.54764,6.00068 0,0 -1.05075,0.58951 -1.05075,0.58951 l 0,0 c -1.05422,-1.93103 -1.32791,-4.14589 -1.66615,-6.29965 -0.0438,-0.20809 -0.18594,-0.53908 -0.0863,-0.7841 0.0258,-0.0636 0.18486,-0.14874 0.11899,-0.16803 -0.63343,-0.18558 -1.37264,1.65596 -1.60608,1.79707 -1.29271,2.33092 -2.13376,5.15207 -4.17372,6.92259 -0.29599,-0.0809 -0.62786,-0.0799 -0.88798,-0.24265 -1.2501,-0.78225 -0.47837,-3.62106 -1.04336,-4.73765 -0.0633,-0.30686 -0.79319,-3.42728 -0.76474,-3.45688 0.14247,-0.14819 0.36742,-0.20313 0.5707,-0.23369 0.0989,-0.0149 -0.15815,0.12236 -0.23722,0.18354 -1.42134,2.42614 -2.27924,5.15388 -3.29887,7.76169 -1.7633,3.98645 -2.55409,0.4452 -1.78862,-1.57612 0.32309,-3.26597 0.055,-6.56212 0.14131,-9.83985 0,0 1.20482,0 1.20482,0 z"
     inkscape:connector-curvature="0" />
  <path
     style="color:#000000;fill:#00000e;fill-opacity:1;fill-rule:nonzero;stroke:none;stroke-width:3;marker:none;visibility:visible;display:inline;overflow:visible;enable-background:accumulate"
     id="path3999"
     d="m 376.17052,132.5797 c -2.16288,-1.64138 -4.26481,-1.85828 -6.75207,-0.93249 -1.69593,0.92693 -3.65203,2.87129 -2.23719,4.78612 1.88719,1.55687 3.74544,0.10833 5.17254,-1.29234 0.58765,-0.82456 3.54742,-5.35112 3.44361,-1.22176 -0.15199,1.23166 -0.2704,2.38596 0.14139,3.56865 0,0 -1.14742,0.36745 -1.14742,0.36745 l 0,0 c -0.40161,-1.33618 -0.4125,-2.60661 -0.19766,-3.98822 0.0128,-0.18246 -0.1157,-0.44894 0.0385,-0.54737 0.1831,-0.11691 0.42472,0.11972 0.64186,0.11299 0.053,-0.002 0.12165,-0.17243 0.0836,-0.13548 -0.83439,0.80948 -1.39165,1.84592 -2.1649,2.70851 -2.14318,2.05801 -4.48033,3.42181 -7.03301,1.06633 -0.19865,-0.35233 -0.47937,-0.66968 -0.59595,-1.05699 -0.72936,-2.42302 1.56931,-4.49704 3.44435,-5.50067 3.06756,-1.0855 5.21514,-0.81982 7.88531,1.10141 0,0 -0.72289,0.96386 -0.72289,0.96386 z"
     inkscape:connector-curvature="0" />
  <path
     style="color:#000000;fill:#00000e;fill-opacity:1;fill-rule:nonzero;stroke:none;stroke-width:3;marker:none;visibility:visible;display:inline;overflow:visible;enable-background:accumulate"
     id="path4001"
     d="m 388.31075,129.16624 c -2.49032,-0.80007 -4.65794,0.60796 -6.30577,2.36989 -0.98499,1.79267 -0.84036,2.86733 1.23028,3.15494 2.20085,-0.19218 3.78437,-1.8737 4.97808,-3.59209 0.17271,-0.34516 0.37981,-0.67516 0.51814,-1.03548 0.15859,-0.41311 0.26448,-1.05293 0.296,-1.51534 0.005,-0.0722 -0.085,-0.23881 -0.0161,-0.21653 1.31027,0.42392 1.09611,0.30573 0.9864,1.27914 -0.26726,4.08457 -0.1251,8.17807 -0.37865,12.26272 -0.8663,4.95934 -2.57126,7.94938 -7.08166,10.25579 -3.70008,1.57851 -7.30132,0.94781 -10.50446,-1.32415 -2.71761,-2.61024 -3.88229,-5.7147 -3.18155,-9.43528 0,0 1.18025,0.24208 1.18025,0.24208 l 0,0 c -0.68791,3.03562 0.4826,6.08485 2.70618,8.2161 2.79391,2.05561 5.99484,2.59304 9.25761,1.22521 3.984,-1.97207 5.69054,-4.89007 6.42116,-9.25483 0.25801,-4.10785 0.1029,-8.2258 0.38512,-12.33319 0.12837,-0.99545 -0.11416,-1.33026 1.41358,-1.17873 0.38793,0.0385 -0.73558,3.24089 -1.01633,3.50538 -1.49364,2.10299 -3.4359,4.01818 -6.16775,4.08662 -3.07231,-0.59829 -3.44064,-2.63922 -1.8992,-5.17275 2.05309,-2.12747 4.70712,-3.68272 7.71752,-2.61712 0,0 -0.53881,1.07762 -0.53881,1.07762 z"
     inkscape:connector-curvature="0" />
  <path
     style="color:#000000;fill:#00000e;fill-opacity:1;fill-rule:nonzero;stroke:none;stroke-width:3;marker:none;visibility:visible;display:inline;overflow:visible;enable-background:accumulate"
     id="path4003"
     d="m 395.78313,126.16591 c 0.0931,3.19807 -0.0499,6.37515 -0.34564,9.55846 0,0 -1.19964,-0.1116 -1.19964,-0.1116 l 0,0 c 0.29302,-3.14625 0.43309,-6.28589 0.34046,-9.44686 0,0 1.20482,0 1.20482,0 z"
     inkscape:connector-curvature="0" />
  <path
     style="color:#000000;fill:#00000e;fill-opacity:1;fill-rule:nonzero;stroke:none;stroke-width:3;marker:none;visibility:visible;display:inline;overflow:visible;enable-background:accumulate"
     id="path4005"
     d="m 399.39759,126.16591 c 0.11721,2.92981 -0.22295,5.89471 0.13978,8.80863 0.0607,0.21412 0.0773,0.44601 0.18202,0.64235 0.0157,0.0293 0.11097,-0.27245 0.44361,-0.65059 0.67797,-0.77069 0.60123,-0.69288 1.32326,-1.56625 1.34938,-1.56736 3.1752,-4.3275 4.65362,-1.21327 0.48859,1.99323 0.29706,4.0276 0.97139,5.9783 0,0 -1.14231,0.38305 -1.14231,0.38305 l 0,0 c -0.63367,-1.93897 -0.59573,-3.91243 -0.94458,-5.90611 -0.0478,-0.16825 -0.13642,-0.32998 -0.1435,-0.50476 -0.003,-0.086 0.17348,-0.16988 0.11366,-0.23172 -0.39518,-0.40851 -2.40086,1.9942 -2.57989,2.26242 -1.02487,1.23846 -3.28647,4.29093 -4.07343,0.95083 -0.34747,-2.96602 -0.0514,-5.97205 -0.14845,-8.95288 0,0 1.20482,0 1.20482,0 z"
     inkscape:connector-curvature="0" />
  <path
     style="color:#000000;fill:#00000e;fill-opacity:1;fill-rule:nonzero;stroke:none;stroke-width:3;marker:none;visibility:visible;display:inline;overflow:visible;enable-background:accumulate"
     id="path4007"
     d="m 420.77247,131.11028 c -1.69223,-2.0805 -4.06523,-2.21544 -6.48813,-1.57254 -2.47041,1.22099 -4.28515,3.298 -4.28441,6.11711 0.44379,2.22433 2.08134,2.60659 4.04033,2.06501 2.67397,-1.17489 4.52016,-3.52722 5.82111,-6.06459 0.46891,-0.77891 0.53213,-2.80576 1.70079,-0.76255 0.13014,0.22755 -0.0865,0.51719 -0.12078,0.77708 -0.0406,0.30822 -0.0692,0.6179 -0.10383,0.92686 -0.0275,0.34455 -0.055,0.68911 -0.0825,1.03367 0,0 -1.20096,-0.0963 -1.20096,-0.0963 l 0,0 c 0.0288,-0.35741 0.0575,-0.71483 0.0863,-1.07225 0.0322,-0.2845 0.18916,-1.7788 0.24498,-1.82705 2.25281,-1.9472 0.92924,1.16413 0.54644,1.57365 -1.47707,2.8379 -3.5566,5.43321 -6.5939,6.67894 -2.96223,0.70654 -4.91877,-0.064 -5.54246,-3.25739 0.12979,-3.52662 2.05812,-5.75406 5.19055,-7.25949 2.91212,-0.72077 5.74383,-0.46827 7.75041,2.01692 0,0 -0.96385,0.72289 -0.96385,0.72289 z"
     inkscape:connector-curvature="0" />
  <path
     style="color:#000000;fill:#00000e;fill-opacity:1;fill-rule:nonzero;stroke:none;stroke-width:3;marker:none;visibility:visible;display:inline;overflow:visible;enable-background:accumulate"
     id="path4009"
     d="m 427.10843,130.84107 c 0,1.94508 0,3.89016 0,5.83524 -0.4016,-0.0989 -0.89296,-0.025 -1.20482,-0.29668 -0.51631,-0.44979 0.71379,-5.09186 0.9151,-5.74944 0.86334,-2.80835 2.6935,-4.48948 5.40551,-5.41762 3.25628,-0.61951 2.03599,1.71481 1.30104,3.5479 -0.80413,2.21092 -1.63414,4.44709 -0.67666,6.70542 0.2067,-0.29607 0.36908,-0.62864 0.6201,-0.88819 2.62417,-2.71346 0.53647,0.14177 3.15118,-3.16495 1.06154,-1.34248 1.91678,-2.858 2.88885,-4.2657 2.91809,-2.37085 2.14517,6.13964 2.14932,7.07226 -0.0228,4.64059 0.007,9.62005 -2.35963,13.78705 -0.42157,0.74221 -0.99328,1.38844 -1.48992,2.08266 -4.44823,4.01507 -9.36777,4.64208 -15.13198,4.06109 -4.06731,-0.70856 -7.73245,-2.36133 -10.82865,-5.06815 0,0 0.79619,-0.90425 0.79619,-0.90425 l 0,0 c 2.88642,2.56163 6.35243,4.08542 10.15664,4.774 5.1726,0.55164 9.98993,-0.003 14.03134,-3.56846 0.45575,-0.62346 0.98118,-1.20152 1.36726,-1.87036 2.30902,-4.0002 2.2182,-8.82627 2.25395,-13.28825 -0.001,-0.26596 -0.20777,-6.25508 -0.16858,-6.32568 0.0921,-0.16599 0.33752,-0.17856 0.51877,-0.23502 0.11039,-0.0344 -0.20231,0.11197 -0.30346,0.16796 -1.57423,2.27732 -4.07676,6.77455 -6.59032,7.86702 -0.66968,0.29106 -1.45348,0.14209 -2.18022,0.21314 -1.03213,-2.71794 -0.30225,-4.96663 0.67755,-7.59998 0.19572,-0.4881 0.51013,-1.27745 0.72336,-1.7923 0.0752,-0.18159 0.17384,-0.68148 0.54426,-0.18217 0.21191,0.28564 -1.87008,-0.82362 -1.06683,0.0171 -2.35584,0.77349 -3.89185,2.19555 -4.63712,4.62847 -0.48609,1.58478 -0.86223,2.9793 -0.86223,4.64354 0,0.25097 0.18924,0.58807 0,0.75292 -0.31186,0.27168 -0.80321,0.19778 -1.20482,0.29668 0,-1.94508 0,-3.89016 0,-5.83524 0,0 1.20482,0 1.20482,0 z"
     inkscape:connector-curvature="0" />
  <path
     style="color:#000000;fill:#00000e;fill-opacity:1;fill-rule:nonzero;stroke:none;stroke-width:3;marker:none;visibility:visible;display:inline;overflow:visible;enable-background:accumulate"
     id="path4011"
     d="m 472.77339,124.6988 c -2.81042,-0.2055 -5.36496,0.25317 -7.7984,1.67773 -1.54932,1.23878 -2.87757,2.99387 -1.85896,4.94502 2.32608,1.09473 4.34208,0.45286 6.14815,-1.1859 0.79807,-0.82313 1.22459,-2.40669 2.02252,-0.24003 0.0881,0.23925 -0.14904,0.48979 -0.18462,0.74225 -0.0304,0.21609 -0.008,0.43636 -0.0122,0.65454 0.0711,0.9798 -0.0273,0.52238 0.26609,1.37823 0,0 -1.14941,0.36118 -1.14941,0.36118 l 0,0 c -0.34743,-1.17942 -0.24331,-0.58373 -0.32061,-1.78562 0.007,-0.14165 0.0251,-1.58043 0.25339,-1.71806 2.72086,-1.64039 0.16159,1.38236 -0.0763,1.5095 -2.50343,2.17274 -5.19558,2.92039 -8.04014,0.79032 -1.12235,-2.63053 0.17452,-4.84629 2.34954,-6.4947 2.62939,-1.50113 5.37363,-2.06672 8.40105,-1.83928 0,0 0,1.20482 0,1.20482 z"
     inkscape:connector-curvature="0" />
  <path
     style="color:#000000;fill:#00000e;fill-opacity:1;fill-rule:nonzero;stroke:none;stroke-width:3;marker:none;visibility:visible;display:inline;overflow:visible;enable-background:accumulate"
     id="path4013"
     d="m 475.70123,120.63243 c 2.96847,2.89858 6.08512,5.66622 9.44865,8.09908 1.99183,1.455 4.07794,2.7706 6.07672,4.21359 0,0 -0.7057,0.97651 -0.7057,0.97651 l 0,0 c -1.99759,-1.44514 -4.08719,-2.75667 -6.07762,-4.21424 -3.41278,-2.47361 -6.58182,-5.27733 -9.59398,-8.22301 0,0 0.85193,-0.85193 0.85193,-0.85193 z"
     inkscape:connector-curvature="0" />
  <path
     style="color:#000000;fill:#00000e;fill-opacity:1;fill-rule:nonzero;stroke:none;stroke-width:3;marker:none;visibility:visible;display:inline;overflow:visible;enable-background:accumulate"
     id="path4015"
     d="m 487.73678,120.19139 c -3.25854,2.43332 -6.2035,5.23181 -9.12065,8.05658 -1.41506,1.23948 -2.60377,2.66755 -3.72087,4.16948 0,0 -0.96558,-0.72058 -0.96558,-0.72058 l 0,0 c 1.16021,-1.5498 2.38516,-3.03205 3.84834,-4.31444 2.95358,-2.85982 5.93733,-5.69068 9.23587,-8.1549 0,0 0.72289,0.96386 0.72289,0.96386 z"
     inkscape:connector-curvature="0" />
  <path
     style="color:#000000;fill:#00000e;fill-opacity:1;fill-rule:nonzero;stroke:none;stroke-width:3;marker:none;visibility:visible;display:inline;overflow:visible;enable-background:accumulate"
     id="path4017"
     d="m 495.62732,122.52547 c -0.56735,2.92836 -0.75869,5.90975 -0.91428,8.88295 0,0 -1.20317,-0.063 -1.20317,-0.063 l 0,0 c 0.15896,-3.03136 0.35621,-6.07082 0.93602,-9.0562 0,0 1.18143,0.23628 1.18143,0.23628 z"
     inkscape:connector-curvature="0" />
  <path
     style="color:#000000;fill:#00000e;fill-opacity:1;fill-rule:nonzero;stroke:none;stroke-width:3;marker:none;visibility:visible;display:inline;overflow:visible;enable-background:accumulate"
     id="path4019"
     d="m 508.79983,122.13334 c -2.34267,-0.24725 -5.02767,-1.36323 -7.22381,-0.14743 -0.75186,1.8263 1.8928,3.78751 2.95945,5.03828 1.91532,2.54806 3.44035,4.55525 -0.0562,6.45265 -2.83945,0.84996 -5.94562,0.44365 -8.81408,-0.11971 0,0 0.23456,-1.18177 0.23456,-1.18177 l 0,0 c 2.60072,0.52213 5.4339,0.89316 8.02931,0.22963 2.87577,-1.36021 1.0406,-2.53074 -0.31043,-4.59909 -1.60585,-1.88374 -4.79196,-4.38221 -2.58386,-6.89641 2.56516,-1.20425 5.31111,-0.38256 8.0013,0.0424 0,0 -0.23628,1.18142 -0.23628,1.18142 z"
     inkscape:connector-curvature="0" />
  <path
     style="color:#000000;fill:#00000e;fill-opacity:1;fill-rule:nonzero;stroke:none;stroke-width:3;marker:none;visibility:visible;display:inline;overflow:visible;enable-background:accumulate"
     id="path4021"
     d="m 333.39068,116.70952 c -5.15426,4.08096 -11.27845,6.61121 -17.36339,8.94293 -8.41443,2.82119 -16.89321,5.43667 -25.31267,8.24427 -3.50248,0.56309 -6.55,2.79051 -9.9926,3.4804 0.007,-0.56063 -0.15109,-1.14855 0.0219,-1.68188 0.19615,-0.60485 4.3495,-4.72629 5.06314,-5.56637 1.68059,-2.14247 3.52017,-4.19069 4.99085,-6.48849 0.0143,-0.10364 0.0432,-0.20629 0.043,-0.31091 -1.7e-4,-0.065 -0.0824,0.13825 -0.0433,0.19017 0.14384,0.19085 0.58718,0.23586 0.5411,0.47036 -0.0163,0.083 -2.07245,1.0791 -2.61219,1.40981 -2.98752,1.72601 -5.68206,3.87768 -8.28253,6.13029 -1.25941,0.87992 -2.30232,2.01797 -3.53471,2.93082 -0.71337,0.5284 -1.51224,0.91141 -2.13855,1.5455 0.12375,-0.23256 0.19148,-0.58558 0.53301,-0.59753 2.1139,-0.0739 4.45497,0.51685 6.52067,0.87506 4.55318,0.81272 9.07541,1.79378 13.60424,2.73285 1.98312,0.37789 3.97337,0.69104 5.9539,1.0823 0,0 -0.23373,1.18193 -0.23373,1.18193 l 0,0 c -1.984,-0.39276 -3.97843,-0.70386 -5.96481,-1.08451 -4.51605,-0.9366 -9.02554,-1.91495 -13.56587,-2.72554 -0.98801,-0.17204 -7.1485,-0.67965 -7.65821,-1.35425 -0.19583,-0.25919 -0.0194,-0.64941 -0.0291,-0.97412 1.75197,-1.65732 4.03823,-2.7606 5.72443,-4.52328 2.65115,-2.29533 5.39865,-4.48711 8.44292,-6.24751 0.79902,-0.48727 4.70471,-3.13574 3.71342,-0.0803 -1.50729,2.33856 -3.36537,4.43818 -5.08679,6.61791 -1.05739,1.24164 -2.17911,2.40419 -3.28742,3.59965 -0.32461,0.35014 -0.64743,0.70195 -0.96741,1.05633 -0.27169,0.30091 -0.4212,0.78654 -0.80753,0.90947 -0.38134,0.12135 -0.77812,-0.18739 -1.16718,-0.28109 3.24545,-0.57994 6.49709,-2.98891 9.83826,-3.44006 8.40276,-2.80201 16.86421,-5.41381 25.26292,-8.22645 5.96965,-2.28471 11.98262,-4.75958 17.04162,-8.7586 0,0 0.75265,0.9408 0.75265,0.9408 z"
     inkscape:connector-curvature="0" />
</svg>
