<?xml version="1.0" encoding="UTF-8" standalone="no"?>
<!-- Created with Inkscape (http://www.inkscape.org/) -->

<svg
   xmlns:dc="http://purl.org/dc/elements/1.1/"
   xmlns:cc="http://creativecommons.org/ns#"
   xmlns:rdf="http://www.w3.org/1999/02/22-rdf-syntax-ns#"
   xmlns:svg="http://www.w3.org/2000/svg"
   xmlns="http://www.w3.org/2000/svg"
   xmlns:sodipodi="http://sodipodi.sourceforge.net/DTD/sodipodi-0.dtd"
   xmlns:inkscape="http://www.inkscape.org/namespaces/inkscape"
   width="900"
   height="250"
   id="svg2"
   version="1.1"
   inkscape:version="0.48.3.1 r9886"
   sodipodi:docname="staggered.png">
  <defs
     id="defs4" />
  <sodipodi:namedview
     id="base"
     pagecolor="#ffffff"
     bordercolor="#666666"
     borderopacity="1.0"
     inkscape:pageopacity="0.0"
     inkscape:pageshadow="2"
     inkscape:zoom="0.7"
     inkscape:cx="461.46032"
     inkscape:cy="139.63719"
     inkscape:document-units="px"
     inkscape:current-layer="layer1"
     showgrid="false"
     showguides="true"
     inkscape:guide-bbox="true"
     inkscape:window-width="835"
     inkscape:window-height="696"
     inkscape:window-x="348"
     inkscape:window-y="249"
     inkscape:window-maximized="0" />
  <metadata
     id="metadata7">
    <rdf:RDF>
      <cc:Work
         rdf:about="">
        <dc:format>image/svg+xml</dc:format>
        <dc:type
           rdf:resource="http://purl.org/dc/dcmitype/StillImage" />
        <dc:title></dc:title>
      </cc:Work>
    </rdf:RDF>
  </metadata>
  <g
     inkscape:label="Layer 1"
     inkscape:groupmode="layer"
     id="layer1"
     transform="translate(0,-802.36218)">
    <path
       style="fill:none;stroke:#000000;stroke-width:1.21579921px;stroke-linecap:butt;stroke-linejoin:miter;stroke-opacity:1"
       d="M 138.81202,935.50504 759.64243,932.6479"
       id="path2985"
       inkscape:connector-curvature="0" />
    <path
       style="color:#000000;fill:#000000;fill-opacity:1;fill-rule:nonzero;stroke:#000000;stroke-width:0.25;stroke-linecap:butt;stroke-linejoin:miter;stroke-miterlimit:4;stroke-opacity:1;stroke-dasharray:none;stroke-dashoffset:0;marker:none;visibility:visible;display:inline;overflow:visible;enable-background:accumulate"
       id="path3773"
       d="m 460.80779,986.93323 c -0.70437,4.2287 -1.42338,8.45226 -1.94138,12.71008 -0.003,3.63699 -0.91111,6.92799 2.61369,9.02909 2.96924,0.8382 5.12217,-0.8449 6.55765,-3.2765 0.1889,-0.4712 0.37779,-0.9423 0.56669,-1.4134 0,0 1.32288,0.5393 1.32288,0.5393 l 0,0 c -0.22242,0.5378 -0.44484,1.0757 -0.66726,1.6135 -2.02027,3.2732 -4.62636,4.9911 -8.54105,3.746 -4.03179,-2.6419 -3.3838,-6.0379 -3.27071,-10.41061 0.52566,-4.3161 1.2515,-8.59863 1.97357,-12.88393 0,0 1.38592,0.34647 1.38592,0.34647 z"
       inkscape:connector-curvature="0" />
    <path
       style="color:#000000;fill:#000000;fill-opacity:1;fill-rule:nonzero;stroke:#000000;stroke-width:0.25;stroke-linecap:butt;stroke-linejoin:miter;stroke-miterlimit:4;stroke-opacity:1;stroke-dasharray:none;stroke-dashoffset:0;marker:none;visibility:visible;display:inline;overflow:visible;enable-background:accumulate"
       id="path3775"
       d="m 297.75001,989.76758 c -1.7953,4.19802 -2.82275,8.73035 -3.14349,13.27722 0.37045,3.9258 3.08875,5.3762 6.74582,5.3267 2.30058,-0.2905 1.17055,-0.063 3.39071,-0.6782 0,0 0.37542,1.3783 0.37542,1.3783 l 0,0 c -2.47797,0.6648 -1.22291,0.4224 -3.76498,0.7285 -4.81277,-0.047 -7.63027,-1.835 -8.17183,-6.8582 0.34637,-4.69289 1.38345,-9.37023 3.24195,-13.70487 0,0 1.3264,0.53055 1.3264,0.53055 z"
       inkscape:connector-curvature="0" />
    <path
       style="color:#000000;fill:#000000;fill-opacity:1;fill-rule:nonzero;stroke:#000000;stroke-width:0.25;stroke-linecap:butt;stroke-linejoin:miter;stroke-miterlimit:4;stroke-opacity:1;stroke-dasharray:none;stroke-dashoffset:0;marker:none;visibility:visible;display:inline;overflow:visible;enable-background:accumulate"
       id="path3777"
       d="m 309.36743,994.92691 c 5.00013,-0.84011 10.09094,-0.95662 15.14855,-1.11793 4.30287,-0.0187 8.61961,-0.35091 12.91304,0.006 0,0 -0.12063,1.42347 -0.12063,1.42347 l 0,0 c -4.23643,-0.36586 -8.50063,-0.006 -12.74689,-0.002 -4.95684,0.15791 -9.94413,0.27416 -14.84759,1.076 0,0 -0.34648,-1.38592 -0.34648,-1.38592 z"
       inkscape:connector-curvature="0" />
    <path
       style="color:#000000;fill:#000000;fill-opacity:1;fill-rule:nonzero;stroke:#000000;stroke-width:0.25;stroke-linecap:butt;stroke-linejoin:miter;stroke-miterlimit:4;stroke-opacity:1;stroke-dasharray:none;stroke-dashoffset:0;marker:none;visibility:visible;display:inline;overflow:visible;enable-background:accumulate"
       id="path3781"
       d="m 574.29711,978.79372 c -2.08117,4.68753 -3.3733,9.68446 -3.98301,14.76461 -0.366,4.72488 -0.21612,8.40877 4.16022,10.93047 2.19367,0.6876 4.38365,0.2452 6.51143,-0.4316 0,0 0.42456,1.3641 0.42456,1.3641 l 0,0 c -2.5367,0.7746 -5.08775,1.2419 -7.66473,0.2962 -4.88281,-2.9649 -5.28649,-6.9136 -4.84967,-12.33113 0.64166,-5.24077 1.96046,-10.39916 4.12345,-15.23153 0,0 1.27775,0.63888 1.27775,0.63888 z"
       inkscape:connector-curvature="0" />
    <path
       style="color:#000000;fill:#000000;fill-opacity:1;fill-rule:nonzero;stroke:#000000;stroke-width:0.25;stroke-linecap:butt;stroke-linejoin:miter;stroke-miterlimit:4;stroke-opacity:1;stroke-dasharray:none;stroke-dashoffset:0;marker:none;visibility:visible;display:inline;overflow:visible;enable-background:accumulate"
       id="path3783"
       d="m 603.28571,980.07373 c -0.4275,4.74326 -1.19842,9.43991 -1.82277,14.15858 -0.37931,4.16349 -1.20154,8.26709 -1.80748,12.40019 0,0 -1.41345,-0.2072 -1.41345,-0.2072 l 0,0 c 0.60532,-4.1265 1.42589,-8.2236 1.80471,-12.38043 0.6165,-4.65678 1.37187,-9.29199 1.81042,-13.97114 0,0 1.42857,0 1.42857,0 z"
       inkscape:connector-curvature="0" />
    <path
       style="color:#000000;fill:#000000;fill-opacity:1;fill-rule:nonzero;stroke:#000000;stroke-width:0.25;stroke-linecap:butt;stroke-linejoin:miter;stroke-miterlimit:4;stroke-opacity:1;stroke-dasharray:none;stroke-dashoffset:0;marker:none;visibility:visible;display:inline;overflow:visible;enable-background:accumulate"
       id="path3785"
       d="m 586.97357,993.99753 c 4.12689,-2.02584 8.69819,-2.7458 13.20883,-3.343 3.68741,-0.42037 7.39773,-0.55284 11.10435,-0.66827 0,0 0.0444,1.42789 0.0444,1.42789 l 0,0 c -3.65891,0.11372 -7.3215,0.24361 -10.96164,0.65664 -4.2995,0.56689 -8.64372,1.24754 -12.60353,3.11538 0,0 -0.79243,-1.18864 -0.79243,-1.18864 z"
       inkscape:connector-curvature="0" />
    <path
       style="color:#000000;fill:#000000;fill-opacity:1;fill-rule:nonzero;stroke:#000000;stroke-width:0.17109925;stroke-linecap:butt;stroke-linejoin:miter;stroke-miterlimit:4;stroke-opacity:1;stroke-dasharray:none;stroke-dashoffset:0;marker:none;visibility:visible;display:inline;overflow:visible;enable-background:accumulate"
       id="path3789"
       d="m 297.36452,979.8676 c -0.24364,0.31561 -0.92567,2.01883 -0.25196,1.93469 0.70405,0.0122 0.94407,-1.36717 0.82524,-2.69355 -0.31302,-1.34017 -0.85144,-0.88089 -1.02529,0.35086 0.0801,0.64374 0.3867,0.7921 0.6552,0.86722 0,0 -0.13914,1.41411 -0.13914,1.41411 l 0,0 c -0.68644,-0.3932 -1.21099,-1.10064 -1.12456,-2.84548 0.5792,-2.62634 1.73532,-2.80895 2.28895,0.0243 0.10308,2.3889 -0.43931,4.51749 -1.65893,4.2753 -1.16783,-0.97938 -0.74446,-3.18826 0.0639,-4.53104 0,0 0.36657,1.2036 0.36657,1.2036 z"
       inkscape:connector-curvature="0" />
    <path
       style="color:#000000;fill:#000000;fill-opacity:1;fill-rule:nonzero;stroke:#000000;stroke-width:0.17109925;stroke-linecap:butt;stroke-linejoin:miter;stroke-miterlimit:4;stroke-opacity:1;stroke-dasharray:none;stroke-dashoffset:0;marker:none;visibility:visible;display:inline;overflow:visible;enable-background:accumulate"
       id="path3789-7"
       d="m 461.38349,977.62149 c -0.24364,0.31561 -0.92567,2.01883 -0.25196,1.93469 0.70405,0.0122 0.94407,-1.36717 0.82524,-2.69355 -0.31302,-1.34017 -0.85144,-0.88089 -1.02529,0.35086 0.0801,0.64374 0.3867,0.7921 0.6552,0.86722 0,0 -0.13914,1.41411 -0.13914,1.41411 l 0,0 c -0.68644,-0.3932 -1.21099,-1.10064 -1.12456,-2.84548 0.5792,-2.62634 1.73532,-2.80895 2.28895,0.0243 0.10308,2.3889 -0.43931,4.51749 -1.65893,4.2753 -1.16783,-0.97938 -0.74446,-3.18826 0.0639,-4.53104 0,0 0.36657,1.2036 0.36657,1.2036 z"
       inkscape:connector-curvature="0" />
    <path
       style="color:#000000;fill:#000000;fill-opacity:1;fill-rule:nonzero;stroke:#000000;stroke-width:0.17109925;stroke-linecap:butt;stroke-linejoin:miter;stroke-miterlimit:4;stroke-opacity:1;stroke-dasharray:none;stroke-dashoffset:0;marker:none;visibility:visible;display:inline;overflow:visible;enable-background:accumulate"
       id="path3789-7-4"
       d="m 573.38349,970.19292 c -0.24364,0.31561 -0.92567,2.01883 -0.25196,1.93469 0.70405,0.0122 0.94407,-1.36717 0.82524,-2.69355 -0.31302,-1.34017 -0.85144,-0.88089 -1.02529,0.35086 0.0801,0.64374 0.3867,0.7921 0.6552,0.86722 0,0 -0.13914,1.41411 -0.13914,1.41411 l 0,0 c -0.68644,-0.3932 -1.21099,-1.10064 -1.12456,-2.84548 0.5792,-2.62634 1.73532,-2.80895 2.28895,0.0243 0.10308,2.3889 -0.43931,4.51749 -1.65893,4.2753 -1.16783,-0.97938 -0.74446,-3.18826 0.0639,-4.53104 0,0 0.36657,1.2036 0.36657,1.2036 z"
       inkscape:connector-curvature="0" />
    <path
       style="color:#000000;fill:#000000;fill-opacity:1;fill-rule:nonzero;stroke:#000000;stroke-width:0.23003161;stroke-linecap:butt;stroke-linejoin:miter;stroke-miterlimit:4;stroke-opacity:1;stroke-dasharray:none;stroke-dashoffset:0;marker:none;visibility:visible;display:inline;overflow:visible;enable-background:accumulate"
       id="path3835"
       d="m 455.22968,857.90976 c 0,4.38061 0,8.76121 0,13.14181 -0.33421,5.43926 -0.8273,10.86611 -1.10472,16.30907 -0.18653,2.05468 -0.51259,4.09394 -0.81623,6.13484 0,0 -1.33501,-0.17944 -1.33501,-0.17944 l 0,0 c 0.29789,-2.00198 0.61775,-4.00231 0.80454,-6.01742 0.27652,-5.4223 0.76389,-10.8288 1.10314,-16.24705 0,-4.3806 0,-8.7612 0,-13.14181 0,0 1.34828,0 1.34828,0 z"
       inkscape:connector-curvature="0" />
    <path
       style="color:#000000;fill:#000000;fill-opacity:1;fill-rule:nonzero;stroke:#000000;stroke-width:0.20843761;stroke-linecap:butt;stroke-linejoin:miter;stroke-miterlimit:4;stroke-opacity:1;stroke-dasharray:none;stroke-dashoffset:0;marker:none;visibility:visible;display:inline;overflow:visible;enable-background:accumulate"
       id="path3837"
       d="m 440.57997,864.21703 c 1.0207,-3.57662 4.11831,-5.38563 6.91258,-6.77174 4.76832,-1.86564 8.37092,-1.40754 12.75658,1.34507 2.36153,1.98781 4.91469,5.07649 4.69289,8.77799 -0.037,0.61784 -0.24662,1.2053 -0.36992,1.80795 -1.48024,4.07132 -4.73383,5.80777 -8.1928,6.94228 -2.96789,0.58141 -6.11361,1.35391 -9.06436,0.3578 -1.18103,-0.87488 -0.69823,-0.32123 -1.4598,-1.64753 0,0 0.95294,-0.65217 0.95294,-0.65217 l 0,0 c 0.33428,0.83205 0.0828,0.45055 0.82863,1.07353 2.71373,1.00274 5.70414,0.0929 8.44257,-0.36517 3.06902,-0.99345 6.0348,-2.4508 7.42075,-6.02827 1.00348,-4.08293 -1.1008,-6.78366 -3.78269,-9.14245 -3.95733,-2.53701 -7.46845,-3.00375 -11.79101,-1.29 -2.46433,1.20692 -5.32297,2.77173 -6.27239,5.90352 0,0 -1.07397,-0.31081 -1.07397,-0.31081 z"
       inkscape:connector-curvature="0" />
    <path
       style="color:#000000;fill:#000000;fill-opacity:1;fill-rule:nonzero;stroke:#000000;stroke-width:0.23003161;stroke-linecap:butt;stroke-linejoin:miter;stroke-miterlimit:4;stroke-opacity:1;stroke-dasharray:none;stroke-dashoffset:0;marker:none;visibility:visible;display:inline;overflow:visible;enable-background:accumulate"
       id="path3839"
       d="m 467.50982,883.31365 c -1.03285,2.6915 -1.80173,5.52997 -1.83827,8.40458 0.27212,2.40603 2.00365,3.30376 4.25656,3.83951 1.19002,0.31705 2.24201,0.15871 3.39141,-0.16105 0,0 0.3565,1.23589 0.3565,1.23589 l 0,0 c -1.38299,0.34171 -2.66572,0.54691 -4.08326,0.16639 -2.86311,-0.71415 -4.9828,-2.07542 -5.26931,-5.10213 0.0669,-3.06578 0.83638,-6.0943 1.98043,-8.95628 0,0 1.20594,0.57309 1.20594,0.57309 z"
       inkscape:connector-curvature="0" />
    <path
       style="color:#000000;fill:#000000;fill-opacity:1;fill-rule:nonzero;stroke:#000000;stroke-width:0.23003161;stroke-linecap:butt;stroke-linejoin:miter;stroke-miterlimit:4;stroke-opacity:1;stroke-dasharray:none;stroke-dashoffset:0;marker:none;visibility:visible;display:inline;overflow:visible;enable-background:accumulate"
       id="path3841"
       d="m 481.59572,845.61128 c 4.05925,4.63705 6.98659,9.97318 9.67246,15.40118 2.68713,5.70381 4.89633,11.68487 5.71543,17.91553 0.48854,3.71612 0.31043,4.6591 0.19057,8.34759 -0.76552,6.9059 -3.91418,12.26616 -8.8675,17.19567 -1.47753,1.43773 -3.19483,2.40737 -5.10507,3.19994 0,0 -0.53179,-1.1776 -0.53179,-1.1776 l 0,0 c 1.75405,-0.70148 3.30698,-1.60519 4.66269,-2.9083 4.72467,-4.68408 7.74595,-9.77584 8.49406,-16.35033 0.12232,-3.56884 0.29677,-4.48905 -0.17126,-8.08716 -0.79585,-6.11841 -2.97118,-11.99008 -5.60736,-17.59025 -2.65522,-5.37309 -5.55743,-10.6466 -9.57407,-15.23543 0,0 1.12184,-0.71084 1.12184,-0.71084 z"
       inkscape:connector-curvature="0" />
    <path
       style="color:#000000;fill:#000000;fill-opacity:1;fill-rule:nonzero;stroke:#000000;stroke-width:0.23003161;stroke-linecap:butt;stroke-linejoin:miter;stroke-miterlimit:4;stroke-opacity:1;stroke-dasharray:none;stroke-dashoffset:0;marker:none;visibility:visible;display:inline;overflow:visible;enable-background:accumulate"
       id="path3845"
       d="m 436.73017,847.66801 c -2.93571,1.02672 -5.01946,3.33694 -7.00312,5.53668 -3.12493,3.25007 -4.74845,7.26123 -5.78776,11.47847 -0.95301,4.9084 -1.20936,9.8902 -0.52113,14.83551 1.20017,5.40957 4.27292,9.62213 8.79971,12.96991 2.6601,1.82803 5.65396,3.01249 8.75188,3.96608 0,0 -0.41671,1.21876 -0.41671,1.21876 l 0,0 c -3.24576,-1.00589 -6.38271,-2.25132 -9.16607,-4.17562 -4.78803,-3.57997 -8.06136,-8.05583 -9.30564,-13.81248 -0.698,-5.10021 -0.4518,-10.23562 0.54552,-15.2957 1.09785,-4.41469 2.80873,-8.61388 6.07727,-12.01976 2.10166,-2.32238 4.32455,-4.75198 7.42308,-5.84805 0,0 0.60297,1.1462 0.60297,1.1462 z"
       inkscape:connector-curvature="0" />
    <path
       style="color:#000000;fill:#000000;fill-opacity:1;fill-rule:nonzero;stroke:#000000;stroke-width:0.15743293;stroke-linecap:butt;stroke-linejoin:miter;stroke-miterlimit:4;stroke-opacity:1;stroke-dasharray:none;stroke-dashoffset:0;marker:none;visibility:visible;display:inline;overflow:visible;enable-background:accumulate"
       id="path3789-6-8"
       d="m 468.8048,877.39242 c -0.22995,0.28312 -0.87365,1.81099 -0.2378,1.73551 0.66448,0.0109 0.89101,-1.22642 0.77886,-2.41624 -0.29543,-1.2022 -0.80359,-0.7902 -0.96767,0.31473 0.0756,0.57747 0.36497,0.71056 0.61838,0.77794 0,0 -0.13132,1.26853 -0.13132,1.26853 l 0,0 c -0.64786,-0.35272 -1.14293,-0.98733 -1.06136,-2.55254 0.54665,-2.35595 1.63779,-2.51976 2.16031,0.0218 0.0973,2.14296 -0.41462,4.05241 -1.5657,3.83515 -1.1022,-0.87855 -0.70262,-2.86002 0.0603,-4.06456 0,0 0.34597,1.07969 0.34597,1.07969 z"
       inkscape:connector-curvature="0" />
    <path
       style="fill:none;stroke:#000000;stroke-width:1px;stroke-linecap:butt;stroke-linejoin:miter;stroke-opacity:1"
       d="m 316.28571,915.21932 1.42858,38.57143"
       id="path3883"
       inkscape:connector-curvature="0" />
    <path
       style="fill:none;stroke:#000000;stroke-width:1px;stroke-linecap:butt;stroke-linejoin:miter;stroke-opacity:1"
       d="m 458.42857,911.64789 1.42858,38.57143"
       id="path3883-5"
       inkscape:connector-curvature="0" />
    <path
       style="fill:none;stroke:#000000;stroke-width:1px;stroke-linecap:butt;stroke-linejoin:miter;stroke-opacity:1"
       d="m 591.28571,915.36218 1.42858,38.57143"
       id="path3883-3"
       inkscape:connector-curvature="0" />
    <path
       style="color:#000000;fill:#000000;fill-opacity:1;fill-rule:nonzero;stroke:#000000;stroke-width:0.23003161;stroke-linecap:butt;stroke-linejoin:miter;stroke-miterlimit:4;stroke-opacity:1;stroke-dasharray:none;stroke-dashoffset:0;marker:none;visibility:visible;display:inline;overflow:visible;enable-background:accumulate"
       id="path3827-9"
       d="m 262.71953,864.80767 c 0.2597,-0.79026 0.15297,-3.39444 1.65758,-1.38122 0.0814,0.10881 -0.32347,1.56147 -0.3966,1.84597 -0.73888,2.8609 -1.07335,5.79015 -1.28606,8.72259 -0.20659,1.91864 -0.10462,4.0684 2.25332,4.43377 2.44799,-0.44567 3.77615,-2.91071 4.94457,-4.78169 1.24429,-2.52689 2.21092,-5.18549 2.84452,-7.91057 0.2211,-2.3714 0.95169,-4.64343 1.42383,-6.97143 -0.45178,-0.36633 2.92209,-6.7966 2.56994,-1.70771 -0.63233,4.15254 -1.21349,8.30576 -1.58863,12.49092 -0.3097,3.48943 -0.84696,7.11897 1.3791,10.13002 1.00732,0.88503 2.12427,1.15997 3.43246,1.34859 0,0 -0.22582,1.26339 -0.22582,1.26339 l 0,0 c -1.68682,-0.29541 -3.07842,-0.67046 -4.32067,-1.8901 -2.33087,-3.33015 -2.02511,-7.11783 -1.60848,-10.96074 0.37567,-4.18674 0.95371,-8.3423 1.58909,-12.49596 0.11145,-0.84302 -0.10509,-0.83489 1.21848,-0.53576 0.074,0.0167 -0.12722,0.087 -0.16482,0.14984 -0.45495,0.75998 -0.62596,1.64361 -0.95686,2.45068 -0.47694,2.33964 -1.20636,4.62251 -1.43134,7.00582 -0.66917,2.85632 -1.6769,5.64759 -3.00247,8.28886 -1.48873,2.36735 -3.1797,5.23768 -6.40623,5.37448 -2.96623,-0.76807 -3.62458,-3.0378 -3.29507,-5.77073 0.21893,-3.00612 0.56393,-6.00875 1.32214,-8.94137 0.0866,-0.32997 0.18807,-0.65675 0.26004,-0.98991 0.0637,-0.29482 -0.1083,-0.71344 0.14651,-0.89212 2.40608,-1.68715 1.05504,1.41899 0.9495,2.03518 0,0 -1.30803,-0.3108 -1.30803,-0.3108 z"
       inkscape:connector-curvature="0" />
    <path
       style="color:#000000;fill:#000000;fill-opacity:1;fill-rule:nonzero;stroke:#000000;stroke-width:0.23003161;stroke-linecap:butt;stroke-linejoin:miter;stroke-miterlimit:4;stroke-opacity:1;stroke-dasharray:none;stroke-dashoffset:0;marker:none;visibility:visible;display:inline;overflow:visible;enable-background:accumulate"
       id="path3829-3"
       d="m 287.88587,874.03165 c 0.0649,2.76335 -0.3083,5.54728 0.51927,8.22771 0.98302,2.05525 2.80199,2.70329 5.0396,2.29748 0,0 0.22455,1.2636 0.22455,1.2636 l 0,0 c -2.93979,0.42668 -5.34053,-0.4907 -6.56062,-3.20926 -0.82404,-2.80944 -0.55129,-5.6873 -0.57109,-8.57953 0,0 1.34829,0 1.34829,0 z"
       inkscape:connector-curvature="0" />
    <path
       style="color:#000000;fill:#000000;fill-opacity:1;fill-rule:nonzero;stroke:#000000;stroke-width:0.23003161;stroke-linecap:butt;stroke-linejoin:miter;stroke-miterlimit:4;stroke-opacity:1;stroke-dasharray:none;stroke-dashoffset:0;marker:none;visibility:visible;display:inline;overflow:visible;enable-background:accumulate"
       id="path3841-7"
       d="m 348.38591,837.33223 c 4.05925,4.63705 6.98659,9.97318 9.67246,15.40118 2.68713,5.70381 4.89633,11.68487 5.71543,17.91553 0.48854,3.71612 0.31043,4.6591 0.19057,8.34759 -0.76552,6.9059 -3.91418,12.26616 -8.8675,17.19567 -1.47753,1.43773 -3.19483,2.40737 -5.10507,3.19994 0,0 -0.53179,-1.1776 -0.53179,-1.1776 l 0,0 c 1.75405,-0.70148 3.30698,-1.60519 4.66269,-2.9083 4.72467,-4.68408 7.74595,-9.77584 8.49406,-16.35033 0.12232,-3.56884 0.29677,-4.48905 -0.17126,-8.08716 -0.79585,-6.11841 -2.97118,-11.99008 -5.60736,-17.59025 -2.65522,-5.37309 -5.55743,-10.6466 -9.57407,-15.23543 0,0 1.12184,-0.71084 1.12184,-0.71084 z"
       inkscape:connector-curvature="0" />
    <path
       style="color:#000000;fill:#000000;fill-opacity:1;fill-rule:nonzero;stroke:#000000;stroke-width:0.23003161;stroke-linecap:butt;stroke-linejoin:miter;stroke-miterlimit:4;stroke-opacity:1;stroke-dasharray:none;stroke-dashoffset:0;marker:none;visibility:visible;display:inline;overflow:visible;enable-background:accumulate"
       id="path3845-6"
       d="m 261.52036,843.38896 c -2.93571,1.02672 -5.01946,3.33694 -7.00312,5.53668 -3.12493,3.25007 -4.74845,7.26123 -5.78776,11.47847 -0.95301,4.9084 -1.20936,9.8902 -0.52113,14.83551 1.20017,5.40957 4.27292,9.62213 8.79971,12.96991 2.6601,1.82803 5.65396,3.01249 8.75188,3.96608 0,0 -0.41671,1.21876 -0.41671,1.21876 l 0,0 c -3.24576,-1.00589 -6.38271,-2.25132 -9.16607,-4.17562 -4.78803,-3.57997 -8.06136,-8.05583 -9.30564,-13.81248 -0.698,-5.10021 -0.4518,-10.23562 0.54552,-15.2957 1.09785,-4.41469 2.80873,-8.61388 6.07727,-12.01976 2.10166,-2.32238 4.32455,-4.75198 7.42308,-5.84805 0,0 0.60297,1.1462 0.60297,1.1462 z"
       inkscape:connector-curvature="0" />
    <path
       style="color:#000000;fill:#000000;fill-opacity:1;fill-rule:nonzero;stroke:#000000;stroke-width:0.15743293;stroke-linecap:butt;stroke-linejoin:miter;stroke-miterlimit:4;stroke-opacity:1;stroke-dasharray:none;stroke-dashoffset:0;marker:none;visibility:visible;display:inline;overflow:visible;enable-background:accumulate"
       id="path3789-6-2"
       d="m 287.16917,865.93699 c -0.22994,0.28311 -0.87364,1.81098 -0.2378,1.73551 0.66449,0.0109 0.89102,-1.22642 0.77886,-2.41625 -0.29542,-1.20219 -0.80358,-0.7902 -0.96766,0.31474 0.0756,0.57747 0.36496,0.71055 0.61837,0.77794 0,0 -0.13132,1.26852 -0.13132,1.26852 l 0,0 c -0.64786,-0.35272 -1.14293,-0.98732 -1.06135,-2.55253 0.54664,-2.35595 1.63779,-2.51976 2.1603,0.0218 0.0973,2.14296 -0.41462,4.0524 -1.56569,3.83515 -1.1022,-0.87855 -0.70262,-2.86002 0.0603,-4.06456 0,0 0.34596,1.07969 0.34596,1.07969 z"
       inkscape:connector-curvature="0" />
    <path
       style="color:#000000;fill:#000000;fill-opacity:1;fill-rule:nonzero;stroke:#000000;stroke-width:0.20126094;stroke-linecap:butt;stroke-linejoin:miter;stroke-miterlimit:4;stroke-opacity:1;stroke-dasharray:none;stroke-dashoffset:0;marker:none;visibility:visible;display:inline;overflow:visible;enable-background:accumulate"
       id="path3777-7"
       d="m 301.39078,880.4918 c 3.24056,-0.84012 6.53989,-0.95663 9.81771,-1.11794 2.78867,-0.0187 5.58633,-0.35091 8.36888,0.006 0,0 -0.0782,1.42344 -0.0782,1.42344 l 0,0 c -2.74561,-0.3658 -5.50922,-0.01 -8.2612,0 -3.21251,0.1579 -6.44475,0.2742 -9.62266,1.076 0,0 -0.22455,-1.3859 -0.22455,-1.3859 z"
       inkscape:connector-curvature="0" />
    <path
       style="color:#000000;fill:#000000;fill-opacity:1;fill-rule:nonzero;stroke:#000000;stroke-width:0.15580098;stroke-linecap:butt;stroke-linejoin:miter;stroke-miterlimit:4;stroke-opacity:1;stroke-dasharray:none;stroke-dashoffset:0;marker:none;visibility:visible;display:inline;overflow:visible;enable-background:accumulate"
       id="path3779-1"
       d="m 331.05973,861.7874 c -1.37552,2.78343 -2.0338,5.65961 -2.51403,8.54897 -0.35373,2.31108 -0.47955,4.63198 -0.55371,6.95209 0,0 -1.12337,-0.014 -1.12337,-0.014 l 0,0 c 0.075,-2.33991 0.20229,-4.68056 0.55956,-7.01125 0.48969,-2.94018 1.16303,-5.86692 2.56561,-8.69877 0,0 1.06594,0.22308 1.06594,0.22308 z"
       inkscape:connector-curvature="0" />
    <path
       style="color:#000000;fill:#000000;fill-opacity:1;fill-rule:nonzero;stroke:#000000;stroke-width:0.20136593;stroke-linecap:butt;stroke-linejoin:miter;stroke-miterlimit:4;stroke-opacity:1;stroke-dasharray:none;stroke-dashoffset:0;marker:none;visibility:visible;display:inline;overflow:visible;enable-background:accumulate"
       id="path3165"
       d="m 339.26633,872.3462 c -1.82716,0.86198 -3.41934,2.28731 -4.83619,3.75809 -1.51612,1.53893 -2.96419,3.15983 -4.36539,4.81699 -1.27906,1.14372 -2.21136,2.60547 -3.32734,3.90895 0,0 -0.83567,-0.78772 -0.83567,-0.78772 l 0,0 c 1.11524,-1.29987 2.0439,-2.76356 3.3224,-3.90313 1.41819,-1.67665 2.88486,-3.31572 4.41759,-4.87467 1.56482,-1.60886 3.30904,-3.18292 5.35208,-4.0617 0,0 0.27252,1.14319 0.27252,1.14319 z"
       inkscape:connector-curvature="0" />
    <path
       style="color:#000000;fill:#000000;fill-opacity:1;fill-rule:nonzero;stroke:#000000;stroke-width:0.20136593;stroke-linecap:butt;stroke-linejoin:miter;stroke-miterlimit:4;stroke-opacity:1;stroke-dasharray:none;stroke-dashoffset:0;marker:none;visibility:visible;display:inline;overflow:visible;enable-background:accumulate"
       id="path3171"
       d="m 332.8752,881.77121 c 1.50883,-1.42054 3.19529,-2.55881 5.28482,-1.97819 1.78314,1.1947 2.52256,3.18098 1.67579,5.17311 -1.19369,1.89 -3.10904,3.01385 -4.78989,4.35718 -1.41768,1.14308 -2.72164,2.43475 -4.05088,3.68988 -0.70502,1.20389 -0.44228,0.0888 -0.22431,0.0267 0.53046,-0.15209 1.09796,-0.11732 1.64427,-0.19525 2.03577,-0.3708 4.12261,-0.2175 6.18426,-0.37251 1.39371,-0.22922 2.70194,-0.36868 4.09631,-0.063 0,0 -0.22762,1.14687 -0.22762,1.14687 l 0,0 c -1.27425,-0.32967 -2.48619,-0.072 -3.76641,0.0891 -2.03854,0.15188 -4.10131,0.004 -6.11399,0.3649 -1.42013,0.19941 -4.50678,0.4835 -2.35637,-1.87633 1.35238,-1.27522 2.67927,-2.58771 4.12078,-3.75051 1.55203,-1.23292 3.31068,-2.27031 4.47207,-3.95382 0.70338,-1.25496 0.0399,-2.62077 -0.9779,-3.51356 -1.57639,-0.64124 -3.01192,0.71118 -4.15584,1.68328 0,0 -0.81509,-0.82787 -0.81509,-0.82787 z"
       inkscape:connector-curvature="0" />
    <path
       style="color:#000000;fill:#000000;fill-opacity:1;fill-rule:nonzero;stroke:#000000;stroke-width:0.23003161;stroke-linecap:butt;stroke-linejoin:miter;stroke-miterlimit:4;stroke-opacity:1;stroke-dasharray:none;stroke-dashoffset:0;marker:none;visibility:visible;display:inline;overflow:visible;enable-background:accumulate"
       id="path3827-9-6"
       d="m 566.57667,867.37909 c 0.2597,-0.79026 0.15297,-3.39444 1.65758,-1.38122 0.0814,0.10881 -0.32347,1.56147 -0.3966,1.84597 -0.73888,2.8609 -1.07335,5.79015 -1.28606,8.72259 -0.20659,1.91864 -0.10462,4.0684 2.25332,4.43377 2.44799,-0.44567 3.77615,-2.91071 4.94457,-4.78169 1.24429,-2.52689 2.21092,-5.18549 2.84452,-7.91057 0.2211,-2.3714 0.95169,-4.64343 1.42383,-6.97143 -0.45178,-0.36633 2.92209,-6.7966 2.56994,-1.70771 -0.63233,4.15254 -1.21349,8.30576 -1.58863,12.49092 -0.3097,3.48943 -0.84696,7.11897 1.3791,10.13002 1.00732,0.88503 2.12427,1.15997 3.43246,1.34859 0,0 -0.22582,1.26339 -0.22582,1.26339 l 0,0 c -1.68682,-0.29541 -3.07842,-0.67046 -4.32067,-1.8901 -2.33087,-3.33015 -2.02511,-7.11783 -1.60848,-10.96074 0.37567,-4.18674 0.95371,-8.3423 1.58909,-12.49596 0.11145,-0.84302 -0.10509,-0.83489 1.21848,-0.53576 0.074,0.0167 -0.12722,0.087 -0.16482,0.14984 -0.45495,0.75998 -0.62596,1.64361 -0.95686,2.45068 -0.47694,2.33964 -1.20636,4.62251 -1.43134,7.00582 -0.66917,2.85632 -1.6769,5.64759 -3.00247,8.28886 -1.48873,2.36735 -3.1797,5.23768 -6.40623,5.37448 -2.96623,-0.76807 -3.62458,-3.0378 -3.29507,-5.77073 0.21893,-3.00612 0.56393,-6.00875 1.32214,-8.94137 0.0866,-0.32997 0.18807,-0.65675 0.26004,-0.98991 0.0637,-0.29482 -0.1083,-0.71344 0.14651,-0.89212 2.40608,-1.68715 1.05504,1.41899 0.9495,2.03518 0,0 -1.30803,-0.3108 -1.30803,-0.3108 z"
       inkscape:connector-curvature="0" />
    <path
       style="color:#000000;fill:#000000;fill-opacity:1;fill-rule:nonzero;stroke:#000000;stroke-width:0.23003161;stroke-linecap:butt;stroke-linejoin:miter;stroke-miterlimit:4;stroke-opacity:1;stroke-dasharray:none;stroke-dashoffset:0;marker:none;visibility:visible;display:inline;overflow:visible;enable-background:accumulate"
       id="path3829-3-0"
       d="m 591.74301,876.60307 c 0.0649,2.76335 -0.3083,5.54728 0.51927,8.22771 0.98302,2.05525 2.80199,2.70329 5.0396,2.29748 0,0 0.22455,1.2636 0.22455,1.2636 l 0,0 c -2.93979,0.42668 -5.34053,-0.4907 -6.56062,-3.20926 -0.82404,-2.80944 -0.55129,-5.6873 -0.57109,-8.57953 0,0 1.34829,0 1.34829,0 z"
       inkscape:connector-curvature="0" />
    <path
       style="color:#000000;fill:#000000;fill-opacity:1;fill-rule:nonzero;stroke:#000000;stroke-width:0.23003161;stroke-linecap:butt;stroke-linejoin:miter;stroke-miterlimit:4;stroke-opacity:1;stroke-dasharray:none;stroke-dashoffset:0;marker:none;visibility:visible;display:inline;overflow:visible;enable-background:accumulate"
       id="path3841-7-0"
       d="m 652.24305,839.90365 c 4.05925,4.63705 6.98659,9.97318 9.67246,15.40118 2.68713,5.70381 4.89633,11.68487 5.71543,17.91553 0.48854,3.71612 0.31043,4.6591 0.19057,8.34759 -0.76552,6.9059 -3.91418,12.26616 -8.8675,17.19567 -1.47753,1.43773 -3.19483,2.40737 -5.10507,3.19994 0,0 -0.53179,-1.1776 -0.53179,-1.1776 l 0,0 c 1.75405,-0.70148 3.30698,-1.60519 4.66269,-2.9083 4.72467,-4.68408 7.74595,-9.77584 8.49406,-16.35033 0.12232,-3.56884 0.29677,-4.48905 -0.17126,-8.08716 -0.79585,-6.11841 -2.97118,-11.99008 -5.60736,-17.59025 -2.65522,-5.37309 -5.55743,-10.6466 -9.57407,-15.23543 0,0 1.12184,-0.71084 1.12184,-0.71084 z"
       inkscape:connector-curvature="0" />
    <path
       style="color:#000000;fill:#000000;fill-opacity:1;fill-rule:nonzero;stroke:#000000;stroke-width:0.23003161;stroke-linecap:butt;stroke-linejoin:miter;stroke-miterlimit:4;stroke-opacity:1;stroke-dasharray:none;stroke-dashoffset:0;marker:none;visibility:visible;display:inline;overflow:visible;enable-background:accumulate"
       id="path3845-6-8"
       d="m 565.3775,845.96038 c -2.93571,1.02672 -5.01946,3.33694 -7.00312,5.53668 -3.12493,3.25007 -4.74845,7.26123 -5.78776,11.47847 -0.95301,4.9084 -1.20936,9.8902 -0.52113,14.83551 1.20017,5.40957 4.27292,9.62213 8.79971,12.96991 2.6601,1.82803 5.65396,3.01249 8.75188,3.96608 0,0 -0.41671,1.21876 -0.41671,1.21876 l 0,0 c -3.24576,-1.00589 -6.38271,-2.25132 -9.16607,-4.17562 -4.78803,-3.57997 -8.06136,-8.05583 -9.30564,-13.81248 -0.698,-5.10021 -0.4518,-10.23562 0.54552,-15.2957 1.09785,-4.41469 2.80873,-8.61388 6.07727,-12.01976 2.10166,-2.32238 4.32455,-4.75198 7.42308,-5.84805 0,0 0.60297,1.1462 0.60297,1.1462 z"
       inkscape:connector-curvature="0" />
    <path
       style="color:#000000;fill:#000000;fill-opacity:1;fill-rule:nonzero;stroke:#000000;stroke-width:0.15743293;stroke-linecap:butt;stroke-linejoin:miter;stroke-miterlimit:4;stroke-opacity:1;stroke-dasharray:none;stroke-dashoffset:0;marker:none;visibility:visible;display:inline;overflow:visible;enable-background:accumulate"
       id="path3789-6-2-6"
       d="m 591.02631,868.50841 c -0.22994,0.28311 -0.87364,1.81098 -0.2378,1.73551 0.66449,0.0109 0.89102,-1.22642 0.77886,-2.41625 -0.29542,-1.20219 -0.80358,-0.7902 -0.96766,0.31474 0.0756,0.57747 0.36496,0.71055 0.61837,0.77794 0,0 -0.13132,1.26852 -0.13132,1.26852 l 0,0 c -0.64786,-0.35272 -1.14293,-0.98732 -1.06135,-2.55253 0.54664,-2.35595 1.63779,-2.51976 2.1603,0.0218 0.0973,2.14296 -0.41462,4.0524 -1.56569,3.83515 -1.1022,-0.87855 -0.70262,-2.86002 0.0603,-4.06456 0,0 0.34596,1.07969 0.34596,1.07969 z"
       inkscape:connector-curvature="0" />
    <path
       style="color:#000000;fill:#000000;fill-opacity:1;fill-rule:nonzero;stroke:#000000;stroke-width:0.20126094;stroke-linecap:butt;stroke-linejoin:miter;stroke-miterlimit:4;stroke-opacity:1;stroke-dasharray:none;stroke-dashoffset:0;marker:none;visibility:visible;display:inline;overflow:visible;enable-background:accumulate"
       id="path3777-7-9"
       d="m 605.24792,883.06322 c 3.24056,-0.84012 6.53989,-0.95663 9.81771,-1.11794 2.78867,-0.0187 5.58633,-0.35091 8.36888,0.006 0,0 -0.0782,1.42344 -0.0782,1.42344 l 0,0 c -2.74561,-0.3658 -5.50922,-0.01 -8.2612,0 -3.21251,0.1579 -6.44475,0.2742 -9.62266,1.076 0,0 -0.22455,-1.3859 -0.22455,-1.3859 z"
       inkscape:connector-curvature="0" />
    <path
       style="color:#000000;fill:#000000;fill-opacity:1;fill-rule:nonzero;stroke:#000000;stroke-width:0.15580098;stroke-linecap:butt;stroke-linejoin:miter;stroke-miterlimit:4;stroke-opacity:1;stroke-dasharray:none;stroke-dashoffset:0;marker:none;visibility:visible;display:inline;overflow:visible;enable-background:accumulate"
       id="path3779-1-5"
       d="m 634.91687,864.35882 c -1.37552,2.78343 -2.0338,5.65961 -2.51403,8.54897 -0.35373,2.31108 -0.47955,4.63198 -0.55371,6.95209 0,0 -1.12337,-0.014 -1.12337,-0.014 l 0,0 c 0.075,-2.33991 0.20229,-4.68056 0.55956,-7.01125 0.48969,-2.94018 1.16303,-5.86692 2.56561,-8.69877 0,0 1.06594,0.22308 1.06594,0.22308 z"
       inkscape:connector-curvature="0" />
    <path
       style="color:#000000;fill:#000000;fill-opacity:1;fill-rule:nonzero;stroke:#000000;stroke-width:0.20136593;stroke-linecap:butt;stroke-linejoin:miter;stroke-miterlimit:4;stroke-opacity:1;stroke-dasharray:none;stroke-dashoffset:0;marker:none;visibility:visible;display:inline;overflow:visible;enable-background:accumulate"
       id="path3165-0"
       d="m 643.12347,874.91762 c -1.82716,0.86198 -3.41934,2.28731 -4.83619,3.75809 -1.51612,1.53893 -2.96419,3.15983 -4.36539,4.81699 -1.27906,1.14372 -2.21136,2.60547 -3.32734,3.90895 0,0 -0.83567,-0.78772 -0.83567,-0.78772 l 0,0 c 1.11524,-1.29987 2.0439,-2.76356 3.3224,-3.90313 1.41819,-1.67665 2.88486,-3.31572 4.41759,-4.87467 1.56482,-1.60886 3.30904,-3.18292 5.35208,-4.0617 0,0 0.27252,1.14319 0.27252,1.14319 z"
       inkscape:connector-curvature="0" />
    <path
       style="color:#000000;fill:#000000;fill-opacity:1;fill-rule:nonzero;stroke:#000000;stroke-width:0.20136593;stroke-linecap:butt;stroke-linejoin:miter;stroke-miterlimit:4;stroke-opacity:1;stroke-dasharray:none;stroke-dashoffset:0;marker:none;visibility:visible;display:inline;overflow:visible;enable-background:accumulate"
       id="path3171-3"
       d="m 636.73234,884.34263 c 1.50883,-1.42054 3.19529,-2.55881 5.28482,-1.97819 1.78314,1.1947 2.52256,3.18098 1.67579,5.17311 -1.19369,1.89 -3.10904,3.01385 -4.78989,4.35718 -1.41768,1.14308 -2.72164,2.43475 -4.05088,3.68988 -0.70502,1.20389 -0.44228,0.0888 -0.22431,0.0267 0.53046,-0.15209 1.09796,-0.11732 1.64427,-0.19525 2.03577,-0.3708 4.12261,-0.2175 6.18426,-0.37251 1.39371,-0.22922 2.70194,-0.36868 4.09631,-0.063 0,0 -0.22762,1.14687 -0.22762,1.14687 l 0,0 c -1.27425,-0.32967 -2.48619,-0.072 -3.76641,0.0891 -2.03854,0.15188 -4.10131,0.004 -6.11399,0.3649 -1.42013,0.19941 -4.50678,0.4835 -2.35637,-1.87633 1.35238,-1.27522 2.67927,-2.58771 4.12078,-3.75051 1.55203,-1.23292 3.31068,-2.27031 4.47207,-3.95382 0.70338,-1.25496 0.0399,-2.62077 -0.9779,-3.51356 -1.57639,-0.64124 -3.01192,0.71118 -4.15584,1.68328 0,0 -0.81509,-0.82787 -0.81509,-0.82787 z"
       inkscape:connector-curvature="0" />
    <path
       style="color:#000000;fill:#000000;fill-opacity:1;fill-rule:nonzero;stroke:#000000;stroke-width:0.15580098;stroke-linecap:butt;stroke-linejoin:miter;stroke-miterlimit:4;stroke-opacity:1;stroke-dasharray:none;stroke-dashoffset:0;marker:none;visibility:visible;display:inline;overflow:visible;enable-background:accumulate"
       id="path3779-1-5-2"
       d="m 616.66698,875.00884 c -1.37552,2.78343 -2.0338,5.65961 -2.51403,8.54897 -0.35373,2.31108 -0.47955,4.63198 -0.55371,6.95209 0,0 -1.12337,-0.014 -1.12337,-0.014 l 0,0 c 0.075,-2.33991 0.20229,-4.68056 0.55956,-7.01125 0.48969,-2.94018 1.16303,-5.86692 2.56561,-8.69877 0,0 1.06594,0.22308 1.06594,0.22308 z"
       inkscape:connector-curvature="0" />
    <path
       style="color:#000000;fill:#000000;fill-opacity:1;fill-rule:nonzero;stroke:#000000;stroke-width:0.21580884;stroke-linecap:butt;stroke-linejoin:miter;stroke-miterlimit:4;stroke-opacity:1;stroke-dasharray:none;stroke-dashoffset:0;marker:none;visibility:visible;display:inline;overflow:visible;enable-background:accumulate"
       id="path3779-1-5-0"
       d="m 629.67382,964.12745 c -1.83727,3.99828 -2.71653,8.1298 -3.35796,12.28025 -0.47248,3.31977 -0.64053,6.65364 -0.73959,9.98639 0,0 -1.50047,-0.0201 -1.50047,-0.0201 l 0,0 c 0.10018,-3.36119 0.2702,-6.72344 0.7474,-10.07138 0.65407,-4.22344 1.55344,-8.42759 3.42685,-12.49542 0,0 1.42377,0.32044 1.42377,0.32044 z"
       inkscape:connector-curvature="0" />
    <path
       style="color:#000000;fill:#000000;fill-opacity:1;fill-rule:nonzero;stroke:#000000;stroke-width:0.27892345;stroke-linecap:butt;stroke-linejoin:miter;stroke-miterlimit:4;stroke-opacity:1;stroke-dasharray:none;stroke-dashoffset:0;marker:none;visibility:visible;display:inline;overflow:visible;enable-background:accumulate"
       id="path3165-0-5"
       d="m 640.63527,979.29473 c -2.44052,1.2382 -4.56717,3.28563 -6.45964,5.39835 -2.02506,2.21061 -3.95923,4.53896 -5.8308,6.9194 -1.70842,1.64291 -2.95368,3.74266 -4.4443,5.61505 0,0 -1.11619,-1.13153 -1.11619,-1.13153 l 0,0 c 1.48963,-1.86721 2.73002,-3.96974 4.4377,-5.60668 1.89426,-2.40844 3.85327,-4.7629 5.90052,-7.00227 2.09011,-2.31106 4.41984,-4.57213 7.14871,-5.83446 0,0 0.364,1.64214 0.364,1.64214 z"
       inkscape:connector-curvature="0" />
    <path
       style="color:#000000;fill:#000000;fill-opacity:1;fill-rule:nonzero;stroke:#000000;stroke-width:0.27892345;stroke-linecap:butt;stroke-linejoin:miter;stroke-miterlimit:4;stroke-opacity:1;stroke-dasharray:none;stroke-dashoffset:0;marker:none;visibility:visible;display:inline;overflow:visible;enable-background:accumulate"
       id="path3171-3-3"
       d="m 632.09872,992.83337 c 2.01532,-2.04054 4.2679,-3.67562 7.05886,-2.84158 2.38172,1.71613 3.36935,4.56934 2.23833,7.43096 -1.59439,2.71485 -4.1527,4.32925 -6.39779,6.25895 -1.89358,1.6419 -3.63526,3.4974 -5.41071,5.3003 -0.94169,1.7294 -0.59075,0.1276 -0.29961,0.038 0.70853,-0.2185 1.46653,-0.1685 2.19623,-0.2805 2.71915,-0.5326 5.50652,-0.3124 8.26024,-0.535 1.86156,-0.3293 3.60895,-0.5296 5.47139,-0.091 0,0 -0.30403,1.6474 -0.30403,1.6474 l 0,0 c -1.702,-0.4736 -3.32077,-0.1034 -5.03075,0.128 -2.72285,0.2181 -5.47806,0.01 -8.16637,0.5241 -1.89685,0.2865 -6.01965,0.6946 -3.14738,-2.6952 1.80636,-1.8318 3.57867,-3.7172 5.50408,-5.3875 2.07302,-1.771 4.42203,-3.26119 5.97328,-5.67948 0.9395,-1.8027 0.0533,-3.76463 -1.30617,-5.04709 -2.10556,-0.92111 -4.02298,1.02158 -5.5509,2.41797 0,0 -1.0887,-1.1892 -1.0887,-1.1892 z"
       inkscape:connector-curvature="0" />
    <path
       style="color:#000000;fill:#000000;fill-opacity:1;fill-rule:nonzero;stroke:#000000;stroke-width:0.21580884;stroke-linecap:butt;stroke-linejoin:miter;stroke-miterlimit:4;stroke-opacity:1;stroke-dasharray:none;stroke-dashoffset:0;marker:none;visibility:visible;display:inline;overflow:visible;enable-background:accumulate"
       id="path3779-1-5-0-2"
       d="m 351.38811,970.12846 c -1.83727,3.99828 -2.71653,8.1298 -3.35796,12.28025 -0.47248,3.31977 -0.64053,6.65364 -0.73959,9.98639 0,0 -1.50047,-0.0201 -1.50047,-0.0201 l 0,0 c 0.10018,-3.36119 0.2702,-6.72344 0.7474,-10.07138 0.65407,-4.22344 1.55344,-8.42759 3.42685,-12.49542 0,0 1.42377,0.32044 1.42377,0.32044 z"
       inkscape:connector-curvature="0" />
    <path
       style="color:#000000;fill:#000000;fill-opacity:1;fill-rule:nonzero;stroke:#000000;stroke-width:0.27892345;stroke-linecap:butt;stroke-linejoin:miter;stroke-miterlimit:4;stroke-opacity:1;stroke-dasharray:none;stroke-dashoffset:0;marker:none;visibility:visible;display:inline;overflow:visible;enable-background:accumulate"
       id="path3165-0-5-3"
       d="m 362.34956,985.29574 c -2.44052,1.2382 -4.56717,3.28563 -6.45964,5.39835 -2.02506,2.21061 -3.95923,4.53896 -5.8308,6.9194 -1.70842,1.64291 -2.95368,3.74271 -4.4443,5.61501 0,0 -1.11619,-1.1315 -1.11619,-1.1315 l 0,0 c 1.48963,-1.8672 2.73002,-3.9697 4.4377,-5.60667 1.89426,-2.40844 3.85327,-4.7629 5.90052,-7.00227 2.09011,-2.31106 4.41984,-4.57213 7.14871,-5.83446 0,0 0.364,1.64214 0.364,1.64214 z"
       inkscape:connector-curvature="0" />
    <path
       style="color:#000000;fill:#000000;fill-opacity:1;fill-rule:nonzero;stroke:#000000;stroke-width:0.27892345;stroke-linecap:butt;stroke-linejoin:miter;stroke-miterlimit:4;stroke-opacity:1;stroke-dasharray:none;stroke-dashoffset:0;marker:none;visibility:visible;display:inline;overflow:visible;enable-background:accumulate"
       id="path3171-3-3-9"
       d="m 353.81301,998.8344 c 2.01532,-2.04056 4.2679,-3.67564 7.05886,-2.8416 2.38172,1.71613 3.36935,4.5693 2.23833,7.431 -1.59439,2.7148 -4.1527,4.3292 -6.39779,6.2589 -1.89358,1.6419 -3.63526,3.4974 -5.41071,5.3003 -0.94169,1.7294 -0.59075,0.1276 -0.29961,0.038 0.70853,-0.2185 1.46653,-0.1685 2.19623,-0.2805 2.71915,-0.5326 5.50652,-0.3124 8.26024,-0.535 1.86156,-0.3293 3.60895,-0.5296 5.47139,-0.091 0,0 -0.30403,1.6474 -0.30403,1.6474 l 0,0 c -1.702,-0.4736 -3.32077,-0.1034 -5.03075,0.128 -2.72285,0.2181 -5.47806,0.01 -8.16637,0.5241 -1.89685,0.2865 -6.01965,0.6946 -3.14738,-2.6952 1.80636,-1.8318 3.57867,-3.7172 5.50408,-5.3875 2.07302,-1.771 4.42203,-3.2612 5.97328,-5.6795 0.9395,-1.8027 0.0533,-3.7646 -1.30617,-5.04706 -2.10556,-0.92111 -4.02298,1.02156 -5.5509,2.41796 0,0 -1.0887,-1.1892 -1.0887,-1.1892 z"
       inkscape:connector-curvature="0" />
    <path
       style="fill:none;stroke:#000000;stroke-width:1px;stroke-linecap:butt;stroke-linejoin:miter;stroke-opacity:1"
       d="m 175.35714,918.29075 1.42858,38.57143"
       id="path3883-8"
       inkscape:connector-curvature="0" />
    <path
       style="fill:none;stroke:#000000;stroke-width:1px;stroke-linecap:butt;stroke-linejoin:miter;stroke-opacity:1"
       d="m 723.42857,915.50504 1.42858,38.57143"
       id="path3883-3-2"
       inkscape:connector-curvature="0" />
    <path
       style="color:#000000;fill:#000000;fill-opacity:1;fill-rule:nonzero;stroke:#000000;stroke-width:0.23003161;stroke-linecap:butt;stroke-linejoin:miter;stroke-miterlimit:4;stroke-opacity:1;stroke-dasharray:none;stroke-dashoffset:0;marker:none;visibility:visible;display:inline;overflow:visible;enable-background:accumulate"
       id="path3835-7"
       d="m 160.07055,855.05928 c 0,4.38061 0,8.76121 0,13.14181 -0.33421,5.43926 -0.8273,10.86611 -1.10472,16.30907 -0.18653,2.05468 -0.51259,4.09394 -0.81623,6.13484 0,0 -1.33501,-0.17944 -1.33501,-0.17944 l 0,0 c 0.29789,-2.00198 0.61775,-4.00231 0.80454,-6.01742 0.27652,-5.4223 0.76389,-10.8288 1.10314,-16.24705 0,-4.3806 0,-8.7612 0,-13.14181 0,0 1.34828,0 1.34828,0 z"
       inkscape:connector-curvature="0" />
    <path
       style="color:#000000;fill:#000000;fill-opacity:1;fill-rule:nonzero;stroke:#000000;stroke-width:0.20843761;stroke-linecap:butt;stroke-linejoin:miter;stroke-miterlimit:4;stroke-opacity:1;stroke-dasharray:none;stroke-dashoffset:0;marker:none;visibility:visible;display:inline;overflow:visible;enable-background:accumulate"
       id="path3837-3"
       d="m 145.42084,861.36655 c 1.0207,-3.57662 4.11831,-5.38563 6.91258,-6.77174 4.76832,-1.86564 8.37092,-1.40754 12.75658,1.34507 2.36153,1.98781 4.91469,5.07649 4.69289,8.77799 -0.037,0.61784 -0.24662,1.2053 -0.36992,1.80795 -1.48024,4.07132 -4.73383,5.80777 -8.1928,6.94228 -2.96789,0.58141 -6.11361,1.35391 -9.06436,0.3578 -1.18103,-0.87488 -0.69823,-0.32123 -1.4598,-1.64753 0,0 0.95294,-0.65217 0.95294,-0.65217 l 0,0 c 0.33428,0.83205 0.0828,0.45055 0.82863,1.07353 2.71373,1.00274 5.70414,0.0929 8.44257,-0.36517 3.06902,-0.99345 6.0348,-2.4508 7.42075,-6.02827 1.00348,-4.08293 -1.1008,-6.78366 -3.78269,-9.14245 -3.95733,-2.53701 -7.46845,-3.00375 -11.79101,-1.29 -2.46433,1.20692 -5.32297,2.77173 -6.27239,5.90352 0,0 -1.07397,-0.31081 -1.07397,-0.31081 z"
       inkscape:connector-curvature="0" />
    <path
       style="color:#000000;fill:#000000;fill-opacity:1;fill-rule:nonzero;stroke:#000000;stroke-width:0.23003161;stroke-linecap:butt;stroke-linejoin:miter;stroke-miterlimit:4;stroke-opacity:1;stroke-dasharray:none;stroke-dashoffset:0;marker:none;visibility:visible;display:inline;overflow:visible;enable-background:accumulate"
       id="path3839-4"
       d="m 172.35069,880.46317 c -1.03285,2.6915 -1.80173,5.52997 -1.83827,8.40458 0.27212,2.40603 2.00365,3.30376 4.25656,3.83951 1.19002,0.31705 2.24201,0.15871 3.39141,-0.16105 0,0 0.3565,1.23589 0.3565,1.23589 l 0,0 c -1.38299,0.34171 -2.66572,0.54691 -4.08326,0.16639 -2.86311,-0.71415 -4.9828,-2.07542 -5.26931,-5.10213 0.0669,-3.06578 0.83638,-6.0943 1.98043,-8.95628 0,0 1.20594,0.57309 1.20594,0.57309 z"
       inkscape:connector-curvature="0" />
    <path
       style="color:#000000;fill:#000000;fill-opacity:1;fill-rule:nonzero;stroke:#000000;stroke-width:0.23003161;stroke-linecap:butt;stroke-linejoin:miter;stroke-miterlimit:4;stroke-opacity:1;stroke-dasharray:none;stroke-dashoffset:0;marker:none;visibility:visible;display:inline;overflow:visible;enable-background:accumulate"
       id="path3841-4"
       d="m 200.43659,842.7608 c 4.05925,4.63705 6.98659,9.97318 9.67246,15.40118 2.68713,5.70381 4.89633,11.68487 5.71543,17.91553 0.48854,3.71612 0.31043,4.6591 0.19057,8.34759 -0.76552,6.9059 -3.91418,12.26616 -8.8675,17.19567 -1.47753,1.43773 -3.19483,2.40737 -5.10507,3.19994 0,0 -0.53179,-1.1776 -0.53179,-1.1776 l 0,0 c 1.75405,-0.70148 3.30698,-1.60519 4.66269,-2.9083 4.72467,-4.68408 7.74595,-9.77584 8.49406,-16.35033 0.12232,-3.56884 0.29677,-4.48905 -0.17126,-8.08716 -0.79585,-6.11841 -2.97118,-11.99008 -5.60736,-17.59025 -2.65522,-5.37309 -5.55743,-10.6466 -9.57407,-15.23543 0,0 1.12184,-0.71084 1.12184,-0.71084 z"
       inkscape:connector-curvature="0" />
    <path
       style="color:#000000;fill:#000000;fill-opacity:1;fill-rule:nonzero;stroke:#000000;stroke-width:0.15743293;stroke-linecap:butt;stroke-linejoin:miter;stroke-miterlimit:4;stroke-opacity:1;stroke-dasharray:none;stroke-dashoffset:0;marker:none;visibility:visible;display:inline;overflow:visible;enable-background:accumulate"
       id="path3789-6-8-5"
       d="m 173.64567,874.54194 c -0.22995,0.28312 -0.87365,1.81099 -0.2378,1.73551 0.66448,0.0109 0.89101,-1.22642 0.77886,-2.41624 -0.29543,-1.2022 -0.80359,-0.7902 -0.96767,0.31473 0.0756,0.57747 0.36497,0.71056 0.61838,0.77794 0,0 -0.13132,1.26853 -0.13132,1.26853 l 0,0 c -0.64786,-0.35272 -1.14293,-0.98733 -1.06136,-2.55254 0.54665,-2.35595 1.63779,-2.51976 2.16031,0.0218 0.0973,2.14296 -0.41462,4.05241 -1.5657,3.83515 -1.1022,-0.87855 -0.70262,-2.86002 0.0603,-4.06456 0,0 0.34597,1.07969 0.34597,1.07969 z"
       inkscape:connector-curvature="0" />
    <path
       style="color:#000000;fill:#000000;fill-opacity:1;fill-rule:nonzero;stroke:#000000;stroke-width:0.13803782;stroke-linecap:butt;stroke-linejoin:miter;stroke-miterlimit:4;stroke-opacity:1;stroke-dasharray:none;stroke-dashoffset:0;marker:none;visibility:visible;display:inline;overflow:visible;enable-background:accumulate"
       id="path3777-7-2"
       d="m 180.36763,886.9097 c 2.74718,-0.46614 5.54418,-0.53078 8.32295,-0.62025 2.36409,-0.0105 4.73581,-0.19474 7.09471,0.008 0,0 -0.0663,0.78985 -0.0663,0.78985 l 0,0 c -2.32759,-0.20297 -4.67043,-0.008 -7.00342,0 -2.7234,0.0877 -5.46352,0.15218 -8.1576,0.59712 0,0 -0.19036,-0.76906 -0.19036,-0.76906 z"
       inkscape:connector-curvature="0" />
    <path
       style="color:#000000;fill:#000000;fill-opacity:1;fill-rule:nonzero;stroke:#000000;stroke-width:0.13803782;stroke-linecap:butt;stroke-linejoin:miter;stroke-miterlimit:4;stroke-opacity:1;stroke-dasharray:none;stroke-dashoffset:0;marker:none;visibility:visible;display:inline;overflow:visible;enable-background:accumulate"
       id="path3779-2"
       d="m 202.87661,877.77821 c -0.96087,3.12771 -1.42071,6.35981 -1.75618,9.60666 -0.24709,2.59701 -0.33498,5.20506 -0.38679,7.81223 0,0 -0.78473,-0.0161 -0.78473,-0.0161 l 0,0 c 0.0524,-2.62934 0.14131,-5.25964 0.39088,-7.87865 0.34207,-3.30392 0.81243,-6.59284 1.7922,-9.77504 0,0 0.74462,0.25076 0.74462,0.25076 z"
       inkscape:connector-curvature="0" />
    <path
       style="color:#000000;fill:#000000;fill-opacity:1;fill-rule:nonzero;stroke:#000000;stroke-width:0.23003161;stroke-linecap:butt;stroke-linejoin:miter;stroke-miterlimit:4;stroke-opacity:1;stroke-dasharray:none;stroke-dashoffset:0;marker:none;visibility:visible;display:inline;overflow:visible;enable-background:accumulate"
       id="path3845-6-1"
       d="m 145.40331,846.50401 c -2.93571,1.02672 -5.01946,3.33694 -7.00312,5.53668 -3.12493,3.25007 -4.74845,7.26123 -5.78776,11.47847 -0.95301,4.9084 -1.20936,9.8902 -0.52113,14.83551 1.20017,5.40957 4.27292,9.62213 8.79971,12.96991 2.6601,1.82803 5.65396,3.01249 8.75188,3.96608 0,0 -0.41671,1.21876 -0.41671,1.21876 l 0,0 c -3.24576,-1.00589 -6.38271,-2.25132 -9.16607,-4.17562 -4.78803,-3.57997 -8.06136,-8.05583 -9.30564,-13.81248 -0.698,-5.10021 -0.4518,-10.23562 0.54552,-15.2957 1.09785,-4.41469 2.80873,-8.61388 6.07727,-12.01976 2.10166,-2.32238 4.32455,-4.75198 7.42308,-5.84805 0,0 0.60297,1.1462 0.60297,1.1462 z"
       inkscape:connector-curvature="0" />
    <path
       style="color:#000000;fill:#000000;fill-opacity:1;fill-rule:nonzero;stroke:#000000;stroke-width:0.23003161;stroke-linecap:butt;stroke-linejoin:miter;stroke-miterlimit:4;stroke-opacity:1;stroke-dasharray:none;stroke-dashoffset:0;marker:none;visibility:visible;display:inline;overflow:visible;enable-background:accumulate"
       id="path3835-6"
       d="m 715.42362,857.91642 c 0,4.38061 0,8.76121 0,13.14181 -0.33421,5.43926 -0.8273,10.86611 -1.10472,16.30907 -0.18653,2.05468 -0.51259,4.09394 -0.81623,6.13484 0,0 -1.33501,-0.17944 -1.33501,-0.17944 l 0,0 c 0.29789,-2.00198 0.61775,-4.00231 0.80454,-6.01742 0.27652,-5.4223 0.76389,-10.8288 1.10314,-16.24705 0,-4.3806 0,-8.7612 0,-13.14181 0,0 1.34828,0 1.34828,0 z"
       inkscape:connector-curvature="0" />
    <path
       style="color:#000000;fill:#000000;fill-opacity:1;fill-rule:nonzero;stroke:#000000;stroke-width:0.20843761;stroke-linecap:butt;stroke-linejoin:miter;stroke-miterlimit:4;stroke-opacity:1;stroke-dasharray:none;stroke-dashoffset:0;marker:none;visibility:visible;display:inline;overflow:visible;enable-background:accumulate"
       id="path3837-5"
       d="m 700.77391,864.22369 c 1.0207,-3.57662 4.11831,-5.38563 6.91258,-6.77174 4.76832,-1.86564 8.37092,-1.40754 12.75658,1.34507 2.36153,1.98781 4.91469,5.07649 4.69289,8.77799 -0.037,0.61784 -0.24662,1.2053 -0.36992,1.80795 -1.48024,4.07132 -4.73383,5.80777 -8.1928,6.94228 -2.96789,0.58141 -6.11361,1.35391 -9.06436,0.3578 -1.18103,-0.87488 -0.69823,-0.32123 -1.4598,-1.64753 0,0 0.95294,-0.65217 0.95294,-0.65217 l 0,0 c 0.33428,0.83205 0.0828,0.45055 0.82863,1.07353 2.71373,1.00274 5.70414,0.0929 8.44257,-0.36517 3.06902,-0.99345 6.0348,-2.4508 7.42075,-6.02827 1.00348,-4.08293 -1.1008,-6.78366 -3.78269,-9.14245 -3.95733,-2.53701 -7.46845,-3.00375 -11.79101,-1.29 -2.46433,1.20692 -5.32297,2.77173 -6.27239,5.90352 0,0 -1.07397,-0.31081 -1.07397,-0.31081 z"
       inkscape:connector-curvature="0" />
    <path
       style="color:#000000;fill:#000000;fill-opacity:1;fill-rule:nonzero;stroke:#000000;stroke-width:0.23003161;stroke-linecap:butt;stroke-linejoin:miter;stroke-miterlimit:4;stroke-opacity:1;stroke-dasharray:none;stroke-dashoffset:0;marker:none;visibility:visible;display:inline;overflow:visible;enable-background:accumulate"
       id="path3839-2"
       d="m 727.70376,883.32031 c -1.03285,2.6915 -1.80173,5.52997 -1.83827,8.40458 0.27212,2.40603 2.00365,3.30376 4.25656,3.83951 1.19002,0.31705 2.24201,0.15871 3.39141,-0.16105 0,0 0.3565,1.23589 0.3565,1.23589 l 0,0 c -1.38299,0.34171 -2.66572,0.54691 -4.08326,0.16639 -2.86311,-0.71415 -4.9828,-2.07542 -5.26931,-5.10213 0.0669,-3.06578 0.83638,-6.0943 1.98043,-8.95628 0,0 1.20594,0.57309 1.20594,0.57309 z"
       inkscape:connector-curvature="0" />
    <path
       style="color:#000000;fill:#000000;fill-opacity:1;fill-rule:nonzero;stroke:#000000;stroke-width:0.23003161;stroke-linecap:butt;stroke-linejoin:miter;stroke-miterlimit:4;stroke-opacity:1;stroke-dasharray:none;stroke-dashoffset:0;marker:none;visibility:visible;display:inline;overflow:visible;enable-background:accumulate"
       id="path3841-5"
       d="m 757.78966,845.61794 c 4.05925,4.63705 6.98659,9.97318 9.67246,15.40118 2.68713,5.70381 4.89633,11.68487 5.71543,17.91553 0.48854,3.71612 0.31043,4.6591 0.19057,8.34759 -0.76552,6.9059 -3.91418,12.26616 -8.8675,17.19567 -1.47753,1.43773 -3.19483,2.40737 -5.10507,3.19994 0,0 -0.53179,-1.1776 -0.53179,-1.1776 l 0,0 c 1.75405,-0.70148 3.30698,-1.60519 4.66269,-2.9083 4.72467,-4.68408 7.74595,-9.77584 8.49406,-16.35033 0.12232,-3.56884 0.29677,-4.48905 -0.17126,-8.08716 -0.79585,-6.11841 -2.97118,-11.99008 -5.60736,-17.59025 -2.65522,-5.37309 -5.55743,-10.6466 -9.57407,-15.23543 0,0 1.12184,-0.71084 1.12184,-0.71084 z"
       inkscape:connector-curvature="0" />
    <path
       style="color:#000000;fill:#000000;fill-opacity:1;fill-rule:nonzero;stroke:#000000;stroke-width:0.15743293;stroke-linecap:butt;stroke-linejoin:miter;stroke-miterlimit:4;stroke-opacity:1;stroke-dasharray:none;stroke-dashoffset:0;marker:none;visibility:visible;display:inline;overflow:visible;enable-background:accumulate"
       id="path3789-6-8-1"
       d="m 728.99874,877.39908 c -0.22995,0.28312 -0.87365,1.81099 -0.2378,1.73551 0.66448,0.0109 0.89101,-1.22642 0.77886,-2.41624 -0.29543,-1.2022 -0.80359,-0.7902 -0.96767,0.31473 0.0756,0.57747 0.36497,0.71056 0.61838,0.77794 0,0 -0.13132,1.26853 -0.13132,1.26853 l 0,0 c -0.64786,-0.35272 -1.14293,-0.98733 -1.06136,-2.55254 0.54665,-2.35595 1.63779,-2.51976 2.16031,0.0218 0.0973,2.14296 -0.41462,4.05241 -1.5657,3.83515 -1.1022,-0.87855 -0.70262,-2.86002 0.0603,-4.06456 0,0 0.34597,1.07969 0.34597,1.07969 z"
       inkscape:connector-curvature="0" />
    <path
       style="color:#000000;fill:#000000;fill-opacity:1;fill-rule:nonzero;stroke:#000000;stroke-width:0.13803782;stroke-linecap:butt;stroke-linejoin:miter;stroke-miterlimit:4;stroke-opacity:1;stroke-dasharray:none;stroke-dashoffset:0;marker:none;visibility:visible;display:inline;overflow:visible;enable-background:accumulate"
       id="path3779-2-8-5-8"
       d="m 762.59485,875.86514 c -0.96087,3.12771 -1.42071,6.35981 -1.75618,9.60666 -0.24709,2.59701 -0.33498,5.20506 -0.38679,7.81223 0,0 -0.78473,-0.0161 -0.78473,-0.0161 l 0,0 c 0.0524,-2.62934 0.14131,-5.25964 0.39088,-7.87865 0.34207,-3.30392 0.81243,-6.59284 1.7922,-9.77504 0,0 0.74462,0.25076 0.74462,0.25076 z"
       inkscape:connector-curvature="0" />
    <path
       style="color:#000000;fill:#000000;fill-opacity:1;fill-rule:nonzero;stroke:#000000;stroke-width:0.21401076;stroke-linecap:butt;stroke-linejoin:miter;stroke-miterlimit:4;stroke-opacity:1;stroke-dasharray:none;stroke-dashoffset:0;marker:none;visibility:visible;display:inline;overflow:visible;enable-background:accumulate"
       id="path3783-6-2"
       d="m 746.15148,875.89533 c -0.4275,3.47591 -1.19842,6.91766 -1.82277,10.37554 -0.37931,3.05105 -1.20154,6.05821 -1.80748,9.08698 0,0 -1.41345,-0.15184 -1.41345,-0.15184 l 0,0 c 0.60532,-3.02393 1.42589,-6.02633 1.80471,-9.07249 0.6165,-3.41254 1.37187,-6.80926 1.81042,-10.23819 0,0 1.42857,0 1.42857,0 z"
       inkscape:connector-curvature="0" />
    <path
       style="color:#000000;fill:#000000;fill-opacity:1;fill-rule:nonzero;stroke:#000000;stroke-width:0.13803782;stroke-linecap:butt;stroke-linejoin:miter;stroke-miterlimit:4;stroke-opacity:1;stroke-dasharray:none;stroke-dashoffset:0;marker:none;visibility:visible;display:inline;overflow:visible;enable-background:accumulate"
       id="path3777-7-1-5-8"
       d="m 736.42058,885.25501 c 2.74718,-0.46614 5.54418,-0.53078 8.32295,-0.62025 2.36409,-0.0105 4.73581,-0.19474 7.09471,0.008 0,0 -0.0663,0.78985 -0.0663,0.78985 l 0,0 c -2.32759,-0.20297 -4.67043,-0.008 -7.00342,0 -2.7234,0.0877 -5.46352,0.15218 -8.1576,0.59712 0,0 -0.19036,-0.76906 -0.19036,-0.76906 z"
       inkscape:connector-curvature="0" />
    <path
       style="color:#000000;fill:#000000;fill-opacity:1;fill-rule:nonzero;stroke:#000000;stroke-width:0.23003161;stroke-linecap:butt;stroke-linejoin:miter;stroke-miterlimit:4;stroke-opacity:1;stroke-dasharray:none;stroke-dashoffset:0;marker:none;visibility:visible;display:inline;overflow:visible;enable-background:accumulate"
       id="path3845-6-8-8"
       d="m 703.97473,849.36114 c -2.93571,1.02672 -5.01946,3.33694 -7.00312,5.53668 -3.12493,3.25007 -4.74845,7.26123 -5.78776,11.47847 -0.95301,4.9084 -1.20936,9.8902 -0.52113,14.83551 1.20017,5.40957 4.27292,9.62213 8.79971,12.96991 2.6601,1.82803 5.65396,3.01249 8.75188,3.96608 0,0 -0.41671,1.21876 -0.41671,1.21876 l 0,0 c -3.24576,-1.00589 -6.38271,-2.25132 -9.16607,-4.17562 -4.78803,-3.57997 -8.06136,-8.05583 -9.30564,-13.81248 -0.698,-5.10021 -0.4518,-10.23562 0.54552,-15.2957 1.09785,-4.41469 2.80873,-8.61388 6.07727,-12.01976 2.10166,-2.32238 4.32455,-4.75198 7.42308,-5.84805 0,0 0.60297,1.1462 0.60297,1.1462 z"
       inkscape:connector-curvature="0" />
    <path
       style="color:#000000;fill:#000000;fill-opacity:1;fill-rule:nonzero;stroke:#000000;stroke-width:0.25;stroke-linecap:butt;stroke-linejoin:miter;stroke-miterlimit:4;stroke-opacity:1;stroke-dasharray:none;stroke-dashoffset:0;marker:none;visibility:visible;display:inline;overflow:visible;enable-background:accumulate"
       id="path3775-9"
       d="m 153.1341,985.89199 c -1.7953,4.1981 -2.82275,8.7304 -3.14349,13.2773 0.37045,3.92581 3.08875,5.37621 6.74582,5.32671 2.30058,-0.2905 1.17055,-0.063 3.39071,-0.6782 0,0 0.37542,1.3783 0.37542,1.3783 l 0,0 c -2.47797,0.6648 -1.22291,0.4224 -3.76498,0.7285 -4.81277,-0.047 -7.63027,-1.835 -8.17183,-6.85821 0.34637,-4.6929 1.38345,-9.3703 3.24195,-13.7049 0,0 1.3264,0.5305 1.3264,0.5305 z"
       inkscape:connector-curvature="0" />
    <path
       style="color:#000000;fill:#000000;fill-opacity:1;fill-rule:nonzero;stroke:#000000;stroke-width:0.25;stroke-linecap:butt;stroke-linejoin:miter;stroke-miterlimit:4;stroke-opacity:1;stroke-dasharray:none;stroke-dashoffset:0;marker:none;visibility:visible;display:inline;overflow:visible;enable-background:accumulate"
       id="path3777-5"
       d="m 164.75152,991.05139 c 5.00013,-0.8401 10.09094,-0.9566 15.14855,-1.118 4.30287,-0.019 8.61961,-0.3509 12.91304,0.01 0,0 -0.12063,1.4235 -0.12063,1.4235 l 0,0 c -4.23643,-0.3658 -8.50063,-0.01 -12.74689,0 -4.95684,0.1579 -9.94413,0.2742 -14.84759,1.076 0,0 -0.34648,-1.3859 -0.34648,-1.3859 z"
       inkscape:connector-curvature="0" />
    <path
       style="color:#000000;fill:#000000;fill-opacity:1;fill-rule:nonzero;stroke:#000000;stroke-width:0.25;stroke-linecap:butt;stroke-linejoin:miter;stroke-miterlimit:4;stroke-opacity:1;stroke-dasharray:none;stroke-dashoffset:0;marker:none;visibility:visible;display:inline;overflow:visible;enable-background:accumulate"
       id="path3779"
       d="m 205.71996,974.59494 c -1.74886,5.63675 -2.58582,11.46135 -3.1964,17.31265 -0.44973,4.6802 -0.6097,9.38031 -0.70399,14.07881 0,0 -1.42828,-0.029 -1.42828,-0.029 l 0,0 c 0.0953,-4.7385 0.2572,-9.47861 0.71143,-14.19851 0.62261,-5.9542 1.47871,-11.8812 3.26198,-17.61602 0,0 1.35526,0.45175 1.35526,0.45175 z"
       inkscape:connector-curvature="0" />
    <path
       style="color:#000000;fill:#000000;fill-opacity:1;fill-rule:nonzero;stroke:#000000;stroke-width:0.17109925;stroke-linecap:butt;stroke-linejoin:miter;stroke-miterlimit:4;stroke-opacity:1;stroke-dasharray:none;stroke-dashoffset:0;marker:none;visibility:visible;display:inline;overflow:visible;enable-background:accumulate"
       id="path3789-2"
       d="m 152.74861,975.99209 c -0.24364,0.3156 -0.92567,2.0188 -0.25196,1.9347 0.70405,0.012 0.94407,-1.3672 0.82524,-2.6936 -0.31302,-1.34017 -0.85144,-0.88089 -1.02529,0.35086 0.0801,0.64374 0.3867,0.79214 0.6552,0.86724 0,0 -0.13914,1.4141 -0.13914,1.4141 l 0,0 c -0.68644,-0.3932 -1.21099,-1.1006 -1.12456,-2.84549 0.5792,-2.62634 1.73532,-2.80895 2.28895,0.0243 0.10308,2.38889 -0.43931,4.51749 -1.65893,4.27529 -1.16783,-0.9794 -0.74446,-3.1882 0.0639,-4.53103 0,0 0.36657,1.20363 0.36657,1.20363 z"
       inkscape:connector-curvature="0" />
    <path
       style="color:#000000;fill:#000000;fill-opacity:1;fill-rule:nonzero;stroke:#000000;stroke-width:0.25;stroke-linecap:butt;stroke-linejoin:miter;stroke-miterlimit:4;stroke-opacity:1;stroke-dasharray:none;stroke-dashoffset:0;marker:none;visibility:visible;display:inline;overflow:visible;enable-background:accumulate"
       id="path3781-2"
       d="m 702.55856,976.85501 c -2.08117,4.6875 -3.3733,9.6844 -3.98301,14.7646 -0.366,4.7248 -0.21612,8.40869 4.16022,10.93039 2.19367,0.6876 4.38365,0.2452 6.51143,-0.4316 0,0 0.42456,1.3641 0.42456,1.3641 l 0,0 c -2.5367,0.7746 -5.08775,1.2419 -7.66473,0.2962 -4.88281,-2.9649 -5.28649,-6.91359 -4.84967,-12.33109 0.64166,-5.2408 1.96046,-10.3992 4.12345,-15.2315 0,0 1.27775,0.6389 1.27775,0.6389 z"
       inkscape:connector-curvature="0" />
    <path
       style="color:#000000;fill:#000000;fill-opacity:1;fill-rule:nonzero;stroke:#000000;stroke-width:0.25;stroke-linecap:butt;stroke-linejoin:miter;stroke-miterlimit:4;stroke-opacity:1;stroke-dasharray:none;stroke-dashoffset:0;marker:none;visibility:visible;display:inline;overflow:visible;enable-background:accumulate"
       id="path3783-2"
       d="m 731.54716,978.13501 c -0.4275,4.7432 -1.19842,9.4399 -1.82277,14.1585 -0.37931,4.1635 -1.20154,8.26709 -1.80748,12.40019 0,0 -1.41345,-0.2072 -1.41345,-0.2072 l 0,0 c 0.60532,-4.1265 1.42589,-8.22359 1.80471,-12.38039 0.6165,-4.6568 1.37187,-9.292 1.81042,-13.9711 0,0 1.42857,0 1.42857,0 z"
       inkscape:connector-curvature="0" />
    <path
       style="color:#000000;fill:#000000;fill-opacity:1;fill-rule:nonzero;stroke:#000000;stroke-width:0.25;stroke-linecap:butt;stroke-linejoin:miter;stroke-miterlimit:4;stroke-opacity:1;stroke-dasharray:none;stroke-dashoffset:0;marker:none;visibility:visible;display:inline;overflow:visible;enable-background:accumulate"
       id="path3785-1"
       d="m 715.23502,992.05881 c 4.12689,-2.0259 8.69819,-2.7458 13.20883,-3.343 3.68741,-0.4204 7.39773,-0.5529 11.10435,-0.6683 0,0 0.0444,1.4279 0.0444,1.4279 l 0,0 c -3.65891,0.1137 -7.3215,0.2436 -10.96164,0.6566 -4.2995,0.5669 -8.64372,1.2476 -12.60353,3.1154 0,0 -0.79243,-1.1886 -0.79243,-1.1886 z"
       inkscape:connector-curvature="0" />
    <path
       style="color:#000000;fill:#000000;fill-opacity:1;fill-rule:nonzero;stroke:#000000;stroke-width:0.25;stroke-linecap:butt;stroke-linejoin:miter;stroke-miterlimit:4;stroke-opacity:1;stroke-dasharray:none;stroke-dashoffset:0;marker:none;visibility:visible;display:inline;overflow:visible;enable-background:accumulate"
       id="path3787"
       d="m 754.40431,970.82121 c -0.11648,5.1683 -0.97683,10.3082 -1.8637,15.3933 -1.27928,5.8705 -1.55713,11.8825 -2.38939,17.81329 -0.44548,2.7298 -0.22935,1.4024 -0.64854,3.9821 0,0 -1.41007,-0.2291 -1.41007,-0.2291 l 0,0 c 0.41768,-2.5704 0.20307,-1.253 0.64398,-3.9521 0.83943,-5.94529 1.10959,-11.97469 2.39672,-17.85989 0.87398,-5.0037 1.7227,-10.0623 1.84243,-15.1476 0,0 1.42857,0 1.42857,0 z"
       inkscape:connector-curvature="0" />
    <path
       style="color:#000000;fill:#000000;fill-opacity:1;fill-rule:nonzero;stroke:#000000;stroke-width:0.17109925;stroke-linecap:butt;stroke-linejoin:miter;stroke-miterlimit:4;stroke-opacity:1;stroke-dasharray:none;stroke-dashoffset:0;marker:none;visibility:visible;display:inline;overflow:visible;enable-background:accumulate"
       id="path3789-7-4-6"
       d="m 701.64494,968.25421 c -0.24364,0.3156 -0.92567,2.0188 -0.25196,1.9346 0.70405,0.012 0.94407,-1.3671 0.82524,-2.6935 -0.31302,-1.3402 -0.85144,-0.8809 -1.02529,0.3509 0.0801,0.6437 0.3867,0.7921 0.6552,0.8672 0,0 -0.13914,1.4141 -0.13914,1.4141 l 0,0 c -0.68644,-0.3932 -1.21099,-1.1007 -1.12456,-2.8455 0.5792,-2.6263 1.73532,-2.8089 2.28895,0.024 0.10308,2.3889 -0.43931,4.5175 -1.65893,4.2753 -1.16783,-0.9794 -0.74446,-3.1883 0.0639,-4.531 0,0 0.36657,1.2036 0.36657,1.2036 z"
       inkscape:connector-curvature="0" />
  </g>
</svg>
