<?xml version="1.0" encoding="UTF-8" standalone="no"?>
<!-- Created with Inkscape (http://www.inkscape.org/) -->

<svg
   xmlns:dc="http://purl.org/dc/elements/1.1/"
   xmlns:cc="http://creativecommons.org/ns#"
   xmlns:rdf="http://www.w3.org/1999/02/22-rdf-syntax-ns#"
   xmlns:svg="http://www.w3.org/2000/svg"
   xmlns="http://www.w3.org/2000/svg"
   xmlns:sodipodi="http://sodipodi.sourceforge.net/DTD/sodipodi-0.dtd"
   xmlns:inkscape="http://www.inkscape.org/namespaces/inkscape"
   id="svg3036"
   version="1.1"
   inkscape:version="0.48.3.1 r9886"
   width="500"
   height="220"
   sodipodi:docname="stencil_4.png">
  <metadata
     id="metadata3042">
    <rdf:RDF>
      <cc:Work
         rdf:about="">
        <dc:format>image/svg+xml</dc:format>
        <dc:type
           rdf:resource="http://purl.org/dc/dcmitype/StillImage" />
        <dc:title></dc:title>
      </cc:Work>
    </rdf:RDF>
  </metadata>
  <defs
     id="defs3040" />
  <sodipodi:namedview
     pagecolor="#ffffff"
     bordercolor="#666666"
     borderopacity="1"
     objecttolerance="10"
     gridtolerance="10"
     guidetolerance="10"
     inkscape:pageopacity="0"
     inkscape:pageshadow="2"
     inkscape:window-width="983"
     inkscape:window-height="807"
     id="namedview3038"
     showgrid="false"
     inkscape:zoom="1.1737973"
     inkscape:cx="269.29066"
     inkscape:cy="169.37849"
     inkscape:window-x="0"
     inkscape:window-y="31"
     inkscape:window-maximized="1"
     inkscape:current-layer="svg3036"
     showguides="true"
     inkscape:guide-bbox="true" />
  <path
     style="color:#000000;fill-opacity:1;fill-rule:nonzero;stroke-width:1;stroke-linecap:butt;stroke-linejoin:miter;stroke-miterlimit:4;stroke-opacity:1;stroke-dasharray:none;stroke-dashoffset:0;marker:none;visibility:visible;display:inline;overflow:visible;enable-background:accumulate"
     id="path3253"
     d="m 168.12279,45.01205 c -2.10966,0.13549 -3.86271,0.90074 -5.45392,2.26033 -1.31773,1.39578 -1.29806,2.99527 -1.07572,4.76847 0.46044,1.5477 1.2279,2.97114 2.52619,3.95644 1.52023,0.8068 2.97147,1.71386 4.73251,1.78741 1.83639,-6.2e-4 3.13529,-1.28783 4.46849,-2.37859 1.42195,-1.36873 2.22037,-3.18386 2.75851,-5.05003 0.31319,-2.13103 -0.19581,-2.64667 -1.75477,-3.8304 -1.59939,-1.083 -3.52313,-1.26484 -5.39547,-1.4205 -2.58851,0.006 -4.37405,1.62258 -6.10937,3.33246 -0.27315,0.38049 -0.5463,0.76098 -0.81945,1.14146 0,0 -0.97461,-0.70832 -0.97461,-0.70832 l 0,0 c 0.31639,-0.43069 0.63278,-0.86138 0.94918,-1.29207 1.99576,-1.95987 4.09243,-3.71119 7.05485,-3.67414 2.10353,0.17754 4.24191,0.42229 6.02352,1.66161 1.97367,1.49901 2.60679,2.56043 2.18292,5.12668 -0.61631,2.09891 -1.52984,4.12435 -3.15253,5.64586 -1.5771,1.28948 -3.13059,2.69353 -5.30375,2.64862 -2.00395,-0.14841 -3.69023,-1.04645 -5.40407,-2.04242 -1.52013,-1.22434 -2.48894,-2.86332 -2.97779,-4.75563 -0.26881,-2.18546 -0.14582,-4.17047 1.49536,-5.83855 1.82347,-1.51652 3.831,-2.41655 6.22992,-2.54351 0,0 0,1.20482 0,1.20482 z"
     inkscape:connector-curvature="0" />
  <path
     style="color:#000000;fill:#000000;fill-opacity:1;fill-rule:nonzero;stroke-width:1;stroke-linecap:butt;stroke-linejoin:miter;stroke-miterlimit:4;stroke-opacity:1;stroke-dasharray:none;stroke-dashoffset:0;marker:none;visibility:visible;display:inline;overflow:visible;enable-background:accumulate"
     id="path3253-5"
     d="m 91.03378,44.45762 c -2.10966,0.13549 -3.86271,0.90074 -5.45392,2.26033 -1.31773,1.39578 -1.29806,2.99527 -1.07572,4.76847 0.46044,1.5477 1.2279,2.97114 2.52619,3.95644 1.52023,0.8068 2.97147,1.71386 4.73251,1.78741 1.83639,-6.2e-4 3.13529,-1.28783 4.46849,-2.37859 1.42195,-1.36873 2.22037,-3.18386 2.75851,-5.05003 0.31319,-2.13103 -0.19581,-2.64667 -1.75477,-3.8304 -1.59939,-1.083 -3.52313,-1.26484 -5.39547,-1.4205 -2.58851,0.006 -4.37405,1.62258 -6.10937,3.33246 -0.27315,0.38049 -0.5463,0.76098 -0.81945,1.14146 0,0 -0.97461,-0.70832 -0.97461,-0.70832 l 0,0 c 0.31639,-0.43069 0.63278,-0.86138 0.94918,-1.29207 1.99576,-1.95987 4.09243,-3.71119 7.05485,-3.67414 2.10353,0.17754 4.24191,0.42229 6.02352,1.66161 1.97367,1.49901 2.60679,2.56043 2.18292,5.12668 -0.61631,2.09891 -1.52984,4.12435 -3.15253,5.64586 -1.5771,1.28948 -3.13059,2.69353 -5.30375,2.64862 -2.00395,-0.14841 -3.69023,-1.04645 -5.40407,-2.04242 -1.52013,-1.22434 -2.48894,-2.86332 -2.97779,-4.75563 -0.26881,-2.18546 -0.14582,-4.17047 1.49536,-5.83855 1.82347,-1.51652 3.831,-2.41655 6.22992,-2.54351 0,0 0,1.20482 0,1.20482 z"
     inkscape:connector-curvature="0" />
  <path
     style="color:#000000;fill-opacity:1;fill-rule:nonzero;stroke-width:1;stroke-linecap:butt;stroke-linejoin:miter;stroke-miterlimit:4;stroke-opacity:1;stroke-dasharray:none;stroke-dashoffset:0;marker:none;visibility:visible;display:inline;overflow:visible;enable-background:accumulate"
     id="path3253-5-8"
     d="m 243.6121,43.99978 c -2.10966,0.13549 -3.86271,0.90074 -5.45392,2.26033 -1.31773,1.39578 -1.29806,2.99527 -1.07572,4.76847 0.46044,1.5477 1.2279,2.97114 2.52619,3.95644 1.52023,0.8068 2.97147,1.71386 4.73251,1.78741 1.83639,-6.2e-4 3.13529,-1.28783 4.46849,-2.37859 1.42195,-1.36873 2.22037,-3.18386 2.75851,-5.05003 0.31319,-2.13103 -0.19581,-2.64667 -1.75477,-3.8304 -1.59939,-1.083 -3.52313,-1.26484 -5.39547,-1.4205 -2.58851,0.006 -4.37405,1.62258 -6.10937,3.33246 -0.27315,0.38049 -0.5463,0.76098 -0.81945,1.14146 0,0 -0.97461,-0.70832 -0.97461,-0.70832 l 0,0 c 0.31639,-0.43069 0.63278,-0.86138 0.94918,-1.29207 1.99576,-1.95987 4.09243,-3.71119 7.05485,-3.67414 2.10353,0.17754 4.24191,0.42229 6.02352,1.66161 1.97367,1.49901 2.60679,2.56043 2.18292,5.12668 -0.61631,2.09891 -1.52984,4.12435 -3.15253,5.64586 -1.5771,1.28948 -3.13059,2.69353 -5.30375,2.64862 -2.00395,-0.14841 -3.69023,-1.04645 -5.40407,-2.04242 -1.52013,-1.22434 -2.48894,-2.86332 -2.97779,-4.75563 -0.26881,-2.18546 -0.14582,-4.17047 1.49536,-5.83855 1.82347,-1.51652 3.831,-2.41655 6.22992,-2.54351 0,0 0,1.20482 0,1.20482 z"
     inkscape:connector-curvature="0" />
  <path
     style="color:#000000;fill-opacity:1;fill-rule:nonzero;stroke-width:1;stroke-linecap:butt;stroke-linejoin:miter;stroke-miterlimit:4;stroke-opacity:1;stroke-dasharray:none;stroke-dashoffset:0;marker:none;visibility:visible;display:inline;overflow:visible;enable-background:accumulate"
     id="path3253-8"
     d="m 168.7493,146.48182 c -2.10966,0.13549 -3.86271,0.90074 -5.45392,2.26033 -1.31773,1.39578 -1.29806,2.99527 -1.07572,4.76847 0.46044,1.5477 1.2279,2.97114 2.52619,3.95644 1.52023,0.8068 2.97147,1.71386 4.73251,1.78741 1.83639,-6.2e-4 3.13529,-1.28783 4.46849,-2.37859 1.42195,-1.36873 2.22037,-3.18386 2.75851,-5.05003 0.31319,-2.13103 -0.19581,-2.64667 -1.75477,-3.8304 -1.59939,-1.083 -3.52313,-1.26484 -5.39547,-1.4205 -2.58851,0.006 -4.37405,1.62258 -6.10937,3.33246 -0.27315,0.38049 -0.5463,0.76098 -0.81945,1.14146 0,0 -0.97461,-0.70832 -0.97461,-0.70832 l 0,0 c 0.31639,-0.43069 0.63278,-0.86138 0.94918,-1.29207 1.99576,-1.95987 4.09243,-3.71119 7.05485,-3.67414 2.10353,0.17754 4.24191,0.42229 6.02352,1.66161 1.97367,1.49901 2.60679,2.56043 2.18292,5.12668 -0.61631,2.09891 -1.52984,4.12435 -3.15253,5.64586 -1.5771,1.28948 -3.13059,2.69353 -5.30375,2.64862 -2.00395,-0.14841 -3.69023,-1.04645 -5.40407,-2.04242 -1.52013,-1.22434 -2.48894,-2.86332 -2.97779,-4.75563 -0.26881,-2.18546 -0.14582,-4.17047 1.49536,-5.83855 1.82347,-1.51652 3.831,-2.41655 6.22992,-2.54351 0,0 0,1.20482 0,1.20482 z"
     inkscape:connector-curvature="0" />
  <path
     style="color:#000000;fill-opacity:1;fill-rule:nonzero;stroke-width:1;stroke-linecap:butt;stroke-linejoin:miter;stroke-miterlimit:4;stroke-opacity:1;stroke-dasharray:none;stroke-dashoffset:0;marker:none;visibility:visible;display:inline;overflow:visible;enable-background:accumulate"
     id="path3253-5-5"
     d="m 91.66029,145.92739 c -2.10966,0.13549 -3.86271,0.90074 -5.45392,2.26033 -1.31773,1.39578 -1.29806,2.99527 -1.07572,4.76847 0.46044,1.5477 1.2279,2.97114 2.52619,3.95644 1.52023,0.8068 2.97147,1.71386 4.73251,1.78741 1.83639,-6.2e-4 3.13529,-1.28783 4.46849,-2.37859 1.42195,-1.36873 2.22037,-3.18386 2.75851,-5.05003 0.31319,-2.13103 -0.19581,-2.64667 -1.75477,-3.8304 -1.59939,-1.083 -3.52313,-1.26484 -5.39547,-1.4205 -2.58851,0.006 -4.37405,1.62258 -6.10937,3.33246 -0.27315,0.38049 -0.5463,0.76098 -0.81945,1.14146 0,0 -0.97461,-0.70832 -0.97461,-0.70832 l 0,0 c 0.31639,-0.43069 0.63278,-0.86138 0.94918,-1.29207 1.99576,-1.95987 4.09243,-3.71119 7.05485,-3.67414 2.10353,0.17754 4.24191,0.42229 6.02352,1.66161 1.97367,1.49901 2.60679,2.56043 2.18292,5.12668 -0.61631,2.09891 -1.52984,4.12435 -3.15253,5.64586 -1.5771,1.28948 -3.13059,2.69353 -5.30375,2.64862 -2.00395,-0.14841 -3.69023,-1.04645 -5.40407,-2.04242 -1.52013,-1.22434 -2.48894,-2.86332 -2.97779,-4.75563 -0.26881,-2.18546 -0.14582,-4.17047 1.49536,-5.83855 1.82347,-1.51652 3.831,-2.41655 6.22992,-2.54351 0,0 0,1.20482 0,1.20482 z"
     inkscape:connector-curvature="0" />
  <path
     style="color:#000000;fill-opacity:1;fill-rule:nonzero;stroke-width:1;stroke-linecap:butt;stroke-linejoin:miter;stroke-miterlimit:4;stroke-opacity:1;stroke-dasharray:none;stroke-dashoffset:0;marker:none;visibility:visible;display:inline;overflow:visible;enable-background:accumulate"
     id="path3253-5-8-9"
     d="m 244.23861,145.46955 c -2.10966,0.13549 -3.86271,0.90074 -5.45392,2.26033 -1.31773,1.39578 -1.29806,2.99527 -1.07572,4.76847 0.46044,1.5477 1.2279,2.97114 2.52619,3.95644 1.52023,0.8068 2.97147,1.71386 4.73251,1.78741 1.83639,-6.2e-4 3.13529,-1.28783 4.46849,-2.37859 1.42195,-1.36873 2.22037,-3.18386 2.75851,-5.05003 0.31319,-2.13103 -0.19581,-2.64667 -1.75477,-3.8304 -1.59939,-1.083 -3.52313,-1.26484 -5.39547,-1.4205 -2.58851,0.006 -4.37405,1.62258 -6.10937,3.33246 -0.27315,0.38049 -0.5463,0.76098 -0.81945,1.14146 0,0 -0.97461,-0.70832 -0.97461,-0.70832 l 0,0 c 0.31639,-0.43069 0.63278,-0.86138 0.94918,-1.29207 1.99576,-1.95987 4.09243,-3.71119 7.05485,-3.67414 2.10353,0.17754 4.24191,0.42229 6.02352,1.66161 1.97367,1.49901 2.60679,2.56043 2.18292,5.12668 -0.61631,2.09891 -1.52984,4.12435 -3.15253,5.64586 -1.5771,1.28948 -3.13059,2.69353 -5.30375,2.64862 -2.00395,-0.14841 -3.69023,-1.04645 -5.40407,-2.04242 -1.52013,-1.22434 -2.48894,-2.86332 -2.97779,-4.75563 -0.26881,-2.18546 -0.14582,-4.17047 1.49536,-5.83855 1.82347,-1.51652 3.831,-2.41655 6.22992,-2.54351 0,0 0,1.20482 0,1.20482 z"
     inkscape:connector-curvature="0" />
  <path
     style="color:#000000;fill-opacity:1;fill-rule:nonzero;stroke-width:1;stroke-linecap:butt;stroke-linejoin:miter;stroke-miterlimit:4;stroke-opacity:1;stroke-dasharray:none;stroke-dashoffset:0;marker:none;visibility:visible;display:inline;overflow:visible;enable-background:accumulate"
     id="path3322"
     d="m 33.46988,48.33504 c 0,2.74795 0,5.4959 0,8.24385 0,1.73899 0,3.47798 0,5.21698 0,0 -1.20482,0 -1.20482,0 l 0,0 c 0,-1.739 0,-3.47799 0,-5.21698 0,-2.74795 0,-5.4959 0,-8.24385 0,0 1.20482,0 1.20482,0 z"
     inkscape:connector-curvature="0" />
  <path
     style="color:#000000;fill-opacity:1;fill-rule:nonzero;stroke-width:1;stroke-linecap:butt;stroke-linejoin:miter;stroke-miterlimit:4;stroke-opacity:1;stroke-dasharray:none;stroke-dashoffset:0;marker:none;visibility:visible;display:inline;overflow:visible;enable-background:accumulate"
     id="path3324"
     d="m 23.83136,55.31336 c 2.74766,-0.52879 5.53689,-0.77064 8.32643,-0.9358 2.57519,0.044 5.08493,-0.25712 7.61611,-0.68189 0.40888,-0.0608 0.81775,-0.12162 1.22663,-0.18243 0,0 0.17713,1.19173 0.17713,1.19173 l 0,0 c -0.40145,0.0596 -0.8029,0.11927 -1.20436,0.1789 -2.57299,0.43179 -5.12739,0.73807 -7.7444,0.69641 -2.73412,0.16143 -5.46801,0.39726 -8.16126,0.91451 0,0 -0.23628,-1.18143 -0.23628,-1.18143 z"
     inkscape:connector-curvature="0" />
  <path
     style="color:#000000;fill-opacity:1;fill-rule:nonzero;stroke-width:1;stroke-linecap:butt;stroke-linejoin:miter;stroke-miterlimit:4;stroke-opacity:1;stroke-dasharray:none;stroke-dashoffset:0;marker:none;visibility:visible;display:inline;overflow:visible;enable-background:accumulate"
     id="path3326"
     d="m 50.33735,43.51577 c 0,3.03898 0,6.07796 0,9.11694 -0.19923,3.00421 0.32564,5.95396 0.72046,8.91673 0.0496,0.43915 0.0992,0.8783 0.14884,1.31745 0,0 -1.19721,0.13515 -1.19721,0.13515 l 0,0 c -0.0486,-0.43116 -0.0973,-0.86232 -0.1459,-1.29348 -0.40166,-3.01515 -0.92968,-6.01883 -0.73101,-9.07585 0,-3.03898 0,-6.07796 0,-9.11694 0,0 1.20482,0 1.20482,0 z"
     inkscape:connector-curvature="0" />
  <path
     style="color:#000000;fill-opacity:1;fill-rule:nonzero;stroke-width:1;stroke-linecap:butt;stroke-linejoin:miter;stroke-miterlimit:4;stroke-opacity:1;stroke-dasharray:none;stroke-dashoffset:0;marker:none;visibility:visible;display:inline;overflow:visible;enable-background:accumulate"
     id="path3320-7"
     d="m 32.4626,145.65388 c -0.24855,2.73668 -0.4971,5.47337 -0.74565,8.21006 -0.11068,1.21857 -0.22135,2.43715 -0.33202,3.65573 -0.0217,0.23874 0.14524,0.83129 -0.065,0.71621 -0.40328,-0.22069 -0.75945,-0.51826 -1.13917,-0.7774 0.23454,-2.09377 0.25524,-4.21509 0.72009,-6.27333 0.4889,-2.01207 1.20489,-3.88116 2.79542,-5.25417 2.17774,-1.36734 3.86039,-0.17846 4.82772,1.89538 1.08196,2.21013 1.14521,4.65743 1.49415,7.03795 0.24668,1.65064 0.13348,0.82185 0.33929,2.4864 0,0 -1.19574,0.14765 -1.19574,0.14765 l 0,0 c -0.20171,-1.63565 -0.09,-0.81546 -0.3358,-2.4605 -0.32844,-2.27133 -0.37896,-4.60845 -1.40169,-6.71952 -0.57385,-1.36039 -1.45249,-2.34237 -2.95617,-1.46217 -1.42834,1.13544 -1.93478,2.8946 -2.39328,4.60016 -0.47368,1.99827 -0.44405,4.07664 -0.69411,6.11112 -0.42019,0.18649 -0.82415,0.41503 -1.26059,0.55946 -0.22758,0.0753 0.0434,-0.47748 0.065,-0.71622 0.11067,-1.21857 0.22134,-2.43716 0.33202,-3.65573 0.24855,-2.73669 0.4971,-5.47337 0.74565,-8.21006 0,0 1.19988,0.10898 1.19988,0.10898 z"
     inkscape:connector-curvature="0" />
  <path
     style="color:#000000;fill-opacity:1;fill-rule:nonzero;stroke-width:1;stroke-linecap:butt;stroke-linejoin:miter;stroke-miterlimit:4;stroke-opacity:1;stroke-dasharray:none;stroke-dashoffset:0;marker:none;visibility:visible;display:inline;overflow:visible;enable-background:accumulate"
     id="path3320-7-8"
     d="m 11.1727,48.91618 c -0.24855,2.73668 -0.4971,5.47337 -0.74565,8.21006 -0.11068,1.21857 -0.22135,2.43715 -0.33202,3.65573 -0.0217,0.23874 0.14524,0.83129 -0.065,0.71621 -0.40328,-0.22069 -0.75945,-0.51826 -1.13917,-0.7774 0.23454,-2.09377 0.25524,-4.21509 0.72009,-6.27333 0.4889,-2.01207 1.20489,-3.88116 2.79542,-5.25417 2.17774,-1.36734 3.86039,-0.17846 4.82772,1.89538 1.08196,2.21013 1.14521,4.65743 1.49415,7.03795 0.24668,1.65064 0.13348,0.82185 0.33929,2.4864 0,0 -1.19574,0.14765 -1.19574,0.14765 l 0,0 c -0.20171,-1.63565 -0.09,-0.81546 -0.3358,-2.4605 -0.32844,-2.27133 -0.37896,-4.60845 -1.40169,-6.71952 -0.57385,-1.36039 -1.45249,-2.34237 -2.95617,-1.46217 -1.42834,1.13544 -1.93478,2.8946 -2.39328,4.60016 -0.47368,1.99827 -0.44405,4.07664 -0.69411,6.11112 -0.42019,0.18649 -0.82415,0.41503 -1.26059,0.55946 -0.22758,0.0753 0.0434,-0.47748 0.065,-0.71622 0.11067,-1.21857 0.22134,-2.43716 0.33202,-3.65573 0.24855,-2.73669 0.4971,-5.47337 0.74565,-8.21006 0,0 1.19988,0.10898 1.19988,0.10898 z"
     inkscape:connector-curvature="0" />
  <path
     style="color:#000000;fill-opacity:1;fill-rule:nonzero;stroke-width:1;stroke-linecap:butt;stroke-linejoin:miter;stroke-miterlimit:4;stroke-opacity:1;stroke-dasharray:none;stroke-dashoffset:0;marker:none;visibility:visible;display:inline;overflow:visible;enable-background:accumulate"
     id="path3364"
     d="m 168.24096,192.76878 c 0,2.45126 0,4.90251 0,7.35377 -0.009,1.96504 0.0171,4.12917 1.72513,5.54599 1.81059,0.61857 3.35275,-1.01707 4.36954,-2.1557 0,0 0.93523,0.67755 0.93523,0.67755 l 0,0 c -1.54319,1.66764 -3.62815,3.48772 -6.14808,2.24572 -1.88188,-1.70847 -2.15578,-3.98945 -2.08664,-6.31356 0,-2.45126 0,-4.90251 0,-7.35377 0,0 1.20482,0 1.20482,0 z"
     inkscape:connector-curvature="0" />
  <path
     style="fill:none;stroke:#000000;stroke-width:1.11006212px;stroke-linecap:butt;stroke-linejoin:miter;stroke-opacity:1"
     d="m 168.84337,187.01205 -2.69341,0"
     id="path3366"
     inkscape:connector-curvature="0" />
  <path
     style="color:#000000;fill-opacity:1;fill-rule:nonzero;stroke-width:1;stroke-linecap:butt;stroke-linejoin:miter;stroke-miterlimit:4;stroke-opacity:1;stroke-dasharray:none;stroke-dashoffset:0;marker:none;visibility:visible;display:inline;overflow:visible;enable-background:accumulate"
     id="path3364-4"
     d="m 232.9165,192.98461 c 0,2.45126 0,4.90251 0,7.35377 -0.009,1.96504 0.0171,4.12917 1.72513,5.54599 1.81059,0.61857 3.35275,-1.01707 4.36954,-2.1557 0,0 0.93523,0.67755 0.93523,0.67755 l 0,0 c -1.54319,1.66764 -3.62815,3.48772 -6.14808,2.24572 -1.88188,-1.70847 -2.15578,-3.98945 -2.08664,-6.31356 0,-2.45126 0,-4.90251 0,-7.35377 0,0 1.20482,0 1.20482,0 z"
     inkscape:connector-curvature="0" />
  <path
     style="fill:none;stroke:#000000;stroke-width:1.11006212px;stroke-linecap:butt;stroke-linejoin:miter;stroke-opacity:1"
     d="m 233.51891,187.22788 -2.69341,0"
     id="path3366-5"
     inkscape:connector-curvature="0" />
  <path
     style="color:#000000;fill-opacity:1;fill-rule:nonzero;stroke-width:1;stroke-linecap:butt;stroke-linejoin:miter;stroke-miterlimit:4;stroke-opacity:1;stroke-dasharray:none;stroke-dashoffset:0;marker:none;visibility:visible;display:inline;overflow:visible;enable-background:accumulate"
     id="path3322-1"
     d="m 250.33642,191.3412 c 0,2.74795 0,5.4959 0,8.24385 0,1.73899 0,3.47798 0,5.21698 0,0 -1.20482,0 -1.20482,0 l 0,0 c 0,-1.739 0,-3.47799 0,-5.21698 0,-2.74795 0,-5.4959 0,-8.24385 0,0 1.20482,0 1.20482,0 z"
     inkscape:connector-curvature="0" />
  <path
     style="color:#000000;fill-opacity:1;fill-rule:nonzero;stroke-width:1;stroke-linecap:butt;stroke-linejoin:miter;stroke-miterlimit:4;stroke-opacity:1;stroke-dasharray:none;stroke-dashoffset:0;marker:none;visibility:visible;display:inline;overflow:visible;enable-background:accumulate"
     id="path3324-6"
     d="m 240.6979,198.31952 c 2.74766,-0.52879 5.53689,-0.77064 8.32643,-0.9358 2.57519,0.044 5.08493,-0.25712 7.61611,-0.68189 0.40888,-0.0608 0.81775,-0.12162 1.22663,-0.18243 0,0 0.17713,1.19173 0.17713,1.19173 l 0,0 c -0.40145,0.0596 -0.8029,0.11927 -1.20436,0.1789 -2.57299,0.43179 -5.12739,0.73807 -7.7444,0.69641 -2.73412,0.16143 -5.46801,0.39726 -8.16126,0.91451 0,0 -0.23628,-1.18143 -0.23628,-1.18143 z"
     inkscape:connector-curvature="0" />
  <path
     style="color:#000000;fill-opacity:1;fill-rule:nonzero;stroke-width:1;stroke-linecap:butt;stroke-linejoin:miter;stroke-miterlimit:4;stroke-opacity:1;stroke-dasharray:none;stroke-dashoffset:0;marker:none;visibility:visible;display:inline;overflow:visible;enable-background:accumulate"
     id="path3326-8"
     d="m 267.20389,186.52193 c 0,3.03898 0,6.07796 0,9.11694 -0.19923,3.00421 0.32564,5.95396 0.72046,8.91673 0.0496,0.43915 0.0992,0.8783 0.14884,1.31745 0,0 -1.19721,0.13515 -1.19721,0.13515 l 0,0 c -0.0486,-0.43116 -0.0973,-0.86232 -0.1459,-1.29348 -0.40166,-3.01515 -0.92968,-6.01883 -0.73101,-9.07585 0,-3.03898 0,-6.07796 0,-9.11694 0,0 1.20482,0 1.20482,0 z"
     inkscape:connector-curvature="0" />
  <path
     style="color:#000000;fill-opacity:1;fill-rule:nonzero;stroke-width:1;stroke-linecap:butt;stroke-linejoin:miter;stroke-miterlimit:4;stroke-opacity:1;stroke-dasharray:none;stroke-dashoffset:0;marker:none;visibility:visible;display:inline;overflow:visible;enable-background:accumulate"
     id="path3364-4-6"
     d="m 75.47961,193.66248 c 0,2.45126 0,4.90251 0,7.35377 -0.009,1.96504 0.0171,4.12917 1.72513,5.54599 1.81059,0.61857 3.35275,-1.01707 4.36954,-2.1557 0,0 0.93523,0.67755 0.93523,0.67755 l 0,0 c -1.54319,1.66764 -3.62815,3.48772 -6.14808,2.24572 -1.88188,-1.70847 -2.15578,-3.98945 -2.08664,-6.31356 0,-2.45126 0,-4.90251 0,-7.35377 0,0 1.20482,0 1.20482,0 z"
     inkscape:connector-curvature="0" />
  <path
     style="fill:none;stroke:#000000;stroke-width:1.11006212px;stroke-linecap:butt;stroke-linejoin:miter;stroke-opacity:1"
     d="m 76.08202,187.90575 -2.69341,0"
     id="path3366-5-0"
     inkscape:connector-curvature="0" />
  <path
     style="color:#000000;fill-opacity:1;fill-rule:nonzero;stroke-width:1;stroke-linecap:butt;stroke-linejoin:miter;stroke-miterlimit:4;stroke-opacity:1;stroke-dasharray:none;stroke-dashoffset:0;marker:none;visibility:visible;display:inline;overflow:visible;enable-background:accumulate"
     id="path3324-6-9"
     d="m 83.26101,198.99739 c 2.74766,-0.52879 5.53689,-0.77064 8.32643,-0.9358 2.57519,0.044 5.08493,-0.25712 7.61611,-0.68189 0.40888,-0.0608 0.81775,-0.12162 1.22663,-0.18243 0,0 0.17713,1.19173 0.17713,1.19173 l 0,0 c -0.40145,0.0596 -0.8029,0.11927 -1.20436,0.1789 -2.57299,0.43179 -5.12739,0.73807 -7.7444,0.69641 -2.73412,0.16143 -5.46801,0.39726 -8.16126,0.91451 0,0 -0.23628,-1.18143 -0.23628,-1.18143 z"
     inkscape:connector-curvature="0" />
  <path
     style="color:#000000;fill-opacity:1;fill-rule:nonzero;stroke-width:1;stroke-linecap:butt;stroke-linejoin:miter;stroke-miterlimit:4;stroke-opacity:1;stroke-dasharray:none;stroke-dashoffset:0;marker:none;visibility:visible;display:inline;overflow:visible;enable-background:accumulate"
     id="path3326-8-6"
     d="m 109.767,187.1998 c 0,3.03898 0,6.07796 0,9.11694 -0.19923,3.00421 0.32564,5.95396 0.72046,8.91673 0.0496,0.43915 0.0992,0.8783 0.14884,1.31745 0,0 -1.19721,0.13515 -1.19721,0.13515 l 0,0 c -0.0486,-0.43116 -0.0973,-0.86232 -0.1459,-1.29348 -0.40166,-3.01515 -0.92968,-6.01883 -0.73101,-9.07585 0,-3.03898 0,-6.07796 0,-9.11694 0,0 1.20482,0 1.20482,0 z"
     inkscape:connector-curvature="0" />
  <path
     style="color:#000000;fill-opacity:1;fill-rule:nonzero;stroke-width:1;stroke-linecap:butt;stroke-linejoin:miter;stroke-miterlimit:4;stroke-opacity:1;stroke-dasharray:12, 12;stroke-dashoffset:0;marker:none;visibility:visible;display:inline;overflow:visible;enable-background:accumulate"
     id="path4217"
     d="m 102.82323,24.86064 c -1.63995,-0.79979 -3.30561,-1.47191 -5.08303,-1.8923 -1.48927,-0.55502 -3.00801,-0.93686 -4.58409,-1.1251 -1.63417,-0.15083 -3.27731,-0.14756 -4.91689,-0.15239 -1.69188,-0.0821 -3.36827,0.16353 -4.99748,0.60819 -1.70058,0.74827 -3.34428,1.6885 -4.88519,2.72936 -1.18231,0.76148 -2.30251,1.64478 -3.2869,2.65122 -0.98997,0.94612 -1.85555,1.9767 -2.63838,3.10016 -0.88695,1.3791 -1.82814,2.73676 -2.56199,4.20634 -0.8248,1.61979 -1.64088,3.24185 -2.1576,4.98888 -0.61938,1.66708 -0.9804,3.40676 -1.45998,5.11531 -0.46814,1.63519 -0.61385,3.32868 -0.69893,5.01944 -0.062,1.69573 -0.0537,3.393 -0.0517,5.08956 -0.0313,1.6961 -0.0341,3.36772 0.24469,5.04235 0.42042,1.59272 0.94042,3.13673 1.69905,4.60008 0.84137,1.14799 1.74655,2.2679 2.78179,3.24811 0.97655,1.00062 1.96329,1.99704 3.11936,2.79131 1.36073,0.83659 2.67565,1.75256 4.06078,2.55109 1.49681,0.9618 3.1162,1.67614 4.73787,2.39074 1.52898,0.52413 2.97624,1.2573 4.53427,1.69507 1.28614,0.60006 2.62785,0.93845 4.02919,1.11559 1.62342,0.15616 3.25659,0.15265 4.88586,0.15816 1.58313,0.11779 3.101,-0.0704 4.64436,-0.38465 1.40662,-0.17809 2.77296,-0.54719 4.10156,-1.03848 1.40627,-0.38214 2.6819,-0.98699 3.92151,-1.73588 1.20288,-0.74061 2.36942,-1.50786 3.38766,-2.49169 0.9257,-1.20772 1.82745,-2.46298 2.51903,-3.82213 0.77457,-1.21676 1.38362,-2.53607 1.85157,-3.89885 0.69839,-1.54447 1.08116,-3.17333 1.29505,-4.84636 0.21085,-2.16612 0.17253,-4.3467 0.17619,-6.52015 9.9e-4,-2.81303 -0.005,-5.62604 -0.009,-8.43906 -0.006,-1.73136 0.10045,-3.44996 -0.23791,-5.15413 -0.16951,-1.38211 -0.72981,-2.65328 -1.06311,-3.99566 -0.39422,-1.2325 -0.98061,-2.37919 -1.45472,-3.57825 -0.53425,-1.18316 -1.17907,-2.26257 -1.89215,-3.34273 -0.96238,-1.14885 -1.93617,-2.2839 -3.12799,-3.20095 -1.80235,-1.5134 -3.93361,-2.41566 -6.14447,-3.15438 -3.46451,-1.18061 -7.09956,-1.61001 -10.72219,-1.96385 0,0 0.0829,-0.84789 0.0829,-0.84789 l 0,0 c 3.6865,0.36088 7.38484,0.80201 10.91016,2.00401 2.29901,0.77371 4.51818,1.71503 6.3952,3.28852 1.25955,0.9809 2.30861,2.17339 3.31752,3.40542 0.74454,1.12951 1.41531,2.26373 1.9737,3.49972 0.48402,1.23488 1.09437,2.41387 1.48908,3.68598 0.3333,1.35535 0.90416,2.63914 1.07188,4.03512 0.34528,1.75961 0.25662,3.53077 0.25402,5.31789 0.004,2.81389 0.0102,5.62778 0.009,8.44167 -0.004,2.20924 0.0347,4.42578 -0.18314,6.62731 -0.22336,1.72964 -0.61419,3.41782 -1.33467,5.01563 -0.48467,1.3987 -1.10132,2.75954 -1.89866,4.00936 -0.74101,1.43835 -1.68312,2.78091 -2.68619,4.04726 -1.06655,1.02494 -2.27961,1.836 -3.53824,2.60738 -1.28575,0.77677 -2.61212,1.40628 -4.06823,1.80636 -1.37002,0.50043 -2.77604,0.89142 -4.2254,1.07362 -1.59945,0.32564 -3.17778,0.51867 -4.81722,0.40178 -1.66424,-0.006 -3.33252,-0.003 -4.99058,-0.16498 -1.44098,-0.18473 -2.83195,-0.5186 -4.15337,-1.14091 -1.5951,-0.45358 -3.08173,-1.19144 -4.64612,-1.73531 -1.64968,-0.72747 -3.29679,-1.45563 -4.82039,-2.43261 -1.40376,-0.81253 -2.73985,-1.73746 -4.11916,-2.58805 -1.18799,-0.82619 -2.21903,-1.83739 -3.22251,-2.87526 -1.09713,-1.05127 -2.07595,-2.23306 -2.95103,-3.47392 -0.79465,-1.54373 -1.35155,-3.16998 -1.78256,-4.85155 -0.2848,-1.72087 -0.29106,-3.43839 -0.25618,-5.18083 -0.002,-1.71122 -0.0104,-3.42317 0.0528,-5.13354 0.0889,-1.75408 0.24365,-3.51049 0.72954,-5.20671 0.48073,-1.71267 0.84266,-3.45671 1.46359,-5.12782 0.53561,-1.79363 1.36071,-3.46518 2.21264,-5.12795 0.75696,-1.50435 1.71236,-2.90072 2.62535,-4.31265 0.81289,-1.15931 1.70702,-2.23049 2.72963,-3.20984 1.03109,-1.04062 2.18423,-1.97083 3.41812,-2.76014 1.62086,-1.08777 3.34049,-2.08665 5.13855,-2.84504 1.70386,-0.45692 3.45386,-0.72444 5.22239,-0.63772 1.67268,0.005 3.34902,0.002 5.016,0.15847 1.60706,0.19413 3.1619,0.5706 4.67934,1.14207 1.84024,0.43884 3.56901,1.12916 5.26716,1.95918 0,0 -0.381,0.762 -0.381,0.762 z"
     inkscape:connector-curvature="0" />
  <path
     style="color:#000000;fill-opacity:1;fill-rule:nonzero;stroke-width:1;stroke-linecap:butt;stroke-linejoin:miter;stroke-miterlimit:4;stroke-opacity:1;stroke-dasharray:12, 12;stroke-dashoffset:0;marker:none;visibility:visible;display:inline;overflow:visible;enable-background:accumulate"
     id="path4217-5"
     d="m 179.5016,26.4825 c -1.63995,-0.7998 -3.30561,-1.47191 -5.08303,-1.89231 -1.48927,-0.55502 -3.00801,-0.93685 -4.58409,-1.12509 -1.63417,-0.15084 -3.27731,-0.14757 -4.91689,-0.15239 -1.69188,-0.0821 -3.36827,0.16352 -4.99748,0.60819 -1.70058,0.74826 -3.34428,1.6885 -4.88519,2.72935 -1.18231,0.76148 -2.30251,1.64478 -3.2869,2.65122 -0.98997,0.94613 -1.85555,1.9767 -2.63838,3.10017 -0.88695,1.3791 -1.82814,2.73676 -2.56199,4.20634 -0.8248,1.61979 -1.64088,3.24184 -2.1576,4.98888 -0.61938,1.66708 -0.9804,3.40676 -1.45998,5.11531 -0.46814,1.63519 -0.61385,3.32868 -0.69893,5.01944 -0.062,1.69573 -0.0537,3.393 -0.0517,5.08956 -0.0313,1.6961 -0.0341,3.36772 0.24469,5.04235 0.42042,1.59272 0.94042,3.13673 1.69905,4.60008 0.84137,1.14799 1.74655,2.26789 2.78179,3.2481 0.97655,1.00062 1.96329,1.99704 3.11936,2.79132 1.36073,0.83658 2.67565,1.75256 4.06078,2.55109 1.49681,0.9618 3.1162,1.67614 4.73787,2.39074 1.52898,0.52413 2.97624,1.2573 4.53427,1.69507 1.28614,0.60006 2.62785,0.93845 4.02919,1.11559 1.62342,0.15616 3.25659,0.15265 4.88586,0.15816 1.58313,0.11779 3.101,-0.0704 4.64436,-0.38465 1.40662,-0.17809 2.77296,-0.54719 4.10156,-1.03848 1.40627,-0.38214 2.6819,-0.98699 3.92151,-1.73589 1.20288,-0.7406 2.36942,-1.50785 3.38766,-2.49169 0.9257,-1.20771 1.82745,-2.46298 2.51903,-3.82212 0.77457,-1.21676 1.38362,-2.53607 1.85157,-3.89885 0.69839,-1.54447 1.08116,-3.17333 1.29505,-4.84636 0.21085,-2.16613 0.17253,-4.3467 0.17619,-6.52016 9.9e-4,-2.81302 -0.005,-5.62604 -0.009,-8.43906 -0.006,-1.73136 0.10045,-3.44995 -0.23791,-5.15412 -0.16951,-1.38211 -0.72981,-2.65328 -1.06311,-3.99566 -0.39422,-1.2325 -0.98061,-2.3792 -1.45472,-3.57825 -0.53425,-1.18316 -1.17907,-2.26257 -1.89215,-3.34274 -0.96238,-1.14884 -1.93617,-2.28389 -3.12799,-3.20095 -1.80235,-1.51339 -3.93361,-2.41566 -6.14447,-3.15437 -3.46451,-1.18061 -7.09956,-1.61001 -10.72219,-1.96385 0,0 0.0829,-0.84789 0.0829,-0.84789 l 0,0 c 3.6865,0.36087 7.38484,0.80201 10.91016,2.00401 2.29901,0.77371 4.51818,1.71503 6.3952,3.28851 1.25955,0.98091 2.30861,2.1734 3.31752,3.40542 0.74454,1.12951 1.41531,2.26374 1.9737,3.49973 0.48402,1.23487 1.09437,2.41387 1.48908,3.68597 0.3333,1.35536 0.90416,2.63914 1.07188,4.03512 0.34528,1.75962 0.25662,3.53078 0.25402,5.31789 0.004,2.81389 0.0102,5.62778 0.009,8.44168 -0.004,2.20924 0.0347,4.42577 -0.18314,6.62731 -0.22336,1.72963 -0.61419,3.41782 -1.33467,5.01562 -0.48467,1.39871 -1.10132,2.75955 -1.89866,4.00937 -0.74101,1.43834 -1.68312,2.78091 -2.68619,4.04726 -1.06655,1.02494 -2.27961,1.836 -3.53824,2.60738 -1.28575,0.77677 -2.61212,1.40628 -4.06823,1.80636 -1.37002,0.50043 -2.77604,0.89142 -4.2254,1.07362 -1.59945,0.32564 -3.17778,0.51867 -4.81722,0.40178 -1.66424,-0.006 -3.33252,-0.003 -4.99058,-0.16498 -1.44098,-0.18473 -2.83195,-0.5186 -4.15337,-1.14091 -1.5951,-0.45358 -3.08173,-1.19144 -4.64612,-1.73531 -1.64968,-0.72747 -3.29679,-1.45564 -4.82039,-2.43261 -1.40376,-0.81254 -2.73985,-1.73746 -4.11916,-2.58805 -1.18799,-0.82619 -2.21903,-1.8374 -3.22251,-2.87527 -1.09713,-1.05126 -2.07595,-2.23305 -2.95103,-3.47391 -0.79465,-1.54373 -1.35155,-3.16998 -1.78256,-4.85155 -0.2848,-1.72087 -0.29106,-3.43839 -0.25618,-5.18083 -0.002,-1.71123 -0.0104,-3.42317 0.0528,-5.13354 0.0889,-1.75408 0.24365,-3.51049 0.72954,-5.20671 0.48073,-1.71267 0.84266,-3.45672 1.46359,-5.12782 0.53561,-1.79363 1.36071,-3.46519 2.21264,-5.12795 0.75696,-1.50435 1.71236,-2.90072 2.62535,-4.31266 0.81289,-1.1593 1.70702,-2.23048 2.72963,-3.20984 1.03109,-1.04061 2.18423,-1.97082 3.41812,-2.76013 1.62086,-1.08777 3.34049,-2.08665 5.13855,-2.84504 1.70386,-0.45692 3.45386,-0.72444 5.22239,-0.63773 1.67268,0.005 3.34902,0.002 5.016,0.15848 1.60706,0.19413 3.1619,0.57059 4.67934,1.14207 1.84024,0.43883 3.56901,1.12915 5.26716,1.95918 0,0 -0.381,0.76199 -0.381,0.76199 z"
     inkscape:connector-curvature="0" />
  <path
     style="color:#000000;fill-opacity:1;fill-rule:nonzero;stroke-width:1;stroke-linecap:butt;stroke-linejoin:miter;stroke-miterlimit:4;stroke-opacity:1;stroke-dasharray:12, 12;stroke-dashoffset:0;marker:none;visibility:visible;display:inline;overflow:visible;enable-background:accumulate"
     id="path4217-5-9"
     d="m 255.32389,24.00866 c -1.63995,-0.7998 -3.30561,-1.47191 -5.08303,-1.89231 -1.48927,-0.55502 -3.00801,-0.93685 -4.58409,-1.12509 -1.63417,-0.15084 -3.27731,-0.14757 -4.91689,-0.15239 -1.69188,-0.0821 -3.36827,0.16352 -4.99748,0.60819 -1.70058,0.74826 -3.34428,1.6885 -4.88519,2.72935 -1.18231,0.76148 -2.30251,1.64478 -3.2869,2.65122 -0.98997,0.94613 -1.85555,1.9767 -2.63838,3.10017 -0.88695,1.3791 -1.82814,2.73676 -2.56199,4.20634 -0.8248,1.61979 -1.64088,3.24184 -2.1576,4.98888 -0.61938,1.66708 -0.9804,3.40676 -1.45998,5.11531 -0.46814,1.63519 -0.61385,3.32868 -0.69893,5.01944 -0.062,1.69573 -0.0537,3.393 -0.0517,5.08956 -0.0313,1.6961 -0.0341,3.36772 0.24469,5.04235 0.42042,1.59272 0.94042,3.13673 1.69905,4.60008 0.84137,1.14799 1.74655,2.26789 2.78179,3.2481 0.97655,1.00062 1.96329,1.99704 3.11936,2.79132 1.36073,0.83658 2.67565,1.75256 4.06078,2.55109 1.49681,0.9618 3.1162,1.67614 4.73787,2.39074 1.52898,0.52413 2.97624,1.2573 4.53427,1.69507 1.28614,0.60006 2.62785,0.93845 4.02919,1.11559 1.62342,0.15616 3.25659,0.15265 4.88586,0.15816 1.58313,0.11779 3.101,-0.0704 4.64436,-0.38465 1.40662,-0.17809 2.77296,-0.54719 4.10156,-1.03848 1.40627,-0.38214 2.6819,-0.98699 3.92151,-1.73589 1.20288,-0.7406 2.36942,-1.50785 3.38766,-2.49169 0.9257,-1.20771 1.82745,-2.46298 2.51903,-3.82212 0.77457,-1.21676 1.38362,-2.53607 1.85157,-3.89885 0.69839,-1.54447 1.08116,-3.17333 1.29505,-4.84636 0.21085,-2.16613 0.17253,-4.3467 0.17619,-6.52016 9.9e-4,-2.81302 -0.005,-5.62604 -0.009,-8.43906 -0.006,-1.73136 0.10045,-3.44995 -0.23791,-5.15412 -0.16951,-1.38211 -0.72981,-2.65328 -1.06311,-3.99566 -0.39422,-1.2325 -0.98061,-2.3792 -1.45472,-3.57825 -0.53425,-1.18316 -1.17907,-2.26257 -1.89215,-3.34274 -0.96238,-1.14884 -1.93617,-2.28389 -3.12799,-3.20095 -1.80235,-1.51339 -3.93361,-2.41566 -6.14447,-3.15437 -3.46451,-1.18061 -7.09956,-1.61001 -10.72219,-1.96385 0,0 0.0829,-0.84789 0.0829,-0.84789 l 0,0 c 3.6865,0.36087 7.38484,0.80201 10.91016,2.00401 2.29901,0.77371 4.51818,1.71503 6.3952,3.28851 1.25955,0.98091 2.30861,2.1734 3.31752,3.40542 0.74454,1.12951 1.41531,2.26374 1.9737,3.49973 0.48402,1.23487 1.09437,2.41387 1.48908,3.68597 0.3333,1.35536 0.90416,2.63914 1.07188,4.03512 0.34528,1.75962 0.25662,3.53078 0.25402,5.31789 0.004,2.81389 0.0102,5.62778 0.009,8.44168 -0.004,2.20924 0.0347,4.42577 -0.18314,6.62731 -0.22336,1.72963 -0.61419,3.41782 -1.33467,5.01562 -0.48467,1.39871 -1.10132,2.75955 -1.89866,4.00937 -0.74101,1.43834 -1.68312,2.78091 -2.68619,4.04726 -1.06655,1.02494 -2.27961,1.836 -3.53824,2.60738 -1.28575,0.77677 -2.61212,1.40628 -4.06823,1.80636 -1.37002,0.50043 -2.77604,0.89142 -4.2254,1.07362 -1.59945,0.32564 -3.17778,0.51867 -4.81722,0.40178 -1.66424,-0.006 -3.33252,-0.003 -4.99058,-0.16498 -1.44098,-0.18473 -2.83195,-0.5186 -4.15337,-1.14091 -1.5951,-0.45358 -3.08173,-1.19144 -4.64612,-1.73531 -1.64968,-0.72747 -3.29679,-1.45564 -4.82039,-2.43261 -1.40376,-0.81254 -2.73985,-1.73746 -4.11916,-2.58805 -1.18799,-0.82619 -2.21903,-1.8374 -3.22251,-2.87527 -1.09713,-1.05126 -2.07595,-2.23305 -2.95103,-3.47391 -0.79465,-1.54373 -1.35155,-3.16998 -1.78256,-4.85155 -0.2848,-1.72087 -0.29106,-3.43839 -0.25618,-5.18083 -0.002,-1.71123 -0.0104,-3.42317 0.0528,-5.13354 0.0889,-1.75408 0.24365,-3.51049 0.72954,-5.20671 0.48073,-1.71267 0.84266,-3.45672 1.46359,-5.12782 0.53561,-1.79363 1.36071,-3.46519 2.21264,-5.12795 0.75696,-1.50435 1.71236,-2.90072 2.62535,-4.31266 0.81289,-1.1593 1.70702,-2.23048 2.72963,-3.20984 1.03109,-1.04061 2.18423,-1.97082 3.41812,-2.76013 1.62086,-1.08777 3.34049,-2.08665 5.13855,-2.84504 1.70386,-0.45692 3.45386,-0.72444 5.22239,-0.63773 1.67268,0.005 3.34902,0.002 5.016,0.15848 1.60706,0.19413 3.1619,0.57059 4.67934,1.14207 1.84024,0.43883 3.56901,1.12915 5.26716,1.95918 0,0 -0.381,0.76199 -0.381,0.76199 z"
     inkscape:connector-curvature="0" />
  <path
     style="color:#000000;fill-opacity:1;fill-rule:nonzero;stroke-width:1;stroke-linecap:butt;stroke-linejoin:miter;stroke-miterlimit:4;stroke-opacity:1;stroke-dasharray:12, 12;stroke-dashoffset:0;marker:none;visibility:visible;display:inline;overflow:visible;enable-background:accumulate"
     id="path4255"
     d="m 442.06231,38.594202 c -1.48037,0.0127 -3.00427,0.204167 -4.35088,0.853294 -1.36778,0.731386 -1.96772,1.974449 -2.31517,3.437972 -0.15777,1.229152 -0.56818,2.677611 0.32469,3.691843 1.06442,0.761703 2.28865,0.418647 3.39538,-0.05469 1.50175,-0.836761 2.23364,-2.133465 2.66729,-3.759489 0.49184,-2.178692 0.3327,-4.369487 -0.14412,-6.528989 -0.78009,-3.008662 -2.15614,-5.706118 -4.07356,-8.107596 -0.29422,-0.300233 -0.58846,-0.600467 -0.88269,-0.900701 0,0 0.54854,-0.556103 0.54854,-0.556103 l 0,0 c 0.31165,0.31996 0.6233,0.639921 0.93495,0.959882 1.98911,2.499837 3.423,5.303978 4.22819,8.433395 0.49399,2.287628 0.66676,4.604794 0.13482,6.909408 -0.50913,1.860971 -1.38924,3.345824 -3.11853,4.279071 -1.44303,0.596183 -2.98355,0.914233 -4.28959,-0.175424 -0.98437,-1.303823 -0.74833,-2.837862 -0.47692,-4.378679 0.41447,-1.69539 1.1546,-3.127496 2.74028,-3.964693 1.45791,-0.680875 3.07807,-0.924358 4.67732,-0.926861 0,0 0,0.788357 0,0.788357 z"
     inkscape:connector-curvature="0" />
  <path
     style="color:#000000;fill-opacity:1;fill-rule:nonzero;stroke-width:1;stroke-linecap:butt;stroke-linejoin:miter;stroke-miterlimit:4;stroke-opacity:1;stroke-dasharray:12, 12;stroke-dashoffset:0;marker:none;visibility:visible;display:inline;overflow:visible;enable-background:accumulate"
     id="path4257"
     d="m 442.30015,26.831208 c 0.84649,-1.78398 1.79452,-3.391918 3.39191,-4.585988 1.70611,-0.981196 2.87777,-0.919363 3.68072,0.977061 0.27285,1.730217 -0.67229,3.223994 -1.75785,4.482376 -0.4956,0.646424 -1.12144,1.165839 -1.67042,1.763519 -0.11008,0.119843 -0.22823,0.234135 -0.32082,0.367955 -0.0233,0.03366 -0.0279,0.161161 -0.0178,0.121497 0.0234,-0.09196 0.0386,-0.185831 0.0579,-0.278746 -0.0353,-0.05208 -0.14234,-0.104877 -0.10599,-0.156255 0.1647,-0.232791 2.47612,-0.504307 2.80188,-0.544274 0.81643,-0.08949 1.63713,-0.121542 2.45717,-0.155598 0,0 0.0353,0.851206 0.0353,0.851206 l 0,0 c -0.79729,0.03295 -1.59525,0.06377 -2.3891,0.150038 -0.65094,0.0792 -1.29362,0.164374 -1.93271,0.314758 -0.0112,0.0026 -0.88984,0.235166 -0.92485,0.234472 -0.19795,-0.0039 -0.38641,-0.08648 -0.57962,-0.129722 -0.0721,-0.19618 -0.20684,-0.379746 -0.21629,-0.588542 -0.032,-0.706435 1.85542,-1.858296 2.16314,-2.510017 0.87822,-0.996064 1.70871,-2.219686 1.60933,-3.605714 -0.50819,-1.376187 -1.12832,-1.295291 -2.38404,-0.608549 -1.48396,1.078883 -2.31069,2.591894 -3.1068,4.216924 0,0 -0.791,-0.316401 -0.791,-0.316401 z"
     inkscape:connector-curvature="0" />
  <path
     style="color:#000000;fill-opacity:1;fill-rule:nonzero;stroke-width:1;stroke-linecap:butt;stroke-linejoin:miter;stroke-miterlimit:4;stroke-opacity:1;stroke-dasharray:12, 12;stroke-dashoffset:0;marker:none;visibility:visible;display:inline;overflow:visible;enable-background:accumulate"
     id="path4259"
     d="m 450.47505,37.463304 c -0.36575,1.90441 -0.53251,3.837568 -0.64665,5.77088 0.0662,0.887805 0.13943,2.081047 1.14102,1.163916 0.94494,-1.233961 1.66855,-2.625915 2.24685,-4.06426 0.54653,-1.576538 0.62219,-3.243886 1.01834,-4.856709 0.0413,-0.677374 0.91957,-1.694873 1.30554,-0.506386 0.0682,0.210009 -0.10156,1.029697 -0.13569,1.225038 -0.32992,1.923643 -0.42393,3.874308 -0.49776,5.821126 -0.0179,1.82366 -0.2091,3.486534 1.36337,4.679648 0.83805,0.452779 1.69925,0.531944 2.62858,0.573763 0,0 -0.0456,0.850713 -0.0456,0.850713 l 0,0 c -1.11442,-0.06803 -2.12822,-0.173382 -3.11457,-0.758759 -1.79949,-1.492043 -1.73554,-3.1742 -1.68307,-5.377688 0.0755,-1.985622 0.17285,-3.975042 0.51011,-5.936885 0.0491,-0.274831 -0.0616,-0.654369 0.16185,-0.821735 0.0661,-0.04953 0.16643,0.06333 0.24497,0.0377 0.55559,-0.181294 0.26285,-0.339478 0.0896,0.4169 -0.40647,1.651012 -0.4727,3.363105 -1.05564,4.972192 -0.63629,1.570197 -1.41893,3.112179 -2.51235,4.416687 -1.71093,1.222922 -2.49743,-0.215414 -2.51596,-1.885545 0.11678,-1.972506 0.28779,-3.944786 0.66171,-5.887676 0,0 0.83539,0.167078 0.83539,0.167078 z"
     inkscape:connector-curvature="0" />
  <path
     style="color:#000000;fill-opacity:1;fill-rule:nonzero;stroke-width:1;stroke-linecap:butt;stroke-linejoin:miter;stroke-miterlimit:4;stroke-opacity:1;stroke-dasharray:12, 12;stroke-dashoffset:0;marker:none;visibility:visible;display:inline;overflow:visible;enable-background:accumulate"
     id="path4261"
     d="m 430.13879,54.241286 c 3.01456,-0.498467 6.0392,-0.903871 9.0837,-1.173961 4.59516,-0.338405 9.2047,-0.390556 13.81013,-0.430619 3.52176,-0.02189 7.04361,-0.0165 10.56541,-0.01209 1.1062,0.0016 2.2124,0.0029 3.3186,0.0041 0,0 -9.3e-4,0.851935 -9.3e-4,0.851935 l 0,0 c -1.10625,-0.0012 -2.21249,-0.0025 -3.31874,-0.0041 -3.51898,-0.0044 -7.038,-0.0098 -10.55693,0.01206 -4.58281,0.03984 -9.16969,0.09142 -13.74232,0.427324 -3.01375,0.26686 -6.00762,0.668489 -8.99184,1.160743 0,0 -0.16708,-0.835391 -0.16708,-0.835391 z"
     inkscape:connector-curvature="0" />
  <path
     style="color:#000000;fill-opacity:1;fill-rule:nonzero;stroke-width:1;stroke-linecap:butt;stroke-linejoin:miter;stroke-miterlimit:4;stroke-opacity:1;stroke-dasharray:12, 12;stroke-dashoffset:0;marker:none;visibility:visible;display:inline;overflow:visible;enable-background:accumulate"
     id="path4255-7"
     d="m 442.16515,68.558033 c -1.48037,0.0127 -3.00427,0.204167 -4.35088,0.853294 -1.36778,0.731383 -1.96772,1.974453 -2.31517,3.437973 -0.15777,1.22915 -0.56818,2.67762 0.32469,3.69185 1.06442,0.7617 2.28865,0.41865 3.39538,-0.0547 1.50175,-0.83676 2.23364,-2.13347 2.66729,-3.7595 0.49184,-2.17869 0.3327,-4.369484 -0.14412,-6.528986 -0.78009,-3.008662 -2.15614,-5.706118 -4.07356,-8.107596 -0.29422,-0.300233 -0.58846,-0.600467 -0.88269,-0.900701 0,0 0.54854,-0.556103 0.54854,-0.556103 l 0,0 c 0.31165,0.31996 0.6233,0.639921 0.93495,0.959882 1.98911,2.499837 3.423,5.303978 4.22819,8.433395 0.49399,2.287628 0.66676,4.604799 0.13482,6.909409 -0.50913,1.86097 -1.38924,3.34583 -3.11853,4.27908 -1.44303,0.59618 -2.98355,0.91423 -4.28959,-0.17543 -0.98437,-1.30382 -0.74833,-2.83787 -0.47692,-4.37868 0.41447,-1.69539 1.1546,-3.127499 2.74028,-3.964696 1.45791,-0.680875 3.07807,-0.924358 4.67732,-0.926861 0,0 0,0.788357 0,0.788357 z"
     inkscape:connector-curvature="0" />
  <path
     style="color:#000000;fill-opacity:1;fill-rule:nonzero;stroke-width:1;stroke-linecap:butt;stroke-linejoin:miter;stroke-miterlimit:4;stroke-opacity:1;stroke-dasharray:12, 12;stroke-dashoffset:0;marker:none;visibility:visible;display:inline;overflow:visible;enable-background:accumulate"
     id="path4257-7"
     d="m 458.40299,62.795039 c 0.84649,-1.78398 1.79452,-3.391918 3.39191,-4.585988 1.70611,-0.981196 2.87777,-0.919363 3.68072,0.977061 0.27285,1.730217 -0.67229,3.223994 -1.75785,4.482376 -0.4956,0.646424 -1.12144,1.165839 -1.67042,1.763519 -0.11008,0.119843 -0.22823,0.234135 -0.32082,0.367955 -0.0233,0.03366 -0.0279,0.161161 -0.0178,0.121497 0.0234,-0.09196 0.0386,-0.185831 0.0579,-0.278746 -0.0353,-0.05208 -0.14234,-0.104877 -0.10599,-0.156255 0.1647,-0.232791 2.47612,-0.504307 2.80188,-0.544274 0.81643,-0.08949 1.63713,-0.121542 2.45717,-0.155598 0,0 0.0353,0.851206 0.0353,0.851206 l 0,0 c -0.79729,0.03295 -1.59525,0.06377 -2.3891,0.150038 -0.65094,0.0792 -1.29362,0.164374 -1.93271,0.314758 -0.0112,0.0026 -0.88984,0.235166 -0.92485,0.234472 -0.19795,-0.0039 -0.38641,-0.08648 -0.57962,-0.129722 -0.0721,-0.19618 -0.20684,-0.379746 -0.21629,-0.588542 -0.032,-0.706435 1.85542,-1.858296 2.16314,-2.510017 0.87822,-0.996064 1.70871,-2.219686 1.60933,-3.605714 -0.50819,-1.376187 -1.12832,-1.295291 -2.38404,-0.608549 -1.48396,1.078883 -2.31069,2.591894 -3.1068,4.216924 0,0 -0.791,-0.316401 -0.791,-0.316401 z"
     inkscape:connector-curvature="0" />
  <path
     style="color:#000000;fill-opacity:1;fill-rule:nonzero;stroke-width:1;stroke-linecap:butt;stroke-linejoin:miter;stroke-miterlimit:4;stroke-opacity:1;stroke-dasharray:12, 12;stroke-dashoffset:0;marker:none;visibility:visible;display:inline;overflow:visible;enable-background:accumulate"
     id="path4295"
     d="m 444.9322,67.649828 c 1.21226,-0.656876 2.49079,-0.99589 3.82592,-0.953916 1.14312,0.218663 1.87828,1.101275 2.31704,2.283294 0.35938,1.312044 0.3982,2.661674 0.18679,4.004974 -0.3223,1.12873 -0.88105,2.10166 -1.70266,2.81668 -1.02643,0.68957 -2.10702,0.71639 -3.21501,0.32798 -0.519,-0.28544 -0.96726,-0.66428 -1.40234,-1.09018 0,0 0.41358,-0.55505 0.41358,-0.55505 l 0,0 c 0.36537,0.36706 0.74991,0.6818 1.17855,0.94695 0.90693,0.33988 1.79338,0.32207 2.64861,-0.21871 0.70479,-0.58082 1.15611,-1.43071 1.45501,-2.35955 0.19324,-1.20334 0.16076,-2.41055 -0.14829,-3.591427 -0.32056,-0.916279 -0.87672,-1.633326 -1.75018,-1.833521 -1.2298,-0.04624 -2.40524,0.277178 -3.5232,0.876987 0,0 -0.28382,-0.654511 -0.28382,-0.654511 z"
     inkscape:connector-curvature="0" />
  <path
     style="color:#000000;fill-opacity:1;fill-rule:nonzero;stroke-width:1;stroke-linecap:butt;stroke-linejoin:miter;stroke-miterlimit:4;stroke-opacity:1;stroke-dasharray:12, 12;stroke-dashoffset:0;marker:none;visibility:visible;display:inline;overflow:visible;enable-background:accumulate"
     id="path4297"
     d="m 455.74879,68.304339 c -1.15728,-0.638692 -2.30484,-0.958697 -3.53967,-0.475706 -1.02406,0.655994 -1.22134,1.90286 -1.36001,3.136947 0.0305,1.17635 0.33363,2.3333 1.0114,3.22406 0.62891,0.89424 1.50509,1.46798 2.43023,1.85986 1.2128,0.51516 2.37451,0.2638 3.57553,-0.12307 0.61355,-0.20159 1.12836,-0.62833 1.66294,-1.01029 0,0 0.33422,0.62207 0.33422,0.62207 l 0,0 c -0.58508,0.41774 -1.15463,0.87604 -1.82669,1.09308 -1.3301,0.42685 -2.6286,0.6731 -3.96714,0.10412 -1.02346,-0.44319 -1.99363,-1.07921 -2.69247,-2.07158 -0.77374,-1.07395 -1.15938,-2.39358 -1.15726,-3.79371 0.17705,-1.529953 0.499,-2.988343 1.79373,-3.737664 1.40707,-0.505386 2.7048,-0.225925 4.01903,0.517372 0,0 -0.28384,0.654511 -0.28384,0.654511 z"
     inkscape:connector-curvature="0" />
  <path
     style="color:#000000;fill-opacity:1;fill-rule:nonzero;stroke-width:1;stroke-linecap:butt;stroke-linejoin:miter;stroke-miterlimit:4;stroke-opacity:1;stroke-dasharray:12, 12;stroke-dashoffset:0;marker:none;visibility:visible;display:inline;overflow:visible;enable-background:accumulate"
     id="path4217-5-9-5"
     d="m 375.97232,30.782648 c -1.43185,-0.707879 -2.88616,-1.302744 -4.43804,-1.674827 -1.30029,-0.491232 -2.62632,-0.829178 -4.00241,-0.995784 -1.42681,-0.133504 -2.86145,-0.13061 -4.29298,-0.134876 -1.4772,-0.07266 -2.94087,0.144727 -4.36335,0.538291 -1.48479,0.662263 -2.91992,1.494441 -4.2653,2.415667 -1.03229,0.673963 -2.01034,1.455746 -2.86982,2.346516 -0.86436,0.837392 -1.6201,1.749519 -2.3036,2.743869 -0.7744,1.2206 -1.59616,2.422225 -2.2369,3.722907 -0.72014,1.433628 -1.43266,2.869256 -1.88382,4.415509 -0.54078,1.475484 -0.85599,3.015223 -1.27472,4.52741 -0.40874,1.447258 -0.53596,2.946116 -0.61024,4.442557 -0.0541,1.500841 -0.0469,3.003044 -0.0451,4.504619 -0.0273,1.501168 -0.0298,2.980669 0.21364,4.462835 0.36707,1.409669 0.82109,2.776227 1.48346,4.071394 0.73461,1.016052 1.52493,2.007242 2.4288,2.874797 0.85264,0.885619 1.71417,1.767518 2.72355,2.470518 1.18806,0.74043 2.33613,1.55114 3.5455,2.25789 1.30688,0.85126 2.72078,1.4835 4.13668,2.11597 1.33497,0.4639 2.59858,1.1128 3.95891,1.50026 1.12294,0.5311 2.2944,0.83059 3.51792,0.98738 1.41743,0.13821 2.84336,0.1351 4.26589,0.13998 1.38225,0.10425 2.70752,-0.0623 4.05504,-0.34044 1.22813,-0.15763 2.4211,-0.48431 3.58111,-0.91913 1.22783,-0.33822 2.34159,-0.87356 3.4239,-1.53639 1.05025,-0.65548 2.06877,-1.33455 2.9578,-2.20532 0.80824,-1.0689 1.59557,-2.17991 2.19939,-3.38284 0.67628,-1.076921 1.20805,-2.244603 1.61662,-3.450759 0.60977,-1.366965 0.94397,-2.80862 1.13072,-4.28937 0.1841,-1.917177 0.15064,-3.847135 0.15384,-5.7708 8.6e-4,-2.489721 -0.004,-4.979441 -0.008,-7.469162 -0.005,-1.532375 0.0877,-3.053448 -0.20772,-4.561759 -0.148,-1.223264 -0.63721,-2.348339 -0.92821,-3.53644 -0.3442,-1.090849 -0.85618,-2.10576 -1.27013,-3.167003 -0.46646,-1.04718 -1.02946,-2.002534 -1.65206,-2.95856 -0.84026,-1.016805 -1.69049,-2.021404 -2.73107,-2.833066 -1.57365,-1.339457 -3.43448,-2.138029 -5.3648,-2.79184 -3.02489,-1.044923 -6.19869,-1.424972 -9.36164,-1.738145 0,0 0.0724,-0.750442 0.0724,-0.750442 l 0,0 c 3.21872,0.319395 6.44777,0.709835 9.52576,1.773689 2.00729,0.684788 3.94487,1.517923 5.58371,2.910563 1.09972,0.868175 2.01567,1.923612 2.89656,3.014036 0.65006,0.999696 1.23572,2.00357 1.72325,3.097508 0.42261,1.092947 0.95551,2.136445 1.30013,3.262343 0.29101,1.199589 0.78943,2.335824 0.93587,3.571365 0.30147,1.557387 0.22406,3.124989 0.22179,4.706707 0.003,2.49049 0.009,4.980981 0.008,7.471481 -0.003,1.955332 0.0303,3.917117 -0.15991,5.865635 -0.19501,1.530844 -0.53625,3.025011 -1.16531,4.439177 -0.42317,1.237957 -0.96157,2.442396 -1.65774,3.548572 -0.64698,1.27303 -1.46954,2.4613 -2.34533,3.58211 -0.93122,0.90715 -1.99035,1.62499 -3.08927,2.30772 -1.1226,0.68749 -2.28067,1.24465 -3.55201,1.59875 -1.19618,0.44292 -2.42379,0.78897 -3.68924,0.95023 -1.39649,0.28822 -2.77455,0.45906 -4.20596,0.35561 -1.45306,-0.005 -2.90965,-0.003 -4.35732,-0.14602 -1.25813,-0.1635 -2.4726,-0.459 -3.62634,-1.00979 -1.3927,-0.40145 -2.69069,-1.05451 -4.05658,-1.53587 -1.44035,-0.64386 -2.87845,-1.28834 -4.20872,-2.15303 -1.22564,-0.71916 -2.39219,-1.53778 -3.59648,-2.29061 -1.03724,-0.73123 -1.93745,-1.62623 -2.8136,-2.544814 -0.95792,-0.930439 -1.81253,-1.976406 -2.57657,-3.074655 -0.69382,-1.366309 -1.18005,-2.805655 -1.55637,-4.293963 -0.24867,-1.523091 -0.25413,-3.043217 -0.22368,-4.585399 -0.002,-1.514559 -0.009,-3.029746 0.0461,-4.543544 0.0776,-1.552484 0.21274,-3.107031 0.63697,-4.608305 0.41973,-1.515833 0.73574,-3.05944 1.27788,-4.538482 0.46764,-1.587488 1.18804,-3.066937 1.93187,-4.538596 0.66091,-1.331456 1.49508,-2.567341 2.29222,-3.817008 0.70974,-1.026062 1.49041,-1.974131 2.38326,-2.840934 0.90026,-0.921013 1.90708,-1.744314 2.9844,-2.442909 1.41518,-0.962753 2.91661,-1.846832 4.48651,-2.518061 1.48766,-0.404406 3.0156,-0.64118 4.55972,-0.564436 1.46043,0.0044 2.92406,0.0018 4.37952,0.140266 1.40313,0.171819 2.76068,0.505012 4.08557,1.010812 1.60673,0.388396 3.11614,0.999378 4.59881,1.734013 0,0 -0.33266,0.674414 -0.33266,0.674414 z"
     inkscape:connector-curvature="0" />
  <path
     style="color:#000000;fill-opacity:1;fill-rule:nonzero;stroke-width:1;stroke-linecap:butt;stroke-linejoin:miter;stroke-miterlimit:4;stroke-opacity:1;stroke-dasharray:12, 12;stroke-dashoffset:0;marker:none;visibility:visible;display:inline;overflow:visible;enable-background:accumulate"
     id="path4317"
     d="m 397.25651,51.779112 c 2.87674,0 5.75348,0 8.63022,0 3.69642,-0.02476 7.37934,0.381381 11.06524,0.618255 1.3015,0.08378 2.60465,0.133378 3.9079,0.178832 0,0 -0.0297,0.851417 -0.0297,0.851417 l 0,0 c -1.31156,-0.04579 -2.62303,-0.09573 -3.93283,-0.180067 -3.66772,-0.235761 -7.33248,-0.640221 -11.0106,-0.616501 -2.87674,0 -5.75348,0 -8.63022,0 0,0 0,-0.851936 0,-0.851936 z"
     inkscape:connector-curvature="0" />
  <path
     style="color:#000000;fill-opacity:1;fill-rule:nonzero;stroke-width:1;stroke-linecap:butt;stroke-linejoin:miter;stroke-miterlimit:4;stroke-opacity:1;stroke-dasharray:12, 12;stroke-dashoffset:0;marker:none;visibility:visible;display:inline;overflow:visible;enable-background:accumulate"
     id="path4319"
     d="m 398.10845,56.038792 c 2.48251,0 4.96502,0 7.44753,0 2.77812,0.189786 5.5442,0.510741 8.32287,0.698509 1.92578,0.295476 3.83419,0.667327 5.77482,0.856531 0,0 -0.0829,0.847897 -0.0829,0.847897 l 0,0 c -1.93202,-0.189203 -3.8335,-0.550888 -5.74942,-0.854433 -2.75955,-0.186649 -5.50687,-0.501894 -8.26541,-0.696568 -2.48251,0 -4.96502,0 -7.44753,0 0,0 0,-0.851936 0,-0.851936 z"
     inkscape:connector-curvature="0" />
  <path
     style="color:#000000;fill-opacity:1;fill-rule:nonzero;stroke-width:1;stroke-linecap:butt;stroke-linejoin:miter;stroke-miterlimit:4;stroke-opacity:1;stroke-dasharray:12, 12;stroke-dashoffset:0;marker:none;visibility:visible;display:inline;overflow:visible;enable-background:accumulate"
     id="path4325"
     d="m 152.02521,25.886719 c 0.71981,1.986018 1.65785,3.888317 2.53303,5.811064 1.02011,1.984158 1.95387,4.015395 2.87156,6.049423 0.729,1.760701 1.70482,3.352146 2.8109,4.894839 1.12026,1.204084 2.31949,2.326546 3.41345,3.555961 0.91538,1.279925 2.00709,2.416884 3.00351,3.631561 1.03859,1.281765 2.15637,2.518359 3.36961,3.638408 1.16654,1.228844 2.3285,2.457536 3.6018,3.577009 1.0221,1.111285 2.16633,2.097403 3.21749,3.178486 1.02401,1.178029 1.87575,2.483798 2.9528,3.620649 1.00604,1.140296 1.88776,2.379587 2.77985,3.609605 1.13002,1.465923 2.36291,2.846573 3.51839,4.291679 0.89889,1.063265 1.89929,2.03056 2.83252,3.061175 0,0 -0.63245,0.570787 -0.63245,0.570787 l 0,0 c -0.94087,-1.046349 -1.95987,-2.020428 -2.86571,-3.100247 -1.16232,-1.456544 -2.4074,-2.844333 -3.5424,-4.32322 -0.87071,-1.200578 -1.73026,-2.410477 -2.70997,-3.525248 -1.06922,-1.138323 -1.93633,-2.427123 -2.94474,-3.612214 -1.03209,-1.068252 -2.1669,-2.032848 -3.16903,-3.132278 -1.27594,-1.126797 -2.45084,-2.35283 -3.61757,-3.591255 -1.23799,-1.150857 -2.38848,-2.409287 -3.4497,-3.723553 -0.987,-1.20735 -2.07519,-2.332608 -2.98094,-3.605121 -1.11339,-1.252085 -2.34257,-2.387074 -3.46941,-3.625961 -1.13765,-1.588531 -2.14226,-3.230132 -2.895,-5.040802 -0.91679,-2.033428 -1.85095,-4.063374 -2.8704,-6.046855 -0.88009,-1.934974 -1.82374,-3.849296 -2.5486,-5.847491 0,0 0.79101,-0.316401 0.79101,-0.316401 z"
     inkscape:connector-curvature="0" />
  <path
     style="color:#000000;fill-opacity:1;fill-rule:nonzero;stroke-width:4;stroke-linecap:butt;stroke-linejoin:miter;stroke-miterlimit:4;stroke-opacity:1;stroke-dasharray:48, 48;stroke-dashoffset:0;marker:none;visibility:visible;display:inline;overflow:visible;enable-background:accumulate"
     id="path4327"
     d="m 187.79806,28.754402 c -1.18913,1.723402 -2.477,3.331072 -3.93935,4.831119 -1.41155,1.644307 -2.81964,3.28928 -4.289,4.882646 -1.59344,1.674203 -3.23091,3.294948 -4.70801,5.074089 -1.4478,1.429482 -2.84802,2.884959 -4.18081,4.423023 -1.14818,1.462886 -2.35144,2.879423 -3.52251,4.325848 -1.75998,2.390079 -3.28192,4.939423 -4.91898,7.412432 -1.25165,1.960485 -2.50712,3.945908 -4.05523,5.689611 -0.94362,1.173205 -2.00346,2.241556 -3.01361,3.358367 -1.08914,1.086045 -2.27078,2.077597 -3.34095,3.181647 -0.8948,1.074154 -1.76751,2.172038 -2.62925,3.27507 -0.62963,0.630381 -1.18602,1.324186 -1.68321,2.061566 0,0 -0.70506,-0.47821 -0.70506,-0.47821 l 0,0 c 0.51171,-0.75045 1.06958,-1.468421 1.71742,-2.108471 0.88257,-1.125489 1.77013,-2.250366 2.68954,-3.344105 1.06721,-1.092794 2.23158,-2.086633 3.31968,-3.15898 1.00893,-1.115456 2.06788,-2.18138 3.00954,-3.353819 1.52828,-1.706369 2.74394,-3.673182 3.98076,-5.592962 1.65225,-2.495505 3.18691,-5.069245 4.96724,-7.478248 1.17714,-1.453725 2.38707,-2.876967 3.54078,-4.347661 1.32877,-1.533389 2.72137,-2.988675 4.16924,-4.409375 1.48694,-1.790206 3.13209,-3.423866 4.73715,-5.107389 1.47486,-1.599103 2.88599,-3.251869 4.30536,-4.899888 1.43744,-1.473391 2.70012,-3.053143 3.86772,-4.747472 0,0 0.68154,0.511162 0.68154,0.511162 z"
     inkscape:connector-curvature="0" />
  <path
     style="color:#000000;fill-opacity:1;fill-rule:nonzero;stroke-width:1;stroke-linecap:butt;stroke-linejoin:miter;stroke-miterlimit:4;stroke-opacity:1;stroke-dasharray:12, 12;stroke-dashoffset:0;marker:none;visibility:visible;display:inline;overflow:visible;enable-background:accumulate"
     id="path4325-5"
     d="m 154.02646,126.89163 c 0.71981,1.98602 1.65785,3.88832 2.53303,5.81107 1.02011,1.98415 1.95387,4.01539 2.87156,6.04942 0.729,1.7607 1.70482,3.35214 2.8109,4.89484 1.12026,1.20408 2.31949,2.32654 3.41345,3.55596 0.91538,1.27992 2.00709,2.41688 3.00351,3.63156 1.03859,1.28176 2.15637,2.51836 3.36961,3.63841 1.16654,1.22884 2.3285,2.45753 3.6018,3.57701 1.0221,1.11128 2.16633,2.0974 3.21749,3.17848 1.02401,1.17803 1.87575,2.4838 2.9528,3.62065 1.00604,1.1403 1.88776,2.37959 2.77985,3.60961 1.13002,1.46592 2.36291,2.84657 3.51839,4.29168 0.89889,1.06326 1.89929,2.03056 2.83252,3.06117 0,0 -0.63245,0.57079 -0.63245,0.57079 l 0,0 c -0.94087,-1.04635 -1.95987,-2.02043 -2.86571,-3.10025 -1.16232,-1.45654 -2.4074,-2.84433 -3.5424,-4.32322 -0.87071,-1.20058 -1.73026,-2.41048 -2.70997,-3.52525 -1.06922,-1.13832 -1.93633,-2.42712 -2.94474,-3.61221 -1.03209,-1.06825 -2.1669,-2.03285 -3.16903,-3.13228 -1.27594,-1.1268 -2.45084,-2.35283 -3.61757,-3.59125 -1.23799,-1.15086 -2.38848,-2.40929 -3.4497,-3.72356 -0.987,-1.20735 -2.07519,-2.33261 -2.98094,-3.60512 -1.11339,-1.25208 -2.34257,-2.38707 -3.46941,-3.62596 -1.13765,-1.58853 -2.14226,-3.23013 -2.895,-5.0408 -0.91679,-2.03343 -1.85095,-4.06338 -2.8704,-6.04686 -0.88009,-1.93497 -1.82374,-3.84929 -2.5486,-5.84749 0,0 0.79101,-0.3164 0.79101,-0.3164 z"
     inkscape:connector-curvature="0" />
  <path
     style="color:#000000;fill-opacity:1;fill-rule:nonzero;stroke-width:1;stroke-linecap:butt;stroke-linejoin:miter;stroke-miterlimit:4;stroke-opacity:1;stroke-dasharray:12, 12;stroke-dashoffset:0;marker:none;visibility:visible;display:inline;overflow:visible;enable-background:accumulate"
     id="path4327-5"
     d="m 189.79931,129.75931 c -1.18913,1.72341 -2.477,3.33108 -3.93935,4.83112 -1.41155,1.64431 -2.81964,3.28928 -4.289,4.88265 -1.59344,1.6742 -3.23091,3.29495 -4.70801,5.07409 -1.4478,1.42948 -2.84802,2.88496 -4.18081,4.42302 -1.14818,1.46289 -2.35144,2.87942 -3.52251,4.32585 -1.75998,2.39008 -3.28192,4.93942 -4.91898,7.41243 -1.25165,1.96049 -2.50712,3.94591 -4.05523,5.68961 -0.94362,1.17321 -2.00346,2.24156 -3.01361,3.35837 -1.08914,1.08604 -2.27078,2.0776 -3.34095,3.18165 -0.8948,1.07415 -1.76751,2.17203 -2.62925,3.27507 -0.62963,0.63038 -1.18602,1.32418 -1.68321,2.06156 0,0 -0.70506,-0.47821 -0.70506,-0.47821 l 0,0 c 0.51171,-0.75045 1.06958,-1.46842 1.71742,-2.10847 0.88257,-1.12549 1.77013,-2.25036 2.68954,-3.3441 1.06721,-1.0928 2.23158,-2.08664 3.31968,-3.15898 1.00893,-1.11546 2.06788,-2.18138 3.00954,-3.35382 1.52828,-1.70637 2.74394,-3.67318 3.98076,-5.59296 1.65225,-2.49551 3.18691,-5.06925 4.96724,-7.47825 1.17714,-1.45373 2.38707,-2.87697 3.54078,-4.34766 1.32877,-1.53339 2.72137,-2.98868 4.16924,-4.40938 1.48694,-1.7902 3.13209,-3.42386 4.73715,-5.10739 1.47486,-1.5991 2.88599,-3.25187 4.30536,-4.89989 1.43744,-1.47339 2.70012,-3.05314 3.86772,-4.74747 0,0 0.68154,0.51116 0.68154,0.51116 z"
     inkscape:connector-curvature="0" />
  <path
     style="color:#000000;fill-opacity:1;fill-rule:nonzero;stroke-width:1;stroke-linecap:butt;stroke-linejoin:miter;stroke-miterlimit:4;stroke-opacity:1;stroke-dasharray:12, 12;stroke-dashoffset:0;marker:none;visibility:visible;display:inline;overflow:visible;enable-background:accumulate"
     id="path4325-0"
     d="m 348.26784,125.18776 c 0.71981,1.98602 1.65785,3.88832 2.53303,5.81106 1.02011,1.98416 1.95387,4.0154 2.87156,6.04943 0.729,1.7607 1.70482,3.35214 2.8109,4.89484 1.12026,1.20408 2.31949,2.32654 3.41345,3.55596 0.91538,1.27992 2.00709,2.41688 3.00351,3.63156 1.03859,1.28176 2.15637,2.51836 3.36961,3.63841 1.16654,1.22884 2.3285,2.45753 3.6018,3.577 1.0221,1.11129 2.16633,2.09741 3.21749,3.17849 1.02401,1.17803 1.87575,2.4838 2.9528,3.62065 1.00604,1.1403 1.88776,2.37959 2.77985,3.6096 1.13002,1.46593 2.36291,2.84658 3.51839,4.29168 0.89889,1.06327 1.89929,2.03056 2.83252,3.06118 0,0 -0.63245,0.57079 -0.63245,0.57079 l 0,0 c -0.94087,-1.04635 -1.95987,-2.02043 -2.86571,-3.10025 -1.16232,-1.45655 -2.4074,-2.84433 -3.5424,-4.32322 -0.87071,-1.20058 -1.73026,-2.41048 -2.70997,-3.52525 -1.06922,-1.13832 -1.93633,-2.42712 -2.94474,-3.61221 -1.03209,-1.06826 -2.1669,-2.03285 -3.16903,-3.13228 -1.27594,-1.1268 -2.45084,-2.35283 -3.61757,-3.59126 -1.23799,-1.15085 -2.38848,-2.40928 -3.4497,-3.72355 -0.987,-1.20735 -2.07519,-2.33261 -2.98094,-3.60512 -1.11339,-1.25209 -2.34257,-2.38707 -3.46941,-3.62596 -1.13765,-1.58853 -2.14226,-3.23013 -2.895,-5.0408 -0.91679,-2.03343 -1.85095,-4.06338 -2.8704,-6.04686 -0.88009,-1.93497 -1.82374,-3.84929 -2.5486,-5.84749 0,0 0.79101,-0.3164 0.79101,-0.3164 z"
     inkscape:connector-curvature="0" />
  <path
     style="color:#000000;fill-opacity:1;fill-rule:nonzero;stroke-width:1;stroke-linecap:butt;stroke-linejoin:miter;stroke-miterlimit:4;stroke-opacity:1;stroke-dasharray:12, 12;stroke-dashoffset:0;marker:none;visibility:visible;display:inline;overflow:visible;enable-background:accumulate"
     id="path4327-4"
     d="m 384.04069,128.05544 c -1.18913,1.7234 -2.477,3.33107 -3.93935,4.83112 -1.41155,1.64431 -2.81964,3.28928 -4.289,4.88265 -1.59344,1.6742 -3.23091,3.29495 -4.70801,5.07409 -1.4478,1.42948 -2.84802,2.88496 -4.18081,4.42302 -1.14818,1.46289 -2.35144,2.87942 -3.52251,4.32585 -1.75998,2.39008 -3.28192,4.93942 -4.91898,7.41243 -1.25165,1.96048 -2.50712,3.94591 -4.05523,5.68961 -0.94362,1.17321 -2.00346,2.24156 -3.01361,3.35837 -1.08914,1.08604 -2.27078,2.07759 -3.34095,3.18164 -0.8948,1.07416 -1.76751,2.17204 -2.62925,3.27507 -0.62963,0.63039 -1.18602,1.32419 -1.68321,2.06157 0,0 -0.70506,-0.47821 -0.70506,-0.47821 l 0,0 c 0.51171,-0.75045 1.06958,-1.46842 1.71742,-2.10847 0.88257,-1.12549 1.77013,-2.25037 2.68954,-3.34411 1.06721,-1.09279 2.23158,-2.08663 3.31968,-3.15898 1.00893,-1.11545 2.06788,-2.18138 3.00954,-3.35381 1.52828,-1.70637 2.74394,-3.67319 3.98076,-5.59297 1.65225,-2.4955 3.18691,-5.06924 4.96724,-7.47824 1.17714,-1.45373 2.38707,-2.87697 3.54078,-4.34767 1.32877,-1.53338 2.72137,-2.98867 4.16924,-4.40937 1.48694,-1.79021 3.13209,-3.42387 4.73715,-5.10739 1.47486,-1.5991 2.88599,-3.25187 4.30536,-4.89989 1.43744,-1.47339 2.70012,-3.05314 3.86772,-4.74747 0,0 0.68154,0.51116 0.68154,0.51116 z"
     inkscape:connector-curvature="0" />
  <path
     style="color:#000000;fill-opacity:1;fill-rule:nonzero;stroke-width:1;stroke-linecap:butt;stroke-linejoin:miter;stroke-miterlimit:4;stroke-opacity:1;stroke-dasharray:12, 12;stroke-dashoffset:0;marker:none;visibility:visible;display:inline;overflow:visible;enable-background:accumulate"
     id="path4371"
     d="m 397.02871,146.09755 c 3.58756,-0.50432 7.21866,-0.57083 10.83484,-0.65985 4.35134,-0.0872 8.70374,-0.0964 13.0558,-0.10163 0.50623,-1.3e-4 1.01247,-2.5e-4 1.5187,-3.8e-4 0,0 2.1e-4,0.85194 2.1e-4,0.85194 l 0,0 c -0.50596,1.2e-4 -1.01192,2.5e-4 -1.51788,3.7e-4 -4.34542,0.005 -8.69117,0.0144 -13.03588,0.10138 -3.57631,0.088 -7.16736,0.15277 -10.71573,0.64852 0,0 -0.14006,-0.84035 -0.14006,-0.84035 z"
     inkscape:connector-curvature="0" />
  <path
     style="color:#000000;fill-opacity:1;fill-rule:nonzero;stroke-width:1;stroke-linecap:butt;stroke-linejoin:miter;stroke-miterlimit:4;stroke-opacity:1;stroke-dasharray:12, 12;stroke-dashoffset:0;marker:none;visibility:visible;display:inline;overflow:visible;enable-background:accumulate"
     id="path4373"
     d="m 396.28847,151.20765 c 4.05767,-0.35622 8.11709,-0.70149 12.17703,-1.04276 4.05418,-0.21505 8.12835,-0.64365 12.19058,-0.43853 0,0 -0.0437,0.85082 -0.0437,0.85082 l 0,0 c -4.02317,-0.21043 -8.06006,0.23122 -12.0755,0.43665 -4.04354,0.33985 -8.0864,0.685 -12.12791,1.0372 0,0 -0.12048,-0.84338 -0.12048,-0.84338 z"
     inkscape:connector-curvature="0" />
  <path
     style="color:#000000;fill-opacity:1;fill-rule:nonzero;stroke-width:1;stroke-linecap:butt;stroke-linejoin:miter;stroke-miterlimit:4;stroke-opacity:1;stroke-dasharray:12, 12;stroke-dashoffset:0;marker:none;visibility:visible;display:inline;overflow:visible;enable-background:accumulate"
     id="path4255-6"
     d="m 441.97081,131.26425 c -1.48037,0.0127 -3.00427,0.20417 -4.35088,0.8533 -1.36778,0.73138 -1.96772,1.97445 -2.31517,3.43797 -0.15777,1.22915 -0.56818,2.67761 0.32469,3.69184 1.06442,0.7617 2.28865,0.41865 3.39538,-0.0547 1.50175,-0.83676 2.23364,-2.13346 2.66729,-3.75949 0.49184,-2.17869 0.3327,-4.36948 -0.14412,-6.52899 -0.78009,-3.00866 -2.15614,-5.70611 -4.07356,-8.10759 -0.29422,-0.30024 -0.58846,-0.60047 -0.88269,-0.9007 0,0 0.54854,-0.55611 0.54854,-0.55611 l 0,0 c 0.31165,0.31996 0.6233,0.63992 0.93495,0.95989 1.98911,2.49983 3.423,5.30397 4.22819,8.43339 0.49399,2.28763 0.66676,4.60479 0.13482,6.90941 -0.50913,1.86097 -1.38924,3.34582 -3.11853,4.27907 -1.44303,0.59618 -2.98355,0.91423 -4.28959,-0.17542 -0.98437,-1.30383 -0.74833,-2.83787 -0.47692,-4.37868 0.41447,-1.69539 1.1546,-3.1275 2.74028,-3.9647 1.45791,-0.68087 3.07807,-0.92435 4.67732,-0.92686 0,0 0,0.78836 0,0.78836 z"
     inkscape:connector-curvature="0" />
  <path
     style="color:#000000;fill-opacity:1;fill-rule:nonzero;stroke-width:1;stroke-linecap:butt;stroke-linejoin:miter;stroke-miterlimit:4;stroke-opacity:1;stroke-dasharray:12, 12;stroke-dashoffset:0;marker:none;visibility:visible;display:inline;overflow:visible;enable-background:accumulate"
     id="path4259-0"
     d="m 448.38355,130.13335 c -0.36575,1.90441 -0.53251,3.83757 -0.64665,5.77088 0.0662,0.88781 0.13943,2.08105 1.14102,1.16392 0.94494,-1.23396 1.66855,-2.62591 2.24685,-4.06426 0.54653,-1.57654 0.62219,-3.24389 1.01834,-4.85671 0.0413,-0.67737 0.91957,-1.69487 1.30554,-0.50638 0.0682,0.21 -0.10156,1.02969 -0.13569,1.22503 -0.32992,1.92365 -0.42393,3.87431 -0.49776,5.82113 -0.0179,1.82366 -0.2091,3.48653 1.36337,4.67965 0.83805,0.45278 1.69925,0.53194 2.62858,0.57376 0,0 -0.0456,0.85071 -0.0456,0.85071 l 0,0 c -1.11442,-0.068 -2.12822,-0.17338 -3.11457,-0.75876 -1.79949,-1.49204 -1.73554,-3.1742 -1.68307,-5.37768 0.0755,-1.98563 0.17285,-3.97505 0.51011,-5.93689 0.0491,-0.27483 -0.0616,-0.65437 0.16185,-0.82173 0.0661,-0.0495 0.16643,0.0633 0.24497,0.0377 0.55559,-0.1813 0.26285,-0.33948 0.0896,0.4169 -0.40647,1.65101 -0.4727,3.3631 -1.05564,4.97219 -0.63629,1.5702 -1.41893,3.11218 -2.51235,4.41669 -1.71093,1.22292 -2.49743,-0.21542 -2.51596,-1.88555 0.11678,-1.97251 0.28779,-3.94479 0.66171,-5.88768 0,0 0.83539,0.16708 0.83539,0.16708 z"
     inkscape:connector-curvature="0" />
  <path
     style="color:#000000;fill-opacity:1;fill-rule:nonzero;stroke-width:1;stroke-linecap:butt;stroke-linejoin:miter;stroke-miterlimit:4;stroke-opacity:1;stroke-dasharray:12, 12;stroke-dashoffset:0;marker:none;visibility:visible;display:inline;overflow:visible;enable-background:accumulate"
     id="path4261-7"
     d="m 430.04729,146.91134 c 2.52575,-0.49847 5.05994,-0.90387 7.61077,-1.17396 3.85005,-0.33841 7.71215,-0.39056 11.57081,-0.43062 2.9507,-0.0219 5.90148,-0.0165 8.85222,-0.0121 0.92683,0.002 1.85366,0.003 2.78049,0.004 0,0 -7.8e-4,0.85193 -7.8e-4,0.85193 l 0,0 c -0.92687,-0.001 -1.85373,-0.002 -2.7806,-0.004 -2.94838,-0.004 -5.89679,-0.01 -8.84512,0.0121 -3.83971,0.0398 -7.68282,0.0914 -11.51399,0.42733 -2.52507,0.26686 -5.03349,0.66848 -7.53381,1.16074 0,0 -0.13999,-0.83539 -0.13999,-0.83539 z"
     inkscape:connector-curvature="0" />
  <path
     style="color:#000000;fill-opacity:1;fill-rule:nonzero;stroke-width:1;stroke-linecap:butt;stroke-linejoin:miter;stroke-miterlimit:4;stroke-opacity:1;stroke-dasharray:12, 12;stroke-dashoffset:0;marker:none;visibility:visible;display:inline;overflow:visible;enable-background:accumulate"
     id="path4255-7-7"
     d="m 442.07365,161.22808 c -1.48037,0.0127 -3.00427,0.20417 -4.35088,0.8533 -1.36778,0.73138 -1.96772,1.97445 -2.31517,3.43797 -0.15777,1.22915 -0.56818,2.67762 0.32469,3.69185 1.06442,0.7617 2.28865,0.41865 3.39538,-0.0547 1.50175,-0.83676 2.23364,-2.13347 2.66729,-3.7595 0.49184,-2.17869 0.3327,-4.36948 -0.14412,-6.52899 -0.78009,-3.00866 -2.15614,-5.70611 -4.07356,-8.10759 -0.29422,-0.30023 -0.58846,-0.60047 -0.88269,-0.9007 0,0 0.54854,-0.55611 0.54854,-0.55611 l 0,0 c 0.31165,0.31996 0.6233,0.63993 0.93495,0.95989 1.98911,2.49983 3.423,5.30397 4.22819,8.43339 0.49399,2.28763 0.66676,4.6048 0.13482,6.90941 -0.50913,1.86097 -1.38924,3.34583 -3.11853,4.27908 -1.44303,0.59618 -2.98355,0.91423 -4.28959,-0.17543 -0.98437,-1.30382 -0.74833,-2.83787 -0.47692,-4.37868 0.41447,-1.69539 1.1546,-3.1275 2.74028,-3.9647 1.45791,-0.68087 3.07807,-0.92435 4.67732,-0.92686 0,0 0,0.78836 0,0.78836 z"
     inkscape:connector-curvature="0" />
  <path
     style="color:#000000;fill-opacity:1;fill-rule:nonzero;stroke-width:1;stroke-linecap:butt;stroke-linejoin:miter;stroke-miterlimit:4;stroke-opacity:1;stroke-dasharray:12, 12;stroke-dashoffset:0;marker:none;visibility:visible;display:inline;overflow:visible;enable-background:accumulate"
     id="path4424"
     d="m 451.03086,156.584 c -0.32834,1.86947 -0.46653,3.75057 -0.89974,5.6004 -0.36048,1.55591 -0.66815,3.14862 -0.54368,4.74886 0.30989,1.46244 1.4989,1.85424 2.81463,2.11394 1.0761,0.0794 1.96885,-0.34453 2.87448,-0.86553 0,0 0.42221,0.73995 0.42221,0.73995 l 0,0 c -1.08908,0.61693 -2.17807,1.09273 -3.46531,0.96066 -1.70344,-0.35072 -3.14618,-1.0104 -3.49578,-2.88821 -0.11181,-1.68844 0.16913,-3.3632 0.56401,-5.00416 0.43206,-1.84018 0.56013,-3.71385 0.89379,-5.57299 0,0 0.83539,0.16708 0.83539,0.16708 z"
     inkscape:connector-curvature="0" />
  <path
     style="color:#000000;fill-opacity:1;fill-rule:nonzero;stroke-width:1;stroke-linecap:butt;stroke-linejoin:miter;stroke-miterlimit:4;stroke-opacity:1;stroke-dasharray:12, 12;stroke-dashoffset:0;marker:none;visibility:visible;display:inline;overflow:visible;enable-background:accumulate"
     id="path4426"
     d="m 446.11298,160.67657 c 1.9431,0 3.88619,0 5.82928,0 0.93315,0 1.8663,0 2.79945,0 0,0 0,0.85194 0,0.85194 l 0,0 c -0.93315,0 -1.8663,0 -2.79945,0 -1.94309,0 -3.88618,0 -5.82928,0 0,0 0,-0.85194 0,-0.85194 z"
     inkscape:connector-curvature="0" />
  <path
     sodipodi:type="arc"
     style="color:#000000;fill:#000000;fill-opacity:1;fill-rule:nonzero;stroke-width:1;stroke-linecap:butt;stroke-linejoin:miter;stroke-miterlimit:4;stroke-opacity:1;stroke-dasharray:12, 12;stroke-dashoffset:0;marker:none;visibility:visible;display:inline;overflow:visible;enable-background:accumulate"
     id="path4447"
     sodipodi:cx="97.120689"
     sodipodi:cy="64.136719"
     sodipodi:rx="8.5193586"
     sodipodi:ry="7.6674228"
     d="m 105.64005,64.136719 a 8.5193586,7.6674228 0 1 1 -17.038719,0 8.5193586,7.6674228 0 1 1 17.038719,0 z"
     transform="translate(-6,-14)" />
  <path
     sodipodi:type="arc"
     style="color:#000000;fill:#000000;fill-opacity:1;fill-rule:nonzero;stroke-width:1;stroke-linecap:butt;stroke-linejoin:miter;stroke-miterlimit:4;stroke-opacity:1;stroke-dasharray:12, 12;stroke-dashoffset:0;marker:none;visibility:visible;display:inline;overflow:visible;enable-background:accumulate"
     id="path4447-5"
     sodipodi:cx="97.120689"
     sodipodi:cy="64.136719"
     sodipodi:rx="8.5193586"
     sodipodi:ry="7.6674228"
     d="m 105.64005,64.136719 a 8.5193586,7.6674228 0 1 1 -17.038719,0 8.5193586,7.6674228 0 1 1 17.038719,0 z"
     transform="translate(71.45327,-13.594524)" />
  <path
     sodipodi:type="arc"
     style="color:#000000;fill:#000000;fill-opacity:1;fill-rule:nonzero;stroke-width:1;stroke-linecap:butt;stroke-linejoin:miter;stroke-miterlimit:4;stroke-opacity:1;stroke-dasharray:12, 12;stroke-dashoffset:0;marker:none;visibility:visible;display:inline;overflow:visible;enable-background:accumulate"
     id="path4447-6"
     sodipodi:cx="97.120689"
     sodipodi:cy="64.136719"
     sodipodi:rx="8.5193586"
     sodipodi:ry="7.6674228"
     d="m 105.64005,64.136719 a 8.5193586,7.6674228 0 1 1 -17.038719,0 8.5193586,7.6674228 0 1 1 17.038719,0 z"
     transform="translate(146.46007,-14.820023)" />
  <path
     sodipodi:type="arc"
     style="color:#000000;fill:#000000;fill-opacity:1;fill-rule:nonzero;stroke-width:1;stroke-linecap:butt;stroke-linejoin:miter;stroke-miterlimit:4;stroke-opacity:1;stroke-dasharray:12, 12;stroke-dashoffset:0;marker:none;visibility:visible;display:inline;overflow:visible;enable-background:accumulate"
     id="path4447-1"
     sodipodi:cx="97.120689"
     sodipodi:cy="64.136719"
     sodipodi:rx="8.5193586"
     sodipodi:ry="7.6674228"
     d="m 105.64005,64.136719 a 8.5193586,7.6674228 0 1 1 -17.038719,0 8.5193586,7.6674228 0 1 1 17.038719,0 z"
     transform="translate(146.87462,86.883849)" />
  <path
     sodipodi:type="arc"
     style="color:#000000;fill:#000000;fill-opacity:1;fill-rule:nonzero;stroke-width:1;stroke-linecap:butt;stroke-linejoin:miter;stroke-miterlimit:4;stroke-opacity:1;stroke-dasharray:12, 12;stroke-dashoffset:0;marker:none;visibility:visible;display:inline;overflow:visible;enable-background:accumulate"
     id="path4447-3"
     sodipodi:cx="97.120689"
     sodipodi:cy="64.136719"
     sodipodi:rx="8.5193586"
     sodipodi:ry="7.6674228"
     d="m 105.64005,64.136719 a 8.5193586,7.6674228 0 1 1 -17.038719,0 8.5193586,7.6674228 0 1 1 17.038719,0 z"
     transform="translate(73.09786,88.29613)" />
  <path
     sodipodi:type="arc"
     style="color:#000000;fill:#000000;fill-opacity:1;fill-rule:nonzero;stroke-width:1;stroke-linecap:butt;stroke-linejoin:miter;stroke-miterlimit:4;stroke-opacity:1;stroke-dasharray:12, 12;stroke-dashoffset:0;marker:none;visibility:visible;display:inline;overflow:visible;enable-background:accumulate"
     id="path4447-50"
     sodipodi:cx="97.120689"
     sodipodi:cy="64.136719"
     sodipodi:rx="8.5193586"
     sodipodi:ry="7.6674228"
     d="m 105.64005,64.136719 a 8.5193586,7.6674228 0 1 1 -17.038719,0 8.5193586,7.6674228 0 1 1 17.038719,0 z"
     transform="translate(-4.53312,87.480643)" />
  <path
     style="fill:none;stroke:#ff0000;stroke-width:1;stroke-linecap:butt;stroke-linejoin:miter;stroke-miterlimit:4;stroke-opacity:1;stroke-dasharray:8, 8;stroke-dashoffset:0"
     d="M 92.3052,51.763162 168.97943,50.05929"
     id="path3488"
     inkscape:connector-curvature="0" />
  <path
     style="fill:none;stroke:#ff0000;stroke-width:1;stroke-linecap:butt;stroke-linejoin:miter;stroke-miterlimit:4;stroke-opacity:1;stroke-dasharray:8, 8;stroke-dashoffset:0"
     d="m 174.71521,51.098008 76.67423,-1.703872"
     id="path3488-9"
     inkscape:connector-curvature="0" />
  <path
     style="color:#000000;fill-opacity:1;fill-rule:nonzero;stroke-width:1;stroke-linecap:butt;stroke-linejoin:miter;stroke-miterlimit:4;stroke-opacity:1;stroke-dasharray:12, 12;stroke-dashoffset:0;marker:none;visibility:visible;display:inline;overflow:visible;enable-background:accumulate"
     id="path4217-2"
     d="m 103.57476,125.50531 c -1.63995,-0.79979 -3.30561,-1.47191 -5.083029,-1.8923 -1.48927,-0.55502 -3.00801,-0.93686 -4.58409,-1.1251 -1.63417,-0.15083 -3.27731,-0.14756 -4.91689,-0.15239 -1.69188,-0.0821 -3.36827,0.16353 -4.99748,0.60819 -1.70058,0.74827 -3.34428,1.6885 -4.88519,2.72936 -1.18231,0.76148 -2.30251,1.64478 -3.2869,2.65122 -0.98997,0.94612 -1.85555,1.9767 -2.63838,3.10016 -0.88695,1.3791 -1.82814,2.73676 -2.56199,4.20634 -0.8248,1.61979 -1.64088,3.24185 -2.1576,4.98888 -0.61938,1.66708 -0.9804,3.40676 -1.45998,5.11531 -0.46814,1.63519 -0.61385,3.32868 -0.69893,5.01944 -0.062,1.69573 -0.0537,3.393 -0.0517,5.08956 -0.0313,1.6961 -0.0341,3.36772 0.24469,5.04235 0.42042,1.59272 0.94042,3.13673 1.69905,4.60008 0.84137,1.14799 1.74655,2.2679 2.78179,3.24811 0.97655,1.00062 1.96329,1.99704 3.11936,2.79131 1.36073,0.83659 2.67565,1.75256 4.06078,2.55109 1.49681,0.9618 3.1162,1.67614 4.73787,2.39074 1.52898,0.52413 2.97624,1.2573 4.53427,1.69507 1.28614,0.60006 2.62785,0.93845 4.02919,1.11559 1.62342,0.15616 3.25659,0.15265 4.88586,0.15816 1.58313,0.11779 3.101,-0.0704 4.644359,-0.38465 1.40662,-0.17809 2.77296,-0.54719 4.10156,-1.03848 1.40627,-0.38214 2.6819,-0.98699 3.92151,-1.73588 1.20288,-0.74061 2.36942,-1.50786 3.38766,-2.49169 0.9257,-1.20772 1.82745,-2.46298 2.51903,-3.82213 0.77457,-1.21676 1.38362,-2.53607 1.85157,-3.89885 0.69839,-1.54447 1.08116,-3.17333 1.29505,-4.84636 0.21085,-2.16612 0.17253,-4.3467 0.17619,-6.52015 9.9e-4,-2.81303 -0.005,-5.62604 -0.009,-8.43906 -0.006,-1.73136 0.10045,-3.44996 -0.23791,-5.15413 -0.16951,-1.38211 -0.72981,-2.65328 -1.06311,-3.99566 -0.39422,-1.2325 -0.98061,-2.37919 -1.45472,-3.57825 -0.53425,-1.18316 -1.17907,-2.26257 -1.89215,-3.34273 -0.96238,-1.14885 -1.93617,-2.2839 -3.12799,-3.20095 -1.80235,-1.5134 -3.93361,-2.41566 -6.14447,-3.15438 -3.46451,-1.18061 -7.099559,-1.61001 -10.722189,-1.96385 0,0 0.0829,-0.84789 0.0829,-0.84789 l 0,0 c 3.6865,0.36088 7.384839,0.80201 10.910159,2.00401 2.29901,0.77371 4.51818,1.71503 6.3952,3.28852 1.25955,0.9809 2.30861,2.17339 3.31752,3.40542 0.74454,1.12951 1.41531,2.26373 1.9737,3.49972 0.48402,1.23488 1.09437,2.41387 1.48908,3.68598 0.3333,1.35535 0.90416,2.63914 1.07188,4.03512 0.34528,1.75961 0.25662,3.53077 0.25402,5.31789 0.004,2.81389 0.0102,5.62778 0.009,8.44167 -0.004,2.20924 0.0347,4.42578 -0.18314,6.62731 -0.22336,1.72964 -0.61419,3.41782 -1.33467,5.01563 -0.48467,1.3987 -1.10132,2.75954 -1.89866,4.00936 -0.74101,1.43835 -1.68312,2.78091 -2.68619,4.04726 -1.06655,1.02494 -2.27961,1.836 -3.53824,2.60738 -1.28575,0.77677 -2.61212,1.40628 -4.06823,1.80636 -1.37002,0.50043 -2.77604,0.89142 -4.2254,1.07362 -1.599449,0.32564 -3.177779,0.51867 -4.817219,0.40178 -1.66424,-0.006 -3.33252,-0.003 -4.99058,-0.16498 -1.44098,-0.18473 -2.83195,-0.5186 -4.15337,-1.14091 -1.5951,-0.45358 -3.08173,-1.19144 -4.64612,-1.73531 -1.64968,-0.72747 -3.29679,-1.45563 -4.82039,-2.43261 -1.40376,-0.81253 -2.73985,-1.73746 -4.11916,-2.58805 -1.18799,-0.82619 -2.21903,-1.83739 -3.22251,-2.87526 -1.09713,-1.05127 -2.07595,-2.23306 -2.95103,-3.47392 -0.79465,-1.54373 -1.35155,-3.16998 -1.78256,-4.85155 -0.2848,-1.72087 -0.29106,-3.43839 -0.25618,-5.18083 -0.002,-1.71122 -0.0104,-3.42317 0.0528,-5.13354 0.0889,-1.75408 0.24365,-3.51049 0.72954,-5.20671 0.48073,-1.71267 0.84266,-3.45671 1.46359,-5.12782 0.53561,-1.79363 1.36071,-3.46518 2.21264,-5.12795 0.75696,-1.50435 1.71236,-2.90072 2.62535,-4.31265 0.81289,-1.15931 1.70702,-2.23049 2.72963,-3.20984 1.03109,-1.04062 2.18423,-1.97083 3.41812,-2.76014 1.62086,-1.08777 3.34049,-2.08665 5.13855,-2.84504 1.70386,-0.45692 3.45386,-0.72444 5.22239,-0.63772 1.67268,0.005 3.34902,0.002 5.016,0.15847 1.60706,0.19413 3.1619,0.5706 4.67934,1.14207 1.840239,0.43884 3.569009,1.12916 5.267159,1.95918 0,0 -0.381,0.762 -0.381,0.762 z"
     inkscape:connector-curvature="0" />
  <path
     style="color:#000000;fill-opacity:1;fill-rule:nonzero;stroke-width:1;stroke-linecap:butt;stroke-linejoin:miter;stroke-miterlimit:4;stroke-opacity:1;stroke-dasharray:12, 12;stroke-dashoffset:0;marker:none;visibility:visible;display:inline;overflow:visible;enable-background:accumulate"
     id="path4217-5-2"
     d="m 180.25313,127.12717 c -1.63995,-0.7998 -3.30561,-1.47191 -5.08303,-1.89231 -1.48927,-0.55502 -3.00801,-0.93685 -4.58409,-1.12509 -1.63417,-0.15084 -3.27731,-0.14757 -4.91689,-0.15239 -1.69188,-0.0821 -3.36827,0.16352 -4.99748,0.60819 -1.70058,0.74826 -3.34428,1.6885 -4.88519,2.72935 -1.18231,0.76148 -2.30251,1.64478 -3.2869,2.65122 -0.98997,0.94613 -1.85555,1.9767 -2.63838,3.10017 -0.88695,1.3791 -1.82814,2.73676 -2.56199,4.20634 -0.8248,1.61979 -1.64088,3.24184 -2.1576,4.98888 -0.61938,1.66708 -0.9804,3.40676 -1.45998,5.11531 -0.46814,1.63519 -0.61385,3.32868 -0.69893,5.01944 -0.062,1.69573 -0.0537,3.393 -0.0517,5.08956 -0.0313,1.6961 -0.0341,3.36772 0.24469,5.04235 0.42042,1.59272 0.94042,3.13673 1.69905,4.60008 0.84137,1.14799 1.74655,2.26789 2.78179,3.2481 0.97655,1.00062 1.96329,1.99704 3.11936,2.79132 1.36073,0.83658 2.67565,1.75256 4.06078,2.55109 1.49681,0.9618 3.1162,1.67614 4.73787,2.39074 1.52898,0.52413 2.97624,1.2573 4.53427,1.69507 1.28614,0.60006 2.62785,0.93845 4.02919,1.11559 1.62342,0.15616 3.25659,0.15265 4.88586,0.15816 1.58313,0.11779 3.101,-0.0704 4.64436,-0.38465 1.40662,-0.17809 2.77296,-0.54719 4.10156,-1.03848 1.40627,-0.38214 2.6819,-0.98699 3.92151,-1.73589 1.20288,-0.7406 2.36942,-1.50785 3.38766,-2.49169 0.9257,-1.20771 1.82745,-2.46298 2.51903,-3.82212 0.77457,-1.21676 1.38362,-2.53607 1.85157,-3.89885 0.69839,-1.54447 1.08116,-3.17333 1.29505,-4.84636 0.21085,-2.16613 0.17253,-4.3467 0.17619,-6.52016 9.9e-4,-2.81302 -0.005,-5.62604 -0.009,-8.43906 -0.006,-1.73136 0.10045,-3.44995 -0.23791,-5.15412 -0.16951,-1.38211 -0.72981,-2.65328 -1.06311,-3.99566 -0.39422,-1.2325 -0.98061,-2.3792 -1.45472,-3.57825 -0.53425,-1.18316 -1.17907,-2.26257 -1.89215,-3.34274 -0.96238,-1.14884 -1.93617,-2.28389 -3.12799,-3.20095 -1.80235,-1.51339 -3.93361,-2.41566 -6.14447,-3.15437 -3.46451,-1.18061 -7.09956,-1.61001 -10.72219,-1.96385 0,0 0.0829,-0.84789 0.0829,-0.84789 l 0,0 c 3.6865,0.36087 7.38484,0.80201 10.91016,2.00401 2.29901,0.77371 4.51818,1.71503 6.3952,3.28851 1.25955,0.98091 2.30861,2.1734 3.31752,3.40542 0.74454,1.12951 1.41531,2.26374 1.9737,3.49973 0.48402,1.23487 1.09437,2.41387 1.48908,3.68597 0.3333,1.35536 0.90416,2.63914 1.07188,4.03512 0.34528,1.75962 0.25662,3.53078 0.25402,5.31789 0.004,2.81389 0.0102,5.62778 0.009,8.44168 -0.004,2.20924 0.0347,4.42577 -0.18314,6.62731 -0.22336,1.72963 -0.61419,3.41782 -1.33467,5.01562 -0.48467,1.39871 -1.10132,2.75955 -1.89866,4.00937 -0.74101,1.43834 -1.68312,2.78091 -2.68619,4.04726 -1.06655,1.02494 -2.27961,1.836 -3.53824,2.60738 -1.28575,0.77677 -2.61212,1.40628 -4.06823,1.80636 -1.37002,0.50043 -2.77604,0.89142 -4.2254,1.07362 -1.59945,0.32564 -3.17778,0.51867 -4.81722,0.40178 -1.66424,-0.006 -3.33252,-0.003 -4.99058,-0.16498 -1.44098,-0.18473 -2.83195,-0.5186 -4.15337,-1.14091 -1.5951,-0.45358 -3.08173,-1.19144 -4.64612,-1.73531 -1.64968,-0.72747 -3.29679,-1.45564 -4.82039,-2.43261 -1.40376,-0.81254 -2.73985,-1.73746 -4.11916,-2.58805 -1.18799,-0.82619 -2.21903,-1.8374 -3.22251,-2.87527 -1.09713,-1.05126 -2.07595,-2.23305 -2.95103,-3.47391 -0.79465,-1.54373 -1.35155,-3.16998 -1.78256,-4.85155 -0.2848,-1.72087 -0.29106,-3.43839 -0.25618,-5.18083 -0.002,-1.71123 -0.0104,-3.42317 0.0528,-5.13354 0.0889,-1.75408 0.24365,-3.51049 0.72954,-5.20671 0.48073,-1.71267 0.84266,-3.45672 1.46359,-5.12782 0.53561,-1.79363 1.36071,-3.46519 2.21264,-5.12795 0.75696,-1.50435 1.71236,-2.90072 2.62535,-4.31266 0.81289,-1.1593 1.70702,-2.23048 2.72963,-3.20984 1.03109,-1.04061 2.18423,-1.97082 3.41812,-2.76013 1.62086,-1.08777 3.34049,-2.08665 5.13855,-2.84504 1.70386,-0.45692 3.45386,-0.72444 5.22239,-0.63773 1.67268,0.005 3.34902,0.002 5.016,0.15848 1.60706,0.19413 3.1619,0.57059 4.67934,1.14207 1.84024,0.43883 3.56901,1.12915 5.26716,1.95918 0,0 -0.381,0.76199 -0.381,0.76199 z"
     inkscape:connector-curvature="0" />
  <path
     style="color:#000000;fill-opacity:1;fill-rule:nonzero;stroke-width:1;stroke-linecap:butt;stroke-linejoin:miter;stroke-miterlimit:4;stroke-opacity:1;stroke-dasharray:12, 12;stroke-dashoffset:0;marker:none;visibility:visible;display:inline;overflow:visible;enable-background:accumulate"
     id="path4217-5-9-6"
     d="m 256.07542,124.65333 c -1.63995,-0.7998 -3.30561,-1.47191 -5.08303,-1.89231 -1.48927,-0.55502 -3.00801,-0.93685 -4.58409,-1.12509 -1.63417,-0.15084 -3.27731,-0.14757 -4.91689,-0.15239 -1.69188,-0.0821 -3.36827,0.16352 -4.99748,0.60819 -1.70058,0.74826 -3.34428,1.6885 -4.88519,2.72935 -1.18231,0.76148 -2.30251,1.64478 -3.2869,2.65122 -0.98997,0.94613 -1.85555,1.9767 -2.63838,3.10017 -0.88695,1.3791 -1.82814,2.73676 -2.56199,4.20634 -0.8248,1.61979 -1.64088,3.24184 -2.1576,4.98888 -0.61938,1.66708 -0.9804,3.40676 -1.45998,5.11531 -0.46814,1.63519 -0.61385,3.32868 -0.69893,5.01944 -0.062,1.69573 -0.0537,3.393 -0.0517,5.08956 -0.0313,1.6961 -0.0341,3.36772 0.24469,5.04235 0.42042,1.59272 0.94042,3.13673 1.69905,4.60008 0.84137,1.14799 1.74655,2.26789 2.78179,3.2481 0.97655,1.00062 1.96329,1.99704 3.11936,2.79132 1.36073,0.83658 2.67565,1.75256 4.06078,2.55109 1.49681,0.9618 3.1162,1.67614 4.73787,2.39074 1.52898,0.52413 2.97624,1.2573 4.53427,1.69507 1.28614,0.60006 2.62785,0.93845 4.02919,1.11559 1.62342,0.15616 3.25659,0.15265 4.88586,0.15816 1.58313,0.11779 3.101,-0.0704 4.64436,-0.38465 1.40662,-0.17809 2.77296,-0.54719 4.10156,-1.03848 1.40627,-0.38214 2.6819,-0.98699 3.92151,-1.73589 1.20288,-0.7406 2.36942,-1.50785 3.38766,-2.49169 0.9257,-1.20771 1.82745,-2.46298 2.51903,-3.82212 0.77457,-1.21676 1.38362,-2.53607 1.85157,-3.89885 0.69839,-1.54447 1.08116,-3.17333 1.29505,-4.84636 0.21085,-2.16613 0.17253,-4.3467 0.17619,-6.52016 9.9e-4,-2.81302 -0.005,-5.62604 -0.009,-8.43906 -0.006,-1.73136 0.10045,-3.44995 -0.23791,-5.15412 -0.16951,-1.38211 -0.72981,-2.65328 -1.06311,-3.99566 -0.39422,-1.2325 -0.98061,-2.3792 -1.45472,-3.57825 -0.53425,-1.18316 -1.17907,-2.26257 -1.89215,-3.34274 -0.96238,-1.14884 -1.93617,-2.28389 -3.12799,-3.20095 -1.80235,-1.51339 -3.93361,-2.41566 -6.14447,-3.15437 -3.46451,-1.18061 -7.09956,-1.61001 -10.72219,-1.96385 0,0 0.0829,-0.84789 0.0829,-0.84789 l 0,0 c 3.6865,0.36087 7.38484,0.80201 10.91016,2.00401 2.29901,0.77371 4.51818,1.71503 6.3952,3.28851 1.25955,0.98091 2.30861,2.1734 3.31752,3.40542 0.74454,1.12951 1.41531,2.26374 1.9737,3.49973 0.48402,1.23487 1.09437,2.41387 1.48908,3.68597 0.3333,1.35536 0.90416,2.63914 1.07188,4.03512 0.34528,1.75962 0.25662,3.53078 0.25402,5.31789 0.004,2.81389 0.0102,5.62778 0.009,8.44168 -0.004,2.20924 0.0347,4.42577 -0.18314,6.62731 -0.22336,1.72963 -0.61419,3.41782 -1.33467,5.01562 -0.48467,1.39871 -1.10132,2.75955 -1.89866,4.00937 -0.74101,1.43834 -1.68312,2.78091 -2.68619,4.04726 -1.06655,1.02494 -2.27961,1.836 -3.53824,2.60738 -1.28575,0.77677 -2.61212,1.40628 -4.06823,1.80636 -1.37002,0.50043 -2.77604,0.89142 -4.2254,1.07362 -1.59945,0.32564 -3.17778,0.51867 -4.81722,0.40178 -1.66424,-0.006 -3.33252,-0.003 -4.99058,-0.16498 -1.44098,-0.18473 -2.83195,-0.5186 -4.15337,-1.14091 -1.5951,-0.45358 -3.08173,-1.19144 -4.64612,-1.73531 -1.64968,-0.72747 -3.29679,-1.45564 -4.82039,-2.43261 -1.40376,-0.81254 -2.73985,-1.73746 -4.11916,-2.58805 -1.18799,-0.82619 -2.21903,-1.8374 -3.22251,-2.87527 -1.09713,-1.05126 -2.07595,-2.23305 -2.95103,-3.47391 -0.79465,-1.54373 -1.35155,-3.16998 -1.78256,-4.85155 -0.2848,-1.72087 -0.29106,-3.43839 -0.25618,-5.18083 -0.002,-1.71123 -0.0104,-3.42317 0.0528,-5.13354 0.0889,-1.75408 0.24365,-3.51049 0.72954,-5.20671 0.48073,-1.71267 0.84266,-3.45672 1.46359,-5.12782 0.53561,-1.79363 1.36071,-3.46519 2.21264,-5.12795 0.75696,-1.50435 1.71236,-2.90072 2.62535,-4.31266 0.81289,-1.1593 1.70702,-2.23048 2.72963,-3.20984 1.03109,-1.04061 2.18423,-1.97082 3.41812,-2.76013 1.62086,-1.08777 3.34049,-2.08665 5.13855,-2.84504 1.70386,-0.45692 3.45386,-0.72444 5.22239,-0.63773 1.67268,0.005 3.34902,0.002 5.016,0.15848 1.60706,0.19413 3.1619,0.57059 4.67934,1.14207 1.84024,0.43883 3.56901,1.12915 5.26716,1.95918 0,0 -0.381,0.76199 -0.381,0.76199 z"
     inkscape:connector-curvature="0" />
  <path
     style="color:#000000;fill-opacity:1;fill-rule:nonzero;stroke-width:1;stroke-linecap:butt;stroke-linejoin:miter;stroke-miterlimit:4;stroke-opacity:1;stroke-dasharray:none;stroke-dashoffset:0;marker:none;visibility:visible;display:inline;overflow:visible;enable-background:accumulate"
     id="path3322-6"
     d="m 32.53996,98.50672 c 0,2.74795 0,5.4959 0,8.24385 0,1.73899 0,3.47798 0,5.21698 0,0 -1.20482,0 -1.20482,0 l 0,0 c 0,-1.739 0,-3.47799 0,-5.21698 0,-2.74795 0,-5.4959 0,-8.24385 0,0 1.20482,0 1.20482,0 z"
     inkscape:connector-curvature="0" />
  <path
     style="color:#000000;fill-opacity:1;fill-rule:nonzero;stroke-width:1;stroke-linecap:butt;stroke-linejoin:miter;stroke-miterlimit:4;stroke-opacity:1;stroke-dasharray:none;stroke-dashoffset:0;marker:none;visibility:visible;display:inline;overflow:visible;enable-background:accumulate"
     id="path3324-2"
     d="m 22.90144,105.48504 c 2.74766,-0.52879 5.53689,-0.77064 8.32643,-0.9358 2.57519,0.044 5.08493,-0.25712 7.61611,-0.68189 0.40888,-0.0608 0.81775,-0.12162 1.22663,-0.18243 0,0 0.17713,1.19173 0.17713,1.19173 l 0,0 c -0.40145,0.0596 -0.8029,0.11927 -1.20436,0.1789 -2.57299,0.43179 -5.12739,0.73807 -7.7444,0.69641 -2.73412,0.16143 -5.46801,0.39726 -8.16126,0.91451 0,0 -0.23628,-1.18143 -0.23628,-1.18143 z"
     inkscape:connector-curvature="0" />
  <path
     style="color:#000000;fill-opacity:1;fill-rule:nonzero;stroke-width:1;stroke-linecap:butt;stroke-linejoin:miter;stroke-miterlimit:4;stroke-opacity:1;stroke-dasharray:none;stroke-dashoffset:0;marker:none;visibility:visible;display:inline;overflow:visible;enable-background:accumulate"
     id="path3320-7-8-2"
     d="m 10.24278,99.08786 c -0.24855,2.73668 -0.4971,5.47337 -0.74565,8.21006 -0.11068,1.21857 -0.22135,2.43715 -0.33202,3.65573 -0.0217,0.23874 0.14524,0.83129 -0.065,0.71621 -0.40328,-0.22069 -0.75945,-0.51826 -1.13917,-0.7774 0.23454,-2.09377 0.25524,-4.21509 0.72009,-6.27333 0.4889,-2.01207 1.20489,-3.88116 2.79542,-5.25417 2.17774,-1.36734 3.86039,-0.17846 4.82772,1.89538 1.08196,2.21013 1.14521,4.65743 1.49415,7.03795 0.24668,1.65064 0.13348,0.82185 0.33929,2.4864 0,0 -1.19574,0.14765 -1.19574,0.14765 l 0,0 c -0.20171,-1.63565 -0.09,-0.81546 -0.3358,-2.4605 -0.32844,-2.27133 -0.37896,-4.60845 -1.40169,-6.71952 -0.57385,-1.36039 -1.45249,-2.34237 -2.95617,-1.46217 -1.42834,1.13544 -1.93478,2.8946 -2.39328,4.60016 -0.47368,1.99827 -0.44405,4.07664 -0.69411,6.11112 -0.42019,0.18649 -0.82415,0.41503 -1.26059,0.55946 -0.22758,0.0753 0.0434,-0.47748 0.065,-0.71622 0.11067,-1.21857 0.22134,-2.43716 0.33202,-3.65573 0.24855,-2.73669 0.4971,-5.47337 0.74565,-8.21006 0,0 1.19988,0.10898 1.19988,0.10898 z"
     inkscape:connector-curvature="0" />
  <path
     style="color:#000000;fill:none;stroke:#000000;stroke-width:0.3742663;stroke-linecap:butt;stroke-linejoin:miter;stroke-miterlimit:4;stroke-opacity:1;stroke-dasharray:none;stroke-dashoffset:0;marker:none;visibility:visible;display:inline;overflow:visible;enable-background:accumulate"
     id="path4387"
     d="m 52.39559,110.49946 c 0.23905,-1.20362 0.917,-2.2797 1.70799,-3.2367 0.89943,-0.90229 1.88492,-1.6884 3.06345,-2.2477 2.09382,-1.05029 2.70435,-1.08164 3.5864,1.21594 0.31662,1.68656 -0.50106,3.15593 -1.32615,4.59188 -0.74009,1.22607 -1.7886,2.25322 -2.6833,3.37781 -0.68665,0.93686 -1.65681,1.69022 -2.29974,2.64979 0.019,0.0187 0.0334,0.0694 0.0569,0.056 0.0417,-0.0237 0.0207,-0.1003 0.0626,-0.12385 0.11262,-0.0634 2.82151,-0.47287 3.04928,-0.51456 1.96187,-0.46083 3.9441,-0.83108 5.94403,-1.11166 0,0 0.0978,0.60967 0.0978,0.60967 l 0,0 c -1.99035,0.27877 -3.96252,0.64916 -5.91508,1.10698 -0.71699,0.13123 -2.83318,0.72143 -3.53357,0.42767 -0.49231,-0.20649 -0.35903,-0.42861 -0.31794,-0.78204 0.66934,-0.96466 1.61409,-1.74599 2.32667,-2.68626 0.87722,-1.09925 1.89945,-2.10669 2.63122,-3.30128 0.73458,-1.27823 1.51083,-2.59185 1.28418,-4.09788 -0.0764,-0.21393 -0.59249,-1.54063 -0.87953,-1.58132 -0.55502,-0.0787 -1.27502,0.60572 -1.78703,0.71365 -1.09511,0.51066 -1.99751,1.24968 -2.83891,2.07492 -0.73959,0.88729 -1.37061,1.88865 -1.58929,3.0084 0,0 -0.63996,-0.14952 -0.63996,-0.14952 z"
     inkscape:connector-curvature="0" />
  <path
     style="color:#000000;fill:none;stroke:#000000;stroke-width:0.52581835;stroke-linecap:butt;stroke-linejoin:miter;stroke-miterlimit:4;stroke-opacity:1;stroke-dasharray:none;stroke-dashoffset:0;marker:none;visibility:visible;display:inline;overflow:visible;enable-background:accumulate"
     id="path4389"
     d="m 49.56864,89.055943 c 0.25177,3.042184 0.34785,6.15893 0.41737,9.269006 0.0342,2.171511 0.02,1.090328 0.0429,3.243541 0,0 -0.5336,0.0448 -0.5336,0.0448 l 0,0 c -0.0224,-2.122173 -0.008,-1.05749 -0.042,-3.194032 -0.0672,-3.018991 -0.15936,-6.044773 -0.40248,-8.998624 0,0 0.51789,-0.364682 0.51789,-0.364682 z"
     inkscape:connector-curvature="0" />
  <path
     style="color:#000000;fill:none;stroke:#000000;stroke-width:0.54496533;stroke-linecap:butt;stroke-linejoin:miter;stroke-miterlimit:4;stroke-opacity:1;stroke-dasharray:none;stroke-dashoffset:0;marker:none;visibility:visible;display:inline;overflow:visible;enable-background:accumulate"
     id="path4395"
     d="m 44.04624,111.26822 c 1.21388,-0.97325 2.45157,-1.92926 3.61901,-2.99889 1.08479,-0.93631 2.1178,-2.00548 3.0304,-3.21771 0.92332,-0.97791 1.89611,-1.88095 2.85168,-2.80937 1.06371,-0.72152 1.95405,-1.77786 2.99531,-2.54056 1.00085,-0.886971 2.0942,-1.559282 3.12881,-2.378963 0.84768,-0.708688 1.65375,-1.485987 2.47651,-2.241844 0,0 0.46749,0.867822 0.46749,0.867822 l 0,0 c -0.83812,0.768962 -1.65923,1.560516 -2.52277,2.281324 -1.0441,0.825119 -2.1456,1.50537 -3.1554,2.399111 -1.01478,0.72725 -1.8662,1.78223 -2.90535,2.4648 -0.92414,0.89423 -1.85894,1.77409 -2.75862,2.70393 -0.95312,1.2499 -2.01359,2.37283 -3.14236,3.34093 -1.17532,1.06921 -2.4139,2.03643 -3.63392,3.01217 0,0 -0.45079,-0.88275 -0.45079,-0.88275 z"
     inkscape:connector-curvature="0" />
  <path
     style="fill:none;stroke:#ff0000;stroke-width:1.00457644;stroke-linecap:butt;stroke-linejoin:miter;stroke-miterlimit:4;stroke-opacity:1;stroke-dasharray:8.03661147, 8.03661147;stroke-dashoffset:0"
     d="M 92.899787,102.17084 253.03249,98.76776"
     id="path4397"
     inkscape:connector-curvature="0" />
  <path
     style="fill:none;stroke:#ff0000;stroke-width:1.00457644;stroke-linecap:butt;stroke-linejoin:miter;stroke-miterlimit:4;stroke-opacity:1;stroke-dasharray:8.03661147, 8.03661147;stroke-dashoffset:0"
     d="M 92.024691,153.8428 252.15739,150.43972"
     id="path4397-9"
     inkscape:connector-curvature="0" />
  <path
     style="fill:none;stroke:#ff0000;stroke-width:1;stroke-linecap:butt;stroke-linejoin:miter;stroke-miterlimit:4;stroke-opacity:1;stroke-dasharray:8, 8;stroke-dashoffset:0"
     d="m 169.83136,47.057022 0,105.640038"
     id="path4417"
     inkscape:connector-curvature="0" />
</svg>
