<?xml version="1.0" encoding="UTF-8" standalone="no"?>
<!-- Created with Inkscape (http://www.inkscape.org/) -->

<svg
   xmlns:dc="http://purl.org/dc/elements/1.1/"
   xmlns:cc="http://creativecommons.org/ns#"
   xmlns:rdf="http://www.w3.org/1999/02/22-rdf-syntax-ns#"
   xmlns:svg="http://www.w3.org/2000/svg"
   xmlns="http://www.w3.org/2000/svg"
   xmlns:sodipodi="http://sodipodi.sourceforge.net/DTD/sodipodi-0.dtd"
   xmlns:inkscape="http://www.inkscape.org/namespaces/inkscape"
   id="svg3036"
   version="1.1"
   inkscape:version="0.48.3.1 r9886"
   width="500"
   height="500"
   sodipodi:docname="vertex_scheme_6.png">
  <metadata
     id="metadata3042">
    <rdf:RDF>
      <cc:Work
         rdf:about="">
        <dc:format>image/svg+xml</dc:format>
        <dc:type
           rdf:resource="http://purl.org/dc/dcmitype/StillImage" />
        <dc:title></dc:title>
      </cc:Work>
    </rdf:RDF>
  </metadata>
  <defs
     id="defs3040">
    <marker
       inkscape:stockid="Arrow1Mend"
       orient="auto"
       refY="0"
       refX="0"
       id="Arrow1Mend"
       style="overflow:visible">
      <path
         id="path5489"
         d="M 0,0 5,-5 -12.5,0 5,5 0,0 z"
         style="fill-rule:evenodd;stroke:#000000;stroke-width:1pt"
         transform="matrix(-0.4,0,0,-0.4,-4,0)"
         inkscape:connector-curvature="0" />
    </marker>
    <marker
       inkscape:stockid="Arrow1Mstart"
       orient="auto"
       refY="0"
       refX="0"
       id="Arrow1Mstart"
       style="overflow:visible">
      <path
         id="path5486"
         d="M 0,0 5,-5 -12.5,0 5,5 0,0 z"
         style="fill-rule:evenodd;stroke:#000000;stroke-width:1pt"
         transform="matrix(0.4,0,0,0.4,4,0)"
         inkscape:connector-curvature="0" />
    </marker>
    <marker
       inkscape:stockid="Arrow2Lstart"
       orient="auto"
       refY="0"
       refX="0"
       id="Arrow2Lstart"
       style="overflow:visible">
      <path
         id="path5498"
         style="fill-rule:evenodd;stroke-width:0.625;stroke-linejoin:round"
         d="M 8.7185878,4.0337352 -2.2072895,0.01601326 8.7185884,-4.0017078 c -1.7454984,2.3720609 -1.7354408,5.6174519 -6e-7,8.035443 z"
         transform="matrix(1.1,0,0,1.1,1.1,0)"
         inkscape:connector-curvature="0" />
    </marker>
    <marker
       inkscape:stockid="Arrow1Sstart"
       orient="auto"
       refY="0"
       refX="0"
       id="Arrow1Sstart"
       style="overflow:visible">
      <path
         id="path5492"
         d="M 0,0 5,-5 -12.5,0 5,5 0,0 z"
         style="fill-rule:evenodd;stroke:#000000;stroke-width:1pt"
         transform="matrix(0.2,0,0,0.2,1.2,0)"
         inkscape:connector-curvature="0" />
    </marker>
    <marker
       inkscape:stockid="Arrow1Lend"
       orient="auto"
       refY="0"
       refX="0"
       id="Arrow1Lend"
       style="overflow:visible">
      <path
         id="path5483"
         d="M 0,0 5,-5 -12.5,0 5,5 0,0 z"
         style="fill-rule:evenodd;stroke:#000000;stroke-width:1pt"
         transform="matrix(-0.8,0,0,-0.8,-10,0)"
         inkscape:connector-curvature="0" />
    </marker>
    <marker
       inkscape:stockid="Arrow1Lstart"
       orient="auto"
       refY="0"
       refX="0"
       id="Arrow1Lstart"
       style="overflow:visible">
      <path
         id="path5480"
         d="M 0,0 5,-5 -12.5,0 5,5 0,0 z"
         style="fill-rule:evenodd;stroke:#000000;stroke-width:1pt"
         transform="matrix(0.8,0,0,0.8,10,0)"
         inkscape:connector-curvature="0" />
    </marker>
    <marker
       inkscape:stockid="Arrow1Lend"
       orient="auto"
       refY="0"
       refX="0"
       id="Arrow1Lend-5"
       style="overflow:visible">
      <path
         inkscape:connector-curvature="0"
         id="path5483-8"
         d="M 0,0 5,-5 -12.5,0 5,5 0,0 z"
         style="fill-rule:evenodd;stroke:#000000;stroke-width:1pt"
         transform="matrix(-0.8,0,0,-0.8,-10,0)" />
    </marker>
    <marker
       inkscape:stockid="Arrow1Lend"
       orient="auto"
       refY="0"
       refX="0"
       id="Arrow1Lend-4"
       style="overflow:visible">
      <path
         inkscape:connector-curvature="0"
         id="path5483-4"
         d="M 0,0 5,-5 -12.5,0 5,5 0,0 z"
         style="fill-rule:evenodd;stroke:#000000;stroke-width:1pt"
         transform="matrix(-0.8,0,0,-0.8,-10,0)" />
    </marker>
    <marker
       inkscape:stockid="Arrow1Lend"
       orient="auto"
       refY="0"
       refX="0"
       id="Arrow1Lend-1"
       style="overflow:visible">
      <path
         inkscape:connector-curvature="0"
         id="path5483-83"
         d="M 0,0 5,-5 -12.5,0 5,5 0,0 z"
         style="fill-rule:evenodd;stroke:#000000;stroke-width:1pt"
         transform="matrix(-0.8,0,0,-0.8,-10,0)" />
    </marker>
    <marker
       inkscape:stockid="Arrow1Lend"
       orient="auto"
       refY="0"
       refX="0"
       id="Arrow1Lend-7"
       style="overflow:visible">
      <path
         inkscape:connector-curvature="0"
         id="path5483-0"
         d="M 0,0 5,-5 -12.5,0 5,5 0,0 z"
         style="fill-rule:evenodd;stroke:#000000;stroke-width:1pt"
         transform="matrix(-0.8,0,0,-0.8,-10,0)" />
    </marker>
    <marker
       inkscape:stockid="Arrow1Lend"
       orient="auto"
       refY="0"
       refX="0"
       id="Arrow1Lend-6"
       style="overflow:visible">
      <path
         inkscape:connector-curvature="0"
         id="path5483-1"
         d="M 0,0 5,-5 -12.5,0 5,5 0,0 z"
         style="fill-rule:evenodd;stroke:#000000;stroke-width:1pt"
         transform="matrix(-0.8,0,0,-0.8,-10,0)" />
    </marker>
    <marker
       inkscape:stockid="Arrow1Lend"
       orient="auto"
       refY="0"
       refX="0"
       id="Arrow1Lend-64"
       style="overflow:visible">
      <path
         inkscape:connector-curvature="0"
         id="path5483-2"
         d="M 0,0 5,-5 -12.5,0 5,5 0,0 z"
         style="fill-rule:evenodd;stroke:#000000;stroke-width:1pt"
         transform="matrix(-0.8,0,0,-0.8,-10,0)" />
    </marker>
    <marker
       inkscape:stockid="Arrow1Lstart"
       orient="auto"
       refY="0"
       refX="0"
       id="Arrow1Lstart-8"
       style="overflow:visible">
      <path
         inkscape:connector-curvature="0"
         id="path5480-4"
         d="M 0,0 5,-5 -12.5,0 5,5 0,0 z"
         style="fill-rule:evenodd;stroke:#000000;stroke-width:1pt"
         transform="matrix(0.8,0,0,0.8,10,0)" />
    </marker>
    <marker
       inkscape:stockid="Arrow1Lend"
       orient="auto"
       refY="0"
       refX="0"
       id="Arrow1Lend-1-4"
       style="overflow:visible">
      <path
         inkscape:connector-curvature="0"
         id="path5483-83-7"
         d="M 0,0 5,-5 -12.5,0 5,5 0,0 z"
         style="fill-rule:evenodd;stroke:#000000;stroke-width:1pt"
         transform="matrix(-0.8,0,0,-0.8,-10,0)" />
    </marker>
    <marker
       inkscape:stockid="Arrow1Lend"
       orient="auto"
       refY="0"
       refX="0"
       id="Arrow1Lend-1-9"
       style="overflow:visible">
      <path
         inkscape:connector-curvature="0"
         id="path5483-83-5"
         d="M 0,0 5,-5 -12.5,0 5,5 0,0 z"
         style="fill-rule:evenodd;stroke:#000000;stroke-width:1pt"
         transform="matrix(-0.8,0,0,-0.8,-10,0)" />
    </marker>
    <marker
       inkscape:stockid="Arrow1Lend"
       orient="auto"
       refY="0"
       refX="0"
       id="Arrow1Lend-1-6"
       style="overflow:visible">
      <path
         inkscape:connector-curvature="0"
         id="path5483-83-6"
         d="M 0,0 5,-5 -12.5,0 5,5 0,0 z"
         style="fill-rule:evenodd;stroke:#000000;stroke-width:1pt"
         transform="matrix(-0.8,0,0,-0.8,-10,0)" />
    </marker>
    <marker
       inkscape:stockid="Arrow1Lstart"
       orient="auto"
       refY="0"
       refX="0"
       id="Arrow1Lstart-2"
       style="overflow:visible">
      <path
         inkscape:connector-curvature="0"
         id="path5480-6"
         d="M 0,0 5,-5 -12.5,0 5,5 0,0 z"
         style="fill-rule:evenodd;stroke:#000000;stroke-width:1pt"
         transform="matrix(0.8,0,0,0.8,10,0)" />
    </marker>
    <marker
       inkscape:stockid="Arrow1Lstart"
       orient="auto"
       refY="0"
       refX="0"
       id="Arrow1Lstart-9"
       style="overflow:visible">
      <path
         inkscape:connector-curvature="0"
         id="path5480-2"
         d="M 0,0 5,-5 -12.5,0 5,5 0,0 z"
         style="fill-rule:evenodd;stroke:#000000;stroke-width:1pt"
         transform="matrix(0.8,0,0,0.8,10,0)" />
    </marker>
  </defs>
  <sodipodi:namedview
     pagecolor="#ffffff"
     bordercolor="#666666"
     borderopacity="1"
     objecttolerance="10"
     gridtolerance="10"
     guidetolerance="10"
     inkscape:pageopacity="0"
     inkscape:pageshadow="2"
     inkscape:window-width="1020"
     inkscape:window-height="806"
     id="namedview3038"
     showgrid="false"
     inkscape:zoom="0.90509668"
     inkscape:cx="361.65553"
     inkscape:cy="333.51646"
     inkscape:window-x="69"
     inkscape:window-y="31"
     inkscape:window-maximized="0"
     inkscape:current-layer="svg3036"
     showguides="true"
     inkscape:guide-bbox="true">
    <inkscape:grid
       type="xygrid"
       id="grid5981"
       empspacing="5"
       visible="true"
       enabled="true"
       snapvisiblegridlinesonly="true" />
  </sodipodi:namedview>
  <path
     style="fill:none;stroke:#000000;stroke-width:1.09762061px;stroke-linecap:butt;stroke-linejoin:miter;stroke-opacity:0.38916255"
     d="M 344.90625,61.125041 189.7699,433.60322"
     id="path3772"
     inkscape:connector-curvature="0" />
  <rect
     style="color:#000000;fill:#ffffff;fill-opacity:1;stroke:none;stroke-width:0.30000001;marker:none;visibility:visible;display:inline;overflow:visible;enable-background:accumulate"
     id="rect6561-8-0-1"
     width="74.870041"
     height="40.878235"
     x="276.95139"
     y="110.33765"
     transform="matrix(0.96543996,0.26062558,-0.26062558,0.96543996,0,0)" />
  <path
     style="fill:none;stroke:#ff0000;stroke-width:0.74129033;stroke-linecap:butt;stroke-linejoin:miter;stroke-miterlimit:4;stroke-opacity:1;stroke-dasharray:8.89548342, 8.89548342;stroke-dashoffset:0"
     d="M 147.16971,300.2097 392.70469,192.42651"
     id="path3772-8-2"
     inkscape:connector-curvature="0" />
  <path
     style="color:#000000;fill-opacity:1;fill-rule:nonzero;stroke-width:1;stroke-linecap:butt;stroke-linejoin:miter;stroke-miterlimit:4;stroke-opacity:1;stroke-dasharray:none;stroke-dashoffset:0;marker:none;visibility:visible;display:inline;overflow:visible;enable-background:accumulate"
     id="path3253-5-8-8-6"
     d="m 268.62591,238.25498 c -2.52287,-0.53398 -4.83373,-0.21097 -7.14972,0.86342 -2.00663,1.20676 -2.50905,3.09225 -2.83045,5.2484 0.0324,1.96947 0.46629,3.89383 1.66776,5.47789 1.52083,1.44729 2.92767,2.98969 4.97231,3.65469 2.15754,0.60264 4.10636,-0.48277 6.03093,-1.32611 2.12017,-1.14074 3.65451,-3.01077 4.89985,-5.02627 1.06809,-2.40056 0.63955,-3.17355 -0.80293,-5.07637 -1.52309,-1.79776 -3.72328,-2.64345 -5.8717,-3.44149 -3.04287,-0.8434 -5.6716,0.46902 -8.27199,1.90757 -0.4459,0.35725 -0.8918,0.71448 -1.3377,1.07171 0,0 -0.91221,-1.15233 -0.91221,-1.15233 l 0,0 c 0.51319,-0.402 1.02638,-0.80401 1.53959,-1.20601 2.98849,-1.64666 6.02699,-3.01518 9.49496,-1.99832 2.41282,0.8997 4.8445,1.88981 6.53029,3.93108 1.82609,2.40946 2.22112,3.8644 0.88,6.73988 -1.41363,2.26322 -3.15229,4.3425 -5.55848,5.59676 -2.27639,0.99667 -4.5627,2.13568 -7.1009,1.36891 -2.3054,-0.83276 -3.99132,-2.44179 -5.67745,-4.17492 -1.38353,-1.93776 -1.98315,-4.18149 -1.93571,-6.56513 0.40228,-2.65573 1.19895,-4.94724 3.67502,-6.36761 2.64041,-1.18244 5.29451,-1.58017 8.15439,-0.94113 0,0 -0.39587,1.41538 -0.39587,1.41538 z"
     inkscape:connector-curvature="0" />
  <path
     sodipodi:type="arc"
     style="color:#000000;fill:#000000;fill-opacity:1;fill-rule:nonzero;stroke-width:1;stroke-linecap:butt;stroke-linejoin:miter;stroke-miterlimit:4;stroke-opacity:1;stroke-dasharray:12, 12;stroke-dashoffset:0;marker:none;visibility:visible;display:inline;overflow:visible;enable-background:accumulate"
     id="path4447-6-6-9"
     sodipodi:cx="97.120689"
     sodipodi:cy="64.136719"
     sodipodi:rx="8.5193586"
     sodipodi:ry="7.6674228"
     d="m 105.64005,64.136719 a 8.5193586,7.6674228 0 1 1 -17.038719,0 8.5193586,7.6674228 0 1 1 17.038719,0 z"
     transform="matrix(1.1747655,0.3285593,-0.3285593,1.1747655,173.82085,137.23531)" />
  <path
     style="fill:none;stroke:#000000;stroke-width:1.11198366px;stroke-linecap:butt;stroke-linejoin:miter;stroke-opacity:0.39408869"
     d="M 87.714981,172.09245 448.61585,318.55988"
     id="path3774"
     inkscape:connector-curvature="0" />
  <rect
     style="color:#000000;fill:#ffffff;fill-opacity:1;stroke:none;stroke-width:0.30000001;marker:none;visibility:visible;display:inline;overflow:visible;enable-background:accumulate"
     id="rect6561"
     width="74.870041"
     height="49.397594"
     x="99.394859"
     y="82.291458"
     transform="matrix(0.96543996,0.26062558,-0.26062558,0.96543996,0,0)" />
  <path
     style="fill:none;stroke:#000000;stroke-width:0.57680535px;stroke-linecap:butt;stroke-linejoin:miter;stroke-opacity:1"
     d="m 284.96326,214.24468 c -0.82256,-0.53436 -2.91092,-0.58631 -2.4677,-1.60312 0.44323,-1.01677 1.64514,1.06876 2.4677,1.60312 z"
     id="path4671-2-5-2-25"
     inkscape:connector-curvature="0" />
  <path
     style="color:#000000;fill-opacity:1;fill-rule:nonzero;stroke:none;stroke-width:0.69999999;marker:none;visibility:visible;display:inline;overflow:visible;enable-background:accumulate"
     id="path5404-3-0"
     d="m 281.97838,220.3895 c -1.03554,1.48674 -2.10804,3.35802 -1.00576,5.07414 1.34139,1.14356 3.19966,1.1854 4.86704,1.308 0.33151,-0.0268 0.663,-0.0537 0.99449,-0.0806 0,0 0.0779,1.09224 0.0779,1.09224 l 0,0 c -0.3837,0.0269 -0.76742,0.0538 -1.15115,0.0807 -2.03115,-0.15132 -4.21976,-0.25846 -5.71565,-1.8473 -1.18439,-2.23125 -0.3227,-4.37612 1.0907,-6.30547 0,0 0.84247,0.67831 0.84247,0.67831 z"
     inkscape:connector-curvature="0" />
  <path
     style="color:#000000;fill-opacity:1;fill-rule:nonzero;stroke:none;stroke-width:0.69999999;marker:none;visibility:visible;display:inline;overflow:visible;enable-background:accumulate"
     id="path5202-2-4"
     d="m 297.11943,219.65762 c -0.0621,2.49719 -0.12427,4.9944 -0.18641,7.49161 -0.13376,2.25837 -1.28604,3.73892 -3.52572,3.84123 -1.37404,-0.2533 -2.44416,-1.09293 -3.42764,-2.05087 0,0 0.74719,-0.78736 0.74719,-0.78736 l 0,0 c 0.76458,0.767 1.60856,1.43489 2.65407,1.74338 1.66815,0.004 2.37826,-1.12213 2.47859,-2.77309 0.0621,-2.4972 0.12427,-4.99441 0.18641,-7.49162 0,0 1.0735,0.027 1.0735,0.027 z"
     inkscape:connector-curvature="0" />
  <path
     style="fill:none;stroke:#000000;stroke-width:0.57680535px;stroke-linecap:butt;stroke-linejoin:miter;stroke-opacity:1"
     d="m 297.68293,214.82385 c -0.82257,-0.53435 -2.91092,-0.5863 -2.46771,-1.60309 0.44325,-1.01679 1.64514,1.06874 2.46771,1.60309 z"
     id="path4671-2-1-6"
     inkscape:connector-curvature="0" />
  <path
     style="color:#000000;fill-opacity:1;fill-rule:nonzero;stroke:none;stroke-width:0.69999999;marker:none;visibility:visible;display:inline;overflow:visible;enable-background:accumulate"
     id="path5812-1"
     d="m 283.32452,198.31675 c -0.0465,1.87151 -0.0931,3.74302 -0.13968,5.61453 -0.35418,-0.15642 -0.83084,-0.1545 -1.06251,-0.46926 -0.15232,-0.20697 0.10075,-0.50769 0.15778,-0.76001 0.32852,-1.45239 0.90465,-2.62179 1.74911,-3.83298 1.51507,-1.56707 3.24009,-2.83842 4.91359,-0.79568 0.83058,1.88356 0.72435,4.01093 0.71132,6.03341 0,0 -1.07383,-0.006 -1.07383,-0.006 l 0,0 c 0.012,-1.7913 0.10087,-3.66163 -0.4987,-5.37205 -0.83192,-1.45499 -2.37264,-0.053 -3.18094,0.77964 -0.5988,0.83725 -1.07267,1.63695 -1.3782,2.63435 -0.018,0.0586 -0.32542,1.3453 -0.32662,1.34626 -0.30522,0.24144 -0.72301,0.27723 -1.08452,0.41585 0.0465,-1.87151 0.0931,-3.74303 0.13969,-5.61453 0,0 1.07351,0.027 1.07351,0.027 z"
     inkscape:connector-curvature="0" />
  <path
     style="color:#000000;fill-opacity:1;fill-rule:nonzero;stroke:none;stroke-width:0.69999999;marker:none;visibility:visible;display:inline;overflow:visible;enable-background:accumulate"
     id="path5688-0"
     d="m 266.51024,203.31395 c -0.93619,2.66261 -1.60118,5.39242 -2.03546,8.17808 -0.004,1.72576 -1.19814,4.69144 0.40015,6.00076 1.20072,0.006 2.18082,-0.82532 2.88049,-1.72816 1.04123,-1.53407 1.55083,-3.2826 2.24383,-4.97341 0.66093,-1.71615 1.22398,-3.49457 2.58161,-4.79339 2.31534,-1.72135 0.99943,2.13566 0.80129,2.85355 -0.49534,2.17592 -0.84336,4.41615 -0.68937,6.64841 0.40196,2.12518 2.04734,2.76563 3.95424,3.18632 0.36052,-0.0469 0.72101,-0.0937 1.08152,-0.14059 0,0 0.12122,1.1987 0.12122,1.1987 l 0,0 c -0.48926,0.039 -0.97848,0.0781 -1.46774,0.1172 -2.44108,-0.56073 -4.43762,-1.58862 -4.89162,-4.28485 -0.14065,-2.36864 0.18498,-4.73928 0.73047,-7.04613 0.0376,-0.13622 0.5506,-1.92384 0.6173,-1.93274 0.16724,-0.0223 0.29182,0.20267 0.46037,0.21032 0.13545,0.006 0.2617,-0.25655 0.36827,-0.17272 0.0965,0.0759 -0.18042,0.16636 -0.27063,0.24953 -1.27645,1.10347 -1.62971,2.88065 -2.2835,4.36658 -0.74685,1.79041 -1.28643,3.6535 -2.41878,5.2687 -1.16088,1.40237 -2.81985,2.66647 -4.68401,1.81136 -1.71206,-1.97868 -0.97435,-4.62582 -0.72553,-7.02543 0.43964,-2.80757 1.09552,-5.56553 2.04829,-8.24703 0,0 1.17755,0.25496 1.17755,0.25496 z"
     inkscape:connector-curvature="0" />
  <rect
     style="color:#000000;fill:#ff0000;fill-opacity:0.08866996;fill-rule:nonzero;stroke:#000000;stroke-width:0.69800001;stroke-linecap:butt;stroke-linejoin:miter;stroke-miterlimit:4;stroke-opacity:1;stroke-dasharray:none;stroke-dashoffset:0;marker:none;visibility:visible;display:inline;overflow:visible;enable-background:accumulate"
     id="rect7270"
     width="186.74699"
     height="196.38554"
     x="250.21922"
     y="27.039537"
     transform="matrix(0.92396714,0.38247186,-0.38247186,0.92396714,0,0)" />
  <path
     style="color:#000000;fill:#000000;fill-opacity:1;fill-rule:nonzero;stroke:none;stroke-width:0.69800001;marker:none;visibility:visible;display:inline;overflow:visible;enable-background:accumulate"
     id="path5399"
     d="m 344.70622,348.43319 c -0.91599,3.37055 -2.21637,6.61013 -3.51129,9.84895 -1.36881,3.40551 -2.53347,6.88267 -3.74618,10.34484 0.3337,0.11897 -2.53129,7.47248 -2.37963,2.0686 0.40271,-3.00101 1.27084,-5.89889 2.07988,-8.80753 1.05807,-3.50496 2.68297,-6.79403 3.99102,-10.20371 0.72322,-1.54492 1.64486,-5.23813 3.70798,-2.58947 0.94888,2.49647 1.00603,5.26422 1.36582,7.89935 0.4948,3.78552 1.15032,7.55065 1.88284,11.29755 0.46449,3.2836 1.08835,6.53714 1.75759,9.78483 0.0569,0.20854 0.11476,0.41682 0.17185,0.62531 0.0188,0.0103 0.0376,0.0203 0.0564,0.0304 0,0 -1.00476,0.66489 -1.00476,0.66489 l 0,0 c -0.3329,-0.58834 -0.17607,-0.23834 -0.40353,-1.07748 -0.66963,-3.25165 -1.2957,-6.50911 -1.75998,-9.79677 -0.73691,-3.76949 -1.39569,-7.55746 -1.89414,-11.36573 -0.33609,-2.46155 -0.43706,-5.01146 -1.16945,-7.38643 -0.35122,-0.74687 -0.14602,-0.0317 0.0177,-0.55232 0.42902,-1.36325 -2.44985,3.7048 -1.60371,2.89775 -1.29629,3.37339 -2.89927,6.62959 -3.95505,10.09475 -0.79356,2.85229 -1.64893,5.69294 -2.0453,8.63561 -0.2624,0.61567 7.2e-4,0.27229 -0.99561,0.38426 -0.19371,0.0217 0.19741,-0.33882 0.26221,-0.52265 0.14154,-0.40156 0.70185,-2.2254 0.78065,-2.47951 1.21859,-3.47855 2.38913,-6.97218 3.76453,-10.39383 1.27026,-3.17647 2.54745,-6.35299 3.45247,-9.6566 0,0 1.17754,0.25497 1.17754,0.25497 z"
     inkscape:connector-curvature="0" />
  <path
     style="color:#000000;fill:#000000;fill-opacity:1;fill-rule:nonzero;stroke:none;stroke-width:0.69800001;marker:none;visibility:visible;display:inline;overflow:visible;enable-background:accumulate"
     id="path5401"
     d="m 336.50463,360.1167 c 3.46128,0.0548 6.92257,0.1096 10.38386,0.16439 1.65545,0.11492 3.29374,0.3832 4.93301,0.6291 0,0 -0.17875,1.19148 -0.17875,1.19148 l 0,0 c -1.58647,-0.23805 -3.17189,-0.49769 -4.77333,-0.61592 -3.46129,-0.0548 -6.92258,-0.10958 -10.38386,-0.16437 0,0 0.0191,-1.20468 0.0191,-1.20468 z"
     inkscape:connector-curvature="0" />
  <path
     style="color:#000000;fill:#000000;fill-opacity:1;fill-rule:nonzero;stroke:none;stroke-width:0.69800001;marker:none;visibility:visible;display:inline;overflow:visible;enable-background:accumulate"
     id="path5407"
     d="m 382.88621,157.7364 c 0.0709,3.47153 -0.50993,6.90325 -0.89227,10.34334 -0.27981,2.49425 -0.42804,4.99954 -0.55582,7.50518 0,0 -1.20325,-0.0614 -1.20325,-0.0614 l 0,0 c 0.12906,-2.52962 0.27915,-5.05883 0.56162,-7.57692 0.37824,-3.40232 0.95557,-6.79595 0.88505,-10.2293 0,0 1.20466,0.0191 1.20466,0.0191 z"
     inkscape:connector-curvature="0" />
  <path
     style="color:#000000;fill:#000000;fill-opacity:1;fill-rule:nonzero;stroke:none;stroke-width:0.69800001;marker:none;visibility:visible;display:inline;overflow:visible;enable-background:accumulate"
     id="path5409"
     d="m 378.04856,157.26037 c 4.86376,-0.42477 9.91393,-1.93984 14.7313,-0.56961 3.1164,1.70448 -0.19837,3.9985 -1.89752,5.16929 -2.44733,1.56944 -5.11247,2.71091 -7.73775,3.93527 -0.56704,-0.10479 -0.67379,0.46958 -1.03561,0.66162 -0.0906,0.0481 0.16913,-0.1282 0.21489,-0.21994 0.059,-0.11817 -0.036,-0.34032 0.0877,-0.38637 0.21922,-0.0816 0.46265,0.0705 0.69528,0.095 0.32612,0.0343 0.65361,0.0541 0.9804,0.0811 2.69177,0.0823 5.34118,0.64482 7.77084,1.80637 3.11397,2.1027 1.12991,3.75599 -1.18029,5.28505 -3.27897,1.83352 -6.94502,2.51246 -10.5499,3.36417 -0.55202,0.12762 -1.104,0.25533 -1.65601,0.38294 0,0 -0.27145,-1.17384 -0.27145,-1.17384 l 0,0 c 0.5502,-0.12726 1.10039,-0.25451 1.6506,-0.38177 3.46845,-0.81846 6.99652,-1.46047 10.16402,-3.19775 0.32003,-0.20968 2.5598,-1.37712 2.39212,-2.0972 -0.0985,-0.42205 -0.82662,-0.89765 -1.07394,-1.09719 -2.28484,-1.12131 -4.81101,-1.60175 -7.3471,-1.6903 -2.09336,-0.17909 -4.57617,-0.89271 -1.3507,-2.524 2.56512,-1.19573 5.16922,-2.30884 7.56386,-3.83582 0.29729,-0.20431 3.18988,-2.14597 2.82636,-2.61425 -0.1457,-0.1877 -0.39033,-0.27106 -0.58549,-0.40659 -4.60989,-1.40683 -9.56332,0.29571 -14.22729,0.60722 0,0 -0.16434,-1.19355 -0.16434,-1.19355 z"
     inkscape:connector-curvature="0" />
  <path
     style="color:#000000;fill:#000000;fill-opacity:1;fill-rule:nonzero;stroke:none;stroke-width:0.69800001;marker:none;visibility:visible;display:inline;overflow:visible;enable-background:accumulate"
     id="path5411"
     d="m 200.03292,129.12293 c -1.04751,-2.57548 -2.78854,-4.65832 -5.12792,-6.13029 -2.35819,-1.31302 -4.42221,-1.08836 -6.60324,0.37927 -2.34467,2.06512 -3.33146,4.91841 -2.68477,7.9472 1.12602,3.00801 4.0274,4.32493 6.90441,5.2057 2.42136,0.49121 4.82473,0.17689 7.23517,-0.16247 0,0 0.16746,1.19313 0.16746,1.19313 l 0,0 c -2.58682,0.36199 -5.16572,0.67857 -7.75864,0.12036 -3.31507,-1.03499 -6.51625,-2.62185 -7.72976,-6.12008 -0.69792,-3.68398 0.37431,-6.70025 3.20611,-9.19178 2.61337,-1.6729 5.12991,-1.96149 7.90992,-0.3879 2.54507,1.63454 4.46906,3.88831 5.60684,6.71716 0,0 -1.12558,0.4297 -1.12558,0.4297 z"
     inkscape:connector-curvature="0" />
  <path
     style="color:#000000;fill:#000000;fill-opacity:1;fill-rule:nonzero;stroke:none;stroke-width:0.69800001;marker:none;visibility:visible;display:inline;overflow:visible;enable-background:accumulate"
     id="path5413"
     d="m 133.84156,265.67164 c 0.57168,3.62253 0.67639,7.29317 0.76311,10.95251 0.0633,2.45605 -0.0485,4.90799 0.15861,7.35689 0,0 -1.20068,0.0998 -1.20068,0.0998 l 0,0 c -0.20224,-2.47338 -0.10734,-4.94786 -0.16242,-7.4282 -0.085,-3.59599 -0.18588,-7.20306 -0.74364,-10.76346 0,0 1.18502,-0.21754 1.18502,-0.21754 z"
     inkscape:connector-curvature="0" />
  <path
     style="color:#000000;fill:#000000;fill-opacity:1;fill-rule:nonzero;stroke:none;stroke-width:0.69800001;marker:none;visibility:visible;display:inline;overflow:visible;enable-background:accumulate"
     id="path5415"
     d="m 120.51714,261.71332 c 4.04767,-0.81798 8.04096,-0.60236 12.0076,0.44824 4.63107,1.50517 8.15862,4.45329 10.34808,8.76101 1.47117,4.30832 -0.65758,7.77431 -3.4799,10.87424 -2.73282,2.66552 -5.84141,4.73276 -9.46289,5.93105 0,0 -0.37627,-1.14456 -0.37627,-1.14456 l 0,0 c 3.42896,-1.11929 6.35605,-3.09316 8.94962,-5.59909 2.47749,-2.70245 4.52085,-5.71116 3.29305,-9.52036 -1.99468,-4.01433 -5.30497,-6.72653 -9.58313,-8.13841 -3.78885,-1.02497 -7.60912,-1.2031 -11.4786,-0.4271 0,0 -0.21755,-1.18502 -0.21755,-1.18502 z"
     inkscape:connector-curvature="0" />
  <path
     style="fill:none;stroke:#000000;stroke-width:1px;stroke-linecap:butt;stroke-linejoin:miter;stroke-opacity:1;marker-start:url(#Arrow1Lstart);marker-mid:none;marker-end:url(#Arrow1Lend)"
     d="m 36.238244,389.11882 -1.189209,75.12069 61.881585,-0.12538"
     id="path5474"
     inkscape:connector-curvature="0" />
  <path
     style="fill:#000000;fill-opacity:1;stroke:none"
     d="m 87.80712,477.47872 c -0.86967,-0.6138 -3.08061,-0.6688 -2.60898,-1.84145 0.47164,-1.17265 1.73931,1.22765 2.60898,1.84145 z"
     id="path4671-2-5-2-9-4-0-2-3-2"
     inkscape:connector-curvature="0" />
  <path
     style="color:#000000;fill:#000000;fill-opacity:1;fill-rule:nonzero;stroke:none;stroke-width:0.69999999;marker:none;visibility:visible;display:inline;overflow:visible;enable-background:accumulate"
     id="path5404-3-8-7-8-6-8-5"
     d="m 84.63253,484.56611 c -1.099829,1.71553 -2.239729,3.87424 -1.076659,5.84909 1.417569,1.31457 3.384899,1.35842 5.149979,1.49582 0.35103,-0.0317 0.70209,-0.0634 1.05312,-0.0951 0,0 0.0799,1.25837 0.0799,1.25837 l 0,0 c -0.40634,0.0318 -0.81266,0.0637 -1.219,0.0956 -2.15015,-0.16965 -4.46711,-0.28799 -6.047199,-2.11527 -1.2488,-2.56822 -0.33147,-5.04168 1.16946,-7.26808 0,0 0.890389,0.7796 0.890389,0.7796 z"
     inkscape:connector-curvature="0" />
  <path
     style="color:#000000;fill:#000000;fill-opacity:1;fill-rule:nonzero;stroke:none;stroke-width:0.69999999;marker:none;visibility:visible;display:inline;overflow:visible;enable-background:accumulate"
     id="path5202-2-9-9-5-3-9-3"
     d="m 21.253239,416.30153 c -0.07156,2.87757 -0.143214,5.75514 -0.21477,8.63271 -0.146864,2.60258 -1.370323,4.31124 -3.741847,4.43433 -1.454183,-0.28866 -2.585231,-1.25366 -3.624265,-2.35516 0,0 0.792926,-0.909 0.792926,-0.909 l 0,0 c 0.807721,0.88201 1.699741,1.64964 2.805963,2.00267 1.766158,8.6e-4 2.520638,-1.29854 2.630699,-3.20111 0.07156,-2.87757 0.143214,-5.75515 0.21477,-8.63272 0,0 1.136515,0.0283 1.136515,0.0283 z"
     inkscape:connector-curvature="0" />
  <path
     style="fill:#000000;fill-opacity:1;stroke:none"
     d="m 21.861109,410.73045 c -0.869653,-0.61381 -3.080599,-0.66881 -2.608969,-1.84147 0.47165,-1.17264 1.739316,1.22766 2.608969,1.84147 z"
     id="path4671-2-1-0-8-6-2-0-4"
     inkscape:connector-curvature="0" />
  <path
     style="fill:none;stroke:#000000;stroke-width:1px;stroke-linecap:butt;stroke-linejoin:miter;stroke-opacity:1;marker-end:url(#Arrow1Lend)"
     d="M 221.71206,121.38306 200.21637,68.552101"
     id="path6885-1"
     inkscape:connector-curvature="0" />
  <path
     style="fill:none;stroke:#000000;stroke-width:0.65903032px;stroke-linecap:butt;stroke-linejoin:miter;stroke-opacity:1;marker-start:url(#Arrow1Lstart)"
     d="m 198.0465,66.897091 23.99307,0"
     id="path7226-2-5"
     inkscape:connector-curvature="0" />
  <path
     style="fill:none;stroke:#000000;stroke-width:0.75756067px;stroke-linecap:butt;stroke-linejoin:miter;stroke-opacity:1;marker-end:url(#Arrow1Lend-1)"
     d="M 220.68576,119.16796 220.12002,65.920641"
     id="path7275-6"
     inkscape:connector-curvature="0" />
  <path
     style="fill:none;stroke:#000000;stroke-width:1.09762061px;stroke-linecap:butt;stroke-linejoin:miter;stroke-opacity:0.38916255"
     d="M 259.86914,28.708489 104.73279,401.18666"
     id="path3772-1"
     inkscape:connector-curvature="0" />
  <path
     style="fill:none;stroke:#ff0000;stroke-width:0.75485778;stroke-linecap:butt;stroke-linejoin:miter;stroke-miterlimit:4;stroke-opacity:1;stroke-dasharray:9.0582932, 9.0582932;stroke-dashoffset:0"
     d="m 220.21075,122.80569 98.74743,250.57503"
     id="path3772-8-2-4-8"
     inkscape:connector-curvature="0" />
  <path
     style="fill:none;stroke:#000000;stroke-width:1.11198366px;stroke-linecap:butt;stroke-linejoin:miter;stroke-opacity:0.39408869"
     d="M 127.80393,84.261441 488.7048,230.72887"
     id="path3774-9"
     inkscape:connector-curvature="0" />
  <path
     style="fill:none;stroke:#000000;stroke-width:1.11198366px;stroke-linecap:butt;stroke-linejoin:miter;stroke-opacity:0.39408869"
     d="M 57.093248,267.66726 417.99412,414.13469"
     id="path3774-8"
     inkscape:connector-curvature="0" />
  <path
     style="fill:none;stroke:#000000;stroke-width:1.09762061px;stroke-linecap:butt;stroke-linejoin:miter;stroke-opacity:0.38916255"
     d="M 434.43613,94.999751 279.29978,467.47792"
     id="path3772-1-6"
     inkscape:connector-curvature="0" />
  <path
     style="fill:none;stroke:#000000;stroke-width:1px;stroke-linecap:butt;stroke-linejoin:miter;stroke-opacity:1;marker-end:url(#Arrow1Lend)"
     d="m 319.6036,374.14763 21.49569,52.83096"
     id="path6885-1-1"
     inkscape:connector-curvature="0" />
  <path
     style="fill:none;stroke:#000000;stroke-width:1px;stroke-linecap:butt;stroke-linejoin:miter;stroke-opacity:1;marker-end:url(#Arrow1Lend)"
     d="m 394.53402,192.5498 52.83096,-21.49569"
     id="path6885-1-1-9"
     inkscape:connector-curvature="0" />
  <path
     style="fill:none;stroke:#000000;stroke-width:1px;stroke-linecap:butt;stroke-linejoin:miter;stroke-opacity:1;marker-end:url(#Arrow1Lend)"
     d="M 145.73975,302.53177 92.908791,324.02746"
     id="path6885-1-1-9-1"
     inkscape:connector-curvature="0" />
  <path
     style="fill:none;stroke:#000000;stroke-width:0.65903032px;stroke-linecap:butt;stroke-linejoin:miter;stroke-opacity:1;marker-start:url(#Arrow1Lstart)"
     d="m 341.24313,427.07961 -23.99307,0"
     id="path7226-2-5-7"
     inkscape:connector-curvature="0" />
  <path
     style="fill:none;stroke:#000000;stroke-width:0.75756067px;stroke-linecap:butt;stroke-linejoin:miter;stroke-opacity:1;marker-end:url(#Arrow1Lend-1)"
     d="m 319.75596,373.93945 -0.56574,53.24732"
     id="path7275-6-9"
     inkscape:connector-curvature="0" />
  <path
     style="fill:none;stroke:#000000;stroke-width:0.75756067px;stroke-linecap:butt;stroke-linejoin:miter;stroke-opacity:1;marker-end:url(#Arrow1Lend-1)"
     d="m 393.221,193.50228 53.24732,0.56574"
     id="path7275-6-9-9"
     inkscape:connector-curvature="0" />
  <path
     style="fill:none;stroke:#000000;stroke-width:0.75756067px;stroke-linecap:butt;stroke-linejoin:miter;stroke-opacity:1;marker-end:url(#Arrow1Lend-1)"
     d="M 143.94793,302.88286 90.700611,303.4486"
     id="path7275-6-9-9-4"
     inkscape:connector-curvature="0" />
  <path
     style="fill:none;stroke:#000000;stroke-width:0.65903032px;stroke-linecap:butt;stroke-linejoin:miter;stroke-opacity:1;marker-start:url(#Arrow1Lstart)"
     d="m 449.67571,170.91027 0,23.99307"
     id="path7226-2-5-7-8"
     inkscape:connector-curvature="0" />
  <path
     style="fill:none;stroke:#000000;stroke-width:0.65903032px;stroke-linecap:butt;stroke-linejoin:miter;stroke-opacity:1;marker-start:url(#Arrow1Lstart)"
     d="m 91.017471,325.27615 0,-23.99307"
     id="path7226-2-5-7-8-3"
     inkscape:connector-curvature="0" />
  <path
     style="color:#000000;fill:#000000;fill-opacity:1;fill-rule:nonzero;stroke:none;stroke-width:1.10300004;marker:none;visibility:visible;display:inline;overflow:visible;enable-background:accumulate"
     id="path4626"
     d="m 209.3699,33.090668 c -0.17292,-2.604944 -0.97088,-4.964295 -2.42419,-7.120867 -0.65031,-0.812259 -1.86768,-3.351664 -3.0698,-2.048809 -0.99428,2.616475 -0.99235,5.487496 -1.09373,8.249442 -0.0908,3.976213 -0.0673,7.953985 -0.0597,11.930927 0.0454,2.307243 0.49691,4.55395 0.98107,6.79882 0,0 -1.08004,0.23281 -1.08004,0.23281 l 0,0 c -0.49997,-2.32067 -0.96131,-4.644645 -1.00589,-7.029506 -0.008,-3.991195 -0.0312,-7.98323 0.0604,-11.973685 0.11209,-3.037595 0.0274,-6.318989 1.49627,-9.062341 2.25853,-1.62821 3.44372,0.550685 4.69014,2.288706 1.55653,2.349381 2.44468,4.905414 2.61026,7.734503 0,0 -1.10485,0 -1.10485,0 z"
     inkscape:connector-curvature="0" />
  <path
     style="color:#000000;fill:#000000;fill-opacity:1;fill-rule:nonzero;stroke:none;stroke-width:1.10300004;marker:none;visibility:visible;display:inline;overflow:visible;enable-background:accumulate"
     id="path4632"
     d="m 199.53458,38.723311 c 2.45291,-0.0741 4.92442,0.159485 7.36473,-0.128561 0,0 0.12591,1.097656 0.12591,1.097656 l 0,0 c -2.48487,0.277633 -4.99388,0.07644 -7.49064,0.135759 0,0 0,-1.104854 0,-1.104854 z"
     inkscape:connector-curvature="0" />
  <path
     style="color:#000000;fill:#000000;fill-opacity:1;fill-rule:nonzero;stroke:none;stroke-width:1.10300004;marker:none;visibility:visible;display:inline;overflow:visible;enable-background:accumulate"
     id="path4634"
     d="m 212.4612,43.924942 c -1.55042,-0.737669 -3.10156,-1.022044 -4.53633,0.01241 -1.2323,1.231846 -1.54954,2.766983 -1.14582,4.413498 0.74869,1.627431 2.40763,2.167161 4.08651,2.208461 1.07591,-0.26431 0.53085,-0.10606 1.6331,-0.48192 0,0 0.3529,1.04698 0.3529,1.04698 l 0,0 c -1.30577,0.43561 -0.62981,0.2529 -2.03037,0.5389 -2.20004,-0.11534 -4.23735,-0.88514 -5.11942,-3.067136 -0.45217,-2.109694 -0.0362,-4.053445 1.59812,-5.569884 1.82294,-1.205335 3.71229,-1.035611 5.65541,-0.08952 0,0 -0.4941,0.988212 -0.4941,0.988212 z"
     inkscape:connector-curvature="0" />
  <path
     style="color:#000000;fill:#000000;fill-opacity:1;fill-rule:nonzero;stroke:none;stroke-width:1.10300004;marker:none;visibility:visible;display:inline;overflow:visible;enable-background:accumulate"
     id="path4636"
     d="m 249.96352,86.587291 c -1.43261,-1.71349 -3.48552,-2.45516 -5.57896,-1.59596 -1.64875,1.02385 -2.5864,2.70407 -2.30233,4.63676 0.69135,1.57186 2.10626,1.78801 3.53787,1.1245 1.62406,-1.14273 1.99317,-3.04528 2.26199,-4.89019 0.11742,-0.73315 -0.1119,-2.16046 1.28404,-0.69696 0.16156,0.16938 -0.007,0.46894 0.0137,0.70211 0.0251,0.2836 0.27779,1.85553 0.30657,2.03869 0.42251,3.18622 0.72357,6.40658 0.56354,9.62027 -0.36096,3.092929 -1.87515,5.531409 -4.4867,7.170389 -2.79679,1.14708 -5.29657,0.51516 -7.66806,-1.17293 -1.03059,-0.81608 -1.61828,-1.88619 -2.18706,-3.03539 0,0 0.99292,-0.48457 0.99292,-0.48457 l 0,0 c 0.47526,0.99008 0.96525,1.91301 1.8393,2.62303 1.9859,1.44558 4.05253,2.03514 6.44462,1.12843 2.32518,-1.39136 3.62167,-3.59129 3.96158,-6.285539 0.1658,-3.13673 -0.14781,-6.28187 -0.55162,-9.3923 -0.0539,-0.34318 -0.64481,-2.52776 -0.33103,-2.83635 0.26977,-0.2653 0.6883,-0.36566 1.06586,-0.39041 0.39345,-0.0258 -1.32553,1.85687 -0.15462,1.17275 -0.33438,2.24214 -0.87849,4.45105 -2.91939,5.74432 -2.15634,0.87331 -4.22952,0.34477 -5.07049,-2.00819 -0.24803,-2.46622 0.83241,-4.55396 3.00717,-5.80134 2.59827,-0.92891 5.08475,-0.18454 6.85499,1.96596 0,0 -0.88388,0.66292 -0.88388,0.66292 z"
     inkscape:connector-curvature="0" />
  <path
     style="color:#000000;fill:#000000;fill-opacity:1;fill-rule:nonzero;stroke:none;stroke-width:1.10300004;marker:none;visibility:visible;display:inline;overflow:visible;enable-background:accumulate"
     id="path4638"
     d="m 257.76023,90.328821 c -1.6885,-0.64 -3.1493,0.13637 -4.18184,1.47274 -1.03946,1.96611 -0.60099,2.99567 1.50386,3.49817 1.68617,0.0782 3.26321,-0.5657 4.7866,-1.20914 0,0 0.42776,1.01869 0.42776,1.01869 l 0,0 c -1.75796,0.7342 -3.56025,1.44415 -5.50581,1.25617 -2.98373,-0.8923 -3.54502,-2.54441 -2.07412,-5.25538 1.41203,-1.70989 3.34306,-2.64391 5.53765,-1.76946 0,0 -0.4941,0.98821 -0.4941,0.98821 z"
     inkscape:connector-curvature="0" />
  <path
     style="color:#000000;fill:#000000;fill-opacity:1;fill-rule:nonzero;stroke:none;stroke-width:1.10300004;marker:none;visibility:visible;display:inline;overflow:visible;enable-background:accumulate"
     id="path4640"
     d="m 423.59021,213.29027 c -0.70267,-2.43642 -1.86089,-4.70377 -3.12313,-6.89206 -0.74591,-1.12948 -1.9992,-2.32936 -2.8086,-0.73445 -0.75918,2.37079 -1.16091,4.80393 -1.40692,7.27453 -0.45299,3.81642 0.0506,7.6032 0.68843,11.36217 0.58208,2.4286 1.06744,4.87899 1.74383,7.283 0,0 -1.06375,0.29855 -1.06375,0.29855 l 0,0 c -0.68384,-2.44231 -1.18392,-4.92903 -1.76938,-7.39681 -0.65365,-3.85621 -1.16144,-7.74222 -0.69851,-11.65676 0.26358,-2.62883 0.68178,-5.2318 1.56006,-7.73507 1.58076,-2.39402 3.36719,-1.19164 4.71216,0.75326 1.31959,2.29276 2.53173,4.66953 3.24921,7.22696 0,0 -1.0834,0.21668 -1.0834,0.21668 z"
     inkscape:connector-curvature="0" />
  <path
     style="color:#000000;fill:#000000;fill-opacity:1;fill-rule:nonzero;stroke:none;stroke-width:1.10300004;marker:none;visibility:visible;display:inline;overflow:visible;enable-background:accumulate"
     id="path4642"
     d="m 412.66313,220.90284 c 2.82997,-0.67984 5.6186,-1.50449 8.4321,-2.24585 0,0 0.2814,1.06842 0.2814,1.06842 l 0,0 c -2.83503,0.74634 -5.64473,1.57816 -8.49682,2.26083 0,0 -0.21668,-1.0834 -0.21668,-1.0834 z"
     inkscape:connector-curvature="0" />
  <path
     style="color:#000000;fill:#000000;fill-opacity:1;fill-rule:nonzero;stroke:none;stroke-width:1.10300004;marker:none;visibility:visible;display:inline;overflow:visible;enable-background:accumulate"
     id="path4644"
     d="m 427.0262,221.13265 c 0.003,3.00095 0.49168,6.00654 1.40711,8.86135 0.14305,0.31577 0.28611,0.63153 0.42917,0.9473 0,0 -1.00795,0.45249 -1.00795,0.45249 l 0,0 c -0.15799,-0.35482 -0.31598,-0.70965 -0.47397,-1.06448 -0.93909,-2.96696 -1.46233,-6.07952 -1.45921,-9.19666 0,0 1.10485,0 1.10485,0 z"
     inkscape:connector-curvature="0" />
  <path
     style="color:#000000;fill:#000000;fill-opacity:1;fill-rule:nonzero;stroke:none;stroke-width:1.10300004;marker:none;visibility:visible;display:inline;overflow:visible;enable-background:accumulate"
     id="path4646"
     d="m 424.26992,219.68475 c 1.0118,-0.73445 3.93774,-3.42071 4.72446,-1.16311 0.14175,0.40676 -0.0838,0.85741 -0.12565,1.28611 -0.51021,2.40318 0.36447,3.04257 2.17297,4.23183 2.00751,1.39117 0.32297,3.07441 -1.06327,4.10607 -1.50686,1.04418 -3.05483,2.01496 -4.53008,3.1037 0,0 -0.65602,-0.88901 -0.65602,-0.88901 l 0,0 c 1.47632,-1.08924 3.02343,-2.06322 4.53274,-3.10566 0.75909,-0.54678 2.35505,-1.46465 1.10953,-2.29199 -2.14763,-1.4126 -3.23014,-2.53434 -2.66038,-5.30578 0.0545,-0.27078 0.0124,-0.58118 0.16355,-0.81234 0.10861,-0.16608 0.72858,-0.3078 0.53647,-0.25806 -1.26513,0.32757 -2.42351,1.06402 -3.42307,1.87949 0,0 -0.78125,-0.78125 -0.78125,-0.78125 z"
     inkscape:connector-curvature="0" />
  <path
     style="color:#000000;fill:#000000;fill-opacity:1;fill-rule:nonzero;stroke:none;stroke-width:1.10300004;marker:none;visibility:visible;display:inline;overflow:visible;enable-background:accumulate"
     id="path4648"
     d="m 474.31167,176.50746 c -2.60025,-1.33659 -4.21657,-0.84969 -6.71701,0.41582 -1.58288,1.07886 -3.74549,2.74766 -2.93468,4.89205 1.1733,1.36502 3.19321,0.74516 4.50352,-0.0771 1.39076,-1.10163 1.49193,-2.80732 2.01709,-4.35704 0.41627,0.19518 0.92514,0.25901 1.24881,0.58554 0.22028,0.22223 0.1507,0.60747 0.23299,0.90937 0.10444,0.3832 0.20766,0.76696 0.32715,1.14574 0.67902,2.15244 1.35194,4.27594 1.92682,6.46097 0.53642,3.07654 1.7191,6.40999 0.92131,9.5622 -0.4378,1.72982 -1.01904,2.26661 -2.02222,3.65 -3.90784,3.38679 -7.77539,2.67627 -12.0652,0.52373 -3.19102,-1.80594 -5.42818,-4.39181 -6.59881,-7.83866 0.0833,-0.49773 0.16653,-0.99546 0.2498,-1.49319 0,0 1.07868,0.23908 1.07868,0.23908 l 0,0 c -0.0937,0.30077 -0.18743,0.60153 -0.28114,0.9023 1.05391,3.17657 3.12733,5.53628 6.0509,7.20494 3.56432,1.82585 7.36806,2.65983 10.67602,-0.19321 0.84174,-1.12394 1.439,-1.70288 1.81347,-3.11335 0.7991,-3.00988 -0.40116,-6.2222 -0.89135,-9.16292 -0.63815,-2.42915 -0.55548,-2.24655 -1.30114,-4.58246 -0.007,-0.0209 -1.25031,-3.64842 -1.15991,-3.84899 0.14014,-0.31095 0.55822,-0.39205 0.83733,-0.58808 -0.64654,1.79217 -0.77522,3.72751 -2.48908,4.93957 -1.97019,1.15601 -4.67642,1.68031 -6.12997,-0.54002 -0.79402,-2.92386 1.22725,-4.68903 3.49417,-6.20798 2.80544,-1.39625 4.81041,-1.9076 7.70656,-0.41649 0,0 -0.49411,0.98821 -0.49411,0.98821 z"
     inkscape:connector-curvature="0" />
  <path
     style="color:#000000;fill:#000000;fill-opacity:1;fill-rule:nonzero;stroke:none;stroke-width:1.10300004;marker:none;visibility:visible;display:inline;overflow:visible;enable-background:accumulate"
     id="path4650"
     d="m 480.18064,180.14469 c 0.37258,2.2152 0.70462,4.4683 1.49064,6.58388 0.0357,0.0326 0.0715,0.0652 0.1072,0.0978 -0.3545,-0.025 -0.76587,0.11924 -1.06351,-0.0749 -0.19686,-0.12842 -0.0572,-0.46804 -0.11718,-0.6953 -0.19779,-0.74985 -0.56799,-1.48124 -0.90743,-2.17228 -0.92596,-1.78244 -1.49695,-3.63063 -0.48774,-5.47123 1.43475,-1.38661 3.48889,-1.70787 5.3416,-1.10319 2.043,1.27107 0.0354,2.8366 -1.14441,3.79618 -0.0784,0.0971 -0.19626,0.17278 -0.23513,0.29138 -0.003,0.01 1.99424,1.30329 2.07838,1.36275 1.50816,1.21602 1.74671,2.70281 0.30335,4.03566 -1.02619,0.82579 -2.28732,1.21863 -3.48521,1.71624 0,0 -0.4237,-1.02039 -0.4237,-1.02039 l 0,0 c 1.09168,-0.45312 2.2469,-0.80159 3.19276,-1.53718 1.01473,-0.74063 0.67305,-1.5548 -0.22591,-2.29279 -1.10255,-0.78327 -3.38969,-1.86266 -1.90165,-3.41284 0.21421,-0.1742 1.84703,-1.49059 1.77279,-1.63657 -0.0602,-0.11827 -0.20033,-0.17407 -0.30049,-0.2611 -1.31859,-0.5251 -2.89092,-0.21175 -4.02371,0.62818 -0.94948,1.3837 -0.10803,3.07428 0.532,4.42036 0.55368,1.14132 1.98297,3.29691 0.21989,4.10125 -0.14372,0.0656 -0.17917,-0.26023 -0.26875,-0.39034 -0.79353,-2.17388 -1.16726,-4.47315 -1.53719,-6.74882 0,0 1.0834,-0.21668 1.0834,-0.21668 z"
     inkscape:connector-curvature="0" />
  <path
     style="color:#000000;fill:#000000;fill-opacity:1;fill-rule:nonzero;stroke:none;stroke-width:1.10300004;marker:none;visibility:visible;display:inline;overflow:visible;enable-background:accumulate"
     id="path4652"
     d="m 328.06452,449.33653 c 1.18319,-2.20627 2.24295,-4.55781 2.02126,-7.10196 -0.63712,-1.75749 -0.83713,-1.45891 -1.55757,-0.21272 -0.84415,2.17897 -0.83834,4.5908 -0.91525,6.89715 -0.0658,3.3462 -0.0441,6.69339 -0.0381,10.04003 0.006,3.48051 0.009,6.96102 0.0122,10.44153 0,0 -1.10485,9.9e-4 -1.10485,9.9e-4 l 0,0 c -0.003,-3.48019 -0.006,-6.96037 -0.0122,-10.44055 -0.006,-3.3596 -0.0278,-6.71977 0.0387,-10.07893 0.0838,-2.49714 0.0826,-5.1125 1.0819,-7.44473 1.46238,-2.2323 2.91162,-1.74782 3.59688,0.71423 0.18294,2.78462 -0.83833,5.34159 -2.17559,7.75341 0,0 -0.9474,-0.56845 -0.9474,-0.56845 z"
     inkscape:connector-curvature="0" />
  <path
     style="color:#000000;fill:#000000;fill-opacity:1;fill-rule:nonzero;stroke:none;stroke-width:1.10300004;marker:none;visibility:visible;display:inline;overflow:visible;enable-background:accumulate"
     id="path4654"
     d="m 319.92117,458.33199 c 3.00941,-1.00068 6.05424,-1.88292 9.08596,-2.81595 1.44626,-0.47664 2.94741,-0.71689 4.44559,-0.95568 0,0 0.17341,1.09116 0.17341,1.09116 l 0,0 c -1.44718,0.22929 -2.89737,0.45913 -4.29403,0.9205 -3.02356,0.93048 -6.06054,1.8092 -9.06155,2.80813 0,0 -0.34938,-1.04816 -0.34938,-1.04816 z"
     inkscape:connector-curvature="0" />
  <path
     style="color:#000000;fill:#000000;fill-opacity:1;fill-rule:nonzero;stroke:none;stroke-width:1.10300004;marker:none;visibility:visible;display:inline;overflow:visible;enable-background:accumulate"
     id="path4656"
     d="m 339.43888,456.67179 c -0.81231,2.40861 -1.5931,4.82647 -2.34769,7.25434 -0.0846,0.21761 -0.12013,0.46145 -0.25388,0.65283 -0.41091,0.58795 -0.91375,0.54012 -1.32838,-0.2764 -0.32906,-0.648 0.23816,-2.67322 0.31879,-3.33039 0.52135,-2.79525 1.04428,-5.5757 1.98957,-8.26323 1.44152,-2.89615 2.21665,1.70769 2.39017,2.59498 0.67281,2.54921 1.14997,5.13704 1.81656,7.68683 0.36329,1.53508 0.14701,0.81247 0.62823,2.1739 0,0 -1.04276,0.36516 -1.04276,0.36516 l 0,0 c -0.50867,-1.46488 -0.28861,-0.71223 -0.65441,-2.25963 -0.67247,-2.57256 -1.15549,-5.18317 -1.8322,-7.75561 -0.10415,-0.54026 -0.76611,-2.51519 -0.68112,-2.67266 0.10078,-0.18671 0.42818,-0.024 0.63034,-0.0884 0.0386,-0.0123 0.0448,-0.15344 0.0225,-0.11958 -0.0919,0.13946 -0.15689,0.29496 -0.23534,0.44243 -0.92325,2.61098 -1.42002,5.31521 -1.93491,8.03036 -0.008,0.0672 -0.33672,2.79523 -0.37462,2.82511 -0.16248,0.12807 -0.42403,-0.0504 -0.6205,0.0144 -0.0823,0.0272 -0.14628,0.31303 -0.12084,0.23019 0.0608,-0.19803 0.15183,-0.3855 0.22774,-0.57825 0.76341,-2.45562 1.55239,-4.90149 2.37692,-7.33671 0,0 1.02583,0.41033 1.02583,0.41033 z"
     inkscape:connector-curvature="0" />
  <path
     style="color:#000000;fill:#000000;fill-opacity:1;fill-rule:nonzero;stroke:none;stroke-width:1.10300004;marker:none;visibility:visible;display:inline;overflow:visible;enable-background:accumulate"
     id="path4658"
     d="m 337.53303,460.65624 c 2.10946,-0.39673 4.16862,-1.00803 6.27358,-1.43758 0,0 0.22066,1.0826 0.22066,1.0826 l 0,0 c -2.1064,0.42881 -4.16631,1.04318 -6.27756,1.43838 0,0 -0.21668,-1.0834 -0.21668,-1.0834 z"
     inkscape:connector-curvature="0" />
  <path
     style="color:#000000;fill:#000000;fill-opacity:1;fill-rule:nonzero;stroke:none;stroke-width:1.10300004;marker:none;visibility:visible;display:inline;overflow:visible;enable-background:accumulate"
     id="path4660"
     d="m 287.50689,392.87459 c -2.04727,-0.95687 -4.12048,-0.67404 -5.82387,0.75942 -1.36192,1.69987 -1.51188,2.86083 0.29527,4.17665 1.8419,1.06752 3.35662,0.10352 4.78385,-1.16446 1.24342,-1.4304 1.96586,-3.22786 1.76079,-5.12929 -0.1123,-0.21145 -0.72538,-1.29746 0.7237,0.28344 0.0273,0.0298 0.68289,4.96109 0.80633,5.62076 0.86863,5.1866 1.86426,10.63709 0.72208,15.87148 -0.20299,0.93024 -0.56497,1.81851 -0.84745,2.72777 -2.50216,5.1399 -5.36833,7.10979 -11.01753,7.45352 -4.95542,-0.44702 -7.84571,-2.12014 -10.31776,-6.41699 -0.95378,-2.39521 -0.5952,-1.16168 -1.07409,-3.70106 0,0 1.08681,-0.19888 1.08681,-0.19888 l 0,0 c 0.40345,2.28296 0.0907,1.16399 0.94795,3.35422 2.14887,3.83742 4.89265,5.46047 9.29548,5.85957 5.03166,-0.25312 7.80086,-2.08767 10.02491,-6.681 0.26907,-0.84942 0.61426,-1.67838 0.80721,-2.54826 1.13431,-5.11383 0.12679,-10.44934 -0.71366,-15.51743 -0.0967,-0.51839 -1.17553,-5.84884 -0.69909,-6.33617 0.29047,-0.29711 0.7899,-0.36146 1.2037,-0.32389 0.15661,0.0142 0.10078,0.29793 0.15117,0.44689 0.19863,2.26798 -0.60526,4.38337 -2.13318,6.06697 -1.85983,1.6051 -3.8741,2.61761 -6.18576,1.20785 -2.32909,-1.87033 -2.21068,-3.69997 -0.31769,-5.90899 2.15091,-1.70183 4.68425,-2.06433 7.18374,-0.786 0,0 -0.66291,0.88388 -0.66291,0.88388 z"
     inkscape:connector-curvature="0" />
  <path
     style="color:#000000;fill:#000000;fill-opacity:1;fill-rule:nonzero;stroke:none;stroke-width:1.10300004;marker:none;visibility:visible;display:inline;overflow:visible;enable-background:accumulate"
     id="path4672"
     d="m 105.51359,270.63435 c 0.20856,-2.41981 -0.27806,-4.63886 -1.25128,-6.83713 -0.89373,-1.24593 -1.95081,-3.71421 -3.67383,-3.96666 -1.069219,1.78514 -1.178429,3.96001 -1.389379,5.978 -0.0527,5.31453 0.76779,10.61812 1.991049,15.77906 0.43282,1.7472 0.86685,3.47999 1.4537,5.18113 0,0 -1.0449,0.359 -1.0449,0.359 l 0,0 c -0.59445,-1.73688 -1.04737,-3.50185 -1.48396,-5.28572 -1.247899,-5.28215 -2.090859,-10.70966 -2.014699,-16.14887 0.18035,-1.70958 0.33233,-5.6534 1.979289,-6.73306 0.22314,-0.14628 0.51635,-0.13466 0.77453,-0.20199 2.10206,0.62801 3.34832,2.82093 4.41958,4.59435 1.022,2.33832 1.56168,4.71201 1.34475,7.28189 0,0 -1.10485,0 -1.10485,0 z"
     inkscape:connector-curvature="0" />
  <path
     style="color:#000000;fill:#000000;fill-opacity:1;fill-rule:nonzero;stroke:none;stroke-width:1.10300004;marker:none;visibility:visible;display:inline;overflow:visible;enable-background:accumulate"
     id="path4674"
     d="m 93.468561,277.37185 c 2.8917,0 5.7834,0 8.675099,0 1.43307,-0.0881 2.85356,-0.30194 4.27487,-0.4953 0,0 0.14891,1.09478 0.14891,1.09478 l 0,0 c -1.47059,0.2 -2.94041,0.42142 -4.42378,0.50537 -2.891699,0 -5.783399,0 -8.675099,0 0,0 0,-1.10485 0,-1.10485 z"
     inkscape:connector-curvature="0" />
  <path
     style="color:#000000;fill:#000000;fill-opacity:1;fill-rule:nonzero;stroke:none;stroke-width:1.10300004;marker:none;visibility:visible;display:inline;overflow:visible;enable-background:accumulate"
     id="path4676"
     d="m 111.03786,279.95425 c 0.0919,3.01962 -0.18234,6.06072 0.12934,9.06876 0,0 -1.09922,0.11141 -1.09922,0.11141 l 0,0 c -0.30249,-3.04719 -0.0557,-6.12192 -0.13497,-9.18017 0,0 1.10485,0 1.10485,0 z"
     inkscape:connector-curvature="0" />
  <path
     style="color:#000000;fill:#000000;fill-opacity:1;fill-rule:nonzero;stroke:none;stroke-width:1.10300004;marker:none;visibility:visible;display:inline;overflow:visible;enable-background:accumulate"
     id="path4678"
     d="m 105.24275,280.48041 c 2.76916,-1.23284 5.04135,-1.64199 7.94525,-0.64357 2.57778,1.48824 4.0791,3.36931 3.29391,6.39481 -1.12402,2.045 -3.25416,3.19239 -5.4744,3.66779 0,0 -0.22085,-1.08255 -0.22085,-1.08255 l 0,0 c 1.81519,-0.34748 3.61,-1.30827 4.6325,-2.88736 0.71618,-2.23939 -0.69394,-3.95294 -2.60333,-5.05241 -2.39673,-0.8988 -4.77848,-0.46984 -7.07898,0.59151 0,0 -0.4941,-0.98822 -0.4941,-0.98822 z"
     inkscape:connector-curvature="0" />
  <path
     style="color:#000000;fill:#000000;fill-opacity:1;fill-rule:nonzero;stroke:none;stroke-width:1.10300004;marker:none;visibility:visible;display:inline;overflow:visible;enable-background:accumulate"
     id="path4680"
     d="m 65.532835,312.99803 c -1.043019,-1.72277 -2.438051,-2.56874 -4.419491,-2.15043 -1.975864,1.31145 -2.678421,4.13196 -2.4345,6.39127 0.623258,1.67946 2.054873,1.89648 3.522345,1.18411 1.899814,-1.33487 2.584986,-3.33633 3.083935,-5.50113 0.633003,-0.0766 -0.381675,-2.16559 -0.07906,-2.07602 1.423311,0.42128 1.247175,1.68869 1.596883,2.91932 1.556642,5.74591 1.853496,11.69462 1.240934,17.58828 -1.135375,5.49012 -2.674301,8.86119 -7.861171,11.27257 -0.591003,0.13525 -1.169904,0.46773 -1.77301,0.40575 -4.322275,-0.44416 -7.380396,-5.75422 -9.138245,-9.14773 -0.984868,-2.13157 -1.066154,-4.24016 -0.94923,-6.52228 0,0 1.103121,0.0619 1.103121,0.0619 l 0,0 c -0.128052,2.08251 -0.05987,4.00154 0.827817,5.95351 1.564435,3.03999 3.27498,5.93072 6.254261,7.80367 0.517467,0.32531 1.057553,0.68926 1.663111,0.7723 0.52399,0.0719 1.034458,-0.22094 1.551687,-0.33141 4.65499,-2.10113 6.256252,-5.46576 7.222808,-10.38327 0.606675,-5.75383 0.309144,-11.56318 -1.2056,-17.17387 -0.02422,-0.0868 -0.74287,-2.42498 -0.601161,-2.72117 1.336783,-2.79402 1.673186,1.57399 1.223028,1.82861 -0.586062,2.50208 -1.454985,4.79246 -3.705363,6.25793 -2.359434,1.0094 -4.199146,0.46422 -5.077156,-2.08834 -0.232191,-2.84158 0.652093,-6.17374 3.332427,-7.58018 2.662081,-0.44599 4.194556,0.48415 5.609847,2.74253 0,0 -0.988212,0.49411 -0.988212,0.49411 z"
     inkscape:connector-curvature="0" />
  <path
     style="color:#000000;fill:#000000;fill-opacity:1;fill-rule:nonzero;stroke:none;stroke-width:1.10300004;marker:none;visibility:visible;display:inline;overflow:visible;enable-background:accumulate"
     id="path4686"
     d="m 72.489391,318.25149 c 0.92787,3.08571 1.80044,6.17925 2.41902,9.34307 0.34139,2.15685 0.14019,1.13349 0.58425,3.07382 0,0 -1.07723,0.24553 -1.07723,0.24553 l 0,0 c -0.45423,-2.00062 -0.25327,-0.96549 -0.59139,-3.10759 -0.61687,-3.16269 -1.499933,-6.25125 -2.418049,-9.33815 0,0 1.083399,-0.21668 1.083399,-0.21668 z"
     inkscape:connector-curvature="0" />
  <path
     style="color:#000000;fill:#000000;fill-opacity:1;fill-rule:nonzero;stroke:none;stroke-width:1.10300004;marker:none;visibility:visible;display:inline;overflow:visible;enable-background:accumulate"
     id="path4690"
     d="m 70.158282,321.44459 c 3.008839,-0.2922 5.788379,0.5758 8.002649,2.60734 1.98075,2.49975 1.85553,4.41834 -0.0795,6.87184 -1.29786,1.09616 -0.67756,0.59963 -1.85137,1.50139 0,0 -0.67274,-0.87642 -0.67274,-0.87642 l 0,0 c 1.08305,-0.83063 0.52733,-0.39218 1.66436,-1.3189 1.60018,-1.92719 1.74675,-3.31854 0.18538,-5.3702 -1.91405,-1.8235 -4.3985,-2.54491 -7.03211,-2.33165 0,0 -0.216679,-1.0834 -0.216679,-1.0834 z"
     inkscape:connector-curvature="0" />
  <path
     style="color:#000000;fill:#000000;fill-opacity:1;fill-rule:nonzero;stroke:none;stroke-width:1.10300004;marker:none;visibility:visible;display:inline;overflow:visible;enable-background:accumulate"
     id="path4736"
     d="m 166.05732,75.965711 c -1.72344,-1.08969 -3.24701,-2.42527 -5.12023,-3.25693 -1.94439,-0.71196 -4.02651,-0.78153 -6.07304,-0.84473 -2.1077,0.1412 -4.09261,1.06444 -5.04008,3.01164 -0.30217,1.79407 1.73171,2.34727 3.04266,2.95637 2.42921,0.98361 4.91694,1.80518 6.92785,3.52968 1.65994,1.94147 2.13096,3.61992 0.29271,5.59236 -2.17808,1.45529 -4.7517,2.03862 -7.33286,2.15201 -3.32751,-0.16378 -6.08961,-1.69153 -8.39505,-4.00326 -0.88857,-0.97076 -1.35125,-2.07042 -1.6947,-3.31088 0,0 1.06815,-0.28241 1.06815,-0.28241 l 0,0 c 0.26338,1.05934 0.67219,1.98398 1.41173,2.81599 2.06706,2.10526 4.5638,3.49705 7.56572,3.67659 2.30951,-0.0822 4.59113,-0.61714 6.58929,-1.82277 1.35638,-1.27142 0.92351,-2.66723 -0.22967,-3.98363 -1.90538,-1.6815 -4.36351,-2.38058 -6.66894,-3.3618 -1.97105,-0.91685 -4.25324,-1.86668 -3.55651,-4.46918 1.25206,-2.2861 3.45402,-3.47799 6.05398,-3.60503 2.19081,0.0684 4.41617,0.15661 6.49069,0.94086 1.88252,0.85102 3.44951,2.14055 5.1624,3.27691 0,0 -0.4941,0.98821 -0.4941,0.98821 z"
     inkscape:connector-curvature="0" />
  <path
     style="color:#000000;fill:#000000;fill-opacity:1;fill-rule:nonzero;stroke:none;stroke-width:1.10300004;marker:none;visibility:visible;display:inline;overflow:visible;enable-background:accumulate"
     id="path4738"
     d="m 168.3474,82.029341 c -0.47433,2.46978 -0.6906,4.97685 -0.83863,7.48411 0,0 -1.10293,-0.0652 -1.10293,-0.0652 l 0,0 c 0.15146,-2.55809 0.37324,-5.11589 0.85816,-7.63558 0,0 1.0834,0.21668 1.0834,0.21668 z"
     inkscape:connector-curvature="0" />
  <path
     style="color:#000000;fill:#000000;fill-opacity:1;fill-rule:nonzero;stroke:none;stroke-width:1.10300004;marker:none;visibility:visible;display:inline;overflow:visible;enable-background:accumulate"
     id="path4740"
     d="m 160.86468,79.602921 c 2.56259,-0.0518 5.09812,-0.0397 7.63753,0.32008 1.17182,0.39808 4.04838,1.05079 4.74739,2.20937 0.22369,0.37078 0.23345,0.83401 0.35017,1.25101 -0.42623,2.74091 -2.70541,3.89326 -5.1317,4.59079 -1.14815,0.27937 -2.32535,0.35714 -3.49905,0.43942 0,0 -0.0767,-1.10219 -0.0767,-1.10219 l 0,0 c 1.09774,-0.0758 2.19906,-0.14557 3.27416,-0.40013 1.87423,-0.5238 3.76585,-1.30907 4.34207,-3.35477 0.0214,-0.18358 0.15109,-0.38756 0.0643,-0.55076 -0.53229,-1.00108 -3.25613,-1.64761 -4.22606,-1.98887 -2.48759,-0.3543 -4.97151,-0.35721 -7.48215,-0.3091 0,0 0,-1.10485 0,-1.10485 z"
     inkscape:connector-curvature="0" />
  <path
     style="color:#000000;fill:#000000;fill-opacity:1;fill-rule:nonzero;stroke:none;stroke-width:1.10300004;marker:none;visibility:visible;display:inline;overflow:visible;enable-background:accumulate"
     id="path4746"
     d="m 178.43398,79.711291 c 0,2.82149 0,5.64298 0,8.46447 0,0 -1.10486,0 -1.10486,0 l 0,0 c 0,-2.82149 0,-5.64298 0,-8.46447 0,0 1.10486,0 1.10486,0 z"
     inkscape:connector-curvature="0" />
  <path
     style="color:#000000;fill:#000000;fill-opacity:1;fill-rule:nonzero;stroke:none;stroke-width:1.10300004;marker:none;visibility:visible;display:inline;overflow:visible;enable-background:accumulate"
     id="path4748"
     d="m 175.22778,79.602921 c 2.49676,0.0593 5.00577,-0.14187 7.49064,0.13576 1.79808,0.28729 4.05895,0.43493 4.61805,2.47729 -0.71795,1.85242 -2.94798,2.21798 -4.69618,2.55347 -1.57767,0.32285 -3.47125,0.11542 -4.90896,0.97031 0.69148,0.0933 0.0716,-0.67375 0.33345,-0.78251 0.28293,-0.11751 3.41516,0.24653 3.80749,0.29877 2.07956,0.30911 4.22009,0.63092 5.91218,1.96142 1.19308,2.25008 -2.02907,3.08674 -3.63303,3.62725 -2.44558,0.54991 -4.95661,0.8436 -7.46086,0.72315 0,0 0.0563,-1.10342 0.0563,-1.10342 l 0,0 c 2.36577,0.12849 4.7391,-0.17509 7.05355,-0.66735 0.88087,-0.29326 3.02693,-0.7616 3.28787,-1.72168 -1.47627,-1.25185 -3.5335,-1.3964 -5.36463,-1.72456 -0.88807,-0.12308 -4.35691,-0.002 -4.78221,-0.88063 -0.10896,-0.22519 0.1763,-0.46824 0.26444,-0.70236 1.6051,-0.82194 3.47944,-0.83929 5.22785,-1.08377 0.9108,-0.17173 1.80602,-0.34106 2.65822,-0.72257 0.21164,-0.0947 0.40909,-0.21846 0.61363,-0.32769 0.12952,-0.0962 0.24178,-0.22166 0.38856,-0.28867 0.0475,-0.0217 0.10057,0.0283 0.15086,0.0424 0.40877,-1.12161 -3.12865,-1.45913 -3.65251,-1.5512 -2.44031,-0.28805 -4.91181,-0.0545 -7.36473,-0.12857 0,0 0,-1.10485 0,-1.10485 z"
     inkscape:connector-curvature="0" />
  <path
     style="color:#000000;fill:#000000;fill-opacity:1;fill-rule:nonzero;stroke:none;stroke-width:1.10300004;marker:none;visibility:visible;display:inline;overflow:visible;enable-background:accumulate"
     id="path4736-8"
     d="m 371.93426,409.71475 c -1.72344,-1.08969 -3.24701,-2.42527 -5.12023,-3.25693 -1.94439,-0.71196 -4.02651,-0.78153 -6.07304,-0.84473 -2.1077,0.1412 -4.09261,1.06444 -5.04008,3.01164 -0.30217,1.79407 1.73171,2.34727 3.04266,2.95637 2.42921,0.98361 4.91694,1.80518 6.92785,3.52968 1.65994,1.94147 2.13096,3.61992 0.29271,5.59236 -2.17808,1.45529 -4.7517,2.03862 -7.33286,2.15201 -3.32751,-0.16378 -6.08961,-1.69153 -8.39505,-4.00326 -0.88857,-0.97076 -1.35125,-2.07042 -1.6947,-3.31088 0,0 1.06815,-0.28241 1.06815,-0.28241 l 0,0 c 0.26338,1.05934 0.67219,1.98398 1.41173,2.81599 2.06706,2.10526 4.5638,3.49705 7.56572,3.67659 2.30951,-0.0822 4.59113,-0.61714 6.58929,-1.82277 1.35638,-1.27142 0.92351,-2.66723 -0.22967,-3.98363 -1.90538,-1.6815 -4.36351,-2.38058 -6.66894,-3.3618 -1.97105,-0.91685 -4.25324,-1.86668 -3.55651,-4.46918 1.25206,-2.2861 3.45402,-3.47799 6.05398,-3.60503 2.19081,0.0684 4.41617,0.15661 6.49069,0.94086 1.88252,0.85102 3.44951,2.14055 5.1624,3.27691 0,0 -0.4941,0.98821 -0.4941,0.98821 z"
     inkscape:connector-curvature="0" />
  <path
     style="color:#000000;fill:#000000;fill-opacity:1;fill-rule:nonzero;stroke:none;stroke-width:1.10300004;marker:none;visibility:visible;display:inline;overflow:visible;enable-background:accumulate"
     id="path4738-8"
     d="m 374.22434,415.77838 c -0.47433,2.46978 -0.6906,4.97685 -0.83863,7.48411 0,0 -1.10293,-0.0652 -1.10293,-0.0652 l 0,0 c 0.15146,-2.55809 0.37324,-5.11589 0.85816,-7.63558 0,0 1.0834,0.21668 1.0834,0.21668 z"
     inkscape:connector-curvature="0" />
  <path
     style="color:#000000;fill:#000000;fill-opacity:1;fill-rule:nonzero;stroke:none;stroke-width:1.10300004;marker:none;visibility:visible;display:inline;overflow:visible;enable-background:accumulate"
     id="path4740-4"
     d="m 366.74162,413.35196 c 2.56259,-0.0518 5.09812,-0.0397 7.63753,0.32008 1.17182,0.39808 4.04838,1.05079 4.74739,2.20937 0.22369,0.37078 0.23345,0.83401 0.35017,1.25101 -0.42623,2.74091 -2.70541,3.89326 -5.1317,4.59079 -1.14815,0.27937 -2.32535,0.35714 -3.49905,0.43942 0,0 -0.0767,-1.10219 -0.0767,-1.10219 l 0,0 c 1.09774,-0.0758 2.19906,-0.14557 3.27416,-0.40013 1.87423,-0.5238 3.76585,-1.30907 4.34207,-3.35477 0.0214,-0.18358 0.15109,-0.38756 0.0643,-0.55076 -0.53229,-1.00108 -3.25613,-1.64761 -4.22606,-1.98887 -2.48759,-0.3543 -4.97151,-0.35721 -7.48215,-0.3091 0,0 0,-1.10485 0,-1.10485 z"
     inkscape:connector-curvature="0" />
  <path
     style="color:#000000;fill:#000000;fill-opacity:1;fill-rule:nonzero;stroke:none;stroke-width:1.10300004;marker:none;visibility:visible;display:inline;overflow:visible;enable-background:accumulate"
     id="path4746-9"
     d="m 384.31092,413.46033 c 0,2.82149 0,5.64298 0,8.46447 0,0 -1.10486,0 -1.10486,0 l 0,0 c 0,-2.82149 0,-5.64298 0,-8.46447 0,0 1.10486,0 1.10486,0 z"
     inkscape:connector-curvature="0" />
  <path
     style="color:#000000;fill:#000000;fill-opacity:1;fill-rule:nonzero;stroke:none;stroke-width:1.10300004;marker:none;visibility:visible;display:inline;overflow:visible;enable-background:accumulate"
     id="path4748-8"
     d="m 381.10472,413.35196 c 2.49676,0.0593 5.00577,-0.14187 7.49064,0.13576 1.79808,0.28729 4.05895,0.43493 4.61805,2.47729 -0.71795,1.85242 -2.94798,2.21798 -4.69618,2.55347 -1.57767,0.32285 -3.47125,0.11542 -4.90896,0.97031 0.69148,0.0933 0.0716,-0.67375 0.33345,-0.78251 0.28293,-0.11751 3.41516,0.24653 3.80749,0.29877 2.07956,0.30911 4.22009,0.63092 5.91218,1.96142 1.19308,2.25008 -2.02907,3.08674 -3.63303,3.62725 -2.44558,0.54991 -4.95661,0.8436 -7.46086,0.72315 0,0 0.0563,-1.10342 0.0563,-1.10342 l 0,0 c 2.36577,0.12849 4.7391,-0.17509 7.05355,-0.66735 0.88087,-0.29326 3.02693,-0.7616 3.28787,-1.72168 -1.47627,-1.25185 -3.5335,-1.3964 -5.36463,-1.72456 -0.88807,-0.12308 -4.35691,-0.002 -4.78221,-0.88063 -0.10896,-0.22519 0.1763,-0.46824 0.26444,-0.70236 1.6051,-0.82194 3.47944,-0.83929 5.22785,-1.08377 0.9108,-0.17173 1.80602,-0.34106 2.65822,-0.72257 0.21164,-0.0947 0.40909,-0.21846 0.61363,-0.32769 0.12952,-0.0962 0.24178,-0.22166 0.38856,-0.28867 0.0475,-0.0217 0.10057,0.0283 0.15086,0.0424 0.40877,-1.12161 -3.12865,-1.45913 -3.65251,-1.5512 -2.44031,-0.28805 -4.91181,-0.0545 -7.36473,-0.12857 0,0 0,-1.10485 0,-1.10485 z"
     inkscape:connector-curvature="0" />
  <path
     style="color:#000000;fill:#000000;fill-opacity:1;fill-rule:nonzero;stroke:none;stroke-width:1.10300004;marker:none;visibility:visible;display:inline;overflow:visible;enable-background:accumulate"
     id="path4782"
     d="m 105.29032,335.60649 c -2.16754,-0.87275 -4.3409,-1.72987 -6.604599,-2.32207 -2.10646,-0.51991 -4.05831,-0.80314 -6.02139,0.21768 -1.67215,1.12016 -1.32895,2.13933 -0.17371,3.47802 2.29395,1.61645 4.76965,2.94058 7.2296,4.28029 2.519299,1.39399 4.792279,3.1971 5.844259,5.93343 0.0517,0.67591 0.2399,1.44525 -0.19828,2.07274 -1.25883,1.80268 -4.11835,2.16179 -6.072559,2.56943 -3.60099,0.76519 -7.12708,0.0716 -10.41392,-1.45933 -1.04482,-0.58069 -1.6487,-1.22933 -2.0702,-2.31067 0,0 1.04865,-0.34791 1.04865,-0.34791 l 0,0 c 0.17817,0.81432 0.81606,1.21303 1.49115,1.65849 3.06088,1.45015 6.35995,2.08694 9.72011,1.37755 1.529869,-0.31484 4.098959,-0.58846 5.247939,-1.83494 0.33452,-0.3629 0.21985,-0.92756 0.2105,-1.34308 -0.87204,-2.49877 -3.11609,-4.07256 -5.336099,-5.34543 -2.57655,-1.40331 -5.19237,-2.77348 -7.54567,-4.53819 -1.71213,-2.06756 -1.8173,-3.54923 0.51933,-5.1762 2.23558,-1.10624 4.41582,-0.9162 6.80069,-0.30056 2.336279,0.6147 4.583709,1.49256 6.818309,2.40253 0,0 -0.49411,0.98822 -0.49411,0.98822 z"
     inkscape:connector-curvature="0" />
  <path
     style="color:#000000;fill:#000000;fill-opacity:1;fill-rule:nonzero;stroke:none;stroke-width:1.10300004;marker:none;visibility:visible;display:inline;overflow:visible;enable-background:accumulate"
     id="path4784"
     d="m 114.11775,347.52424 c -1.49027,-1.376 -3.10754,-1.87849 -5.07709,-1.57438 -1.6374,0.55227 -2.44438,1.60719 -2.25939,3.29873 0.93822,1.97616 3.00183,2.57528 5.0254,2.75858 0.38771,-0.0469 0.77542,-0.0939 1.16313,-0.14085 0,0 0.12153,1.09815 0.12153,1.09815 l 0,0 c -0.46464,0.0474 -0.92929,0.0947 -1.39393,0.14213 -2.56519,-0.27413 -5.05514,-1.13693 -6.01646,-3.75807 -0.18854,-2.44716 0.89724,-3.71939 3.1982,-4.49165 2.32084,-0.32994 4.27865,0.26616 6.01986,1.88611 0,0 -0.78125,0.78125 -0.78125,0.78125 z"
     inkscape:connector-curvature="0" />
  <path
     style="color:#000000;fill:#000000;fill-opacity:1;fill-rule:nonzero;stroke:none;stroke-width:1.10300004;marker:none;visibility:visible;display:inline;overflow:visible;enable-background:accumulate"
     id="path4786"
     d="m 119.55405,343.88637 c -1.11665,2.41751 -2.04576,4.91514 -3.11847,7.35257 -0.52922,1.22328 -0.99484,2.49866 -1.72919,3.62128 -0.28095,0.42949 -0.78054,0.95981 -0.83771,0.9025 -0.32456,-0.32534 -0.42092,-0.81706 -0.63138,-1.22559 1.15358,-2.59475 2.402,-5.14955 3.55906,-7.74495 0.79651,-1.8079 2.7664,-6.18947 3.87607,-1.6196 0.33336,2.89183 0.30011,5.79184 0.64991,8.68439 0,0 -1.09688,0.13247 -1.09688,0.13247 l 0,0 c -0.34443,-2.85553 -0.33132,-5.71591 -0.63065,-8.57306 -0.0553,-0.27035 -0.1642,-0.53513 -0.16574,-0.81106 -9.9e-4,-0.17761 0.33331,-0.59872 0.18615,-0.49927 -0.99397,0.67176 -1.17784,2.22703 -1.8098,3.13613 -1.14666,2.57037 -2.37972,5.10254 -3.52873,7.66961 -0.35259,-0.0142 -0.70718,-0.003 -1.05778,-0.0427 -0.0452,-0.005 0.089,-0.0313 0.12037,-0.0643 0.14598,-0.15358 0.28929,-0.3123 0.40583,-0.48926 0.7175,-1.08946 1.16239,-2.33404 1.67933,-3.52193 1.0812,-2.45326 2.01412,-4.96884 3.1414,-7.40136 0,0 0.98821,0.4941 0.98821,0.4941 z"
     inkscape:connector-curvature="0" />
  <path
     style="color:#000000;fill:#000000;fill-opacity:1;fill-rule:nonzero;stroke:none;stroke-width:1.10300004;marker:none;visibility:visible;display:inline;overflow:visible;enable-background:accumulate"
     id="path4788"
     d="m 115.67399,349.33027 c 1.96773,0.3477 3.95828,0.48945 5.93263,0.79654 0,0 -0.17037,1.09164 -0.17037,1.09164 l 0,0 c -1.98941,-0.31158 -3.99673,-0.44765 -5.97894,-0.80478 0,0 0.21668,-1.0834 0.21668,-1.0834 z"
     inkscape:connector-curvature="0" />
  <path
     style="color:#000000;fill:#000000;fill-opacity:1;fill-rule:nonzero;stroke:none;stroke-width:1.10300004;marker:none;visibility:visible;display:inline;overflow:visible;enable-background:accumulate"
     id="path4782-6"
     d="m 434.18515,143.83405 c -2.16754,-0.87275 -4.3409,-1.72987 -6.6046,-2.32207 -2.10646,-0.51991 -4.05831,-0.80314 -6.02139,0.21768 -1.67215,1.12016 -1.32895,2.13933 -0.17371,3.47802 2.29395,1.61645 4.76965,2.94058 7.2296,4.28029 2.5193,1.39399 4.79228,3.1971 5.84426,5.93343 0.0517,0.67591 0.2399,1.44525 -0.19828,2.07274 -1.25883,1.80268 -4.11835,2.16179 -6.07256,2.56943 -3.60099,0.76519 -7.12708,0.0716 -10.41392,-1.45933 -1.04482,-0.58069 -1.6487,-1.22933 -2.0702,-2.31067 0,0 1.04865,-0.34791 1.04865,-0.34791 l 0,0 c 0.17817,0.81432 0.81606,1.21303 1.49115,1.65849 3.06088,1.45015 6.35995,2.08694 9.72011,1.37755 1.52987,-0.31484 4.09896,-0.58846 5.24794,-1.83494 0.33452,-0.3629 0.21985,-0.92756 0.2105,-1.34308 -0.87204,-2.49877 -3.11609,-4.07256 -5.3361,-5.34543 -2.57655,-1.40331 -5.19237,-2.77348 -7.54567,-4.53819 -1.71213,-2.06756 -1.8173,-3.54923 0.51933,-5.1762 2.23558,-1.10624 4.41582,-0.9162 6.80069,-0.30056 2.33628,0.6147 4.58371,1.49256 6.81831,2.40253 0,0 -0.49411,0.98822 -0.49411,0.98822 z"
     inkscape:connector-curvature="0" />
  <path
     style="color:#000000;fill:#000000;fill-opacity:1;fill-rule:nonzero;stroke:none;stroke-width:1.10300004;marker:none;visibility:visible;display:inline;overflow:visible;enable-background:accumulate"
     id="path4784-5"
     d="m 443.01258,155.7518 c -1.49027,-1.376 -3.10754,-1.87849 -5.07709,-1.57438 -1.6374,0.55227 -2.44438,1.60719 -2.25939,3.29873 0.93822,1.97616 3.00183,2.57528 5.0254,2.75858 0.38771,-0.0469 0.77542,-0.0939 1.16313,-0.14085 0,0 0.12153,1.09815 0.12153,1.09815 l 0,0 c -0.46464,0.0474 -0.92929,0.0947 -1.39393,0.14213 -2.56519,-0.27413 -5.05514,-1.13693 -6.01646,-3.75807 -0.18854,-2.44716 0.89724,-3.71939 3.1982,-4.49165 2.32084,-0.32994 4.27865,0.26616 6.01986,1.88611 0,0 -0.78125,0.78125 -0.78125,0.78125 z"
     inkscape:connector-curvature="0" />
  <path
     style="color:#000000;fill:#000000;fill-opacity:1;fill-rule:nonzero;stroke:none;stroke-width:1.10300004;marker:none;visibility:visible;display:inline;overflow:visible;enable-background:accumulate"
     id="path4786-5"
     d="m 448.44888,152.11393 c -1.11665,2.41751 -2.04576,4.91514 -3.11847,7.35257 -0.52922,1.22328 -0.99484,2.49866 -1.72919,3.62128 -0.28095,0.42949 -0.78054,0.95981 -0.83771,0.9025 -0.32456,-0.32534 -0.42092,-0.81706 -0.63138,-1.22559 1.15358,-2.59475 2.402,-5.14955 3.55906,-7.74495 0.79651,-1.8079 2.7664,-6.18947 3.87607,-1.6196 0.33336,2.89183 0.30011,5.79184 0.64991,8.68439 0,0 -1.09688,0.13247 -1.09688,0.13247 l 0,0 c -0.34443,-2.85553 -0.33132,-5.71591 -0.63065,-8.57306 -0.0553,-0.27035 -0.1642,-0.53513 -0.16574,-0.81106 -9.9e-4,-0.17761 0.33331,-0.59872 0.18615,-0.49927 -0.99397,0.67176 -1.17784,2.22703 -1.8098,3.13613 -1.14666,2.57037 -2.37972,5.10254 -3.52873,7.66961 -0.35259,-0.0142 -0.70718,-0.003 -1.05778,-0.0427 -0.0452,-0.005 0.089,-0.0313 0.12037,-0.0643 0.14598,-0.15358 0.28929,-0.3123 0.40583,-0.48926 0.7175,-1.08946 1.16239,-2.33404 1.67933,-3.52193 1.0812,-2.45326 2.01412,-4.96884 3.1414,-7.40136 0,0 0.98821,0.4941 0.98821,0.4941 z"
     inkscape:connector-curvature="0" />
  <path
     style="color:#000000;fill:#000000;fill-opacity:1;fill-rule:nonzero;stroke:none;stroke-width:1.10300004;marker:none;visibility:visible;display:inline;overflow:visible;enable-background:accumulate"
     id="path4788-2"
     d="m 444.56882,157.55783 c 1.96773,0.3477 3.95828,0.48945 5.93263,0.79654 0,0 -0.17037,1.09164 -0.17037,1.09164 l 0,0 c -1.98941,-0.31158 -3.99673,-0.44765 -5.97894,-0.80478 0,0 0.21668,-1.0834 0.21668,-1.0834 z"
     inkscape:connector-curvature="0" />
  <path
     style="color:#000000;fill:#000000;fill-opacity:1;fill-rule:nonzero;stroke:none;stroke-width:1.10300004;marker:none;visibility:visible;display:inline;overflow:visible;enable-background:accumulate"
     id="path4656-5"
     d="m 298.03234,404.11219 c -0.81231,2.40861 -1.5931,4.82647 -2.34769,7.25434 -0.0846,0.21761 -0.12013,0.46145 -0.25388,0.65283 -0.41091,0.58795 -0.91375,0.54012 -1.32838,-0.2764 -0.32906,-0.648 0.23816,-2.67322 0.31879,-3.33039 0.52135,-2.79525 1.04428,-5.5757 1.98957,-8.26323 1.44152,-2.89615 2.21665,1.70769 2.39017,2.59498 0.67281,2.54921 1.14997,5.13704 1.81656,7.68683 0.36329,1.53508 0.14701,0.81247 0.62823,2.1739 0,0 -1.04276,0.36516 -1.04276,0.36516 l 0,0 c -0.50867,-1.46488 -0.28861,-0.71223 -0.65441,-2.25963 -0.67247,-2.57256 -1.15549,-5.18317 -1.8322,-7.75561 -0.10415,-0.54026 -0.76611,-2.51519 -0.68112,-2.67266 0.10078,-0.18671 0.42818,-0.024 0.63034,-0.0884 0.0386,-0.0123 0.0448,-0.15344 0.0225,-0.11958 -0.0919,0.13946 -0.15689,0.29496 -0.23534,0.44243 -0.92325,2.61098 -1.42002,5.31521 -1.93491,8.03036 -0.008,0.0672 -0.33672,2.79523 -0.37462,2.82511 -0.16248,0.12807 -0.42403,-0.0504 -0.6205,0.0144 -0.0823,0.0272 -0.14628,0.31303 -0.12084,0.23019 0.0608,-0.19803 0.15183,-0.3855 0.22774,-0.57825 0.76341,-2.45562 1.55239,-4.90149 2.37692,-7.33671 0,0 1.02583,0.41033 1.02583,0.41033 z"
     inkscape:connector-curvature="0" />
  <path
     style="color:#000000;fill:#000000;fill-opacity:1;fill-rule:nonzero;stroke:none;stroke-width:1.10300004;marker:none;visibility:visible;display:inline;overflow:visible;enable-background:accumulate"
     id="path4658-3"
     d="m 296.12649,408.09664 c 2.10946,-0.39673 4.16862,-1.00803 6.27358,-1.43758 0,0 0.22066,1.0826 0.22066,1.0826 l 0,0 c -2.1064,0.42881 -4.16631,1.04318 -6.27756,1.43838 0,0 -0.21668,-1.0834 -0.21668,-1.0834 z"
     inkscape:connector-curvature="0" />
</svg>
