<?xml version="1.0" encoding="UTF-8" standalone="no"?>
<!-- Created with Inkscape (http://www.inkscape.org/) -->

<svg
   xmlns:dc="http://purl.org/dc/elements/1.1/"
   xmlns:cc="http://creativecommons.org/ns#"
   xmlns:rdf="http://www.w3.org/1999/02/22-rdf-syntax-ns#"
   xmlns:svg="http://www.w3.org/2000/svg"
   xmlns="http://www.w3.org/2000/svg"
   xmlns:sodipodi="http://sodipodi.sourceforge.net/DTD/sodipodi-0.dtd"
   xmlns:inkscape="http://www.inkscape.org/namespaces/inkscape"
   id="svg3036"
   version="1.1"
   inkscape:version="0.48.3.1 r9886"
   width="600"
   height="600"
   sodipodi:docname="vertex_scheme.png">
  <metadata
     id="metadata3042">
    <rdf:RDF>
      <cc:Work
         rdf:about="">
        <dc:format>image/svg+xml</dc:format>
        <dc:type
           rdf:resource="http://purl.org/dc/dcmitype/StillImage" />
        <dc:title></dc:title>
      </cc:Work>
    </rdf:RDF>
  </metadata>
  <defs
     id="defs3040" />
  <sodipodi:namedview
     pagecolor="#ffffff"
     bordercolor="#666666"
     borderopacity="1"
     objecttolerance="10"
     gridtolerance="10"
     guidetolerance="10"
     inkscape:pageopacity="0"
     inkscape:pageshadow="2"
     inkscape:window-width="1020"
     inkscape:window-height="806"
     id="namedview3038"
     showgrid="false"
     inkscape:zoom="0.83"
     inkscape:cx="407.48131"
     inkscape:cy="261.2273"
     inkscape:window-x="0"
     inkscape:window-y="31"
     inkscape:window-maximized="0"
     inkscape:current-layer="svg3036"
     showguides="true"
     inkscape:guide-bbox="true">
    <inkscape:grid
       type="xygrid"
       id="grid5981"
       empspacing="5"
       visible="true"
       enabled="true"
       snapvisiblegridlinesonly="true" />
  </sodipodi:namedview>
  <path
     style="fill:none;stroke:#000000;stroke-width:1.10291432999999994px;stroke-linecap:butt;stroke-linejoin:miter;stroke-opacity:0.38916257"
     d="m 293.0019,91.00024 2.19569,407.32307"
     id="path3772"
     inkscape:connector-curvature="0" />
  <rect
     style="color:#000000;fill:#ffffff;fill-opacity:1;stroke:none;stroke-width:0.30000001;marker:none;visibility:visible;display:inline;overflow:visible;enable-background:accumulate"
     id="rect6561-8-0-1"
     width="74.870041"
     height="40.878235"
     x="250.48285"
     y="313.79333" />
  <rect
     style="color:#000000;fill:#ffffff;fill-opacity:1;stroke:none;stroke-width:0.30000001;marker:none;visibility:visible;display:inline;overflow:visible;enable-background:accumulate"
     id="rect6561-8-0"
     width="74.870041"
     height="49.397594"
     x="254.13129"
     y="230.72289" />
  <path
     style="fill:none;stroke:#ff0000;stroke-width:1.10300004;stroke-linecap:butt;stroke-linejoin:miter;stroke-miterlimit:4;stroke-opacity:1;stroke-dasharray:13.236, 13.236;stroke-dashoffset:0"
     d="M 105.30851,502.56576 107.50419,95.2427"
     id="path3772-8-2"
     inkscape:connector-curvature="0" />
  <path
     style="color:#000000;fill-opacity:1;fill-rule:nonzero;stroke-width:1;stroke-linecap:butt;stroke-linejoin:miter;stroke-miterlimit:4;stroke-opacity:1;stroke-dasharray:none;stroke-dashoffset:0;marker:none;visibility:visible;display:inline;overflow:visible;enable-background:accumulate"
     id="path3253-5-8"
     d="m 294.78476,485.14547 c -2.57485,0.142 -4.72165,1.05611 -6.6776,2.69698 -1.62276,1.68803 -1.61641,3.6393 -1.36476,5.8047 0.54457,1.89296 1.46502,3.63773 3.0378,4.85391 1.84547,1.00091 3.60568,2.12334 5.75298,2.23248 2.24003,0.0195 3.83862,-1.5363 5.47689,-2.8521 1.74959,-1.65389 2.74352,-3.85917 3.42052,-6.12959 0.40554,-2.59596 -0.20965,-3.23055 -2.09821,-4.69166 -1.93898,-1.33868 -4.28355,-1.58171 -6.56571,-1.79223 -3.15752,-0.0212 -5.35334,1.93097 -7.48894,3.99753 -0.33739,0.46111 -0.67477,0.92221 -1.01216,1.38331 0,0 -1.18101,-0.87476 -1.18101,-0.87476 l 0,0 c 0.39068,-0.52186 0.78137,-1.04373 1.17206,-1.56559 2.45604,-2.36863 5.03287,-4.48176 8.64601,-4.40389 2.56392,0.23977 5.16961,0.5619 7.32914,2.09327 2.39094,1.85026 3.15151,3.15196 2.60617,6.27759 -0.77493,2.55344 -1.91159,5.01399 -3.90772,6.85202 -1.93797,1.55551 -3.8484,3.25103 -6.49871,3.17228 -2.44278,-0.20314 -4.48979,-1.31716 -6.56934,-2.55095 -1.84074,-1.51021 -3.00442,-3.52012 -3.57984,-5.83374 -0.30379,-2.66878 -0.13187,-5.08874 1.88843,-7.10535 2.24099,-1.82973 4.6997,-2.90544 7.62729,-3.03385 0,0 -0.0133,1.46964 -0.0133,1.46964 z"
     inkscape:connector-curvature="0" />
  <path
     sodipodi:type="arc"
     style="color:#000000;fill:#000000;fill-opacity:1;fill-rule:nonzero;stroke-width:1;stroke-linecap:butt;stroke-linejoin:miter;stroke-miterlimit:4;stroke-opacity:1;stroke-dasharray:12, 12;stroke-dashoffset:0;marker:none;visibility:visible;display:inline;overflow:visible;enable-background:accumulate"
     id="path4447-6"
     sodipodi:cx="97.120689"
     sodipodi:cy="64.136719"
     sodipodi:rx="8.5193586"
     sodipodi:ry="7.6674228"
     d="m 105.64005,64.136719 a 8.5193586,7.6674228 0 1 1 -17.038719,0 8.5193586,7.6674228 0 1 1 17.038719,0 z"
     transform="matrix(1.2197965,0.01103034,-0.01103034,1.2197965,176.92786,412.32566)" />
  <path
     style="color:#000000;fill-opacity:1;fill-rule:nonzero;stroke:#ff0000;stroke-width:1;stroke-linecap:butt;stroke-linejoin:miter;stroke-miterlimit:4;stroke-opacity:1;stroke-dasharray:none;stroke-dashoffset:0;marker:none;visibility:visible;display:inline;overflow:visible;enable-background:accumulate"
     id="path3253-5-8-8"
     d="m 294.28797,484.72969 c -2.57485,0.142 -4.72165,1.05611 -6.6776,2.69698 -1.62276,1.68803 -1.61641,3.6393 -1.36476,5.8047 0.54457,1.89296 1.46502,3.63773 3.0378,4.85392 1.84547,1.0009 3.60568,2.12333 5.75298,2.23247 2.24003,0.0195 3.83862,-1.5363 5.47689,-2.8521 1.74959,-1.65389 2.74352,-3.85917 3.42052,-6.12959 0.40554,-2.59596 -0.20965,-3.23055 -2.09821,-4.69166 -1.93898,-1.33868 -4.28355,-1.58171 -6.56571,-1.79223 -3.15752,-0.0212 -5.35334,1.93097 -7.48894,3.99753 -0.33739,0.46111 -0.67477,0.92222 -1.01216,1.38331 0,0 -1.18101,-0.87476 -1.18101,-0.87476 l 0,0 c 0.39068,-0.52186 0.78137,-1.04372 1.17206,-1.56559 2.45604,-2.36863 5.03287,-4.48175 8.64601,-4.40388 2.56392,0.23976 5.16961,0.56189 7.32914,2.09326 2.39094,1.85026 3.15151,3.15196 2.60617,6.27759 -0.77493,2.55344 -1.91159,5.01399 -3.90772,6.85202 -1.93797,1.55551 -3.8484,3.25103 -6.49871,3.17228 -2.44278,-0.20313 -4.48979,-1.31716 -6.56934,-2.55095 -1.84075,-1.51021 -3.00442,-3.52012 -3.57984,-5.83374 -0.30379,-2.66878 -0.13187,-5.08874 1.88843,-7.10535 2.24099,-1.82973 4.6997,-2.90544 7.62729,-3.03385 0,0 -0.0133,1.46964 -0.0133,1.46964 z"
     inkscape:connector-curvature="0" />
  <path
     style="color:#000000;fill-opacity:1;fill-rule:nonzero;stroke:#ff0000;stroke-width:1;stroke-linecap:butt;stroke-linejoin:miter;stroke-miterlimit:4;stroke-opacity:1;stroke-dasharray:none;stroke-dashoffset:0;marker:none;visibility:visible;display:inline;overflow:visible;enable-background:accumulate"
     id="path3253-4-6"
     d="m 104.87623,287.86787 c -2.57485,0.142 -4.72166,1.05611 -6.67761,2.69698 -1.62275,1.68803 -1.6164,3.6393 -1.36475,5.8047 0.54457,1.89296 1.46501,3.63773 3.03779,4.85392 1.84548,1.0009 3.60569,2.12333 5.75299,2.23247 2.24003,0.0195 3.83862,-1.5363 5.47688,-2.8521 1.74959,-1.65389 2.74352,-3.85917 3.42053,-6.12959 0.40553,-2.59596 -0.20966,-3.23055 -2.09822,-4.69166 -1.93898,-1.33868 -4.28355,-1.58171 -6.5657,-1.79223 -3.15752,-0.0212 -5.35335,1.93097 -7.48895,3.99753 -0.33738,0.46111 -0.67477,0.92221 -1.01215,1.38331 0,0 -1.18101,-0.87476 -1.18101,-0.87476 l 0,0 c 0.39068,-0.52186 0.78136,-1.04372 1.17205,-1.56559 2.45604,-2.36863 5.03287,-4.48175 8.64601,-4.40388 2.56392,0.23976 5.16961,0.56189 7.32914,2.09326 2.39094,1.85026 3.15151,3.15196 2.60617,6.27759 -0.77492,2.55344 -1.91158,5.01399 -3.90772,6.85202 -1.93796,1.55551 -3.84839,3.25103 -6.49871,3.17228 -2.44277,-0.20313 -4.48979,-1.31716 -6.56934,-2.55095 -1.84074,-1.51021 -3.00441,-3.52012 -3.57984,-5.83374 -0.30379,-2.66878 -0.13187,-5.08874 1.88844,-7.10535 2.24099,-1.82973 4.69969,-2.90544 7.62729,-3.03385 0,0 -0.0133,1.46964 -0.0133,1.46964 z"
     inkscape:connector-curvature="0" />
  <path
     style="color:#000000;fill:#000000;fill-opacity:1;fill-rule:nonzero;stroke-width:1;stroke-linecap:butt;stroke-linejoin:miter;stroke-miterlimit:4;stroke-opacity:1;stroke-dasharray:none;stroke-dashoffset:0;marker:none;visibility:visible;display:inline;overflow:visible;enable-background:accumulate"
     id="path3253-5-9-4"
     d="m 108.84944,286.34126 c -2.57485,0.142 -4.72166,1.05611 -6.67761,2.69698 -1.62275,1.68803 -1.6164,3.6393 -1.36475,5.8047 0.54457,1.89296 1.46501,3.63773 3.03779,4.85392 1.84548,1.0009 3.60569,2.12333 5.75299,2.23247 2.24003,0.0195 3.83862,-1.5363 5.47688,-2.8521 1.74959,-1.65389 2.74352,-3.85917 3.42053,-6.12959 0.40553,-2.59596 -0.20966,-3.23055 -2.09821,-4.69166 -1.93899,-1.33868 -4.28355,-1.58171 -6.56571,-1.79223 -3.15752,-0.0212 -5.35335,1.93097 -7.48895,3.99753 -0.33738,0.46111 -0.67477,0.92222 -1.01215,1.38331 0,0 -1.18101,-0.87476 -1.18101,-0.87476 l 0,0 c 0.39068,-0.52186 0.78136,-1.04372 1.17206,-1.56559 2.45603,-2.36863 5.03286,-4.48175 8.646,-4.40388 2.56392,0.23976 5.16961,0.56189 7.32914,2.09326 2.39095,1.85026 3.15151,3.15196 2.60617,6.27759 -0.77492,2.55344 -1.91158,5.01399 -3.90772,6.85202 -1.93796,1.55551 -3.84839,3.25103 -6.49871,3.17228 -2.44277,-0.20313 -4.48979,-1.31716 -6.56934,-2.55095 -1.84074,-1.51021 -3.00441,-3.52012 -3.57984,-5.83374 -0.30378,-2.66878 -0.13187,-5.08874 1.88844,-7.10535 2.24099,-1.82973 4.69969,-2.90544 7.62729,-3.03385 0,0 -0.0133,1.46964 -0.0133,1.46964 z"
     inkscape:connector-curvature="0" />
  <path
     style="color:#000000;fill-opacity:1;fill-rule:nonzero;stroke-width:1;stroke-linecap:butt;stroke-linejoin:miter;stroke-miterlimit:4;stroke-opacity:1;stroke-dasharray:none;stroke-dashoffset:0;marker:none;visibility:visible;display:inline;overflow:visible;enable-background:accumulate"
     id="path3253-5-8-8-6"
     d="m 294.96899,287.46578 c -2.57485,0.142 -4.72166,1.05611 -6.6776,2.69698 -1.62276,1.68803 -1.61641,3.6393 -1.36476,5.8047 0.54457,1.89296 1.46501,3.63773 3.0378,4.85391 1.84547,1.00091 3.60568,2.12334 5.75298,2.23248 2.24003,0.0195 3.83862,-1.53631 5.47688,-2.8521 1.74959,-1.65389 2.74352,-3.85917 3.42053,-6.12959 0.40553,-2.59596 -0.20966,-3.23055 -2.09821,-4.69166 -1.93899,-1.33868 -4.28355,-1.58171 -6.56571,-1.79224 -3.15752,-0.0212 -5.35335,1.93097 -7.48895,3.99754 -0.33738,0.46111 -0.67477,0.92221 -1.01215,1.38331 0,0 -1.18101,-0.87476 -1.18101,-0.87476 l 0,0 c 0.39068,-0.52186 0.78136,-1.04373 1.17206,-1.56559 2.45604,-2.36863 5.03286,-4.48176 8.646,-4.40389 2.56392,0.23977 5.16961,0.5619 7.32914,2.09327 2.39095,1.85026 3.15152,3.15196 2.60617,6.27759 -0.77492,2.55344 -1.91158,5.01399 -3.90772,6.85202 -1.93796,1.55551 -3.84839,3.25103 -6.49871,3.17228 -2.44277,-0.20314 -4.48978,-1.31716 -6.56933,-2.55095 -1.84075,-1.51021 -3.00442,-3.52012 -3.57985,-5.83374 -0.30378,-2.66879 -0.13187,-5.08874 1.88844,-7.10535 2.24099,-1.82973 4.6997,-2.90544 7.62729,-3.03385 0,0 -0.0133,1.46964 -0.0133,1.46964 z"
     inkscape:connector-curvature="0" />
  <path
     sodipodi:type="arc"
     style="color:#000000;fill:#000000;fill-opacity:1;fill-rule:nonzero;stroke-width:1;stroke-linecap:butt;stroke-linejoin:miter;stroke-miterlimit:4;stroke-opacity:1;stroke-dasharray:12, 12;stroke-dashoffset:0;marker:none;visibility:visible;display:inline;overflow:visible;enable-background:accumulate"
     id="path4447-4-3"
     sodipodi:cx="97.120689"
     sodipodi:cy="64.136719"
     sodipodi:rx="8.5193586"
     sodipodi:ry="7.6674228"
     d="m 105.64005,64.136719 a 8.5193586,7.6674228 0 1 1 -17.038719,0 8.5193586,7.6674228 0 1 1 17.038719,0 z"
     transform="matrix(1.2197965,0.01103034,-0.01103034,1.2197965,-8.867218,213.96454)" />
  <path
     sodipodi:type="arc"
     style="color:#000000;fill:#000000;fill-opacity:1;fill-rule:nonzero;stroke-width:1;stroke-linecap:butt;stroke-linejoin:miter;stroke-miterlimit:4;stroke-opacity:1;stroke-dasharray:12, 12;stroke-dashoffset:0;marker:none;visibility:visible;display:inline;overflow:visible;enable-background:accumulate"
     id="path4447-6-6-9"
     sodipodi:cx="97.120689"
     sodipodi:cy="64.136719"
     sodipodi:rx="8.5193586"
     sodipodi:ry="7.6674228"
     d="m 105.64005,64.136719 a 8.5193586,7.6674228 0 1 1 -17.038719,0 8.5193586,7.6674228 0 1 1 17.038719,0 z"
     transform="matrix(1.2197965,0.01103034,-0.01103034,1.2197965,177.11209,214.64597)" />
  <path
     style="color:#000000;fill-opacity:1;fill-rule:nonzero;stroke:#ff0000;stroke-width:1;stroke-linecap:butt;stroke-linejoin:miter;stroke-miterlimit:4;stroke-opacity:1;stroke-dasharray:none;stroke-dashoffset:0;marker:none;visibility:visible;display:inline;overflow:visible;enable-background:accumulate"
     id="path3253-5-8-8-8"
     d="m 293.49422,89.94967 c -2.57485,0.142 -4.72165,1.05611 -6.6776,2.69699 -1.62276,1.68803 -1.61641,3.6393 -1.36476,5.80469 0.54457,1.89296 1.46502,3.63773 3.0378,4.85392 1.84547,1.0009 3.60568,2.12334 5.75298,2.23248 2.24003,0.0195 3.83862,-1.53631 5.47689,-2.85211 1.74958,-1.65389 2.74351,-3.85917 3.42052,-6.12958 0.40553,-2.59597 -0.20965,-3.23056 -2.09821,-4.69167 -1.93899,-1.33868 -4.28355,-1.5817 -6.56571,-1.79223 -3.15752,-0.0212 -5.35335,1.93097 -7.48894,3.99753 -0.33739,0.46111 -0.67477,0.92222 -1.01216,1.38331 0,0 -1.18101,-0.87475 -1.18101,-0.87475 l 0,0 c 0.39068,-0.52187 0.78136,-1.04373 1.17206,-1.56559 2.45604,-2.36863 5.03287,-4.48176 8.64601,-4.40389 2.56392,0.23976 5.16961,0.5619 7.32914,2.09327 2.39094,1.85025 3.15151,3.15195 2.60617,6.27758 -0.77493,2.55345 -1.91159,5.01399 -3.90772,6.85203 -1.93797,1.55551 -3.8484,3.25103 -6.49872,3.17227 -2.44277,-0.20313 -4.48978,-1.31716 -6.56933,-2.55094 -1.84075,-1.51022 -3.00442,-3.52012 -3.57984,-5.83375 -0.30379,-2.66878 -0.13187,-5.08873 1.88843,-7.10535 2.24099,-1.82973 4.6997,-2.90544 7.62729,-3.03384 0,0 -0.0133,1.46963 -0.0133,1.46963 z"
     inkscape:connector-curvature="0" />
  <path
     style="color:#000000;fill-opacity:1;fill-rule:nonzero;stroke:#ff0000;stroke-width:1;stroke-linecap:butt;stroke-linejoin:miter;stroke-miterlimit:4;stroke-opacity:1;stroke-dasharray:none;stroke-dashoffset:0;marker:none;visibility:visible;display:inline;overflow:visible;enable-background:accumulate"
     id="path3253-5-8-8-6-9"
     d="m 489.3901,287.50734 c -2.57485,0.142 -4.72165,1.05612 -6.6776,2.69699 -1.62276,1.68803 -1.61641,3.6393 -1.36476,5.8047 0.54457,1.89295 1.46502,3.63773 3.0378,4.85391 1.84547,1.0009 3.60568,2.12334 5.75298,2.23248 2.24003,0.0195 3.83862,-1.53631 5.47689,-2.85211 1.74958,-1.65388 2.74352,-3.85917 3.42052,-6.12958 0.40554,-2.59597 -0.20965,-3.23056 -2.09821,-4.69166 -1.93898,-1.33868 -4.28355,-1.58171 -6.56571,-1.79224 -3.15752,-0.0212 -5.35334,1.93097 -7.48894,3.99754 -0.33739,0.4611 -0.67477,0.92221 -1.01216,1.38331 0,0 -1.18101,-0.87476 -1.18101,-0.87476 l 0,0 c 0.39068,-0.52186 0.78137,-1.04373 1.17206,-1.56559 2.45604,-2.36863 5.03287,-4.48176 8.64601,-4.40389 2.56392,0.23977 5.16961,0.5619 7.32914,2.09327 2.39094,1.85026 3.15151,3.15196 2.60617,6.27758 -0.77493,2.55345 -1.91159,5.014 -3.90772,6.85203 -1.93797,1.55551 -3.8484,3.25103 -6.49871,3.17228 -2.44278,-0.20314 -4.48979,-1.31716 -6.56934,-2.55095 -1.84075,-1.51021 -3.00442,-3.52012 -3.57984,-5.83375 -0.30379,-2.66878 -0.13187,-5.08873 1.88843,-7.10534 2.24099,-1.82974 4.6997,-2.90545 7.62729,-3.03385 0,0 -0.0133,1.46963 -0.0133,1.46963 z"
     inkscape:connector-curvature="0" />
  <path
     style="color:#000000;fill-opacity:1;fill-rule:nonzero;stroke-width:1;stroke-linecap:butt;stroke-linejoin:miter;stroke-miterlimit:4;stroke-opacity:1;stroke-dasharray:none;stroke-dashoffset:0;marker:none;visibility:visible;display:inline;overflow:visible;enable-background:accumulate"
     id="path3253-5-8-8-6-2"
     d="m 485.45999,286.88824 c -2.57485,0.142 -4.72166,1.05611 -6.67761,2.69698 -1.62276,1.68804 -1.61641,3.63931 -1.36476,5.8047 0.54458,1.89296 1.46502,3.63773 3.0378,4.85392 1.84547,1.0009 3.60569,2.12334 5.75299,2.23248 2.24002,0.0195 3.83862,-1.53631 5.47688,-2.85211 1.74959,-1.65389 2.74352,-3.85917 3.42052,-6.12958 0.40554,-2.59597 -0.20965,-3.23056 -2.09821,-4.69167 -1.93898,-1.33868 -4.28355,-1.5817 -6.5657,-1.79223 -3.15753,-0.0212 -5.35335,1.93097 -7.48895,3.99753 -0.33738,0.46111 -0.67477,0.92222 -1.01215,1.38331 0,0 -1.18102,-0.87475 -1.18102,-0.87475 l 0,0 c 0.39069,-0.52187 0.78137,-1.04373 1.17206,-1.5656 2.45604,-2.36862 5.03287,-4.48175 8.64601,-4.40388 2.56392,0.23976 5.16961,0.5619 7.32914,2.09327 2.39094,1.85025 3.15151,3.15195 2.60617,6.27758 -0.77492,2.55345 -1.91159,5.01399 -3.90772,6.85203 -1.93796,1.55551 -3.84839,3.25102 -6.49871,3.17227 -2.44278,-0.20313 -4.48979,-1.31716 -6.56934,-2.55094 -1.84074,-1.51022 -3.00442,-3.52012 -3.57984,-5.83375 -0.30379,-2.66878 -0.13187,-5.08873 1.88844,-7.10535 2.24099,-1.82973 4.69969,-2.90544 7.62729,-3.03384 0,0 -0.0133,1.46963 -0.0133,1.46963 z"
     inkscape:connector-curvature="0" />
  <path
     sodipodi:type="arc"
     style="color:#000000;fill:#000000;fill-opacity:1;fill-rule:nonzero;stroke-width:1;stroke-linecap:butt;stroke-linejoin:miter;stroke-miterlimit:4;stroke-opacity:1;stroke-dasharray:12, 12;stroke-dashoffset:0;marker:none;visibility:visible;display:inline;overflow:visible;enable-background:accumulate"
     id="path4447-6-6-9-7"
     sodipodi:cx="97.120689"
     sodipodi:cy="64.136719"
     sodipodi:rx="8.5193586"
     sodipodi:ry="7.6674228"
     d="m 105.64005,64.136719 a 8.5193586,7.6674228 0 1 1 -17.038719,0 8.5193586,7.6674228 0 1 1 17.038719,0 z"
     transform="matrix(1.2197965,0.01103034,-0.01103034,1.2197965,367.60308,214.06843)" />
  <path
     style="color:#000000;fill-opacity:1;fill-rule:nonzero;stroke-width:1;stroke-linecap:butt;stroke-linejoin:miter;stroke-miterlimit:4;stroke-opacity:1;stroke-dasharray:none;stroke-dashoffset:0;marker:none;visibility:visible;display:inline;overflow:visible;enable-background:accumulate"
     id="path3253-5-8-8-8-9"
     d="m 292.09212,89.82013 c -2.57485,0.142 -4.72166,1.05611 -6.67761,2.69699 -1.62276,1.68803 -1.61641,3.6393 -1.36476,5.80469 0.54458,1.89296 1.46502,3.63773 3.0378,4.85392 1.84547,1.0009 3.60568,2.12334 5.75298,2.23248 2.24003,0.0195 3.83862,-1.53631 5.47689,-2.85211 1.74959,-1.65389 2.74352,-3.85917 3.42052,-6.12958 0.40554,-2.59597 -0.20965,-3.23056 -2.09821,-4.69167 -1.93898,-1.33868 -4.28355,-1.5817 -6.56571,-1.79223 -3.15752,-0.0212 -5.35334,1.93097 -7.48894,3.99753 -0.33739,0.46111 -0.67477,0.92222 -1.01215,1.38331 0,0 -1.18102,-0.87475 -1.18102,-0.87475 l 0,0 c 0.39068,-0.52187 0.78137,-1.04373 1.17206,-1.56559 2.45604,-2.36863 5.03287,-4.48176 8.64601,-4.40389 2.56392,0.23976 5.16961,0.5619 7.32914,2.09327 2.39094,1.85025 3.15151,3.15195 2.60617,6.27758 -0.77493,2.55345 -1.91159,5.01399 -3.90772,6.85203 -1.93797,1.55551 -3.84839,3.25103 -6.49871,3.17227 -2.44278,-0.20313 -4.48979,-1.31716 -6.56934,-2.55094 -1.84074,-1.51021 -3.00442,-3.52012 -3.57984,-5.83375 -0.30379,-2.66878 -0.13187,-5.08873 1.88843,-7.10535 2.24099,-1.82973 4.6997,-2.90544 7.6273,-3.03384 0,0 -0.0133,1.46963 -0.0133,1.46963 z"
     inkscape:connector-curvature="0" />
  <path
     sodipodi:type="arc"
     style="color:#000000;fill:#000000;fill-opacity:1;fill-rule:nonzero;stroke-width:1;stroke-linecap:butt;stroke-linejoin:miter;stroke-miterlimit:4;stroke-opacity:1;stroke-dasharray:12, 12;stroke-dashoffset:0;marker:none;visibility:visible;display:inline;overflow:visible;enable-background:accumulate"
     id="path4447-6-6-4-1"
     sodipodi:cx="97.120689"
     sodipodi:cy="64.136719"
     sodipodi:rx="8.5193586"
     sodipodi:ry="7.6674228"
     d="m 105.64005,64.136719 a 8.5193586,7.6674228 0 1 1 -17.038719,0 8.5193586,7.6674228 0 1 1 17.038719,0 z"
     transform="matrix(1.2197965,0.01103034,-0.01103034,1.2197965,174.23521,17.000326)" />
  <path
     style="fill:none;stroke:#000000;stroke-width:0.57680535px;stroke-linecap:butt;stroke-linejoin:miter;stroke-opacity:1"
     d="m 296.81128,259.6166 c -0.83091,-0.52127 -2.91983,-0.54016 -2.49276,-1.56386 0.42708,-1.02366 1.66185,1.04259 2.49276,1.56386 z"
     id="path4671-2-5-2"
     inkscape:connector-curvature="0" />
  <path
     style="color:#000000;fill-opacity:1;fill-rule:nonzero;stroke:none;stroke-width:0.69999999;marker:none;visibility:visible;display:inline;overflow:visible;enable-background:accumulate"
     id="path5404-3"
     d="m 293.92404,265.8079 c -1.01187,1.50294 -2.05462,3.39097 -0.92531,5.08942 1.35933,1.12219 3.21802,1.1346 4.88713,1.2308 0.33104,-0.0321 0.66207,-0.0642 0.9931,-0.0963 0,0 0.0952,1.09087 0.0952,1.09087 l 0,0 c -0.38324,0.033 -0.76648,0.0659 -1.14973,0.0989 -2.0333,-0.11915 -4.22333,-0.19163 -5.74418,-1.7566 -1.21957,-2.21222 -0.39193,-4.37046 0.99075,-6.32194 0,0 0.8531,0.66488 0.8531,0.66488 z"
     inkscape:connector-curvature="0" />
  <path
     style="color:#000000;fill-opacity:1;fill-rule:nonzero;stroke:none;stroke-width:0.69999999;marker:none;visibility:visible;display:inline;overflow:visible;enable-background:accumulate"
     id="path5202-2"
     d="m 309.05161,264.83644 c -0.0226,2.49787 -0.0452,4.99575 -0.0678,7.49363 -0.098,2.26021 -1.2267,3.75881 -3.46448,3.89655 -1.37788,-0.23151 -2.46115,-1.0541 -3.45967,-1.99635 0,0 0.73463,-0.79909 0.73463,-0.79909 l 0,0 c 0.77663,0.7548 1.63108,1.40925 2.68133,1.70116 1.66801,-0.0222 2.36021,-1.15964 2.43439,-2.81198 0.0226,-2.49788 0.0452,-4.99576 0.0678,-7.49363 0,0 1.0738,0.01 1.0738,0.01 z"
     inkscape:connector-curvature="0" />
  <path
     style="fill:none;stroke:#000000;stroke-width:0.57680535px;stroke-linecap:butt;stroke-linejoin:miter;stroke-opacity:1"
     d="m 309.53853,259.99437 c -0.83093,-0.52127 -2.91984,-0.54016 -2.49277,-1.56384 0.42709,-1.02368 1.66184,1.04257 2.49277,1.56384 z"
     id="path4671-2-1"
     inkscape:connector-curvature="0" />
  <path
     style="color:#000000;fill-opacity:1;fill-rule:nonzero;stroke:none;stroke-width:0.69999999;marker:none;visibility:visible;display:inline;overflow:visible;enable-background:accumulate"
     id="path5812"
     d="m 294.92064,243.7166 c -0.0169,1.87201 -0.0339,3.74403 -0.0508,5.61604 -0.35661,-0.15079 -0.83318,-0.14132 -1.0698,-0.45238 -0.15557,-0.20454 0.0927,-0.50922 0.14573,-0.76241 0.30548,-1.45741 0.86304,-2.63579 1.68822,-3.86018 1.49007,-1.59087 3.19476,-2.88936 4.90037,-0.87336 0.8603,1.87018 0.78776,3.99895 0.80674,6.02139 0,0 -1.07379,0.0108 -1.07379,0.0108 l 0,0 c -0.0164,-1.79127 0.0429,-3.66277 -0.58368,-5.36349 -0.85484,-1.44164 -2.37318,-0.0154 -3.16819,0.82991 -0.58548,0.84663 -1.04662,1.65372 -1.33633,2.65583 -0.017,0.0589 -0.30408,1.35028 -0.30527,1.35126 -0.30136,0.24625 -0.71853,0.28865 -1.0778,0.43297 0.0169,-1.87201 0.0338,-3.74403 0.0508,-5.61604 0,0 1.0738,0.01 1.0738,0.01 z"
     inkscape:connector-curvature="0" />
  <path
     style="fill:none;stroke:#000000;stroke-width:1.10172355000000000px;stroke-linecap:butt;stroke-linejoin:miter;stroke-opacity:0.39408866"
     d="m 101.5959,294.15318 382.44159,0.51884"
     id="path3774"
     inkscape:connector-curvature="0" />
  <path
     style="fill:none;stroke:#000000;stroke-width:1.10291432999999994px;stroke-linecap:butt;stroke-linejoin:miter;stroke-opacity:0.38916257"
     d="m 106.33923,91.42632 2.19568,407.32307"
     id="path3772-8"
     inkscape:connector-curvature="0" />
  <path
     style="fill:none;stroke:#000000;stroke-width:1.10291432999999994px;stroke-linecap:butt;stroke-linejoin:miter;stroke-opacity:0.38916257"
     d="m 487.00111,91.92905 2.19568,407.32307"
     id="path3772-3"
     inkscape:connector-curvature="0" />
  <path
     style="fill:none;stroke:#000000;stroke-width:1.10172355000000000px;stroke-linecap:butt;stroke-linejoin:miter;stroke-opacity:0.38916257"
     d="m 104.66722,96.64594 382.44159,0.51883"
     id="path3774-6"
     inkscape:connector-curvature="0" />
  <path
     style="fill:none;stroke:#000000;stroke-width:1.10172355000000000px;stroke-linecap:butt;stroke-linejoin:miter;stroke-opacity:0.38916257"
     d="m 106.94429,494.97001 382.44158,0.51883"
     id="path3774-0"
     inkscape:connector-curvature="0" />
  <path
     style="fill:none;stroke:#ff0000;stroke-width:1.10152125;stroke-linecap:butt;stroke-linejoin:miter;stroke-miterlimit:4;stroke-opacity:1;stroke-dasharray:13.21825528, 13.21825528;stroke-dashoffset:0"
     d="m 102.29388,96.56779 382.44159,0.51884"
     id="path3774-6-3"
     inkscape:connector-curvature="0" />
  <path
     style="fill:none;stroke:#ff0000;stroke-width:1.10172355;stroke-linecap:butt;stroke-linejoin:miter;stroke-miterlimit:4;stroke-opacity:1;stroke-dasharray:13.22068254, 13.22068254;stroke-dashoffset:0"
     d="m 106.39162,495.55195 382.44159,0.51883"
     id="path3774-6-4"
     inkscape:connector-curvature="0" />
  <path
     style="fill:none;stroke:#ff0000;stroke-width:1.10300004;stroke-linecap:butt;stroke-linejoin:miter;stroke-miterlimit:4;stroke-opacity:1;stroke-dasharray:13.236, 13.236;stroke-dashoffset:0"
     d="m 487.95655,89.93448 2.19568,407.32308"
     id="path3772-8-2-4"
     inkscape:connector-curvature="0" />
  <rect
     style="color:#000000;fill:#ffffff;fill-opacity:1;stroke:none;stroke-width:0.30000001;marker:none;visibility:visible;display:inline;overflow:visible;enable-background:accumulate"
     id="rect6561"
     width="74.870041"
     height="49.397594"
     x="162.92632"
     y="233.74715" />
  <rect
     style="color:#000000;fill:#ffffff;fill-opacity:1;stroke:none;stroke-width:0.30000001;marker:none;visibility:visible;display:inline;overflow:visible;enable-background:accumulate"
     id="rect6561-8"
     width="74.870041"
     height="49.397594"
     x="450.13126"
     y="231.2771" />
  <path
     style="fill:#ff0000;fill-opacity:1;stroke:none"
     d="m 475.28478,256.00641 c -0.87927,-0.59996 -3.09081,-0.61996 -2.6378,-1.79993 0.45302,-1.17996 1.75853,1.19997 2.6378,1.79993 z"
     id="path4671-2-5-2-9-4-0"
     inkscape:connector-curvature="0" />
  <path
     style="color:#000000;fill:#ff0000;fill-opacity:1;fill-rule:nonzero;stroke:none;stroke-width:0.69999999;marker:none;visibility:visible;display:inline;overflow:visible;enable-background:accumulate"
     id="path5404-3-8-7-8"
     d="m 472.22277,263.14316 c -1.07254,1.73272 -2.17812,3.9092 -0.98394,5.86539 1.4382,1.29197 3.40598,1.30468 5.17301,1.41413 0.3505,-0.0372 0.701,-0.0745 1.05149,-0.11175 0,0 0.0998,1.25695 0.0998,1.25695 l 0,0 c -0.40578,0.0383 -0.81155,0.0766 -1.21733,0.11489 -2.15257,-0.1356 -4.47111,-0.21725 -6.07992,-2.01928 -1.2893,-2.54814 -0.41124,-5.03581 1.05426,-7.28569 0,0 0.90262,0.76541 0.90262,0.76541 z"
     inkscape:connector-curvature="0" />
  <path
     style="color:#000000;fill:#ff0000;fill-opacity:1;fill-rule:nonzero;stroke:none;stroke-width:0.69999999;marker:none;visibility:visible;display:inline;overflow:visible;enable-background:accumulate"
     id="path5202-2-9-9-5"
     d="m 521.11069,262.1816 c -0.026,2.87834 -0.0521,5.75669 -0.0781,8.63503 -0.10565,2.60458 -1.30191,4.33239 -3.67119,4.493 -1.45857,-0.26561 -2.60475,-1.21258 -3.66109,-2.2975 0,0 0.77844,-0.92143 0.77844,-0.92143 l 0,0 c 0.82158,0.86911 1.72564,1.62253 2.83731,1.958 1.76595,-0.0271 2.49977,-1.33827 2.5797,-3.24235 0.026,-2.87834 0.0521,-5.75669 0.0781,-8.63503 0,0 1.13682,0.0103 1.13682,0.0103 z"
     inkscape:connector-curvature="0" />
  <path
     style="fill:#ff0000;fill-opacity:1;stroke:none"
     d="m 521.6303,256.6016 c -0.87926,-0.59997 -3.0908,-0.61997 -2.63779,-1.79994 0.45303,-1.17996 1.75853,1.19997 2.63779,1.79994 z"
     id="path4671-2-1-0-8-6"
     inkscape:connector-curvature="0" />
  <path
     style="color:#000000;fill:#ff0000;fill-opacity:1;fill-rule:nonzero;stroke:none;stroke-width:0.69999999;marker:none;visibility:visible;display:inline;overflow:visible;enable-background:accumulate"
     id="path5812-44-8-8"
     d="m 467.65412,235.54013 c -0.0195,2.15717 -0.039,4.31433 -0.0585,6.47149 -0.37741,-0.17347 -0.88197,-0.16215 -1.13221,-0.5204 -0.16455,-0.23554 0.0985,-0.58683 0.15491,-0.87866 0.32466,-1.67963 0.91595,-3.03797 1.79061,-4.44955 1.57891,-1.83443 3.38477,-3.33214 5.1888,-1.01054 0.90923,2.1543 0.83064,4.60739 0.84903,6.93785 0,0 -1.13686,0.0133 -1.13686,0.0133 l 0,0 c -0.0159,-2.06408 0.0479,-4.22068 -0.6134,-6.17993 -0.90381,-1.66048 -2.5125,-0.0154 -3.35489,0.959 -0.62058,0.97609 -1.10948,1.90649 -1.41704,3.06149 -0.0181,0.0679 -0.32308,1.55621 -0.32434,1.55734 -0.31925,0.284 -0.76097,0.33321 -1.14144,0.49982 0.0195,-2.15716 0.039,-4.31432 0.0585,-6.47148 0,0 1.13683,0.0103 1.13683,0.0103 z"
     inkscape:connector-curvature="0" />
  <path
     style="color:#000000;fill:#ff0000;fill-opacity:1;fill-rule:nonzero;stroke:none;stroke-width:0.69999999;marker:none;visibility:visible;display:inline;overflow:visible;enable-background:accumulate"
     id="path5908-0-3-5-2"
     d="m 477.99503,265.79792 c 2.59288,0.0234 5.18576,0.0469 7.77863,0.0703 0.84132,0.008 1.68262,0.0152 2.52394,0.0228 0,0 -0.0114,1.262 -0.0114,1.262 l 0,0 c -0.84132,-0.008 -1.68262,-0.0152 -2.52394,-0.0228 -2.59288,-0.0234 -5.18575,-0.0469 -7.77863,-0.0703 0,0 0.0114,-1.262 0.0114,-1.262 z"
     inkscape:connector-curvature="0" />
  <path
     style="color:#000000;fill:#ff0000;fill-opacity:1;fill-rule:nonzero;stroke:none;stroke-width:0.69999999;marker:none;visibility:visible;display:inline;overflow:visible;enable-background:accumulate"
     id="path5910-63-2-7-2"
     d="m 496.00908,261.2498 c -0.52213,3.53765 -0.77924,7.13102 -0.96614,10.72527 -0.089,2.22093 -0.0495,1.18077 -0.1198,3.12041 0,0 -1.1355,-0.0684 -1.1355,-0.0684 l 0,0 c 0.0709,-1.95694 0.031,-0.90515 0.12136,-3.15524 0.19113,-3.66714 0.45461,-7.33321 0.98833,-10.94234 0,0 1.11177,0.32023 1.11177,0.32023 z"
     inkscape:connector-curvature="0" />
  <rect
     style="color:#000000;fill:none;stroke:none;stroke-width:0.30000001;marker:none;visibility:visible;display:inline;overflow:visible;enable-background:accumulate"
     id="rect6051-4"
     width="45.783131"
     height="31.325302"
     x="465.01077"
     y="239.26505" />
  <path
     style="color:#000000;fill:none;stroke:#ff0000;stroke-width:0.5;stroke-linecap:butt;stroke-linejoin:miter;stroke-miterlimit:4;stroke-opacity:1;stroke-dasharray:none;stroke-dashoffset:0;marker:none;visibility:visible;display:inline;overflow:visible;enable-background:accumulate"
     id="path6749"
     d="m 483.94628,260.99297 c 0,1.11487 0,2.22974 0,3.34461 0,1.12187 0,2.24374 0,3.36561 0,1.0353 0,2.07061 0,3.10591 0.0359,0.85046 -0.07,1.71244 0.049,2.55694 0,0 -0.42212,0.0571 -0.42212,0.0571 l 0,0 c -0.11296,-0.86534 -0.0256,-1.74322 -0.0529,-2.61407 0,-1.0353 0,-2.07061 0,-3.10591 0,-1.12187 0,-2.24374 0,-3.36561 0,-1.11487 0,-2.22974 0,-3.34461 0,0 0.42597,0 0.42597,0 z"
     inkscape:connector-curvature="0" />
  <rect
     style="color:#000000;fill:#ffffff;fill-opacity:1;stroke:none;stroke-width:0.30000001;marker:none;visibility:visible;display:inline;overflow:visible;enable-background:accumulate"
     id="rect6561-80"
     width="74.870041"
     height="49.397594"
     x="250.92642"
     y="36.09639" />
  <path
     style="fill:none;stroke:#ff0000;stroke-width:0.63709295px;stroke-linecap:butt;stroke-linejoin:miter;stroke-opacity:1"
     d="m 276.07995,60.82569 c -0.87927,-0.59996 -3.09081,-0.61996 -2.6378,-1.79993 0.45302,-1.17996 1.75853,1.19997 2.6378,1.79993 z"
     id="path4671-2-5-2-9-4-5"
     inkscape:connector-curvature="0" />
  <path
     style="color:#000000;fill:#ff0000;fill-opacity:1;fill-rule:nonzero;stroke:none;stroke-width:0.69999999;marker:none;visibility:visible;display:inline;overflow:visible;enable-background:accumulate"
     id="path5404-3-8-7-2"
     d="m 273.01794,67.96244 c -1.07254,1.73272 -2.17812,3.9092 -0.98394,5.86539 1.4382,1.29197 3.40598,1.30468 5.17301,1.41413 0.3505,-0.0372 0.701,-0.0745 1.05149,-0.11175 0,0 0.0998,1.25695 0.0998,1.25695 l 0,0 c -0.40578,0.0383 -0.81155,0.0766 -1.21733,0.11489 -2.15257,-0.1356 -4.47111,-0.21725 -6.07992,-2.01928 -1.2893,-2.54814 -0.41124,-5.03581 1.05426,-7.28569 0,0 0.90262,0.76541 0.90262,0.76541 z"
     inkscape:connector-curvature="0" />
  <path
     style="color:#000000;fill:#ff0000;fill-opacity:1;fill-rule:nonzero;stroke:none;stroke-width:0.69999999;marker:none;visibility:visible;display:inline;overflow:visible;enable-background:accumulate"
     id="path5202-2-9-9-7"
     d="m 292.38779,68.80811 c -0.026,2.87834 -0.0521,5.75669 -0.0781,8.63503 -0.10565,2.60458 -1.30191,4.33239 -3.67119,4.493 -1.45857,-0.26561 -2.60475,-1.21258 -3.66109,-2.2975 0,0 0.77844,-0.92143 0.77844,-0.92143 l 0,0 c 0.82158,0.86911 1.72564,1.62253 2.83731,1.958 1.76595,-0.0271 2.49977,-1.33827 2.5797,-3.24235 0.026,-2.87834 0.0521,-5.75669 0.0781,-8.63503 0,0 1.13682,0.0103 1.13682,0.0103 z"
     inkscape:connector-curvature="0" />
  <path
     style="fill:none;stroke:#ff0000;stroke-width:0.63709295px;stroke-linecap:butt;stroke-linejoin:miter;stroke-opacity:1"
     d="m 292.9074,63.22811 c -0.87926,-0.59997 -3.0908,-0.61997 -2.63779,-1.79994 0.45303,-1.17996 1.75853,1.19997 2.63779,1.79994 z"
     id="path4671-2-1-0-8-3"
     inkscape:connector-curvature="0" />
  <path
     style="color:#000000;fill:#ff0000;fill-opacity:1;fill-rule:nonzero;stroke:none;stroke-width:0.69999999;marker:none;visibility:visible;display:inline;overflow:visible;enable-background:accumulate"
     id="path5812-44-8-86"
     d="m 268.44929,40.35941 c -0.0195,2.15717 -0.039,4.31433 -0.0585,6.47149 -0.37741,-0.17347 -0.88197,-0.16215 -1.13221,-0.5204 -0.16455,-0.23554 0.0985,-0.58683 0.15491,-0.87866 0.32466,-1.67963 0.91595,-3.03797 1.79061,-4.44955 1.57891,-1.83443 3.38477,-3.33214 5.1888,-1.01054 0.90923,2.1543 0.83064,4.60739 0.84903,6.93785 0,0 -1.13686,0.0133 -1.13686,0.0133 l 0,0 c -0.0159,-2.06408 0.0479,-4.22068 -0.6134,-6.17993 -0.90381,-1.66048 -2.5125,-0.0154 -3.35489,0.959 -0.62058,0.97609 -1.10948,1.90649 -1.41704,3.06149 -0.0181,0.0679 -0.32308,1.55621 -0.32434,1.55734 -0.31925,0.284 -0.76097,0.33321 -1.14144,0.49982 0.0195,-2.15716 0.039,-4.31432 0.0585,-6.47148 0,0 1.13683,0.0103 1.13683,0.0103 z"
     inkscape:connector-curvature="0" />
  <path
     style="color:#000000;fill:#ff0000;fill-opacity:1;fill-rule:nonzero;stroke:none;stroke-width:0.69999999;marker:none;visibility:visible;display:inline;overflow:visible;enable-background:accumulate"
     id="path5908-0-3-5-5"
     d="m 298.06731,71.21961 c 2.59288,0.0234 5.18576,0.0469 7.77863,0.0703 0.84132,0.008 1.68262,0.0152 2.52394,0.0228 0,0 -0.0114,1.262 -0.0114,1.262 l 0,0 c -0.84132,-0.008 -1.68262,-0.0152 -2.52394,-0.0228 -2.59288,-0.0234 -5.18575,-0.0469 -7.77863,-0.0703 0,0 0.0114,-1.262 0.0114,-1.262 z"
     inkscape:connector-curvature="0" />
  <path
     style="color:#000000;fill:#ff0000;fill-opacity:1;fill-rule:nonzero;stroke:none;stroke-width:0.69999999;marker:none;visibility:visible;display:inline;overflow:visible;enable-background:accumulate"
     id="path5910-63-2-7-7"
     d="m 316.08136,64.698729 c -0.52213,3.838531 -0.77924,7.737512 -0.96614,11.637456 -0.089,2.409828 -0.0495,1.281203 -0.1198,3.385801 0,0 -1.1355,-0.07419 -1.1355,-0.07419 l 0,0 c 0.0709,-2.123382 0.031,-0.982126 0.12136,-3.423596 0.19113,-3.979026 0.45461,-7.956901 0.98833,-11.872986 0,0 1.11177,0.347463 1.11177,0.347463 z"
     inkscape:connector-curvature="0" />
  <rect
     style="color:#000000;fill:none;stroke:none;stroke-width:0.30000001;marker:none;visibility:visible;display:inline;overflow:visible;enable-background:accumulate"
     id="rect6051-5"
     width="45.783131"
     height="31.325302"
     x="265.80594"
     y="44.084343" />
  <path
     style="color:#000000;fill:#ffffff;fill-opacity:1;fill-rule:nonzero;stroke:#ff0000;stroke-width:0.80000001;stroke-linecap:butt;stroke-linejoin:miter;stroke-miterlimit:4;stroke-opacity:1;stroke-dasharray:none;stroke-dashoffset:0;marker:none;visibility:visible;display:inline;overflow:visible;enable-background:accumulate"
     id="path6771"
     d="m 303.12048,65.37234 c 0.081,1.40287 -0.0756,2.78038 -0.2759,4.16504 -0.19452,1.26033 -0.26719,2.53329 -0.30675,3.80638 -0.0277,1.20353 -0.0244,2.40748 -0.0236,3.61124 8.8e-4,0.81532 0.0236,0.40227 -0.0728,1.2389 0,0 -0.59822,-0.0709 -0.59822,-0.0709 l 0,0 c 0.0936,-0.76497 0.0695,-0.37585 0.0686,-1.16758 -7.6e-4,-1.21014 -0.004,-2.42047 0.0239,-3.63037 0.0404,-1.29567 0.11487,-2.59118 0.31266,-3.87387 0.19618,-1.35637 0.35134,-2.70435 0.2697,-4.0788 0,0 0.60241,0 0.60241,0 z"
     inkscape:connector-curvature="0" />
  <rect
     style="color:#000000;fill:#ffffff;fill-opacity:1;stroke:none;stroke-width:0.30000001;marker:none;visibility:visible;display:inline;overflow:visible;enable-background:accumulate"
     id="rect6561-80-7"
     width="74.870041"
     height="49.397594"
     x="256.25821"
     y="509.59036" />
  <path
     style="fill:none;stroke:#ff0000;stroke-width:0.63709295px;stroke-linecap:butt;stroke-linejoin:miter;stroke-opacity:1"
     d="m 281.41172,528.31966 c -0.87927,-0.59996 -3.09081,-0.61996 -2.6378,-1.79993 0.45302,-1.17996 1.75853,1.19997 2.6378,1.79993 z"
     id="path4671-2-5-2-9-4-5-8"
     inkscape:connector-curvature="0" />
  <path
     style="color:#000000;fill:#ff0000;fill-opacity:1;fill-rule:nonzero;stroke:none;stroke-width:0.69999999;marker:none;visibility:visible;display:inline;overflow:visible;enable-background:accumulate"
     id="path5404-3-8-7-2-1"
     d="m 278.34971,535.45641 c -1.07254,1.73272 -2.17812,3.9092 -0.98394,5.86539 1.4382,1.29197 3.40598,1.30468 5.17301,1.41413 0.3505,-0.0372 0.701,-0.0745 1.05149,-0.11175 0,0 0.0998,1.25695 0.0998,1.25695 l 0,0 c -0.40578,0.0383 -0.81155,0.0766 -1.21733,0.11489 -2.15257,-0.1356 -4.47111,-0.21725 -6.07992,-2.01928 -1.2893,-2.54814 -0.41124,-5.03581 1.05426,-7.28569 0,0 0.90262,0.76541 0.90262,0.76541 z"
     inkscape:connector-curvature="0" />
  <path
     style="color:#000000;fill:#ff0000;fill-opacity:1;fill-rule:nonzero;stroke:none;stroke-width:0.69999999;marker:none;visibility:visible;display:inline;overflow:visible;enable-background:accumulate"
     id="path5202-2-9-9-7-4"
     d="m 297.71956,536.30208 c -0.026,2.87834 -0.0521,5.75669 -0.0781,8.63503 -0.10565,2.60458 -1.30191,4.33239 -3.67119,4.493 -1.45857,-0.26561 -2.60475,-1.21258 -3.66109,-2.2975 0,0 0.77844,-0.92143 0.77844,-0.92143 l 0,0 c 0.82158,0.86911 1.72564,1.62253 2.83731,1.958 1.76595,-0.0271 2.49977,-1.33827 2.5797,-3.24235 0.026,-2.87834 0.0521,-5.75669 0.0781,-8.63503 0,0 1.13682,0.0103 1.13682,0.0103 z"
     inkscape:connector-curvature="0" />
  <path
     style="fill:none;stroke:#ff0000;stroke-width:0.63709295px;stroke-linecap:butt;stroke-linejoin:miter;stroke-opacity:1"
     d="m 298.23917,530.72208 c -0.87926,-0.59997 -3.0908,-0.61997 -2.63779,-1.79994 0.45303,-1.17996 1.75853,1.19997 2.63779,1.79994 z"
     id="path4671-2-1-0-8-3-3"
     inkscape:connector-curvature="0" />
  <path
     style="color:#000000;fill:#ff0000;fill-opacity:1;fill-rule:nonzero;stroke:none;stroke-width:0.69999999;marker:none;visibility:visible;display:inline;overflow:visible;enable-background:accumulate"
     id="path5812-44-8-86-1"
     d="m 273.78106,507.85338 c -0.0195,2.15717 -0.039,4.31433 -0.0585,6.47149 -0.37741,-0.17347 -0.88197,-0.16215 -1.13221,-0.5204 -0.16455,-0.23554 0.0985,-0.58683 0.15491,-0.87866 0.32466,-1.67963 0.91595,-3.03797 1.79061,-4.44955 1.57891,-1.83443 3.38477,-3.33214 5.1888,-1.01054 0.90923,2.1543 0.83064,4.60739 0.84903,6.93785 0,0 -1.13686,0.0133 -1.13686,0.0133 l 0,0 c -0.0159,-2.06408 0.0479,-4.22068 -0.6134,-6.17993 -0.90381,-1.66048 -2.5125,-0.0154 -3.35489,0.959 -0.62058,0.97609 -1.10948,1.90649 -1.41704,3.06149 -0.0181,0.0679 -0.32308,1.55621 -0.32434,1.55734 -0.31925,0.284 -0.76097,0.33321 -1.14144,0.49982 0.0195,-2.15716 0.039,-4.31432 0.0585,-6.47148 0,0 1.13683,0.0103 1.13683,0.0103 z"
     inkscape:connector-curvature="0" />
  <path
     style="color:#000000;fill:#ff0000;fill-opacity:1;fill-rule:nonzero;stroke:none;stroke-width:0.69999999;marker:none;visibility:visible;display:inline;overflow:visible;enable-background:accumulate"
     id="path5908-0-3-5-5-1"
     d="m 303.39908,538.71358 c 2.59288,0.0234 5.18576,0.0469 7.77863,0.0703 0.84132,0.008 1.68262,0.0152 2.52394,0.0228 0,0 -0.0114,1.262 -0.0114,1.262 l 0,0 c -0.84132,-0.008 -1.68262,-0.0152 -2.52394,-0.0228 -2.59288,-0.0234 -5.18575,-0.0469 -7.77863,-0.0703 0,0 0.0114,-1.262 0.0114,-1.262 z"
     inkscape:connector-curvature="0" />
  <path
     style="color:#000000;fill:#ff0000;fill-opacity:1;fill-rule:nonzero;stroke:none;stroke-width:0.69999999;marker:none;visibility:visible;display:inline;overflow:visible;enable-background:accumulate"
     id="path5910-63-2-7-7-8"
     d="m 321.41313,532.1927 c -0.52213,3.83853 -0.77924,7.73751 -0.96614,11.63745 -0.089,2.40983 -0.0495,1.28121 -0.1198,3.38581 0,0 -1.1355,-0.0742 -1.1355,-0.0742 l 0,0 c 0.0709,-2.12338 0.031,-0.98212 0.12136,-3.42359 0.19113,-3.97903 0.45461,-7.95691 0.98833,-11.87299 0,0 1.11177,0.34746 1.11177,0.34746 z"
     inkscape:connector-curvature="0" />
  <rect
     style="color:#000000;fill:none;stroke:none;stroke-width:0.30000001;marker:none;visibility:visible;display:inline;overflow:visible;enable-background:accumulate"
     id="rect6051-5-0"
     width="45.783131"
     height="31.325302"
     x="271.13773"
     y="511.57831" />
  <path
     style="fill:none;stroke:#000000;stroke-width:0.57680535px;stroke-linecap:butt;stroke-linejoin:miter;stroke-opacity:1"
     d="m 293.62504,335.94768 c -0.83091,-0.52127 -2.91983,-0.54016 -2.49276,-1.56386 0.42708,-1.02366 1.66185,1.04259 2.49276,1.56386 z"
     id="path4671-2-5-2-25"
     inkscape:connector-curvature="0" />
  <path
     style="color:#000000;fill-opacity:1;fill-rule:nonzero;stroke:none;stroke-width:0.69999999;marker:none;visibility:visible;display:inline;overflow:visible;enable-background:accumulate"
     id="path5404-3-0"
     d="m 290.7378,342.13898 c -1.01187,1.50294 -2.05462,3.39097 -0.92531,5.08942 1.35933,1.12219 3.21802,1.1346 4.88713,1.2308 0.33104,-0.0321 0.66207,-0.0642 0.9931,-0.0963 0,0 0.0952,1.09087 0.0952,1.09087 l 0,0 c -0.38324,0.033 -0.76648,0.0659 -1.14973,0.0989 -2.0333,-0.11915 -4.22333,-0.19163 -5.74418,-1.7566 -1.21957,-2.21222 -0.39193,-4.37046 0.99075,-6.32194 0,0 0.8531,0.66488 0.8531,0.66488 z"
     inkscape:connector-curvature="0" />
  <path
     style="color:#000000;fill-opacity:1;fill-rule:nonzero;stroke:none;stroke-width:0.69999999;marker:none;visibility:visible;display:inline;overflow:visible;enable-background:accumulate"
     id="path5202-2-4"
     d="m 305.86537,341.16752 c -0.0226,2.49787 -0.0452,4.99575 -0.0678,7.49363 -0.098,2.26021 -1.2267,3.75881 -3.46448,3.89655 -1.37788,-0.23151 -2.46115,-1.0541 -3.45967,-1.99635 0,0 0.73463,-0.79909 0.73463,-0.79909 l 0,0 c 0.77663,0.7548 1.63108,1.40925 2.68133,1.70116 1.66801,-0.0222 2.36021,-1.15964 2.43439,-2.81198 0.0226,-2.49788 0.0452,-4.99576 0.0678,-7.49363 0,0 1.0738,0.01 1.0738,0.01 z"
     inkscape:connector-curvature="0" />
  <path
     style="fill:none;stroke:#000000;stroke-width:0.57680535px;stroke-linecap:butt;stroke-linejoin:miter;stroke-opacity:1"
     d="m 306.35229,336.32545 c -0.83093,-0.52127 -2.91984,-0.54016 -2.49277,-1.56384 0.42709,-1.02368 1.66184,1.04257 2.49277,1.56384 z"
     id="path4671-2-1-6"
     inkscape:connector-curvature="0" />
  <path
     style="color:#000000;fill-opacity:1;fill-rule:nonzero;stroke:none;stroke-width:0.69999999;marker:none;visibility:visible;display:inline;overflow:visible;enable-background:accumulate"
     id="path5812-1"
     d="m 291.7344,320.04768 c -0.0169,1.87201 -0.0339,3.74403 -0.0508,5.61604 -0.35661,-0.15079 -0.83318,-0.14132 -1.0698,-0.45238 -0.15557,-0.20454 0.0927,-0.50922 0.14573,-0.76241 0.30548,-1.45741 0.86304,-2.63579 1.68822,-3.86018 1.49007,-1.59087 3.19476,-2.88936 4.90037,-0.87336 0.8603,1.87018 0.78776,3.99895 0.80674,6.02139 0,0 -1.07379,0.0108 -1.07379,0.0108 l 0,0 c -0.0164,-1.79127 0.0429,-3.66277 -0.58368,-5.36349 -0.85484,-1.44164 -2.37318,-0.0154 -3.16819,0.82991 -0.58548,0.84663 -1.04662,1.65372 -1.33633,2.65583 -0.017,0.0589 -0.30408,1.35028 -0.30527,1.35126 -0.30136,0.24625 -0.71853,0.28865 -1.0778,0.43297 0.0169,-1.87201 0.0338,-3.74403 0.0508,-5.61604 0,0 1.0738,0.01 1.0738,0.01 z"
     inkscape:connector-curvature="0" />
  <path
     style="color:#000000;fill-opacity:1;fill-rule:nonzero;stroke:none;stroke-width:0.69999999;marker:none;visibility:visible;display:inline;overflow:visible;enable-background:accumulate"
     id="path5688-0"
     d="m 275.00132,325.31041 c -0.89392,2.67709 -1.51563,5.41709 -1.90575,8.20927 0.0234,1.72561 -1.12374,4.70982 0.49508,5.99367 1.20067,-0.0126 2.16748,-0.85973 2.85277,-1.77353 1.01682,-1.55036 1.49868,-3.30674 2.16483,-5.0083 0.63368,-1.7264 1.16851,-3.51351 2.50541,-4.83366 2.2878,-1.75779 1.03311,2.11957 0.84641,2.84049 -0.46084,2.18349 -0.77335,4.42895 -0.58405,6.6585 0.43555,2.11854 2.09086,2.73288 4.00418,3.12333 0.35972,-0.0526 0.71944,-0.10513 1.07916,-0.1577 0,0 0.14018,1.19664 0.14018,1.19664 l 0,0 c -0.48857,0.0468 -0.97713,0.0936 -1.4657,0.14042 -2.44966,-0.52203 -4.46221,-1.51818 -4.95883,-4.2069 -0.17813,-2.3661 0.10993,-4.74161 0.61884,-7.0568 0.0355,-0.1368 0.52008,-1.93231 0.58663,-1.94227 0.16685,-0.025 0.295,0.19803 0.46364,0.20301 0.13553,0.004 0.25761,-0.26066 0.36549,-0.17853 0.0976,0.0743 -0.17776,0.16919 -0.26664,0.25378 -1.25883,1.12354 -1.58391,2.90609 -2.2141,4.40218 -0.71842,1.802 -1.22844,3.6734 -2.33508,5.30633 -1.13854,1.42056 -2.77729,2.71076 -4.65475,1.88527 -1.74317,-1.95134 -1.04745,-4.60981 -0.83664,-7.01306 0.39514,-2.81419 1.00728,-5.58218 1.91749,-8.27842 0,0 1.18143,0.23628 1.18143,0.23628 z"
     inkscape:connector-curvature="0" />
  <path
     style="fill:#ff0000;fill-opacity:1;stroke:none"
     d="m 91.54534,261.02766 c -0.87927,-0.59996 -3.09081,-0.61996 -2.6378,-1.79993 0.45302,-1.17996 1.75853,1.19997 2.6378,1.79993 z"
     id="path4671-2-5-2-9-4-0-2"
     inkscape:connector-curvature="0" />
  <path
     style="color:#000000;fill:#ff0000;fill-opacity:1;fill-rule:nonzero;stroke:none;stroke-width:0.69999999;marker:none;visibility:visible;display:inline;overflow:visible;enable-background:accumulate"
     id="path5404-3-8-7-8-6"
     d="m 88.48333,268.16441 c -1.07254,1.73272 -2.17812,3.9092 -0.98394,5.86539 1.4382,1.29197 3.40598,1.30468 5.17301,1.41413 0.3505,-0.0372 0.701,-0.0745 1.05149,-0.11175 0,0 0.0998,1.25695 0.0998,1.25695 l 0,0 c -0.40578,0.0383 -0.81155,0.0766 -1.21733,0.11489 -2.15257,-0.1356 -4.47111,-0.21725 -6.07992,-2.01928 -1.2893,-2.54814 -0.41124,-5.03581 1.05426,-7.28569 0,0 0.90262,0.76541 0.90262,0.76541 z"
     inkscape:connector-curvature="0" />
  <path
     style="color:#000000;fill:#ff0000;fill-opacity:1;fill-rule:nonzero;stroke:none;stroke-width:0.69999999;marker:none;visibility:visible;display:inline;overflow:visible;enable-background:accumulate"
     id="path5202-2-9-9-5-3"
     d="m 137.37125,267.20285 c -0.026,2.87834 -0.0521,5.75669 -0.0781,8.63503 -0.10565,2.60458 -1.30191,4.33239 -3.67119,4.493 -1.45857,-0.26561 -2.60475,-1.21258 -3.66109,-2.2975 0,0 0.77844,-0.92143 0.77844,-0.92143 l 0,0 c 0.82158,0.86911 1.72564,1.62253 2.83731,1.958 1.76595,-0.0271 2.49977,-1.33827 2.5797,-3.24235 0.026,-2.87834 0.0521,-5.75669 0.0781,-8.63503 0,0 1.13682,0.0103 1.13682,0.0103 z"
     inkscape:connector-curvature="0" />
  <path
     style="fill:#ff0000;fill-opacity:1;stroke:none"
     d="m 137.89086,261.62285 c -0.87926,-0.59997 -3.0908,-0.61997 -2.63779,-1.79994 0.45303,-1.17996 1.75853,1.19997 2.63779,1.79994 z"
     id="path4671-2-1-0-8-6-2"
     inkscape:connector-curvature="0" />
  <path
     style="color:#000000;fill:#ff0000;fill-opacity:1;fill-rule:nonzero;stroke:none;stroke-width:0.69999999;marker:none;visibility:visible;display:inline;overflow:visible;enable-background:accumulate"
     id="path5812-44-8-8-8"
     d="m 83.91468,240.56138 c -0.0195,2.15717 -0.039,4.31433 -0.0585,6.47149 -0.37741,-0.17347 -0.88197,-0.16215 -1.13221,-0.5204 -0.16455,-0.23554 0.0985,-0.58683 0.15491,-0.87866 0.32466,-1.67963 0.91595,-3.03797 1.79061,-4.44955 1.57891,-1.83443 3.38477,-3.33214 5.1888,-1.01054 0.90923,2.1543 0.83064,4.60739 0.84903,6.93785 0,0 -1.13686,0.0133 -1.13686,0.0133 l 0,0 c -0.0159,-2.06408 0.0479,-4.22068 -0.6134,-6.17993 -0.90381,-1.66048 -2.5125,-0.0154 -3.35489,0.959 -0.62058,0.97609 -1.10948,1.90649 -1.41704,3.06149 -0.0181,0.0679 -0.32308,1.55621 -0.32434,1.55734 -0.31925,0.284 -0.76097,0.33321 -1.14144,0.49982 0.0195,-2.15716 0.039,-4.31432 0.0585,-6.47148 0,0 1.13683,0.0103 1.13683,0.0103 z"
     inkscape:connector-curvature="0" />
  <path
     style="color:#000000;fill:#ff0000;fill-opacity:1;fill-rule:nonzero;stroke:none;stroke-width:0.69999999;marker:none;visibility:visible;display:inline;overflow:visible;enable-background:accumulate"
     id="path5908-0-3-5-2-8"
     d="m 94.25559,270.81917 c 2.59288,0.0234 5.18576,0.0469 7.77863,0.0703 0.84132,0.008 1.68262,0.0152 2.52394,0.0228 0,0 -0.0114,1.262 -0.0114,1.262 l 0,0 c -0.84132,-0.008 -1.68262,-0.0152 -2.52394,-0.0228 -2.59288,-0.0234 -5.18575,-0.0469 -7.77863,-0.0703 0,0 0.0114,-1.262 0.0114,-1.262 z"
     inkscape:connector-curvature="0" />
  <path
     style="color:#000000;fill:#ff0000;fill-opacity:1;fill-rule:nonzero;stroke:none;stroke-width:0.69999999;marker:none;visibility:visible;display:inline;overflow:visible;enable-background:accumulate"
     id="path5910-63-2-7-2-5"
     d="m 116.26964,264.29829 c -0.52213,3.83853 -0.77924,7.73751 -0.96614,11.63745 -0.089,2.40983 -0.0495,1.28121 -0.1198,3.38581 0,0 -1.1355,-0.0742 -1.1355,-0.0742 l 0,0 c 0.0709,-2.12338 0.031,-0.98212 0.12136,-3.42359 0.19113,-3.97903 0.45461,-7.95691 0.98833,-11.87299 0,0 1.11177,0.34746 1.11177,0.34746 z"
     inkscape:connector-curvature="0" />
  <rect
     style="color:#000000;fill:none;stroke:none;stroke-width:0.30000001;marker:none;visibility:visible;display:inline;overflow:visible;enable-background:accumulate"
     id="rect6051-4-8"
     width="45.783131"
     height="31.325302"
     x="81.271332"
     y="244.28629" />
  <path
     style="opacity:0.70754718;color:#000000;fill:#ff0000;fill-opacity:1;fill-rule:nonzero;stroke:#ff0000;stroke-width:0.60000002;stroke-miterlimit:4;stroke-opacity:1;stroke-dasharray:none;marker:none;visibility:visible;display:inline;overflow:visible;enable-background:accumulate"
     id="path6301"
     d="m 81.50034,252.76612 c -0.67913,-1.75015 -1.46041,-3.45098 -2.9246,-4.56734 -1.37559,-0.78422 -2.88507,-1.03891 -4.35093,-0.43229 -1.20628,0.84119 -1.76109,1.94678 -2.10341,3.4056 -0.32798,1.94045 -0.31396,3.92283 -0.32483,5.88795 -8e-4,2.12325 0.0105,4.24647 0.0162,6.3697 0.005,2.12108 0.006,4.24217 0.006,6.36326 0.045,2.16652 0.0409,4.30185 -0.28733,6.44195 -0.37634,2.07726 -0.54208,4.1838 -0.63587,6.29431 -0.0103,0.35023 -0.0206,0.70045 -0.0309,1.05068 0,0 -0.98602,-0.0335 -0.98602,-0.0335 l 0,0 c 0.0105,-0.35592 0.021,-0.71185 0.0315,-1.06777 0.096,-2.15133 0.26524,-4.29871 0.64792,-6.41631 0.3213,-2.08237 0.31479,-4.16039 0.27416,-6.26907 -5.4e-4,-2.12018 -10e-4,-4.24036 -0.006,-6.36053 -0.006,-2.12634 -0.017,-4.25267 -0.0162,-6.37902 0.0114,-2.05172 -10e-4,-4.12201 0.35595,-6.14569 0.43729,-1.79125 1.18977,-3.1835 2.72267,-4.13741 1.80191,-0.66868 3.60028,-0.44454 5.26744,0.57164 1.5723,1.25248 2.50432,3.01489 3.22656,4.95014 0,0 -0.88236,0.47371 -0.88236,0.47371 z"
     inkscape:connector-curvature="0" />
  <path
     style="opacity:0.70754718;color:#000000;fill:#ff0000;fill-opacity:1;fill-rule:nonzero;stroke:#ff0000;stroke-width:0.69800001;stroke-miterlimit:4;stroke-opacity:1;stroke-dasharray:none;marker:none;visibility:visible;display:inline;overflow:visible;enable-background:accumulate"
     id="path6303"
     d="m 66.98335,264.15803 c 1.72243,0 3.44485,0 5.16727,0 1.62645,0 3.25289,0 4.87934,0 0,0 0,1.05924 0,1.05924 l 0,0 c -1.62645,0 -3.25289,0 -4.87934,0 -1.72242,0 -3.44484,0 -5.16727,0 0,0 0,-1.05924 0,-1.05924 z"
     inkscape:connector-curvature="0" />
  <path
     style="opacity:0.70754718;color:#000000;fill:#ff0000;fill-opacity:1;fill-rule:nonzero;stroke:#ff0000;stroke-width:0.60000002;stroke-miterlimit:4;stroke-opacity:1;stroke-dasharray:none;marker:none;visibility:visible;display:inline;overflow:visible;enable-background:accumulate"
     id="path6301-3"
     d="m 464.35879,248.71089 c -0.67913,-1.75015 -1.46041,-3.45098 -2.9246,-4.56734 -1.37559,-0.78422 -2.88507,-1.03891 -4.35093,-0.43229 -1.20628,0.84119 -1.76109,1.94678 -2.10341,3.4056 -0.32798,1.94045 -0.31396,3.92283 -0.32483,5.88795 -8e-4,2.12325 0.0105,4.24647 0.0162,6.3697 0.005,2.12108 0.006,4.24217 0.006,6.36326 0.045,2.16652 0.0409,4.30185 -0.28733,6.44195 -0.37634,2.07726 -0.54208,4.1838 -0.63587,6.29431 -0.0103,0.35023 -0.0206,0.70045 -0.0309,1.05068 0,0 -0.98602,-0.0335 -0.98602,-0.0335 l 0,0 c 0.0105,-0.35592 0.021,-0.71185 0.0315,-1.06777 0.096,-2.15133 0.26524,-4.29871 0.64792,-6.41631 0.3213,-2.08237 0.31479,-4.16039 0.27416,-6.26907 -5.4e-4,-2.12018 -10e-4,-4.24036 -0.006,-6.36053 -0.006,-2.12634 -0.017,-4.25267 -0.0162,-6.37902 0.0114,-2.05172 -10e-4,-4.12201 0.35595,-6.14569 0.43729,-1.79125 1.18977,-3.1835 2.72267,-4.13741 1.80191,-0.66868 3.60028,-0.44454 5.26744,0.57164 1.5723,1.25248 2.50432,3.01489 3.22656,4.95014 0,0 -0.88236,0.47371 -0.88236,0.47371 z"
     inkscape:connector-curvature="0" />
  <path
     style="opacity:0.70754718;color:#000000;fill:#ff0000;fill-opacity:1;fill-rule:nonzero;stroke:#ff0000;stroke-width:0.69800001;stroke-miterlimit:4;stroke-opacity:1;stroke-dasharray:none;marker:none;visibility:visible;display:inline;overflow:visible;enable-background:accumulate"
     id="path6303-0"
     d="m 449.8418,260.1028 c 1.72243,0 3.44485,0 5.16727,0 1.62645,0 3.25289,0 4.87934,0 0,0 0,1.05924 0,1.05924 l 0,0 c -1.62645,0 -3.25289,0 -4.87934,0 -1.72242,0 -3.44484,0 -5.16727,0 0,0 0,-1.05924 0,-1.05924 z"
     inkscape:connector-curvature="0" />
  <path
     style="opacity:0.70754718;color:#000000;fill:#ff0000;fill-opacity:1;fill-rule:nonzero;stroke:#ff0000;stroke-width:0.60000002;stroke-miterlimit:4;stroke-opacity:1;stroke-dasharray:none;marker:none;visibility:visible;display:inline;overflow:visible;enable-background:accumulate"
     id="path6301-3-6"
     d="m 264.97841,54.146 c -0.67913,-1.75015 -1.46041,-3.45098 -2.9246,-4.56734 -1.37559,-0.78422 -2.88507,-1.03891 -4.35093,-0.43229 -1.20628,0.84119 -1.76109,1.94678 -2.10341,3.4056 -0.32798,1.94045 -0.31396,3.92283 -0.32483,5.88795 -8e-4,2.12325 0.0105,4.24647 0.0162,6.3697 0.005,2.12108 0.006,4.24217 0.006,6.36326 0.045,2.16652 0.0409,4.30185 -0.28733,6.44195 -0.37634,2.07726 -0.54208,4.1838 -0.63587,6.29431 -0.0103,0.35023 -0.0206,0.70045 -0.0309,1.05068 0,0 -0.98602,-0.0335 -0.98602,-0.0335 l 0,0 c 0.0105,-0.35592 0.021,-0.71185 0.0315,-1.06777 0.096,-2.15133 0.26524,-4.29871 0.64792,-6.41631 0.3213,-2.08237 0.31479,-4.16039 0.27416,-6.26907 -5.4e-4,-2.12018 -0.001,-4.24036 -0.006,-6.36053 -0.006,-2.12634 -0.017,-4.25267 -0.0162,-6.37902 0.0114,-2.05172 -10e-4,-4.12201 0.35595,-6.14569 0.43729,-1.79125 1.18977,-3.1835 2.72267,-4.13741 1.80191,-0.66868 3.60028,-0.44454 5.26744,0.57164 1.5723,1.25248 2.50432,3.01489 3.22656,4.95014 0,0 -0.88236,0.47371 -0.88236,0.47371 z"
     inkscape:connector-curvature="0" />
  <path
     style="opacity:0.70754718;color:#000000;fill:#ff0000;fill-opacity:1;fill-rule:nonzero;stroke:#ff0000;stroke-width:0.69800001;stroke-miterlimit:4;stroke-opacity:1;stroke-dasharray:none;marker:none;visibility:visible;display:inline;overflow:visible;enable-background:accumulate"
     id="path6303-0-2"
     d="m 250.46142,65.53791 c 1.72243,0 3.44485,0 5.16727,0 1.62645,0 3.25289,0 4.87934,0 0,0 0,1.05924 0,1.05924 l 0,0 c -1.62645,0 -3.25289,0 -4.87934,0 -1.72242,0 -3.44484,0 -5.16727,0 0,0 0,-1.05924 0,-1.05924 z"
     inkscape:connector-curvature="0" />
  <path
     style="opacity:0.70754718;color:#000000;fill:#ff0000;fill-opacity:1;fill-rule:nonzero;stroke:#ff0000;stroke-width:0.60000002;stroke-miterlimit:4;stroke-opacity:1;stroke-dasharray:none;marker:none;visibility:visible;display:inline;overflow:visible;enable-background:accumulate"
     id="path6301-3-60"
     d="m 270.09003,518.54226 c -0.67913,-1.75015 -1.46041,-3.45098 -2.9246,-4.56734 -1.37559,-0.78422 -2.88507,-1.03891 -4.35093,-0.43229 -1.20628,0.84119 -1.76109,1.94678 -2.10341,3.4056 -0.32798,1.94045 -0.31396,3.92283 -0.32483,5.88795 -8e-4,2.12325 0.0105,4.24647 0.0162,6.3697 0.005,2.12108 0.006,4.24217 0.006,6.36326 0.045,2.16652 0.0409,4.30185 -0.28733,6.44195 -0.37634,2.07726 -0.54208,4.1838 -0.63587,6.29431 -0.0103,0.35023 -0.0206,0.70045 -0.0309,1.05068 0,0 -0.98602,-0.0335 -0.98602,-0.0335 l 0,0 c 0.0105,-0.35592 0.021,-0.71185 0.0315,-1.06777 0.096,-2.15133 0.26524,-4.29871 0.64792,-6.41631 0.3213,-2.08237 0.31479,-4.16039 0.27416,-6.26907 -5.4e-4,-2.12018 -10e-4,-4.24036 -0.006,-6.36053 -0.006,-2.12634 -0.017,-4.25267 -0.0162,-6.37902 0.0114,-2.05172 -10e-4,-4.12201 0.35595,-6.14569 0.43729,-1.79125 1.18977,-3.1835 2.72267,-4.13741 1.80191,-0.66868 3.60028,-0.44454 5.26744,0.57164 1.5723,1.25248 2.50432,3.01489 3.22656,4.95014 0,0 -0.88236,0.47371 -0.88236,0.47371 z"
     inkscape:connector-curvature="0" />
  <path
     style="opacity:0.70754718;color:#000000;fill:#ff0000;fill-opacity:1;fill-rule:nonzero;stroke:#ff0000;stroke-width:0.69800001;stroke-miterlimit:4;stroke-opacity:1;stroke-dasharray:none;marker:none;visibility:visible;display:inline;overflow:visible;enable-background:accumulate"
     id="path6303-0-29"
     d="m 255.57304,529.93417 c 1.72243,0 3.44485,0 5.16727,0 1.62645,0 3.25289,0 4.87934,0 0,0 0,1.05924 0,1.05924 l 0,0 c -1.62645,0 -3.25289,0 -4.87934,0 -1.72242,0 -3.44484,0 -5.16727,0 0,0 0,-1.05924 0,-1.05924 z"
     inkscape:connector-curvature="0" />
  <path
     style="color:#000000;fill:#ff0000;fill-opacity:1;fill-rule:nonzero;stroke:#000000;stroke-width:0.66323721;stroke-linecap:butt;stroke-linejoin:miter;stroke-miterlimit:4;stroke-opacity:1;stroke-dasharray:none;stroke-dashoffset:0;marker:none;visibility:visible;display:inline;overflow:visible;enable-background:accumulate"
     id="path6360"
     d="m 280.9568,248.96441 c -0.8125,-1.11324 -2.01777,-1.51251 -3.21644,-1.80226 -1.43599,-0.21187 -2.91569,-0.41495 -4.35866,-0.19857 -1.1394,0.36973 -1.87155,1.49162 -2.39151,2.64131 -0.47909,1.33253 -0.56453,2.72592 -0.35617,4.12876 0.31795,1.2817 1.24347,2.17439 2.23987,2.80298 1.22763,0.59606 2.5797,0.63202 3.89415,0.68301 1.42196,-0.0323 2.2602,-1.00982 2.89116,-2.35149 0.54315,-1.45408 0.60099,-3.04162 0.66189,-4.59656 0.004,-0.0921 -0.0688,-0.28613 0.0122,-0.27647 0.27466,0.0328 0.57129,0.14235 0.76185,0.36871 0.0271,0.0322 -0.0104,2.54004 -0.0113,2.75327 -0.043,1.98561 0.0831,3.97871 -0.10188,5.95572 -0.27118,1.77159 -0.4756,3.55038 -0.58333,5.34407 0.0584,1.60188 -0.30758,3.13621 -0.55383,4.69676 -0.0402,0.32631 -0.1532,1.17758 -0.16055,1.50319 -0.004,0.17364 0.0126,0.34826 0.0405,0.51906 0.005,0.0342 0.0712,0.11257 0.0576,0.0814 -0.14798,-0.33781 -0.15445,-0.11852 -0.079,-0.43798 1.18037,-1.5071 2.43299,-2.93717 3.74403,-4.29878 1.35996,-1.34469 2.89959,-2.37293 4.42778,-3.43586 0,0 0.39775,0.73428 0.39775,0.73428 l 0,0 c -1.48805,1.03213 -2.98561,2.03155 -4.3114,3.33647 -1.3202,1.37054 -2.5734,2.81651 -3.77019,4.32475 -0.19495,0.13285 -0.35856,0.37158 -0.58483,0.39853 -1.13232,0.13494 -0.56326,-2.33519 -0.51041,-2.8768 0.24221,-1.53049 0.60409,-3.03206 0.5437,-4.60362 0.10889,-1.80499 0.31126,-3.59578 0.586,-5.37833 0.19097,-1.94574 0.0455,-3.91194 0.0975,-5.86669 8.1e-4,-0.20581 -0.007,-2.72425 0.0113,-2.74495 0.192,-0.21639 0.48839,-0.30878 0.75863,-0.32996 0.0798,-0.006 -0.008,0.18098 -0.0121,0.27147 -0.0663,1.68561 -0.14162,3.40214 -0.75319,4.96909 -0.78866,1.62083 -1.86143,2.77395 -3.58602,2.80162 -1.43742,-0.0564 -2.91107,-0.11041 -4.24327,-0.79464 -1.19306,-0.77769 -2.26127,-1.84901 -2.61505,-3.41147 -0.22931,-1.58895 -0.12623,-3.16731 0.43191,-4.66736 0.65351,-1.40185 1.55363,-2.69732 2.97108,-3.09815 1.53136,-0.2094 3.09218,-0.0346 4.61419,0.21115 1.39474,0.34363 2.76897,0.84774 3.68906,2.16651 0,0 -0.63296,0.47782 -0.63296,0.47782 z"
     inkscape:connector-curvature="0" />
  <path
     style="color:#000000;fill:#000000;fill-opacity:1;fill-rule:nonzero;stroke:#ff0000;stroke-width:1;stroke-linecap:butt;stroke-linejoin:miter;stroke-miterlimit:4;stroke-opacity:1;stroke-dasharray:none;stroke-dashoffset:0;marker:none;visibility:visible;display:inline;overflow:visible;enable-background:accumulate"
     id="path3253-5-9-8"
     d="m 107.63316,285.57987 c -2.57485,0.142 -4.72165,1.05611 -6.6776,2.69698 -1.622755,1.68804 -1.616405,3.6393 -1.364755,5.8047 0.544565,1.89296 1.465015,3.63773 3.037795,4.85392 1.84547,1.0009 3.60568,2.12333 5.75298,2.23247 2.24003,0.0195 3.83862,-1.5363 5.47689,-2.8521 1.74958,-1.65389 2.74352,-3.85917 3.42052,-6.12958 0.40554,-2.59597 -0.20965,-3.23056 -2.09821,-4.69167 -1.93898,-1.33868 -4.28355,-1.58171 -6.56571,-1.79223 -3.15752,-0.0212 -5.35335,1.93097 -7.48894,3.99753 -0.33739,0.46111 -0.67477,0.92222 -1.01216,1.38331 0,0 -1.181005,-0.87476 -1.181005,-0.87476 l 0,0 c 0.39068,-0.52186 0.78136,-1.04372 1.172055,-1.56559 2.45604,-2.36863 5.03287,-4.48175 8.64601,-4.40388 2.56392,0.23976 5.16961,0.56189 7.32914,2.09326 2.39094,1.85026 3.15151,3.15196 2.60617,6.27759 -0.77493,2.55344 -1.91159,5.01399 -3.90772,6.85203 -1.93797,1.5555 -3.8484,3.25102 -6.49871,3.17227 -2.44278,-0.20313 -4.48979,-1.31716 -6.56934,-2.55094 -1.840745,-1.51022 -3.004415,-3.52013 -3.579835,-5.83375 -0.30379,-2.66878 -0.13187,-5.08873 1.888425,-7.10535 2.24099,-1.82973 4.6997,-2.90544 7.62729,-3.03385 0,0 -0.0133,1.46964 -0.0133,1.46964 z"
     inkscape:connector-curvature="0" />
  <path
     style="color:#000000;fill:#000000;fill-opacity:1;fill-rule:nonzero;stroke:#ff0000;stroke-width:1;stroke-linecap:butt;stroke-linejoin:miter;stroke-miterlimit:4;stroke-opacity:1;stroke-dasharray:none;stroke-dashoffset:0;marker:none;visibility:visible;display:inline;overflow:visible;enable-background:accumulate"
     id="path3253-5-9-84"
     d="m 291.97051,89.796735 c -2.57485,0.142 -4.72165,1.05611 -6.6776,2.69698 -1.62276,1.68804 -1.61641,3.6393 -1.36476,5.8047 0.54457,1.892965 1.46502,3.637735 3.0378,4.853925 1.84547,1.0009 3.60568,2.12333 5.75298,2.23247 2.24003,0.0195 3.83862,-1.5363 5.47689,-2.8521 1.74958,-1.65389 2.74352,-3.859175 3.42052,-6.129585 0.40554,-2.59597 -0.20965,-3.23056 -2.09821,-4.69167 -1.93898,-1.33868 -4.28355,-1.58171 -6.56571,-1.79223 -3.15752,-0.0212 -5.35335,1.93097 -7.48894,3.99753 -0.33739,0.46111 -0.67477,0.92222 -1.01216,1.38331 0,0 -1.18101,-0.87476 -1.18101,-0.87476 l 0,0 c 0.39068,-0.52186 0.78136,-1.04372 1.17206,-1.56559 2.45604,-2.36863 5.03287,-4.48175 8.64601,-4.40388 2.56392,0.23976 5.16961,0.56189 7.32914,2.09326 2.39094,1.85026 3.15151,3.15196 2.60617,6.27759 -0.77493,2.55344 -1.91159,5.013995 -3.90772,6.852035 -1.93797,1.5555 -3.8484,3.25102 -6.49871,3.17227 -2.44278,-0.20313 -4.48979,-1.31716 -6.56934,-2.55094 -1.84075,-1.51022 -3.00442,-3.52013 -3.57984,-5.833755 -0.30379,-2.66878 -0.13187,-5.08873 1.88843,-7.10535 2.24099,-1.82973 4.6997,-2.90544 7.62729,-3.03385 0,0 -0.0133,1.46964 -0.0133,1.46964 z"
     inkscape:connector-curvature="0" />
  <path
     style="color:#000000;fill:#000000;fill-opacity:1;fill-rule:nonzero;stroke:#ff0000;stroke-width:1;stroke-linecap:butt;stroke-linejoin:miter;stroke-miterlimit:4;stroke-opacity:1;stroke-dasharray:none;stroke-dashoffset:0;marker:none;visibility:visible;display:inline;overflow:visible;enable-background:accumulate"
     id="path3253-5-9-1"
     d="m 485.94641,286.78469 c -2.57485,0.142 -4.72165,1.05611 -6.6776,2.69698 -1.62276,1.68804 -1.61641,3.6393 -1.36476,5.8047 0.54457,1.89296 1.46502,3.63773 3.0378,4.85392 1.84547,1.0009 3.60568,2.12333 5.75298,2.23247 2.24003,0.0195 3.83862,-1.5363 5.47689,-2.8521 1.74958,-1.65389 2.74352,-3.85917 3.42052,-6.12958 0.40554,-2.59597 -0.20965,-3.23056 -2.09821,-4.69167 -1.93898,-1.33868 -4.28355,-1.58171 -6.56571,-1.79223 -3.15752,-0.0212 -5.35335,1.93097 -7.48894,3.99753 -0.33739,0.46111 -0.67477,0.92222 -1.01216,1.38331 0,0 -1.18101,-0.87476 -1.18101,-0.87476 l 0,0 c 0.39068,-0.52186 0.78136,-1.04372 1.17206,-1.56559 2.45604,-2.36863 5.03287,-4.48175 8.64601,-4.40388 2.56392,0.23976 5.16961,0.56189 7.32914,2.09326 2.39094,1.85026 3.15151,3.15196 2.60617,6.27759 -0.77493,2.55344 -1.91159,5.01399 -3.90772,6.85203 -1.93797,1.5555 -3.8484,3.25102 -6.49871,3.17227 -2.44278,-0.20313 -4.48979,-1.31716 -6.56934,-2.55094 -1.84075,-1.51022 -3.00442,-3.52013 -3.57984,-5.83375 -0.30379,-2.66878 -0.13187,-5.08873 1.88843,-7.10535 2.24099,-1.82973 4.6997,-2.90544 7.62729,-3.03385 0,0 -0.0133,1.46964 -0.0133,1.46964 z"
     inkscape:connector-curvature="0" />
  <path
     style="color:#000000;fill-opacity:1;fill-rule:nonzero;stroke-width:1;stroke-linecap:butt;stroke-linejoin:miter;stroke-miterlimit:4;stroke-opacity:1;stroke-dasharray:none;stroke-dashoffset:0;marker:none;visibility:visible;display:inline;overflow:visible;enable-background:accumulate"
     id="path3253-5-8-8-6-3"
     d="m 106.8629,91.700715 c -2.57485,0.142 -4.72166,1.05611 -6.6776,2.69698 -1.622758,1.68803 -1.616408,3.6393 -1.364758,5.804705 0.54457,1.89296 1.465008,3.63773 3.037798,4.85391 1.84547,1.00091 3.60568,2.12334 5.75298,2.23248 2.24003,0.0195 3.83862,-1.53631 5.47688,-2.8521 1.74959,-1.65389 2.74352,-3.85917 3.42053,-6.129595 0.40553,-2.59596 -0.20966,-3.23055 -2.09821,-4.69166 -1.93899,-1.33868 -4.28355,-1.58171 -6.56571,-1.79224 -3.15752,-0.0212 -5.35335,1.93097 -7.48895,3.99754 -0.33738,0.46111 -0.674768,0.92221 -1.012148,1.38331 0,0 -1.18101,-0.87476 -1.18101,-0.87476 l 0,0 c 0.39068,-0.52186 0.78136,-1.04373 1.17206,-1.56559 2.456038,-2.36863 5.032858,-4.48176 8.645998,-4.40389 2.56392,0.23977 5.16961,0.5619 7.32914,2.09327 2.39095,1.85026 3.15152,3.15196 2.60617,6.27759 -0.77492,2.553445 -1.91158,5.013995 -3.90772,6.852025 -1.93796,1.55551 -3.84839,3.25103 -6.49871,3.17228 -2.44277,-0.20314 -4.48978,-1.31716 -6.56933,-2.55095 -1.840748,-1.51021 -3.004418,-3.52012 -3.579848,-5.83374 -0.30378,-2.668795 -0.13187,-5.088745 1.88844,-7.105355 2.240988,-1.82973 4.699698,-2.90544 7.627288,-3.03385 0,0 -0.0133,1.46964 -0.0133,1.46964 z"
     inkscape:connector-curvature="0" />
  <path
     sodipodi:type="arc"
     style="color:#000000;fill:#000000;fill-opacity:1;fill-rule:nonzero;stroke-width:1;stroke-linecap:butt;stroke-linejoin:miter;stroke-miterlimit:4;stroke-opacity:1;stroke-dasharray:12, 12;stroke-dashoffset:0;marker:none;visibility:visible;display:inline;overflow:visible;enable-background:accumulate"
     id="path4447-6-6-9-2"
     sodipodi:cx="97.120689"
     sodipodi:cy="64.136719"
     sodipodi:rx="8.5193586"
     sodipodi:ry="7.6674228"
     d="m 105.64005,64.136719 a 8.5193586,7.6674228 0 1 1 -17.038719,0 8.5193586,7.6674228 0 1 1 17.038719,0 z"
     transform="matrix(1.2197965,0.01103034,-0.01103034,1.2197965,-10.993998,18.880905)" />
  <path
     style="color:#000000;fill-opacity:1;fill-rule:nonzero;stroke-width:1;stroke-linecap:butt;stroke-linejoin:miter;stroke-miterlimit:4;stroke-opacity:1;stroke-dasharray:none;stroke-dashoffset:0;marker:none;visibility:visible;display:inline;overflow:visible;enable-background:accumulate"
     id="path3253-5-8-8-6-8"
     d="m 488.79062,89.291083 c -2.57485,0.142 -4.72166,1.05611 -6.6776,2.69698 -1.62276,1.68803 -1.61641,3.6393 -1.36476,5.8047 0.54457,1.89296 1.46501,3.637727 3.0378,4.853907 1.84547,1.00091 3.60568,2.12334 5.75298,2.23248 2.24003,0.0195 3.83862,-1.53631 5.47688,-2.8521 1.74959,-1.65389 2.74352,-3.859167 3.42053,-6.129587 0.40553,-2.59596 -0.20966,-3.23055 -2.09821,-4.69166 -1.93899,-1.33868 -4.28355,-1.58171 -6.56571,-1.79224 -3.15752,-0.0212 -5.35335,1.93097 -7.48895,3.99754 -0.33738,0.46111 -0.67477,0.92221 -1.01215,1.38331 0,0 -1.18101,-0.87476 -1.18101,-0.87476 l 0,0 c 0.39068,-0.52186 0.78136,-1.04373 1.17206,-1.56559 2.45604,-2.36863 5.03286,-4.48176 8.646,-4.40389 2.56392,0.23977 5.16961,0.5619 7.32914,2.09327 2.39095,1.85026 3.15152,3.15196 2.60617,6.27759 -0.77492,2.55344 -1.91158,5.013987 -3.90772,6.852017 -1.93796,1.55551 -3.84839,3.25103 -6.49871,3.17228 -2.44277,-0.20314 -4.48978,-1.31716 -6.56933,-2.55095 -1.84075,-1.51021 -3.00442,-3.52012 -3.57985,-5.833737 -0.30378,-2.66879 -0.13187,-5.08874 1.88844,-7.10535 2.24099,-1.82973 4.6997,-2.90544 7.62729,-3.03385 0,0 -0.0133,1.46964 -0.0133,1.46964 z"
     inkscape:connector-curvature="0" />
  <path
     sodipodi:type="arc"
     style="color:#000000;fill:#000000;fill-opacity:1;fill-rule:nonzero;stroke-width:1;stroke-linecap:butt;stroke-linejoin:miter;stroke-miterlimit:4;stroke-opacity:1;stroke-dasharray:12, 12;stroke-dashoffset:0;marker:none;visibility:visible;display:inline;overflow:visible;enable-background:accumulate"
     id="path4447-6-6-9-6"
     sodipodi:cx="97.120689"
     sodipodi:cy="64.136719"
     sodipodi:rx="8.5193586"
     sodipodi:ry="7.6674228"
     d="m 105.64005,64.136719 a 8.5193586,7.6674228 0 1 1 -17.038719,0 8.5193586,7.6674228 0 1 1 17.038719,0 z"
     transform="matrix(1.2197965,0.01103034,-0.01103034,1.2197965,370.93372,16.471271)" />
  <path
     style="color:#000000;fill-opacity:1;fill-rule:nonzero;stroke-width:1;stroke-linecap:butt;stroke-linejoin:miter;stroke-miterlimit:4;stroke-opacity:1;stroke-dasharray:none;stroke-dashoffset:0;marker:none;visibility:visible;display:inline;overflow:visible;enable-background:accumulate"
     id="path3253-5-8-8-6-80"
     d="m 109.27255,486.88144 c -2.57485,0.142 -4.72166,1.05611 -6.6776,2.69698 -1.62276,1.68803 -1.61641,3.6393 -1.36476,5.8047 0.54457,1.89296 1.46501,3.63773 3.0378,4.85391 1.84547,1.00091 3.60568,2.12334 5.75298,2.23248 2.24003,0.0195 3.83862,-1.53631 5.47688,-2.8521 1.74959,-1.65389 2.74352,-3.85917 3.42053,-6.12959 0.40553,-2.59596 -0.20966,-3.23055 -2.09821,-4.69166 -1.93899,-1.33868 -4.28355,-1.58171 -6.56571,-1.79224 -3.15752,-0.0212 -5.35335,1.93097 -7.48895,3.99754 -0.33738,0.46111 -0.67477,0.92221 -1.01215,1.38331 0,0 -1.18101,-0.87476 -1.18101,-0.87476 l 0,0 c 0.39068,-0.52186 0.78136,-1.04373 1.17206,-1.56559 2.45604,-2.36863 5.03286,-4.48176 8.646,-4.40389 2.56392,0.23977 5.16961,0.5619 7.32914,2.09327 2.39095,1.85026 3.15152,3.15196 2.60617,6.27759 -0.77492,2.55344 -1.91158,5.01399 -3.90772,6.85202 -1.93796,1.55551 -3.84839,3.25103 -6.49871,3.17228 -2.44277,-0.20314 -4.48978,-1.31716 -6.56933,-2.55095 -1.84075,-1.51021 -3.00442,-3.52012 -3.579855,-5.83374 -0.30378,-2.66879 -0.13187,-5.08874 1.888445,-7.10535 2.24099,-1.82973 4.6997,-2.90544 7.62729,-3.03385 0,0 -0.0133,1.46964 -0.0133,1.46964 z"
     inkscape:connector-curvature="0" />
  <path
     sodipodi:type="arc"
     style="color:#000000;fill:#000000;fill-opacity:1;fill-rule:nonzero;stroke-width:1;stroke-linecap:butt;stroke-linejoin:miter;stroke-miterlimit:4;stroke-opacity:1;stroke-dasharray:12, 12;stroke-dashoffset:0;marker:none;visibility:visible;display:inline;overflow:visible;enable-background:accumulate"
     id="path4447-6-6-9-3"
     sodipodi:cx="97.120689"
     sodipodi:cy="64.136719"
     sodipodi:rx="8.5193586"
     sodipodi:ry="7.6674228"
     d="m 105.64005,64.136719 a 8.5193586,7.6674228 0 1 1 -17.038719,0 8.5193586,7.6674228 0 1 1 17.038719,0 z"
     transform="matrix(1.2197965,0.01103034,-0.01103034,1.2197965,-8.5843546,414.06163)" />
  <path
     style="color:#000000;fill-opacity:1;fill-rule:nonzero;stroke-width:1;stroke-linecap:butt;stroke-linejoin:miter;stroke-miterlimit:4;stroke-opacity:1;stroke-dasharray:none;stroke-dashoffset:0;marker:none;visibility:visible;display:inline;overflow:visible;enable-background:accumulate"
     id="path3253-5-8-8-6-33"
     d="m 491.20025,488.08626 c -2.57485,0.142 -4.72166,1.05611 -6.6776,2.69698 -1.62276,1.68803 -1.61641,3.6393 -1.36476,5.8047 0.54457,1.89296 1.46501,3.63773 3.0378,4.85391 1.84547,1.00091 3.60568,2.12334 5.75298,2.23248 2.24003,0.0195 3.83862,-1.53631 5.47688,-2.8521 1.74959,-1.65389 2.74352,-3.85917 3.42053,-6.12959 0.40553,-2.59596 -0.20966,-3.23055 -2.09821,-4.69166 -1.93899,-1.33868 -4.28355,-1.58171 -6.56571,-1.79224 -3.15752,-0.0212 -5.35335,1.93097 -7.48895,3.99754 -0.33738,0.46111 -0.67477,0.92221 -1.01215,1.38331 0,0 -1.18101,-0.87476 -1.18101,-0.87476 l 0,0 c 0.39068,-0.52186 0.78136,-1.04373 1.17206,-1.56559 2.45604,-2.36863 5.03286,-4.48176 8.646,-4.40389 2.56392,0.23977 5.16961,0.5619 7.32914,2.09327 2.39095,1.85026 3.15152,3.15196 2.60617,6.27759 -0.77492,2.55344 -1.91158,5.01399 -3.90772,6.85202 -1.93796,1.55551 -3.84839,3.25103 -6.49871,3.17228 -2.44277,-0.20314 -4.48978,-1.31716 -6.56933,-2.55095 -1.84075,-1.51021 -3.00442,-3.52012 -3.57985,-5.83374 -0.30378,-2.66879 -0.13187,-5.08874 1.88844,-7.10535 2.24099,-1.82973 4.6997,-2.90544 7.62729,-3.03385 0,0 -0.0133,1.46964 -0.0133,1.46964 z"
     inkscape:connector-curvature="0" />
  <path
     sodipodi:type="arc"
     style="color:#000000;fill:#000000;fill-opacity:1;fill-rule:nonzero;stroke-width:1;stroke-linecap:butt;stroke-linejoin:miter;stroke-miterlimit:4;stroke-opacity:1;stroke-dasharray:12, 12;stroke-dashoffset:0;marker:none;visibility:visible;display:inline;overflow:visible;enable-background:accumulate"
     id="path4447-6-6-9-8"
     sodipodi:cx="97.120689"
     sodipodi:cy="64.136719"
     sodipodi:rx="8.5193586"
     sodipodi:ry="7.6674228"
     d="m 105.64005,64.136719 a 8.5193586,7.6674228 0 1 1 -17.038719,0 8.5193586,7.6674228 0 1 1 17.038719,0 z"
     transform="matrix(1.2197965,0.01103034,-0.01103034,1.2197965,373.34335,415.26645)" />
  <rect
     style="color:#000000;fill:#ff0000;fill-opacity:0.08866996;fill-rule:nonzero;stroke:#000000;stroke-width:1.41544986;stroke-linecap:butt;stroke-linejoin:miter;stroke-miterlimit:4;stroke-opacity:1;stroke-dasharray:none;stroke-dashoffset:0;marker:none;visibility:visible;display:inline;overflow:visible;enable-background:accumulate"
     id="rect7270"
     width="380.00546"
     height="396.87292"
     x="108.19003"
     y="97.346672" />
</svg>
