<?xml version="1.0" encoding="UTF-8" standalone="no"?>
<!-- Created with Inkscape (http://www.inkscape.org/) -->

<svg
   xmlns:dc="http://purl.org/dc/elements/1.1/"
   xmlns:cc="http://creativecommons.org/ns#"
   xmlns:rdf="http://www.w3.org/1999/02/22-rdf-syntax-ns#"
   xmlns:svg="http://www.w3.org/2000/svg"
   xmlns="http://www.w3.org/2000/svg"
   xmlns:sodipodi="http://sodipodi.sourceforge.net/DTD/sodipodi-0.dtd"
   xmlns:inkscape="http://www.inkscape.org/namespaces/inkscape"
   id="svg3036"
   version="1.1"
   inkscape:version="0.48.3.1 r9886"
   width="800"
   height="250"
   sodipodi:docname="wavenumbers.png">
  <metadata
     id="metadata3042">
    <rdf:RDF>
      <cc:Work
         rdf:about="">
        <dc:format>image/svg+xml</dc:format>
        <dc:type
           rdf:resource="http://purl.org/dc/dcmitype/StillImage" />
        <dc:title></dc:title>
      </cc:Work>
    </rdf:RDF>
  </metadata>
  <defs
     id="defs3040" />
  <sodipodi:namedview
     pagecolor="#ffffff"
     bordercolor="#666666"
     borderopacity="1"
     objecttolerance="10"
     gridtolerance="10"
     guidetolerance="10"
     inkscape:pageopacity="0"
     inkscape:pageshadow="2"
     inkscape:window-width="1107"
     inkscape:window-height="663"
     id="namedview3038"
     showgrid="false"
     inkscape:zoom="0.83"
     inkscape:cx="378.91566"
     inkscape:cy="295.90068"
     inkscape:window-x="21"
     inkscape:window-y="107"
     inkscape:window-maximized="0"
     inkscape:current-layer="svg3036" />
  <path
     style="color:#000000;fill-opacity:1;fill-rule:nonzero;stroke:none;stroke-width:0.69999999;marker:none;visibility:visible;display:inline;overflow:visible;enable-background:accumulate"
     id="path4166"
     d="m 368.20471,25.90365 c 1.0067,1.53525 1.44074,3.14608 2.05425,4.73404 0.82655,1.82974 1.12599,3.70713 1.30443,5.58439 -0.0318,1.89529 0.27637,3.76648 0.67915,5.6456 0.4247,2.0002 0.54223,4.01353 0.61193,6.02525 0.0544,2.26706 0.0465,4.53439 0.0448,6.80161 -0.003,2.35939 -0.005,4.71879 -0.007,7.07819 -10e-4,2.20831 -10e-4,4.41662 -10e-4,6.62492 -1e-5,2.20857 2e-5,4.41715 4e-5,6.62573 -0.33262,2.34334 -0.77008,4.67906 -0.98724,7.02739 -0.19791,2.40385 -0.20891,4.81067 -0.22258,7.21648 -0.007,2.61846 -10e-4,5.23694 10e-4,7.8554 0.003,2.84197 0.003,5.68395 0.004,8.52592 2.8e-4,2.80131 2.2e-4,5.60261 2.1e-4,8.40392 -3e-5,2.70977 -4e-5,5.41954 -5e-5,8.1293 0.26028,2.19548 0.73468,4.38011 0.98528,6.57626 0.19999,1.98634 0.21066,3.97638 0.22455,5.96515 -0.17238,2.11591 0.37299,4.21202 0.72194,6.31329 0.36371,2.33394 0.42006,4.67689 0.46201,7.01781 0.0314,2.59645 0.025,5.19298 0.0223,7.78947 -0.003,2.39468 -0.005,4.78936 -0.006,7.18403 -6.9e-4,2.20258 -7e-4,4.40516 -7.1e-4,6.60774 0,1.57496 3e-5,3.14992 4e-5,4.72488 10e-6,1.51601 10e-6,3.03201 2e-5,4.54802 0.003,0.91332 0.0619,1.81982 -0.1494,2.72633 0,0 -1.19427,-0.0878 -1.19427,-0.0878 l 0,0 c 0.21991,-0.87598 0.12498,-1.75542 0.13885,-2.63855 0,-1.516 -10e-6,-3.03201 -2e-5,-4.54802 -10e-6,-1.57496 -4e-5,-3.14992 -4e-5,-4.72489 2e-5,-2.20262 2e-5,-4.40525 7.1e-4,-6.60788 9.7e-4,-2.39475 0.003,-4.78951 0.006,-7.18426 0.003,-2.59417 0.009,-5.18839 -0.0222,-7.78252 -0.0416,-2.32287 -0.0967,-4.64776 -0.45705,-6.96373 -0.35194,-2.12053 -0.89938,-4.23612 -0.72695,-6.37138 -0.0138,-1.97571 -0.024,-3.95267 -0.22219,-5.92598 -0.25171,-2.21004 -0.73462,-4.40827 -0.98765,-6.61799 10e-6,-2.70977 2e-5,-5.41954 5e-5,-8.12931 10e-6,-2.80129 7e-5,-5.60257 -2.1e-4,-8.40386 -4e-4,-2.84187 -0.001,-5.68374 -0.004,-8.52561 -0.003,-2.61928 -0.008,-5.23856 -10e-4,-7.85784 0.0137,-2.41642 0.025,-4.83386 0.22414,-7.2483 0.21645,-2.33701 0.64531,-4.66182 0.98567,-6.99349 -2e-5,-2.20858 -5e-5,-4.41716 -4e-5,-6.62574 6e-5,-2.20837 9e-5,-4.41674 10e-4,-6.6251 0.001,-2.35943 0.003,-4.71886 0.007,-7.07828 0.002,-2.26289 0.01,-4.52589 -0.0446,-6.78864 -0.0688,-1.98986 -0.18406,-3.98135 -0.60382,-5.95987 -0.40582,-1.89335 -0.71651,-3.77941 -0.68583,-5.68893 -0.17433,-1.84249 -0.46653,-3.68513 -1.27971,-5.48079 -0.61232,-1.59111 -1.05614,-3.20282 -2.05722,-4.74201 0,0 1.18142,-0.13037 1.18142,-0.13037 z"
     inkscape:connector-curvature="0" />
  <path
     style="color:#000000;fill-opacity:1;fill-rule:nonzero;stroke:none;stroke-width:0.69999999;marker:none;visibility:visible;display:inline;overflow:visible;enable-background:accumulate"
     id="path4170"
     d="m 99.515765,124.21687 c 2.611205,-0.0433 5.227755,0.12169 7.829595,-0.14151 2.90648,-0.46345 5.82452,-0.77041 8.75894,-0.92701 3.5569,-0.14111 7.11698,-0.13855 10.6758,-0.1443 3.50934,-0.001 7.01866,0.003 10.528,0.005 3.29366,0.0167 6.55416,-0.59207 9.83412,-0.86864 3.83053,-0.28857 7.67276,-0.30611 11.51093,-0.33135 4.26542,-0.0865 8.53856,0.14585 12.79717,-0.1501 8.05359,-0.63006 16.14102,-0.7471 24.21384,-0.9216 4.5266,-0.0964 9.05403,-0.13434 13.58145,-0.14326 2.9957,-10e-4 5.99139,0.003 8.98709,0.005 3.70991,0.002 7.41983,0.002 11.12976,0.003 4.59788,1.5e-4 9.19576,1e-4 13.79364,8e-5 4.63612,-2e-5 9.27224,-3e-5 13.90834,-4e-5 4.82135,0 9.64267,0 14.46399,0 5.23799,-0.0617 10.46206,-0.0362 15.68859,0.34446 5.55046,0.46172 11.11421,0.66633 16.67918,0.78254 5.88656,0.0944 11.77405,0.0854 17.66113,0.0864 6.4863,-0.0267 12.95818,0.55763 19.43553,0.86694 5.83715,0.20785 11.6686,0.23264 17.49568,0.67173 5.41288,0.45687 10.83804,0.67392 16.26553,0.78964 5.55401,0.0879 11.10884,0.0813 16.66331,0.0817 5.90541,0.0484 11.81374,-0.13633 17.71477,0.13751 7.00112,0.51004 14.01309,0.76617 21.02793,0.92298 7.74177,0.13145 15.46833,0.71951 23.20602,1.01692 7.65288,0.32491 15.31499,0.15355 22.96671,0.46838 7.64321,0.46522 15.29207,0.76397 22.94578,0.92945 7.62817,0.13498 15.25769,0.13346 22.88668,0.13865 7.8256,0.001 15.65121,-0.003 23.4768,-0.006 7.05231,-0.002 14.1046,-0.002 21.15691,-0.003 6.8658,-1.4e-4 13.7316,-9e-5 20.5974,-7e-5 7.20774,0.057 14.40532,0.0487 21.60429,-0.34224 7.35738,-0.467 14.72547,-0.66632 22.09397,-0.78454 6.3269,-0.0822 12.65436,-0.0853 18.98163,-0.0865 4.22505,-0.20684 8.43177,-0.68802 12.65196,-0.97844 0,0 0.0731,1.20231 0.0731,1.20231 l 0,0 c -4.24442,0.2919 -8.47518,0.77842 -12.72481,0.98095 -6.32165,10e-4 -12.64349,0.004 -18.96477,0.0864 -7.35497,0.11796 -14.70949,0.31686 -22.05334,0.78312 -7.2182,0.39175 -14.43501,0.40135 -21.66198,0.3438 -6.86579,-2e-5 -13.73157,-8e-5 -20.59736,7e-5 -7.05221,2.4e-4 -14.10443,6.2e-4 -21.15664,0.003 -7.82594,0.002 -15.6519,0.007 -23.47784,0.006 -7.63642,-0.005 -15.27335,-0.004 -22.90895,-0.1389 -7.66065,-0.16569 -15.31648,-0.46434 -22.96661,-0.9301 -7.65067,-0.31613 -15.31194,-0.1415 -22.96375,-0.46827 -7.73199,-0.29727 -15.45289,-0.88461 -23.18892,-1.0164 -7.02343,-0.15706 -14.04402,-0.41313 -21.05368,-0.92386 -5.88442,-0.27532 -11.77649,-0.0857 -17.66533,-0.13636 -5.56201,-4.4e-4 -11.12437,0.006 -16.68592,-0.0819 -5.44661,-0.11623 -10.89089,-0.33408 -16.32283,-0.79241 -5.8173,-0.43867 -11.6391,-0.46085 -17.46645,-0.66994 -6.46052,-0.30858 -12.91556,-0.89134 -19.38494,-0.86572 -5.89444,-9.9e-4 -11.78927,0.008 -17.68319,-0.0866 -5.58335,-0.1167 -11.1655,-0.32204 -16.73431,-0.78512 -5.20073,-0.37923 -10.39902,-0.40244 -15.61122,-0.34165 -4.82133,0 -9.64265,0 -14.46399,0 -4.6361,1e-5 -9.27222,2e-5 -13.90834,4e-5 -4.59791,2e-5 -9.19581,7e-5 -13.79372,-8e-5 -3.71015,-2.2e-4 -7.42028,-4.4e-4 -11.13043,-0.003 -2.99474,-0.002 -5.9895,-0.007 -8.98426,-0.005 -4.52046,0.009 -9.0409,0.0468 -13.56055,0.14302 -8.0561,0.17413 -16.12685,0.29016 -24.1637,0.91933 -4.28113,0.29222 -8.57548,0.0717 -12.8633,0.1526 -3.81072,0.025 -7.62545,0.0419 -11.42861,0.32761 -3.30986,0.27846 -6.59992,0.89454 -9.92412,0.8724 -3.50853,-0.002 -7.01706,-0.007 -10.52561,-0.005 -3.54051,0.006 -7.08228,0.003 -10.62091,0.14279 -2.91833,0.15515 -5.81969,0.46405 -8.71036,0.9233 -2.63801,0.25735 -5.28772,0.11275 -7.934774,0.14673 0,0 0,-1.20482 0,-1.20482 z"
     inkscape:connector-curvature="0" />
  <path
     style="color:#000000;fill-opacity:1;fill-rule:nonzero;stroke:none;stroke-width:0.69999999;marker:none;visibility:visible;display:inline;overflow:visible;enable-background:accumulate"
     id="path4186-1"
     d="m 374.00785,129.09363 c 0.90645,-2.78044 1.74762,-5.57298 3.04445,-8.20171 1.30581,-2.54114 2.7179,-5.03921 4.17952,-7.49438 1.19545,-2.17385 2.66342,-4.17565 3.90517,-6.32283 1.34591,-2.35685 3.0217,-4.49652 4.61961,-6.68185 1.46142,-1.92407 3.17085,-3.64328 4.63642,-5.5678 1.37494,-1.89985 3.0302,-3.52495 4.61409,-5.23952 1.51726,-1.64397 3.06546,-3.2777 4.71924,-4.78704 1.41494,-1.57249 2.963,-3.01429 4.51823,-4.44658 1.87816,-1.69108 3.77245,-3.36148 5.75002,-4.93488 2.00485,-1.48761 4.05204,-2.96759 6.27662,-4.11208 1.9167,-1.2635 4.00871,-2.19112 6.02974,-3.25538 1.87308,-1.03596 3.81603,-1.9148 5.73218,-2.8652 1.79775,-0.82268 3.56715,-1.69641 5.39579,-2.45901 2.19519,-0.92387 4.49214,-1.50188 6.76402,-2.18689 2.35462,-0.753 4.80201,-1.08535 7.1992,-1.6679 2.33149,-0.59261 4.72774,-0.78982 7.1221,-0.90463 2.24167,0.13442 4.393,-0.42663 6.5784,-0.80835 2.20695,-0.34809 4.44429,-0.40145 6.67361,-0.44452 2.39789,-0.0309 4.79608,-0.0233 7.19411,-0.0206 2.0299,0.39174 4.09972,0.64008 6.11045,1.12023 2.19698,0.60045 4.44811,0.85169 6.6343,1.48467 1.99751,0.40783 3.94387,0.92944 5.90743,1.47355 3.70524,0.88306 7.24147,2.35693 10.85153,3.55812 2.93617,1.19452 5.91659,2.33777 8.76127,3.73878 2.07733,0.9363 4.1599,1.86375 6.24618,2.78216 2.16466,0.99491 4.31316,2.04693 6.5278,2.92817 1.91987,0.84453 3.84749,1.7094 5.6683,2.75384 1.9152,0.97844 3.8835,1.86183 5.84913,2.73762 1.94084,1.05154 3.80543,2.21774 5.65935,3.41059 1.63175,0.85776 3.22494,1.82758 4.59512,3.06804 1.34894,1.11162 2.5402,2.38884 3.86145,3.53502 1.54869,1.13622 3.11977,2.26562 4.50824,3.59766 1.35134,1.16642 2.57083,2.46509 3.92113,3.63517 1.84026,1.47064 3.3394,3.29187 4.99699,4.95092 1.47712,1.4731 2.97027,2.94368 4.35933,4.50201 1.54522,1.7889 3.08828,3.57685 4.54673,5.43695 1.3996,1.70282 2.51536,3.59399 3.70684,5.43679 0.96196,1.76649 2.18325,3.37915 3.09376,5.17126 1.02745,1.57597 1.7187,3.3225 2.81462,4.85527 0,0 0.97628,-0.70602 0.97628,-0.70602 l 0,0 c -1.07744,-1.46976 -1.70212,-3.1879 -2.71826,-4.69791 -0.93883,-1.8245 -2.16404,-3.48065 -3.15564,-5.27832 -1.2169,-1.8689 -2.34446,-3.79647 -3.76994,-5.52507 -1.47659,-1.87847 -3.03247,-3.68926 -4.59631,-5.4961 -1.40912,-1.57099 -2.91037,-3.06411 -4.40596,-4.55129 -1.68104,-1.67547 -3.19397,-3.52394 -5.05961,-5.00918 -1.33626,-1.157 -2.54193,-2.44263 -3.87881,-3.59671 -1.41048,-1.33611 -2.97639,-2.5004 -4.55005,-3.63566 -1.31662,-1.14135 -2.503,-2.41442 -3.84688,-3.52218 -1.42955,-1.2692 -3.04961,-2.30855 -4.74731,-3.18399 -1.90577,-1.22512 -3.82166,-2.42575 -5.821,-3.49789 -1.92991,-0.85873 -3.86137,-1.72742 -5.74309,-2.68399 -1.87637,-1.06125 -3.84365,-1.96861 -5.82016,-2.82676 -2.20259,-0.87079 -4.33474,-1.92495 -6.48684,-2.91104 -2.07139,-0.91089 -4.13835,-1.83268 -6.20089,-2.7611 -2.89829,-1.4158 -5.91978,-2.59645 -8.91146,-3.80026 -3.62974,-1.20725 -7.185,-2.68822 -10.91045,-3.57606 -1.95889,-0.54154 -3.90155,-1.06505 -5.89401,-1.46976 -2.20618,-0.63768 -4.4745,-0.90046 -6.69213,-1.49985 -2.10274,-0.49179 -4.25977,-0.78055 -6.38608,-1.1525 -2.40626,-0.003 -4.81266,-0.0104 -7.21878,0.0208 -2.29106,0.0444 -4.59019,0.1017 -6.85786,0.46231 -2.13712,0.37424 -4.2358,0.92879 -6.42871,0.79173 -2.47071,0.11917 -4.94295,0.3262 -7.34875,0.93731 -2.4185,0.58784 -4.8885,0.92151 -7.26331,1.68537 -2.30977,0.70021 -4.64693,1.28806 -6.87959,2.22836 -1.85209,0.77418 -3.64492,1.65962 -5.46704,2.49152 -1.9251,0.95531 -3.87722,1.8395 -5.75986,2.87938 -2.01343,1.06921 -4.10988,1.98287 -6.01964,3.2501 -2.29073,1.18818 -4.40995,2.69917 -6.4743,4.24013 -1.9983,1.5939 -3.91805,3.27923 -5.81618,4.99162 -1.55163,1.43337 -3.10455,2.8692 -4.51496,4.44358 -1.67428,1.53751 -3.25348,3.18708 -4.79139,4.85893 -1.60598,1.74526 -3.28925,3.39819 -4.6877,5.32739 -1.46536,1.93377 -3.19264,3.64846 -4.64977,5.58572 -1.62232,2.22087 -3.32478,4.39471 -4.69024,6.79027 -1.23646,2.14449 -2.70819,4.13838 -3.8977,6.31008 -1.47305,2.48563 -2.90825,5.00609 -4.22477,7.5779 -1.3041,2.65922 -2.17886,5.47141 -3.08197,8.28598 0,0 1.11865,0.44746 1.11865,0.44746 z"
     inkscape:connector-curvature="0" />
  <path
     style="color:#000000;fill-opacity:1;fill-rule:nonzero;stroke:none;stroke-width:0.69999999;marker:none;visibility:visible;display:inline;overflow:visible;enable-background:accumulate"
     id="path4206"
     d="m 156.0241,100.23866 c 0,3.66294 0,7.32588 0,10.98882 -0.17562,4.77203 0.14604,9.5127 0.5435,14.26297 0.39112,4.27808 0.53753,8.57185 0.6214,12.86517 0.0523,3.32042 0.0494,6.64137 0.0477,9.96211 -4.4e-4,0.45651 -8.7e-4,0.91302 -0.001,1.36953 0,0 -1.20482,-0.001 -1.20482,-0.001 l 0,0 c 4.4e-4,-0.45634 8.7e-4,-0.91268 0.001,-1.36901 0.002,-3.31269 0.005,-6.62559 -0.0475,-9.93796 -0.0833,-4.26764 -0.22847,-8.53575 -0.61743,-12.78823 -0.40025,-4.78358 -0.72275,-9.55805 -0.5477,-14.36343 0,-3.66294 0,-7.32588 0,-10.98882 0,0 1.20482,0 1.20482,0 z"
     inkscape:connector-curvature="0" />
  <path
     style="color:#000000;fill-opacity:1;fill-rule:nonzero;stroke:none;stroke-width:0.69999999;marker:none;visibility:visible;display:inline;overflow:visible;enable-background:accumulate"
     id="path4208"
     d="m 122.28919,175.89168 c 3.12694,-0.49253 6.2101,-1.19284 9.34272,-1.65612 2.98333,-0.42102 5.99423,-0.55113 9.00288,-0.613 0.42433,-0.005 0.84866,-0.01 1.27299,-0.0144 0,0 0.0136,1.20474 0.0136,1.20474 l 0,0 c -0.42064,0.005 -0.84127,0.01 -1.26191,0.0143 -2.958,0.0606 -5.91829,0.18716 -8.85151,0.60031 -3.11255,0.45946 -6.17551,1.1576 -9.28254,1.64566 0,0 -0.23628,-1.18142 -0.23628,-1.18142 z"
     inkscape:connector-curvature="0" />
  <path
     style="color:#000000;fill-opacity:1;fill-rule:nonzero;stroke:none;stroke-width:0.69999999;marker:none;visibility:visible;display:inline;overflow:visible;enable-background:accumulate"
     id="path4210"
     d="m 151.20482,159.2748 c 0,2.74795 0,5.4959 0,8.24385 0,2.56008 0,5.12017 0,7.68025 0,2.41387 0,4.82774 0,7.24161 0.10433,0.51289 -0.48358,4.31264 0.59441,4.01466 1.93859,-0.11354 3.76295,-0.86377 5.64605,-1.30238 2.41988,-0.51358 4.89607,-0.61298 7.36062,-0.67813 0,0 0.0317,1.2044 0.0317,1.2044 l 0,0 c -2.38344,0.0627 -4.77855,0.15475 -7.11961,0.64727 -2.07144,0.48038 -4.09171,1.38067 -6.2469,1.28813 -0.28766,-0.12398 -0.61941,-0.17497 -0.86297,-0.37193 -1.26237,-1.02081 -0.3717,-3.48151 -0.60817,-4.80202 0,-2.41387 0,-4.82774 0,-7.24161 0,-2.56008 0,-5.12017 0,-7.68025 0,-2.74795 0,-5.4959 0,-8.24385 0,0 1.20482,0 1.20482,0 z"
     inkscape:connector-curvature="0" />
  <path
     style="color:#000000;fill-opacity:1;fill-rule:nonzero;stroke:none;stroke-width:0.69999999;marker:none;visibility:visible;display:inline;overflow:visible;enable-background:accumulate"
     id="path4212"
     d="m 590.96386,106.26275 c 0,2.74795 0,5.4959 0,8.24385 0,2.56008 0,5.12017 0,7.68025 0,2.41387 0,4.82774 0,7.24161 0.0253,2.35477 0.10149,4.67932 -0.35451,6.99653 -0.49157,2.08733 -0.6662,4.22227 -0.77314,6.35779 0.12659,2.21294 -0.44072,4.33473 -0.8206,6.4912 -0.18177,1.31573 -0.15857,0.68788 -0.10574,1.88186 0,0 -1.20414,0.0407 -1.20414,0.0407 l 0,0 c -0.0359,-1.41507 -0.075,-0.70433 0.12338,-2.13185 0.37243,-2.10846 0.9329,-4.17796 0.8038,-6.34233 0.11048,-2.19367 0.29152,-4.38673 0.79453,-6.53121 0.44545,-2.23838 0.34619,-4.48713 0.3316,-6.76268 0,-2.41387 0,-4.82774 0,-7.24161 0,-2.56008 0,-5.12017 0,-7.68025 0,-2.74795 0,-5.4959 0,-8.24385 0,0 1.20482,0 1.20482,0 z"
     inkscape:connector-curvature="0" />
  <path
     style="color:#000000;fill-opacity:1;fill-rule:nonzero;stroke:none;stroke-width:0.69999999;marker:none;visibility:visible;display:inline;overflow:visible;enable-background:accumulate"
     id="path4214"
     d="m 582.53012,159.2748 c 0,3.07677 0,6.15354 0,9.23031 0,2.63455 0,5.26909 0,7.90363 0.34985,1.31818 -0.80225,4.20386 0.18244,5.11492 1.56636,0.64487 3.34866,0.55186 5.01367,0.57404 2.40215,0.004 4.80424,-0.0217 7.20634,-0.0345 0.32952,-0.0478 0.65903,-0.0956 0.98854,-0.14337 0,0 0.16655,1.19325 0.16655,1.19325 l 0,0 c -0.38289,0.0516 -0.76578,0.10328 -1.14867,0.15492 -2.40965,0.0128 -4.81928,0.0391 -7.22898,0.0344 -2.00201,-0.0272 -4.23442,0.13743 -5.95306,-1.04498 -1.16705,-1.75458 -0.21966,-3.85074 -0.43165,-5.84869 0,-2.63454 0,-5.26908 0,-7.90363 0,-3.07677 0,-6.15354 0,-9.23031 0,0 1.20482,0 1.20482,0 z"
     inkscape:connector-curvature="0" />
  <path
     style="color:#000000;fill-opacity:1;fill-rule:nonzero;stroke:none;stroke-width:0.69999999;marker:none;visibility:visible;display:inline;overflow:visible;enable-background:accumulate"
     id="path4216"
     d="m 372.77339,196.16867 c -2.14085,0.26584 -4.13223,1.34097 -5.61304,2.8905 -1.1972,1.74999 -2.10464,3.68443 -2.22613,5.81957 -0.0418,1.81665 0.85647,2.98463 2.23416,4.01116 1.84038,1.17614 4.00253,1.43961 6.12904,1.62964 2.17642,0.2105 4.32394,-0.25009 6.20475,-1.35366 1.5289,-1.13343 2.15976,-2.64079 2.83781,-4.33917 0.82558,-1.82228 0.91479,-3.49167 0.25338,-5.3412 -0.98388,-1.6751 -2.70467,-2.66951 -4.42524,-3.45173 -2.68289,-0.84498 -5.53058,-1.09964 -8.32756,-0.91584 -1.80126,0.397 -0.97239,0.0753 -2.50121,0.92673 0,0 -0.56709,-1.06301 -0.56709,-1.06301 l 0,0 c 1.90252,-0.98008 0.90471,-0.62548 2.9926,-1.06616 2.99594,-0.18104 6.04236,0.0754 8.90546,1.02312 2.01554,0.93138 3.98968,2.11928 5.0587,4.14456 0.74772,2.12827 0.66164,4.10288 -0.27012,6.1903 -0.77822,1.94874 -1.58209,3.67523 -3.35643,4.93702 -2.11569,1.19501 -4.47611,1.75587 -6.91302,1.50901 -2.35163,-0.21296 -4.72594,-0.53759 -6.74428,-1.866 -1.70211,-1.28561 -2.7673,-2.83059 -2.71297,-5.05681 0.18722,-2.41875 1.13746,-4.62205 2.56529,-6.57839 1.74015,-1.75729 3.9851,-3.00219 6.4759,-3.25445 0,0 0,1.20481 0,1.20481 z"
     inkscape:connector-curvature="0" />
  <path
     style="fill:none;stroke:#000000;stroke-width:1;stroke-linecap:butt;stroke-linejoin:miter;stroke-miterlimit:4;stroke-opacity:1;stroke-dasharray:8, 8;stroke-dashoffset:0"
     d="m 159.03614,121.20482 c 0.80322,1.60642 4.01607,4.01606 2.40964,4.81928 -1.60642,0.80321 -3.67963,-6.08927 -2.40964,-4.81928 1.65587,1.65586 2.31549,4.07564 3.61446,6.0241 0.31505,0.47256 0.95082,0.69682 1.20482,1.20481 0.17961,0.35921 -0.28398,0.92085 0,1.20482 0.28398,0.28398 0.92084,-0.28397 1.20482,0 0.39893,0.39893 -0.39893,2.01071 0,2.40964 0.28398,0.28398 0.92084,-0.28398 1.20482,0 0.28398,0.28398 -0.28398,0.92084 0,1.20482 0.28398,0.28398 0.92084,-0.28398 1.20482,0 0.28398,0.28398 -0.1796,0.84561 0,1.20482 0.254,0.508 0.95082,0.69682 1.20482,1.20482 0.1796,0.35921 -0.28398,0.92084 0,1.20482 0.28398,0.28398 0.92084,-0.28398 1.20482,0 0.28398,0.28398 -0.28398,0.92084 0,1.20482 0.28398,0.28398 0.92084,-0.28398 1.20482,0 0.28398,0.28398 -0.28398,0.92084 0,1.20482 0.28398,0.28398 0.92084,-0.28398 1.20482,0 0.28398,0.28398 -0.17961,0.84561 0,1.20482 0.25399,0.50799 0.95082,0.69682 1.20482,1.20482 0.1796,0.3592 -0.28398,0.92084 0,1.20482 0.28397,0.28397 0.92084,-0.28398 1.20482,0 0.4006,0.4006 -0.40061,2.00903 0,2.40963 0.28397,0.28398 0.92084,-0.28397 1.20481,0 0.28398,0.28398 -0.28397,0.92085 0,1.20482 0.28398,0.28398 0.92085,-0.28397 1.20482,0 0.28398,0.28398 -0.28397,0.92084 0,1.20482 0.28398,0.28398 0.92084,-0.28398 1.20482,0 0.28398,0.28398 -0.1796,0.84561 0,1.20482 0.72289,1.44579 2.89157,2.16868 3.61446,3.61446 0.1796,0.35921 -0.28398,0.92084 0,1.20482 0.28398,0.28398 0.92084,-0.28398 1.20482,0 0.28398,0.28398 -0.28398,0.92084 0,1.20482 0.28398,0.28398 0.92084,-0.28398 1.20482,0 0.28398,0.28398 -0.1796,0.84561 0,1.20482 0.254,0.50799 0.95082,0.69682 1.20482,1.20482 0.1796,0.35921 -0.28398,0.92084 0,1.20482 0.28398,0.28398 0.92084,-0.28398 1.20482,0 0.28398,0.28398 -0.28398,0.92084 0,1.20482 0.28398,0.28397 0.92084,-0.28398 1.20482,0 0.28398,0.28397 -0.28398,0.92084 0,1.20482 0.28398,0.28397 0.92084,-0.28398 1.20482,0 0.28398,0.28397 -0.28398,0.92084 0,1.20481 0.28398,0.28398 0.92084,-0.28397 1.20482,0 0.56795,0.56796 -0.56796,1.84169 0,2.40964 0.28397,0.28398 0.92084,-0.28398 1.20482,0 0.28397,0.28398 -0.17961,0.84561 0,1.20482 0.25399,0.508 0.80321,0.80322 1.20481,1.20482 0.40161,0.40161 0.69683,0.95082 1.20482,1.20482 3.21286,0 -0.4016,-0.40161 1.20482,1.20482 0.28398,0.28398 0.92084,-0.28398 1.20482,0 0.28398,0.28398 -0.28398,0.92084 0,1.20482 0.28398,0.28398 0.92084,-0.28398 1.20482,0 0.28398,0.28398 -0.28398,0.92084 0,1.20482 0.56796,0.56796 1.84168,-0.56796 2.40964,0 0.28398,0.28398 -0.28398,0.92084 0,1.20482 0.28398,0.28398 0.84561,-0.17961 1.20482,0 0.508,0.254 0.69682,0.95082 1.20482,1.20482 0.35921,0.1796 0.92084,-0.28398 1.20482,0 0.28398,0.28398 -0.28398,0.92084 0,1.20482 0.56796,0.56795 1.84168,-0.56796 2.40964,0 0.28398,0.28398 -0.28398,0.92084 0,1.20482 0.28398,0.28397 0.84561,-0.17961 1.20482,0 3.99588,3.99588 -1.13592,-0.56796 2.40963,1.20482 0.508,0.25399 0.69683,0.95082 1.20482,1.20481 0.35921,0.17961 0.84562,-0.1796 1.20482,0 0.508,0.254 0.69683,0.95083 1.20482,1.20482 0.35921,0.17961 0.92084,-0.28397 1.20482,0 0.28398,0.28398 -0.28398,0.92084 0,1.20482 0.56796,0.56796 1.69122,-0.3592 2.40964,0 0.508,0.254 0.69682,0.95082 1.20482,1.20482 0.71841,0.35921 1.84168,-0.56795 2.40964,0 0.28398,0.28398 -0.28398,0.92084 0,1.20482 0.56795,0.56796 1.63733,-0.22066 2.40964,0 2.40963,0.80321 4.81927,1.60643 7.22891,2.40964 0.40161,0.40161 0.69682,0.95082 1.20482,1.20482 0.71842,0.35921 1.84168,-0.56796 2.40964,0 0.28398,0.28398 -0.28398,0.92084 0,1.20482 0.24631,0.24631 3.13676,-0.23885 3.61446,0 0.50799,0.254 0.69682,0.95082 1.20482,1.20482 0.83221,0.4161 5.60118,-0.42292 6.02409,0 0.28398,0.28398 -0.28398,0.92084 0,1.20482 0.28398,0.28398 0.80322,0 1.20482,0 2.40964,0 4.81928,0 7.22892,0 0.4016,0 0.92084,-0.28398 1.20482,0 0.28398,0.28398 -0.28398,0.92084 0,1.20482 0.28398,0.28398 0.80321,0 1.20482,0 0.4016,0 0.80321,0 1.20482,0 4.41767,0 8.83534,0 13.25301,0 4.41767,0 8.83534,0 13.25301,0 0.838,0 5.58839,0.21785 6.0241,0 0.50799,-0.254 0.69682,-0.95082 1.20482,-1.20482 0.36666,-0.18334 3.07185,0 3.61445,0 0.40161,0 0.80322,0 1.20482,0 0.40161,0 0.92084,0.28398 1.20482,0 0.28398,-0.28398 -0.28398,-0.92084 0,-1.20482 0.32967,-0.32967 4.16568,0.3268 4.81928,0 0.508,-0.254 0.69682,-0.95082 1.20482,-1.20482 0.71841,-0.35921 1.69122,0.35921 2.40964,0 0.50799,-0.254 0.69682,-0.95082 1.20482,-1.20482 0.3592,-0.1796 0.84561,0.1796 1.20482,0 0.50799,-0.254 0.69682,-0.95082 1.20481,-1.20482 0.64097,-0.32048 1.76868,0.32048 2.40964,0 0.508,-0.254 0.69683,-0.95082 1.20482,-1.20482 0.71842,-0.35921 1.84168,0.56796 2.40964,0 0.28398,-0.28398 -0.28398,-0.92084 0,-1.20482 0.56796,-0.56796 1.84168,0.56796 2.40964,0 0.28398,-0.28398 -0.28398,-0.92084 0,-1.20482 0.28398,-0.28398 0.84561,0.17961 1.20482,0 0.508,-0.254 0.69682,-0.95082 1.20482,-1.20482 0.35921,-0.1796 0.84561,0.17961 1.20482,0 0.50799,-0.254 0.69682,-0.95082 1.20482,-1.20482 0.3592,-0.1796 0.92084,0.28398 1.20482,0 0.28397,-0.28397 -0.28398,-0.92084 0,-1.20482 0.4006,-0.4006 2.00903,0.40061 2.40963,0 0.28398,-0.28397 -0.28397,-0.92084 0,-1.20481 0.28398,-0.28398 0.84562,0.1796 1.20482,0 0.508,-0.254 0.69683,-0.95083 1.20482,-1.20482 0.35921,-0.17961 0.92084,0.28397 1.20482,0 0.28398,-0.28398 -0.28398,-0.92084 0,-1.20482 0.28398,-0.28398 0.80322,0 1.20482,0 0,-0.40161 -0.1796,-0.84561 0,-1.20482 0.254,-0.508 0.80321,-0.80322 1.20482,-1.20482 0.40161,-0.40161 0.69682,-0.95082 1.20482,-1.20482 0.35921,-0.1796 0.92084,0.28398 1.20482,0 0.28398,-0.28398 -0.28398,-0.92084 0,-1.20482 0.28398,-0.28398 0.80321,0 1.20482,0 0,-0.40161 -0.1796,-0.84561 0,-1.20482 2.50708,-5.01417 -0.0832,1.288 2.40964,-1.20482 0.28398,-0.28398 -0.28398,-0.92084 0,-1.20482 0.28398,-0.28398 0.80321,0 1.20482,0 0,-0.4016 -0.28398,-0.92084 0,-1.20482 0.28398,-0.28398 0.92084,0.28398 1.20482,0 0.28397,-0.28398 -0.28398,-0.92084 0,-1.20482 0.28397,-0.28398 0.92084,0.28398 1.20482,0 0.28397,-0.28398 -0.28398,-0.92084 0,-1.20482 0.28397,-0.28397 0.92084,0.28398 1.20481,0 0.28398,-0.28397 -0.28397,-0.92084 0,-1.20482 0.28398,-0.28397 0.84562,0.17961 1.20482,0 0.508,-0.25399 0.69683,-0.95082 1.20482,-1.20481 0.35921,-0.17961 0.92084,0.28397 1.20482,0 0.28398,-0.28398 -0.28398,-0.92085 0,-1.20482 0.28398,-0.28398 0.80322,0 1.20482,0 0,-0.40161 -0.28398,-0.92084 0,-1.20482 0.28398,-0.28398 0.92084,0.28398 1.20482,0 0.28398,-0.28398 -0.28398,-0.92084 0,-1.20482 0.28398,-0.28398 0.92084,0.28398 1.20482,0 0.28398,-0.28398 -0.28398,-0.92084 0,-1.20482 0.28398,-0.28398 0.92084,0.28398 1.20482,0 0.28398,-0.28398 -0.28398,-0.92084 0,-1.20482 0.28398,-0.28398 0.92084,0.28398 1.20482,0 0.28398,-0.28398 -0.28398,-0.92084 0,-1.20482 0.28398,-0.28398 0.92084,0.28398 1.20482,0 0.28398,-0.28398 -0.17961,-0.84561 0,-1.20482 0.254,-0.508 0.80321,-0.80321 1.20482,-1.20482 0.4016,-0.40161 0.69682,-0.95082 1.20482,-1.20482 3.21285,0 -0.40161,0.40161 1.20482,-1.20482 0.28397,-0.28398 0.92084,0.28398 1.20482,0 0.28397,-0.28398 -0.28398,-0.92084 0,-1.20482 0.28397,-0.28398 0.92084,0.28398 1.20481,0 0.28398,-0.28398 -0.1796,-0.84561 0,-1.20482 0.7229,-1.44578 2.89157,-2.16867 3.61446,-3.61445 0.17961,-0.35921 -0.28398,-0.92084 0,-1.20482 0.28398,-0.28398 0.92084,0.28398 1.20482,0 0.28398,-0.28398 -0.28398,-0.92084 0,-1.20482 0.28398,-0.28398 0.92084,0.28398 1.20482,0 0.28398,-0.28398 -0.28398,-0.92084 0,-1.20482 0.28398,-0.28398 0.92084,0.28398 1.20482,0 0.28398,-0.28398 -0.28398,-0.92084 0,-1.20482 0.28398,-0.28398 0.92084,0.28398 1.20482,0 0.28398,-0.28398 -0.28398,-0.92084 0,-1.20482 0.28398,-0.28398 0.92084,0.28398 1.20482,0 0.28398,-0.28398 -0.17961,-0.84561 0,-1.20482 0.254,-0.508 0.95082,-0.69682 1.20482,-1.20482 0,-3.21285 -0.40161,0.40161 1.20482,-1.20482 0.28398,-0.28398 -0.28398,-0.92084 0,-1.20482 0.28398,-0.28398 0.92084,0.28398 1.20482,0 0.28398,-0.28398 -0.28398,-0.92084 0,-1.20482 0.28398,-0.28398 0.92084,0.28398 1.20482,0 0.56795,-0.56795 -0.56796,-1.84168 0,-2.40964 0.28397,-0.28397 0.92084,0.28398 1.20482,0 0.28397,-0.28397 -0.17961,-0.84561 0,-1.20481 0.50799,-1.016 1.90164,-1.39365 2.40963,-2.40964 0.75778,-1.51555 -1.73035,-2.40964 1.20482,-2.40964"
     id="path4988"
     inkscape:connector-curvature="0" />
  <path
     style="color:#000000;fill-opacity:1;fill-rule:nonzero;stroke:none;stroke-width:1;marker:none;visibility:visible;display:inline;overflow:visible;enable-background:accumulate"
     id="path4992"
     d="m 638.2141,119.39759 c 3.26797,0.0537 6.51069,0.59086 9.76706,0.87539 3.23078,0.34275 6.36744,1.12297 9.5173,1.87586 2.49837,0.55212 4.92861,1.31451 7.46128,1.71397 2.21994,0.35572 4.48501,0.10695 6.65668,0.73131 2.12625,1.37796 -1.6578,2.22667 -2.59046,2.60629 -2.8061,1.09945 -5.61638,2.17717 -8.45263,3.19649 -3.8328,1.20793 -7.61915,2.54119 -11.42647,3.82391 -3.31814,1.18003 -6.62219,2.42122 -9.9899,3.45452 -0.34181,0.10888 -0.68361,0.21777 -1.02542,0.32665 0,0 -0.36565,-1.14799 -0.36565,-1.14799 l 0,0 c 0.346,-0.1102 0.69201,-0.22039 1.03802,-0.33059 3.35778,-1.02794 6.65003,-2.27014 9.95842,-3.4444 3.79994,-1.27919 7.57809,-2.61159 11.40352,-3.81592 2.82107,-1.01386 5.61635,-2.08555 8.40742,-3.1792 0.66081,-0.26696 1.78174,-0.8896 2.51583,-0.94324 0.0702,-0.005 0.0104,0.14339 0.0398,0.20736 0.0852,0.18567 0.22994,0.3424 0.30032,0.53415 0.0232,0.0632 -0.10185,-0.0881 -0.15278,-0.13219 -2.10857,-0.63776 -4.34897,-0.29381 -6.505,-0.69714 -2.56319,-0.40701 -5.02539,-1.16849 -7.55308,-1.73218 -3.09233,-0.73946 -6.17041,-1.50857 -9.34207,-1.84741 -3.22153,-0.28176 -6.4298,-0.81195 -9.66214,-0.87082 0,0 0,-1.20482 0,-1.20482 z"
     inkscape:connector-curvature="0" />
  <path
     style="color:#000000;fill-opacity:1;fill-rule:nonzero;stroke:none;stroke-width:1;marker:none;visibility:visible;display:inline;overflow:visible;enable-background:accumulate"
     id="path4994"
     d="m 370.48193,12.28685 c 0.23816,3.83459 -0.54845,7.5705 -1.43192,11.27607 -1.30688,4.0998 -2.90943,8.11353 -4.58828,12.07553 -1.3383,1.91371 -1.07416,4.70234 -2.41171,6.56938 -0.33968,-0.41197 -0.83172,-0.7359 -1.01904,-1.23591 -0.24952,-0.66603 1.12563,-5.87286 1.31282,-6.82065 0.55428,-3.23364 1.29215,-6.43663 2.10426,-9.61516 0.30499,-0.71463 0.66013,-4.9232 1.47236,-5.09188 0.32986,-0.0685 0.65785,0.1457 0.98678,0.21855 0.99272,2.64712 2.24206,5.14006 3.65336,7.59058 2.08164,3.47998 4.42126,6.79031 6.78041,10.08484 1.8604,2.71493 3.99801,5.20673 6.0286,7.79087 0,0 -0.94734,0.7444 -0.94734,0.7444 l 0,0 c -2.04158,-2.59818 -4.18937,-5.10493 -6.06084,-7.83385 -2.38211,-3.32695 -4.74411,-6.67019 -6.84492,-10.18505 -1.31182,-2.27855 -2.7811,-4.64236 -3.34389,-7.23685 0.14999,-0.0648 0.32422,-0.0901 0.44997,-0.19441 0.0426,-0.0353 0.003,-0.2169 -0.0165,-0.16522 -0.55591,1.44855 -0.43432,3.12299 -0.99071,4.57627 -0.80669,3.15721 -1.5403,6.33844 -2.08965,9.55063 -0.29679,1.49907 -0.69565,2.97816 -0.9819,4.478 -0.074,0.38779 -0.118,0.78071 -0.17387,1.17152 -0.0472,0.33032 0.0863,0.74244 -0.13539,0.99183 -0.25688,0.28898 -0.72837,0.25972 -1.09255,0.38958 0.81744,-1.89656 1.17516,-4.31587 2.21045,-6.24772 1.65415,-3.89997 3.228,-7.85259 4.52565,-11.88503 0.8639,-3.61439 1.63636,-7.25529 1.39899,-10.99632 0,0 1.20482,0 1.20482,0 z"
     inkscape:connector-curvature="0" />
  <path
     style="color:#000000;fill-opacity:1;fill-rule:nonzero;stroke:none;stroke-width:1;marker:none;visibility:visible;display:inline;overflow:visible;enable-background:accumulate"
     id="path5002"
     d="m 431.10097,123.56488 c 1.93141,1.56095 3.72502,3.26324 5.61682,4.86437 1.44009,1.29828 2.78584,2.69106 4.25335,3.96133 1.3572,1.38052 2.64183,2.85521 4.30782,3.91238 1.7121,0.79296 3.31568,1.79165 5.26776,1.88175 1.81907,0.0139 3.33733,-0.56222 4.71907,-1.64001 1.71103,-1.4099 2.92813,-3.2031 4.20065,-4.94917 1.0887,-1.60652 1.56135,-3.46824 2.59468,-5.10731 0.83019,-1.59589 1.85777,-3.05672 2.9414,-4.50526 1.2196,-1.37116 2.50621,-2.67116 3.93177,-3.85322 1.75337,-1.09748 3.25786,-2.5017 5.0574,-3.52944 2.13086,-0.94155 4.521,-1.24962 6.85029,-1.063 2.01889,0.27814 3.83681,1.25593 5.59716,2.18088 1.81489,0.99872 3.02918,2.52306 4.34184,4.01509 1.19418,1.6735 2.34283,3.39478 3.37457,5.16664 0.78568,1.09027 0.39669,0.53122 1.16525,1.67822 0,0 -1.07826,0.64396 -1.07826,0.64396 l 0,0 c -0.76787,-1.14743 -0.36681,-0.56606 -1.2055,-1.74267 -0.9892,-1.70705 -2.10158,-3.35913 -3.23811,-4.97708 -1.20949,-1.37988 -2.30904,-2.79993 -3.98014,-3.73136 -1.60589,-0.84401 -3.25941,-1.75721 -5.09421,-2.03397 -2.05246,-0.19706 -4.18485,0.11294 -6.07743,0.89694 -1.74287,0.97439 -3.16766,2.36547 -4.87148,3.40146 -1.35188,1.11918 -2.56895,2.34981 -3.73149,3.64317 -1.06746,1.4243 -2.07581,2.86043 -2.89092,4.43238 -1.06941,1.64474 -1.47339,3.57138 -2.63659,5.1686 -1.3444,1.83687 -2.63299,3.7228 -4.44491,5.19907 -1.64768,1.25399 -3.46174,1.94256 -5.61039,1.9082 -2.17898,-0.16595 -4.00161,-1.13207 -5.901,-2.08835 -1.70341,-1.10985 -3.07614,-2.57311 -4.45341,-4.0216 -1.45795,-1.27308 -2.81066,-2.65069 -4.24142,-3.95108 -1.86134,-1.58053 -3.63418,-3.25178 -5.53004,-4.79706 0,0 0.76547,-0.96386 0.76547,-0.96386 z"
     inkscape:connector-curvature="0" />
  <path
     style="color:#000000;fill-opacity:1;fill-rule:nonzero;stroke:none;stroke-width:1;marker:none;visibility:visible;display:inline;overflow:visible;enable-background:accumulate"
     id="path5004"
     d="m 466.86747,165.2989 c 0,3.26889 0,6.53778 0,9.80667 0.27768,3.4661 0.7237,6.91436 0.98477,10.38229 0.143,2.58786 0.12552,5.15557 0.55967,7.71416 0.5547,2.31802 0.47308,4.73125 0.92456,7.0573 0,0 -1.18372,0.22449 -1.18372,0.22449 l 0,0 c -0.43452,-2.33923 -0.39244,-4.7505 -0.92876,-7.08072 -0.43838,-2.59603 -0.43631,-5.19936 -0.57317,-7.82485 -0.26298,-3.49799 -0.71937,-6.97558 -0.98817,-10.47267 0,-3.26889 0,-6.53778 0,-9.80667 0,0 1.20482,0 1.20482,0 z"
     inkscape:connector-curvature="0" />
  <path
     style="color:#000000;fill-opacity:1;fill-rule:nonzero;stroke:none;stroke-width:1;marker:none;visibility:visible;display:inline;overflow:visible;enable-background:accumulate"
     id="path5006"
     d="m 446.50372,190.48193 c 2.74795,0 5.49589,0 8.24384,0 2.56009,0 5.12017,0 7.68026,0 1.14803,0.032 2.27007,0.0219 3.40602,-0.13865 0,0 0.16202,1.19388 0.16202,1.19388 l 0,0 c -1.19117,0.1559 -2.36532,0.1943 -3.56804,0.14959 -2.56009,0 -5.12017,0 -7.68026,0 -2.74795,0 -5.49589,0 -8.24384,0 0,0 0,-1.20482 0,-1.20482 z"
     inkscape:connector-curvature="0" />
  <path
     style="color:#000000;fill-opacity:1;fill-rule:nonzero;stroke:none;stroke-width:1;marker:none;visibility:visible;display:inline;overflow:visible;enable-background:accumulate"
     id="path5008"
     d="m 453.95636,181.17469 c 2.77169,1.23692 5.55194,2.41585 8.28338,3.74292 2.22077,0.91568 4.37349,2.02946 6.23756,3.55371 1.79316,1.95903 -0.37601,3.88168 -1.85157,5.19935 -2.30055,1.95518 -4.54717,3.96112 -6.93156,5.8141 -1.41613,1.06664 -2.65789,2.33085 -4.02022,3.4635 0,0 -0.76994,-0.9267 -0.76994,-0.9267 l 0,0 c 1.37308,-1.13999 2.6217,-2.41674 4.0509,-3.48815 2.36336,-1.83636 4.58901,-3.82562 6.86981,-5.76273 0.8444,-0.74882 2.86194,-2.12899 1.88579,-3.37005 -1.77571,-1.48065 -3.87611,-2.5072 -5.9973,-3.39935 -2.70543,-1.31456 -5.45887,-2.4829 -8.20431,-3.70795 0,0 0.44746,-1.11865 0.44746,-1.11865 z"
     inkscape:connector-curvature="0" />
  <path
     style="color:#000000;fill-opacity:1;fill-rule:nonzero;stroke:none;stroke-width:1;marker:none;visibility:visible;display:inline;overflow:visible;enable-background:accumulate"
     id="path5010"
     d="m 496.98795,162.88926 c 0,2.8623 0,5.7246 0,8.5869 0.2765,3.09543 0.65213,6.17261 1.31565,9.20863 0.68369,2.78 0.88806,5.63454 1.02042,8.48403 0.0936,2.57034 0.0875,5.14285 0.0858,7.71448 -0.11486,2.31126 0.0215,4.56777 0.52115,6.82612 0.0534,0.14973 0.1068,0.29946 0.1602,0.4492 0,0 -1.13828,0.39486 -1.13828,0.39486 l 0,0 c -0.0662,-0.19498 -0.13236,-0.38996 -0.19854,-0.58494 -0.51386,-2.34343 -0.66911,-4.68846 -0.54935,-7.08601 0.002,-2.55277 0.008,-5.10641 -0.0845,-7.65792 -0.12869,-2.78184 -0.32484,-5.56893 -0.99397,-8.28271 -0.68118,-3.12016 -1.07037,-6.28371 -1.3434,-9.46574 0,-2.8623 0,-5.7246 0,-8.5869 0,0 1.20482,0 1.20482,0 z"
     inkscape:connector-curvature="0" />
  <path
     style="color:#000000;fill-opacity:1;fill-rule:nonzero;stroke:none;stroke-width:1;marker:none;visibility:visible;display:inline;overflow:visible;enable-background:accumulate"
     id="path5012"
     d="m 498.45506,189.27711 c 3.05634,0 6.11267,0 9.169,0 2.60794,0 5.21587,0 7.82381,0 0.80829,0 1.61657,0 2.42486,0 0,0 0,1.20482 0,1.20482 l 0,0 c -0.80829,0 -1.61657,0 -2.42486,0 -2.60794,0 -5.21587,0 -7.82381,0 -3.05633,0 -6.11266,0 -9.169,0 0,0 0,-1.20482 0,-1.20482 z"
     inkscape:connector-curvature="0" />
  <path
     style="color:#000000;fill-opacity:1;fill-rule:nonzero;stroke:none;stroke-width:1;marker:none;visibility:visible;display:inline;overflow:visible;enable-background:accumulate"
     id="path5014"
     d="m 510.89295,181.17888 c -1.69629,1.73177 -3.55598,3.32054 -5.42195,4.87151 -1.56033,1.06443 -3.16936,2.08221 -4.56192,3.36526 -0.94078,1.18419 0.16514,1.87171 1.07138,2.61522 2.03161,1.15897 3.8099,2.68414 5.771,3.94991 1.61028,0.76561 3.08643,1.75282 4.56786,2.73368 0,0 -0.66535,1.00443 -0.66535,1.00443 l 0,0 c -1.47761,-0.97926 -2.95179,-1.95914 -4.55691,-2.7265 -1.99805,-1.29529 -3.82035,-2.83697 -5.88427,-4.03294 -1.49082,-1.24074 -2.64533,-2.6684 -1.11612,-4.43351 1.41713,-1.28405 3.01416,-2.34706 4.60488,-3.40267 1.79645,-1.48859 3.5741,-3.02532 5.22754,-4.66728 0,0 0.96386,0.72289 0.96386,0.72289 z"
     inkscape:connector-curvature="0" />
  <path
     style="color:#000000;fill-opacity:1;fill-rule:nonzero;stroke:none;stroke-width:1;marker:none;visibility:visible;display:inline;overflow:visible;enable-background:accumulate"
     id="path5016"
     d="m 475.98783,216.21125 c -1.48942,2.71322 -2.87337,5.48162 -4.32261,8.21606 -1.12587,2.23511 -2.0245,4.58346 -3.17232,6.80603 -0.47723,1.3055 -1.54156,2.67166 -1.74847,3.9261 0.0286,-0.0537 0.027,-0.14571 0.0859,-0.16099 0.33994,-0.0882 0.69753,0.11553 1.04852,0.10338 0.95084,-0.0329 1.9515,-0.32846 2.88127,-0.5038 2.39937,-0.45906 4.83925,-0.60241 7.27535,-0.69139 2.37548,-0.0878 4.7225,-0.16482 7.06111,0.29506 0.61136,0.024 1.17148,0.30008 1.76821,0.39136 0.51577,0.0789 0.44327,-0.0316 -0.12825,0.26228 -1.15806,-1.70148 -2.63921,-3.14345 -3.93052,-4.73938 -1.74227,-2.05918 -3.54096,-4.1093 -5.45733,-6.01269 -2.14258,-1.99073 -4.38713,-3.87061 -6.37246,-6.02174 -0.24888,-0.35372 -0.49776,-0.70744 -0.74664,-1.06116 0,0 0.98828,-0.68911 0.98828,-0.68911 l 0,0 c 0.21487,0.31136 0.42974,0.62272 0.64461,0.93408 1.96875,2.1426 4.21375,3.9981 6.33636,5.98422 1.94258,1.93919 3.7765,4.01425 5.54442,6.10933 1.30825,1.62246 2.81824,3.08166 3.98687,4.815 1.02637,2.21844 -1.68235,1.53396 -2.8673,1.20973 -2.24544,-0.44677 -4.50165,-0.34896 -6.78347,-0.27296 -2.37592,0.0864 -4.75576,0.22395 -7.09597,0.67132 -1.77207,0.33418 -4.08827,1.17784 -5.42918,-0.43553 -0.0674,-1.69523 1.34293,-3.10292 1.86959,-4.66867 1.16098,-2.21873 2.03603,-4.5839 3.17693,-6.81479 1.4598,-2.75289 2.85181,-5.54107 4.35396,-8.27162 0,0 1.03313,0.61988 1.03313,0.61988 z"
     inkscape:connector-curvature="0" />
  <path
     style="color:#000000;fill-opacity:1;fill-rule:nonzero;stroke:none;stroke-width:1;marker:none;visibility:visible;display:inline;overflow:visible;enable-background:accumulate"
     id="path5018"
     d="m 489.87721,219.39759 c 2.67479,0.22685 5.0803,1.28634 7.08141,3.04467 2.08519,2.21461 2.00774,4.60227 0.54636,7.11423 -1.75827,2.19569 -4.19221,2.7747 -6.87537,2.65258 -1.73296,-0.36769 -0.90059,-0.0995 -2.4996,-0.79689 0,0 0.49246,-1.09958 0.49246,-1.09958 l 0,0 c 1.29951,0.60096 0.61287,0.36416 2.06583,0.69308 2.22315,0.11656 4.2705,-0.27546 5.78227,-2.06691 1.22151,-1.98052 1.33839,-3.79615 -0.31273,-5.59633 -1.75632,-1.58515 -3.9169,-2.50525 -6.28063,-2.74003 0,0 0,-1.20482 0,-1.20482 z"
     inkscape:connector-curvature="0" />
  <path
     style="color:#000000;fill-opacity:1;fill-rule:nonzero;stroke:none;stroke-width:1;marker:none;visibility:visible;display:inline;overflow:visible;enable-background:accumulate"
     id="path5020"
     d="m 510.00465,220.44659 c -2.76938,-0.67084 -5.32573,0.1388 -7.66083,1.62567 -2.15277,1.81687 -2.85926,4.49926 -2.23749,7.17546 1.30855,3.08712 4.31686,4.63527 7.30296,5.75184 2.72499,0.93946 5.51717,0.80459 8.25096,0.0451 0,0 0.31761,1.1622 0.31761,1.1622 l 0,0 c -2.98739,0.80422 -6.02247,0.95648 -8.99351,-0.0799 -3.38015,-1.28342 -6.6748,-3.07801 -8.05603,-6.62649 -0.69372,-3.46397 0.0624,-6.09341 2.77398,-8.44803 2.61036,-1.62447 5.45857,-2.52687 8.53863,-1.78726 0,0 -0.23628,1.18142 -0.23628,1.18142 z"
     inkscape:connector-curvature="0" />
  <path
     style="fill:none;stroke:#000000;stroke-width:1;stroke-linecap:butt;stroke-linejoin:miter;stroke-miterlimit:4;stroke-opacity:1;stroke-dasharray:6, 6;stroke-dashoffset:0"
     d="m 431.3253,107.95181 c 0,13.4602 0,32.61066 0,42.16867"
     id="path5022"
     inkscape:connector-curvature="0" />
  <path
     style="fill:none;stroke:#000000;stroke-width:1;stroke-linecap:butt;stroke-linejoin:miter;stroke-miterlimit:4;stroke-opacity:1;stroke-dasharray:6, 6;stroke-dashoffset:0"
     d="m 463.85542,108.55422 c 0,13.4602 0,32.61066 0,42.16867"
     id="path5022-6"
     inkscape:connector-curvature="0" />
  <path
     style="fill:none;stroke:#000000;stroke-width:1;stroke-linecap:butt;stroke-linejoin:miter;stroke-miterlimit:4;stroke-opacity:1;stroke-dasharray:6, 6;stroke-dashoffset:0"
     d="m 495.18073,107.3494 c 0,13.4602 0,32.61066 0,42.16867"
     id="path5022-9"
     inkscape:connector-curvature="0" />
</svg>
