<?xml version="1.0" encoding="UTF-8" standalone="no"?>
<!-- Created with Inkscape (http://www.inkscape.org/) -->

<svg
   xmlns:dc="http://purl.org/dc/elements/1.1/"
   xmlns:cc="http://creativecommons.org/ns#"
   xmlns:rdf="http://www.w3.org/1999/02/22-rdf-syntax-ns#"
   xmlns:svg="http://www.w3.org/2000/svg"
   xmlns="http://www.w3.org/2000/svg"
   xmlns:sodipodi="http://sodipodi.sourceforge.net/DTD/sodipodi-0.dtd"
   xmlns:inkscape="http://www.inkscape.org/namespaces/inkscape"
   width="800"
   height="200"
   id="svg2"
   version="1.1"
   inkscape:version="0.48.3.1 r9886"
   sodipodi:docname="wave_steepening.png">
  <defs
     id="defs4" />
  <sodipodi:namedview
     id="base"
     pagecolor="#ffffff"
     bordercolor="#666666"
     borderopacity="1.0"
     inkscape:pageopacity="0.0"
     inkscape:pageshadow="2"
     inkscape:zoom="0.98994949"
     inkscape:cx="339.30879"
     inkscape:cy="167.91174"
     inkscape:document-units="px"
     inkscape:current-layer="layer1"
     showgrid="false"
     inkscape:window-width="1102"
     inkscape:window-height="615"
     inkscape:window-x="0"
     inkscape:window-y="31"
     inkscape:window-maximized="0" />
  <metadata
     id="metadata7">
    <rdf:RDF>
      <cc:Work
         rdf:about="">
        <dc:format>image/svg+xml</dc:format>
        <dc:type
           rdf:resource="http://purl.org/dc/dcmitype/StillImage" />
        <dc:title></dc:title>
      </cc:Work>
    </rdf:RDF>
  </metadata>
  <g
     inkscape:label="Layer 1"
     inkscape:groupmode="layer"
     id="layer1"
     transform="translate(0,-852.36218)">
    <path
       style="color:#000000;fill:#000000;fill-opacity:1;fill-rule:nonzero;stroke:#000000;stroke-width:0.99772179;stroke-linecap:butt;stroke-linejoin:miter;stroke-miterlimit:4;stroke-opacity:1;stroke-dasharray:11.97266085, 11.97266085;stroke-dashoffset:0;marker:none;visibility:visible;display:inline;overflow:visible;enable-background:accumulate"
       id="path2991"
       d="m 357.51544,1006.2046 c -2.37154,0.7768 -4.86022,1.0633 -7.33006,1.3148 -2.97636,0.092 -5.73414,-0.9257 -8.48183,-1.9263 -2.56488,-1.1055 -5.11769,-2.2792 -7.55718,-3.643 -2.20128,-1.0615 -4.20631,-2.47424 -6.40742,-3.5274 -2.14542,-1.21124 -4.29024,-2.43342 -6.29628,-3.86855 -2.39431,-1.60397 -4.85078,-3.11912 -7.34249,-4.56634 -2.21057,-1.44908 -4.33838,-3.01541 -6.43709,-4.62468 -2.753,-2.18596 -5.33569,-4.57672 -7.91933,-6.95897 -2.49794,-2.37192 -5.21047,-4.49209 -7.91803,-6.61408 -2.55321,-1.6382 -5.05658,-3.32075 -7.55881,-5.03398 -2.63395,-1.91703 -5.30362,-3.77874 -7.95545,-5.67152 -2.43309,-1.49991 -4.66998,-3.27857 -6.96688,-4.97423 -2.65996,-2.00083 -5.12415,-4.24573 -7.58363,-6.48561 -2.77507,-2.50266 -5.72457,-4.84273 -8.76949,-7.00821 -2.36008,-1.95361 -4.92298,-3.627 -7.63231,-5.0448 -2.50423,-1.38537 -5.2051,-2.32259 -7.75866,-3.61127 -2.29406,-1.18156 -4.54786,-2.40887 -6.93114,-3.41591 -2.48619,-0.70282 -4.90605,-1.62991 -7.43671,-2.17216 -2.69061,-0.68466 -5.34444,-1.50128 -8.03782,-2.17381 -2.85705,-0.66305 -5.79305,-0.73179 -8.71144,-0.73548 -2.84198,-0.36412 -5.67237,-0.75363 -8.53484,-0.91956 -2.86483,-0.12523 -5.73315,-0.0426 -8.59806,0.0408 -2.84423,0.091 -5.68804,0.19562 -8.53195,0.2966 -2.9264,-0.10914 -5.75056,0.63962 -8.6033,1.16905 -2.92981,0.44266 -5.77042,1.34249 -8.56488,2.31084 -2.5853,0.62337 -5.00408,1.73974 -7.5592,2.45752 -2.33513,0.80574 -4.43585,2.06765 -6.5025,3.39521 -1.92011,1.12463 -3.83372,2.25108 -5.75087,3.38423 -2.2292,1.00296 -4.34946,2.19248 -6.39605,3.52942 -2.22002,1.39901 -4.3479,2.94301 -6.53665,4.3962 -2.71844,1.37692 -4.72442,3.69931 -6.9704,5.69113 -2.54154,1.9406 -4.8939,4.05894 -7.12327,6.35509 -2.00727,1.91747 -4.08358,3.77623 -5.96582,5.81983 -1.4657,1.49488 -2.95585,2.97738 -4.32405,4.56486 -1.4755,1.71112 -3.00103,3.39943 -4.62539,4.97239 -1.45201,1.58617 -2.966887,3.09897 -4.325417,4.77038 -1.53181,1.66977 -3.16972,3.24041 -4.66988,4.93896 -1.63903,1.63814 -3.49894,3.02667 -5.32515,4.4461 -1.93961,1.42667 -3.93169,2.75411 -5.96681,4.04065 -2.03063,1.27448 -3.88122,2.79369 -6.10379,3.72087 -1.97571,1.1468 -4.15512,1.79322 -6.23975,2.69527 -2.19224,0.67021 -4.36945,1.35533 -6.55724,2.05199 -2.41587,1.19837 -5.05414,1.68137 -7.616624,2.42077 -2.69947,0.9049 -5.49775,1.3683 -8.31715,1.6723 -2.82046,0.2578 -5.65222,0.3489 -8.48136,0.4486 -2.73617,-0.1027 -5.35536,0.2954 -8.00324,0.9248 -1.55226,0.3276 -0.78122,0.2388 -2.3114,0.2811 0,0 0.0499,1.4277 0.0499,1.4277 l 0,0 c 1.78244,-0.079 0.92099,0.034 2.5868,-0.3186 2.55811,-0.608 5.07996,-0.9943 7.72556,-0.8873 2.86331,-0.1005 5.72928,-0.1931 8.58365,-0.4559 2.90103,-0.3143 5.78089,-0.7917 8.55938,-1.7201 2.571914,-0.7488 5.228034,-1.2227 7.652734,-2.4318 2.2325,-0.7129 4.45606,-1.40328 6.68969,-2.10158 2.08006,-0.90007 4.25717,-1.54341 6.22755,-2.69006 2.2895,-0.97446 4.22587,-2.49091 6.31171,-3.82955 2.0723,-1.31288 4.10247,-2.66652 6.07922,-4.11965 1.89653,-1.47413 3.82852,-2.91806 5.52083,-4.63025 1.50534,-1.71849 3.17162,-3.28903 4.70617,-4.98184 1.32244,-1.62884 2.799267,-3.1005 4.212317,-4.64675 1.64969,-1.60911 3.21214,-3.32039 4.71397,-5.06666 1.34967,-1.58204 2.84285,-3.04122 4.29227,-4.52904 1.86521,-2.04074 3.94858,-3.87498 5.93832,-5.7907 2.20467,-2.2717 4.53256,-4.36251 7.04688,-6.28203 2.19405,-1.9511 4.1537,-4.22362 6.8124,-5.56946 2.18601,-1.4517 4.31033,-2.99508 6.52847,-4.3908 2.02797,-1.32841 4.13464,-2.49315 6.34147,-3.49546 1.93157,-1.14311 3.85937,-2.27978 5.7956,-3.41181 1.94876,-1.25209 3.92274,-2.44961 6.12022,-3.2231 2.58105,-0.73062 5.02755,-1.84667 7.63866,-2.48246 2.72759,-0.94523 5.49896,-1.82808 8.35942,-2.25649 2.78471,-0.51728 5.53802,-1.25684 8.39503,-1.14615 2.8409,-0.10096 5.68168,-0.20552 8.5229,-0.29639 2.82398,-0.0823 5.65128,-0.16439 8.47524,-0.0425 2.88944,0.16631 5.74355,0.57816 8.61483,0.92193 2.80356,0.003 5.62487,0.0617 8.37073,0.69345 2.70956,0.67434 5.37798,1.5 8.08536,2.1848 2.44484,0.51722 4.77633,1.42935 7.1814,2.09192 2.35552,0.99152 4.57763,2.20934 6.84426,3.37576 2.54922,1.28217 5.23916,2.22687 7.74044,3.60192 2.6554,1.38274 5.15539,3.0341 7.46735,4.9438 3.00065,2.12848 5.90166,4.43841 8.63561,6.90034 2.49551,2.27259 4.99663,4.5493 7.69642,6.57821 2.30293,1.7001 4.54662,3.48294 6.98539,4.98766 2.6598,1.89788 5.3369,3.76525 7.9786,5.68771 2.47839,1.69353 4.95114,3.36775 7.48461,4.9796 2.67778,2.09857 5.36179,4.19349 7.8313,6.54032 2.61529,2.41138 5.2301,4.8309 8.01809,7.04205 2.14713,1.64541 4.32409,3.24794 6.58827,4.72589 2.4549,1.42274 4.87177,2.91812 7.2312,4.49462 2.07882,1.47568 4.28597,2.75317 6.51023,3.99433 2.1786,1.02872 4.148,2.44932 6.32741,3.48622 2.51138,1.3889 5.12048,2.6138 7.76076,3.7359 2.94892,1.0739 5.91589,2.1356 9.10984,2.0044 2.58982,-0.2645 5.19866,-0.5711 7.68212,-1.397 0,0 -0.49398,-1.339 -0.49398,-1.339 z"
       inkscape:connector-curvature="0" />
    <path
       style="fill:none;stroke:#000000;stroke-width:1px;stroke-linecap:butt;stroke-linejoin:miter;stroke-opacity:1"
       d="m 187.98691,868.10497 4.28572,178.57143"
       id="path3761"
       inkscape:connector-curvature="0" />
    <path
       style="fill:none;stroke:#000000;stroke-width:1.47908139px;stroke-linecap:butt;stroke-linejoin:miter;stroke-opacity:1"
       d="m 188.89023,865.77308 -9.52092,30.94949"
       id="path3763"
       inkscape:connector-curvature="0" />
    <path
       style="fill:none;stroke:#000000;stroke-width:1.47908139px;stroke-linecap:butt;stroke-linejoin:miter;stroke-opacity:1"
       d="m 188.65502,865.48737 9.52092,30.94949"
       id="path3763-1"
       inkscape:connector-curvature="0" />
    <path
       style="fill:none;stroke:#000000;stroke-width:1px;stroke-linecap:butt;stroke-linejoin:miter;stroke-opacity:1"
       d="m 147.7012,1046.3907 82.85714,-1.4286"
       id="path3783"
       inkscape:connector-curvature="0" />
    <path
       style="fill:none;stroke:#000000;stroke-width:1.25870562px;stroke-linecap:butt;stroke-linejoin:miter;stroke-opacity:1"
       d="m 186.55834,924.53354 131.27387,-1.42857"
       id="path3783-8"
       inkscape:connector-curvature="0" />
    <path
       style="fill:none;stroke:#000000;stroke-width:0.62816978px;stroke-linecap:butt;stroke-linejoin:miter;stroke-opacity:1"
       d="m 292.34998,974.53353 32.6952,-1.42856"
       id="path3783-8-1"
       inkscape:connector-curvature="0" />
    <path
       style="fill:none;stroke:#000000;stroke-width:1px;stroke-linecap:butt;stroke-linejoin:miter;stroke-opacity:1"
       d="m 297.98691,916.6764 22.85714,5.71429"
       id="path3821"
       inkscape:connector-curvature="0" />
    <path
       style="fill:none;stroke:#000000;stroke-width:1px;stroke-linecap:butt;stroke-linejoin:miter;stroke-opacity:1"
       d="m 299.41548,930.96211 21.42857,-8.57142"
       id="path3823"
       inkscape:connector-curvature="0" />
    <path
       style="fill:none;stroke:#000000;stroke-width:1px;stroke-linecap:butt;stroke-linejoin:miter;stroke-opacity:1"
       d="m 307.98691,966.67639 22.85714,5.71429"
       id="path3821-8"
       inkscape:connector-curvature="0" />
    <path
       style="fill:none;stroke:#000000;stroke-width:1px;stroke-linecap:butt;stroke-linejoin:miter;stroke-opacity:1"
       d="m 309.41548,980.96211 21.42857,-8.57143"
       id="path3823-8"
       inkscape:connector-curvature="0" />
    <path
       style="fill:none;stroke:#000000;stroke-width:1px;stroke-linecap:butt;stroke-linejoin:miter;stroke-opacity:1"
       d="m 190.84405,922.39069 c -1.90476,-0.95239 -3.73701,-2.06624 -5.71428,-2.85715 -0.44213,-0.17685 -0.95238,0 -1.42857,0 -0.47619,0 -1.09186,-0.33672 -1.42857,0 -0.33672,0.33672 0,0.95238 0,1.42857 0,0.47619 0,0.95238 0,1.42858 0,0.74702 -0.18782,5.33865 0,5.71428 0.30117,0.60234 0.82623,1.1274 1.42857,1.42857 0.43476,0.21738 3.64234,0 4.28571,0 0.47619,0 1.09186,0.33672 1.42857,0 0.33672,-0.33672 -0.33671,-1.09185 0,-1.42857 1.55844,-1.55844 8.52814,6.70996 1.42857,-5.71428 -2.61224,-4.57143 -4.02993,-4.28572 -7.14285,-4.28572 -0.47619,0 -0.95238,0 -1.42857,0 -0.47619,0 -1.09186,-0.33672 -1.42858,0 -0.0575,0.0575 0,5.18966 0,5.71429"
       id="path3846"
       inkscape:connector-curvature="0" />
    <path
       style="fill:none;stroke:#000000;stroke-width:1px;stroke-linecap:butt;stroke-linejoin:miter;stroke-opacity:1"
       d="m 296.55834,966.67639 c 0.40851,6.73436 -5.45927,-1.68358 -7.14286,0 -0.33671,0.33672 0.33672,1.09186 0,1.42858 -0.33671,0.33671 -1.09185,-0.33672 -1.42857,0 -0.0575,0.0575 0,5.18966 0,5.71428 0,0.34647 -0.0459,4.23977 0,4.28572 0.33672,0.33671 0.95238,0 1.42857,0 0.47619,0 0.95238,0 1.42857,0 0.34647,0 4.23978,0.0459 4.28572,0 0.67343,-0.67344 -0.67344,-2.18371 0,-2.85715 0.33672,-0.33671 1.09185,0.33672 1.42857,0 0.33672,-0.33671 0,-0.95238 0,-1.42857 0,-2.38095 1.52425,-5.31376 0,-7.14286 -1.55443,-1.86532 -4.74779,-1.02939 -7.14286,-1.42857 -0.46971,-0.0783 -0.95238,0 -1.42857,0 -0.47619,0 -1.00265,-0.21296 -1.42857,0 -0.60234,0.30117 -1.1274,0.82624 -1.42857,1.42857 -0.21738,0.43477 0,3.64235 0,4.28572"
       id="path3848"
       inkscape:connector-curvature="0" />
    <path
       style="color:#000000;fill:#000000;fill-opacity:1;fill-rule:nonzero;stroke:#000000;stroke-width:1;stroke-linecap:butt;stroke-linejoin:miter;stroke-miterlimit:4;stroke-opacity:1;stroke-dasharray:12, 12;stroke-dashoffset:0;marker:none;visibility:visible;display:inline;overflow:visible;enable-background:accumulate"
       id="path3850"
       d="m 211.69257,868.39174 c 0.8326,2.77877 0.76658,5.71135 1.2928,8.54239 0.1811,1.0624 0.91709,4.37976 2.57988,3.18983 1.92063,-1.62144 2.85256,-4.02285 3.87207,-6.24756 1.09047,-2.78593 2.16102,-5.58669 2.85427,-8.50188 0.2844,-0.93912 0.004,-4.93745 2.06616,-2.37115 0.0558,0.0695 0.0843,2.50922 0.0886,2.75219 -0.0768,3.77517 -0.0602,7.51432 0.78551,11.20802 0.90138,3.31406 3.54048,4.79599 6.6383,5.65676 1.55178,0.0983 0.79965,0.15907 2.25833,-0.15642 0,0 0.27005,1.40281 0.27005,1.40281 l 0,0 c -1.9322,0.33799 -0.96012,0.29493 -2.91627,0.12852 -3.60155,-1.02973 -6.60962,-2.87263 -7.64361,-6.71575 -0.85209,-3.79208 -0.9145,-7.62396 -0.82066,-11.49883 -0.0216,-1.24458 -0.72896,-3.13466 1.23448,-3.25658 0.20322,-0.0126 -0.0844,0.39844 -0.12039,0.59885 -0.0658,0.36701 -0.12326,0.73547 -0.1849,1.10321 -0.0887,0.49335 -0.17738,0.9867 -0.26608,1.48005 -0.71966,3.0044 -1.81278,5.89565 -2.94511,8.76537 -1.16257,2.53664 -2.25205,5.27295 -4.59628,6.96036 -3.14803,1.08893 -4.02189,-1.66712 -4.55953,-4.24027 -0.501,-2.76924 -0.47166,-5.62517 -1.24289,-8.34817 0,0 1.35526,-0.45175 1.35526,-0.45175 z"
       inkscape:connector-curvature="0" />
    <path
       style="fill:none;stroke:#000000;stroke-width:1px;stroke-linecap:butt;stroke-linejoin:miter;stroke-opacity:1"
       d="m 587.95282,868.06574 4.28572,178.57146"
       id="path3761-9"
       inkscape:connector-curvature="0" />
    <path
       style="fill:none;stroke:#000000;stroke-width:1.47908139px;stroke-linecap:butt;stroke-linejoin:miter;stroke-opacity:1"
       d="m 588.85614,865.73385 -9.52092,30.94949"
       id="path3763-9"
       inkscape:connector-curvature="0" />
    <path
       style="fill:none;stroke:#000000;stroke-width:1.47908139px;stroke-linecap:butt;stroke-linejoin:miter;stroke-opacity:1"
       d="m 588.62093,865.44814 9.52092,30.94949"
       id="path3763-1-6"
       inkscape:connector-curvature="0" />
    <path
       style="fill:none;stroke:#000000;stroke-width:1px;stroke-linecap:butt;stroke-linejoin:miter;stroke-opacity:1"
       d="m 547.66711,1046.3515 82.85714,-1.4286"
       id="path3783-3"
       inkscape:connector-curvature="0" />
    <path
       style="color:#000000;fill:#000000;fill-opacity:1;fill-rule:nonzero;stroke:#000000;stroke-width:1;stroke-linecap:butt;stroke-linejoin:miter;stroke-miterlimit:4;stroke-opacity:1;stroke-dasharray:12, 12;stroke-dashoffset:0;marker:none;visibility:visible;display:inline;overflow:visible;enable-background:accumulate"
       id="path3850-0"
       d="m 611.65848,868.35251 c 0.8326,2.77877 0.76658,5.71135 1.2928,8.54239 0.1811,1.0624 0.91709,4.37976 2.57988,3.18983 1.92063,-1.62144 2.85256,-4.02285 3.87207,-6.24756 1.09047,-2.78593 2.16102,-5.58669 2.85427,-8.50188 0.2844,-0.93912 0.004,-4.93745 2.06616,-2.37115 0.0558,0.0695 0.0843,2.50922 0.0886,2.75219 -0.0768,3.77517 -0.0602,7.51432 0.78551,11.20802 0.90138,3.31406 3.54048,4.79599 6.6383,5.65676 1.55178,0.0983 0.79965,0.15907 2.25833,-0.15642 0,0 0.27005,1.40281 0.27005,1.40281 l 0,0 c -1.9322,0.33799 -0.96012,0.29493 -2.91627,0.12852 -3.60155,-1.02973 -6.60962,-2.87263 -7.64361,-6.71575 -0.85209,-3.79208 -0.9145,-7.62396 -0.82066,-11.49883 -0.0216,-1.24458 -0.72896,-3.13466 1.23448,-3.25658 0.20322,-0.0126 -0.0844,0.39844 -0.12039,0.59885 -0.0658,0.36701 -0.12326,0.73547 -0.1849,1.10321 -0.0887,0.49335 -0.17738,0.9867 -0.26608,1.48005 -0.71966,3.0044 -1.81278,5.89565 -2.94511,8.76537 -1.16257,2.53664 -2.25205,5.27295 -4.59628,6.96036 -3.14803,1.08893 -4.02189,-1.66712 -4.55953,-4.24027 -0.501,-2.76924 -0.47166,-5.62517 -1.24289,-8.34817 0,0 1.35526,-0.45175 1.35526,-0.45175 z"
       inkscape:connector-curvature="0" />
    <path
       style="color:#000000;fill:#000000;fill-opacity:1;fill-rule:nonzero;stroke:#000000;stroke-width:1;stroke-linecap:butt;stroke-linejoin:miter;stroke-miterlimit:4;stroke-opacity:1;stroke-dasharray:12, 12;stroke-dashoffset:0;marker:none;visibility:visible;display:inline;overflow:visible;enable-background:accumulate"
       id="path3949"
       d="m 434.96975,149.99745 c 2.30396,0 4.60791,0 6.91186,0 2.14644,0 4.29289,0 6.43933,0 2.02307,0.0528 4.00286,-0.44452 5.93183,-0.99995 2.0279,-0.46793 4.05298,-0.93586 6.08336,-1.39807 2.01074,-0.47452 4.04593,-0.89894 6.03951,-1.44551 1.89248,-0.42965 3.73471,-0.98497 5.59285,-1.53668 1.63572,-0.39755 3.20125,-1.05129 4.7746,-1.64617 1.47433,-0.75772 2.95784,-1.46993 4.37752,-2.3292 1.6855,-0.85282 3.41894,-1.58479 5.09264,-2.46376 1.79744,-0.82639 3.60942,-1.62273 5.37865,-2.50888 1.85235,-0.73269 3.60935,-1.65598 5.38948,-2.54419 1.46165,-1.05096 3.16037,-1.67967 4.7018,-2.58724 1.72928,-0.9482 3.38778,-2.01165 5.07452,-3.03101 1.88775,-1.31186 3.90309,-2.43289 5.80384,-3.72148 1.68858,-1.11952 3.57863,-1.86807 5.31997,-2.89564 2.01443,-0.98215 3.94938,-2.13172 5.99073,-3.05869 1.74915,-0.92046 3.45587,-1.9179 5.21826,-2.81302 1.84525,-1.09589 3.84514,-1.88013 5.75936,-2.83145 1.50454,-0.83808 3.04441,-1.6382 4.51364,-2.54478 1.84435,-1.05538 3.83626,-1.80497 5.68219,-2.85796 2.05883,-0.97908 4.02514,-2.1495 6.10088,-3.09251 1.64445,-0.98681 3.40281,-1.75117 5.09211,-2.64552 1.75429,-0.73368 3.39253,-1.70345 5.12996,-2.472127 1.54837,-0.780991 3.06776,-1.636785 4.6634,-2.318286 1.75307,-0.85638 3.56552,-1.565729 5.36662,-2.309809 2.00091,-0.831915 4.01103,-1.634355 6.03833,-2.40193 1.99288,-0.781495 4.0588,-1.309476 6.10292,-1.925661 1.89397,-0.623523 3.86903,-0.84955 5.7786,-1.405971 1.65027,-0.315328 3.18898,-0.98267 4.81569,-1.385089 1.81057,-0.465566 3.62782,-0.888403 5.45486,-1.305411 3.24345,-0.821297 6.54691,-1.316048 9.83334,-1.919886 2.66172,-0.406149 5.27194,-0.954677 7.87681,-1.621975 1.93709,-0.331829 3.82123,-0.888998 5.7522,-1.252306 1.99066,-0.372817 4.00096,-0.749023 5.96222,-1.262543 1.97481,-0.672477 4.06353,-0.784873 6.09126,-1.190193 2.03721,-0.360004 4.03256,-0.87128 6.0433,-1.3496 1.89347,-0.274599 3.74322,-0.638332 5.60167,-1.087712 1.86741,-0.278321 3.70876,-0.634884 5.55899,-1.013604 1.90509,-0.360751 3.83135,-0.393116 5.71954,-0.836048 1.79889,-0.466732 3.6507,-0.612352 5.49971,-0.703168 1.98221,-0.358579 3.96013,-0.702329 5.96681,-0.891458 2.03283,-0.161249 4.07329,-0.172236 6.11123,-0.182871 2.02186,-0.0047 4.04373,2.19e-4 6.06559,0.0025 2.01848,0.0094 3.99971,-0.480716 5.9991,-0.725324 3.44684,-0.321223 6.91978,-0.260471 10.37863,-0.279882 2.92739,-0.0127 5.85482,-0.0091 8.78224,-0.0061 1.93429,-0.184263 3.78818,0.285838 5.67205,0.620192 1.82146,0.344783 3.68692,0.220195 5.51031,0.508205 1.71396,0.432133 3.458,0.662027 5.21775,0.789246 1.76185,0.03103 3.4611,0.511781 5.0801,1.171154 1.47473,0.482267 2.80173,1.313187 3.96562,2.327487 0.99666,1.269477 1.69947,2.76527 2.14041,4.314786 0.42239,1.880195 0.44277,3.816978 0.47387,5.734628 0.0176,2.022887 0.006,4.04589 0.002,6.068813 -0.005,2.0223 -0.006,4.044606 -0.007,6.066911 -5.8e-4,2.020394 -4.9e-4,4.040784 -4.7e-4,6.061174 4e-5,2.02028 7e-5,4.04056 9e-5,6.06084 10e-6,2.0203 10e-6,4.0406 10e-6,6.0609 -0.007,2.01873 0.48334,3.99992 0.72829,5.9996 0.29841,1.96336 0.0941,3.97033 0.39538,5.92702 0.42245,1.75096 0.65538,3.52936 0.78589,5.32309 0.0743,1.75186 0.59721,3.43995 0.84474,5.17391 0.12568,1.61495 0.62715,3.16222 1.25601,4.64325 0.46241,1.35831 1.20868,2.60777 2.16198,3.67693 0.86795,1.09896 1.78202,2.11551 3.0748,2.69152 1.35829,0.87175 2.87009,1.22311 4.44677,1.42812 1.92996,0.18682 3.87184,0.17868 5.80879,0.18338 2.02331,-0.001 4.04662,-0.008 6.06994,-0.0111 2.02177,-0.003 4.04354,-0.003 6.06531,-0.004 2.02035,-1.7e-4 4.0407,-9e-5 6.06106,-5e-5 0.3191,0.0418 0.6382,0.0836 0.9573,0.12544 0,0 -0.13602,1.00096 -0.13602,1.00096 l 0,0 c -0.27377,-0.0388 -0.54753,-0.0775 -0.8213,-0.11625 -2.0203,-3e-5 -4.0406,-1.1e-4 -6.06089,6e-5 -2.02127,2.8e-4 -4.04253,6.7e-4 -6.06379,0.004 -2.02469,0.003 -4.04938,0.01 -6.07407,0.0111 -1.98,-0.005 -3.96513,0.003 -5.9377,-0.19196 -1.67214,-0.22112 -3.29176,-0.59259 -4.73577,-1.51117 -1.41267,-0.66039 -2.46495,-1.71415 -3.41279,-2.94273 -1.01074,-1.16136 -1.83854,-2.4844 -2.33347,-3.94953 -0.66257,-1.56129 -1.1871,-3.19485 -1.32624,-4.89565 -0.24915,-1.7568 -0.7841,-3.4666 -0.85216,-5.24315 -0.12785,-1.76878 -0.3627,-3.5206 -0.77753,-5.24739 -0.28468,-1.96982 -0.12286,-3.97742 -0.39892,-5.95315 -0.24919,-2.0403 -0.75096,-4.06131 -0.73577,-6.12224 0,-2.0203 0,-4.0406 -10e-6,-6.0609 -10e-6,-2.02027 -4e-5,-4.04055 -8e-5,-6.06083 -2e-5,-2.02053 -1.1e-4,-4.04106 4.7e-4,-6.06159 8.1e-4,-2.022985 0.002,-4.045971 0.007,-6.068951 0.005,-2.016664 0.0159,-4.033408 -0.001,-6.050037 -0.0295,-1.830811 -0.0453,-3.679896 -0.43618,-5.477151 -0.38142,-1.370768 -1.00713,-2.675889 -1.83593,-3.830705 -1.06774,-0.953479 -2.31629,-1.701178 -3.67898,-2.149914 -1.52103,-0.620206 -3.11507,-1.076953 -4.77198,-1.09911 -1.78913,-0.130229 -3.5641,-0.359444 -5.30665,-0.799672 -1.82369,-0.305844 -3.70288,-0.14003 -5.52503,-0.510708 -1.8272,-0.324987 -3.61947,-0.789074 -5.49639,-0.604616 -2.92518,-0.003 -5.85037,-0.0066 -8.77553,0.0061 -3.41985,0.01918 -6.85356,-0.04103 -10.26179,0.272444 -2.04035,0.248891 -4.06174,0.750232 -6.12275,0.732778 -2.01972,-0.0023 -4.03945,-0.0072 -6.05918,-0.0025 -2.00813,0.01045 -4.01875,0.02074 -6.02192,0.17845 -2.02207,0.189667 -4.01216,0.549664 -6.01198,0.894685 -1.78818,0.08727 -3.57939,0.225167 -5.31893,0.677804 -1.89866,0.443296 -3.83068,0.49347 -5.74723,0.842117 -1.83834,0.375995 -3.66828,0.733293 -5.52416,1.005833 -1.85936,0.449246 -3.71084,0.817593 -5.60536,1.088597 -2.02316,0.480664 -4.03134,0.994412 -6.0807,1.357746 -2.01011,0.394624 -4.07581,0.516622 -6.03305,1.176865 -1.98555,0.513951 -4.01596,0.902584 -6.03028,1.277771 -1.90956,0.357642 -3.77212,0.912435 -5.68795,1.238062 -2.6274,0.672825 -5.26068,1.226655 -7.94503,1.636957 -3.27257,0.600355 -6.56186,1.092724 -9.79132,1.911245 -1.82168,0.414438 -3.63374,0.832429 -5.43787,1.301383 -1.61323,0.394888 -3.13779,1.065554 -4.77469,1.374081 -1.90748,0.555088 -3.87729,0.787643 -5.77021,1.403489 -2.02274,0.60647 -4.065,1.130206 -6.03615,1.90302 -2.01818,0.763602 -4.01903,1.562215 -6.01053,2.390937 -1.79843,0.741524 -3.60677,1.451374 -5.35698,2.305768 -1.59377,0.673278 -3.10325,1.540995 -4.65068,2.312781 -1.71746,0.755399 -3.33295,1.720099 -5.06679,2.441589 -1.71075,0.89758 -3.4797,1.68278 -5.14602,2.67191 -2.04913,0.92643 -3.9856,2.08845 -6.01822,3.05037 -1.83807,1.04387 -3.81147,1.80301 -5.65224,2.84023 -1.49742,0.92001 -3.06321,1.73641 -4.59507,2.58987 -1.91444,0.9444 -3.90599,1.7365 -5.75051,2.82703 -1.77646,0.9002 -3.49312,1.91056 -5.25847,2.83231 -2.0102,0.90827 -3.91078,2.04711 -5.89498,3.00899 -1.72535,1.01394 -3.58952,1.76487 -5.26668,2.86198 -1.91824,1.29407 -3.94281,2.43148 -5.84749,3.74939 -1.69139,1.02068 -3.35319,2.08785 -5.08661,3.0382 -1.56613,0.91109 -3.27437,1.56582 -4.76118,2.61937 -1.78002,0.88685 -3.53623,1.81189 -5.38822,2.54355 -1.76402,0.88175 -3.56798,1.67975 -5.361,2.49983 -1.65601,0.86959 -3.36773,1.60022 -5.03983,2.43398 -1.47282,0.88878 -3.00973,1.63288 -4.54282,2.40955 -1.59626,0.60318 -3.18573,1.2637 -4.84454,1.66973 -1.86531,0.55255 -3.71514,1.11076 -5.61418,1.54275 -2.00904,0.54568 -4.05593,0.97965 -6.08132,1.45596 -2.01188,0.45737 -4.01827,0.92243 -6.028,1.38382 -2.01975,0.58127 -4.09351,1.09184 -6.21127,1.03937 -2.14644,0 -4.29289,0 -6.43933,0 -2.30395,0 -4.6079,0 -6.91186,0 0,0 0,-1.01015 0,-1.01015 z"
       inkscape:connector-curvature="0"
       transform="translate(0,852.36218)" />
  </g>
</svg>
