<?xml version="1.0" encoding="UTF-8" standalone="no"?>
<!-- Created with Inkscape (http://www.inkscape.org/) -->

<svg
   xmlns:dc="http://purl.org/dc/elements/1.1/"
   xmlns:cc="http://creativecommons.org/ns#"
   xmlns:rdf="http://www.w3.org/1999/02/22-rdf-syntax-ns#"
   xmlns:svg="http://www.w3.org/2000/svg"
   xmlns="http://www.w3.org/2000/svg"
   xmlns:sodipodi="http://sodipodi.sourceforge.net/DTD/sodipodi-0.dtd"
   xmlns:inkscape="http://www.inkscape.org/namespaces/inkscape"
   id="svg3036"
   version="1.1"
   inkscape:version="0.48.3.1 r9886"
   width="800"
   height="300"
   sodipodi:docname="wet_dry.png">
  <metadata
     id="metadata3042">
    <rdf:RDF>
      <cc:Work
         rdf:about="">
        <dc:format>image/svg+xml</dc:format>
        <dc:type
           rdf:resource="http://purl.org/dc/dcmitype/StillImage" />
        <dc:title></dc:title>
      </cc:Work>
    </rdf:RDF>
  </metadata>
  <defs
     id="defs3040" />
  <sodipodi:namedview
     pagecolor="#ffffff"
     bordercolor="#666666"
     borderopacity="1"
     objecttolerance="10"
     gridtolerance="10"
     guidetolerance="10"
     inkscape:pageopacity="0"
     inkscape:pageshadow="2"
     inkscape:window-width="1107"
     inkscape:window-height="663"
     id="namedview3038"
     showgrid="false"
     inkscape:zoom="0.83"
     inkscape:cx="378.91566"
     inkscape:cy="197.5544"
     inkscape:window-x="28"
     inkscape:window-y="107"
     inkscape:window-maximized="0"
     inkscape:current-layer="svg3036" />
  <rect
     style="fill:#ffffff;stroke-width:0.1;stroke-miterlimit:4;stroke-dasharray:0.4, 0.4;stroke-dashoffset:0"
     id="rect3119"
     width="33.73494"
     height="48.192772"
     x="386.74698"
     y="177.10843" />
  <path
     style="fill:#000000;stroke-width:0.1;stroke-miterlimit:4;stroke-dasharray:0.4, 0.4;stroke-dashoffset:0"
     id="path3248"
     d="m 332.04588,131.97573 c 2.74795,0 5.4959,0 8.24384,0 2.56009,0 5.12017,0 7.68026,0 2.69468,-0.16005 5.33759,0.43726 8.00088,0.75866 4.15284,0.41631 8.33019,0.43545 12.49845,0.47729 4.32978,0.0305 8.65969,0.0265 12.98955,0.0233 3.2934,-0.003 6.5868,-0.005 9.8802,-0.006 3.64489,-7.7e-4 7.28977,-7.3e-4 10.93466,-7.5e-4 3.31533,1e-5 6.63066,4e-5 9.94598,5e-5 3.36242,10e-6 6.72483,10e-6 10.08725,2e-5 3.58157,-0.34761 7.15018,-0.78669 10.74152,-1.02427 3.65476,-0.214 7.31685,-0.21848 10.9762,-0.23347 2.88517,-0.11133 5.79504,0.19869 8.66681,-0.14461 2.65835,-0.52247 5.3463,-0.79269 8.04407,-0.96084 2.56675,-0.13528 5.1374,-0.14361 7.70677,-0.15014 2.61838,0.0948 3.69191,1.82333 4.22097,4.25874 0.36265,2.69094 0.285,5.42185 0.2748,8.13224 -0.0192,2.79786 -0.0332,5.59573 -0.0402,8.39365 -0.0593,2.9655 -0.054,5.90111 0.33096,8.84158 0.47469,3.27897 0.6712,6.58642 0.7891,9.89662 0.41762,2.9871 0.84393,5.96313 1.07162,8.97422 0.19366,3.04617 0.20509,6.10079 0.21844,9.15234 0.005,3.47775 -3.3e-4,6.9555 -0.003,10.43324 0.29807,3.19304 0.73284,6.36768 0.98094,9.56634 0.18526,2.64341 0.21004,5.29461 0.22512,7.94372 0.007,2.80616 10e-4,5.61233 -0.001,8.41848 0.0459,2.67255 0.0595,5.31064 -0.35451,7.95168 -0.45791,2.45944 -0.66205,4.95284 -0.77683,7.4513 -0.0738,2.54453 -0.66575,5.03292 -0.96334,7.55676 -0.31643,2.41264 0.0202,4.8783 -0.85109,7.17109 -1.16192,1.84192 -3.42036,1.39445 -5.26346,1.33855 -2.57848,-0.10229 -5.15809,-0.16082 -7.73816,-0.19415 -3.13046,-0.0284 -6.26108,-0.0263 -9.39163,-0.0271 -3.51028,-0.0507 -6.99676,-0.0641 -10.48565,0.35385 -3.71694,0.47852 -7.45714,0.69284 -11.1983,0.81915 -3.31573,0.0917 -6.63298,0.0891 -9.94962,0.0902 -3.37666,-0.002 -6.75332,-0.005 -10.12998,-0.007 -3.0752,-0.002 -6.1504,-0.002 -9.22561,-0.002 -3.47248,-7e-5 -6.94496,-3e-5 -10.41744,-1e-5 -3.08551,2e-5 -6.17102,3e-5 -9.25652,3e-5 -2.7742,0 -5.54839,0 -8.32258,0 -2.68183,0 -5.36365,0 -8.04548,0 -3.30835,0 -6.61669,0 -9.92504,0 -2.73657,0 -5.47313,0 -8.2097,0 -2.41627,0 -4.83254,0 -7.24882,0 -2.53941,0.21261 -4.21491,-0.6854 -5.14657,-3.14019 -0.58032,-2.3557 -0.52339,-4.81298 -0.52765,-7.22677 0.0138,-2.77184 0.0311,-5.54365 0.0407,-8.31551 0.008,-2.66838 0.009,-5.33678 0.0102,-8.00517 3.8e-4,-2.51277 1.2e-4,-5.02554 10e-6,-7.53831 -1.1e-4,-2.50299 -1.4e-4,-5.00599 -1.6e-4,-7.50898 -10e-6,-2.50481 -10e-6,-5.00962 -10e-6,-7.51442 0,-2.50508 0,-5.01015 0,-7.51522 0,-2.50506 0,-5.01012 0,-7.51518 0,-2.50506 0,-5.01012 0,-7.51517 0,-2.50506 0,-5.01012 0,-7.51518 0,-2.50505 0,-5.01011 0,-7.51516 0,-2.75655 0,-5.5131 0,-8.26965 0,-2.66554 0,-5.33108 0,-7.99661 0.0484,-2.50122 0.059,-4.96637 -0.33498,-7.43639 -0.46751,-2.50203 -0.67398,-5.03935 -0.79121,-7.58133 -0.0863,-2.05706 -0.2616,-4.06311 0.4426,-6.01526 0,0 1.12071,0.45979 1.12071,0.45979 l 0,0 c -0.70931,1.74688 -0.3692,3.64323 -0.35987,5.49562 0.11448,2.49365 0.31672,4.98264 0.77645,7.43692 0.40238,2.53823 0.40495,5.07106 0.35112,7.64065 0,2.66553 0,5.33107 0,7.99661 0,2.75655 0,5.5131 0,8.26965 0,2.50505 0,5.01011 0,7.51516 0,2.50506 0,5.01012 0,7.51518 0,2.50505 0,5.01011 0,7.51517 0,2.50506 0,5.01012 0,7.51519 0,2.50506 0,5.01013 0,7.51521 0,2.5048 0,5.00961 1e-5,7.51441 2e-5,2.50298 5e-5,5.00596 1.6e-4,7.50894 1.1e-4,2.5129 3.7e-4,5.02581 -1e-5,7.53873 -7.3e-4,2.66978 -0.002,5.33956 -0.0102,8.00934 -0.01,2.7696 -0.0269,5.53914 -0.0407,8.30872 0.004,2.26437 -0.0507,4.5669 0.4495,6.78524 0.69289,2.01024 1.9812,2.50377 4.0199,2.33145 2.41628,0 4.83255,0 7.24882,0 2.73657,0 5.47313,0 8.2097,0 3.30835,0 6.61669,0 9.92504,0 2.68183,0 5.36365,0 8.04548,0 2.77419,0 5.54838,0 8.32257,0 3.08551,0 6.17102,-2e-5 9.25653,-4e-5 3.47249,-2e-5 6.94499,-6e-5 10.41749,1e-5 3.07541,1.2e-4 6.15082,1.8e-4 9.22623,0.002 3.3763,0.002 6.75261,0.005 10.12892,0.007 3.30374,-0.001 6.60809,0.001 9.91093,-0.0896 3.70819,-0.12499 7.41546,-0.33707 11.09962,-0.81161 3.53495,-0.42241 7.06734,-0.41566 10.62372,-0.36206 3.13544,8.4e-4 6.27095,-10e-4 9.40629,0.0272 2.58682,0.0335 5.17319,0.0921 7.75842,0.19459 1.25237,0.0381 3.17134,0.48949 4.11469,-0.5648 0.90133,-2.13946 0.36539,-4.5829 0.76879,-6.84551 0.29496,-2.49307 0.87704,-4.95157 0.95574,-7.46398 0.11749,-2.54602 0.32573,-5.08701 0.79123,-7.59346 0.40595,-2.57389 0.37892,-5.14562 0.33873,-7.75085 0.003,-2.80329 0.008,-5.60658 10e-4,-8.40986 -0.0149,-2.61803 -0.0388,-5.23812 -0.22125,-7.85056 -0.25024,-3.23248 -0.69894,-6.43961 -0.98483,-9.66793 0.003,-3.4755 0.009,-6.95102 0.003,-10.42652 -0.0132,-3.02075 -0.0241,-6.04455 -0.21475,-9.06002 -0.22835,-3.02858 -0.6686,-6.01968 -1.07449,-9.02595 -0.1162,-3.26932 -0.30957,-6.53595 -0.77898,-9.77437 -0.3907,-2.99775 -0.40483,-5.99051 -0.34191,-9.01339 0.007,-2.79846 0.0211,-5.59688 0.0403,-8.39529 0.01,-2.6189 0.0835,-5.25632 -0.24673,-7.85849 -0.38299,-1.87317 -0.98967,-3.19473 -3.04129,-3.27505 -2.54634,0.006 -5.09395,0.0144 -7.63771,0.1479 -2.67733,0.16636 -5.34385,0.4382 -7.98218,0.95531 -2.91774,0.33056 -5.86545,0.0597 -8.79595,0.15237 -3.63544,0.0149 -7.27359,0.019 -10.9045,0.23095 -3.61684,0.23891 -7.2099,0.68963 -10.81797,1.02679 -3.36242,0 -6.72484,0 -10.08725,-1e-5 -3.31533,-2e-5 -6.63065,-5e-5 -9.94597,-5e-5 -3.64478,2e-5 -7.28956,-2e-5 -10.93433,7.5e-4 -3.29323,9.6e-4 -6.58645,0.003 -9.87967,0.006 -4.33403,0.003 -8.66811,0.007 -13.00206,-0.0234 -4.21083,-0.0423 -8.43085,-0.0625 -12.62592,-0.48561 -2.61752,-0.3167 -5.21364,-0.90764 -7.86177,-0.75028 -2.56009,0 -5.12017,0 -7.68026,0 -2.74794,0 -5.49589,0 -8.24384,0 0,0 0,-1.25253 0,-1.25253 z"
     inkscape:connector-curvature="0" />
  <path
     style="fill:#000000;stroke-width:1;stroke-miterlimit:4;stroke-dasharray:8, 8;stroke-dashoffset:0"
     id="path3207"
     d="m 332.74514,207.45378 c 2.22195,-1.29747 4.38892,-2.66429 6.51293,-4.12632 1.93625,-1.34117 3.88146,-2.66693 5.74369,-4.11919 1.9208,-1.29369 3.64914,-2.84883 5.44228,-4.31757 1.79464,-1.14218 3.297,-2.68736 5.09753,-3.81178 1.58317,-1.22004 3.18545,-2.43383 4.62093,-3.83859 1.62127,-1.44585 3.38058,-2.71016 5.12037,-3.99946 1.99777,-1.25632 3.84285,-2.74958 5.78639,-4.09014 2.29045,-1.60367 4.72153,-2.99281 7.19423,-4.27473 2.67952,-1.37745 5.00303,-3.34622 7.41938,-5.14384 2.27275,-1.66398 4.43263,-3.49406 6.78402,-5.04246 2.10462,-1.44997 4.29431,-2.78681 6.24226,-4.45983 1.67049,-1.42046 3.32925,-2.8666 4.95405,-4.34719 1.88471,-1.70806 3.95651,-3.16086 5.94672,-4.7262 1.81109,-1.35359 3.57058,-2.79231 5.27097,-4.29399 1.94741,-1.8776 4.15942,-3.4472 6.08408,-5.34743 1.66925,-1.65967 3.63384,-2.94655 5.36688,-4.52554 1.41838,-1.33721 2.93299,-2.51423 4.54447,-3.59621 0.30098,-0.15475 0.60196,-0.30952 0.90295,-0.46427 0,0 0.55386,1.15372 0.55386,1.15372 l 0,0 c -0.25839,0.12978 -0.51677,0.25956 -0.77515,0.38934 -1.56448,1.04429 -3.02676,2.18485 -4.39971,3.48306 -1.72761,1.56006 -3.66246,2.85493 -5.32985,4.49058 -1.94883,1.90825 -4.16211,3.50864 -6.13363,5.3936 -1.71905,1.51714 -3.49768,2.97079 -5.32701,4.34063 -1.9697,1.54187 -4.01231,2.98122 -5.87598,4.66636 -1.63485,1.48927 -3.3051,2.94243 -4.9841,4.37371 -1.99588,1.6978 -4.2134,3.08384 -6.36823,4.55447 -2.33422,1.52955 -4.468,3.35625 -6.72429,5.00067 -2.47033,1.83775 -4.84766,3.84696 -7.58982,5.25044 -2.42777,1.25589 -4.81277,2.62158 -7.06089,4.19469 -1.93337,1.32947 -3.76419,2.81875 -5.75117,4.06497 -1.69494,1.256 -3.40877,2.48664 -4.99197,3.89024 -1.50815,1.46014 -3.16898,2.74643 -4.83582,4.00647 -1.7624,1.07805 -3.20251,2.62412 -4.96304,3.71571 -1.80088,1.47509 -3.53797,3.03608 -5.4661,4.3366 -1.88259,1.46611 -3.84702,2.80776 -5.80349,4.16302 -2.10541,1.44841 -4.24761,2.81403 -6.45762,4.08599 0,0 -0.75012,-1.02953 -0.75012,-1.02953 z"
     inkscape:connector-curvature="0" />
  <path
     style="fill:#000000;stroke-width:1;stroke-miterlimit:4;stroke-dasharray:8, 8;stroke-dashoffset:0"
     id="path3211"
     d="m 357.22891,153.73263 c 0,2.74795 0,5.4959 0,8.24384 0,0.45245 0,0.9049 0,1.35734 0,0 -1.20482,0 -1.20482,0 l 0,0 c 0,-0.45244 0,-0.90489 0,-1.35734 0,-2.74794 0,-5.49589 0,-8.24384 0,0 1.20482,0 1.20482,0 z"
     inkscape:connector-curvature="0" />
  <path
     style="fill:#000000;stroke-width:1;stroke-miterlimit:4;stroke-dasharray:8, 8;stroke-dashoffset:0"
     id="path3213"
     d="m 360.84337,156.14227 c 0,2.75199 0,5.50398 0,8.25597 0,0.25546 0.0586,2.27938 -1.028,-0.41034 -0.073,-0.18073 1.79268,-6.28031 1.9392,-6.72762 0.97916,-3.44257 2.30188,-6.60773 5.38406,-8.59023 1.72262,-0.77792 3.07175,-0.19636 4.64125,0.5746 0,0 -0.53363,1.0802 -0.53363,1.0802 l 0,0 c -1.17815,-0.58568 -2.13249,-1.16305 -3.46442,-0.63604 -2.86811,1.77021 -3.95731,4.8259 -4.88246,7.94698 -0.17877,0.54425 -1.83945,6.65808 -1.94458,6.74367 -1.38355,1.12632 -1.31624,0.53189 -1.31624,0.0188 0,-2.75199 0,-5.50398 0,-8.25597 0,0 1.20482,0 1.20482,0 z"
     inkscape:connector-curvature="0" />
  <path
     style="fill:#000000;stroke-width:1;stroke-miterlimit:4;stroke-dasharray:8, 8;stroke-dashoffset:0"
     id="path3225"
     d="m 372.89156,233.66034 c 0.06,2.72743 -0.14497,5.46632 0.14096,8.18218 -0.96481,-0.41387 0.75518,1.8291 0.59868,1.41826 -0.22036,-0.57847 -0.3227,-0.12219 0.20569,-1.18202 0.7417,-1.9364 1.3782,-3.92368 2.26272,-5.80249 0.57188,-1.65682 2.12852,-3.42526 2.67194,-0.50376 0.17452,2.04012 0.67772,4.03127 1.34475,5.96109 0.47717,0.88188 1.17688,3.17723 2.34578,1.86061 1.04331,-1.92582 1.13593,-4.24491 1.56632,-6.37204 0.32486,-1.76929 0.11916,-0.90633 0.61046,-2.59045 0,0 1.15574,0.34034 1.15574,0.34034 l 0,0 c -0.46644,1.56767 -0.26387,0.73979 -0.58532,2.48905 -0.48146,2.37944 -0.53151,5.02905 -1.97405,7.05713 -2.2988,1.68009 -3.36988,-0.40398 -4.25772,-2.39126 -0.688,-1.99277 -1.21007,-4.04993 -1.39427,-6.15569 -0.0818,-0.58703 -0.0611,-0.57779 0.52998,-0.76838 0.1141,-0.0368 -1.21868,1.56421 -0.92531,1.59026 -0.90173,1.87958 -1.50394,3.89089 -2.27351,5.82463 -1.35445,2.69899 -2.64356,2.13817 -3.08037,-0.65195 -0.27789,-2.75875 -0.0994,-5.53568 -0.14728,-8.30551 0,0 1.20481,0 1.20481,0 z"
     inkscape:connector-curvature="0" />
  <path
     style="fill:#000000;stroke-width:1;stroke-miterlimit:4;stroke-dasharray:8, 8;stroke-dashoffset:0"
     id="path3227"
     d="m 396.65245,237.39897 c -1.85683,-1.24316 -3.9321,-2.24022 -6.20687,-1.96832 -1.79148,0.5933 -2.55547,2.2646 -2.67696,4.04112 0.31745,1.87925 1.80054,2.6695 3.57951,2.47267 2.28517,-0.63533 3.58251,-2.57728 4.55742,-4.60789 0.1599,-0.21731 1.06747,-4.02797 1.13582,-3.99415 0.44814,0.22169 0.77451,0.63247 1.16176,0.94871 0.0577,2.13231 0.0224,4.26613 0.0104,6.39892 -0.0391,1.14764 -0.0306,2.26945 0.12488,3.40584 0,0 -1.19457,0.1568 -1.19457,0.1568 l 0,0 c -0.1508,-1.19207 -0.18683,-2.36665 -0.13511,-3.56942 0.0118,-2.10246 0.0455,-4.20583 -0.007,-6.30788 0.3594,-0.13569 1.16452,-0.81936 1.06128,-0.44933 -0.36544,1.30984 -0.49071,2.68893 -1.07296,3.93632 -1.18678,2.42469 -2.7789,4.62625 -5.54763,5.28324 -2.54836,0.14062 -4.57079,-1.07767 -4.87355,-3.779 0.24218,-2.37197 1.31241,-4.45829 3.75587,-5.13464 2.59352,-0.22657 4.935,0.73354 7.05107,2.20315 0,0 -0.72289,0.96386 -0.72289,0.96386 z"
     inkscape:connector-curvature="0" />
  <path
     style="fill:#000000;stroke-width:1;stroke-miterlimit:4;stroke-dasharray:8, 8;stroke-dashoffset:0"
     id="path3229"
     d="m 402.85973,228.67458 c -0.50358,3.46423 -0.89536,6.96566 -0.77317,10.46853 0.37274,3.30769 1.62328,4.98845 4.59605,6.34025 1.54743,0.56464 3.14989,0.82467 4.78854,0.74436 0,0 0.0491,1.20382 0.0491,1.20382 l 0,0 c -1.83205,0.062 -3.61923,-0.19387 -5.34327,-0.85462 -3.38661,-1.5887 -4.88775,-3.6144 -5.29452,-7.39354 -0.11501,-3.58321 0.26524,-7.16364 0.7889,-10.70687 0,0 1.18842,0.19807 1.18842,0.19807 z"
     inkscape:connector-curvature="0" />
  <path
     style="fill:#000000;stroke-width:1;stroke-miterlimit:4;stroke-dasharray:8, 8;stroke-dashoffset:0"
     id="path3231"
     d="m 399.56085,236.61106 c 2.29184,-0.3395 4.59979,-0.54504 6.90777,-0.73515 0,0 0.0988,1.20076 0.0988,1.20076 l 0,0 c -2.27478,0.18717 -4.54951,0.38952 -6.80855,0.72282 0,0 -0.19807,-1.18843 -0.19807,-1.18843 z"
     inkscape:connector-curvature="0" />
  <path
     style="fill:#000000;stroke-width:1;stroke-miterlimit:4;stroke-dasharray:8, 8;stroke-dashoffset:0"
     id="path3233"
     d="m 412.7224,238.8993 c 2.95958,-1.12608 5.9211,-2.232 8.33437,-4.33551 0.14397,-0.20838 0.35193,-0.38483 0.43192,-0.62515 0.13871,-0.41675 -3.32967,-0.55214 -3.49808,-0.54931 -2.49516,0.45337 -4.91187,1.4399 -6.51726,3.45179 -1.24766,2.17381 -1.18839,3.47156 0.64403,5.16498 2.54202,1.60157 5.25835,1.60484 7.93995,0.40876 2.44297,-1.13294 3.66846,-3.40411 5.31248,-5.35249 2.30234,-1.29596 1.78488,3.90994 1.79277,4.92727 -10e-4,1.30197 -0.0537,1.43009 0.13268,2.66195 0.0437,0.28859 0.0962,0.5774 0.18079,0.85677 0.0188,0.0622 0.18042,0.18297 0.12406,0.15054 -0.86823,-0.49973 -0.67834,-0.29705 -0.24351,-1.13356 1.16723,-3.48641 2.5897,-6.83059 4.68503,-9.86054 1.31985,-1.50417 3.49452,-3.79671 5.75441,-2.62447 0.38985,0.20222 0.69107,0.54214 1.0366,0.81321 0.27053,0.36002 0.54105,0.72003 0.81157,1.08005 0,0 -0.97216,0.71168 -0.97216,0.71168 l 0,0 c -0.20569,-0.2905 -0.41138,-0.581 -0.61707,-0.87149 -1.98504,-1.88016 -3.54682,-0.0209 -5.02363,1.57807 -2.08784,2.9953 -3.4313,6.33316 -4.62733,9.76889 -2.39732,3.9777 -2.53647,-1.78507 -2.44622,-3.12183 -0.009,-1.16494 -0.006,-2.32841 -0.10055,-3.4904 -0.0145,-0.17884 -0.16976,-0.39608 -0.0566,-0.53529 0.10602,-0.13038 0.83583,-0.034 0.48698,-0.13039 -1.77928,2.07355 -3.10265,4.50179 -5.74977,5.67686 -3.15862,1.34442 -6.32945,1.32175 -9.2538,-0.64341 -2.25686,-2.22194 -2.37382,-4.08928 -0.74374,-6.79747 1.88062,-2.25808 4.55415,-3.44681 7.43983,-3.89426 1.96071,-0.003 6.1399,0.49582 3.86424,3.29093 -2.55107,2.18676 -5.61863,3.40701 -8.74104,4.56681 0,0 -0.38099,-1.14299 -0.38099,-1.14299 z"
     inkscape:connector-curvature="0" />
  <path
     style="fill:#000000;stroke-width:1;stroke-miterlimit:4;stroke-dasharray:8, 8;stroke-dashoffset:0"
     id="path3227-8"
     d="m 350.15062,157.20395 c -1.85683,-1.24316 -3.9321,-2.24022 -6.20687,-1.96832 -1.79148,0.5933 -2.55547,2.2646 -2.67696,4.04112 0.31745,1.87925 1.80054,2.6695 3.57951,2.47267 2.28517,-0.63533 3.58251,-2.57728 4.55742,-4.60789 0.1599,-0.21731 1.06747,-4.02797 1.13582,-3.99415 0.44814,0.22169 0.77451,0.63247 1.16176,0.94871 0.0577,2.13231 0.0224,4.26613 0.0104,6.39892 -0.0391,1.14764 -0.0306,2.26945 0.12488,3.40584 0,0 -1.19457,0.1568 -1.19457,0.1568 l 0,0 c -0.1508,-1.19207 -0.18683,-2.36665 -0.13511,-3.56942 0.0118,-2.10246 0.0455,-4.20583 -0.007,-6.30788 0.3594,-0.13569 1.16452,-0.81936 1.06128,-0.44933 -0.36544,1.30984 -0.49071,2.68893 -1.07296,3.93632 -1.18678,2.42469 -2.7789,4.62625 -5.54763,5.28324 -2.54836,0.14062 -4.57079,-1.07767 -4.87355,-3.779 0.24218,-2.37197 1.31241,-4.45829 3.75587,-5.13464 2.59352,-0.22657 4.935,0.73354 7.05107,2.20315 0,0 -0.72289,0.96386 -0.72289,0.96386 z"
     inkscape:connector-curvature="0" />
  <path
     style="fill:#000000;stroke-width:1;stroke-miterlimit:4;stroke-dasharray:8, 8;stroke-dashoffset:0"
     id="path3253"
     d="m 433.2507,113.85542 c 2.74795,0 5.4959,0 8.24385,0 2.56008,0 5.12017,0 7.68025,0 2.75693,0 5.51385,0 8.27077,0 3.19138,0 6.38277,0 9.57416,0 0.43964,0 0.87928,0 1.31893,0 0,0 0,1.20482 0,1.20482 l 0,0 c -0.43965,0 -0.87929,0 -1.31893,0 -3.19139,0 -6.38278,0 -9.57416,0 -2.75692,0 -5.51384,0 -8.27077,0 -2.56008,0 -5.12017,0 -7.68025,0 -2.74795,0 -5.4959,0 -8.24385,0 0,0 0,-1.20482 0,-1.20482 z"
     inkscape:connector-curvature="0" />
  <path
     style="fill:#000000;stroke-width:1;stroke-miterlimit:4;stroke-dasharray:8, 8;stroke-dashoffset:0"
     id="path3257"
     d="m 433.02698,113.61027 c 2.6807,-0.96329 5.45243,-1.68325 8.10462,-2.72209 1.7355,-0.70684 3.52535,-1.21868 5.26818,-1.90507 0,0 0.44149,1.12102 0.44149,1.12102 l 0,0 c -1.7443,0.68695 -3.53452,1.20172 -5.27201,1.90657 -2.65237,1.02972 -5.4131,1.76753 -8.09483,2.71822 0,0 -0.44745,-1.11865 -0.44745,-1.11865 z"
     inkscape:connector-curvature="0" />
  <path
     style="fill:#000000;stroke-width:1;stroke-miterlimit:4;stroke-dasharray:8, 8;stroke-dashoffset:0"
     id="path3259"
     d="m 432.26961,114.18674 c 2.68344,0.82422 5.14574,2.17196 7.71265,3.27499 0.96743,0.547 1.95592,1.03889 2.97471,1.48033 0,0 -0.48059,1.10481 -0.48059,1.10481 l 0,0 c -1.016,-0.44356 -2.00867,-0.92428 -2.97039,-1.47845 -2.55641,-1.10171 -5.01079,-2.44043 -7.68383,-3.26304 0,0 0.44745,-1.11864 0.44745,-1.11864 z"
     inkscape:connector-curvature="0" />
  <path
     style="fill:#000000;stroke-width:1;stroke-miterlimit:4;stroke-dasharray:8, 8;stroke-dashoffset:0"
     id="path3261"
     d="m 459.98046,109.36746 c 2.40854,0.89491 4.75549,1.96139 7.0671,3.08389 1.44887,0.58364 4.14339,1.41828 1.29499,2.83145 -1.88912,0.6029 -3.6778,1.50291 -5.43364,2.41794 -1.4994,0.71779 -0.73514,0.38236 -2.2934,1.00489 0,0 -0.44578,-1.11932 -0.44578,-1.11932 l 0,0 c 1.47189,-0.58423 0.74407,-0.26648 2.18298,-0.95432 1.77158,-0.92078 3.57532,-1.83551 5.48085,-2.44121 0.15426,-0.0647 0.29632,-0.21036 0.46278,-0.194 0.0897,0.009 0.0527,0.17551 0.10394,0.24971 0.0718,0.10398 0.33593,0.17607 0.25926,0.27648 -0.002,0.002 -2.06604,-1.10351 -2.13827,-0.98783 -2.28585,-1.11005 -4.60558,-2.16657 -6.98827,-3.04903 0,0 0.44746,-1.11865 0.44746,-1.11865 z"
     inkscape:connector-curvature="0" />
  <path
     style="fill:#000000;stroke-width:1;stroke-miterlimit:4;stroke-dasharray:8, 8;stroke-dashoffset:0"
     id="path3263"
     d="m 334.45552,115.06024 c 2.74795,0 5.4959,0 8.24385,0 2.56008,0 5.12017,0 7.68025,0 2.41387,0 4.82774,0 7.24161,0 2.40755,0 4.81511,0 7.22266,0 2.40944,0 4.81888,0 7.22832,0 2.23692,0.16535 4.38223,-0.0927 6.56405,-0.53367 2.2089,-0.44858 4.4627,-0.55743 6.70917,-0.63103 2.37812,0.0124 4.77533,-0.20915 7.13835,0.10175 2.06715,0.48122 4.15928,0.77131 6.27362,0.92794 2.34506,0.13678 4.6952,0.13718 7.04339,0.14306 2.41073,10e-4 4.82146,-0.003 7.23219,-0.005 2.41066,-0.002 4.82132,-0.002 7.23198,-0.003 2.40969,-1.5e-4 4.81937,-10e-5 7.22906,-8e-5 0.4016,0 0.8032,0 1.20481,1e-5 0,0 -10e-6,1.20482 -10e-6,1.20482 l 0,0 c -0.40161,-1e-5 -0.80321,-1e-5 -1.20481,-1e-5 -2.40965,-2e-5 -4.81929,-7e-5 -7.22893,8e-5 -2.41033,2.3e-4 -4.82066,5.7e-4 -7.23098,0.003 -2.41211,0.002 -4.82422,0.007 -7.23633,0.005 -2.37697,-0.006 -4.75593,-0.007 -7.12967,-0.14638 -2.13848,-0.15945 -4.25697,-0.44539 -6.34725,-0.93569 -2.29079,-0.3258 -4.6289,-0.0551 -6.93607,-0.0913 -2.17952,0.0711 -4.36656,0.17346 -6.50986,0.60779 -2.25925,0.45656 -4.48812,0.72171 -6.80271,0.55755 -2.40944,0 -4.81888,0 -7.22832,0 -2.40755,0 -4.81511,0 -7.22266,0 -2.41387,0 -4.82774,0 -7.24161,0 -2.56008,0 -5.12017,0 -7.68025,0 -2.74795,0 -5.4959,0 -8.24385,0 0,0 0,-1.20482 0,-1.20482 z"
     inkscape:connector-curvature="0" />
  <path
     style="fill:#000000;stroke-width:1;stroke-miterlimit:4;stroke-dasharray:8, 8;stroke-dashoffset:0"
     id="path3267"
     d="m 421.20251,110.24096 c 2.70964,0.33552 5.40765,0.66223 8.05233,1.34889 1.68296,0.49672 4.17461,0.39282 4.69698,2.39859 -0.66312,1.65422 -2.52505,2.67743 -4.04887,3.48674 -1.62035,0.97094 -3.28417,1.9096 -5.02188,2.65749 -0.99428,0.55807 -0.48206,0.27943 -1.5377,0.834 0,0 -0.56012,-1.0667 -0.56012,-1.0667 l 0,0 c 1.06689,-0.55996 0.52529,-0.26873 1.62406,-0.87506 1.71162,-0.72684 3.33955,-1.66632 4.93453,-2.61591 1.21552,-0.63297 2.33816,-1.5051 3.41146,-2.29756 0.79066,-0.35511 -3.68365,-1.36962 -3.80154,-1.35551 -2.54634,-0.66257 -5.14233,-0.96834 -7.74925,-1.31015 0,0 0,-1.20482 0,-1.20482 z"
     inkscape:connector-curvature="0" />
  <path
     style="fill:#000000;stroke-width:1;stroke-miterlimit:4;stroke-dasharray:8, 8;stroke-dashoffset:0"
     id="path3269"
     d="m 333.2507,113.85542 c 2.39033,-0.42144 4.78639,-0.7708 7.20453,-0.98415 2.04246,-0.57092 4.18345,-0.76314 6.21907,-1.33461 1.2338,-0.37775 0.60721,-0.19549 1.88015,-0.54556 0,0 0.31919,1.16177 0.31919,1.16177 l 0,0 c -1.25054,0.34323 -0.62409,0.16168 -1.87917,0.54529 -2.11191,0.57287 -4.31315,0.81421 -6.43354,1.37328 -2.45385,0.21575 -4.88035,0.59199 -7.31023,0.9888 0,0 0,-1.20482 0,-1.20482 z"
     inkscape:connector-curvature="0" />
  <path
     style="fill:#000000;stroke-width:1;stroke-miterlimit:4;stroke-dasharray:8, 8;stroke-dashoffset:0"
     id="path3271"
     d="m 333.56064,114.37362 c 2.45982,1.17711 4.82701,2.54711 7.40777,3.44936 1.90161,0.93059 3.94049,1.46681 5.9061,2.23011 0,0 -0.43614,1.12311 -0.43614,1.12311 l 0,0 c -1.95308,-0.75844 -3.98059,-1.28918 -5.86915,-2.21645 -2.65509,-0.93618 -5.10087,-2.32857 -7.62845,-3.55301 0,0 0.61987,-1.03312 0.61987,-1.03312 z"
     inkscape:connector-curvature="0" />
  <path
     style="fill:#000000;stroke-width:1;stroke-miterlimit:4;stroke-dasharray:8, 8;stroke-dashoffset:0"
     id="path3277"
     d="m 369.4284,81.853114 c -0.0298,2.78495 -0.46464,5.53837 -0.69572,8.30689 2.9e-4,2.38812 -0.50067,4.67415 -0.84314,7.00145 -0.14491,1.78402 0.92261,1.45256 1.95339,1.23938 1.83194,-0.49096 3.6919,-0.73501 5.5584,-0.88202 1.8576,-0.27483 3.64706,-0.0274 5.46482,0.42799 0,0 -0.18656,1.18167 -0.18656,1.18167 l 0,0 c -1.73777,-0.43542 -3.44136,-0.67845 -5.21871,-0.40718 -1.83618,0.14395 -3.66547,0.38557 -5.46749,0.86935 -1.81419,0.35447 -3.21286,0.1651 -3.0442,-2.64913 0.33904,-2.2968 0.83549,-4.55002 0.83231,-6.9076 0.22796,-2.72669 0.65504,-5.43891 0.69048,-8.1808 0,0 0.95642,0 0.95642,0 z"
     inkscape:connector-curvature="0" />
  <path
     style="fill:#000000;stroke-width:1;stroke-miterlimit:4;stroke-dasharray:8, 8;stroke-dashoffset:0"
     id="path3227-8-5"
     d="m 392.87351,96.866604 c -1.85683,-1.24316 -3.9321,-2.24022 -6.20687,-1.96832 -1.79148,0.5933 -2.55547,2.2646 -2.67696,4.04112 0.31745,1.879246 1.80054,2.669496 3.57951,2.472666 2.28517,-0.63533 3.58251,-2.577276 4.55742,-4.607886 0.1599,-0.21731 1.06747,-4.02797 1.13582,-3.99415 0.44814,0.22169 0.77451,0.63247 1.16176,0.94871 0.0577,2.13231 0.0224,4.26613 0.0104,6.398916 -0.0391,1.14764 -0.0306,2.26945 0.12488,3.40584 0,0 -1.19457,0.1568 -1.19457,0.1568 l 0,0 c -0.1508,-1.19207 -0.18683,-2.36665 -0.13511,-3.56942 0.0118,-2.102456 0.0455,-4.205826 -0.007,-6.307876 0.3594,-0.13569 1.16452,-0.81936 1.06128,-0.44933 -0.36544,1.30984 -0.49071,2.68893 -1.07296,3.93632 -1.18678,2.42469 -2.7789,4.626246 -5.54763,5.283236 -2.54836,0.14062 -4.57079,-1.07767 -4.87355,-3.778996 0.24218,-2.37197 1.31241,-4.45829 3.75587,-5.13464 2.59352,-0.22657 4.935,0.73354 7.05107,2.20315 0,0 -0.72289,0.96386 -0.72289,0.96386 z"
     inkscape:connector-curvature="0" />
  <path
     style="fill:#000000;stroke-width:1;stroke-miterlimit:4;stroke-dasharray:8, 8;stroke-dashoffset:0"
     id="path3225-2"
     d="m 456.0128,92.263534 c 0.06,2.72743 -0.14497,5.46632 0.14096,8.182176 -0.96481,-0.41387 0.75518,1.8291 0.59868,1.41826 -0.22036,-0.57847 -0.3227,-0.12219 0.20569,-1.18202 0.7417,-1.936396 1.3782,-3.923676 2.26272,-5.802486 0.57188,-1.65682 2.12852,-3.42526 2.67194,-0.50376 0.17452,2.04012 0.67772,4.03127 1.34475,5.961086 0.47717,0.88188 1.17688,3.17723 2.34577,1.86061 1.04331,-1.92582 1.13593,-4.244906 1.56632,-6.372036 0.32486,-1.76929 0.11916,-0.90633 0.61046,-2.59045 0,0 1.15574,0.34034 1.15574,0.34034 l 0,0 c -0.46644,1.56767 -0.26387,0.73979 -0.58532,2.48905 -0.48146,2.37944 -0.53151,5.029046 -1.97405,7.057126 -2.29879,1.68009 -3.36987,-0.40398 -4.25771,-2.39126 -0.688,-1.992766 -1.21007,-4.049926 -1.39427,-6.155686 -0.0818,-0.58703 -0.0611,-0.57779 0.52998,-0.76838 0.1141,-0.0368 -1.21868,1.56421 -0.92531,1.59026 -0.90173,1.87958 -1.50394,3.89089 -2.27351,5.824626 -1.35445,2.69899 -2.64356,2.13817 -3.08037,-0.65195 -0.27789,-2.758746 -0.0994,-5.535676 -0.14728,-8.305506 0,0 1.20481,0 1.20481,0 z"
     inkscape:connector-curvature="0" />
  <path
     style="fill:#000000;stroke-width:1;stroke-miterlimit:4;stroke-dasharray:8, 8;stroke-dashoffset:0"
     id="path3277-1"
     d="m 441.31076,81.426194 c -0.0298,2.78495 -0.46464,5.53837 -0.69572,8.30689 2.9e-4,2.38812 -0.50067,4.67415 -0.84314,7.00145 -0.14491,1.78402 0.92261,1.45256 1.95339,1.23938 1.83194,-0.49096 3.6919,-0.73501 5.5584,-0.88202 1.8576,-0.27483 3.64706,-0.0274 5.46482,0.42799 0,0 -0.18656,1.18167 -0.18656,1.18167 l 0,0 c -1.73777,-0.43542 -3.44136,-0.67845 -5.21871,-0.40718 -1.83618,0.14395 -3.66547,0.38557 -5.46749,0.86935 -1.81419,0.35447 -3.21286,0.1651 -3.0442,-2.64913 0.33904,-2.2968 0.83549,-4.55002 0.83231,-6.9076 0.22796,-2.72669 0.65504,-5.43891 0.69048,-8.1808 0,0 0.95642,0 0.95642,0 z"
     inkscape:connector-curvature="0" />
  <path
     style="fill:#000000;stroke-width:1;stroke-miterlimit:4;stroke-dasharray:8, 8;stroke-dashoffset:0"
     id="path3341"
     d="m 400.60241,24.961094 c 0.10279,2.95471 -0.31959,5.90096 -0.87757,8.81295 -0.55504,3.26895 -1.41804,6.4781 -2.47146,9.65597 -1.0439,2.29375 -1.93488,4.61004 -2.38452,7.03907 0,0 -1.19034,-0.1566 -1.19034,-0.1566 l 0,0 c 0.46085,-2.46701 1.34459,-4.82655 2.41431,-7.15463 1.04151,-3.14154 1.89522,-6.31361 2.44262,-9.54547 0.5507,-2.85827 0.96357,-5.75087 0.86214,-8.65129 0,0 1.20482,0 1.20482,0 z"
     inkscape:connector-curvature="0" />
  <path
     style="fill:#000000;stroke-width:1;stroke-miterlimit:4;stroke-dasharray:8, 8;stroke-dashoffset:0"
     id="path3345"
     d="m 400.91428,25.428014 c 1.47931,1.94275 2.52126,4.1184 3.40909,6.29563 0.62849,2.11565 1.09614,4.2631 1.61592,6.40169 0.79036,1.72015 1.349,3.47348 1.6441,5.29922 0.13043,1.53761 0.20157,3.04628 0.58631,4.55562 0,0 -1.17824,0.21172 -1.17824,0.21172 l 0,0 c -0.38855,-1.53496 -0.48185,-3.06803 -0.60203,-4.63161 -0.28826,-1.80507 -0.86835,-3.52728 -1.63057,-5.2321 -0.50899,-2.09634 -0.97221,-4.20022 -1.5754,-6.27642 -0.84375,-2.07838 -1.83931,-4.15365 -3.23304,-6.01573 0,0 0.96386,-0.60802 0.96386,-0.60802 z"
     inkscape:connector-curvature="0" />
  <path
     style="fill:#000000;stroke-width:1;stroke-miterlimit:4;stroke-dasharray:8, 8;stroke-dashoffset:0"
     id="path3347"
     d="m 397.10613,39.940914 c 3.46361,0.1181 6.87077,-0.1884 10.28634,-0.45396 0,0 0.2554,1.00349 0.2554,1.00349 l 0,0 c -3.49944,0.27205 -6.99358,0.5809 -10.54174,0.46383 0,0 0,-1.01336 0,-1.01336 z"
     inkscape:connector-curvature="0" />
  <path
     style="fill:#000000;stroke-width:1;stroke-miterlimit:4;stroke-dasharray:8, 8;stroke-dashoffset:0"
     id="path3349"
     d="m 411.98764,44.036574 c -0.28034,2.03831 -0.55416,4.07438 -0.71708,6.12659 -0.0656,0.8965 -0.0936,1.79506 -0.12842,2.69314 -0.007,0.18541 0.13771,0.63098 -0.029,0.55589 -0.31138,-0.14032 -0.58501,-0.35503 -0.87751,-0.53255 0.27805,-1.74227 1.11751,-3.35621 1.89813,-4.917 0.73223,-1.54403 1.47487,-3.17523 2.9832,-4.05266 2.11641,-0.36379 2.52886,2.10576 2.99238,3.69464 0.44674,2.08498 0.81089,4.17451 1.678,6.12887 0,0 -0.79737,0.36463 -0.79737,0.36463 l 0,0 c -0.87443,-1.99451 -1.28007,-4.1115 -1.71867,-6.24057 -0.28619,-0.98592 -0.51037,-3.00462 -1.73711,-3.16538 -1.37275,0.70287 -1.93809,2.37065 -2.62176,3.67486 -0.71973,1.43544 -1.4817,2.91653 -1.80279,4.50277 -0.28892,0.15307 -0.56726,0.3289 -0.86674,0.45921 -0.15273,0.0664 0.0192,-0.33775 0.0258,-0.50676 0.0353,-0.91067 0.0639,-1.82185 0.13064,-2.73091 0.1614,-2.02809 0.42066,-4.04244 0.71423,-6.05477 0,0 0.87406,0 0.87406,0 z"
     inkscape:connector-curvature="0" />
  <path
     style="fill:#000000;stroke-width:1;stroke-miterlimit:4;stroke-dasharray:8, 8;stroke-dashoffset:0"
     id="path3263-1"
     d="m 334.80606,63.843404 c 3.90725,0 7.81449,0 11.72174,0 3.64011,0 7.28025,0 10.92036,0 3.43223,0 6.86445,0 10.29668,0 3.42324,0 6.84649,0 10.26973,0 3.42592,0 6.85185,0 10.27778,0 3.18062,0.16535 6.23099,-0.0927 9.33327,-0.53367 3.14078,-0.44858 6.3454,-0.55743 9.53961,-0.63103 3.38139,0.0124 6.78993,-0.20915 10.14985,0.10175 2.93923,0.48122 5.91398,0.77131 8.92031,0.92794 3.33439,0.13678 6.676,0.13718 10.01483,0.14306 3.42776,0.001 6.85552,-0.003 10.28328,-0.005 3.42766,-0.002 6.85532,-0.002 10.28298,-0.003 3.42629,-1.5e-4 6.85255,-1e-4 10.27884,-8e-5 0.57102,0 1.14205,0 1.71309,1e-5 0,0 -2e-5,1.20482 -2e-5,1.20482 l 0,0 c -0.57104,-1e-5 -1.14206,-1e-5 -1.71309,-1e-5 -3.42622,-2e-5 -6.85243,-7e-5 -10.27864,8e-5 -3.4272,2.3e-4 -6.85439,5.7e-4 -10.28157,0.003 -3.42972,0.002 -6.85944,0.007 -10.28916,0.005 -3.37976,-0.006 -6.76235,-0.007 -10.13751,-0.14638 -3.04066,-0.15945 -6.05289,-0.44539 -9.02501,-0.93569 -3.25722,-0.3258 -6.58172,-0.0551 -9.86223,-0.0913 -3.09901,0.0711 -6.20871,0.17346 -9.25622,0.60779 -3.21237,0.45656 -6.38155,0.72171 -9.67261,0.55755 -3.42593,0 -6.85186,0 -10.27778,0 -3.42324,0 -6.84649,0 -10.26973,0 -3.43223,0 -6.86445,0 -10.29668,0 -3.64011,0 -7.28025,0 -10.92036,0 -3.90725,0 -7.81449,0 -11.72174,0 0,0 0,-1.20482 0,-1.20482 z"
     inkscape:connector-curvature="0" />
  <path
     style="fill:#000000;stroke-width:1;stroke-miterlimit:4;stroke-dasharray:8, 8;stroke-dashoffset:0"
     id="path3369"
     d="m 331.82216,63.007864 c 2.76479,-0.90344 5.49664,-1.90239 8.32319,-2.60157 2.41679,-0.60238 4.73328,-1.47123 7.08603,-2.26808 0,0 0.386,1.14131 0.386,1.14131 l 0,0 c -2.38514,0.80543 -4.73383,1.68669 -7.18327,2.29648 -2.77328,0.6832 -5.45075,1.66983 -8.1645,2.55051 0,0 -0.44745,-1.11865 -0.44745,-1.11865 z"
     inkscape:connector-curvature="0" />
  <path
     style="fill:#000000;stroke-width:1;stroke-miterlimit:4;stroke-dasharray:8, 8;stroke-dashoffset:0"
     id="path3371"
     d="m 332.16403,63.408824 c 2.31316,0.8397 4.68991,1.4398 7.00177,2.27915 2.21718,0.97327 4.32763,2.13562 6.64659,2.85403 0.35889,0.14416 0.71778,0.28833 1.07666,0.43249 0,0 -0.45104,1.11721 -0.45104,1.11721 l 0,0 c -0.32796,-0.13313 -0.65591,-0.26625 -0.98387,-0.39938 -2.33486,-0.73073 -4.47351,-1.87153 -6.69953,-2.87187 -2.25515,-0.81888 -4.57556,-1.39613 -6.82687,-2.2302 0,0 0.23629,-1.18143 0.23629,-1.18143 z"
     inkscape:connector-curvature="0" />
  <path
     style="fill:#000000;stroke-width:1;stroke-miterlimit:4;stroke-dasharray:8, 8;stroke-dashoffset:0"
     id="path3373"
     d="m 458.77564,58.765054 c 2.65215,0.99032 5.30831,1.96179 7.91318,3.07158 1.10794,0.59247 2.25145,1.0982 3.41678,1.56354 0,0 -0.44787,1.11848 -0.44787,1.11848 l 0,0 c -1.17251,-0.47071 -2.32725,-0.97353 -3.44115,-1.57361 -2.59661,-1.10627 -5.24456,-2.07415 -7.8884,-3.06134 0,0 0.44746,-1.11865 0.44746,-1.11865 z"
     inkscape:connector-curvature="0" />
  <path
     style="fill:#000000;stroke-width:1;stroke-miterlimit:4;stroke-dasharray:8, 8;stroke-dashoffset:0"
     id="path3375"
     d="m 457.12336,69.031964 c 2.45761,-1.17044 4.92969,-2.33807 7.30319,-3.6728 1.84605,-0.8955 3.75701,-1.87678 5.76123,-2.36167 0.1804,-0.0226 0.36081,-0.0453 0.54121,-0.0679 0,0 0.14225,1.19639 0.14225,1.19639 l 0,0 c -0.13743,0.0152 -0.27487,0.0303 -0.4123,0.0454 -1.89657,0.41109 -3.69474,1.42995 -5.44332,2.23875 -2.42301,1.35388 -4.9354,2.55591 -7.4448,3.74045 0,0 -0.44746,-1.11864 -0.44746,-1.11864 z"
     inkscape:connector-curvature="0" />
</svg>
